<?xml version="1.0" encoding="UTF-8" standalone="no"?>
<svg
   width="31.99511"
   height="32"
   viewBox="0 0 3.2764992 3.2755"
   preserveAspectRatio="xMidYMid"
   version="1.1"
   id="svg1"
   sodipodi:docname="apache-solr.svg"
   inkscape:version="1.4 (e7c3feb1, 2024-10-09)"
   xmlns:inkscape="http://www.inkscape.org/namespaces/inkscape"
   xmlns:sodipodi="http://sodipodi.sourceforge.net/DTD/sodipodi-0.dtd"
   xmlns="http://www.w3.org/2000/svg"
   xmlns:svg="http://www.w3.org/2000/svg">
  <defs
     id="defs1" />
  <sodipodi:namedview
     id="namedview1"
     pagecolor="#ffffff"
     bordercolor="#000000"
     borderopacity="0.25"
     inkscape:showpageshadow="2"
     inkscape:pageopacity="0.0"
     inkscape:pagecheckerboard="0"
     inkscape:deskcolor="#d1d1d1"
     inkscape:zoom="1.3199085"
     inkscape:cx="16.667822"
     inkscape:cy="120.08408"
     inkscape:window-width="1800"
     inkscape:window-height="1098"
     inkscape:window-x="0"
     inkscape:window-y="71"
     inkscape:window-maximized="0"
     inkscape:current-layer="svg1" />
  <path
     d="M 2.8319986,0.51700135 1.2184994,2.2610005 3.2459984,1.3260009 A 1.6349992,1.6349992 0 0 0 2.8319986,0.51750135 Z M 1.6349992,-0.00149839 A 1.6349992,1.6349992 0 0 0 1.0044995,0.12400155 L 0.78799961,1.9480006 1.8699991,0.0155016 A 1.6499992,1.6499992 0 0 0 1.6354992,-0.00149839 Z M 3.2619984,1.4265009 1.3409993,2.5015004 3.1434985,2.2875005 a 1.6349992,1.6349992 0 0 0 0.1329999,-0.6474997 1.5049993,1.5049993 0 0 0 -0.015,-0.2134999 z M 2.5539987,3.0000001 A 1.6499992,1.6499992 0 0 0 3.0724985,2.4320004 L 1.3824993,2.7670002 Z M 1.968499,0.03250159 1.0284995,2.0705006 2.7724986,0.45700138 A 1.6399992,1.6399992 0 0 0 1.968499,0.03200159 Z M 1.7719991,3.2755 A 1.6299992,1.6299992 0 0 0 2.2869989,3.1465 L 1.3409993,3.0340001 1.7719991,3.275 Z M 0.13849993,0.96500113 A 1.6299992,1.6299992 0 0 0 0,1.4925009 L 0.24999988,1.9425006 Z M 0.86199958,0.19150151 A 1.6499992,1.6499992 0 0 0 0.28349986,0.70800126 L 0.52149974,1.9060006 Z"
     fill="#c7402b"
     id="path1"
     style="stroke-width:0.5" />
</svg>
