<?xml version="1.0" encoding="UTF-8" standalone="no"?>
<svg
   viewBox="0 0 32 32"
   version="1.1"
   id="svg2"
   sodipodi:docname="apple-tv.svg"
   width="32"
   height="32"
   inkscape:version="1.4 (e7c3feb1, 2024-10-09)"
   xmlns:inkscape="http://www.inkscape.org/namespaces/inkscape"
   xmlns:sodipodi="http://sodipodi.sourceforge.net/DTD/sodipodi-0.dtd"
   xmlns="http://www.w3.org/2000/svg"
   xmlns:svg="http://www.w3.org/2000/svg">
  <sodipodi:namedview
     id="namedview2"
     pagecolor="#ffffff"
     bordercolor="#000000"
     borderopacity="0.25"
     inkscape:showpageshadow="2"
     inkscape:pageopacity="0.0"
     inkscape:pagecheckerboard="0"
     inkscape:deskcolor="#d1d1d1"
     inkscape:zoom="3.2380671"
     inkscape:cx="65.162331"
     inkscape:cy="2.6250228"
     inkscape:window-width="1800"
     inkscape:window-height="1098"
     inkscape:window-x="0"
     inkscape:window-y="71"
     inkscape:window-maximized="0"
     inkscape:current-layer="svg2" />
  <defs
     id="defs2">
    <style
       id="style1">.cls-1{fill:url(#linear-gradient);}.cls-2{fill:#f9f9f9;}</style>
    <linearGradient
       id="linear-gradient"
       x1="12.13"
       y1="14.65"
       x2="12.13"
       y2="38.73"
       gradientTransform="matrix(1,0,0,-1,0,38.73)"
       gradientUnits="userSpaceOnUse">
      <stop
         offset="0"
         stop-color="#111"
         id="stop1" />
      <stop
         offset="1"
         stop-color="#333"
         id="stop2" />
    </linearGradient>
  </defs>
  <g
     id="Layer_2"
     data-name="Layer 2"
     transform="scale(1.3195876)">
    <g
       id="UK-US">
      <path
         class="cls-1"
         d="m 13.39,0 h 5.1 a 11.54,11.54 0 0 1 1.59,0.14 5.09,5.09 0 0 1 1.44,0.48 4.72,4.72 0 0 1 1.23,0.89 4.84,4.84 0 0 1 0.89,1.22 5.14,5.14 0 0 1 0.47,1.45 10.15,10.15 0 0 1 0.14,1.58 c 0,0.25 0,0.5 0,0.75 v 11.23 c 0,0.25 0,0.5 0,0.75 a 10.38,10.38 0 0 1 -0.14,1.59 5.07,5.07 0 0 1 -0.47,1.44 4.79,4.79 0 0 1 -2.12,2.12 5.07,5.07 0 0 1 -1.44,0.47 10.17,10.17 0 0 1 -1.59,0.14 H 5.77 A 10.15,10.15 0 0 1 4.19,24.11 5,5 0 0 1 2.74,23.64 4.84,4.84 0 0 1 1.52,22.75 4.72,4.72 0 0 1 0.63,21.52 5.09,5.09 0 0 1 0.15,20.08 11.82,11.82 0 0 1 0,18.49 c 0,-0.25 0,-0.5 0,-0.75 V 6.52 C 0,6.27 0,6.02 0,5.77 A 11.54,11.54 0 0 1 0.15,4.19 5.15,5.15 0 0 1 0.63,2.74 4.89,4.89 0 0 1 2.74,0.63 5,5 0 0 1 4.19,0.15 11.54,11.54 0 0 1 5.77,0 h 7.62"
         id="path2"
         style="fill:url(#linear-gradient)" />
      <path
         id="_tv"
         data-name="  tv"
         class="cls-2"
         d="M 6.82,9.11 A 2,2 0 0 1 7.3,7.71 2,2 0 0 1 8.64,7 2,2 0 0 1 8.17,8.45 1.66,1.66 0 0 1 6.82,9.11 Z m 2.5,2.73 a 2.07,2.07 0 0 1 1,-1.73 2.13,2.13 0 0 0 -1.66,-0.9 c -0.75,0 -1.38,0.43 -1.74,0.43 -0.36,0 -0.9,-0.41 -1.49,-0.4 a 2.24,2.24 0 0 0 -1.88,1.14 c -0.8,1.38 -0.21,3.44 0.57,4.56 0.38,0.56 0.84,1.17 1.44,1.15 0.6,-0.02 0.79,-0.37 1.48,-0.37 0.69,0 0.89,0.37 1.49,0.36 0.6,-0.01 1,-0.56 1.4,-1.12 a 4.82,4.82 0 0 0 0.62,-1.28 2,2 0 0 1 -1.23,-1.84 z m 10.48,-2.17 -1.58,5.1 v 0 L 16.65,9.67 H 15.29 L 17.53,16 h 1.34 L 21.11,9.65 Z M 13.39,8.15 H 12.13 V 9.67 H 11.2 v 1 h 0.93 v 3.69 c 0,1.22 0.49,1.71 1.75,1.71 A 4,4 0 0 0 14.6,16 v -1 h -0.43 c -0.54,0 -0.78,-0.26 -0.78,-0.81 v -3.52 h 1.22 v -1 h -1.22 z" />
    </g>
  </g>
</svg>
