<?xml version="1.0" encoding="UTF-8" standalone="no"?>
<svg
   width="31.999456"
   height="32"
   viewBox="1.578 2.186 13.918624 13.91613"
   version="1.1"
   id="svg1"
   sodipodi:docname="aws.svg"
   inkscape:version="1.4 (e7c3feb1, 2024-10-09)"
   xmlns:inkscape="http://www.inkscape.org/namespaces/inkscape"
   xmlns:sodipodi="http://sodipodi.sourceforge.net/DTD/sodipodi-0.dtd"
   xmlns="http://www.w3.org/2000/svg"
   xmlns:svg="http://www.w3.org/2000/svg">
  <defs
     id="defs1" />
  <sodipodi:namedview
     id="namedview1"
     pagecolor="#ffffff"
     bordercolor="#000000"
     borderopacity="0.25"
     inkscape:showpageshadow="2"
     inkscape:pageopacity="0.0"
     inkscape:pagecheckerboard="0"
     inkscape:deskcolor="#d1d1d1"
     inkscape:zoom="4.430767"
     inkscape:cx="1.1284728"
     inkscape:cy="28.776056"
     inkscape:window-width="1800"
     inkscape:window-height="1098"
     inkscape:window-x="0"
     inkscape:window-y="71"
     inkscape:window-maximized="0"
     inkscape:current-layer="svg1" />
  <path
     fill="#f7a80d"
     d="m 5.5407025,10.852623 -1.2751142,0.547728 1.1809078,0.505015 1.3693207,-0.505015 z m -1.9170617,0.68466 -0.042725,2.464777 1.8655682,0.821592 v -2.55897 z m 3.8341108,0 -1.6859233,0.641934 v 2.413309 l 1.6859233,-0.68466 z M 9.469007,3.8690742 8.1851249,4.4168153 9.3747877,4.9218179 10.744108,4.4168153 Z M 7.68889,4.5967418 v 2.4647773 l 1.5917041,0.462277 0.051481,-2.2424068 z M 11.249137,4.7336611 9.7428839,5.3756085 V 7.7976729 L 11.24915,7.1130125 V 4.7336611 Z M 3.4396055,7.3381223 2.1644912,7.8858506 3.3453991,8.3908661 4.7147198,7.8858506 Z M 1.5225566,8.0227828 1.4798306,10.487573 3.3453988,11.309166 V 8.7501688 Z m 3.8341108,0 -1.6859106,0.6419346 v 2.4132966 l 1.6859106,-0.68466 z M 7.5475805,7.2471927 6.2724662,7.7949209 7.4533741,8.2999364 8.8226948,7.7949209 Z M 5.6305187,7.9318658 5.5877929,10.396643 7.4533613,11.218236 V 8.6595207 Z m 3.8341108,0 -1.6859106,0.6419347 v 2.4132965 l 1.6859106,-0.68466 z M 13.481406,3.8690742 12.206304,4.4168025 13.387212,4.9218051 14.75652,4.4168025 Z m -1.917062,0.6846603 -0.04271,2.4647774 1.865568,0.8215923 V 5.2813893 Z m 3.834111,0 -1.68591,0.6419347 v 2.4132966 l 1.68591,-0.6846603 z"
     id="path1"
     style="stroke-width:0.0127998" />
</svg>
