<?xml version="1.0" encoding="UTF-8" standalone="no"?>
<svg
   width="29.07959"
   height="32"
   version="1.1"
   id="svg6"
   sodipodi:docname="balenaio.svg"
   inkscape:version="1.4 (e7c3feb1, 2024-10-09)"
   xmlns:inkscape="http://www.inkscape.org/namespaces/inkscape"
   xmlns:sodipodi="http://sodipodi.sourceforge.net/DTD/sodipodi-0.dtd"
   xmlns="http://www.w3.org/2000/svg"
   xmlns:svg="http://www.w3.org/2000/svg">
  <defs
     id="defs6" />
  <sodipodi:namedview
     id="namedview6"
     pagecolor="#ffffff"
     bordercolor="#000000"
     borderopacity="0.25"
     inkscape:showpageshadow="2"
     inkscape:pageopacity="0.0"
     inkscape:pagecheckerboard="0"
     inkscape:deskcolor="#d1d1d1"
     inkscape:zoom="1.4115096"
     inkscape:cx="36.13153"
     inkscape:cy="23.024995"
     inkscape:window-width="1800"
     inkscape:window-height="1098"
     inkscape:window-x="0"
     inkscape:window-y="71"
     inkscape:window-maximized="0"
     inkscape:current-layer="svg6" />
  <path
     d="m 15.240307,19.148638 v 9.316175 c 0.397964,-0.06749 0.780931,-0.199982 1.1309,-0.406964 l 7.734315,-4.432107 a 3.6096805,3.6096805 0 0 0 1.80884,-3.16572 v -8.81922 a 2.6497655,2.6497655 0 0 0 -0.180984,-1.039908 l -8.36676,4.839572 c -1.763843,1.220892 -2.125811,2.351792 -2.125811,3.708172 z"
     fill="#ffc100"
     id="path1"
     style="stroke-width:0.499956" />
  <path
     d="m 28.808106,8.7970538 -3.074728,1.7633442 a 3.8746571,3.8746571 0 0 1 0.180984,1.039908 v 8.864215 a 3.7046721,3.7046721 0 0 1 -1.80884,3.16572 l -7.734315,4.432608 a 4.8145739,4.8145739 0 0 1 -1.1309,0.406964 v 3.527688 c 0.541452,-0.08499 1.062906,-0.268477 1.537864,-0.542452 l 10.040111,-5.749492 a 4.5395982,4.5395982 0 0 0 2.2613,-3.934651 V 10.289422 c -0.002,-0.5099551 -0.09399,-1.0149104 -0.271476,-1.4923682 z"
     fill="#f6eb61"
     id="path2"
     style="stroke-width:0.499956" />
  <path
     d="m 14.516871,16.213898 c 0.536452,-0.825927 1.265888,-1.509867 2.124812,-1.989824 L 25.099434,9.3405057 C 24.824458,8.9815375 24.487488,8.6755646 24.099523,8.4405854 L 16.371707,4.0029781 a 3.7696663,3.7696663 0 0 0 -3.663676,0 L 5.0202111,8.4345859 a 3.9446509,3.9446509 0 0 0 -1.039908,0.9044199 l 8.4117559,4.8845682 a 6.5044243,6.5044243 0 0 1 2.125812,1.989824 z"
     fill="#439879"
     id="path3"
     style="stroke-width:0.499956" />
  <path
     d="M 5.0202111,8.4795819 12.708531,4.0474742 a 3.7696663,3.7696663 0 0 1 3.663675,0 l 7.733316,4.4321077 a 3.1797186,3.1797186 0 0 1 0.994912,0.90442 L 28.175162,7.620158 A 3.7296699,3.7296699 0 0 0 26.818782,6.4442621 L 16.778171,0.61027842 a 4.4946022,4.4946022 0 0 0 -4.5226,0 L 2.3054514,6.399766 A 4.394611,4.394611 0 0 0 0.94907138,7.6206579 L 4.0237993,9.3845018 A 2.7547562,2.7547562 0 0 1 5.0187112,8.4800819 Z"
     fill="#28cdfb"
     id="path4"
     style="stroke-width:0.499956" />
  <path
     d="M 12.708031,28.062849 5.0202111,23.630741 a 3.6096805,3.6096805 0 0 1 -1.8088399,-3.16572 v -8.864215 a 3.5996814,3.5996814 0 0 1 0.134988,-0.999912 L 0.27163138,8.8380502 A 4.1046367,4.1046367 0 0 0 1.5538245e-4,10.285422 V 21.818401 C -0.01334362,23.430759 0.85357988,24.921627 2.2614552,25.708057 L 12.26057,31.457548 C 12.735528,31.731524 13.256482,31.915508 13.798434,32 V 28.472812 A 2.6747633,2.6747633 0 0 1 12.71353,28.065849 Z"
     fill="#fdd757"
     id="path5"
     style="stroke-width:0.499956" />
  <path
     d="M 11.667623,15.39897 3.3403597,10.605894 c -0.089992,0.323971 -0.134988,0.658942 -0.134988,0.999911 v 8.864216 a 3.6096805,3.6096805 0 0 0 1.8093399,3.16572 l 7.6883194,4.432107 a 4.8145739,4.8145739 0 0 0 1.1309,0.406964 v -9.326174 c -0.04999,-1.35638 -0.407464,-2.48778 -2.170808,-3.753668 z"
     fill="#ec8b00"
     id="path6"
     style="stroke-width:0.499956" />
</svg>
