<?xml version="1.0" encoding="UTF-8" standalone="no"?>
<svg
   version="1.1"
   id="Layer_1"
   x="0px"
   y="0px"
   viewBox="0 0 32.000001 32"
   xml:space="preserve"
   sodipodi:docname="docker.svg"
   width="32"
   height="32"
   inkscape:version="1.4 (e7c3feb1, 2024-10-09)"
   xmlns:inkscape="http://www.inkscape.org/namespaces/inkscape"
   xmlns:sodipodi="http://sodipodi.sourceforge.net/DTD/sodipodi-0.dtd"
   xmlns="http://www.w3.org/2000/svg"
   xmlns:svg="http://www.w3.org/2000/svg"><defs
     id="defs1" /><sodipodi:namedview
     id="namedview1"
     pagecolor="#ffffff"
     bordercolor="#000000"
     borderopacity="0.25"
     inkscape:showpageshadow="2"
     inkscape:pageopacity="0.0"
     inkscape:pagecheckerboard="0"
     inkscape:deskcolor="#d1d1d1"
     inkscape:zoom="9.9732975"
     inkscape:cx="19.050871"
     inkscape:cy="31.233401"
     inkscape:window-width="1800"
     inkscape:window-height="1098"
     inkscape:window-x="0"
     inkscape:window-y="71"
     inkscape:window-maximized="0"
     inkscape:current-layer="Layer_1" /><style
     type="text/css"
     id="style1">.st0{fill:#1D63ED;}</style><g
     id="g1"
     transform="matrix(0.26044425,0,0,0.26044425,-0.09584441,4.2112451)"><path
       class="st0"
       d="m 121.68,33.34 c -0.34,-0.28 -3.42,-2.62 -10.03,-2.62 -1.71,0 -3.48,0.17 -5.19,0.46 -1.25,-8.72 -8.49,-12.94 -8.78,-13.16 l -1.77,-1.03 -1.14,1.65 c -1.42,2.22 -2.51,4.73 -3.13,7.29 -1.2,4.96 -0.46,9.63 2.05,13.62 -3.02,1.71 -7.92,2.11 -8.95,2.17 H 3.81 c -2.11,0 -3.82,1.71 -3.82,3.82 -0.11,7.07 1.08,14.13 3.53,20.8 2.79,7.29 6.95,12.71 12.31,16.01 6.04,3.7 15.9,5.81 27.01,5.81 5.01,0 10.03,-0.46 14.99,-1.37 6.9,-1.25 13.51,-3.65 19.6,-7.12 5.02,-2.91 9.52,-6.61 13.34,-10.94 6.44,-7.24 10.26,-15.33 13.05,-22.51 0.4,0 0.74,0 1.14,0 7.01,0 11.34,-2.79 13.73,-5.19 1.6,-1.48 2.79,-3.31 3.65,-5.36 l 0.51,-1.48 z m -50.09,6.04 h 10.83 c 0.51,0 0.97,-0.4 0.97,-0.97 v -9.69 c 0,-0.51 -0.4,-0.97 -0.97,-0.97 v 0 H 71.59 c -0.51,0 -0.97,0.4 -0.97,0.97 v 0 9.69 c 0.06,0.57 0.46,0.97 0.97,0.97 z M 56.49,11.63 h 10.83 c 0.51,0 0.97,-0.4 0.97,-0.97 V 0.97 C 68.29,0.46 67.83,0 67.32,0 H 56.49 c -0.51,0 -0.97,0.4 -0.97,0.97 v 0 9.69 c 0,0.51 0.45,0.97 0.97,0.97 z m 0,13.9 h 10.83 c 0.51,0 0.97,-0.46 0.97,-0.97 v -9.69 c 0,-0.51 -0.46,-0.97 -0.97,-0.97 H 56.49 c -0.51,0 -0.97,0.4 -0.97,0.97 v 0 9.69 c 0,0.52 0.45,0.97 0.97,0.97 z m -14.99,0 h 10.83 c 0.51,0 0.97,-0.46 0.97,-0.97 v -9.69 c 0,-0.51 -0.4,-0.97 -0.97,-0.97 v 0 H 41.5 c -0.51,0 -0.97,0.4 -0.97,0.97 v 0 9.69 c 0,0.52 0.4,0.97 0.97,0.97 z m -15.22,0 h 10.83 c 0.51,0 0.97,-0.46 0.97,-0.97 v -9.69 c 0,-0.51 -0.4,-0.97 -0.97,-0.97 v 0 H 26.28 c -0.51,0 -0.97,0.4 -0.97,0.97 v 9.69 c 0.06,0.52 0.46,0.97 0.97,0.97 z m 30.21,13.85 h 10.83 c 0.51,0 0.97,-0.4 0.97,-0.97 v -9.69 c 0,-0.51 -0.4,-0.97 -0.97,-0.97 v 0 H 56.49 c -0.51,0 -0.97,0.4 -0.97,0.97 v 0 9.69 c 0,0.57 0.45,0.97 0.97,0.97 z m -14.99,0 h 10.83 c 0.51,0 0.97,-0.4 0.97,-0.97 v 0 -9.69 c 0,-0.51 -0.4,-0.97 -0.97,-0.97 v 0 H 41.5 c -0.51,0 -0.97,0.4 -0.97,0.97 v 0 9.69 c 0,0.57 0.4,0.97 0.97,0.97 z m -15.22,0 h 10.83 c 0.51,0 0.97,-0.4 0.97,-0.97 v 0 -9.69 c 0,-0.51 -0.4,-0.97 -0.97,-0.97 v 0 H 26.28 c -0.51,0 -0.97,0.4 -0.97,0.97 v 9.69 c 0.06,0.57 0.46,0.97 0.97,0.97 z m -14.93,0 h 10.83 c 0.51,0 0.97,-0.4 0.97,-0.97 v 0 -9.69 c 0,-0.51 -0.4,-0.97 -0.97,-0.97 v 0 H 11.35 c -0.51,0 -0.97,0.4 -0.97,0.97 v 0 9.69 c 0.06,0.57 0.46,0.97 0.97,0.97 z"
       id="path1" /></g></svg>
