<?xml version="1.0" encoding="UTF-8"?>
<svg id="logosandtypes_com" data-name="logosandtypes com" xmlns="http://www.w3.org/2000/svg" viewBox="0 0 150 150">
  <defs>
    <style>
      .cls-1 {
        fill: #0678be;
      }

      .cls-2 {
        fill: none;
      }
    </style>
  </defs>
  <path class="cls-2" d="M0,0H150V150H0V0Z"/>
  <g id="Livello_2" data-name="Livello 2">
    <g id="Livello_1-2" data-name="Livello 1-2">
      <path class="cls-1" d="M95.6,30c-9.58-9.58-18.72-18.7-21.44-29-2.72,10.29-11.86,19.42-21.44,29-14.37,14.36-30.66,30.63-30.66,55.04-.01,28.77,23.3,52.11,52.07,52.12,28.77,.01,52.11-23.3,52.12-52.07,0-.02,0-.03,0-.05,0-24.41-16.29-40.68-30.66-55.04M44.21,97.18c-3.19-.11-14.98-20.43,6.89-42.07l14.47,15.81c.49,.48,.49,1.26,.01,1.75-.03,.03-.07,.07-.11,.1-3.45,3.54-18.17,18.3-20,23.41-.38,1.05-.93,1.01-1.26,1m29.96,26.78c-9.9,0-17.92-8.02-17.92-17.92h0c.07-4.34,1.65-8.53,4.47-11.84,3.23-3.95,13.45-15.06,13.45-15.06,0,0,10.06,11.27,13.43,15.02,2.93,3.26,4.53,7.49,4.49,11.87,0,9.9-8.02,17.92-17.92,17.92m34.3-29.06c-.39,.84-1.26,2.25-2.44,2.3-2.11,.08-2.33-1-3.89-3.31-3.42-5.06-33.27-36.25-38.85-42.29-4.91-5.31-.69-9.05,1.27-11.01,2.46-2.46,9.62-9.62,9.62-9.62,0,0,21.37,20.28,30.27,34.13,8.9,13.85,5.83,25.84,4.03,29.8"/>
    </g>
  </g>
</svg>