<?xml version="1.0" encoding="UTF-8" standalone="no"?>
<svg
   id="logosandtypes_com"
   data-name="logosandtypes com"
   viewBox="0 0 32 32"
   version="1.1"
   sodipodi:docname="drupal.svg"
   width="32"
   height="32"
   inkscape:version="1.4 (e7c3feb1, 2024-10-09)"
   xmlns:inkscape="http://www.inkscape.org/namespaces/inkscape"
   xmlns:sodipodi="http://sodipodi.sourceforge.net/DTD/sodipodi-0.dtd"
   xmlns="http://www.w3.org/2000/svg"
   xmlns:svg="http://www.w3.org/2000/svg">
  <sodipodi:namedview
     id="namedview2"
     pagecolor="#ffffff"
     bordercolor="#000000"
     borderopacity="0.25"
     inkscape:showpageshadow="2"
     inkscape:pageopacity="0.0"
     inkscape:pagecheckerboard="0"
     inkscape:deskcolor="#d1d1d1"
     showgrid="false"
     inkscape:zoom="7.7669282"
     inkscape:cx="31.2865"
     inkscape:cy="18.733275"
     inkscape:window-width="1800"
     inkscape:window-height="1126"
     inkscape:window-x="0"
     inkscape:window-y="43"
     inkscape:window-maximized="0"
     inkscape:current-layer="logosandtypes_com" />
  <defs
     id="defs1">
    <style
       id="style1">
      .cls-1 {
        fill: #0678be;
      }

      .cls-2 {
        fill: none;
      }
    </style>
  </defs>
  <path
     class="cls-2"
     d="M 0,0 H 32 V 32 H 0 Z"
     id="path1"
     style="stroke-width:0.213333" />
  <g
     id="Livello_2"
     data-name="Livello 2"
     transform="matrix(0.21333333,0,0,0.21333333,0,1.0300082)">
    <g
       id="Livello_1-2"
       data-name="Livello 1-2">
      <path
         class="cls-1"
         d="M 95.6,30 C 86.02,20.42 76.88,11.3 74.16,1 71.44,11.29 62.3,20.42 52.72,30 38.35,44.36 22.06,60.63 22.06,85.04 c -0.01,28.77 23.3,52.11 52.07,52.12 28.77,0.01 52.11,-23.3 52.12,-52.07 0,-0.02 0,-0.03 0,-0.05 C 126.25,60.63 109.96,44.36 95.59,30 M 44.21,97.18 C 41.02,97.07 29.23,76.75 51.1,55.11 l 14.47,15.81 c 0.49,0.48 0.49,1.26 0.01,1.75 -0.03,0.03 -0.07,0.07 -0.11,0.1 -3.45,3.54 -18.17,18.3 -20,23.41 -0.38,1.05 -0.93,1.01 -1.26,1 m 29.96,26.78 c -9.9,0 -17.92,-8.02 -17.92,-17.92 v 0 c 0.07,-4.34 1.65,-8.53 4.47,-11.84 3.23,-3.95 13.45,-15.06 13.45,-15.06 0,0 10.06,11.27 13.43,15.02 2.93,3.26 4.53,7.49 4.49,11.87 0,9.9 -8.02,17.92 -17.92,17.92 m 34.3,-29.06 c -0.39,0.84 -1.26,2.25 -2.44,2.3 -2.11,0.08 -2.33,-1 -3.89,-3.31 C 98.72,88.82 68.87,57.63 63.29,51.59 58.38,46.28 62.6,42.54 64.56,40.58 c 2.46,-2.46 9.62,-9.62 9.62,-9.62 0,0 21.37,20.28 30.27,34.13 8.9,13.85 5.83,25.84 4.03,29.8"
         id="path2" />
    </g>
  </g>
</svg>
