<?xml version="1.0" encoding="UTF-8" standalone="no"?>
<svg
   width="32"
   height="31.466766"
   version="1.1"
   id="svg1"
   sodipodi:docname="github.svg"
   inkscape:version="1.4 (e7c3feb1, 2024-10-09)"
   xmlns:inkscape="http://www.inkscape.org/namespaces/inkscape"
   xmlns:sodipodi="http://sodipodi.sourceforge.net/DTD/sodipodi-0.dtd"
   xmlns="http://www.w3.org/2000/svg"
   xmlns:svg="http://www.w3.org/2000/svg">
  <defs
     id="defs1" />
  <sodipodi:namedview
     id="namedview1"
     pagecolor="#ffffff"
     bordercolor="#000000"
     borderopacity="0.25"
     inkscape:showpageshadow="2"
     inkscape:pageopacity="0.0"
     inkscape:pagecheckerboard="0"
     inkscape:deskcolor="#d1d1d1"
     inkscape:zoom="19.233651"
     inkscape:cx="15.987604"
     inkscape:cy="19.315105"
     inkscape:window-width="1800"
     inkscape:window-height="1126"
     inkscape:window-x="0"
     inkscape:window-y="43"
     inkscape:window-maximized="0"
     inkscape:current-layer="svg1" />
  <path
     fill-rule="evenodd"
     clip-rule="evenodd"
     d="M 16.013239,0 C 7.1583316,0 0,7.2111038 0,16.132222 c 0,7.131126 4.5865898,13.167476 10.949405,15.303929 0.795516,0.160611 1.08691,-0.347116 1.08691,-0.77421 0,-0.373994 -0.02622,-1.655932 -0.02622,-2.991625 -4.4544952,0.961699 -5.3821053,-1.92307 -5.3821053,-1.92307 -0.715866,-1.869643 -1.7765538,-2.350164 -1.7765538,-2.350164 -1.457954,-0.988249 0.1061999,-0.988249 0.1061999,-0.988249 1.6172539,0.106855 2.4658697,1.655931 2.4658697,1.655931 1.4314041,2.45702 3.7379735,1.762787 4.6659115,1.335366 0.132423,-1.041677 0.556894,-1.762787 1.007588,-2.163331 -3.5527794,-0.373995 -7.2907534,-1.762788 -7.2907534,-7.95942 0,-1.762787 0.6358883,-3.205008 1.6434761,-4.326662 -0.158972,-0.400544 -0.7158659,-2.0568039 0.1592999,-4.2735627 0,0 1.3520819,-0.4274218 4.4007404,1.6559316 a 15.395707,15.395707 0 0 1 4.003473,-0.5342772 c 1.352082,0 2.730386,0.1871609 4.003146,0.5342772 3.048986,-2.0833534 4.401068,-1.6559316 4.401068,-1.6559316 0.875166,2.2167588 0.317944,3.8730187 0.158972,4.2735627 1.034138,1.121654 1.643804,2.563875 1.643804,4.326662 0,6.196632 -3.737974,7.558548 -7.317304,7.95942 0.583444,0.507399 1.08691,1.46877 1.08691,2.991296 0,2.163332 -0.02622,3.899569 -0.02622,4.433518 0,0.427422 0.291722,0.935149 1.08691,0.774866 C 27.413339,29.29937 31.999928,23.263348 31.999928,16.132222 32.026151,7.2111038 24.841597,0 16.013239,0 Z"
     fill="#24292f"
     id="path1"
     style="stroke-width:0.327777" />
</svg>
