<?xml version="1.0" encoding="UTF-8" standalone="no"?>
<svg
   height="32"
   preserveAspectRatio="xMidYMid"
   viewBox="0 0 32 32"
   width="32"
   version="1.1"
   id="svg4"
   sodipodi:docname="google-cloud.svg"
   inkscape:version="1.4 (e7c3feb1, 2024-10-09)"
   xmlns:inkscape="http://www.inkscape.org/namespaces/inkscape"
   xmlns:sodipodi="http://sodipodi.sourceforge.net/DTD/sodipodi-0.dtd"
   xmlns="http://www.w3.org/2000/svg"
   xmlns:svg="http://www.w3.org/2000/svg">
  <defs
     id="defs4" />
  <sodipodi:namedview
     id="namedview4"
     pagecolor="#ffffff"
     bordercolor="#000000"
     borderopacity="0.25"
     inkscape:showpageshadow="2"
     inkscape:pageopacity="0.0"
     inkscape:pagecheckerboard="0"
     inkscape:deskcolor="#d1d1d1"
     inkscape:zoom="3.1858638"
     inkscape:cx="3.7666394"
     inkscape:cy="10.515202"
     inkscape:window-width="1800"
     inkscape:window-height="1098"
     inkscape:window-x="0"
     inkscape:window-y="71"
     inkscape:window-maximized="0"
     inkscape:current-layer="svg4" />
  <path
     d="M 21.28146,9.9272993 24.063086,7.1456732 24.248461,5.9744228 C 19.179584,1.365296 11.121956,1.8879212 6.5525791,7.0649232 5.2833286,8.5027988 4.3417032,10.295425 3.839578,12.14655 l 0.9962504,-0.140375 5.5631276,-0.917375 0.4295,-0.43925 C 13.303082,7.9317985 17.487208,7.5661734 20.34446,9.8785493 Z"
     fill="#ea4335"
     id="path1"
     style="stroke-width:0.125" />
  <path
     d="M 28.0256,12.06475 C 27.386225,9.7102492 26.073599,7.5936234 24.248474,5.9744978 l -3.904002,3.9040015 c 1.648501,1.3470007 2.587626,3.3762517 2.547376,5.5046277 v 0.693001 c 1.918876,0 3.474626,1.555625 3.474626,3.474501 0,1.919001 -1.55575,3.435626 -3.474626,3.435626 H 15.93297 l -0.68325,0.74175 v 4.167502 l 0.68325,0.653875 h 6.958878 c 4.991252,0.03888 9.069004,-3.936751 9.107879,-8.928003 0.0235,-3.025376 -1.468126,-5.861627 -3.974127,-7.556629"
     fill="#4285f4"
     id="path2"
     style="stroke-width:0.125" />
  <path
     d="M 8.9837925,28.549445 H 15.93292 V 22.986193 H 8.9837925 c -0.4951252,-1.25e-4 -0.9746254,-0.1065 -1.4248755,-0.31225 l -0.9858754,0.3025 -2.8011261,2.781626 -0.2440001,0.94675 c 1.5708756,1.186126 3.4875013,1.853126 5.4558771,1.844626"
     fill="#34a853"
     id="path3"
     style="stroke-width:0.125" />
  <path
     d="M 8.9837925,10.503162 C 3.9924156,10.532912 -0.02958603,14.603414 1.6398259e-4,19.594666 0.01678899,22.381917 1.3185395,25.005668 3.5279154,26.704794 L 7.558917,22.673918 C 5.8100413,21.883792 5.032916,19.825666 5.8230413,18.076916 6.6130416,16.328165 8.6712924,15.55104 10.419918,16.34104 c 0.770625,0.348125 1.387751,0.965375 1.735876,1.735876 l 4.031001,-4.030877 C 14.47167,11.803913 11.806669,10.493037 8.9837925,10.503162"
     fill="#fbbc05"
     id="path4"
     style="stroke-width:0.125" />
</svg>
