<?xml version="1.0" encoding="UTF-8" standalone="no"?>
<svg
   width="27.636515"
   height="32"
   version="1.1"
   id="svg3"
   sodipodi:docname="google-analytics.svg"
   inkscape:version="1.4 (e7c3feb1, 2024-10-09)"
   xmlns:inkscape="http://www.inkscape.org/namespaces/inkscape"
   xmlns:sodipodi="http://sodipodi.sourceforge.net/DTD/sodipodi-0.dtd"
   xmlns="http://www.w3.org/2000/svg"
   xmlns:svg="http://www.w3.org/2000/svg">
  <defs
     id="defs3" />
  <sodipodi:namedview
     id="namedview3"
     pagecolor="#ffffff"
     bordercolor="#000000"
     borderopacity="0.25"
     inkscape:showpageshadow="2"
     inkscape:pageopacity="0.0"
     inkscape:pagecheckerboard="0"
     inkscape:deskcolor="#d1d1d1"
     inkscape:zoom="0.40625"
     inkscape:cx="27.076923"
     inkscape:cy="30.769231"
     inkscape:window-width="1800"
     inkscape:window-height="1098"
     inkscape:window-x="0"
     inkscape:window-y="71"
     inkscape:window-maximized="0"
     inkscape:current-layer="svg3" />
  <g
     transform="matrix(0.18181918,0,0,0.18181818,-3.6363836,-1.4545454)"
     id="g3">
    <path
       d="m 130,29 v 132 c 0,14.77 10.2,23 21,23 10,0 21,-7 21,-23 V 30 C 172,16.46 162,8 151,8 140,8 130,17.33 130,29 Z"
       fill="#f9ab00"
       id="path1" />
    <g
       fill="#e37400"
       id="g2">
      <path
         d="m 75,96 v 65 c 0,14.77 10.2,23 21,23 10,0 21,-7 21,-23 V 97 C 117,83.46 107,75 96,75 85,75 75,84.33 75,96 Z"
         id="path2" />
      <circle
         cx="41"
         cy="163"
         r="21"
         id="circle2" />
    </g>
  </g>
</svg>
