<?xml version="1.0" encoding="UTF-8" standalone="no"?>
<svg
   version="1.1"
   viewBox="0 0 31.999066 15.877"
   id="svg4"
   width="31.999065"
   height="15.877"
   sodipodi:docname="ios.svg"
   inkscape:version="1.4 (e7c3feb1, 2024-10-09)"
   xmlns:inkscape="http://www.inkscape.org/namespaces/inkscape"
   xmlns:sodipodi="http://sodipodi.sourceforge.net/DTD/sodipodi-0.dtd"
   xmlns="http://www.w3.org/2000/svg"
   xmlns:svg="http://www.w3.org/2000/svg">
  <sodipodi:namedview
     id="namedview1"
     pagecolor="#ffffff"
     bordercolor="#000000"
     borderopacity="0.25"
     inkscape:showpageshadow="2"
     inkscape:pageopacity="0.0"
     inkscape:pagecheckerboard="0"
     inkscape:deskcolor="#d1d1d1"
     inkscape:zoom="3.0891537"
     inkscape:cx="54.383827"
     inkscape:cy="14.081527"
     inkscape:window-width="1800"
     inkscape:window-height="1126"
     inkscape:window-x="0"
     inkscape:window-y="43"
     inkscape:window-maximized="0"
     inkscape:current-layer="svg4" />
  <defs
     id="defs8" />
  <path
     d="M 0.14875871,15.621813 H 2.7949117 V 4.3571775 H 0.14875871 Z M 1.4665301,2.8799283 c 0.8289191,0 1.4771676,-0.6376383 1.4771676,-1.4346454 C 2.9436977,0.63761117 2.2954492,0 1.4665301,0 0.64824846,0 0,0.63763838 0,1.4452829 0,2.2423172 0.64824846,2.8799283 1.4665301,2.8799283 Z M 11.605138,0.03180302 c -4.4739153,0 -7.2796004,3.04998878 -7.2796004,7.92790338 0,4.8779146 2.805413,7.9172936 7.2796004,7.9172936 4.463305,0 7.26899,-3.039379 7.26899,-7.9172936 0,-4.8779146 -2.805413,-7.92790338 -7.26899,-7.92790338 z m 0,2.33797108 c 2.731143,0 4.473915,2.1679379 4.473915,5.5898779 0,3.411276 -1.742827,5.579267 -4.473915,5.579267 -2.7417524,0 -4.4739153,-2.167937 -4.4739153,-5.579267 0,-3.4218856 1.7322173,-5.5898779 4.4739153,-5.5898779 z m 8.385225,8.9374929 c 0.116898,2.826905 2.433598,4.569678 5.961775,4.569678 3.708901,0 6.046927,-1.827871 6.046927,-4.739711 0,-2.2848121 -1.317772,-3.5706989 -4.431476,-4.2826623 L 25.803488,6.4507359 c -1.881003,-0.4463306 -2.656763,-1.041447 -2.656763,-2.0616467 0,-1.2752495 1.168985,-2.1254159 2.901176,-2.1254159 1.753465,0 2.954225,0.8608037 3.081819,2.2954493 h 2.614267 c -0.06376,-2.6992851 -2.295449,-4.52723796 -5.674758,-4.52723796 -3.337004,0 -5.70686,1.83848136 -5.70686,4.55906806 0,2.1891853 1.339019,3.5494786 4.165679,4.1977815 l 1.987267,0.4676051 c 1.934136,0.4569678 2.720533,1.0945787 2.720533,2.1997947 0,1.27525 -1.285888,2.189186 -3.13487,2.189186 -1.870366,0 -3.283683,-0.924546 -3.453716,-2.337971 h -2.656763 z"
     id="path2"
     style="stroke-width:0.272053" />
</svg>
