<?xml version="1.0" encoding="UTF-8" standalone="no"?>
<!-- Uploaded to: SVG Repo, www.svgrepo.com, Generator: SVG Repo Mixer Tools -->

<svg
   fill="#000000"
   width="32"
   height="32"
   viewBox="0 0 1.28 1.28"
   id="icon"
   version="1.1"
   sodipodi:docname="iot.svg"
   inkscape:version="1.4 (e7c3feb1, 2024-10-09)"
   xmlns:inkscape="http://www.inkscape.org/namespaces/inkscape"
   xmlns:sodipodi="http://sodipodi.sourceforge.net/DTD/sodipodi-0.dtd"
   xmlns="http://www.w3.org/2000/svg"
   xmlns:svg="http://www.w3.org/2000/svg"
   xmlns:rdf="http://www.w3.org/1999/02/22-rdf-syntax-ns#"
   xmlns:cc="http://creativecommons.org/ns#"
   xmlns:dc="http://purl.org/dc/elements/1.1/">
  <sodipodi:namedview
     id="namedview4"
     pagecolor="#ffffff"
     bordercolor="#000000"
     borderopacity="0.25"
     inkscape:showpageshadow="2"
     inkscape:pageopacity="0.0"
     inkscape:pagecheckerboard="0"
     inkscape:deskcolor="#d1d1d1"
     inkscape:zoom="5.5085681"
     inkscape:cx="4.7199199"
     inkscape:cy="19.878124"
     inkscape:window-width="1800"
     inkscape:window-height="1098"
     inkscape:window-x="0"
     inkscape:window-y="71"
     inkscape:window-maximized="0"
     inkscape:current-layer="icon" />
  <defs
     id="defs1">
    <style
       id="style1">.cls-1{fill:none;}</style>
  </defs>
  <title
     id="title1">iot--platform</title>
  <path
     d="M 1.2,0.76 H 1.04 V 0.6 H 0.96 V 0.96 H 0.32 V 0.32 l 0.36,-3.6e-5 V 0.24 H 0.52 V 0.08 H 0.44 V 0.24 H 0.32 A 0.08008,0.08008 0 0 0 0.24,0.32 V 0.44 H 0.08 V 0.52 H 0.24 V 0.76 H 0.08 V 0.84 H 0.24 V 0.96 A 0.080092,0.080092 0 0 0 0.32,1.04 H 0.44 V 1.2 H 0.52 V 1.04 H 0.76 V 1.2 H 0.84 V 1.04 H 0.96 A 0.080108,0.080108 0 0 0 1.04,0.96 V 0.84 H 1.2 Z"
     id="path1"
     style="stroke-width:0.04" />
  <path
     d="m 0.84,0.84 h -0.4 v -0.4 h 0.4 z M 0.52,0.76 H 0.76 V 0.52 H 0.52 Z"
     id="path2"
     style="stroke-width:0.04" />
  <path
     d="M 1.24,0.52 H 1.16 A 0.400468,0.400468 0 0 0 0.76,0.12 V 0.04 a 0.480524,0.480524 0 0 1 0.48,0.48 z"
     id="path3"
     style="stroke-width:0.04" />
  <path
     d="M 1.04,0.52 H 0.96 A 0.200236,0.200236 0 0 0 0.76,0.32 V 0.24 a 0.28034,0.28034 0 0 1 0.28,0.28 z"
     id="path4"
     style="stroke-width:0.04" />
  <rect
     id="_Transparent_Rectangle_"
     data-name="&lt;Transparent Rectangle&gt;"
     class="cls-1"
     width="1.28"
     height="1.28"
     x="0"
     y="0"
     style="stroke-width:0.04" />
  <metadata
     id="metadata4">
    <rdf:RDF>
      <cc:Work
         rdf:about="">
        <dc:title>iot--platform</dc:title>
      </cc:Work>
    </rdf:RDF>
  </metadata>
</svg>
