<?xml version="1.0" encoding="UTF-8" standalone="no"?>
<!-- Uploaded to: SVG Repo, www.svgrepo.com, Generator: SVG Repo Mixer Tools -->

<svg
   width="29.002176"
   height="31.999979"
   viewBox="0 0 1.1600871 1.2799992"
   version="1.1"
   id="svg54"
   sodipodi:docname="jenkins-svgrepo-com.svg"
   inkscape:version="1.4 (e7c3feb1, 2024-10-09)"
   xmlns:inkscape="http://www.inkscape.org/namespaces/inkscape"
   xmlns:sodipodi="http://sodipodi.sourceforge.net/DTD/sodipodi-0.dtd"
   xmlns="http://www.w3.org/2000/svg"
   xmlns:svg="http://www.w3.org/2000/svg"
   xmlns:rdf="http://www.w3.org/1999/02/22-rdf-syntax-ns#"
   xmlns:cc="http://creativecommons.org/ns#"
   xmlns:dc="http://purl.org/dc/elements/1.1/">
  <defs
     id="defs54" />
  <sodipodi:namedview
     id="namedview54"
     pagecolor="#ffffff"
     bordercolor="#000000"
     borderopacity="0.25"
     inkscape:showpageshadow="2"
     inkscape:pageopacity="0.0"
     inkscape:pagecheckerboard="0"
     inkscape:deskcolor="#d1d1d1"
     inkscape:zoom="7.8688539"
     inkscape:cx="1.3979164"
     inkscape:cy="15.567705"
     inkscape:window-width="1800"
     inkscape:window-height="1098"
     inkscape:window-x="0"
     inkscape:window-y="71"
     inkscape:window-maximized="0"
     inkscape:current-layer="svg54" />
  <title
     id="title1">file_type_jenkins</title>
  <path
     d="m 0.74084779,1.0592523 c -0.00311,0 -0.00622,0 -0.00914,-4.571e-4 0.00297,2.742e-4 0.00603,4.571e-4 0.00914,4.571e-4 z"
     style="fill:none;stroke-width:0.0457129"
     id="path1" />
  <path
     d="m 0.71369439,1.055321 a 0.08822595,0.08822595 0 0 0 0.017919,0.00347 0.08822595,0.08822595 0 0 1 -0.017919,-0.00347 z"
     style="fill:none;stroke-width:0.0457129"
     id="path2" />
  <path
     d="m 0.76726989,1.1661291 c -9.6e-4,-0.00553 -0.00197,-0.010102 -0.00293,-0.014171 v 0 c 9.6e-4,0.00407 0.00197,0.00864 0.00293,0.014171 z"
     style="fill:none;stroke-width:0.0457129"
     id="path3" />
  <path
     d="m 0.18877279,0.55828429 a 0.03803316,0.03803316 0 0 1 0.0075,-0.00521 0.02655921,0.02655921 0 0 0 -0.0075,0.00521 z"
     style="fill:#f0d6b7;stroke-width:0.0457129"
     id="path4" />
  <path
     d="m 0.32481449,0.74291879 c 0.00274,0.019245 0.010971,0.1903486 0.1264419,0.28570581 a 0.70695046,0.70695046 0 0 0 0.070809,0.00741 c 0.0128,-0.027428 0.059975,-0.025325 0.09074,-0.018285 a 0.30389956,0.30389956 0 0 1 -0.0994708,-0.0812822 0.20415394,0.20415394 0 0 1 -0.0672894,-0.1214136 c 0.061621,0.085483 0.1125452,0.1599953 0.2245876,0.19775411 0.084797,0.028433 0.1838117,-0.013028 0.2489526,-0.058787 a 0.28607151,0.28607151 0 0 0 0.0623981,-0.0767975 0.65104354,0.65104354 0 0 0 0.0980543,-0.3940912 0.4373356,0.4373356 0 0 0 -0.022856,-0.1575267 C 1.0364734,0.28409809 0.96648689,0.24697919 0.92552809,0.28446379 a 0.04891283,0.04891283 0 0 1 -7.314e-4,-0.011245 c -0.00654,0.00613 -0.010514,0.010605 -0.010514,0.010605 a 0.05526693,0.05526693 0 0 1 -0.005577,-0.0222621 0.07090075,0.07090075 0 0 1 0.0685694,-0.0685694 0.39651395,0.39651395 0 0 0 -0.0676094,-0.0714493 0.47952863,0.47952863 0 0 0 -0.2764261,-0.0101483 0.36844621,0.36844621 0 0 0 -0.2731348,0.2468498 0.64386661,0.64386661 0 0 0 -0.0177366,0.1034484 c -0.00142,0.04041 0.019017,0.075655 0.020571,0.1196307 -0.010925,0.018011 -0.044296,0.020251 -0.067381,0.019017 -0.00169,-0.00855 -0.00375,-0.017325 -0.00622,-0.025873 a 0.23578729,0.23578729 0 0 0 -0.057827,-0.022857 0.07858053,0.07858053 0 0 1 0.046124,0.093163 c -0.017051,-0.00974 -0.021119,-0.05257 -0.041142,-0.053804 -0.028616,-0.00174 -0.023405,0.055587 -0.023268,0.08914 a 0.10472832,0.10472832 0 0 1 -0.00869,-0.1011627 c -0.012982,-0.00635 -0.020297,0.00279 -0.027428,0.00992 -0.010148,0.047359 -0.025005,0.08562 0.00283,0.1334818 a 0.07926622,0.07926622 0 0 0 0.064638,0.027428 c 0.025919,-0.00256 0.032273,-0.028525 0.060524,-0.02825 a 0.02345073,0.02345073 0 0 1 0.019702,0.021394 z m 0.2948027,0.089003 -0.013714,-0.00279 c 0,0 -0.014354,-0.050284 -0.00745,-0.059701 0.00366,-0.00489 0.023771,-0.012251 0.05193,0.00128 -1.829e-4,4.57e-5 -0.033553,0.00562 -0.030765,0.06121 z m 0.2608379,0.061301 a 0.24090714,0.24090714 0 0 1 -0.1566125,-6.4e-4 0.2142565,0.2142565 0 0 1 -0.05865,-0.065232 c -0.00709,-0.00914 -0.042376,-0.032365 -5.485e-4,-0.032411 v 0 c 0.032776,0.082283 0.1453671,0.072775 0.2403129,0.070535 a 0.05078706,0.05078706 0 0 1 -0.024502,0.027793 z m 0.013714,-0.073141 a 0.18358313,0.18358313 0 0 1 0,-0.048593 0.39029699,0.39029699 0 0 0 0.13531031,-0.05417 v 0 a 0.15656678,0.15656678 0 0 1 -0.13535611,0.102672 z m 0.12598471,-0.36904 c -0.00837,0.00279 -0.062627,0.034833 -0.058421,-0.00558 a 0.06162103,0.06162103 0 0 1 0.046901,-0.049233 0.13883017,0.13883017 0 0 1 0,-0.018285 v 0 h 0.00361 a 0.78379389,0.78379389 0 0 0 0.053576,0.1046826 c -0.014491,0.033736 -0.10971111,0.063541 -0.10815681,0.00302 0.020571,-0.00914 0.05609,-0.00183 0.074329,-0.013302 -0.0043,-0.011748 -0.00914,-0.022857 -0.013714,-0.034559 z m -0.23711291,0.2171364 a 0.0328676,0.0328676 0 0 1 0.0021,0.00457 c 0.00416,-0.023176 0.01184,-0.050284 0.025051,-0.046307 a 0.03126764,0.03126764 0 0 1 0.022856,0.029165 0.31578492,0.31578492 0 0 0 -0.043336,0.033736 c 0.00297,0.013714 0.00658,0.027428 0.023908,0.030536 0.050558,0.00864 0.1093911,-0.030948 0.1457786,-0.044753 0.022536,-0.038033 -0.00197,-0.052021 -0.022262,-0.076478 -0.041599,-0.050284 -0.097369,-0.112271 -0.095357,-0.187423 0.016822,-0.012205 0.018285,0.018605 0.020662,0.024228 a 0.68596822,0.68596822 0 0 0 0.116248,0.1593553 c 0.00978,0.010697 0.025919,0.020982 0.027702,0.028068 0.00517,0.020617 -0.01344,0.045301 -0.011291,0.05897 v 0 a 0.30111107,0.30111107 0 0 1 -0.204154,0.063998 0.06043249,0.06043249 0 0 1 -0.008,-0.077803 z m 0.089506,0.1060997 a 0.22550188,0.22550188 0 0 1 0.00347,0.048501 c -0.082782,0.004115 -0.1806534,-0.0163648 -0.2023671,-0.074466 a 0.47015748,0.47015748 0 0 0 0.1988513,0.025828 z m -0.1945543,-0.3953254 a 0.31788771,0.31788771 0 0 0 0.044662,0.083609 c 0.010422,0.010148 0.030628,0.022491 0.020617,0.050696 a 0.06427238,0.06427238 0 0 1 -0.029348,0.024411 c -0.036113,0.010651 -0.1202707,0.00219 -0.091792,-0.042833 0.029851,0.00137 0.070032,0.019382 0.09234,-0.00229 -0.00434,-0.00695 -0.00955,-0.015588 -0.01472,-0.025188 -0.022856,0.014445 -0.085666,0.015085 -0.085666,-0.021896 0,-0.038947 0.06121,-0.047267 0.06121,-0.047267 l 4.571e-4,0.0011 a 0.05074135,0.05074135 0 0 1 0.00219,-0.020479 z m -0.1473785,-0.1338475 c 0.054627,-0.037256 0.082283,-0.015999 0.095997,0.00859 a 0.02596494,0.02596494 0 0 1 0.012525,0.03785 c -0.075792,-0.017645 -0.1134595,0.031725 -0.1364531,0.082923 -0.0059,0.010697 -0.00622,0.00311 -0.0096,-0.00622 a 0.01791947,0.01791947 0 0 1 -0.00279,-0.00622 0.02518782,0.02518782 0 0 0 -0.00421,-0.00553 c -0.010971,-0.011291 -0.016685,-0.069667 0.044524,-0.1114024 z"
     style="fill:#f0d6b7;stroke-width:0.0457129"
     id="path5" />
  <path
     d="m 0.13606579,1.2469953 h 0.4001253 c -0.00183,-0.00617 -0.00361,-0.012251 -0.00539,-0.018011 A 0.55605208,0.55605208 0 0 1 0.50903759,1.1399356 0.96358285,0.96358285 0 0 1 0.36792179,1.0642807 0.10756252,0.10756252 0 0 1 0.35695069,1.0525325 L 0.11622639,1.160095 c 0,0 0.00864,0.034468 0.0198394,0.0869 z"
     style="fill:#335061;stroke-width:0.0457129"
     id="path6" />
  <path
     d="m 0.28006149,0.22851119 a 0.09713998,0.09713998 0 0 1 0.021348,-0.00402 0.17448625,0.17448625 0 0 0 0.034148,0.00133 c 0.022582,-0.00562 0.04169,-0.056273 0.058741,-0.075152 a 0.51806463,0.51806463 0 0 1 0.043016,-0.035473 0.33580718,0.33580718 0 0 0 -0.1572525,0.1133223 z"
     style="fill:#6d6b6d;stroke-width:0.0457129"
     id="path7" />
  <path
     d="m 0.17693309,0.48386359 a 0.09814566,0.09814566 0 0 1 0.1437672,0.079861 c 0.031725,-8.228e-4 0.01184,-0.039587 0.00613,-0.064592 -0.0168725,-0.0735072 0.0222577,-0.152682 0.008772,-0.2222114 -0.1767262,0.0264221 -0.1667607,0.1621438 -0.1586696,0.2069424 z"
     style="fill:#6d6b6d;stroke-width:0.0457129"
     id="path8" />
  <path
     d="m 0.45450199,0.08456119 c -0.083197,0.023588 -0.1898,0.08402 -0.2239933,0.158761 a 0.33777284,0.33777284 0 0 0 0.049553,-0.014811 0.33580718,0.33580718 0 0 1 0.1572525,-0.1133223 0.0752892,0.0752892 0 0 0 0.00727,-0.00759 c 0.00878,-0.00425 0.021759,-0.00393 0.022262,-0.017142 -0.00379,-0.00407 -0.00782,-0.00718 -0.012342,-0.0059 z"
     style="fill:#dcd9d8;stroke-width:0.0457129"
     id="path9" />
  <path
     d="m 0.19169839,0.31925139 c -0.03657,0.040456 -0.029073,0.1162022 -0.024593,0.1700978 a 0.10609971,0.10609971 0 0 1 0.00997,-0.00549 c -0.00823,-0.044749 -0.018016,-0.1805159 0.1586645,-0.206938 a 0.12845333,0.12845333 0 0 0 -0.00649,-0.022537 0.20154831,0.20154831 0 0 0 -0.1375502,0.064867 z"
     style="fill:#dcd9d8;stroke-width:0.0457129"
     id="path10" />
  <path
     d="m 0.32481449,0.74291879 a 0.02345073,0.02345073 0 0 0 -0.0192,-0.021394 c 0.015314,0.030536 -0.023588,0.040136 -0.027428,0.061941 a 0.17540051,0.17540051 0 0 0 0.00571,0.038033 0.51888747,0.51888747 0 0 0 0.066055,0.153824 0.14541283,0.14541283 0 0 0 0.1014827,0.053301 C 0.33578559,0.93331319 0.32755719,0.76216399 0.32481449,0.74291879 Z"
     style="fill:#f7e4cd;stroke-width:0.0457129"
     id="path11" />
  <path
     d="m 0.83282229,0.65537849 a 0.03126764,0.03126764 0 0 0 -0.0228565,-0.0291648 c -0.013211,-0.00375 -0.020891,0.023131 -0.025051,0.046307 a 0.10861392,0.10861392 0 0 1 0.00457,0.016594 0.31578492,0.31578492 0 0 1 0.043336,-0.033736 z"
     style="fill:#f7e4cd;stroke-width:0.0457129"
     id="path12" />
  <path
     d="m 0.96168699,0.44537329 c -0.00421,0.04041 0.050284,0.00837 0.058421,0.00558 l -0.00197,-0.013074 a 0.14788133,0.14788133 0 0 1 -0.00955,-0.041736 0.06162103,0.06162103 0 0 0 -0.046902,0.049233 z"
     style="fill:#f7e4cd;stroke-width:0.0457129"
     id="path13" />
  <path
     d="m 0.61404019,0.44537329 c 0,0.036982 0.062672,0.036342 0.085666,0.021896 a 0.1852745,0.1852745 0 0 1 -0.023999,-0.068067 l -4.571e-4,-0.0011 c 0,0 -0.06121,0.00832 -0.06121,0.047267 z"
     style="fill:#f7e4cd;stroke-width:0.0457129"
     id="path14" />
  <path
     d="m 0.17761879,0.58895769 a 0.03657034,0.03657034 0 0 1 -0.00571,0.00498 0.05581549,0.05581549 0 0 1 0.016914,-0.035702 0.02655921,0.02655921 0 0 1 0.00745,-0.00517 0.04475296,0.04475296 0 0 1 0.035748,-0.00146 0.23578729,0.23578729 0 0 1 0.057827,0.022857 c -0.00882,-0.030353 -0.023954,-0.057736 -0.055221,-0.061164 a 0.0929801,0.0929801 0 0 0 -0.1005685,0.089734 0.17636048,0.17636048 0 0 0 0.046399,0.1191737 c -0.027889,-0.047628 -0.012987,-0.08589 -0.00284,-0.1332487 z"
     style="fill:#f7e4cd;stroke-width:0.0457129"
     id="path15" />
  <path
     d="m 0.63351389,0.11162319 a 0.47952863,0.47952863 0 0 1 0.2764261,0.010148 0.18865726,0.18865726 0 0 0 -0.022399,-0.01504 c -0.0863521,-0.0487292 -0.2324963,-0.0853453 -0.3245622,-0.0395866 -0.0741006,0.036936 -0.1743034,0.0980999 -0.2084509,0.1755833 a 0.18783443,0.18783443 0 0 1 0.00562,0.1157452 0.36844621,0.36844621 0 0 1 0.2733633,-0.2468499 z"
     style="fill:#f7e4cd;stroke-width:0.0457129"
     id="path16" />
  <path
     d="m 0.90884289,0.26179019 a 0.05526693,0.05526693 0 0 0 0.00558,0.022262 c 0,0 0.00398,-0.00457 0.010514,-0.010605 0.00142,-0.033553 0.039542,-0.052661 0.083746,-0.039587 -0.010148,-0.013074 -0.020434,-0.026925 -0.03113,-0.040639 a 0.07090075,0.07090075 0 0 0 -0.068707,0.068569 z"
     style="fill:#f7e4cd;stroke-width:0.0457129"
     id="path17" />
  <path
     d="m 0.49303799,0.36830129 c 0.00338,0.00914 0.00375,0.016914 0.0096,0.00622 a 0.0159081,0.0159081 0 0 1 -0.0096,-0.00622 z"
     style="fill:#f7e4cd;stroke-width:0.0457129"
     id="path18" />
  <path
     d="m 0.49029529,0.36208439 a 0.06792941,0.06792941 0 0 1 0.00521,-0.03465 0.12872761,0.12872761 0 0 1 0.112911,-0.080226 0.05252416,0.05252416 0 0 1 0.018285,0.00654 c -0.013713,-0.024597 -0.04114,-0.045717 -0.095996,-0.0086 -0.061164,0.041736 -0.055633,0.1001113 -0.044479,0.1112653 a 0.02518782,0.02518782 0 0 1 0.00407,0.00567 z"
     style="fill:#f7e4cd;stroke-width:0.0457129"
     id="path19" />
  <path
     d="m 0.11622639,1.160095 0.2407243,-0.1075625 c -0.017645,-0.020479 -0.049324,-0.059427 -0.054856,-0.057461 a 1.1007216,1.1007216 0 0 0 -0.2564495,0.15930961 0.92504685,0.92504685 0 0 1 0.037027,0.092614 h 0.053393 c -0.0112,-0.052433 -0.019839,-0.0869 -0.0198388,-0.0869 z"
     style="fill:#49728b;stroke-width:0.0457129"
     id="path20" />
  <path
     d="m 1.0831005,1.2482295 a 0.9524746,0.9524746 0 0 0 0.025051,-0.094077 c 0.00165,-0.00827 0.00485,-0.021714 0.00713,-0.034559 L 0.98335489,1.0215848 a 0.23418734,0.23418734 0 0 1 0.00594,0.1782805 c 0.00457,0.017005 0.020754,0.023542 0.027428,0.038856 -0.00155,0.00274 -0.00311,0.00544 -0.00457,0.00818 h 0.067472 a 0.00681123,0.00681123 0 0 1 0.00347,0.00133 z"
     style="fill:#335061;stroke-width:0.0457129"
     id="path21" />
  <path
     d="m 0.96612119,1.1918655 a 0.04941568,0.04941568 0 0 0 0.00786,-0.017417 0.04941568,0.04941568 0 0 1 -0.00786,0.017417 z"
     style="fill:#335061;stroke-width:0.0457129"
     id="path22" />
  <path
     d="m 0.92845369,1.0031625 a 0.04333586,0.04333586 0 0 1 0.023496,-0.00485 l -0.01088,-0.00809 a 0.06660374,0.06660374 0 0 0 -0.012617,0.012937 z"
     style="fill:#335061;stroke-width:0.0457129"
     id="path23" />
  <path
     d="m 1.1176595,1.0915256 c -0.00338,-0.024548 -0.03657,-0.042742 -0.053575,-0.057873 -0.031268,-0.028022 -0.050833,-0.052707 -0.083335,-0.078901 a 0.20072547,0.20072547 0 0 1 -0.039724,0.035473 l 0.01088,0.00809 a 0.04260445,0.04260445 0 0 1 0.031359,0.023314 l 0.13183611,0.097963 a 0.10692254,0.10692254 0 0 0 0.00256,-0.028068 z"
     style="fill:#49728b;stroke-width:0.0457129"
     id="path24" />
  <path
     d="m 0.78925779,1.2433382 a 0.02002226,0.02002226 0 0 0 4.114e-4,0.00347 h 0.021897 a 0.0152225,0.0152225 0 0 1 0.030445,0 h 0.035382 v -0.00137 c -0.012525,-0.00658 -0.039907,-0.020799 -0.054856,-0.027108 -0.019382,-0.00814 -0.033279,0.025005 -0.033279,0.025005 z"
     style="fill:#ffffff;stroke-width:0.0457129"
     id="path25" />
  <path
     d="m 0.78925779,1.2433382 c 0,0 0.013714,-0.03337 0.033371,-0.025051 0.014719,0.00631 0.042102,0.020525 0.054856,0.027108 4.571e-4,-0.010057 9.142e-4,-0.020114 0.00155,-0.030171 -0.028251,0.00178 -0.04393,-0.025554 -0.063724,-0.027656 -0.017279,-0.00187 -0.031999,0.019885 -0.054398,0.010468 -0.00517,0.00567 -0.00983,0.01184 -0.015085,0.017417 a 0.28858573,0.28858573 0 0 1 0.022354,0.031313 h 0.021759 a 0.02002226,0.02002226 0 0 1 -6.857e-4,-0.00343 z"
     style="fill:#dcd9d8;stroke-width:0.0457129"
     id="path26" />
  <path
     d="m 0.51219179,1.0590694 a 0.30801372,0.30801372 0 0 1 -0.1037227,-0.018285 0.01289105,0.01289105 0 0 0 7.771e-4,0.019245 0.3500239,0.3500239 0 0 0 0.097826,0.026422 0.0799062,0.0799062 0 0 0 0.00512,-0.027382 z"
     style="fill:#ffffff;stroke-width:0.0457129"
     id="path27" />
  <path
     d="m 0.50515199,1.1002111 a 0.05636404,0.05636404 0 0 1 0.00187,-0.013714 0.3500239,0.3500239 0 0 1 -0.097826,-0.026422 0.19368568,0.19368568 0 0 0 0.095951,0.040136 z"
     style="fill:#dcd9d8;stroke-width:0.0457129"
     id="path28" />
  <path
     d="m 0.97398379,1.1744489 a 0.13544741,0.13544741 0 0 0 0.00334,-0.03977 0.32259614,0.32259614 0 0 0 -0.00914,-0.062992 0.13713879,0.13713879 0 0 0 -0.046124,0.00224 c -0.013714,0.00279 -0.027839,0.00558 -0.030582,0.022262 -0.00274,0.016685 0.00558,0.025051 -0.00279,0.038947 -0.00837,0.013897 -0.022262,0.00558 -0.036159,0.013714 -0.00946,0.00567 -0.00347,0.020342 0.00133,0.029165 a 0.55486354,0.55486354 0 0 0 0.1124081,0.013714 0.04941568,0.04941568 0 0 0 0.00773,-0.017279 z"
     style="fill:#d33833;stroke-width:0.0457129"
     id="path29" />
  <path
     d="m 0.56023609,1.2442068 c 7.314e-4,0.00197 0.00151,0.00402 0.00215,0.00585 6.399e-4,0.00183 0.00133,0.00425 0.00192,0.00635 l -4.114e-4,-0.00535 z"
     style="fill:#d33833;stroke-width:0.0457129"
     id="path30" />
  <path
     d="m 0.74313349,1.1850543 q 4.571e-4,-0.012068 9.6e-4,-0.024091 a 0.05983822,0.05983822 0 0 1 -0.043884,-0.00338 c -0.042833,-0.023359 -0.00229,-0.016457 -0.017462,-0.04745 a 0.14792704,0.14792704 0 0 0 -0.0559534,-0.016688 c -0.056135,0 -0.077712,-0.011291 -0.071678,0.053438 0.00315,0.034742 0.00599,0.069438 0.00873,0.1042254 0.00457,0.00859 0.00869,0.01632 0.011977,0.022857 a 0.2209763,0.2209763 0 0 0 0.083792,-0.025554 0.96029151,0.96029151 0 0 0 0.0835184,-0.063358 z"
     style="fill:#d33833;stroke-width:0.0457129"
     id="path31" />
  <path
     d="m 0.76434429,1.1519124 c 9.6e-4,0.00407 0.00197,0.00864 0.00293,0.014171 v 0 a 0.03199905,0.03199905 0 1 0 0.019565,-0.059884 0.04356442,0.04356442 0 0 1 -0.022491,0.045713 z"
     style="fill:#d33833;stroke-width:0.0457129"
     id="path32" />
  <path
     d="m 0.85238739,1.1490325 c 0.013714,-0.00837 0.027839,0 0.036159,-0.013714 0.00832,-0.013714 0,-0.022262 0.00279,-0.038947 0.00279,-0.016685 0.016685,-0.019474 0.030582,-0.022262 a 0.13713879,0.13713879 0 0 1 0.046124,-0.00224 0.05142705,0.05142705 0 0 0 -0.015908,-0.029805 c -0.034148,-0.019931 -0.093986,0.037713 -0.121825,0.049964 l -0.00261,0.00105 a 0.0774377,0.0774377 0 0 1 0.008,0.025508 0.06742657,0.06742657 0 0 1 0.018834,-0.00192 0.08050047,0.08050047 0 0 1 0.012617,0.00151 c 0.00206,4.115e-4 0.00407,9.143e-4 0.00608,0.00146 a 0.06687802,0.06687802 0 0 1 0.011108,0.00421 0.19240572,0.19240572 0 0 0 -0.034605,0.00457 0.03199905,0.03199905 0 0 0 -0.00914,0.00434 0.39395403,0.39395403 0 0 0 -0.0016,0.041142 q 0.00722,0.00206 0.01472,0.00384 c -0.0048,-0.00837 -0.010788,-0.023039 -0.00133,-0.028708 z"
     style="fill:#ef3d3a;stroke-width:0.0457129"
     id="path33" />
  <path
     d="m 0.56430449,1.2563664 c 0.00233,0.00837 0.00434,0.015908 0.011565,0.0176 -0.00329,-0.00658 -0.00745,-0.014308 -0.011977,-0.022857 z"
     style="fill:#ef3d3a;stroke-width:0.0457129"
     id="path34" />
  <path
     d="m 0.55511619,1.1468383 c -0.0059,-0.06473 0.015542,-0.053438 0.071678,-0.053438 a 0.14792704,0.14792704 0 0 1 0.055953,0.016685 c 0.015177,0.030993 -0.025371,0.024091 0.017462,0.04745 a 0.05983822,0.05983822 0 0 0 0.043884,0.00338 v -0.00288 a 0.13892159,0.13892159 0 0 0 -0.041873,-0.013257 0.15999525,0.15999525 0 0 0 -0.01696,-0.00165 0.07108361,0.07108361 0 0 1 0.013302,-0.00485 0.15016697,0.15016697 0 0 0 0.041416,-0.012845 c 0,-0.00361 2.743e-4,-0.00722 4.114e-4,-0.010788 a 0.08607745,0.08607745 0 0 1 -0.00914,-0.00123 0.07154073,0.07154073 0 0 1 -0.00809,-0.00201 0.07245499,0.07245499 0 0 1 -0.01344,-0.00581 c -0.00814,-0.00457 -0.015131,-0.00987 -0.023999,-0.01472 a 0.41493626,0.41493626 0 0 0 -0.1100793,-0.040263 c -0.042102,-0.00805 -0.042467,0.050513 -0.040685,0.093666 0,0.00457 3.657e-4,0.00878 5.943e-4,0.0128 a 0.30101964,0.30101964 0 0 0 0.024868,0.086854 l 0.00361,0.00686 c -0.00288,-0.034468 -0.00576,-0.069209 -0.00891,-0.1039512 z"
     style="fill:#ef3d3a;stroke-width:0.0457129"
     id="path35" />
  <path
     d="m 0.78688079,1.1061995 a 0.04612435,0.04612435 0 0 0 -0.026605,0.00914 0.07771198,0.07771198 0 0 0 3.2e-4,0.018834 c 5.029e-4,0.00361 0.00128,0.00709 0.00219,0.01088 l 0.00142,0.00599 v 7.772e-4 0 a 0.04356442,0.04356442 0 0 0 0.022674,-0.045622 z"
     style="fill:#ef3d3a;stroke-width:0.0457129"
     id="path36" />
  <path
     d="m 0.49550649,0.32743399 a 0.06792941,0.06792941 0 0 0 -0.00521,0.03465 0.01791947,0.01791947 0 0 0 0.00279,0.00622 0.0159081,0.0159081 0 0 0 0.0096,0.00622 c 0.022856,-0.051198 0.060661,-0.1005684 0.1364531,-0.082923 a 0.02596494,0.02596494 0 0 0 -0.012525,-0.03785 0.05252416,0.05252416 0 0 0 -0.018285,-0.00654 0.12872761,0.12872761 0 0 0 -0.1128196,0.080226 z"
     style="fill:#231f20;stroke-width:0.0457129"
     id="path37" />
  <path
     d="m 0.95748139,0.48573789 c -0.00146,0.060524 0.093666,0.030719 0.10815681,-0.00302 a 0.78379389,0.78379389 0 0 1 -0.053575,-0.1046797 h -0.00361 v 0 a 0.13883017,0.13883017 0 0 0 0,0.018285 0.14788133,0.14788133 0 0 0 0.00955,0.041736 c 0.00434,0.011702 0.00937,0.022856 0.013714,0.034559 -0.018148,0.011291 -0.053758,0.00411 -0.074238,0.01312 z"
     style="fill:#231f20;stroke-width:0.0457129"
     id="path38" />
  <path
     d="m 0.71438009,0.49241199 c -0.022308,0.021668 -0.06249,0.00366 -0.09234,0.00229 -0.028479,0.045027 0.055678,0.053484 0.091792,0.042833 a 0.06427238,0.06427238 0 0 0 0.029348,-0.024411 c 0.010011,-0.028205 -0.010194,-0.040547 -0.020617,-0.050696 a 0.31788771,0.31788771 0 0 1 -0.044662,-0.083609 0.05074135,0.05074135 0 0 0 -0.00224,0.020342 0.1852745,0.1852745 0 0 0 0.023999,0.068067 c 0.00521,0.0096 0.010377,0.018239 0.01472,0.025188 z"
     style="fill:#231f20;stroke-width:0.0457129"
     id="path39" />
  <path
     d="m 0.79076639,0.74575299 a 0.30111107,0.30111107 0 0 0 0.2041539,-0.063998 v 0 c -0.00215,-0.013714 0.016457,-0.038399 0.011291,-0.05897 -0.00178,-0.00709 -0.017919,-0.017371 -0.027702,-0.028068 a 0.68596822,0.68596822 0 0 1 -0.1162479,-0.1593548 c -0.00242,-0.00562 -0.00389,-0.03657 -0.020662,-0.024228 -0.00201,0.075061 0.053758,0.1371388 0.095357,0.187423 0.020297,0.024456 0.044799,0.038445 0.022262,0.076478 -0.03657,0.013714 -0.09522,0.053438 -0.1457785,0.044753 -0.017325,-0.00297 -0.020937,-0.016685 -0.023908,-0.030536 a 0.10861392,0.10861392 0 0 0 -0.00457,-0.016594 0.0328676,0.0328676 0 0 0 -0.0021,-0.00457 0.06043249,0.06043249 0 0 0 0.00791,0.077666 z"
     style="fill:#231f20;stroke-width:0.0457129"
     id="path40" />
  <path
     d="m 0.19626969,0.55307299 a 0.03803316,0.03803316 0 0 0 -0.00727,0.00507 0.05581549,0.05581549 0 0 0 -0.016914,0.035702 0.03657034,0.03657034 0 0 0 0.00571,-0.00498 c 0.00699,-0.00713 0.014308,-0.01632 0.027428,-0.00992 a 0.10472832,0.10472832 0 0 0 0.00869,0.1011627 c 0,-0.033508 -0.00535,-0.090832 0.023268,-0.08914 0.020022,0.00123 0.024091,0.044067 0.041142,0.053804 a 0.07858053,0.07858053 0 0 0 -0.04649,-0.093071 0.04475296,0.04475296 0 0 0 -0.035565,0.00137 z"
     style="fill:#231f20;stroke-width:0.0457129"
     id="path41" />
  <path
     d="m 0.89421469,0.77135219 a 0.18358313,0.18358313 0 0 0 0,0.048593 0.15656678,0.15656678 0 0 0 0.13540171,-0.1028084 v 0 a 0.39029699,0.39029699 0 0 1 -0.13540171,0.0542154 z"
     style="fill:#231f20;stroke-width:0.0457129"
     id="path42" />
  <path
     d="m 0.87602099,0.82277929 a 0.22550188,0.22550188 0 0 0 -0.00352,-0.04873 0.47015748,0.47015748 0 0 1 -0.1988513,-0.0256907 c 0.021714,0.058147 0.1195851,0.078626 0.2023712,0.0744207 z"
     style="fill:#231f20;stroke-width:0.0457129"
     id="path43" />
  <path
     d="m 0.66464439,0.79489439 v 0 c -0.041827,0 -0.00654,0.023314 5.485e-4,0.03241 a 0.2142565,0.2142565 0 0 0 0.058695,0.065278 0.24090714,0.24090714 0 0 0 0.1566125,6.4e-4 0.05078706,0.05078706 0 0 0 0.024502,-0.027839 c -0.094991,0.00229 -0.2075824,0.011748 -0.240358,-0.070489 z"
     style="fill:#231f20;stroke-width:0.0457129"
     id="path44" />
  <path
     d="m 0.98984619,1.2469953 a 0.0781234,0.0781234 0 0 0 -0.047633,-0.034422 0.06550663,0.06550663 0 0 0 -0.041964,0.00549 c -3.657e-4,0.00914 -8.228e-4,0.018971 -0.00142,0.028891 z"
     style="fill:#81b0c4;stroke-width:0.0457129"
     id="path45" />
  <path
     d="m 0.85321019,1.03987 c -0.031359,0.00279 -0.068249,0.017051 -0.1029455,0.019154 -0.00315,0 -0.00631,2.743e-4 -0.00942,2.743e-4 -0.00311,0 -0.00622,0 -0.00914,-4.571e-4 a 0.08822595,0.08822595 0 0 1 -0.017919,-0.00347 0.07615774,0.07615774 0 0 1 -0.00859,-0.0032 c 0,0.00238 -0.00325,0.00151 -0.00375,0.00347 0.00389,0.00302 0.00763,0.00576 0.011291,0.00818 0.00366,0.00242 0.00727,0.00457 0.01088,0.00654 a 0.10139128,0.10139128 0 0 0 0.021714,0.00869 0.13951586,0.13951586 0 0 0 0.037302,0.00411 c 0.00457,0 0.00969,0 0.014948,-4.114e-4 0.018971,-0.013851 0.035793,-0.029988 0.055633,-0.042879 z"
     style="fill:#f0d6b7;stroke-width:0.0457129"
     id="path46" />
  <path
     d="m 0.72132839,1.2363899 -0.016045,0.010651 h 0.024091 q -0.00393,-0.00544 -0.00805,-0.010651 z"
     style="fill:#81b0c4;stroke-width:0.0457129"
     id="path47" />
  <path
     d="m 0.06283369,1.2693489 v -0.015314 a 0.00699408,0.00699408 0 0 1 0.00699,-0.00699 h 0.012937 a 0.92504685,0.92504685 0 0 0 -0.0370237,-0.092618 1.1007216,1.1007216 0 0 1 0.2564496,-0.15930961 c 0.00539,-0.00215 0.037073,0.036982 0.054855,0.057461 a 0.10756252,0.10756252 0 0 0 0.010971,0.011748 0.96358285,0.96358285 0 0 0 0.1411158,0.075655 0.55605208,0.55605208 0 0 0 0.021759,0.089049 c 0.00178,0.00576 0.00357,0.011885 0.00539,0.018011 h 0.00741 a 0.00699408,0.00699408 0 0 1 0.00699,0.00699 v 0.00722 h 0.00635 a 0.00699408,0.00699408 0 0 1 0.00699,0.00699 v 0.011657 h 0.077301 V 1.268241 a 0.00699408,0.00699408 0 0 1 0.00699,-0.00699 h 0.035656 v -0.00722 a 0.00699408,0.00699408 0 0 1 0.00699,-0.00699 h 0.014491 l 0.016045,-0.010651 q 0.00411,0.00521 0.00805,0.010651 h 0.038536 a 0.28858573,0.28858573 0 0 0 -0.0223373,-0.031313 c 0.00526,-0.00558 0.00992,-0.011702 0.015085,-0.017417 0.022491,0.00942 0.037119,-0.012342 0.054398,-0.010468 0.019794,0.0021 0.035473,0.029439 0.063724,0.027656 -6.4e-4,0.010057 -0.0011,0.020114 -0.00155,0.030171 v 0.00137 h 0.021668 c 5.485e-4,-0.00992 0.00105,-0.019611 0.00142,-0.028891 a 0.06550663,0.06550663 0 0 1 0.041964,-0.00549 0.0781234,0.0781234 0 0 1 0.047633,0.034422 h 0.021988 c 0.00155,-0.00274 0.00315,-0.00544 0.00457,-0.00818 -0.00654,-0.015314 -0.022628,-0.021805 -0.027428,-0.038856 a 0.23418734,0.23418734 0 0 0 -0.00594,-0.1782804 0.04260445,0.04260445 0 0 0 -0.031359,-0.023314 0.04333586,0.04333586 0 0 0 -0.023496,0.00485 0.06660374,0.06660374 0 0 1 0.012571,-0.012937 0.20072547,0.20072547 0 0 0 0.039725,-0.035473 c 0.032548,0.026193 0.052158,0.050833 0.08338,0.078855 0.016914,0.015177 0.050284,0.03337 0.053575,0.057873 a 0.10692254,0.10692254 0 0 1 -0.00247,0.028068 c -0.00233,0.012845 -0.00549,0.026285 -0.00713,0.034559 a 0.9524746,0.9524746 0 0 1 -0.024959,0.093986 0.00685694,0.00685694 0 0 1 0.00329,0.00581 v 0.025873 h 0.016822 c 0.011794,-0.036936 0.023359,-0.074741 0.035016,-0.1137795 a 0.28374015,0.28374015 0 0 0 0.021851,-0.099974 c -0.00357,-0.028205 -0.047541,-0.057827 -0.070718,-0.08018 -0.012845,-0.012388 -0.072821,-0.057918 -0.076295,-0.074969 -0.00347,-0.017051 0.024457,-0.05385 0.033416,-0.072501 a 0.53342418,0.53342418 0 0 0 0.028388,-0.081735 c 0.04717,-0.1658067 0.05197,-0.3936399 -0.015503,-0.5299102 A 0.57324014,0.57324014 0 0 0 0.91766549,0.07016159 c -0.1051398,-0.0796319 -0.300014,-0.0884545 -0.4269131,-0.0417359 a 0.61625601,0.61625601 0 0 0 -0.1005684,0.042925 c -0.083106,0.04873 -0.1713321,0.081369 -0.1959714,0.1795603 -0.060707,0.027428 -0.079038,0.1051398 -0.075975,0.1951028 a 0.28438014,0.28438014 0 0 1 0.00681,0.05609 c -0.00169,0.00841 -0.013074,0.019154 -0.01536,0.024593 a 0.24227853,0.24227853 0 0 0 0.027839,0.2099138 0.1474242,0.1474242 0 0 0 0.09842,0.063312 0.20881666,0.20881666 0 0 0 0.020434,0.076432 c 0.00777,0.017051 0.036799,0.047679 0.026102,0.069438 a 0.31939624,0.31939624 0 0 1 -0.068341,0.044159 c -0.052936,0.03177 -0.091426,0.051198 -0.1401559,0.086397 -0.031633,0.022857 -0.081049,0.025691 -0.073141005,0.078169 A 0.81684434,0.81684434 0 0 0 0.03778069,1.2693942 c 0.00114,0.00357 0.00242,0.00709 0.00366,0.010605 h 0.021485 z m 0.3817486,-1.16174841 a 0.0752892,0.0752892 0 0 1 -0.00727,0.00759 0.51806463,0.51806463 0 0 0 -0.043016,0.035473 c -0.017051,0.018879 -0.036113,0.069529 -0.058741,0.075152 a 0.17448625,0.17448625 0 0 1 -0.034148,-0.00133 0.09713998,0.09713998 0 0 0 -0.021348,0.00402 0.33777284,0.33777284 0 0 1 -0.049553,0.014857 c 0.034193,-0.074741 0.1407958,-0.1351731 0.2239933,-0.158761 0.00457,-0.00128 0.00859,0.00183 0.012388,0.0059 -5.029e-4,0.01312 -0.013531,0.012845 -0.022308,0.017097 z m -0.1090253,0.1691379 c 0.013714,0.069529 -0.025645,0.1487498 -0.00878,0.2222105 0.00571,0.024959 0.025599,0.063724 -0.00613,0.064592 a 0.09814566,0.09814566 0 0 0 -0.1437672,-0.079861 0.10609971,0.10609971 0 0 0 -0.00997,0.00549 c -0.00457,-0.053896 -0.01216,-0.1296418 0.024594,-0.1700978 a 0.20154831,0.20154831 0 0 1 0.1375502,-0.064867 0.12845333,0.12845333 0 0 1 0.00649,0.022719 z m -0.155104,0.4454725 a 0.17636048,0.17636048 0 0 1 -0.0467186,-0.1188537 0.0929801,0.0929801 0 0 1 0.1005685,-0.0897344 c 0.031268,0.00343 0.046353,0.03081 0.055221,0.061164 0.00247,0.00855 0.00457,0.017325 0.00622,0.025873 0.023085,0.00123 0.056455,-0.00101 0.067381,-0.019017 -0.00155,-0.043976 -0.021988,-0.07922 -0.020571,-0.1196307 a 0.64386661,0.64386661 0 0 1 0.017737,-0.1034484 0.18783443,0.18783443 0 0 0 -0.00562,-0.1157451 c 0.034148,-0.077484 0.1343503,-0.1386016 0.208451,-0.1755834 0.091837,-0.045713 0.2380272,-0.00914 0.3245618,0.039587 a 0.18865726,0.18865726 0 0 1 0.022399,0.01504 0.39651395,0.39651395 0 0 1 0.067609,0.071449 c 0.010697,0.013714 0.020982,0.027428 0.03113,0.040639 -0.044204,-0.01312 -0.082283,0.00603 -0.083746,0.039587 a 0.04891283,0.04891283 0 0 0 7.315e-4,0.011245 c 0.041142,-0.03753 0.11094521,-4.114e-4 0.13165321,0.041142 a 0.4373356,0.4373356 0 0 1 0.022856,0.1575267 0.65104354,0.65104354 0 0 1 -0.098054,0.3940912 0.28607151,0.28607151 0 0 1 -0.062398,0.076798 C 0.85471869,1.000054 0.75570449,1.0415614 0.67090709,1.0131279 0.55886469,0.97550619 0.50794049,0.90085699 0.44631939,0.81537379 a 0.20415394,0.20415394 0 0 0 0.06729,0.1214135 0.30389956,0.30389956 0 0 0 0.099471,0.081278 c -0.030765,-0.00722 -0.077712,-0.00951 -0.09074,0.018285 a 0.70695046,0.70695046 0 0 1 -0.07081,-0.00741 0.14541283,0.14541283 0 0 1 -0.1014827,-0.053301 0.51888747,0.51888747 0 0 1 -0.066055,-0.153824 0.17540051,0.17540051 0 0 1 -0.00571,-0.038033 c 0.00402,-0.021851 0.042924,-0.031405 0.027428,-0.061941 -0.028251,-2.742e-4 -0.034605,0.025691 -0.060524,0.028251 a 0.07926622,0.07926622 0 0 1 -0.06473,-0.027885 z m 0.5837541,0.42878721 -0.00142,-0.00599 c -9.142e-4,-0.00379 -0.00165,-0.00727 -0.00219,-0.01088 a 0.07771198,0.07771198 0 0 1 -3.2e-4,-0.018834 0.04612435,0.04612435 0 0 1 0.026605,-0.00914 0.03199905,0.03199905 0 1 1 -0.019565,0.059884 c -9.599e-4,-0.00553 -0.00197,-0.010103 -0.00293,-0.014171 z m -0.355738,-0.1105795 a 0.30801372,0.30801372 0 0 0 0.1037227,0.018285 0.0799062,0.0799062 0 0 1 -0.00512,0.027428 0.05636404,0.05636404 0 0 0 -0.00187,0.013714 0.19368568,0.19368568 0 0 1 -0.095997,-0.040319 0.01289105,0.01289105 0 0 1 -7.314e-4,-0.01888 z m 0.3367672,0.038353 a 0.10139128,0.10139128 0 0 1 -0.021714,-0.00869 c -0.00357,-0.00192 -0.00718,-0.00411 -0.01088,-0.00654 -0.0037,-0.00242 -0.00741,-0.00517 -0.011291,-0.00818 5.028e-4,-0.00197 0.00361,-0.0011 0.00375,-0.00347 a 0.07615774,0.07615774 0 0 0 0.00859,0.0032 0.08822595,0.08822595 0 0 0 0.017919,0.00347 c 0.00306,2.743e-4 0.00613,4.114e-4 0.00914,4.571e-4 0.00302,4.57e-5 0.00626,0 0.00942,-2.743e-4 0.034696,-0.0021 0.071586,-0.016365 0.1029455,-0.019154 -0.019794,0.012937 -0.03657,0.029073 -0.055678,0.042879 -0.00526,2.743e-4 -0.01024,4.115e-4 -0.014948,4.115e-4 a 0.13951586,0.13951586 0 0 1 -0.037256,-0.00389 z m -0.085575,0.1694121 a 0.2209763,0.2209763 0 0 1 -0.083792,0.025554 c -0.00722,-0.00169 -0.00914,-0.00914 -0.011565,-0.017599 -5.943e-4,-0.0021 -0.00119,-0.00421 -0.00192,-0.00635 -7.314e-4,-0.00215 -0.00137,-0.00389 -0.00215,-0.00585 a 0.30101964,0.30101964 0 0 1 -0.024868,-0.086854 c 0,-0.00402 -4.114e-4,-0.00832 -5.942e-4,-0.0128 -0.00178,-0.043153 -0.00142,-0.1017112 0.040685,-0.093666 a 0.41493626,0.41493626 0 0 1 0.1100767,0.040273 c 0.00887,0.00485 0.015862,0.010285 0.023999,0.01472 a 0.07245499,0.07245499 0 0 0 0.01344,0.00581 0.07154073,0.07154073 0 0 0 0.00809,0.00201 0.08607745,0.08607745 0 0 0 0.00914,0.00123 c 0,0.00357 -2.743e-4,0.00718 -4.115e-4,0.010788 a 0.15016697,0.15016697 0 0 1 -0.041416,0.012845 0.07108361,0.07108361 0 0 0 -0.013302,0.00485 0.15999525,0.15999525 0 0 1 0.01696,0.00165 0.13892159,0.13892159 0 0 1 0.041873,0.013257 v 0.00288 q -4.571e-4,0.012068 -9.6e-4,0.024091 a 0.96029151,0.96029151 0 0 1 -0.083289,0.063404 z m 0.1940514,-0.070215 q -0.0075,-0.00178 -0.01472,-0.00384 a 0.39395403,0.39395403 0 0 1 0.0016,-0.041142 0.03199905,0.03199905 0 0 1 0.00914,-0.00434 0.19240572,0.19240572 0 0 1 0.034605,-0.00457 0.06687802,0.06687802 0 0 0 -0.011108,-0.00421 c -0.00197,-5.485e-4 -0.00402,-0.00105 -0.00608,-0.00146 a 0.08050047,0.08050047 0 0 0 -0.012617,-0.00174 0.06742657,0.06742657 0 0 0 -0.018605,0.00174 0.0774377,0.0774377 0 0 0 -0.008,-0.025508 l 0.00261,-0.00105 c 0.027839,-0.012251 0.087677,-0.069895 0.121825,-0.049964 a 0.05142705,0.05142705 0 0 1 0.015908,0.029805 0.32259614,0.32259614 0 0 1 0.00914,0.062992 0.13544741,0.13544741 0 0 1 -0.00334,0.03977 0.04941568,0.04941568 0 0 1 -0.00786,0.017417 v 0 a 0.55486354,0.55486354 0 0 1 -0.1124976,-0.013717 z"
     style="fill:#231f20;stroke-width:0.0457129"
     id="path48" />
  <path
     d="m 0.65019909,0.77075799 c -0.028159,-0.013714 -0.048273,-0.00617 -0.05193,-0.00128 -0.00695,0.00914 0.00745,0.059701 0.00745,0.059701 l 0.013714,0.00279 c -0.00261,-0.055633 0.030765,-0.06121 0.030765,-0.06121 z"
     style="fill:#f7e4cd;stroke-width:0.0457129"
     id="path49" />
  <path
     d="m 0.82678809,1.2324129 a 0.01526812,0.01526812 0 0 0 -0.015222,0.014582 h 0.030445 a 0.01526812,0.01526812 0 0 0 -0.015223,-0.014582 z"
     style="fill:#1d1919;stroke-width:0.0457129"
     id="path50" />
  <path
     d="m 0.56389309,1.2682518 a 0.00699408,0.00699408 0 0 0 -0.00699,-0.00699 h -0.00635 v 0.00809 a 0.00699408,0.00699408 0 0 1 -0.00699,0.00699 h -0.4737354 a 0.00699408,0.00699408 0 0 1 -0.00699,-0.00699 v 0.01056 h 0.5010594 z"
     style="fill:#231f20;stroke-width:0.0457129"
     id="path51" />
  <path
     d="M 1.0793521,1.276343 H 0.69079219 a 0.00699408,0.00699408 0 0 1 -0.00699,-0.00699 v -0.00809 h -0.035656 a 0.00699408,0.00699408 0 0 0 -0.00699,0.00699 V 1.27991 H 1.086263 V 1.26935 a 0.00699408,0.00699408 0 0 1 -0.0069,0.00699 z"
     style="fill:#231f20;stroke-width:0.0457129"
     id="path52" />
  <path
     d="m 0.06982769,1.276343 h 0.4738603 a 0.00699408,0.00699408 0 0 0 0.00699,-0.00699 V 1.254039 a 0.00699408,0.00699408 0 0 0 -0.00699,-0.00699 h -0.4738603 a 0.00699408,0.00699408 0 0 0 -0.00699,0.00699 v 0.015314 a 0.00699408,0.00699408 0 0 0 0.00699,0.00699 z"
     style="fill:#231f20;stroke-width:0.0457129"
     id="path53" />
  <path
     d="m 0.68384379,1.2693489 a 0.00699408,0.00699408 0 0 0 0.00699,0.00699 H 1.0793978 a 0.00699408,0.00699408 0 0 0 0.00699,-0.00699 v -0.015314 a 0.00685694,0.00685694 0 0 0 -0.00329,-0.00581 0.00681123,0.00681123 0 0 0 -0.0037,-0.00119 H 0.69083789 a 0.00699408,0.00699408 0 0 0 -0.00699,0.00699 z"
     style="fill:#231f20;stroke-width:0.0457129"
     id="path54" />
  <metadata
     id="metadata54">
    <rdf:RDF>
      <cc:Work
         rdf:about="">
        <dc:title>file_type_jenkins</dc:title>
      </cc:Work>
    </rdf:RDF>
  </metadata>
</svg>
