<?xml version="1.0" encoding="UTF-8" standalone="no"?>
<!-- Uploaded to: SVG Repo, www.svgrepo.com, Generator: SVG Repo Mixer Tools -->

<svg
   width="32"
   height="32"
   viewBox="0 -43 10.24 10.24"
   version="1.1"
   preserveAspectRatio="xMidYMid"
   id="svg3"
   sodipodi:docname="mariadb.svg"
   inkscape:version="1.4 (e7c3feb1, 2024-10-09)"
   xmlns:inkscape="http://www.inkscape.org/namespaces/inkscape"
   xmlns:sodipodi="http://sodipodi.sourceforge.net/DTD/sodipodi-0.dtd"
   xmlns="http://www.w3.org/2000/svg"
   xmlns:svg="http://www.w3.org/2000/svg">
  <defs
     id="defs3" />
  <sodipodi:namedview
     id="namedview3"
     pagecolor="#ffffff"
     bordercolor="#000000"
     borderopacity="0.25"
     inkscape:showpageshadow="2"
     inkscape:pageopacity="0.0"
     inkscape:pagecheckerboard="0"
     inkscape:deskcolor="#d1d1d1"
     inkscape:zoom="12.436158"
     inkscape:cx="7.5586045"
     inkscape:cy="13.790433"
     inkscape:window-width="1800"
     inkscape:window-height="1126"
     inkscape:window-x="0"
     inkscape:window-y="43"
     inkscape:window-maximized="0"
     inkscape:current-layer="svg3" />
  <g
     id="g3"
     transform="matrix(0.04,0,0,0.04,-0.00426544,-41.230098)">
    <path
       d="M 250.38252,0.00447242 C 246.42613,0.13089157 247.67735,1.2708706 239.12841,3.3746959 230.49555,5.4991783 219.95036,4.8477353 210.65409,8.746499 182.9031,20.384748 177.33523,60.162634 152.10694,74.411852 133.24941,85.063519 114.22392,85.913076 97.118879,91.273077 85.877824,94.798007 73.581142,102.02691 63.396428,110.80363 55.49096,117.61859 55.284547,123.6107 47.024578,132.15821 38.189474,141.30082 11.910165,132.3127 0,146.30562 c 3.8367073,3.87942 5.5187511,4.96603 13.079684,3.9595 -1.565391,2.96699 -10.7930491,5.46736 -8.9867216,9.83201 1.9006435,4.59254 24.2092526,7.70579 44.4887216,-4.53785 9.444421,-5.70203 16.966945,-13.92069 31.675969,-15.88247 19.034055,-2.53693 40.960957,1.62723 62.996027,4.80478 -3.26725,9.74196 -9.82701,16.22059 -15.08167,23.97942 -1.62722,1.7525 3.2683,1.94895 8.85325,0.88977 10.04662,-2.48425 17.28691,-4.48446 24.8692,-8.89774 9.31487,-5.42264 10.72642,-19.32518 22.15538,-22.33334 6.36794,9.78752 23.68726,12.09952 34.43427,4.27092 -9.43019,-2.66933 -12.03648,-22.74192 -8.85326,-31.58699 3.01527,-8.37243 5.99464,-21.76531 9.03121,-32.832681 3.26014,-11.885962 4.46287,-26.86713 8.40837,-32.921653 5.93608,-9.109141 12.49521,-12.237246 18.18973,-17.373807 5.6945,-5.136561 10.90679,-10.136595 10.73574,-21.8901023 -0.0551,-3.7857411 -2.01251,-5.89598703 -5.61338,-5.78091428 z"
       fill="#002b64"
       id="path1" />
    <path
       d="m 241.90548,6.9680957 c 0.9482,3.2320873 2.43152,4.7154123 8.8446,5.3087423 -0.93684,8.130609 -6.36056,12.577745 -12.44148,16.844612 -5.35133,3.753025 -11.21366,7.366944 -14.98088,13.229272 -3.85948,6.005693 -6.30945,26.559327 -12.29385,46.85746 -5.17248,17.538718 -12.98371,34.880138 -26.62462,42.478458 -1.42513,-3.58695 0.18169,-10.20727 -2.65295,-12.38328 -1.83393,5.23067 -3.90775,10.22146 -6.33643,14.86022 -8.00428,15.29883 -19.85526,26.75379 -39.65943,30.25131 9.39676,-12.71543 18.38188,-25.84676 18.57634,-47.76306 -6.61321,1.4308 -6.47269,17.05185 -13.2676,21.22787 -4.35629,0.47409 -8.76936,0.47125 -13.21081,0.2044 -18.23993,-1.09298 -36.951123,-6.57489 -54.01433,-1.10008 -11.618197,3.7289 -21.119994,12.52523 -30.958201,16.7921 -11.562839,5.01491 -20.319425,7.07737 -34.7183245,5.01491 -1.8282514,-2.46274 10.5379955,-5.64089 9.7984625,-10.98796 -5.635216,-0.62314 -8.907048,0.74237 -13.8055695,-1.48332 0.5408104,-0.99646 1.3357023,-1.82684 2.3364145,-2.51811 8.97802,-6.21435 34.479856,-1.46771 41.304572,-8.16893 4.212927,-4.13344 6.976595,-8.45992 9.838206,-12.66575 2.775025,-4.08092 5.643733,-8.04828 10.014219,-11.62388 1.613915,-1.32009 3.368355,-2.62456 5.230673,-3.89781 7.447853,-5.09724 16.661502,-9.720389 25.728948,-12.907054 12.35205,-4.342097 24.86876,-4.699799 38.03416,-9.730329 8.13345,-3.108595 16.97804,-6.948207 24.18742,-12.320825 1.71186,-1.277504 3.33145,-2.638757 4.82897,-4.097951 20.58628,-20.068183 24.6672,-55.467843 56.78509,-58.766644 3.88362,-0.3988654 7.06319,-0.2696955 9.95744,-0.3577014 3.33571,-0.099362 6.28817,-0.4868713 9.49896,-2.2966699 z M 202.75118,120.26711 c 0.38325,6.13486 3.94465,18.30664 7.08873,21.26478 -6.15757,1.49751 -16.76512,-0.97659 -19.48621,-5.3201 1.39816,-6.27113 8.67426,-12.00429 12.39748,-15.94468 z"
       fill="#c49a6c"
       fill-rule="nonzero"
       id="path2" />
    <path
       d="m 244.21879,13.837064 c -1.23796,2.596516 -3.60781,5.944234 -3.60781,12.553943 -0.0102,1.134795 -0.86163,1.912152 -0.87616,0.162736 0.0639,-6.460049 1.77412,-9.252721 3.59037,-12.923005 0.84419,-1.503858 1.35275,-0.883426 0.8936,0.206326 z m -1.24668,-0.977871 c -1.46027,2.47737 -4.97653,6.996208 -5.55774,13.581216 -0.10752,1.128983 -1.02582,1.827878 -0.88633,0.08282 0.63351,-6.428083 3.44362,-10.451448 5.57663,-13.948825 0.9677,-1.42249 1.42249,-0.759921 0.86744,0.284789 z m -1.13625,-1.296078 c -1.66369,2.345146 -7.07612,7.772111 -8.20801,14.285922 -0.20342,1.114453 -1.17693,1.736338 -0.89069,0.0087 1.17112,-6.35398 5.83671,-11.347951 8.25596,-14.650626 1.08394,-1.3382152 1.48061,-0.639321 0.84274,0.355986 z m -1.01419,-1.445738 -0.54735,0.582191 c -2.42006,2.594569 -8.04212,8.922894 -9.91573,14.715021 -0.36034,1.075222 -1.41086,1.554713 -0.88342,-0.11624 2.05164,-6.125859 7.70237,-12.723944 10.56187,-15.6531976 1.26266,-1.1725731 1.55617,-0.4242768 0.78463,0.4722256 z m -29.04989,13.114802 c 1.25394,-5.386281 5.44295,-7.840402 12.67455,-7.241765 1.74505,8.039464 -8.02058,11.282566 -12.67455,7.241765 z"
       fill="#002b64"
       id="path3" />
  </g>
</svg>
