<?xml version="1.0" encoding="UTF-8" standalone="no"?>
<svg
   width="31.999498"
   height="31.999998"
   version="1.1"
   id="svg13"
   sodipodi:docname="memcached.svg"
   inkscape:version="1.4 (e7c3feb1, 2024-10-09)"
   xmlns:inkscape="http://www.inkscape.org/namespaces/inkscape"
   xmlns:sodipodi="http://sodipodi.sourceforge.net/DTD/sodipodi-0.dtd"
   xmlns="http://www.w3.org/2000/svg"
   xmlns:svg="http://www.w3.org/2000/svg">
  <sodipodi:namedview
     id="namedview13"
     pagecolor="#ffffff"
     bordercolor="#000000"
     borderopacity="0.25"
     inkscape:showpageshadow="2"
     inkscape:pageopacity="0.0"
     inkscape:pagecheckerboard="0"
     inkscape:deskcolor="#d1d1d1"
     showgrid="false"
     inkscape:zoom="0.40625"
     inkscape:cx="32"
     inkscape:cy="32"
     inkscape:window-width="1104"
     inkscape:window-height="245"
     inkscape:window-x="0"
     inkscape:window-y="44"
     inkscape:window-maximized="0"
     inkscape:current-layer="svg13" />
  <defs
     id="defs8">
    <linearGradient
       id="A"
       x1="255.894"
       x2="255.894"
       y1="59.789001"
       gradientUnits="userSpaceOnUse"
       y2="-452">
      <stop
         stop-color="#574c4a"
         offset="0%"
         id="stop1" />
      <stop
         stop-color="#80716d"
         offset="100%"
         id="stop2" />
    </linearGradient>
    <linearGradient
       id="B"
       x1="380.44199"
       x2="191.97099"
       y1="-51.757999"
       y2="-382.30499"
       gradientUnits="userSpaceOnUse">
      <stop
         stop-color="#268d83"
         offset="0%"
         id="stop3" />
      <stop
         stop-color="#2ea19e"
         offset="100%"
         id="stop4" />
    </linearGradient>
    <radialGradient
       id="C"
       cx="62.417"
       cy="142.923"
       r="9.2130003"
       fx="62.417"
       fy="142.923"
       gradientUnits="userSpaceOnUse"
       gradientTransform="matrix(2.02,0,0,2.02,92.53,-356.82)">
      <stop
         stop-color="#db7c7c"
         offset="0%"
         id="stop5" />
      <stop
         stop-color="#c83737"
         offset="100%"
         id="stop6" />
    </radialGradient>
    <radialGradient
       id="D"
       cx="96.725998"
       cy="142.923"
       r="9.2130003"
       fx="96.725998"
       fy="142.923"
       gradientUnits="userSpaceOnUse"
       gradientTransform="matrix(2.02,0,0,2.02,92.53,-356.82)">
      <stop
         stop-color="#db7c7c"
         offset="0%"
         id="stop7" />
      <stop
         stop-color="#c83737"
         offset="100%"
         id="stop8" />
    </radialGradient>
  </defs>
  <g
     transform="matrix(0.06252613,0,0,0.06252613,0,28.261811)"
     id="g13">
    <path
       d="m 0,-106.196 v -179.82 C 0,-431.255 20.725,-452 165.814,-452 h 180.164 c 145.084,0 165.8,20.745 165.8,165.983 v 179.82 c 0,145.238 -20.725,165.983 -165.812,165.983 H 165.812 C 20.73,59.787 0,39.042 0,-106.196 Z"
       fill="url(#A)"
       id="path8"
       style="fill:url(#A)" />
    <path
       d="M 110.488,-355.497 C 85.34,-196.062 98.497,-46.8 98.497,-46.8 h 78.63 c -7.48,-39.802 -34.32,-221.642 -11.993,-222.24 11.966,1.9 66.64,154.267 66.64,154.267 0,0 12.04,-1.5 24.155,-1.5 12.115,0 24.16,1.5 24.16,1.5 0,0 54.68,-152.37 66.64,-154.267 22.34,0.598 -4.505,182.438 -11.98,222.24 h 78.633 c 0,0 13.162,-149.272 -12,-308.706 h -72.8 c -13.857,0.162 -66.58,92.63 -72.64,92.63 -6.06,0 -58.784,-92.457 -72.64,-92.62 z"
       fill="url(#B)"
       id="path9"
       style="fill:url(#B)" />
    <path
       d="m 240.422,-65.4 c 0,10.278 -8.333,18.6 -18.612,18.6 -10.279,0 -18.6,-8.333 -18.6,-18.6 0,-10.267 8.333,-18.612 18.6,-18.612 10.267,0 18.612,8.332 18.612,18.612 z"
       fill="url(#C)"
       id="path10"
       style="fill:url(#C)" />
    <path
       d="m 308.66,-65.4 c 0,10.278 -8.332,18.6 -18.6,18.6 -10.268,0 -18.6,-8.333 -18.6,-18.6 0,-10.267 8.322,-18.612 18.604,-18.612 10.282,0 18.604,8.332 18.604,18.612 z"
       fill="url(#D)"
       id="path11"
       style="fill:url(#D)" />
    <path
       d="m 397.664,-350.226 c 11.348,76.812 14,150.532 13.802,205.444 -0.214,56.168 -3.432,92.66 -3.432,92.66 h -66.2 l -7.113,5.33 h 78.64 c 0,0 13.16,-149.27 -11.992,-308.705 z m -208.373,-1.94 c 20.66,22.98 56.4,83.966 61.3,83.966 -13.1,-16.75 -45.27,-70.192 -61.3,-83.965 z m -29.48,77.802 c -22.33,0.6 4.514,182.44 11.996,222.242 H 103.16 l -4.66,5.33 h 78.634 c -7.444,-39.598 -34.05,-219.824 -12.33,-222.24 -2.02,-3.04 -3.77,-5.137 -4.996,-5.332 z m 181.6,0 c -11.964,1.9 -66.64,154.27 -66.64,154.27 0,0 -12.04,-1.5 -24.154,-1.5 -7.17,0 -13.34,0.442 -17.514,0.83 l -1.3,6 c 0,0 12.04,-1.498 24.154,-1.498 12.114,0 24.158,1.5 24.158,1.5 0,0 54.26,-151.372 66.476,-154.27 -1.315,-3.334 -2.94,-5.272 -5.164,-5.332 z"
       opacity="0.1"
       id="path12" />
    <path
       d="M 110.5,-355.497 C 85.334,-196.063 98.495,-46.8 98.495,-46.8 l 4.63,-5.205 c -2.37,-35.218 -8.7,-162.572 12.696,-298.17 h 72.8 c 1.54,0.017 3.6,1.28 6,3.33 -4.767,-5.302 -8.73,-8.63 -11.33,-8.662 z m 218.077,0 c -13.857,0.164 -66.58,92.628 -72.637,92.628 2.47,3.16 4.477,5.34 5.33,5.34 6.06,0 58.78,-92.464 72.638,-92.63 h 64.248 l 3.224,-5.33 z m -158.435,91.795 c 17.685,26.56 61.642,148.94 61.642,148.94 l 1.286,-5.97 c -10.853,-29.757 -52.205,-141.32 -62.595,-142.97 -0.113,0.003 -0.222,-0.012 -0.333,0 z m 181.925,0 c 11.862,30.254 -10.592,181.1 -17.326,216.9 l 7.14,-5.567 c 9.108,-53.42 31.03,-210.78 10.195,-211.34 z"
       opacity="0.3"
       fill="#ffffff"
       id="path13" />
  </g>
</svg>
