<?xml version="1.0" encoding="UTF-8" standalone="no"?>
<!-- Generator: Adobe Illustrator 23.0.1, SVG Export Plug-In . SVG Version: 6.00 Build 0)  -->

<svg
   version="1.1"
   id="Livello_1"
   x="0px"
   y="0px"
   viewBox="0 0 32 31.255802"
   enable-background="new 0 0 1992.333 1946"
   xml:space="preserve"
   sodipodi:docname="microsoft-sharepoint.svg"
   width="32"
   height="31.255802"
   inkscape:version="1.4 (e7c3feb1, 2024-10-09)"
   xmlns:inkscape="http://www.inkscape.org/namespaces/inkscape"
   xmlns:sodipodi="http://sodipodi.sourceforge.net/DTD/sodipodi-0.dtd"
   xmlns="http://www.w3.org/2000/svg"
   xmlns:svg="http://www.w3.org/2000/svg"
   xmlns:ns="&amp;ns_sfw;"><defs
   id="defs9" /><sodipodi:namedview
   id="namedview9"
   pagecolor="#ffffff"
   bordercolor="#000000"
   borderopacity="0.25"
   inkscape:showpageshadow="2"
   inkscape:pageopacity="0.0"
   inkscape:pagecheckerboard="0"
   inkscape:deskcolor="#d1d1d1"
   showgrid="false"
   inkscape:zoom="0.01336074"
   inkscape:cx="973"
   inkscape:cy="973"
   inkscape:window-width="1104"
   inkscape:window-height="245"
   inkscape:window-x="0"
   inkscape:window-y="44"
   inkscape:window-maximized="0"
   inkscape:current-layer="Livello_1" />
<metadata
   id="metadata1">
	<ns:sfw>
		<ns:slices />
		<ns:sliceSourceBounds
   bottomLeftOrigin="true"
   height="1946"
   width="1992.333"
   x="-995.333"
   y="-949" />
	</ns:sfw>
</metadata>
<circle
   fill="#036c70"
   cx="16.372082"
   cy="8.9302292"
   r="8.9302292"
   id="circle1"
   style="stroke-width:0.0160616" />
<circle
   fill="#1a9ba1"
   cx="23.813951"
   cy="17.11628"
   r="8.1860495"
   id="circle2"
   style="stroke-width:0.0160616" />
<circle
   fill="#37c6d0"
   cx="17.488361"
   cy="24.930229"
   r="6.3255739"
   id="circle3"
   style="stroke-width:0.0160616" />
<path
   opacity="0.1"
   enable-background="new    "
   d="M 17.860459,8.0595323 V 23.940452 c -0.0037,0.551827 -0.338096,1.047567 -0.848372,1.257669 -0.162478,0.06873 -0.337084,0.104143 -0.513488,0.104191 h -5.328375 c -0.0074,-0.126517 -0.0074,-0.245581 -0.0074,-0.372098 -0.0025,-0.12422 0.0025,-0.248473 0.01489,-0.372099 0.136202,-2.378814 1.601675,-4.477675 3.787911,-5.425114 V 17.748815 C 10.100025,16.97778 6.7807426,12.408426 7.551778,7.5428639 7.557128,7.5091669 7.562652,7.4754859 7.568386,7.4418527 7.605424,7.1908747 7.657624,6.9423541 7.724665,6.6976722 h 8.77395 c 0.750927,0.00286 1.358985,0.6109177 1.361844,1.3618601 z"
   id="path3"
   style="stroke-width:0.0160616" />
<path
   opacity="0.2"
   enable-background="new    "
   d="M 15.754419,7.4418527 H 7.5683696 C 6.7414239,12.298645 10.00825,16.906226 14.865026,17.733171 c 0.147059,0.02504 0.294729,0.04639 0.442865,0.06402 -2.30697,1.093953 -3.988086,4.200934 -4.13097,6.760922 -0.01238,0.123626 -0.01736,0.247879 -0.01489,0.372099 0,0.126517 0,0.245581 0.0074,0.372098 0.01343,0.250143 0.04578,0.49892 0.09674,0.74418 h 4.487441 c 0.551827,-0.0037 1.047567,-0.338096 1.257669,-0.848371 0.06873,-0.162463 0.104159,-0.337084 0.104191,-0.513489 V 8.8037127 c -0.0028,-0.7506533 -0.610436,-1.3585835 -1.361089,-1.36186 z"
   id="path4"
   style="stroke-width:0.0160616" />
<path
   opacity="0.2"
   enable-background="new    "
   d="M 15.754419,7.4418527 H 7.5683696 c -0.826769,4.8572423 2.4405544,9.4650313 7.2977964,10.2918163 0.09936,0.01691 0.198987,0.03214 0.298858,0.04568 -2.232558,1.172832 -3.847436,4.272376 -3.987348,6.778784 h 4.576743 c 0.74977,-0.0057 1.35619,-0.612091 1.36186,-1.361861 V 8.8037127 c -0.0029,-0.7509424 -0.610918,-1.3590011 -1.36186,-1.36186 z"
   id="path5"
   style="stroke-width:0.0160616" />
<path
   opacity="0.2"
   enable-background="new    "
   d="M 15.010222,7.4418527 H 7.5683696 C 6.7876812,12.02714 9.6608541,16.442817 14.169303,17.586594 c -1.707119,1.950436 -2.754173,4.39046 -2.991627,6.971538 h 3.832562 c 0.750943,-0.0029 1.359001,-0.610918 1.36186,-1.361861 V 8.8037127 c -4.17e-4,-0.7519542 -0.609905,-1.3614424 -1.361876,-1.36186 z"
   id="path6"
   style="stroke-width:0.0160616" />
<linearGradient
   id="SVGID_1_"
   gradientUnits="userSpaceOnUse"
   x1="177.0788"
   y1="1551.0284"
   x2="842.25452"
   y2="398.97159"
   gradientTransform="matrix(0.01606156,0,0,-0.01606156,0,31.287919)">
	<stop
   offset="0"
   style="stop-color:#058F92"
   id="stop6" />
	<stop
   offset="0.5"
   style="stop-color:#038489"
   id="stop7" />
	<stop
   offset="1"
   style="stop-color:#026D71"
   id="stop8" />
</linearGradient>
<path
   fill="url(#SVGID_1_)"
   d="M 1.3640926,7.4418527 H 15.00799 c 0.753367,0 1.364092,0.6107249 1.364092,1.3640926 V 22.449842 c 0,0.753368 -0.610725,1.364093 -1.364092,1.364093 H 1.3640926 C 0.61072491,23.813935 0,23.20321 0,22.449842 V 8.8059453 C 0,8.0525776 0.61072491,7.4418527 1.3640926,7.4418527 Z"
   id="path8"
   style="fill:url(#SVGID_1_);stroke-width:0.0160616" />
<path
   fill="#ffffff"
   d="M 6.0926492,15.461199 C 5.7729759,15.249154 5.5059524,14.966872 5.3119929,14.635891 5.1240565,14.289893 5.0303855,13.900577 5.0403597,13.506956 c -0.016736,-0.532938 0.1631052,-1.053413 0.5052968,-1.462325 0.3595863,-0.409409 0.8243759,-0.712587 1.3439996,-0.876656 0.5922059,-0.194923 1.2124875,-0.290971 1.835901,-0.284274 0.8198304,-0.02996 1.6385209,0.08468 2.4185989,0.33861 v 1.711633 C 10.805208,12.728613 10.436033,12.577923 10.050203,12.487432 9.6315578,12.384767 9.2019913,12.33329 8.7709471,12.334125 c -0.4545423,-0.01669 -0.9061774,0.07891 -1.3149763,0.278331 -0.3156097,0.136121 -0.5202662,0.446624 -0.5209247,0.790325 -0.00128,0.208495 0.078814,0.409265 0.2232557,0.559633 0.170606,0.177272 0.3724195,0.321569 0.595354,0.42568 0.2480548,0.123529 0.6201531,0.287759 1.1162787,0.492656 0.054625,0.01727 0.1078695,0.03866 0.1592504,0.064 0.4882876,0.190828 0.9593412,0.423126 1.4080051,0.694326 0.339766,0.209491 0.624923,0.496688 0.832005,0.837948 0.212302,0.386842 0.315208,0.824199 0.297669,1.265121 0.02424,0.547153 -0.143157,1.085617 -0.473302,1.522604 -0.32907,0.401732 -0.769028,0.697811 -1.2651215,0.851343 C 9.2449399,20.298985 8.6359497,20.387404 8.0245341,20.37804 7.4759674,20.38054 6.9282039,20.33572 6.3873307,20.244087 5.9306362,20.169357 5.4849599,20.038386 5.0604528,19.854128 v -1.804645 c 0.4057793,0.289799 0.859117,0.506405 1.3395344,0.640005 0.4787952,0.149196 0.976511,0.228893 1.477953,0.236651 0.4640989,0.02939 0.9273787,-0.06892 1.3395345,-0.284274 C 9.5061973,18.478937 9.6817984,18.17033 9.6744101,17.838884 9.6763401,17.608256 9.5851081,17.386622 9.4213923,17.224191 9.2177959,17.024326 8.9820764,16.860065 8.7240955,16.738238 8.4264266,16.589395 7.9880904,16.393187 7.4091192,16.149581 6.9485217,15.964408 6.5075194,15.733812 6.0926492,15.461199 Z"
   id="path9"
   style="stroke-width:0.0160616" />
</svg>
