<?xml version="1.0" encoding="UTF-8" standalone="no"?>
<svg
   viewBox="-35.5 26 13.944287 15.999997"
   width="27.888575"
   height="31.999994"
   version="1.1"
   id="svg2"
   sodipodi:docname="nginx.svg"
   inkscape:version="1.4 (e7c3feb1, 2024-10-09)"
   xmlns:inkscape="http://www.inkscape.org/namespaces/inkscape"
   xmlns:sodipodi="http://sodipodi.sourceforge.net/DTD/sodipodi-0.dtd"
   xmlns="http://www.w3.org/2000/svg"
   xmlns:svg="http://www.w3.org/2000/svg">
  <defs
     id="defs2" />
  <sodipodi:namedview
     id="namedview2"
     pagecolor="#ffffff"
     bordercolor="#000000"
     borderopacity="0.25"
     inkscape:showpageshadow="2"
     inkscape:pageopacity="0.0"
     inkscape:pagecheckerboard="0"
     inkscape:deskcolor="#d1d1d1"
     inkscape:zoom="3.2347603"
     inkscape:cx="90.578583"
     inkscape:cy="38.179027"
     inkscape:window-width="1800"
     inkscape:window-height="1098"
     inkscape:window-x="0"
     inkscape:window-y="71"
     inkscape:window-maximized="0"
     inkscape:current-layer="svg2" />
  <path
     d="m -35.499474,34.012034 v -3.818723 a 0.34001984,0.34001984 0 0 1 0.192511,-0.325519 l 6.586885,-3.804222 c 0.118506,-0.074 0.251514,-0.08901 0.370021,-0.015 l 6.616386,3.818722 a 0.35502072,0.35502072 0 0 1 0.177511,0.325519 v 7.622945 a 0.35502072,0.35502072 0 0 1 -0.177511,0.325519 l -5.683831,3.285192 a 28.136642,28.136642 0 0 1 -0.903053,0.51803 c -0.133008,0.074 -0.266516,0.074 -0.400024,0 l -6.601385,-3.804222 c -0.118507,-0.074 -0.17751,-0.163009 -0.17751,-0.311018 v -3.818723 z"
     fill="#009438"
     id="path1"
     style="stroke-width:0.500029" />
  <path
     d="m -30.837202,32.590451 v 4.45026 c 0,0.503029 -0.400023,0.947055 -0.932554,0.932554 -0.325019,-0.015 -0.577034,-0.148008 -0.750044,-0.429025 -0.089,-0.133007 -0.118507,-0.281016 -0.118507,-0.444025 v -6.181861 c 0,-0.415024 0.251515,-0.710042 0.577034,-0.843549 0.325519,-0.133508 0.651038,-0.103506 0.977057,0 0.311018,0.08901 0.547531,0.281016 0.750043,0.51803 l 3.93723,4.721775 c 0.015,0.015 0.03,0.045 0.059,0.07401 v -4.500263 c 0,-0.473528 0.325018,-0.843549 0.785045,-0.888052 0.577034,-0.074 0.962056,0.34002 1.02106,0.770045 v 6.300368 c 0,0.35002 -0.16301,0.607035 -0.459027,0.770045 -0.222013,0.118507 -0.459027,0.148008 -0.710041,0.133008 a 1.6150943,1.6150943 0 0 1 -0.977057,-0.414525 c -0.148009,-0.133007 -0.251515,-0.296017 -0.385023,-0.444026 l -3.745218,-4.485261 c 0,-0.015 -0.015,-0.03 -0.03,-0.045 z"
     fill="#fefefe"
     id="path2"
     style="stroke-width:0.500029" />
</svg>
