<?xml version="1.0" encoding="UTF-8" standalone="no"?>
<svg
   viewBox="0 -1 63.686081 32"
   version="1.1"
   id="svg3"
   sodipodi:docname="php.svg"
   width="63.686081"
   height="32"
   inkscape:version="1.4 (e7c3feb1, 2024-10-09)"
   xmlns:inkscape="http://www.inkscape.org/namespaces/inkscape"
   xmlns:sodipodi="http://sodipodi.sourceforge.net/DTD/sodipodi-0.dtd"
   xmlns="http://www.w3.org/2000/svg"
   xmlns:svg="http://www.w3.org/2000/svg">
  <defs
     id="defs3" />
  <sodipodi:namedview
     id="namedview3"
     pagecolor="#ffffff"
     bordercolor="#000000"
     borderopacity="0.25"
     inkscape:showpageshadow="2"
     inkscape:pageopacity="0.0"
     inkscape:pagecheckerboard="0"
     inkscape:deskcolor="#d1d1d1"
     inkscape:zoom="3.090446"
     inkscape:cx="85.262776"
     inkscape:cy="-1.4561005"
     inkscape:window-width="1800"
     inkscape:window-height="1126"
     inkscape:window-x="0"
     inkscape:window-y="43"
     inkscape:window-maximized="0"
     inkscape:current-layer="svg3" />
  <path
     d="m 5.0396476,5.7312779 h 9.4449344 c 2.772172,0.023277 4.780982,0.822541 6.026431,2.3964757 1.245449,1.5739334 1.656388,3.7237134 1.23348,6.4493394 -0.164242,1.245449 -0.528635,2.466959 -1.09251,3.665198 -0.540604,1.198237 -1.291996,2.27878 -2.255507,3.242291 -1.174965,1.22151 -2.431718,1.996842 -3.770926,2.325991 -1.339207,0.329149 -2.725624,0.493392 -4.158589,0.493392 H 6.2378855 L 4.8986784,31 H 0 L 5.0396476,5.7312779 v 0 M 9.1629961,9.748899 7.0484587,20.321586 c 0.1409686,0.02328 0.2819384,0.03524 0.422907,0.03524 0.1642427,0 0.3291491,0 0.4933918,0 2.2555075,0.02328 4.1353165,-0.199485 5.6387665,-0.669604 1.50345,-0.493392 2.514172,-2.208295 3.030838,-5.145373 0.422907,-2.466961 0,-3.888621 -1.268724,-4.264318 -1.245449,-0.375696 -2.807413,-0.551908 -4.687224,-0.528634 -0.281938,0.02328 -0.551907,0.03524 -0.8105726,0.03524 -0.2347263,0 -0.4814236,0 -0.7400878,0 l 0.035243,-0.03524"
     id="path1"
     style="stroke-width:0.664949" />
  <path
     d="m 27.324744,-1 h 4.863437 l -1.37445,6.7312779 h 4.370045 c 2.396475,0.047208 4.181862,0.5406026 5.356828,1.4801756 1.198237,0.939573 1.550661,2.7256265 1.057269,5.3568285 L 39.236639,24.303965 H 34.302718 L 36.558225,13.096916 C 36.792952,11.921952 36.722467,11.088106 36.34677,10.594714 35.971074,10.101321 35.160501,9.854625 33.915052,9.854625 L 30.003158,9.819385 27.113291,24.303967 H 22.249854 L 27.324744,-1 v 0"
     id="path2"
     style="stroke-width:0.664949" />
  <path
     d="m 46.82038,5.7312779 h 9.444935 c 2.772172,0.023277 4.780982,0.822541 6.026431,2.3964757 1.245449,1.5739334 1.656388,3.7237134 1.233481,6.4493394 -0.164243,1.245449 -0.528634,2.466959 -1.092511,3.665198 -0.540604,1.198237 -1.291997,2.27878 -2.255507,3.242291 -1.174965,1.22151 -2.431719,1.996842 -3.770926,2.325991 -1.339207,0.329149 -2.725625,0.493392 -4.158589,0.493392 H 48.018619 L 46.679412,31 H 41.780733 L 46.82038,5.7312779 v 0 m 4.123349,4.0176211 -2.114537,10.572687 c 0.140968,0.02328 0.281938,0.03524 0.422906,0.03524 0.164243,0 0.329151,0 0.493392,0 2.255508,0.02328 4.135317,-0.199485 5.638767,-0.669604 1.50345,-0.493392 2.514172,-2.208295 3.030838,-5.145373 0.422907,-2.466961 0,-3.888621 -1.268723,-4.264318 -1.245449,-0.375696 -2.807414,-0.551908 -4.687225,-0.528634 -0.281938,0.02328 -0.551907,0.03524 -0.810573,0.03524 -0.234726,0 -0.481422,0 -0.740088,0 l 0.03524,-0.03524"
     id="path3"
     style="stroke-width:0.664949" />
</svg>
