<?xml version="1.0" encoding="UTF-8" standalone="no"?>
<svg
   id="b6bdd2b4-52ab-488a-9a30-1e6d1d7dd2d4"
   data-name="Layer 1"
   viewBox="0 0 31.999475 32"
   version="1.1"
   sodipodi:docname="redhat.svg"
   width="31.999474"
   height="32"
   inkscape:version="1.4 (e7c3feb1, 2024-10-09)"
   xmlns:inkscape="http://www.inkscape.org/namespaces/inkscape"
   xmlns:sodipodi="http://sodipodi.sourceforge.net/DTD/sodipodi-0.dtd"
   xmlns="http://www.w3.org/2000/svg"
   xmlns:svg="http://www.w3.org/2000/svg"
   xmlns:rdf="http://www.w3.org/1999/02/22-rdf-syntax-ns#"
   xmlns:cc="http://creativecommons.org/ns#"
   xmlns:dc="http://purl.org/dc/elements/1.1/">
  <metadata
     id="metadata15">
    <rdf:RDF>
      <cc:Work
         rdf:about="">
        <dc:format>image/svg+xml</dc:format>
        <dc:type
           rdf:resource="http://purl.org/dc/dcmitype/StillImage" />
      </cc:Work>
    </rdf:RDF>
  </metadata>
  <sodipodi:namedview
     pagecolor="#ffffff"
     bordercolor="#666666"
     borderopacity="1"
     objecttolerance="10"
     gridtolerance="10"
     guidetolerance="10"
     inkscape:pageopacity="0"
     inkscape:pageshadow="2"
     inkscape:window-width="1800"
     inkscape:window-height="1098"
     id="namedview13"
     showgrid="false"
     fit-margin-top="1"
     fit-margin-right="1"
     fit-margin-bottom="1"
     fit-margin-left="1"
     inkscape:zoom="6.4536381"
     inkscape:cx="13.480768"
     inkscape:cy="23.32018"
     inkscape:window-x="0"
     inkscape:window-y="71"
     inkscape:window-maximized="0"
     inkscape:current-layer="b6bdd2b4-52ab-488a-9a30-1e6d1d7dd2d4"
     inkscape:showpageshadow="2"
     inkscape:pagecheckerboard="0"
     inkscape:deskcolor="#d1d1d1" />
  <defs
     id="defs4">
    <style
       id="style2">.a737459c-e8c7-4afa-8008-f6cfd15ccda2{fill:#e00;}</style>
  </defs>
  <path
     class="a737459c-e8c7-4afa-8008-f6cfd15ccda2"
     d="m 21.200452,17.675514 c 2.101909,0 5.145475,-0.437197 5.145475,-2.942674 a 3.2840238,3.2840238 0 0 0 -0.05045,-0.57172 L 25.051151,8.7129702 C 24.765291,7.5190854 24.513062,6.9641813 22.411152,5.921634 20.78007,5.0808701 17.232046,3.7188326 16.172684,3.7188326 c -0.992101,0 -1.277961,1.2611459 -2.438215,1.2611459 -1.126624,0 -1.950572,-0.9416557 -3.009935,-0.9416557 -1.0089174,0 -1.6647124,0.6894265 -2.1691714,2.1019098 0,0 -1.4124834,3.9852214 -1.5974514,4.5737554 a 1.0341396,1.0341396 0 0 0 -0.033631,0.319491 c -0.016815,1.547005 6.0871314,6.62522 14.2761714,6.642035 m 5.464965,-1.916942 c 0.28586,1.378852 0.28586,1.53019 0.28586,1.698343 0,2.354139 -2.639998,3.665731 -6.120761,3.665731 -7.869551,0 -14.7469992,-4.607386 -14.7469992,-7.650951 a 3.0856035,3.0856035 0 0 1 0.2522291,-1.227516 c -2.8249667,0.134522 -6.49069726,0.63898 -6.49069726,3.867514 0,5.296812 12.54419836,11.82114 22.46521236,11.82114 7.617321,0 9.534262,-3.447131 9.534262,-6.171207 0,-2.13554 -1.849681,-4.55694 -5.179106,-6.003054"
     id="path8"
     inkscape:connector-curvature="0"
     style="fill:#ee0000;stroke-width:0.168153" />
  <path
     d="m 26.665417,15.758572 c 0.28586,1.378852 0.28586,1.53019 0.28586,1.698343 0,2.354139 -2.639998,3.665731 -6.120761,3.665731 -7.869551,0 -14.7469992,-4.607386 -14.7469992,-7.650951 a 3.0856035,3.0856035 0 0 1 0.2522291,-1.227516 l 0.6221653,-1.530191 a 1.0341396,1.0341396 0 0 0 -0.03363,0.319491 c 0,1.547005 6.1039468,6.62522 14.2761718,6.62522 2.101908,0 5.145475,-0.437198 5.145475,-2.942674 a 3.2840238,3.2840238 0 0 0 -0.05045,-0.571719 z"
     id="path10"
     inkscape:connector-curvature="0"
     style="stroke-width:0.168153" />
</svg>
