<?xml version="1.0" encoding="UTF-8" standalone="no"?>
<!-- Uploaded to: SVG Repo, www.svgrepo.com, Generator: SVG Repo Mixer Tools -->

<svg
   width="32"
   height="27.323364"
   viewBox="0 -18 10.24 8.7434766"
   preserveAspectRatio="xMinYMin"
   version="1.1"
   id="svg9"
   sodipodi:docname="redis.svg"
   inkscape:version="1.4 (e7c3feb1, 2024-10-09)"
   xmlns:inkscape="http://www.inkscape.org/namespaces/inkscape"
   xmlns:sodipodi="http://sodipodi.sourceforge.net/DTD/sodipodi-0.dtd"
   xmlns="http://www.w3.org/2000/svg"
   xmlns:svg="http://www.w3.org/2000/svg">
  <defs
     id="defs9" />
  <sodipodi:namedview
     id="namedview9"
     pagecolor="#ffffff"
     bordercolor="#000000"
     borderopacity="0.25"
     inkscape:showpageshadow="2"
     inkscape:pageopacity="0.0"
     inkscape:pagecheckerboard="0"
     inkscape:deskcolor="#d1d1d1"
     showgrid="false"
     inkscape:zoom="0.0325"
     inkscape:cx="400"
     inkscape:cy="338.46154"
     inkscape:window-width="1104"
     inkscape:window-height="245"
     inkscape:window-x="0"
     inkscape:window-y="44"
     inkscape:window-maximized="0"
     inkscape:current-layer="svg9" />
  <path
     d="m 9.8388,-11.265641 c -0.54648,0.28484 -3.37736,1.4488001 -3.98004,1.7630001 -0.60268,0.31424 -0.93748,0.3112 -1.4136,0.0836 C 3.96908,-9.6466409 0.95652,-10.863521 0.41384,-11.122921 0.14264,-11.252521 0,-11.361961 0,-11.465321 v -1.03504 c 0,0 3.922,-0.8538 4.55516,-1.08096 0.63312,-0.22716 0.8528,-0.23536 1.3916,-0.038 0.53888,0.19744 3.76072,0.77872 4.29324,0.97376 l -2.4e-4,1.0204 c 8e-5,0.10232 -0.1228,0.21456 -0.40096,0.35952"
     fill="#912626"
     id="path1"
     style="stroke-width:0.04" />
  <path
     d="m 9.8386,-12.294561 c -0.54644,0.28472 -3.37724,1.44872 -3.97992,1.76288 -0.60264,0.31428 -0.93744,0.3112 -1.41352,0.0836 -0.47612,-0.22744 -3.48856,-1.44452 -4.0312,-1.70376 -0.54264,-0.2594 -0.554,-0.43792 -0.02096,-0.64664 0.53304,-0.2088 3.52896,-1.3842 4.1622,-1.61136 0.63312,-0.22708 0.85276,-0.23536 1.39156,-0.03792 0.53884,0.19736 3.35276,1.3174 3.8852,1.5124 0.53264,0.19524 0.55308,0.356 0.00664,0.6408"
     fill="#c6302b"
     id="path2"
     style="stroke-width:0.04" />
  <path
     d="m 9.8388,-12.940401 c -0.54648,0.28488 -3.37736,1.4488 -3.98004,1.76312 -0.60268,0.31412 -0.93748,0.31108 -1.4136,0.08348 -0.47612,-0.22748 -3.48864,-1.44448 -4.03132,-1.70388 C 0.14264,-12.927281 0,-13.036561 0,-13.139961 v -1.03516 c 0,0 3.922,-0.85376 4.55516,-1.08092 0.63312,-0.22716 0.8528,-0.2354 1.3916,-0.038 0.53892,0.1974 3.76076,0.77856 4.29324,0.97364 l -2.4e-4,1.02052 c 8e-5,0.10228 -0.1228,0.21452 -0.40096,0.35948"
     fill="#912626"
     id="path3"
     style="stroke-width:0.04" />
  <path
     d="m 9.8386,-13.969321 c -0.54644,0.2848 -3.37724,1.44872 -3.97992,1.763 -0.60264,0.31416 -0.93744,0.31108 -1.41352,0.08348 -0.47612,-0.22744 -3.48856,-1.44448 -4.0312,-1.70376 -0.54264,-0.25932 -0.554,-0.43788 -0.02096,-0.64668 0.53304,-0.20868 3.529,-1.38416 4.1622,-1.61128 0.63312,-0.22712 0.85276,-0.23536 1.39156,-0.03796 0.53884,0.19736 3.35276,1.31732 3.8852,1.5124 0.53264,0.1952 0.55308,0.356 0.00664,0.6408"
     fill="#c6302b"
     id="path4"
     style="stroke-width:0.04" />
  <path
     d="m 9.8388,-14.677241 c -0.54648,0.2848 -3.37736,1.4488 -3.98004,1.76312 -0.60268,0.31416 -0.93748,0.31108 -1.4136,0.08348 -0.47612,-0.22748 -3.48864,-1.44452 -4.03132,-1.7038 C 0.14264,-14.664161 0,-14.773481 0,-14.876761 v -1.0352 c 0,0 3.922,-0.85372 4.55516,-1.08084 0.63312,-0.2272 0.8528,-0.23536 1.3916,-0.038 0.53892,0.1974 3.76076,0.77856 4.29324,0.97364 l -2.4e-4,1.02048 c 8e-5,0.1022 -0.1228,0.21444 -0.40096,0.35944"
     fill="#912626"
     id="path5"
     style="stroke-width:0.04" />
  <path
     d="m 9.8386,-15.706161 c -0.54644,0.2848 -3.37724,1.4488 -3.97992,1.76296 -0.60264,0.31416 -0.93744,0.31108 -1.41352,0.0836 -0.47608,-0.2276 -3.48856,-1.44456 -4.03116,-1.70388 -0.54268,-0.25928 -0.554,-0.43788 -0.021,-0.64664 0.53304,-0.20872 3.529,-1.38404 4.1622,-1.61124 0.63312,-0.22716 0.85276,-0.23532 1.39156,-0.03792 0.53884,0.1974 3.35276,1.31736 3.8852,1.51244 0.53264,0.19504 0.55308,0.35588 0.00664,0.64068"
     fill="#c6302b"
     id="path6"
     style="stroke-width:0.04" />
  <path
     d="m 6.37132,-16.713081 -0.8804,0.0914 -0.19708,0.47424 -0.31832,-0.5292 -1.0166,-0.09136 0.75856,-0.27356 -0.2276,-0.41992 0.7102,0.27776 0.66952,-0.2192 -0.18096,0.4342 0.68268,0.25564 m -1.13004,2.30072 -1.64308,-0.68148 2.3544,-0.3614 -0.71132,1.04288 m -2.278,-2.03712 c 0.695,0 1.2584,0.2184 1.2584,0.48776 0,0.26944 -0.5634,0.4878 -1.2584,0.4878 -0.695,0 -1.2584,-0.2184 -1.2584,-0.4878 0,-0.26936 0.5634,-0.48776 1.2584,-0.48776"
     fill="#ffffff"
     id="path7"
     style="stroke-width:0.04" />
  <path
     d="m 7.4118,-16.583441 1.39344,0.55064 -1.39224,0.55012 -0.0012,-1.1008"
     fill="#621b1c"
     id="path8"
     style="stroke-width:0.04" />
  <path
     d="m 5.8702,-15.973641 1.5416,-0.6098 0.0012,1.10076 -0.15116,0.05912 -1.39164,-0.55008"
     fill="#9a2928"
     id="path9"
     style="stroke-width:0.04" />
</svg>
