<?xml version="1.0" encoding="UTF-8" standalone="no"?>
<svg
   viewBox="0 0 32 32"
   width="32"
   height="32"
   version="1.1"
   id="svg4"
   sodipodi:docname="sitecore.svg"
   inkscape:version="1.4 (e7c3feb1, 2024-10-09)"
   xmlns:inkscape="http://www.inkscape.org/namespaces/inkscape"
   xmlns:sodipodi="http://sodipodi.sourceforge.net/DTD/sodipodi-0.dtd"
   xmlns="http://www.w3.org/2000/svg"
   xmlns:svg="http://www.w3.org/2000/svg">
  <defs
     id="defs4" />
  <sodipodi:namedview
     id="namedview4"
     pagecolor="#ffffff"
     bordercolor="#000000"
     borderopacity="0.25"
     inkscape:showpageshadow="2"
     inkscape:pageopacity="0.0"
     inkscape:pagecheckerboard="0"
     inkscape:deskcolor="#d1d1d1"
     inkscape:zoom="3.9914241"
     inkscape:cx="17.5376"
     inkscape:cy="-35.701544"
     inkscape:window-width="1800"
     inkscape:window-height="1126"
     inkscape:window-x="0"
     inkscape:window-y="43"
     inkscape:window-maximized="0"
     inkscape:current-layer="svg4" />
  <path
     fill="#c62828"
     d="M 16,0 C 7.168,0 0,7.168 0,16 0,24.84 7.168,32 16,32 24.832,32 32,24.832 32,16 32,7.168 24.832,0 16,0 Z m 0,27.984 C 8.952,27.984 4.016,22.552 4.016,16 4.016,9.456 9.448,4.016 16,4.016 c 6.544,0 12.016,5.344 12.016,11.888 0,6.552 -4.968,12.08 -12.016,12.08 z"
     id="path1"
     style="stroke-width:0.8" />
  <path
     fill="#c62828"
     d="m 25.272,21.7032 c 0,0 -3.3576,5.7736 -10.7,4.9968 -7.1152,-0.7608 -8.48,-6.7384 -8.5504,-7.1152 1.5296,2.816 3.8048,4.9736 9.264,4.9736 5.7032,0 7.8448,-4.2832 7.8448,-4.2832 z"
     id="path2"
     style="stroke-width:0.8" />
  <path
     fill="#c62828"
     d="m 25.9856,20.9888 -2.8552,-1.42 c 0,0 -2.8552,4.2752 -7.8448,4.2752 -5.5224,0 -7.0368,-2.6832 -7.1224,-2.8472 2.7296,2.7216 6.472,2.4472 9.264,1.42 6.252,-2.2904 5.7032,-7.8448 5.7032,-7.8448 H 26.7 c 0,0 0.7136,4.2832 -0.7144,6.4168 z"
     id="path3"
     style="stroke-width:0.8" />
  <path
     fill="#c62828"
     d="m 22.4168,13.8584 c 0,0 0.3136,5.7816 -4.9888,7.8448 -2.7928,1.0904 -5.5072,0.0784 -5.7032,0 0,0 2.1024,0.3768 3.5616,0 2.8552,-0.7136 4.2048,-1.9928 4.9888,-3.5616 2.1416,-4.2832 -0.7064,-7.1304 -0.7064,-7.1304 L 23.1304,8.156 c 0,0 3.4048,2.9416 3.5696,5.7032 h -4.2832 z"
     id="path4"
     style="stroke-width:0.8" />
</svg>
