<?xml version="1.0" encoding="UTF-8" standalone="no"?>
<svg
   width="32"
   height="32"
   fill="none"
   viewBox="0 0 32 32"
   version="1.1"
   id="svg2"
   sodipodi:docname="temporal-io.svg"
   inkscape:version="1.4 (e7c3feb1, 2024-10-09)"
   xmlns:inkscape="http://www.inkscape.org/namespaces/inkscape"
   xmlns:sodipodi="http://sodipodi.sourceforge.net/DTD/sodipodi-0.dtd"
   xmlns="http://www.w3.org/2000/svg"
   xmlns:svg="http://www.w3.org/2000/svg">
  <sodipodi:namedview
     id="namedview2"
     pagecolor="#ffffff"
     bordercolor="#000000"
     borderopacity="0.25"
     inkscape:showpageshadow="2"
     inkscape:pageopacity="0.0"
     inkscape:pagecheckerboard="0"
     inkscape:deskcolor="#d1d1d1"
     inkscape:zoom="5.0897812"
     inkscape:cx="-11.984798"
     inkscape:cy="16.208948"
     inkscape:window-width="1800"
     inkscape:window-height="1098"
     inkscape:window-x="0"
     inkscape:window-y="71"
     inkscape:window-maximized="0"
     inkscape:current-layer="svg2" />
  <rect
     width="32"
     height="32"
     fill="url(#paint0_linear_1452_5317)"
     rx="4"
     id="rect1"
     style="fill:url(#paint0_linear_1452_5317);stroke-width:0.166667"
     x="0"
     y="0" />
  <path
     fill="#f2f2f2"
     d="M 20.556667,11.443267 C 19.9425,6.8414 18.387833,3 16,3 13.612183,3 12.057567,6.8414 11.443267,11.443267 6.8414,12.057567 3,13.612183 3,16 3,18.387833 6.8420833,19.9425 11.443267,20.556667 12.057567,25.158 13.612183,29 16,29 18.387833,29 19.9425,25.158 20.556667,20.556667 25.158667,19.9425 29,18.387833 29,16 29,13.612183 25.158,12.057567 20.556667,11.443267 Z M 11.29305,19.216333 C 6.88585,18.579833 4.3155,17.122833 4.3155,16 c 0,-1.12285 2.57035,-2.5798 6.97755,-3.216317 -0.09698,1.060884 -0.1475,2.143984 -0.1475,3.216317 0,1.072333 0.05052,2.156167 0.1475,3.216333 z M 16,4.3155 c 1.122833,0 2.579833,2.57035 3.216333,6.97755 -1.060166,-0.09698 -2.144,-0.1475 -3.216333,-0.1475 -1.072333,0 -2.156117,0.05052 -3.216317,0.1475 C 13.4202,6.88585 14.87715,4.3155 16,4.3155 Z m 4.707,14.900833 c -0.217,0.03167 -1.106667,0.136 -1.331667,0.158334 C 19.353,19.600333 19.248,20.489333 19.217,20.706333 c -0.6365,4.407167 -2.0935,6.9775 -3.216317,6.9775 -1.12285,0 -2.5798,-2.570333 -3.216333,-6.9775 -0.03098,-0.217 -0.13605,-1.106666 -0.158283,-1.331666 -0.102384,-1.044834 -0.16435,-2.167 -0.16435,-3.374667 0,-1.207717 0.06197,-2.3299 0.16435,-3.375283 1.044716,-0.102384 2.166883,-0.16435 3.374616,-0.16435 1.20765,0 2.329817,0.06197 3.37465,0.16435 C 19.601,12.64695 20.49,12.752017 20.707,12.783 c 4.407167,0.636533 6.978167,2.09415 6.978167,3.216333 0,1.122167 -2.571,2.5805 -6.978167,3.217 z"
     id="path1"
     style="stroke-width:0.166667" />
  <defs
     id="defs2">
    <linearGradient
       id="paint0_linear_1452_5317"
       x1="183"
       x2="0"
       y1="192"
       y2="0"
       gradientUnits="userSpaceOnUse"
       gradientTransform="scale(0.16666667)">
      <stop
         stop-color="#444CE7"
         id="stop1" />
      <stop
         offset="1"
         stop-color="#B664FF"
         id="stop2" />
    </linearGradient>
  </defs>
</svg>
