<?xml version="1.0" encoding="UTF-8" standalone="no"?>
<!-- Created with Inkscape (http://www.inkscape.org/) -->

<svg
   width="24pt"
   height="24pt"
   id="svg1402"
   sodipodi:version="0.32"
   inkscape:version="1.4 (e7c3feb1, 2024-10-09)"
   sodipodi:docname="ubuntu.svg"
   version="1.1"
   xmlns:inkscape="http://www.inkscape.org/namespaces/inkscape"
   xmlns:sodipodi="http://sodipodi.sourceforge.net/DTD/sodipodi-0.dtd"
   xmlns="http://www.w3.org/2000/svg"
   xmlns:svg="http://www.w3.org/2000/svg"
   xmlns:rdf="http://www.w3.org/1999/02/22-rdf-syntax-ns#"
   xmlns:cc="http://creativecommons.org/ns#"
   xmlns:dc="http://purl.org/dc/elements/1.1/"
   xmlns:ns3="http://ns.adobe.com/AdobeIllustrator/10.0/">
  <defs
     id="defs3" />
  <sodipodi:namedview
     id="base"
     pagecolor="#ffffff"
     bordercolor="#666666"
     borderopacity="0.0000000"
     inkscape:pageopacity="0.0"
     inkscape:pageshadow="2"
     inkscape:zoom="8.8609631"
     inkscape:cx="18.056728"
     inkscape:cy="36.84701"
     inkscape:document-units="px"
     inkscape:current-layer="layer1"
     inkscape:window-width="1800"
     inkscape:window-height="1098"
     inkscape:window-x="0"
     inkscape:window-y="71"
     inkscape:showpageshadow="2"
     inkscape:pagecheckerboard="0"
     inkscape:deskcolor="#d1d1d1"
     inkscape:window-maximized="0" />
  <metadata
     id="metadata4">
    <rdf:RDF>
      <cc:Work
         rdf:about="">
        <dc:format>image/svg+xml</dc:format>
        <dc:type
           rdf:resource="http://purl.org/dc/dcmitype/StillImage" />
        <dc:title>Ubuntu Linux</dc:title>
        <dc:rights>
          <cc:Agent>
            <dc:title />
          </cc:Agent>
        </dc:rights>
        <dc:description>The Ubuntu Linux logo
http://www.ubuntulinux.org/</dc:description>
      </cc:Work>
    </rdf:RDF>
  </metadata>
  <g
     inkscape:label="Layer 1"
     inkscape:groupmode="layer"
     id="layer1"
     transform="translate(-12.5,-12.499967)">
    <g
       id="g67"
       transform="matrix(0.35273757,0,0,0.34119139,12.5,12.499284)">
      <circle
         ns3:knockout="Off"
         cx="9.1239996"
         cy="46.903999"
         r="9.1239996"
         id="circle69"
         style="fill:#ff6309" />
      <circle
         ns3:knockout="Off"
         cx="74.547997"
         cy="84.667"
         r="9.1239996"
         id="circle71"
         style="fill:#ffb515" />
      <path
         ns3:knockout="Off"
         d="m 52.739,24.327 c 11.361,0 20.787,8.436 22.348,19.373 H 90.719 C 90.009,35.106 86.446,27.096 80.489,20.779 76.674,22.722 71.983,22.759 67.998,20.459 64.01,18.156 61.696,14.072 61.474,9.792 58.643,9.132 55.718,8.79 52.739,8.79 c -5.704,0 -11.216,1.245 -16.229,3.606 l 7.826,13.555 c 2.599,-1.046 5.435,-1.624 8.403,-1.624 z"
         id="path73"
         style="fill:#ff6309" />
      <path
         ns3:knockout="Off"
         d="M 75.088,50.098 C 73.531,61.039 64.103,69.48 52.739,69.48 c -2.97,0 -5.807,-0.578 -8.406,-1.626 L 36.506,81.41 c 5.012,2.362 10.526,3.608 16.232,3.608 2.981,0 5.91,-0.344 8.742,-1.004 0.218,-4.285 2.533,-8.376 6.524,-10.68 3.986,-2.302 8.679,-2.265 12.495,-0.318 5.952,-6.318 9.511,-14.327 10.219,-22.918 z"
         id="path75"
         style="fill:#c90016" />
      <path
         ns3:knockout="Off"
         d="m 30.163,46.904 c 0,-7.193 3.381,-13.61 8.636,-17.747 L 30.975,15.604 c -1.835,1.282 -3.571,2.733 -5.188,4.349 -4.528,4.528 -7.775,9.995 -9.562,15.962 3.6,2.332 5.984,6.38 5.984,10.989 0,4.608 -2.384,8.657 -5.984,10.988 1.787,5.967 5.034,11.434 9.562,15.962 1.616,1.616 3.35,3.065 5.184,4.348 L 38.796,64.648 C 33.542,60.511 30.163,54.094 30.163,46.904 Z"
         id="path77"
         style="fill:#ffb515" />
      <circle
         ns3:knockout="Off"
         cx="74.540001"
         cy="9.1260004"
         r="9.1239996"
         id="circle79"
         style="fill:#c90016" />
    </g>
  </g>
</svg>
