<?xml version="1.0" encoding="UTF-8" standalone="no"?>
<!-- Generator: Adobe Illustrator 19.2.1, SVG Export Plug-In . SVG Version: 6.00 Build 0)  -->

<svg
   version="1.1"
   id="layer"
   x="0px"
   y="0px"
   viewBox="0 0 81.702133 32"
   xml:space="preserve"
   sodipodi:docname="wso2.svg"
   width="81.702133"
   height="32"
   inkscape:version="1.4 (e7c3feb1, 2024-10-09)"
   xmlns:inkscape="http://www.inkscape.org/namespaces/inkscape"
   xmlns:sodipodi="http://sodipodi.sourceforge.net/DTD/sodipodi-0.dtd"
   xmlns="http://www.w3.org/2000/svg"
   xmlns:svg="http://www.w3.org/2000/svg"><defs
   id="defs2" /><sodipodi:namedview
   id="namedview2"
   pagecolor="#ffffff"
   bordercolor="#000000"
   borderopacity="0.25"
   inkscape:showpageshadow="2"
   inkscape:pageopacity="0.0"
   inkscape:pagecheckerboard="0"
   inkscape:deskcolor="#d1d1d1"
   inkscape:zoom="6.0847363"
   inkscape:cx="27.610071"
   inkscape:cy="32.622613"
   inkscape:window-width="1800"
   inkscape:window-height="1098"
   inkscape:window-x="0"
   inkscape:window-y="71"
   inkscape:window-maximized="0"
   inkscape:current-layer="layer" />
<style
   type="text/css"
   id="style1">
	.st0{fill:#FF7300;}
	.st1{fill:#FFFFFF;}
</style>
<path
   class="st0"
   d="M 30.175319,1.51149 23.298723,19.0366 16.422128,0.31319 9.123404,19.0366 2.886809,1.51149 H 0 L 8.973617,26.0766 16.340426,7.35319 23.217021,26.0766 33.062128,1.51149 Z M 44.02383,13.9983 c -1.116596,-0.96681 -2.396596,-1.6749 -3.676596,-2.24681 0,0 -3.445106,-1.7566 -4.234894,-2.31489 -0.789787,-0.5583 -1.116595,-1.36171 -1.116595,-2.3149 0,-0.96681 0.394893,-1.8383 1.198298,-2.4783 0.803404,-0.64 1.756595,-0.9668 2.886808,-0.9668 0.721702,0 1.361702,0.1634 1.838298,0.39489 0.476596,0.32681 1.034894,0.7217 1.443404,1.3617 0,0 0.394894,0.5583 0.558298,0.7217 l 2.001702,-1.3617 c -0.721702,-1.1983 -1.525106,-2.0834 -2.56,-2.7234 -1.034893,-0.64 -2.083404,-0.96681 -3.281702,-0.96681 -2.001702,0 -3.594894,0.5583 -4.874894,1.67489 -1.28,1.1166 -1.92,2.56 -1.92,4.3166 0,1.67489 0.558298,2.95489 1.674894,3.84 1.198298,0.96681 4.643404,2.6417 4.643404,2.6417 1.28,0.64 2.314894,1.28 3.2,1.8383 0.885107,0.64 1.361702,1.5251 1.361702,2.7234 0,1.3617 -0.476595,2.4783 -1.361702,3.36341 -0.885106,0.8851 -2.001702,1.3617 -3.445106,1.3617 -1.198298,0 -2.246809,-0.39489 -3.036596,-1.1166 -0.803404,-0.7217 -1.361702,-1.83829 -1.674893,-3.2 l -2.56,0.80341 c 0.245106,0.96681 0.558297,1.75659 0.966808,2.56 0.394894,0.7217 0.966809,1.3617 1.606809,1.92 1.28,1.03489 2.805106,1.60681 4.725106,1.60681 2.001702,0 3.758298,-0.72171 5.201702,-2.08341 1.443404,-1.3617 2.165106,-3.1183 2.165106,-5.12 -0.05447,-1.90638 -0.612765,-3.26808 -1.729361,-4.23489 z m 15.196596,10.4851 c 6.318297,0 11.438297,-5.12 11.438297,-11.43829 0,-6.3183 -5.12,-11.4383 -11.438297,-11.4383 -6.318298,0 -11.438298,5.12 -11.438298,11.4383 0,6.31829 5.201702,11.43829 11.438298,11.43829 z"
   id="path1"
   style="stroke-width:0.13617" />
<polygon
   class="st1"
   points="373.9,315.7 373.9,304.5 425.6,304.5 457.3,234 492.6,319.8 506.7,294.6 540.8,294.6 540.8,305.7 513.7,305.7 491.4,346.3 456.7,262.8 433.2,315.7 "
   id="polygon1"
   transform="matrix(0.13617021,0,0,0.13617021,-2.968511,-27.71064)" />
<path
   d="M 68.670638,3.84 C 66.19234,1.28 63.074043,0 59.302128,0 c -0.0817,0 -0.163405,0 -0.163405,0 -2.314893,0 -4.561702,0.5583 -6.563404,1.7566 -2.001702,1.19829 -3.594893,2.8051 -4.806808,4.87489 -1.211915,2.06979 -1.756596,4.3166 -1.756596,6.72681 0,3.59489 1.28,6.72681 3.84,9.28681 2.56,2.56 5.678298,3.84 9.436596,3.84 v 0 c 3.676595,0 6.80851,-1.28 9.36851,-3.84 2.56,-2.56 3.84,-5.6783 3.84,-9.36851 C 72.592341,9.5183 71.31234,6.3183 68.670638,3.84 Z m -0.0817,14.8017 c -0.966808,1.6749 -2.246808,2.9549 -3.84,3.9217 -1.674893,0.96681 -3.445106,1.44341 -5.365106,1.44341 0,0 0,0 -0.0817,0 -2.954894,0 -5.446809,-1.0349 -7.516596,-3.0366 -2.083404,-2.0834 -3.118298,-4.5617 -3.118298,-7.5983 0,-2.0017 0.476596,-3.84 1.361702,-5.51489 0.966809,-1.60681 2.246809,-2.95489 3.921702,-3.9217 1.674894,-0.96681 3.445107,-1.44341 5.283405,-1.44341 0,0 0,0 0.0817,0 1.838298,0 3.676595,0.4766 5.283404,1.44341 1.674894,0.96681 2.954894,2.24681 3.921702,3.84 0.966809,1.60681 1.361702,3.44511 1.361702,5.44681 0.06808,1.97447 -0.422127,3.81276 -1.293617,5.41957 z m 4.874894,-6.23659 c 0.558298,-0.16341 1.198298,-0.24511 1.92,-0.24511 1.756596,0 3.199998,0.5583 4.316598,1.7566 1.11659,1.11659 1.67489,2.47829 1.67489,4.0851 0,1.1166 -0.24511,2.16511 -0.80341,3.1183 -0.55829,0.95319 -1.5251,2.24681 -3.036589,3.9217 l -4.793191,5.2017 h 8.96 V 32 H 68.411915 l 7.366808,-8.00681 c 1.525107,-1.60681 2.478297,-2.8051 2.954897,-3.59489 0.47659,-0.78979 0.64,-1.60681 0.64,-2.4783 0,-1.1166 -0.3949,-2.0017 -1.198301,-2.80511 -0.803404,-0.8034 -1.838298,-1.19829 -2.954893,-1.19829 -0.64,0 -1.28,0.0817 -1.838298,0.39489 0,-0.39489 0.0817,-1.7566 0.0817,-1.90638 z"
   id="path2"
   style="stroke-width:0.13617" />
</svg>
