<?xml version="1.0" encoding="UTF-8" standalone="no"?>
<!-- Generator: Adobe Illustrator 19.2.1, SVG Export Plug-In . SVG Version: 6.00 Build 0)  -->

<svg
   version="1.1"
   id="layer"
   x="0px"
   y="0px"
   viewBox="0 0 45.957447 18"
   xml:space="preserve"
   sodipodi:docname="wso2.svg"
   width="45.957447"
   height="18"
   inkscape:version="1.4 (e7c3feb1, 2024-10-09)"
   xmlns:inkscape="http://www.inkscape.org/namespaces/inkscape"
   xmlns:sodipodi="http://sodipodi.sourceforge.net/DTD/sodipodi-0.dtd"
   xmlns="http://www.w3.org/2000/svg"
   xmlns:svg="http://www.w3.org/2000/svg"><defs
   id="defs2" /><sodipodi:namedview
   id="namedview2"
   pagecolor="#ffffff"
   bordercolor="#000000"
   borderopacity="0.25"
   inkscape:showpageshadow="2"
   inkscape:pageopacity="0.0"
   inkscape:pagecheckerboard="0"
   inkscape:deskcolor="#d1d1d1"
   inkscape:zoom="6.0847363"
   inkscape:cx="27.610071"
   inkscape:cy="32.540441"
   inkscape:window-width="1800"
   inkscape:window-height="1097"
   inkscape:window-x="0"
   inkscape:window-y="44"
   inkscape:window-maximized="0"
   inkscape:current-layer="layer" />
<style
   type="text/css"
   id="style1">
	.st0{fill:#FF7300;}
	.st1{fill:#FFFFFF;}
</style>
<path
   class="st0"
   d="M 16.973618,0.85021312 13.105532,10.708088 9.237447,0.17616937 5.1319147,10.708088 1.6238301,0.85021312 H 0 L 5.0476595,14.668088 9.1914894,4.1361693 13.059574,14.668088 18.597447,0.85021312 Z M 24.763405,7.8740436 C 24.135319,7.3302133 23.415319,6.9319123 22.695319,6.6102133 c 0,0 -1.937872,-0.9880877 -2.382128,-1.3021258 -0.444255,-0.3140437 -0.628085,-0.7659618 -0.628085,-1.3021313 0,-0.5438305 0.222127,-1.0340437 0.674043,-1.3940437 0.451915,-0.36 0.988084,-0.543825 1.62383,-0.543825 0.405957,0 0.765957,0.091913 1.034042,0.2221256 0.268085,0.1838307 0.582128,0.4059562 0.811915,0.7659562 0,0 0.222128,0.3140438 0.314043,0.4059564 l 1.125957,-0.7659564 c -0.405957,-0.6740436 -0.857872,-1.1719124 -1.44,-1.5319124 -0.582127,-0.36000002 -1.171915,-0.54383067 -1.845957,-0.54383067 -1.125958,0 -2.022128,0.31404377 -2.742128,0.94212567 -0.72,0.6280874 -1.08,1.44 -1.08,2.4280874 0,0.9421257 0.314043,1.662126 0.942128,2.1599998 0.674042,0.5438309 2.611915,1.4859565 2.611915,1.4859565 0.72,0.36 1.302127,0.72 1.8,1.0340436 0.497873,0.3599995 0.765957,0.8578687 0.765957,1.5319128 0,0.765956 -0.268084,1.394043 -0.765957,1.891918 -0.497873,0.497869 -1.125958,0.765957 -1.937873,0.765957 -0.674042,0 -1.26383,-0.222126 -1.708085,-0.628088 -0.451915,-0.405956 -0.765957,-1.034038 -0.942127,-1.8 l -1.44,0.451918 c 0.137872,0.543831 0.314042,0.988082 0.543829,1.44 0.222129,0.405956 0.54383,0.765956 0.90383,1.08 0.72,0.582126 1.577872,0.90383 2.657872,0.90383 1.125958,0 2.114043,-0.405962 2.925958,-1.171918 0.811915,-0.765956 1.217872,-1.754044 1.217872,-2.88 C 25.70553,9.1838313 25.391489,8.4178744 24.763405,7.8740436 Z m 8.548084,5.8978694 c 3.554043,0 6.434043,-2.88 6.434043,-6.4340386 0,-3.5540437 -2.88,-6.43404373 -6.434043,-6.43404373 -3.554042,0 -6.434042,2.88000003 -6.434042,6.43404373 0,3.5540386 2.925958,6.4340386 6.434042,6.4340386 z"
   id="path1"
   style="stroke-width:0.0765956" />
<polygon
   class="st1"
   points="540.8,305.7 513.7,305.7 491.4,346.3 456.7,262.8 433.2,315.7 373.9,315.7 373.9,304.5 425.6,304.5 457.3,234 492.6,319.8 506.7,294.6 540.8,294.6 "
   id="polygon1"
   transform="matrix(0.07659574,0,0,0.07659574,-1.6697875,-15.587235)" />
<path
   d="M 38.627233,2.16 C 37.233191,0.72 35.479149,0 33.357447,0 33.311487,0 33.265527,0 33.265527,0 31.9634,0 30.699569,0.31404375 29.573613,0.9880875 28.447655,1.6621257 27.551484,2.5659562 26.869782,3.7302131 26.188081,4.89447 25.881697,6.1583008 25.881697,7.5140436 c 0,2.0221251 0.72,3.7838314 2.16,5.2238314 1.44,1.44 3.194043,2.16 5.308085,2.16 v 0 c 2.068085,0 3.829787,-0.72 5.269787,-2.16 1.44,-1.44 2.16,-3.1940437 2.16,-5.2697873 C 40.833192,5.3540438 40.113191,3.5540438 38.627233,2.16 Z m -0.04595,8.325957 c -0.543829,0.942131 -1.263829,1.662131 -2.16,2.205956 -0.942127,0.54383 -1.937872,0.811918 -3.017872,0.811918 0,0 0,0 -0.04595,0 -1.662128,0 -3.063829,-0.582132 -4.228084,-1.708088 -1.171916,-1.171912 -1.754044,-2.5659559 -1.754044,-4.2740438 0,-1.1259559 0.268086,-2.1599999 0.765958,-3.1021254 0.543829,-0.9038307 1.263829,-1.6621257 2.205957,-2.2059563 0.942129,-0.5438306 1.937872,-0.8119182 2.971916,-0.8119182 0,0 0,0 0.04595,0 1.034043,0 2.068084,0.2680876 2.971915,0.8119182 0.942128,0.5438306 1.662128,1.2638306 2.205957,2.16 0.54383,0.9038306 0.765958,1.9378745 0.765958,3.0638305 0.03829,1.1106397 -0.237447,2.1446774 -0.727661,3.048509 z M 41.323406,6.9778744 C 41.637448,6.8859564 41.997448,6.84 42.403406,6.84 c 0.988085,0 1.799999,0.3140436 2.428086,0.9880877 0.628081,0.6280815 0.942125,1.3940377 0.942125,2.2978693 0,0.628086 -0.137874,1.217874 -0.451918,1.754043 -0.314038,0.536169 -0.857868,1.263831 -1.708081,2.205957 l -2.69617,2.925955 h 5.04 V 18 h -7.475746 l 4.14383,-4.503831 c 0.857873,-0.90383 1.394041,-1.577868 1.662129,-2.022126 0.268082,-0.444256 0.36,-0.90383 0.36,-1.394043 0,-0.6280875 -0.222131,-1.1259564 -0.674043,-1.5778744 -0.451916,-0.4519123 -1.034044,-0.6740379 -1.662129,-0.6740379 -0.36,0 -0.72,0.045956 -1.034042,0.2221256 0,-0.2221256 0.04595,-0.9880877 0.04595,-1.0723389 z"
   id="path2"
   style="stroke-width:0.0765956" />
</svg>
