<?xml version="1.0" encoding="UTF-8" standalone="no"?>
<svg
   viewBox="0 0 31.296694 32"
   version="1.1"
   id="svg143"
   sodipodi:docname="xcode.svg"
   width="31.296694"
   height="32"
   inkscape:version="1.4 (e7c3feb1, 2024-10-09)"
   xmlns:inkscape="http://www.inkscape.org/namespaces/inkscape"
   xmlns:sodipodi="http://sodipodi.sourceforge.net/DTD/sodipodi-0.dtd"
   xmlns="http://www.w3.org/2000/svg"
   xmlns:svg="http://www.w3.org/2000/svg">
  <defs
     id="defs143" />
  <sodipodi:namedview
     id="namedview143"
     pagecolor="#ffffff"
     bordercolor="#000000"
     borderopacity="0.25"
     inkscape:showpageshadow="2"
     inkscape:pageopacity="0.0"
     inkscape:pagecheckerboard="0"
     inkscape:deskcolor="#d1d1d1"
     showgrid="false"
     inkscape:zoom="0.203125"
     inkscape:cx="49.230769"
     inkscape:cy="59.076923"
     inkscape:window-width="1104"
     inkscape:window-height="245"
     inkscape:window-x="0"
     inkscape:window-y="44"
     inkscape:window-maximized="0"
     inkscape:current-layer="svg143" />
  <linearGradient
     id="xcode-original-a"
     gradientUnits="userSpaceOnUse"
     x1="63.946999"
     y1="114.165"
     x2="63.946999"
     y2="13.784"
     gradientTransform="matrix(0.27826087,0,0,0.27826087,-3.84,-1.5304348)">
    <stop
       offset="0"
       stop-color="#1578e4"
       id="stop1" />
    <stop
       offset="1"
       stop-color="#00c3f2"
       id="stop2" />
  </linearGradient>
  <path
     d="m 6.093913,2.3095652 h 15.721739 c 3.366957,0 6.093913,2.7269568 6.093913,6.0939128 v 15.721739 c 0,3.366957 -2.726956,6.093913 -6.093913,6.093913 H 6.093913 C 2.726956,30.21913 0,27.492174 0,24.125217 V 8.403478 C 0,5.036522 2.726956,2.3095652 6.093913,2.3095652 Z"
     fill="url(#xcode-original-a)"
     id="path2"
     style="fill:url(#xcode-original-a);stroke-width:0.278261" />
  <path
     fill="#ffffff"
     d="M 21.342609,3.8121739 H 6.566957 c -2.810435,0 -5.092175,2.2817391 -5.092175,5.0921741 V 23.68 c 0,2.810434 2.28174,5.092174 5.092175,5.092174 h 14.775652 c 2.810435,0 5.092174,-2.28174 5.092174,-5.092174 V 8.876522 c 0,-2.810435 -2.281739,-5.0643481 -5.092174,-5.0643481 z m 4.674783,19.9234781 c 0,2.560001 -2.059131,4.61913 -4.619131,4.61913 H 6.511304 c -2.532174,0 -4.61913,-2.059129 -4.61913,-4.61913 V 8.820869 c 0,-2.56 2.05913,-4.6191298 4.61913,-4.6191298 h 14.914783 c 2.532174,0 4.61913,2.0591298 4.61913,4.6191298 v 14.914783 z"
     id="path3"
     style="stroke-width:0.278261" />
  <path
     d="m 13.996522,4.813913 c -6.288696,0 -11.408696,5.12 -11.408696,11.408695 0,6.288696 5.12,11.408696 11.408696,11.408696 6.316521,0 11.408696,-5.12 11.408696,-11.408696 0,-6.288695 -5.12,-11.408695 -11.408696,-11.408695 z m 0,22.650434 c -6.205218,0 -11.241739,-5.036521 -11.241739,-11.241739 0,-6.205216 5.036521,-11.241738 11.241739,-11.241738 6.205217,0 11.241739,5.036522 11.241739,11.241738 0,6.205218 -5.036522,11.241739 -11.241739,11.241739 z"
     fill="#69c5f3"
     id="path4"
     style="stroke-width:0.278261" />
  <path
     d="m 13.996522,7.151304 c -5.036522,0 -9.09913,4.062609 -9.09913,9.099131 0,5.036521 4.062608,9.071305 9.09913,9.071305 5.036522,0 9.09913,-4.062609 9.09913,-9.099132 0,-5.036522 -4.090435,-9.071304 -9.09913,-9.071304 z m 0,17.975653 c -4.925218,0 -8.904348,-3.979131 -8.904348,-8.904349 0,-4.925217 3.97913,-8.904347 8.904348,-8.904347 4.925217,0 8.904348,3.97913 8.904348,8.904347 0,4.925218 -4.006957,8.904349 -8.904348,8.904349 z"
     fill="#68c5f4"
     id="path5"
     style="stroke-width:0.278261" />
  <path
     fill="#ffffff"
     d="m 5.286956,18.309565 h 17.363479 c 0.723478,0 1.279999,0.584348 1.279999,1.28 0,0.723478 -0.584347,1.28 -1.279999,1.28 H 5.286956 c -0.723478,0 -1.279999,-0.584347 -1.279999,-1.28 -0.02782,-0.695652 0.556521,-1.28 1.279999,-1.28 z"
     id="path6"
     style="stroke-width:0.278261" />
  <path
     d="m 5.231305,18.56 h 17.41913 c 0.556521,0 1.029565,0.445217 1.029565,1.029565 v 0.02782 c 0,0.556522 -0.445218,1.029565 -1.029565,1.029565 H 5.231305 c -0.556523,0 -1.029566,-0.445217 -1.029566,-1.029565 v -0.05565 c 0.02782,-0.556522 0.473043,-1.001739 1.029566,-1.001739 z"
     fill="#0a93e9"
     id="path7"
     style="stroke-width:0.278261" />
  <path
     d="m 4.813913,20.535652 h 18.281739 l 0.13913,-0.08348 h -18.56 z"
     fill="#1694ea"
     id="path8"
     style="stroke-width:0.278261" />
  <path
     d="m 4.396521,20.201739 h 19.088696 l 0.05565,-0.08347 H 4.34087 Z"
     fill="#319dec"
     id="path9"
     style="stroke-width:0.278261" />
  <path
     d="M 4.229565,19.673043 H 23.68 V 19.561739 H 4.229565 Z"
     fill="#65b1ee"
     id="path10"
     style="stroke-width:0.278261" />
  <path
     d="m 4.424348,18.977391 h 19.088695 l 0.02782,0.05565 0.02782,0.05565 H 4.368696 l 0.02782,-0.05565 z"
     fill="#8ec6f3"
     id="path11"
     style="stroke-width:0.278261" />
  <path
     d="m 4.841739,18.643478 h 18.253913 l 0.08347,0.02782 0.08347,0.05565 H 4.674782 l 0.08347,-0.05565 z"
     fill="#95caf3"
     id="path12"
     style="stroke-width:0.278261" />
  <linearGradient
     id="xcode-original-b"
     gradientUnits="userSpaceOnUse"
     x1="94.037003"
     y1="79.666"
     x2="94.037003"
     y2="72.183998"
     gradientTransform="matrix(0.27826087,0,0,0.27826087,-3.84,-1.5304348)">
    <stop
       offset="0"
       stop-color="#1492e7"
       id="stop12" />
    <stop
       offset="1"
       stop-color="#dbedfb"
       id="stop13" />
  </linearGradient>
  <path
     d="m 22.149565,18.56 h -0.13913 c 0,0 0.473044,0.333913 0.473044,1.085218 0,0.695652 -0.473044,1.001738 -0.473044,1.001738 h 0.13913 c 0,0 0.473044,-0.222608 0.473044,-1.001738 0,-0.834783 -0.473044,-1.085218 -0.473044,-1.085218 z"
     fill="url(#xcode-original-b)"
     id="path13"
     style="fill:url(#xcode-original-b);stroke-width:0.278261" />
  <linearGradient
     id="xcode-original-c"
     gradientUnits="userSpaceOnUse"
     x1="89.042"
     y1="79.666"
     x2="89.042"
     y2="72.183998"
     gradientTransform="matrix(0.27826087,0,0,0.27826087,-3.84,-1.5304348)">
    <stop
       offset="0"
       stop-color="#1492e7"
       id="stop14" />
    <stop
       offset="1"
       stop-color="#dbedfb"
       id="stop15" />
  </linearGradient>
  <path
     d="m 20.813913,18.56 h -0.139131 c 0,0 0.417391,0.389566 0.417391,1.085218 0,0.612173 -0.417391,1.001738 -0.417391,1.001738 h 0.139131 c 0,0 0.417392,-0.306086 0.417392,-1.001738 C 21.20348,18.893913 20.813913,18.56 20.813913,18.56 Z"
     fill="url(#xcode-original-c)"
     id="path15"
     style="fill:url(#xcode-original-c);stroke-width:0.278261" />
  <linearGradient
     id="xcode-original-d"
     gradientUnits="userSpaceOnUse"
     x1="63.946999"
     y1="79.666"
     x2="63.946999"
     y2="72.183998"
     gradientTransform="matrix(0.27826087,0,0,0.27826087,-3.84,-1.5304348)">
    <stop
       offset="0"
       stop-color="#1492e7"
       id="stop16" />
    <stop
       offset="1"
       stop-color="#dbedfb"
       id="stop17" />
  </linearGradient>
  <path
     d="m 13.885217,18.56 h 0.13913 v 2.086956 h -0.13913 z"
     fill="url(#xcode-original-d)"
     id="path17"
     style="fill:url(#xcode-original-d);stroke-width:0.278261" />
  <linearGradient
     id="xcode-original-e"
     gradientUnits="userSpaceOnUse"
     x1="58.952"
     y1="79.666"
     x2="58.952"
     y2="72.183998"
     gradientTransform="matrix(0.27826087,0,0,0.27826087,-3.84,-1.5304348)">
    <stop
       offset="0"
       stop-color="#1492e7"
       id="stop18" />
    <stop
       offset="1"
       stop-color="#dbedfb"
       id="stop19" />
  </linearGradient>
  <path
     d="m 12.521739,18.56 h 0.139131 c 0,0 -0.05565,0.528696 -0.05565,1.085218 0,0.500869 0.05565,1.001738 0.05565,1.001738 h -0.139131 c 0,0 -0.05565,-0.500869 -0.05565,-1.001738 0,-0.556522 0.05565,-1.085218 0.05565,-1.085218 z"
     fill="url(#xcode-original-e)"
     id="path19"
     style="fill:url(#xcode-original-e);stroke-width:0.278261" />
  <linearGradient
     id="xcode-original-f"
     gradientUnits="userSpaceOnUse"
     x1="53.958"
     y1="79.666"
     x2="53.958"
     y2="72.183998"
     gradientTransform="matrix(0.27826087,0,0,0.27826087,-3.84,-1.5304348)">
    <stop
       offset="0"
       stop-color="#1492e7"
       id="stop20" />
    <stop
       offset="1"
       stop-color="#dbedfb"
       id="stop21" />
  </linearGradient>
  <path
     d="m 11.186086,18.56 h 0.139131 c 0,0 -0.139131,0.528696 -0.139131,1.085218 0,0.500869 0.139131,1.001738 0.139131,1.001738 h -0.139131 c 0,0 -0.13913,-0.500869 -0.13913,-1.001738 0,-0.556522 0.13913,-1.085218 0.13913,-1.085218 z"
     fill="url(#xcode-original-f)"
     id="path21"
     style="fill:url(#xcode-original-f);stroke-width:0.278261" />
  <linearGradient
     id="xcode-original-g"
     gradientUnits="userSpaceOnUse"
     x1="48.963001"
     y1="79.666"
     x2="48.963001"
     y2="72.183998"
     gradientTransform="matrix(0.27826087,0,0,0.27826087,-3.84,-1.5304348)">
    <stop
       offset="0"
       stop-color="#1492e7"
       id="stop22" />
    <stop
       offset="1"
       stop-color="#dbedfb"
       id="stop23" />
  </linearGradient>
  <path
     d="m 9.822609,18.56 h 0.13913 c 0,0 -0.194782,0.528696 -0.194782,1.085218 0,0.500869 0.194782,1.001738 0.194782,1.001738 h -0.13913 c 0,0 -0.194783,-0.500869 -0.194783,-1.001738 0,-0.556522 0.194783,-1.085218 0.194783,-1.085218 z"
     fill="url(#xcode-original-g)"
     id="path23"
     style="fill:url(#xcode-original-g);stroke-width:0.278261" />
  <linearGradient
     id="xcode-original-h"
     gradientUnits="userSpaceOnUse"
     x1="43.967999"
     y1="79.666"
     x2="43.967999"
     y2="72.183998"
     gradientTransform="matrix(0.27826087,0,0,0.27826087,-3.84,-1.5304348)">
    <stop
       offset="0"
       stop-color="#1492e7"
       id="stop24" />
    <stop
       offset="1"
       stop-color="#dbedfb"
       id="stop25" />
  </linearGradient>
  <path
     d="m 8.45913,18.56 h 0.139131 c 0,0 -0.278261,0.445217 -0.278261,1.085218 0,0.556521 0.278261,1.001738 0.278261,1.001738 H 8.45913 c 0,0 -0.278261,-0.445217 -0.278261,-1.001738 C 8.180869,19.005217 8.45913,18.56 8.45913,18.56 Z"
     fill="url(#xcode-original-h)"
     id="path25"
     style="fill:url(#xcode-original-h);stroke-width:0.278261" />
  <linearGradient
     id="xcode-original-i"
     gradientUnits="userSpaceOnUse"
     x1="38.852001"
     y1="79.666"
     x2="38.852001"
     y2="72.183998"
     gradientTransform="matrix(0.27826087,0,0,0.27826087,-3.84,-1.5304348)">
    <stop
       offset="0"
       stop-color="#1492e7"
       id="stop26" />
    <stop
       offset="1"
       stop-color="#dbedfb"
       id="stop27" />
  </linearGradient>
  <path
     d="m 7.095652,18.56 h 0.13913 c 0,0 -0.417391,0.389566 -0.417391,1.085218 0,0.612173 0.417391,1.001738 0.417391,1.001738 h -0.13913 c 0,0 -0.417392,-0.306086 -0.417392,-1.001738 C 6.706085,18.893913 7.095652,18.56 7.095652,18.56 Z"
     fill="url(#xcode-original-i)"
     id="path27"
     style="fill:url(#xcode-original-i);stroke-width:0.278261" />
  <linearGradient
     id="xcode-original-j"
     gradientUnits="userSpaceOnUse"
     x1="33.856998"
     y1="79.666"
     x2="33.856998"
     y2="72.183998"
     gradientTransform="matrix(0.27826087,0,0,0.27826087,-3.84,-1.5304348)">
    <stop
       offset="0"
       stop-color="#1492e7"
       id="stop28" />
    <stop
       offset="1"
       stop-color="#dbedfb"
       id="stop29" />
  </linearGradient>
  <path
     d="m 5.76,18.56 h 0.13913 c 0,0 -0.473043,0.333913 -0.473043,1.085218 0,0.695652 0.473043,1.001738 0.473043,1.001738 H 5.76 c 0,0 -0.473044,-0.222608 -0.473044,-1.001738 C 5.286956,18.810435 5.76,18.56 5.76,18.56 Z"
     fill="url(#xcode-original-j)"
     id="path29"
     style="fill:url(#xcode-original-j);stroke-width:0.278261" />
  <path
     fill="#ffffff"
     d="m 13.412174,7.958261 8.681739,15.026087 c 0.361739,0.612174 0.13913,1.391304 -0.473044,1.753043 -0.612174,0.361739 -1.391304,0.139131 -1.753043,-0.473043 L 11.186086,9.238261 c -0.361738,-0.612174 -0.13913,-1.391305 0.473044,-1.753044 0.612174,-0.361739 1.391304,-0.13913 1.753044,0.473044 z"
     id="path30"
     style="stroke-width:0.278261" />
  <linearGradient
     id="xcode-original-k"
     gradientUnits="userSpaceOnUse"
     x1="73.580002"
     y1="94.25"
     x2="73.580002"
     y2="32.641998"
     gradientTransform="matrix(0.27826087,0,0,0.27826087,-3.84,-1.5304348)">
    <stop
       offset="0"
       stop-color="#1285e7"
       id="stop30" />
    <stop
       offset="1"
       stop-color="#00b5ef"
       id="stop31" />
  </linearGradient>
  <path
     d="m 13.189565,8.069565 8.709565,15.081739 c 0.278261,0.473044 0.111305,1.113044 -0.361739,1.391304 l -0.05565,0.02782 c -0.473044,0.278261 -1.113043,0.111304 -1.391304,-0.36174 L 11.380869,9.09913 C 11.102608,8.626087 11.269566,7.986087 11.742609,7.707826 l 0.02782,-0.02782 c 0.500869,-0.278261 1.140869,-0.111305 1.41913,0.389565 z"
     fill="url(#xcode-original-k)"
     id="path31"
     style="fill:url(#xcode-original-k);stroke-width:0.278261" />
  <linearGradient
     id="xcode-original-l"
     gradientUnits="userSpaceOnUse"
     x1="87.463997"
     y1="93.977997"
     x2="54.081001"
     y2="36.155998"
     gradientTransform="matrix(0.27826087,0,0,0.27826087,-3.84,-1.5304348)">
    <stop
       offset="0"
       stop-color="#2b90e7"
       id="stop32" />
    <stop
       offset="1"
       stop-color="#00b6ef"
       id="stop33" />
  </linearGradient>
  <path
     d="m 11.241739,8.681739 9.126957,15.833044 0.05565,0.02782 0.05565,0.02782 0.05565,0.02782 -9.293913,-16.083478 z"
     fill="url(#xcode-original-l)"
     id="path33"
     style="fill:url(#xcode-original-l);stroke-width:0.278261" />
  <linearGradient
     id="xcode-original-m"
     gradientUnits="userSpaceOnUse"
     x1="89.072998"
     y1="94.327003"
     x2="54.583"
     y2="34.589001"
     gradientTransform="matrix(0.27826087,0,0,0.27826087,-3.84,-1.5304348)">
    <stop
       offset="0"
       stop-color="#3795ea"
       id="stop34" />
    <stop
       offset="1"
       stop-color="#49c4f2"
       id="stop35" />
  </linearGradient>
  <path
     d="m 11.325217,8.153044 9.544348,16.528695 h 0.111305 l -9.600001,-16.612174 -0.02782,0.05565 z"
     fill="url(#xcode-original-m)"
     id="path35"
     style="fill:url(#xcode-original-m);stroke-width:0.278261" />
  <linearGradient
     id="xcode-original-n"
     gradientUnits="userSpaceOnUse"
     x1="91.026001"
     y1="93.735001"
     x2="56.071999"
     y2="33.193001"
     gradientTransform="matrix(0.27826087,0,0,0.27826087,-3.84,-1.5304348)">
    <stop
       offset="0"
       stop-color="#3696ea"
       id="stop36" />
    <stop
       offset="1"
       stop-color="#90d9f6"
       id="stop37" />
  </linearGradient>
  <path
     d="m 11.714782,7.735652 9.739131,16.834783 0.08347,-0.05565 -9.73913,-16.834783 z"
     fill="url(#xcode-original-n)"
     id="path37"
     style="fill:url(#xcode-original-n);stroke-width:0.278261" />
  <linearGradient
     id="xcode-original-o"
     gradientUnits="userSpaceOnUse"
     x1="92.582001"
     y1="92.332001"
     x2="58.064999"
     y2="32.547001"
     gradientTransform="matrix(0.27826087,0,0,0.27826087,-3.84,-1.5304348)">
    <stop
       offset="0"
       stop-color="#3097ea"
       id="stop38" />
    <stop
       offset="1"
       stop-color="#b5e5f9"
       id="stop39" />
  </linearGradient>
  <path
     d="m 12.410435,7.568695 9.516522,16.50087 -0.02782,0.05565 -0.02782,0.05565 -9.600001,-16.64 h 0.05565 z"
     fill="url(#xcode-original-o)"
     id="path39"
     style="fill:url(#xcode-original-o);stroke-width:0.278261" />
  <linearGradient
     id="xcode-original-p"
     gradientUnits="userSpaceOnUse"
     x1="93.083"
     y1="90.685997"
     x2="59.741001"
     y2="32.936001"
     gradientTransform="matrix(0.27826087,0,0,0.27826087,-3.84,-1.5304348)">
    <stop
       offset="0"
       stop-color="#3a98ea"
       id="stop40" />
    <stop
       offset="1"
       stop-color="#bce7fa"
       id="stop41" />
  </linearGradient>
  <path
     d="m 12.911304,7.735652 9.126957,15.805218 v 0.166956 l -9.293913,-16.055653 0.05565,0.02782 0.05565,0.02782 z"
     fill="url(#xcode-original-p)"
     id="path41"
     style="fill:url(#xcode-original-p);stroke-width:0.278261" />
  <path
     fill="#3c98ea"
     d="M 21.620869,22.650435 21.56522,22.53913 c 0,0 -0.05565,0.556522 -0.667825,0.946087 -0.584349,0.361739 -1.113044,0.111305 -1.113044,0.111305 l 0.05565,0.111304 c 0,0 0.445217,0.306087 1.113043,-0.111304 0.667826,-0.389566 0.667826,-0.946087 0.667825,-0.946087 z m -0.695652,-1.168696 -0.05565,-0.111304 c 0,0 -0.139131,0.556522 -0.723478,0.890434 -0.528696,0.333913 -1.057391,0.166957 -1.057391,0.166957 l 0.05565,0.111304 c 0,0 0.473044,0.194783 1.085218,-0.166956 0.612174,-0.361739 0.695652,-0.890435 0.695651,-0.890435 z"
     id="path42"
     style="stroke-width:0.278261" />
  <path
     d="m 20.257391,20.313043 -0.05565,-0.111304 c 0,0 -0.250435,0.473043 -0.779131,0.779131 -0.473042,0.278261 -1.001738,0.278261 -1.001738,0.278261 l 0.05565,0.111304 c 0,0 0.500869,0 1.001739,-0.278262 0.528696,-0.306086 0.77913,-0.77913 0.77913,-0.77913 z"
     fill="#4ca4ed"
     id="path43"
     style="stroke-width:0.278261" />
  <path
     d="m 19.589565,19.144347 -0.05565,-0.111303 c 0,0 -0.361739,0.473043 -0.834783,0.723478 -0.445217,0.250435 -0.973913,0.333913 -0.973913,0.333913 l 0.05565,0.111304 c 0,0 0.528695,-0.08347 0.973913,-0.333913 0.445218,-0.250435 0.834783,-0.723479 0.834783,-0.723479 z"
     fill="#4da7ee"
     id="path44"
     style="stroke-width:0.278261" />
  <linearGradient
     id="xcode-original-q"
     gradientUnits="userSpaceOnUse"
     x1="67.981003"
     y1="61.226002"
     x2="74.457001"
     y2="57.487"
     gradientTransform="matrix(0.27826087,0,0,0.27826087,-3.84,-1.5304348)">
    <stop
       offset="0"
       stop-color="#00a4ec"
       id="stop44" />
    <stop
       offset="1"
       stop-color="#b9dff6"
       id="stop45" />
  </linearGradient>
  <path
     d="m 16.834783,14.413913 0.05565,0.111305 c 0,0 -0.473044,0.222608 -0.946087,0.473043 -0.445217,0.250435 -0.834783,0.584348 -0.834783,0.584348 l -0.05565,-0.111305 c 0,0 0.417391,-0.333912 0.834782,-0.584347 0.473044,-0.250436 0.946088,-0.473044 0.946088,-0.473044 z"
     fill="url(#xcode-original-q)"
     id="path45"
     style="fill:url(#xcode-original-q);stroke-width:0.278261" />
  <linearGradient
     id="xcode-original-r"
     gradientUnits="userSpaceOnUse"
     x1="65.487"
     y1="56.905998"
     x2="71.961998"
     y2="53.167"
     gradientTransform="matrix(0.27826087,0,0,0.27826087,-3.84,-1.5304348)">
    <stop
       offset="0"
       stop-color="#00a4ec"
       id="stop46" />
    <stop
       offset="1"
       stop-color="#b9dff6"
       id="stop47" />
  </linearGradient>
  <path
     d="m 16.166956,13.245217 0.05565,0.111305 c 0,0 -0.528695,0.166956 -0.973913,0.445217 -0.445217,0.250435 -0.806957,0.64 -0.806957,0.64 l -0.05565,-0.111304 c 0,0 0.361739,-0.389566 0.806956,-0.64 0.445218,-0.306087 0.973913,-0.445218 0.973913,-0.445218 z"
     fill="url(#xcode-original-r)"
     id="path47"
     style="fill:url(#xcode-original-r);stroke-width:0.278261" />
  <path
     d="M 14.914782,12.326957 C 15.276522,12.215652 15.554783,12.16 15.554783,12.16 l -0.05565,-0.111304 c 0,0 -0.250436,0.02782 -0.528696,0.13913 -0.166957,0.05565 -0.194783,0.194783 -0.05565,0.139131 z"
     fill="#9dd4f7"
     id="path48"
     style="stroke-width:0.278261" />
  <linearGradient
     id="xcode-original-s"
     gradientUnits="userSpaceOnUse"
     x1="57.93"
     y1="43.819"
     x2="64.363998"
     y2="40.105"
     gradientTransform="matrix(0.27826087,0,0,0.27826087,-3.84,-1.5304348)">
    <stop
       offset="0"
       stop-color="#00b4ef"
       id="stop48" />
    <stop
       offset="1"
       stop-color="#c3e9fa"
       id="stop49" />
  </linearGradient>
  <path
     d="m 14.135652,9.739131 0.05565,0.111304 c 0,0 -0.528696,-0.139131 -1.140871,0.194782 -0.528695,0.333914 -0.639999,0.862609 -0.639999,0.862609 l -0.05565,-0.111304 c 0,0 0.05565,-0.473044 0.640001,-0.834783 0.612173,-0.389565 1.140869,-0.222608 1.140869,-0.222608 z"
     fill="url(#xcode-original-s)"
     id="path49"
     style="fill:url(#xcode-original-s);stroke-width:0.278261" />
  <linearGradient
     id="xcode-original-t"
     gradientUnits="userSpaceOnUse"
     x1="55.424"
     y1="39.477001"
     x2="61.900002"
     y2="35.737999"
     gradientTransform="matrix(0.27826087,0,0,0.27826087,-3.84,-1.5304348)">
    <stop
       offset="0"
       stop-color="#00b4ef"
       id="stop50" />
    <stop
       offset="1"
       stop-color="#c3e9fa"
       id="stop51" />
  </linearGradient>
  <path
     d="m 13.467826,8.542608 0.08347,0.111305 c 0,0 -0.556522,-0.222608 -1.196523,0.139131 C 11.7426,9.182609 11.7426,9.711304 11.7426,9.711304 L 11.65913,9.6 c 0,0 -0.05565,-0.473043 0.612174,-0.890435 0.695652,-0.417391 1.196522,-0.166957 1.196522,-0.166957 z"
     fill="url(#xcode-original-t)"
     id="path51"
     style="fill:url(#xcode-original-t);stroke-width:0.278261" />
  <path
     fill="#ffffff"
     d="m 11.603479,18.309565 c 2.420868,-4.173913 5.203478,-9.015652 5.203478,-9.015652 0.361739,-0.612174 0.13913,-1.391304 -0.473044,-1.753043 -0.612174,-0.361739 -1.391304,-0.139131 -1.753044,0.473043 0,0 -3.394783,5.899131 -5.954782,10.295652 z m -1.502609,2.56 C 8.932174,22.873043 8.125217,24.32 8.125217,24.32 7.763478,24.932174 6.984348,25.154782 6.372174,24.793044 5.76,24.431305 5.537391,23.652173 5.89913,23.04 c 0,0 0.473044,-0.862609 1.224348,-2.142608 0.946087,-0.02782 2.671304,-0.02782 2.977392,-0.02782 z"
     id="path52"
     style="stroke-width:0.278261" />
  <linearGradient
     id="xcode-original-u"
     gradientUnits="userSpaceOnUse"
     x1="54.566002"
     y1="94.401001"
     x2="54.566002"
     y2="32.793999"
     gradientTransform="matrix(0.27826087,0,0,0.27826087,-3.84,-1.5304348)">
    <stop
       offset="0"
       stop-color="#1285e7"
       id="stop52" />
    <stop
       offset="1"
       stop-color="#00b5ef"
       id="stop53" />
  </linearGradient>
  <path
     d="M 11.297391,18.309565 C 13.746087,14.08 16.584347,9.154782 16.584347,9.154782 16.862608,8.681739 16.695652,8.041739 16.222608,7.763478 l -0.02782,-0.02782 c -0.473044,-0.27826 -1.113044,-0.111304 -1.391304,0.361739 0,0 -3.339131,5.787826 -5.899131,10.212174 z m -1.474782,2.56 c -1.113044,1.947826 -1.92,3.33913 -1.92,3.33913 -0.278261,0.473044 -0.890435,0.640001 -1.391305,0.36174 H 6.455654 C 5.98261,24.292174 5.815654,23.68 6.093915,23.179131 c 0,0 0.528696,-0.918262 1.335652,-2.309566 z"
     fill="url(#xcode-original-u)"
     id="path53"
     style="fill:url(#xcode-original-u);stroke-width:0.278261" />
  <linearGradient
     id="xcode-original-v"
     gradientUnits="userSpaceOnUse"
     x1="40.681"
     y1="94.130997"
     x2="74.064003"
     y2="36.311001"
     gradientTransform="matrix(0.27826087,0,0,0.27826087,-3.84,-1.5304348)">
    <stop
       offset="0"
       stop-color="#3194e9"
       id="stop54" />
    <stop
       offset="1"
       stop-color="#71cff4"
       id="stop55" />
  </linearGradient>
  <path
     d="M 11.213913,18.309565 16.751304,8.737391 V 8.570435 c 0,0 -3.060869,5.314782 -5.620869,9.73913 z m -1.502609,2.56 -2.114782,3.673043 -0.08348,0.05565 -0.08347,0.02782 c 0,0 0.946087,-1.64174 2.170435,-3.756523 z"
     fill="url(#xcode-original-v)"
     id="path55"
     style="fill:url(#xcode-original-v);stroke-width:0.278261" />
  <linearGradient
     id="xcode-original-w"
     gradientUnits="userSpaceOnUse"
     x1="39.063"
     y1="94.482002"
     x2="73.556999"
     y2="34.736"
     gradientTransform="matrix(0.27826087,0,0,0.27826087,-3.84,-1.5304348)">
    <stop
       offset="0"
       stop-color="#5aa6ec"
       id="stop56" />
    <stop
       offset="1"
       stop-color="#a2def8"
       id="stop57" />
  </linearGradient>
  <path
     d="M 10.796522,18.309565 16.64,8.208696 16.61218,8.153046 16.58436,8.097396 c 0,0 -3.199999,5.537392 -5.871303,10.184348 z m -1.474782,2.56 -2.226088,3.84 H 6.984348 c 0,0 0.946086,-1.641739 2.226087,-3.867826 0.05565,0.02782 0.111305,0.02782 0.111305,0.02782 z"
     fill="url(#xcode-original-w)"
     id="path57"
     style="fill:url(#xcode-original-w);stroke-width:0.278261" />
  <linearGradient
     id="xcode-original-x"
     gradientUnits="userSpaceOnUse"
     x1="37.118"
     y1="93.885002"
     x2="72.071999"
     y2="33.342999"
     gradientTransform="matrix(0.27826087,0,0,0.27826087,-3.84,-1.5304348)">
    <stop
       offset="0"
       stop-color="#66abee"
       id="stop58" />
    <stop
       offset="1"
       stop-color="#bee8fa"
       id="stop59" />
  </linearGradient>
  <path
     d="m 10.184348,18.309565 c 2.754783,-4.75826 6.066087,-10.518261 6.066087,-10.518261 l -0.08347,-0.05565 -6.121739,10.573913 z M 8.681739,20.897392 C 7.457392,23.04 6.53913,24.626087 6.53913,24.626087 l -0.08347,-0.05565 c 0,0 0.890435,-1.558261 2.114783,-3.673043 0.05565,-0.02782 0.02782,-0.02782 0.111304,0 z"
     fill="url(#xcode-original-x)"
     id="path59"
     style="fill:url(#xcode-original-x);stroke-width:0.278261" />
  <linearGradient
     id="xcode-original-y"
     gradientUnits="userSpaceOnUse"
     x1="35.568001"
     y1="92.482002"
     x2="70.084999"
     y2="32.696999"
     gradientTransform="matrix(0.27826087,0,0,0.27826087,-3.84,-1.5304348)">
    <stop
       offset="0"
       stop-color="#7bb6f0"
       id="stop60" />
    <stop
       offset="1"
       stop-color="#b1e3f9"
       id="stop61" />
  </linearGradient>
  <path
     d="m 9.516521,18.309565 c 2.754783,-4.75826 6.177392,-10.713043 6.177392,-10.713043 h -0.111304 c 0,0 -3.422609,5.926956 -6.177391,10.713043 z m -1.613912,2.56 c -1.113044,1.92 -1.864348,3.227826 -1.864348,3.227826 l 0.02782,0.05565 0.02782,0.05565 c 0,0 0.806957,-1.391304 1.947826,-3.33913 z"
     fill="url(#xcode-original-y)"
     id="path61"
     style="fill:url(#xcode-original-y);stroke-width:0.278261" />
  <linearGradient
     id="xcode-original-z"
     gradientUnits="userSpaceOnUse"
     x1="35.056"
     y1="90.872002"
     x2="68.415001"
     y2="33.091999"
     gradientTransform="matrix(0.27826087,0,0,0.27826087,-3.84,-1.5304348)">
    <stop
       offset="0"
       stop-color="#5aa6ec"
       id="stop62" />
    <stop
       offset="1"
       stop-color="#afe3f9"
       id="stop63" />
  </linearGradient>
  <path
     d="m 9.09913,18.309565 6.12174,-10.601739 -0.05565,0.02782 -0.05565,0.02782 -0.02782,0.02782 c 0,0 -3.394782,5.871305 -6.066087,10.518261 z m -1.474782,2.56 C 6.650435,22.566957 5.954783,23.763478 5.954783,23.763478 V 23.54087 c 0,0 0.612174,-1.057391 1.55826,-2.699131 0.05565,0.02782 0.05565,0.02782 0.111305,0.02782 z"
     fill="url(#xcode-original-z)"
     id="path63"
     style="fill:url(#xcode-original-z);stroke-width:0.278261" />
  <linearGradient
     id="xcode-original-A"
     gradientUnits="userSpaceOnUse"
     x1="66.362"
     y1="35.688999"
     x2="72.837997"
     y2="39.428001"
     gradientTransform="matrix(0.27826087,0,0,0.27826087,-3.84,-1.5304348)">
    <stop
       offset="0"
       stop-color="#c1e7fa"
       id="stop64" />
    <stop
       offset="1"
       stop-color="#89d4f5"
       id="stop65" />
  </linearGradient>
  <path
     d="m 14.525218,8.542608 -0.05565,0.111305 c 0,0 0.50087,-0.250435 1.168696,0.111305 0.612174,0.333912 0.64,0.91826 0.64,0.91826 l 0.05565,-0.111304 c 0,0 0.05565,-0.528695 -0.64,-0.918261 C 14.998262,8.264348 14.525219,8.542608 14.525219,8.542608 Z"
     fill="url(#xcode-original-A)"
     id="path65"
     style="fill:url(#xcode-original-A);stroke-width:0.278261" />
  <linearGradient
     id="xcode-original-B"
     gradientUnits="userSpaceOnUse"
     x1="63.855999"
     y1="40.029999"
     x2="70.332001"
     y2="43.768002"
     gradientTransform="matrix(0.27826087,0,0,0.27826087,-3.84,-1.5304348)">
    <stop
       offset="0"
       stop-color="#c1e7fa"
       id="stop66" />
    <stop
       offset="1"
       stop-color="#89d4f5"
       id="stop67" />
  </linearGradient>
  <path
     d="m 13.857391,9.739131 -0.05565,0.111304 c 0,0 0.556522,-0.166957 1.14087,0.166957 0.556522,0.306086 0.667825,0.834782 0.667825,0.834782 l 0.05565,-0.111305 c 0,0 -0.05565,-0.500869 -0.667826,-0.834782 -0.64,-0.361739 -1.14087,-0.166956 -1.14087,-0.166956 z"
     fill="url(#xcode-original-B)"
     id="path67"
     style="fill:url(#xcode-original-B);stroke-width:0.278261" />
  <linearGradient
     id="xcode-original-C"
     gradientUnits="userSpaceOnUse"
     x1="61.272999"
     y1="44.505001"
     x2="67.748001"
     y2="48.243"
     gradientTransform="matrix(0.27826087,0,0,0.27826087,-3.84,-1.5304348)">
    <stop
       offset="0"
       stop-color="#c1e7fa"
       id="stop68" />
    <stop
       offset="1"
       stop-color="#89d4f5"
       id="stop69" />
  </linearGradient>
  <path
     d="m 13.161739,10.907826 -0.05565,0.111304 c 0,0 0.500869,-0.02782 1.057391,0.306087 0.50087,0.278262 0.751304,0.723479 0.751304,0.723479 l 0.05565,-0.111305 c 0,0 -0.250435,-0.445217 -0.751305,-0.723478 -0.528695,-0.306087 -1.057391,-0.306087 -1.05739,-0.306087 z"
     fill="url(#xcode-original-C)"
     id="path69"
     style="fill:url(#xcode-original-C);stroke-width:0.278261" />
  <linearGradient
     id="xcode-original-D"
     gradientUnits="userSpaceOnUse"
     x1="58.761002"
     y1="48.855"
     x2="65.236"
     y2="52.594002"
     gradientTransform="matrix(0.27826087,0,0,0.27826087,-3.84,-1.5304348)">
    <stop
       offset="0"
       stop-color="#b0dff8"
       id="stop70" />
    <stop
       offset="1"
       stop-color="#52bdf2"
       id="stop71" />
  </linearGradient>
  <path
     d="m 12.493913,12.104348 -0.05565,0.111304 c 0,0 0.556522,0.08347 1.029565,0.36174 0.445218,0.250434 0.779131,0.667825 0.779131,0.667825 l 0.05565,-0.111304 c 0,0 -0.333912,-0.417391 -0.77913,-0.667826 -0.473044,-0.278261 -1.029565,-0.361739 -1.029565,-0.361739 z"
     fill="url(#xcode-original-D)"
     id="path71"
     style="fill:url(#xcode-original-D);stroke-width:0.278261" />
  <linearGradient
     id="xcode-original-E"
     gradientUnits="userSpaceOnUse"
     x1="56.25"
     y1="53.203999"
     x2="62.727001"
     y2="56.943001"
     gradientTransform="matrix(0.27826087,0,0,0.27826087,-3.84,-1.5304348)">
    <stop
       offset="0"
       stop-color="#b4def8"
       id="stop72" />
    <stop
       offset="1"
       stop-color="#4eb5f0"
       id="stop73" />
  </linearGradient>
  <path
     d="m 11.798261,13.273044 -0.05565,0.111304 c 0,0 0.528695,0.13913 1.001739,0.417391 0.445217,0.250435 0.806957,0.612174 0.806957,0.612174 l 0.05565,-0.111305 c 0,0 -0.361739,-0.361739 -0.806956,-0.612173 -0.445219,-0.250435 -1.00174,-0.417391 -1.00174,-0.417391 z"
     fill="url(#xcode-original-E)"
     id="path73"
     style="fill:url(#xcode-original-E);stroke-width:0.278261" />
  <linearGradient
     id="xcode-original-F"
     gradientUnits="userSpaceOnUse"
     x1="53.740002"
     y1="57.553001"
     x2="60.215"
     y2="61.291"
     gradientTransform="matrix(0.27826087,0,0,0.27826087,-3.84,-1.5304348)">
    <stop
       offset="0"
       stop-color="#b4def8"
       id="stop74" />
    <stop
       offset="1"
       stop-color="#4eb5f0"
       id="stop75" />
  </linearGradient>
  <path
     d="m 11.130435,14.441739 -0.08347,0.111304 c 0,0 0.50087,0.194783 0.973914,0.473044 0.445217,0.250435 0.834782,0.556522 0.834782,0.556522 l 0.05565,-0.111305 c 0,0 -0.389565,-0.306087 -0.834783,-0.556522 -0.445217,-0.250434 -0.946086,-0.473043 -0.946086,-0.473043 z"
     fill="url(#xcode-original-F)"
     id="path75"
     style="fill:url(#xcode-original-F);stroke-width:0.278261" />
  <linearGradient
     id="xcode-original-G"
     gradientUnits="userSpaceOnUse"
     x1="51.238998"
     y1="61.886002"
     x2="57.713001"
     y2="65.624001"
     gradientTransform="matrix(0.27826087,0,0,0.27826087,-3.84,-1.5304348)">
    <stop
       offset="0"
       stop-color="#b5ddf8"
       id="stop76" />
    <stop
       offset="1"
       stop-color="#46aeee"
       id="stop77" />
  </linearGradient>
  <path
     d="m 10.379131,15.749565 0.05565,-0.111304 1.808696,1.029565 -0.05565,0.111304 z"
     fill="url(#xcode-original-G)"
     id="path77"
     style="fill:url(#xcode-original-G);stroke-width:0.278261" />
  <linearGradient
     id="xcode-original-H"
     gradientUnits="userSpaceOnUse"
     x1="48.735001"
     y1="66.220001"
     x2="55.210999"
     y2="69.959"
     gradientTransform="matrix(0.27826087,0,0,0.27826087,-3.84,-1.5304348)">
    <stop
       offset="0"
       stop-color="#96cef4"
       id="stop78" />
    <stop
       offset="1"
       stop-color="#46aaee"
       id="stop79" />
  </linearGradient>
  <path
     d="m 9.711304,16.946087 0.05565,-0.111304 c 0,0 0.445217,0.333913 0.91826,0.584347 0.445218,0.250435 0.890435,0.445218 0.890435,0.445218 L 11.52,17.947822 c 0,0 -0.473044,-0.194783 -0.918261,-0.445217 C 10.128695,17.25217 9.711304,16.946083 9.711304,16.946083 Z"
     fill="url(#xcode-original-H)"
     id="path79"
     style="fill:url(#xcode-original-H);stroke-width:0.278261" />
  <path
     d="M 9.266087,18.309565 C 9.126957,18.198261 9.043479,18.114783 9.043479,18.114783 l 0.05565,-0.111305 c 0,0 0.166957,0.139131 0.389566,0.306087 z"
     fill="#73b9f1"
     id="path80"
     style="stroke-width:0.278261" />
  <linearGradient
     id="xcode-original-I"
     gradientUnits="userSpaceOnUse"
     x1="42.719002"
     y1="80.135002"
     x2="47.681"
     y2="83"
     gradientTransform="matrix(0.27826087,0,0,0.27826087,-3.84,-1.5304348)">
    <stop
       offset="0"
       stop-color="#8fc1f2"
       id="stop80" />
    <stop
       offset="1"
       stop-color="#3193ea"
       id="stop81" />
  </linearGradient>
  <path
     d="m 8.180869,20.869565 c 0.111305,0.08347 0.222609,0.166957 0.361739,0.250435 0.500871,0.278261 1.00174,0.250435 1.00174,0.250435 l -0.05565,0.111304 c 0,0 -0.50087,0.02782 -1.001739,-0.250434 C 8.292177,21.12 8.12522,20.98087 8.013916,20.869565 Z"
     fill="url(#xcode-original-I)"
     id="path81"
     style="fill:url(#xcode-original-I);stroke-width:0.278261" />
  <linearGradient
     id="xcode-original-J"
     gradientUnits="userSpaceOnUse"
     x1="38.633999"
     y1="83.717003"
     x2="45.110001"
     y2="87.456001"
     gradientTransform="matrix(0.27826087,0,0,0.27826087,-3.84,-1.5304348)">
    <stop
       offset="0"
       stop-color="#8fc1f2"
       id="stop82" />
    <stop
       offset="1"
       stop-color="#3193ea"
       id="stop83" />
  </linearGradient>
  <path
     d="m 6.984348,21.648696 0.05565,-0.111305 c 0,0 0.139131,0.556522 0.751304,0.890435 0.556523,0.306087 1.057392,0.139131 1.057392,0.139131 l -0.05565,0.111303 c 0,0 -0.445217,0.194783 -1.057392,-0.13913 -0.64,-0.361739 -0.751304,-0.890434 -0.751304,-0.890434 z"
     fill="url(#xcode-original-J)"
     id="path83"
     style="fill:url(#xcode-original-J);stroke-width:0.278261" />
  <linearGradient
     id="xcode-original-K"
     gradientUnits="userSpaceOnUse"
     x1="36.124001"
     y1="88.063004"
     x2="42.598999"
     y2="91.802002"
     gradientTransform="matrix(0.27826087,0,0,0.27826087,-3.84,-1.5304348)">
    <stop
       offset="0"
       stop-color="#8fc1f2"
       id="stop84" />
    <stop
       offset="1"
       stop-color="#3193ea"
       id="stop85" />
  </linearGradient>
  <path
     d="m 6.288696,22.845218 0.05565,-0.111305 c 0,0 0.05565,0.584348 0.723478,0.946087 0.612174,0.333913 1.085218,0.08347 1.085218,0.08347 l -0.08347,0.111305 c 0,0 -0.417392,0.306087 -1.085217,-0.08347 C 6.288703,23.40174 6.288703,22.845219 6.288703,22.845219 Z"
     fill="url(#xcode-original-K)"
     id="path85"
     style="fill:url(#xcode-original-K);stroke-width:0.278261" />
  <linearGradient
     id="xcode-original-L"
     gradientUnits="userSpaceOnUse"
     x1="76.722"
     y1="64.932999"
     x2="89.179001"
     y2="71.008003"
     gradientTransform="matrix(0.27826087,0,0,0.27826087,-3.84,-1.5304348)">
    <stop
       offset=".001"
       id="stop86" />
    <stop
       offset="1"
       stop-opacity="0"
       id="stop87" />
  </linearGradient>
  <path
     d="M 15.304348,30.246957 27.213913,5.231305 24.208695,3.8121739 11.798261,29.829566 c 0,0 0.389565,0.194781 0.890434,0.417391 z"
     fill="url(#xcode-original-L)"
     id="path87"
     style="fill:url(#xcode-original-L);stroke-width:0.278261" />
  <radialGradient
     id="xcode-original-M"
     cx="95.237"
     cy="25.132"
     r="16.181"
     fx="79.584999"
     fy="25.974001"
     gradientTransform="matrix(-0.12505043,0.24857043,-0.43010783,-0.21640348,45.380453,-12.772174)"
     gradientUnits="userSpaceOnUse">
    <stop
       offset="0"
       id="stop88" />
    <stop
       offset="1"
       stop-opacity="0"
       id="stop89" />
  </radialGradient>
  <path
     d="m 22.344348,2.3095652 5.565217,2.6434788 v 7.986087 C 25.989565,12.02087 13.133913,5.89913 13.133913,5.89913 c 0,0 0.890434,-1.8643474 1.725218,-3.5895648 z"
     fill="url(#xcode-original-M)"
     id="path89"
     style="fill:url(#xcode-original-M);stroke-width:0.278261" />
  <radialGradient
     id="xcode-original-N"
     cx="51.210999"
     cy="114.953"
     r="7.901"
     fx="51.195999"
     fy="117.292"
     gradientTransform="matrix(0.24985044,0.12249043,-0.06973217,0.14221914,5.629774,7.836383)"
     gradientUnits="userSpaceOnUse">
    <stop
       offset=".417"
       stop-color="#0c0c12"
       id="stop90" />
    <stop
       offset="1"
       stop-color="#3d4651"
       id="stop91" />
  </radialGradient>
  <path
     d="M 8.542608,29.133913 C 8.459134,29.30087 8.32,29.495652 8.347827,29.801739 8.375651,30.942609 10.24,32 11.325217,32 c 0.751304,0 1.00174,-0.306087 1.28,-0.862608 0.278261,-0.556523 -3.756521,-2.671305 -4.062609,-2.003479 z"
     fill="url(#xcode-original-N)"
     id="path91"
     style="fill:url(#xcode-original-N);stroke-width:0.278261" />
  <linearGradient
     id="xcode-original-O"
     gradientUnits="userSpaceOnUse"
     x1="84.758003"
     y1="39.174"
     x2="94.522003"
     y2="44.148998"
     gradientTransform="matrix(0.27826087,0,0,0.27826087,-3.84,-1.5304348)">
    <stop
       offset="0"
       stop-color="#344351"
       id="stop92" />
    <stop
       offset=".1"
       stop-color="#9697a0"
       id="stop93" />
    <stop
       offset=".181"
       stop-color="#8b8c95"
       id="stop94" />
    <stop
       offset=".351"
       stop-color="#787a83"
       id="stop95" />
    <stop
       offset=".47"
       stop-color="#71747d"
       id="stop96" />
    <stop
       offset=".591"
       stop-color="#777982"
       id="stop97" />
    <stop
       offset=".749"
       stop-color="#87898f"
       id="stop98" />
    <stop
       offset=".8"
       stop-color="#8e8f94"
       id="stop99" />
    <stop
       offset=".849"
       stop-color="#3d3b42"
       id="stop100" />
    <stop
       offset=".9"
       stop-color="#606e84"
       id="stop101" />
  </linearGradient>
  <path
     d="m 21.370435,5.453913 c 0,0 2.866087,0.695652 3.088695,0.890435 0.222609,0.194782 -0.361739,1.307825 -0.473043,1.474783 -0.918261,1.113043 -3.784348,7.262608 -3.784348,7.262608 L 17.55826,13.57913 c 0,0 2.365219,-4.396521 3.200001,-5.954782 0.528695,-1.057391 0.612174,-2.170435 0.612174,-2.170435 z"
     fill="url(#xcode-original-O)"
     id="path101"
     style="fill:url(#xcode-original-O);stroke-width:0.278261" />
  <linearGradient
     id="xcode-original-P"
     gradientUnits="userSpaceOnUse"
     x1="117.884"
     y1="29.257"
     x2="106.863"
     y2="14.364"
     gradientTransform="matrix(0.27826087,0,0,0.27826087,-3.84,-1.5304348)">
    <stop
       offset=".27"
       stop-color="#262b33"
       id="stop102" />
    <stop
       offset=".45"
       stop-color="#74747e"
       id="stop103" />
    <stop
       offset=".54"
       stop-color="#b0b0bc"
       id="stop104" />
    <stop
       offset=".73"
       stop-color="#74747e"
       id="stop105" />
  </linearGradient>
  <path
     d="m 27.993043,4.0069565 c 0.50087,0.3617392 1.168696,0.2782609 1.697392,0.1947827 C 30.052174,4.1460872 29.495652,4.674782 28.883478,5.89913 28.271304,7.123478 28.299131,7.206956 28.215652,7.123478 28.132182,7.040008 25.377391,5.481739 25.46087,5.342609 25.572174,5.203478 26.017392,2.1704347 26.24,2.253913 c 0.806956,0.1947827 0.946086,1.1686957 1.753043,1.7530435 z"
     fill="url(#xcode-original-P)"
     id="path105"
     style="fill:url(#xcode-original-P);stroke-width:0.278261" />
  <linearGradient
     id="xcode-original-Q"
     gradientUnits="userSpaceOnUse"
     x1="98.542"
     y1="30.424"
     x2="114.815"
     y2="28.322001"
     gradientTransform="matrix(0.27826087,0,0,0.27826087,-3.84,-1.5304348)">
    <stop
       offset=".14"
       stop-color="#606e84"
       id="stop106" />
    <stop
       offset=".4"
       stop-color="#9899a5"
       id="stop107" />
    <stop
       offset=".73"
       stop-color="#475768"
       id="stop108" />
    <stop
       offset=".92"
       stop-color="#262b33"
       id="stop109" />
  </linearGradient>
  <path
     d="m 23.707826,7.429565 c 0.194783,-0.306087 1.085218,-2.19826 2.504347,-2.19826 0.640001,0 1.864348,1.613913 1.975653,1.836521 C 28.2713,7.262609 27.993043,8.041739 27.853913,7.68 27.686957,7.262609 26.991305,6.372174 26.24,6.372174 c -0.751304,0 -1.78087,0.862608 -2.031305,1.168696 -0.250434,0.278261 -0.695652,0.194782 -0.500869,-0.111305 z"
     fill="url(#xcode-original-Q)"
     id="path109"
     style="fill:url(#xcode-original-Q);stroke-width:0.278261" />
  <linearGradient
     id="xcode-original-R"
     gradientUnits="userSpaceOnUse"
     x1="106.128"
     y1="31.808001"
     x2="104.549"
     y2="22.854"
     gradientTransform="matrix(0.27826087,0,0,0.27826087,-3.84,-1.5304348)">
    <stop
       offset="0"
       stop-color="#101215"
       stop-opacity=".1"
       id="stop110" />
    <stop
       offset=".46"
       stop-color="#101215"
       stop-opacity=".7"
       id="stop111" />
    <stop
       offset=".7"
       stop-color="#474951"
       id="stop112" />
    <stop
       offset=".91"
       stop-color="#7b7d88"
       id="stop113" />
  </linearGradient>
  <path
     d="m 23.652173,7.318261 c 0.139131,-0.222609 0.779132,-1.196522 1.085218,-1.502609 0.306088,-0.306086 1.085218,-1.113043 1.753043,-1.224348 0.667827,-0.1113037 1.363479,1.252174 1.14087,1.530435 C 27.464347,6.316522 27.186086,6.093919 26.852174,5.815652 26.518261,5.565217 26.295653,5.064348 25.238261,5.871302 24.876522,6.149562 24.514783,6.372171 23.68,7.568692 23.457392,7.87478 23.513043,7.540872 23.65218,7.318258 Z"
     fill="url(#xcode-original-R)"
     id="path113"
     style="fill:url(#xcode-original-R);stroke-width:0.278261" />
  <linearGradient
     id="xcode-original-S"
     gradientUnits="userSpaceOnUse"
     x1="58.131001"
     y1="81.721001"
     x2="73.237"
     y2="89.153999"
     gradientTransform="matrix(0.27826087,0,0,0.27826087,-3.84,-1.5304348)">
    <stop
       offset=".115"
       stop-color="#2c3952"
       id="stop114" />
    <stop
       offset=".374"
       stop-color="#3d414e"
       id="stop115" />
    <stop
       offset=".55"
       stop-color="#474a54"
       id="stop116" />
    <stop
       offset=".754"
       stop-color="#4e5057"
       id="stop117" />
    <stop
       offset=".892"
       stop-color="#323945"
       id="stop118" />
    <stop
       offset="1"
       stop-color="#143052"
       id="stop119" />
  </linearGradient>
  <path
     d="m 20.201739,15.443478 c 0.111304,-0.222608 0.250435,-0.556521 -0.05565,-0.806957 -0.333913,-0.250434 -1.892174,-1.085216 -2.170434,-1.140869 -0.278262,-0.05565 -0.500871,0 -0.612174,0.194783 -0.111305,0.194782 -8.653914,14.831304 -8.820871,15.248696 -0.166956,0.417391 -0.194782,0.723477 0.05565,0.806956 0.250435,0.08347 3.116521,1.446956 3.394782,1.753044 0.278261,0.306086 0.417392,-0.02782 0.528696,-0.194783 0.528695,-0.667827 7.54087,-15.638261 7.680001,-15.86087 z"
     fill="url(#xcode-original-S)"
     id="path119"
     style="fill:url(#xcode-original-S);stroke-width:0.278261" />
  <linearGradient
     id="xcode-original-T"
     gradientUnits="userSpaceOnUse"
     x1="81.508003"
     y1="31.679001"
     x2="93.190002"
     y2="6.0469999"
     gradientTransform="matrix(0.27826087,0,0,0.27826087,-3.84,-1.5304348)">
    <stop
       offset=".118"
       stop-color="#6d7078"
       stop-opacity="0"
       id="stop120" />
    <stop
       offset=".2"
       stop-color="#6d7078"
       stop-opacity=".7"
       id="stop121" />
    <stop
       offset=".34"
       stop-color="#35363a"
       id="stop122" />
    <stop
       offset=".374"
       stop-color="#1d1f22"
       id="stop123" />
    <stop
       offset=".4"
       stop-color="#101215"
       id="stop124" />
    <stop
       offset=".5"
       stop-color="#16171a"
       id="stop125" />
    <stop
       offset=".56"
       stop-color="#292a2e"
       id="stop126" />
    <stop
       offset=".688"
       stop-color="#4b4d51"
       id="stop127" />
    <stop
       offset=".807"
       stop-color="#63666b"
       id="stop128" />
    <stop
       offset=".915"
       stop-color="#72757b"
       id="stop129" />
    <stop
       offset="1"
       stop-color="#777a80"
       id="stop130" />
  </linearGradient>
  <path
     d="M 23.846956,7.262609 C 23.986087,7.067826 24.32,6.511304 24.737391,6.010435 25.015652,5.676522 26.518261,4.953044 26.852174,3.7843478 27.046956,3.1443478 26.740869,2.5043479 26.323478,2.2260869 24.904348,1.3634783 22.455652,0 18.866087,0 16.445217,0 15.415653,0.8069565 15.415653,0.8069565 H 16.64 l 4.257392,1.6695653 0.528695,2.2260872 c 0,0 0.05565,0.751304 -0.194782,1.613913 -0.166957,0.695652 -0.22261,1.113043 -0.473044,1.808695 0.194782,0.08347 0.64,-0.222608 1.140869,-0.08347 0.445218,0.111305 0.723479,0.723479 1.029566,0.361739 0.528696,-0.695652 0.695652,-0.834783 0.91826,-1.140869 z"
     fill="url(#xcode-original-T)"
     id="path130"
     style="fill:url(#xcode-original-T);stroke-width:0.278261" />
  <linearGradient
     id="xcode-original-U"
     gradientUnits="userSpaceOnUse"
     x1="69.064003"
     y1="16.837"
     x2="91.026001"
     y2="16.837"
     gradientTransform="matrix(0.27826087,0,0,0.27826087,-3.84,-1.5304348)">
    <stop
       offset="0"
       stop-color="#4a4d56"
       id="stop131" />
    <stop
       offset="1"
       stop-color="#29292d"
       id="stop132" />
  </linearGradient>
  <path
     d="M 21.342609,5.537391 C 21.12,3.4782609 20.619131,1.5304348 15.387826,1.5582609 c 0.333913,-0.3339131 1.14087,-0.6678261 1.14087,-0.6678261 l -1.14087,-0.083478 c 0,0 0.166957,-0.1391305 0.500869,-0.1669565 3.060871,-0.2504348 5.787827,0.3895652 5.593044,4.3686947 -0.02782,0.640001 -0.08347,0.918262 -0.13913,0.528696 z"
     fill="url(#xcode-original-U)"
     id="path132"
     style="fill:url(#xcode-original-U);stroke-width:0.278261" />
  <linearGradient
     id="xcode-original-V"
     gradientUnits="userSpaceOnUse"
     x1="69.064003"
     y1="11.697"
     x2="88.054001"
     y2="11.697"
     gradientTransform="matrix(0.27826087,0,0,0.27826087,-3.84,-1.5304348)">
    <stop
       offset="0"
       stop-color="#767880"
       id="stop133" />
    <stop
       offset=".41"
       stop-color="#0c0a0b"
       id="stop134" />
  </linearGradient>
  <path
     d="m 15.387826,1.5582609 c 0.361739,-0.1391305 0.862609,-0.2226087 1.808695,-0.1669565 1.168696,0.055652 2.643479,0.5008695 3.255653,1.0573913 0.306087,0.2782609 0.27826,0.055652 -0.05565,-0.306087 -0.862608,-1.0017391 -2.170434,-1.2243478 -3.867825,-1.2521739 -0.194783,-0.027826 -0.834783,0.333913 -1.14087,0.6678261 z"
     fill="url(#xcode-original-V)"
     id="path134"
     style="fill:url(#xcode-original-V);stroke-width:0.278261" />
  <linearGradient
     id="xcode-original-W"
     gradientUnits="userSpaceOnUse"
     x1="116.332"
     y1="34.756001"
     x2="123.707"
     y2="21.982"
     gradientTransform="matrix(0.27826087,0,0,0.27826087,-3.84,-1.5304348)">
    <stop
       offset="0"
       stop-color="#858997"
       id="stop135" />
    <stop
       offset=".23"
       stop-color="#244668"
       id="stop136" />
    <stop
       offset=".282"
       stop-color="#1a3249"
       id="stop137" />
    <stop
       offset=".4"
       stop-color="#040506"
       id="stop138" />
    <stop
       offset=".464"
       stop-color="#313236"
       id="stop139" />
    <stop
       offset=".546"
       stop-color="#65656e"
       id="stop140" />
    <stop
       offset=".607"
       stop-color="#868691"
       id="stop141" />
    <stop
       offset=".64"
       stop-color="#92929e"
       id="stop142" />
  </linearGradient>
  <path
     d="M 29.746087,4.2017392 31.276522,4.98087 c 0,0 -0.584348,0.77913 -1.057392,1.669565 -0.500869,0.946087 -0.834782,1.975652 -0.834782,1.975652 L 27.909565,7.735652 c 0,0 0.361739,-1.001739 0.890435,-1.975652 0.417391,-0.806956 0.946087,-1.5582608 0.946087,-1.5582608 z"
     fill="url(#xcode-original-W)"
     id="path142"
     style="fill:url(#xcode-original-W);stroke-width:0.278261" />
  <path
     d="m 31.276522,4.98087 c 0.111304,0.05565 -0.250435,0.91826 -0.779131,1.92 -0.528695,1.001739 -1.029565,1.780869 -1.113043,1.725217 -0.111304,-0.05565 0.250435,-0.918261 0.77913,-1.92 0.50087,-1.00174 1.001739,-1.78087 1.113044,-1.725217 z"
     fill="#bfc0d0"
     id="path143"
     style="stroke-width:0.278261" />
</svg>
