<?xml version="1.0" encoding="UTF-8" standalone="no"?>
<svg
   version="1.1"
   viewBox="0 0 281.91962 40.036438"
   fill="none"
   stroke="none"
   stroke-linecap="square"
   stroke-miterlimit="10"
   id="svg5"
   sodipodi:docname="eurekastep2.svg"
   xml:space="preserve"
   width="281.91962"
   height="40.036438"
   inkscape:version="1.4 (e7c3feb1, 2024-10-09)"
   xmlns:inkscape="http://www.inkscape.org/namespaces/inkscape"
   xmlns:sodipodi="http://sodipodi.sourceforge.net/DTD/sodipodi-0.dtd"
   xmlns="http://www.w3.org/2000/svg"
   xmlns:svg="http://www.w3.org/2000/svg"><defs
     id="defs5"><linearGradient
       id="swatch9"
       inkscape:swatch="solid"><stop
         style="stop-color:#000000;stop-opacity:1;"
         offset="0"
         id="stop9" /></linearGradient><clipPath
       id="clipPath2458"><path
         d="M 0,0 H 595.276 V 841.89 H 0 Z"
         id="path2460" /></clipPath><clipPath
       id="clipPath2466"><path
         d="M 431.68,746.748 H 559.843 V 812.89 H 431.68 Z"
         id="path2468" /></clipPath><clipPath
       id="clipPath2476"><path
         d="m 434.91,748.318 h 115.935 v 59.856 H 434.91 Z"
         id="path2478" /></clipPath><clipPath
       id="clipPath2496"><path
         d="M 0,-9.921 H 609.449 V 485.843 H 0 Z"
         id="path2498" /></clipPath><clipPath
       id="clipPath2504"><path
         d="m -23.798,-9.696 c 0,0 1.429,0.677 1.805,0.828 0.376,0.15 1.203,0.601 1.203,0.601 0,0 1.128,1.354 2.03,1.73 0.902,0.376 3.309,1.278 3.459,1.654 0.15,0.376 1.955,1.353 2.632,1.729 0.677,0.376 2.481,1.279 2.481,1.279 0,0 0.903,1.128 1.805,1.579 0.902,0.451 2.707,1.654 2.707,1.654 0,0 1.504,1.354 2.406,1.805 0.903,0.451 1.805,0.902 1.805,0.902 0,0 2.105,1.73 2.932,2.256 0.828,0.526 2.482,1.128 2.482,1.128 0,0 1.429,1.579 2.181,1.955 0.752,0.376 1.879,0.978 1.879,0.978 0,0 1.053,0.752 1.354,0.902 0.301,0.15 1.128,0.827 1.504,1.203 0.376,0.376 1.353,0.827 1.353,0.827 0,0 0.978,0.677 1.429,0.903 0.451,0.225 1.203,0.752 1.203,0.752 0,0 0.677,0.902 1.504,1.428 0.827,0.527 1.579,0.978 1.579,0.978 0,0 1.579,0.977 1.88,1.128 0.301,0.15 0.677,0.752 1.354,1.128 0.676,0.376 1.729,0.827 1.729,0.827 0,0 0.827,0.827 1.504,1.278 0.677,0.451 1.128,0.752 1.128,0.752 0,0 0.752,0.827 1.278,1.128 0.527,0.301 0.978,0.526 0.978,0.526 0,0 0.977,0.827 1.504,1.128 0.526,0.301 1.203,0.677 1.203,0.677 0,0 0.376,0.526 1.203,1.053 0.827,0.526 1.203,0.677 1.203,0.677 0,0 0.827,1.127 1.805,1.729 0.977,0.602 1.428,0.827 1.428,0.827 0,0 0.828,0.827 1.504,1.203 0.677,0.376 1.279,0.602 1.279,0.602 0,0 1.804,1.504 2.255,1.88 0.452,0.376 0.903,1.053 1.504,1.353 0.602,0.301 1.354,0.602 1.354,0.602 0,0 1.128,0.977 1.805,1.429 0.676,0.451 0.977,0.676 0.977,0.676 0,0 1.128,1.053 1.805,1.429 0.677,0.376 1.654,0.978 1.654,0.978 0,0 0.226,0.752 0.827,0.977 0.602,0.226 0.677,0.301 0.677,0.301 0,0 1.278,1.353 2.105,1.88 0.828,0.526 2.106,1.429 2.106,1.429 0,0 0.827,0.676 1.128,0.902 0.301,0.225 0.752,0.601 0.752,0.601 0,0 0.451,0.903 2.03,2.031 1.579,1.128 2.632,1.729 2.632,1.729 0,0 1.729,1.88 2.481,2.707 0.752,0.827 1.579,1.579 2.482,2.181 0.902,0.601 1.729,0.977 1.729,0.977 0,0 1.579,2.106 2.858,3.234 1.278,1.128 2.932,1.654 2.932,1.654 0,0 1.73,2.331 2.782,3.083 1.053,0.752 3.008,1.579 3.008,1.579 0,0 1.579,2.106 2.557,2.858 0.977,0.752 2.932,1.804 2.932,1.804 0,0 2.031,2.557 3.083,3.384 1.053,0.827 2.933,1.655 2.933,1.655 0,0 1.654,1.804 2.482,2.556 0.827,0.752 2.556,1.579 2.556,1.579 0,0 1.579,1.955 2.632,2.858 1.053,0.902 3.008,2.03 3.008,2.03 0,0 1.278,2.181 2.481,3.158 1.203,0.978 3.158,1.88 3.158,1.88 0,0 1.354,2.256 2.858,3.534 1.504,1.279 3.459,2.031 3.459,2.031 0,0 1.278,2.481 2.481,3.534 1.203,1.053 3.76,2.256 3.76,2.256 0,0 1.278,2.631 2.933,3.985 1.654,1.354 3.083,1.955 3.083,1.955 0,0 1.353,2.707 2.782,3.835 1.428,1.128 3.233,2.331 3.233,2.331 0,0 1.73,3.234 3.158,4.361 1.429,1.128 3.61,2.106 3.61,2.106 0,0 1.654,3.309 3.083,4.286 1.428,0.978 3.308,1.88 3.308,1.88 0,0 1.053,2.857 2.858,4.361 1.804,1.504 3.383,2.106 3.383,2.106 0,0 1.58,3.684 2.933,4.662 1.354,0.977 3.76,2.105 3.76,2.105 0,0 1.128,2.933 2.707,4.136 1.579,1.203 3.76,2.331 3.76,2.331 0,0 0.902,3.309 2.782,4.738 1.88,1.428 4.06,2.406 4.06,2.406 0,0 0.752,2.857 2.632,4.512 1.88,1.654 4.286,2.782 4.286,2.782 0,0 0.677,2.857 2.858,4.812 2.18,1.955 3.985,2.858 3.985,2.858 0,0 0.752,3.008 3.609,5.188 2.858,2.181 3.76,2.632 3.76,2.632 0,0 0.902,3.384 3.008,5.113 2.105,1.73 4.211,3.008 4.211,3.008 0,0 0.526,3.234 2.932,5.113 2.407,1.88 3.835,2.858 3.835,2.858 0,0 1.354,4.06 3.234,5.489 1.88,1.429 3.91,2.782 3.91,2.782 0,0 1.654,4.211 3.609,5.941 1.955,1.729 4.061,2.557 4.061,2.557 0,0 0.526,3.308 2.406,5.263 1.88,1.955 3.459,2.933 3.459,2.933 0,0 1.354,3.384 3.459,5.414 2.105,2.03 4.211,3.609 4.211,3.609 0,0 0.601,3.685 3.158,5.715 2.557,2.03 4.286,3.234 4.286,3.234 0,0 1.429,4.135 3.76,6.166 2.331,2.03 3.91,3.383 3.91,3.383 0,0 0.902,3.234 3.534,5.715 2.632,2.482 4.662,3.76 4.662,3.76 0,0 0.602,3.534 3.459,5.94 2.858,2.407 3.234,2.256 3.234,2.256 l 2.105,1.579 c 0,0 0.226,2.482 3.083,5.039 2.858,2.556 3.309,2.406 3.309,2.406 0,0 1.278,1.053 1.804,1.429 0.527,0.375 0.903,0.676 0.903,0.676 0,0 0.601,2.632 2.782,4.813 2.181,2.18 3.835,2.782 3.835,2.782 0,0 1.203,0.978 1.579,1.203 0.376,0.226 0.978,0.677 0.978,0.677 0,0 1.127,3.309 3.308,5.113 2.181,1.805 4.286,2.632 4.286,2.632 l 2.031,1.203 c 0,0 0.751,2.707 3.308,4.888 2.557,2.181 5.038,3.083 5.038,3.083 l 2.557,1.729 c 0,0 0.827,2.933 3.835,4.738 3.008,1.804 4.887,2.707 4.887,2.707 l 1.88,1.128 c 0,0 1.354,3.008 4.136,4.887 2.782,1.88 4.888,2.256 4.888,2.256 l 2.03,1.354 c 0,0 0.902,2.707 4.286,4.888 3.384,2.18 6.091,2.782 6.091,2.782 l 1.805,0.977 c 0,0 1.503,3.234 4.286,4.662 2.782,1.429 5.94,2.031 5.94,2.031 l 2.331,1.579 c 0,0 1.955,2.932 5.038,4.587 3.083,1.654 5.79,2.03 5.79,2.03 0,0 0.978,0.902 1.805,1.278 0.827,0.376 1.053,0.677 1.053,0.677 0,0 2.18,3.234 5.188,4.437 3.008,1.203 5.715,1.278 5.715,1.278 l 1.955,0.978 c 0,0 1.504,2.932 5.414,4.662 3.91,1.729 5.94,1.278 5.94,1.278 l 2.331,1.354 c 0,0 2.858,3.233 6.016,4.361 3.158,1.128 6.016,0.752 6.016,0.752 0,0 0.977,0.752 1.428,1.053 0.452,0.3 1.128,0.601 1.128,0.601 0,0 3.309,2.858 6.317,4.061 3.007,1.203 6.015,0.752 6.015,0.752 l 1.579,1.128 c 0,0 2.482,3.083 5.941,4.361 3.459,1.278 6.993,1.053 6.993,1.053 0,0 0.902,0.676 1.805,1.052 0.902,0.376 1.203,0.602 1.203,0.602 0,0 2.857,2.782 5.94,3.76 3.083,0.977 6.843,0.3 6.843,0.3 l 1.429,0.452 c 0,0 2.631,3.233 6.842,4.135 4.211,0.903 7.896,0.602 7.896,0.602 l 1.504,0.752 c 0,0 2.18,2.632 7.519,3.76 5.339,1.128 7.294,0.225 7.294,0.225 l 2.482,0.903 c 0,0 3.083,2.03 6.241,2.556 3.158,0.527 5.94,0.075 5.94,0.075 0,0 0.903,0.376 2.03,0.752 1.128,0.376 1.805,0.677 1.805,0.677 0,0 3.406,1.839 6.016,2.406 3.459,0.752 7.67,-0.526 7.67,-0.526 0,0 1.127,0.602 1.654,0.978 0.526,0.376 3.261,2.107 7.219,2.707 4.962,0.752 7.82,-0.752 7.82,-0.752 0,0 3.835,3.008 8.798,3.384 4.963,0.376 7.669,-0.903 7.669,-0.903 0,0 5.415,3.083 9.55,2.858 4.136,-0.226 6.993,-1.279 6.993,-1.279 0,0 1.354,0.226 1.88,0.376 0.527,0.151 4.211,1.805 7.896,1.88 3.684,0.075 7.519,-1.278 8.196,-1.278 0.677,0 3.91,1.729 7.595,1.504 3.684,-0.226 7.444,-1.955 8.196,-1.955 0.752,0 1.429,1.128 3.008,1.428 1.579,0.301 1.181,0.532 1.181,0.532 l 0.623,-416.567 z"
         id="path2506" /></clipPath><clipPath
       id="clipPath2512"><path
         d="m -1.096,-0.929 h 597.36 V 485.843 H -1.096 Z"
         id="path2514" /></clipPath><style
       id="style10">.cls-1{fill:#006bac;}</style><clipPath
       id="clipPath4568"
       clipPathUnits="userSpaceOnUse"><path
         id="path4566"
         d="M 0,0 H 595.276 V 841.89 H 0 Z" /></clipPath><clipPath
       id="clipPath4542"
       clipPathUnits="userSpaceOnUse"><path
         id="path4540"
         d="M 0,0 H 595.276 V 841.89 H 0 Z" /></clipPath><clipPath
       id="clipPath4510"
       clipPathUnits="userSpaceOnUse"><path
         id="path4508"
         d="M 0,0 H 595.276 V 841.89 H 0 Z" /></clipPath><clipPath
       id="clipPath4568-5"
       clipPathUnits="userSpaceOnUse"><path
         id="path4566-5"
         d="M 0,0 H 595.276 V 841.89 H 0 Z" /></clipPath><clipPath
       id="clipPath4542-4"
       clipPathUnits="userSpaceOnUse"><path
         id="path4540-1"
         d="M 0,0 H 595.276 V 841.89 H 0 Z" /></clipPath><clipPath
       id="clipPath4510-8"
       clipPathUnits="userSpaceOnUse"><path
         id="path4508-8"
         d="M 0,0 H 595.276 V 841.89 H 0 Z" /></clipPath><style
       id="style1">.cls-1{fill:#222e53;}</style><clipPath
       id="clipPath2896"><path
         d="m 429.756,716.501 h 186.52 V 820.37 h -186.52 z"
         id="path2898" /></clipPath><clipPath
       id="clipPath2912"><path
         d="m 429.756,716.501 h 186.52 V 820.37 h -186.52 z"
         id="path2914" /></clipPath><clipPath
       id="clipPath2928"><path
         d="m 429.756,716.501 h 186.52 V 820.37 h -186.52 z"
         id="path2930" /></clipPath><clipPath
       id="clipPath2946"><path
         d="m 429.756,716.501 h 186.52 V 820.37 h -186.52 z"
         id="path2948" /></clipPath><clipPath
       clipPathUnits="userSpaceOnUse"
       id="clipPath838"><path
         d="M 0,0 H 595.276 V 841.89 H 0 Z"
         id="path836" /></clipPath><clipPath
       clipPathUnits="userSpaceOnUse"
       id="clipPath854"><path
         d="M 0,0 H 595.276 V 841.89 H 0 Z"
         id="path852" /></clipPath><clipPath
       clipPathUnits="userSpaceOnUse"
       id="clipPath872"><path
         d="M 0,0 H 595.276 V 841.89 H 0 Z"
         id="path870" /></clipPath></defs><sodipodi:namedview
     id="namedview5"
     pagecolor="#ffffff"
     bordercolor="#000000"
     borderopacity="0.25"
     inkscape:showpageshadow="2"
     inkscape:pageopacity="0.0"
     inkscape:pagecheckerboard="0"
     inkscape:deskcolor="#d1d1d1"
     showguides="true"
     inkscape:zoom="73.431729"
     inkscape:cx="168.44898"
     inkscape:cy="38.791133"
     inkscape:window-width="1800"
     inkscape:window-height="1098"
     inkscape:window-x="0"
     inkscape:window-y="-116"
     inkscape:window-maximized="0"
     inkscape:current-layer="svg5"><sodipodi:guide
       position="0.25599821,99.945759"
       orientation="1,0"
       id="guide6"
       inkscape:locked="false" /><sodipodi:guide
       position="3.6365791,100.20918"
       orientation="0,-1"
       id="guide7"
       inkscape:locked="false" /><sodipodi:guide
       position="334.75792,61.222738"
       orientation="0,-1"
       id="guide8"
       inkscape:locked="false" /><sodipodi:guide
       position="334.75792,71.759615"
       orientation="1,0"
       id="guide9"
       inkscape:locked="false" /></sodipodi:namedview><clipPath
     id="p.0"><path
       d="M 0,0 H 364.09973 V 100 H 0 Z"
       clip-rule="nonzero"
       id="path1" /></clipPath><rect
     style="fill:#ffffff;fill-opacity:1;stroke:#000000;stroke-width:1.00189;stroke-linecap:butt;stroke-linejoin:bevel;stroke-dasharray:none;stroke-opacity:0.2"
     id="rect11"
     width="76.748741"
     height="39.023628"
     x="0.50094497"
     y="0.50636882" /><style
     type="text/css"
     id="style1-2">
  .st0{fill:#FF6600;}
	.st1{fill:#FFFFFF;}
 </style><rect
     class="st0"
     width="76.289307"
     height="38.019585"
     id="rect1-7"
     x="86.275803"
     y="0.99860859"
     style="display:inline;fill:#005eb8;fill-opacity:1;stroke:#000000;stroke-width:1.98872;stroke-linecap:butt;stroke-linejoin:bevel;stroke-dasharray:none;stroke-opacity:0.2;paint-order:markers stroke fill">
 </rect><g
     id="g15"
     transform="matrix(0.56836974,0,0,0.56836974,4.2401454,2.3418069)"><polyline
       fill="none"
       points="121.859,0 0.051,0 0.051,61.179 121.859,61.179 121.859,0 "
       id="polyline1" /><path
       fill="#006bb6"
       d="M 38.855,5.653 C 39.903,5.881 39.538,7.521 38.49,7.294 36.621,6.883 34.798,6.519 32.883,6.245 31.789,6.108 32.063,4.467 33.157,4.603 c 1.914,0.275 3.829,0.639 5.698,1.05 M 34.935,2.918 C 36.029,3.1 35.756,4.741 34.662,4.559 33.249,4.331 31.836,4.148 30.377,3.966 29.283,3.829 29.465,2.188 30.559,2.325 32.018,2.507 33.43,2.69 34.935,2.918 Z M 8.815,27.259 c 1.094,-0.227 1.458,1.414 0.364,1.643 C 6.763,29.403 4.347,30.087 2.068,30.907 1.02,31.271 0.473,29.721 1.521,29.356 3.893,28.536 6.309,27.852 8.815,27.259 Z M 23.539,25.71 c 2.006,0 3.966,0.091 5.926,0.228 1.094,0.092 1.003,1.732 -0.091,1.642 -1.96,-0.137 -3.92,-0.229 -5.835,-0.229 -3.282,0 -6.564,0.229 -9.755,0.729 -1.094,0.182 -1.367,-1.459 -0.273,-1.642 3.281,-0.5 6.655,-0.728 10.028,-0.728 z m 0,19.783 c 1.277,0 2.599,0 3.921,0.091 1.094,0.092 1.002,1.733 -0.092,1.641 -1.23,-0.091 -2.552,-0.091 -3.829,-0.091 -1.23,0 -2.461,0 -3.646,0.091 -1.094,0.093 -1.186,-1.549 -0.092,-1.641 1.276,-0.091 2.508,-0.091 3.738,-0.091 z m 0,-2.005 c 0.866,0 1.733,0.045 2.507,0.045 1.095,0 1.095,1.641 0,1.641 -0.866,0 -1.732,-0.046 -2.507,-0.046 -2.735,0 -5.515,0.183 -8.159,0.502 -1.094,0.137 -1.277,-1.504 -0.183,-1.641 2.734,-0.319 5.515,-0.501 8.342,-0.501 z m 8.479,0.547 c 1.094,0.227 0.821,1.868 -0.273,1.641 -0.73,-0.137 -1.459,-0.183 -2.325,-0.273 -1.094,-0.138 -0.912,-1.778 0.182,-1.642 0.774,0.091 1.595,0.136 2.416,0.274 z m -9.619,-2.508 c 1.094,0 1.094,1.641 0,1.641 -3.419,0.046 -6.792,0.365 -10.074,0.958 -1.094,0.182 -1.368,-1.459 -0.274,-1.641 3.373,-0.593 6.838,-0.912 10.348,-0.958 z m 12.764,0.958 c 1.094,0.182 0.821,1.822 -0.273,1.641 -3.145,-0.547 -6.336,-0.866 -9.618,-0.958 -1.095,-0.045 -1.095,-1.686 0,-1.641 3.373,0.092 6.654,0.411 9.891,0.958 z M 12.051,40.479 c 1.094,-0.228 1.368,1.413 0.274,1.642 -0.73,0.137 -1.505,0.318 -2.325,0.456 -1.094,0.228 -1.368,-1.413 -0.274,-1.642 0.731,-0.137 1.505,-0.319 2.325,-0.456 z m 11.488,-0.912 c 2.325,0 4.65,0.091 6.975,0.318 1.094,0.092 0.911,1.733 -0.183,1.642 -2.233,-0.229 -4.467,-0.319 -6.792,-0.319 -2.917,0 -5.743,0.183 -8.57,0.547 -1.094,0.137 -1.276,-1.504 -0.182,-1.641 2.825,-0.364 5.743,-0.547 8.752,-0.547 z m -0.365,-2.005 c 1.094,0 1.094,1.641 0,1.641 C 17.977,39.249 13.008,39.842 8.176,40.98 7.128,41.254 6.763,39.705 7.812,39.431 12.735,38.2 17.886,37.607 23.174,37.562 Z m 10.894,0.82 c 1.094,0.182 0.821,1.823 -0.273,1.641 -1.641,-0.272 -3.373,-0.455 -5.06,-0.592 -1.094,-0.092 -1.003,-1.732 0.091,-1.642 1.778,0.137 3.51,0.32 5.242,0.593 z m 5.288,1.003 c 1.049,0.273 0.684,1.914 -0.365,1.642 -0.729,-0.183 -1.504,-0.319 -2.324,-0.501 -1.049,-0.274 -0.684,-1.915 0.364,-1.642 0.73,0.182 1.505,0.318 2.325,0.501 z M 23.539,35.601 c 0.73,0 1.505,0 2.28,0.046 1.094,0.092 1.002,1.732 -0.092,1.642 -0.683,-0.046 -1.458,-0.046 -2.188,-0.046 -5.88,0 -11.487,0.729 -16.82,2.143 -1.049,0.273 -1.505,-1.275 -0.456,-1.55 5.515,-1.505 11.304,-2.235 17.276,-2.235 z m -3.055,-1.914 c 1.094,-0.046 1.185,1.596 0.091,1.642 -4.74,0.182 -9.344,0.912 -13.766,2.006 -1.049,0.273 -1.413,-1.277 -0.365,-1.55 4.514,-1.186 9.208,-1.916 14.04,-2.098 z m 9.346,0.228 c 1.094,0.137 0.912,1.778 -0.182,1.641 -0.867,-0.091 -1.732,-0.183 -2.644,-0.228 -1.094,-0.046 -1.003,-1.688 0.091,-1.642 0.911,0.046 1.868,0.138 2.735,0.229 z m 12.443,2.325 c 1.049,0.318 0.593,1.869 -0.455,1.549 -1.687,-0.501 -3.465,-0.866 -5.243,-1.23 -1.094,-0.228 -0.729,-1.868 0.365,-1.641 1.778,0.364 3.557,0.82 5.333,1.322 z M 23.539,31.636 c 3.556,0 7.066,0.273 10.485,0.82 1.094,0.182 0.82,1.824 -0.274,1.641 -3.327,-0.547 -6.746,-0.819 -10.211,-0.819 -6.701,0 -13.128,1.003 -19.236,2.825 -1.049,0.319 -1.505,-1.23 -0.456,-1.55 6.198,-1.915 12.808,-2.917 19.692,-2.917 z M 8.176,31.362 C 9.27,31.133 9.635,32.775 8.541,33.003 6.809,33.368 5.077,33.869 3.436,34.416 2.387,34.735 1.84,33.185 2.889,32.866 4.622,32.32 6.354,31.818 8.176,31.362 Z m 15.363,-1.686 c 0.775,0 1.55,0 2.416,0.045 1.094,0.046 1.003,1.688 -0.091,1.642 -0.775,-0.046 -1.55,-0.046 -2.325,-0.046 -3.92,0 -7.749,0.319 -11.487,1.004 -1.094,0.182 -1.367,-1.459 -0.273,-1.643 3.828,-0.683 7.748,-1.002 11.76,-1.002 z m 9.891,0.683 c 1.094,0.137 0.912,1.777 -0.182,1.641 -1.322,-0.182 -2.599,-0.319 -3.92,-0.456 -1.095,-0.091 -0.912,-1.732 0.182,-1.641 1.323,0.137 2.598,0.274 3.92,0.456 z M 41.134,32 c 1.048,0.274 0.592,1.824 -0.456,1.55 -0.821,-0.228 -1.687,-0.41 -2.598,-0.684 -1.094,-0.229 -0.73,-1.777 0.364,-1.55 0.912,0.183 1.778,0.365 2.69,0.684 z M 23.539,27.67 c 4.194,0 8.297,0.41 12.308,1.094 1.094,0.183 0.821,1.823 -0.274,1.642 -3.92,-0.685 -7.931,-1.095 -12.034,-1.095 -7.293,0 -14.313,1.186 -20.877,3.373 C 1.613,33.049 1.066,31.499 2.115,31.134 8.86,28.854 16.063,27.67 23.539,27.67 Z m 21.562,3.51 c 1.048,0.364 0.501,1.914 -0.547,1.55 -1.14,-0.409 -2.416,-0.774 -3.647,-1.14 -1.049,-0.319 -0.593,-1.869 0.456,-1.55 1.23,0.365 2.506,0.729 3.738,1.14 z M 19.39,23.841 c 1.094,-0.046 1.185,1.595 0.091,1.642 C 14.285,25.801 9.179,26.758 4.347,28.171 3.299,28.49 2.843,26.941 3.892,26.621 8.815,25.117 14.011,24.16 19.39,23.841 Z m 20.969,2.006 c 1.048,0.273 0.684,1.823 -0.365,1.549 -5.242,-1.275 -10.712,-2.006 -16.319,-2.006 -1.094,0 -1.094,-1.64 0,-1.64 5.789,0 11.35,0.729 16.684,2.097 z m 5.789,1.732 c 1.003,0.41 0.456,1.96 -0.547,1.549 -0.684,-0.273 -1.459,-0.501 -2.279,-0.774 -1.049,-0.41 -0.502,-1.961 0.547,-1.55 0.729,0.273 1.505,0.501 2.279,0.775 z M 23.539,21.744 c 1.14,0 2.325,0.045 3.465,0.091 1.094,0.046 1.003,1.687 -0.091,1.641 -1.14,-0.046 -2.234,-0.091 -3.374,-0.091 -7.84,0 -15.316,1.367 -22.245,3.829 -1.048,0.365 -1.595,-1.185 -0.547,-1.55 7.11,-2.553 14.77,-3.92 22.792,-3.92 z m 11.396,0.957 c 1.094,0.182 0.821,1.823 -0.273,1.641 -1.003,-0.182 -1.96,-0.319 -2.963,-0.456 -1.094,-0.136 -0.912,-1.777 0.182,-1.641 1.002,0.137 2.05,0.274 3.054,0.456 z M 23.539,19.784 c 1.094,0 1.094,1.641 0,1.641 -7.886,0 -15.407,1.367 -22.427,3.874 C 0.063,25.664 -0.484,24.114 0.565,23.75 7.767,21.151 15.47,19.784 23.539,19.784 Z m 15.544,1.823 c 1.048,0.228 0.683,1.777 -0.365,1.55 -3.738,-0.866 -7.658,-1.413 -11.67,-1.642 -1.094,-0.046 -1.003,-1.687 0.092,-1.641 4.102,0.229 8.113,0.776 11.943,1.733 z M 10.82,18.963 c 1.094,-0.228 1.368,1.413 0.274,1.641 -3.419,0.685 -6.747,1.551 -9.938,2.69 -1.048,0.364 -1.595,-1.186 -0.547,-1.55 3.284,-1.14 6.702,-2.098 10.211,-2.781 z m 12.719,-1.185 c 3.966,0 7.886,0.364 11.715,1.003 1.095,0.182 0.821,1.822 -0.273,1.641 -3.738,-0.638 -7.567,-1.003 -11.442,-1.003 -2.507,0 -4.968,0.182 -7.476,0.456 -1.094,0.137 -1.276,-1.504 -0.182,-1.641 2.506,-0.274 5.059,-0.456 7.658,-0.456 z M 6.171,18.051 c 1.048,-0.272 1.504,1.277 0.456,1.55 -1.824,0.502 -3.556,1.05 -5.334,1.688 C 0.245,21.654 -0.302,20.103 0.746,19.739 2.524,19.1 4.347,18.553 6.171,18.051 Z M 22.9,15.818 c 1.094,0 1.094,1.641 0,1.641 -3.875,0 -9.071,0.592 -13.037,1.413 C 8.77,19.1 8.404,17.459 9.499,17.23 13.647,16.41 18.843,15.818 22.9,15.818 Z M 14.421,14.45 c 1.095,-0.137 1.277,1.505 0.183,1.641 C 10.182,16.684 5.852,17.687 1.703,19.146 0.655,19.51 0.108,17.96 1.156,17.596 5.396,16.137 9.817,15.043 14.421,14.45 Z m 6.884,-0.592 c 1.094,-0.047 1.185,1.595 0.091,1.641 -1.368,0.045 -2.69,0.137 -3.966,0.272 -1.094,0.092 -1.276,-1.55 -0.182,-1.641 1.367,-0.135 2.69,-0.227 4.057,-0.272 z m 12.353,0.729 c 1.094,0.137 0.912,1.778 -0.182,1.641 -1.961,-0.272 -3.966,-0.501 -5.926,-0.638 -1.094,-0.091 -1.003,-1.731 0.091,-1.641 2.051,0.137 4.057,0.364 6.017,0.638 z m 12.445,3.1 c 1.049,0.364 0.502,1.914 -0.547,1.551 -1.139,-0.411 -2.279,-0.775 -3.464,-1.141 -1.048,-0.318 -0.593,-1.869 0.456,-1.55 1.184,0.365 2.415,0.73 3.555,1.14 z M 23.539,11.852 c 2.006,0 3.966,0.092 5.972,0.274 1.094,0.091 0.912,1.732 -0.182,1.641 -1.915,-0.183 -3.875,-0.273 -5.79,-0.273 -7.43,0 -14.541,1.23 -21.151,3.465 -1.048,0.364 -1.595,-1.187 -0.547,-1.55 6.791,-2.326 14.085,-3.557 21.698,-3.557 z m 14.542,1.55 c 1.048,0.228 0.684,1.868 -0.365,1.641 -1.413,-0.319 -2.872,-0.593 -4.376,-0.821 -1.094,-0.182 -0.821,-1.822 0.273,-1.641 1.504,0.228 2.962,0.502 4.468,0.821 z M 23.539,9.892 c 0.456,0 0.912,0 1.368,0 1.094,0 1.094,1.642 0,1.642 -0.456,0 -0.912,0 -1.368,0 -7.065,0 -13.857,1.094 -20.239,3.145 C 2.252,15.044 1.704,13.494 2.753,13.129 9.316,10.986 16.291,9.892 23.539,9.892 Z M 17.795,8.16 C 18.889,8.069 18.98,9.71 17.886,9.801 13.327,10.165 8.815,11.032 4.53,12.308 3.481,12.627 3.025,11.078 4.074,10.758 8.45,9.391 13.054,8.524 17.795,8.16 Z m 5.744,-0.228 c 0.821,0 1.687,0 2.553,0.045 C 27.186,8.022 27.094,9.664 26,9.618 25.225,9.573 24.359,9.573 23.538,9.573 c -1.003,0 -2.005,0 -2.963,0.045 C 19.481,9.664 19.39,8.022 20.484,7.976 21.533,7.932 22.535,7.932 23.539,7.932 Z m 13.173,1.231 c 1.094,0.182 0.821,1.823 -0.273,1.641 -2.006,-0.365 -4.057,-0.684 -6.154,-0.912 -1.094,-0.137 -0.912,-1.777 0.182,-1.641 2.097,0.228 4.24,0.547 6.245,0.912 z m 6.519,1.641 c 1.048,0.273 0.592,1.823 -0.456,1.55 -0.684,-0.183 -1.413,-0.41 -2.097,-0.593 -1.049,-0.273 -0.593,-1.823 0.456,-1.55 0.684,0.182 1.413,0.41 2.097,0.593 z M 19.938,6.017 C 21.032,5.972 21.123,7.614 20.029,7.659 15.334,7.932 10.73,8.662 6.354,9.802 5.306,10.075 4.85,8.526 5.898,8.252 10.457,7.02 15.151,6.291 19.938,6.017 Z M 31.515,6.382 C 32.61,6.519 32.427,8.16 31.333,8.023 30.513,7.932 29.692,7.841 28.917,7.795 27.823,7.749 27.915,6.108 29.008,6.154 29.875,6.2 30.695,6.291 31.515,6.382 Z M 12.279,4.878 C 13.373,4.695 13.647,6.336 12.553,6.519 11.276,6.747 10,6.975 8.77,7.248 7.675,7.476 7.311,5.835 8.404,5.607 9.727,5.333 11.003,5.105 12.279,4.878 Z m 11.26,-0.912 c 0.547,0 1.094,0 1.641,0 1.094,0 1.094,1.642 0,1.642 -0.547,0 -1.094,0 -1.641,0 -2.735,0 -5.424,0.137 -8.022,0.455 C 14.422,6.201 14.24,4.559 15.334,4.422 18.023,4.103 20.712,3.966 23.539,3.966 Z m -1.185,-1.96 c 1.094,0 1.094,1.641 0,1.641 C 18.981,3.693 15.653,4.011 12.371,4.559 11.277,4.742 11.004,3.1 12.098,2.918 15.47,2.371 18.889,2.051 22.354,2.006 Z M 23.539,0 c 1.733,0 3.51,0.046 5.197,0.182 1.094,0.093 1.003,1.733 -0.091,1.643 -1.687,-0.138 -3.373,-0.184 -5.106,-0.184 -1.686,0 -3.282,0.046 -4.923,0.184 C 17.522,1.916 17.431,0.275 18.525,0.182 20.166,0.046 21.853,0 23.539,0 Z"
       id="path1-2" /><path
       fill="#221f1f"
       d="m 8.544,54.756 c -1.282,0 -2.311,0.881 -2.311,2.213 0,1.341 1.009,2.193 2.311,2.212 0.842,0.011 1.812,-0.342 2.34,-0.685 v 1.968 c -0.538,0.304 -1.635,0.598 -2.516,0.598 -2.986,0 -4.543,-1.802 -4.543,-4.054 0,-2.487 1.772,-4.132 4.484,-4.132 0.725,0 1.371,0.186 1.811,0.294 0.284,0.068 0.549,0.127 0.705,-0.088 h 0.069 v 2.32 C 10.346,55.079 9.642,54.756 8.544,54.756"
       id="path2" /><path
       fill="#221f1f"
       d="m 25.575,57.654 c -0.685,0 -1.214,0 -1.214,0 v 1.732 c 0,0 0.353,0 1.273,0 0.597,0 0.891,-0.431 0.891,-0.871 0,-0.577 -0.519,-0.861 -0.95,-0.861 m -0.294,-3.025 c -0.352,0 -0.92,0 -0.92,0 v 1.468 c 0,0 0.098,0 0.94,0 0.137,0 0.793,-0.067 0.793,-0.763 0,-0.363 -0.283,-0.705 -0.813,-0.705 z m 0.98,6.305 c -1.822,0 -4.495,0 -4.495,0 v -0.058 c 0.226,-0.118 0.353,-0.354 0.353,-0.715 v -6.286 c 0,-0.362 -0.127,-0.598 -0.353,-0.715 V 53.1 c 0,0 2.037,0 3.897,0 0.813,0 1.459,0.128 1.91,0.51 0.411,0.353 0.695,0.891 0.695,1.508 0,0.813 -0.402,1.479 -1.107,1.635 0.95,0.186 1.606,0.843 1.606,1.978 0.001,1.234 -0.803,2.203 -2.506,2.203 z"
       id="path3" /><path
       fill="#221f1f"
       d="m 30.282,60.934 v -0.058 c 0.225,-0.118 0.352,-0.354 0.352,-0.715 v -6.286 c 0,-0.362 -0.127,-0.598 -0.352,-0.715 V 53.1 h 2.947 v 0.06 c -0.225,0.117 -0.352,0.353 -0.352,0.715 v 5.395 h 2.467 c 0.264,0 0.529,-0.128 0.617,-0.313 h 0.058 v 1.978 h -5.737"
       id="path4" /><path
       fill="#221f1f"
       d="m 39.855,56.137 h 2.291 c 0.255,0 0.382,-0.118 0.461,-0.255 h 0.058 v 2.115 H 42.607 C 42.528,57.86 42.401,57.742 42.146,57.742 h -2.291 v 1.527 h 2.859 c 0.264,0 0.529,-0.128 0.617,-0.313 h 0.059 v 1.978 h -6.129 v -0.058 c 0.225,-0.118 0.352,-0.354 0.352,-0.715 v -6.286 c 0,-0.362 -0.127,-0.598 -0.352,-0.715 V 53.1 h 5.962 v 1.949 h -0.068 c -0.108,-0.225 -0.304,-0.313 -0.539,-0.313 h -2.761 v 1.401"
       id="path5" /><path
       fill="#221f1f"
       d="m 50.631,57.723 c -0.48,0.293 -0.862,0.832 -0.421,1.419 0.391,0.51 1.312,0.441 1.948,0.196 l -1.527,-1.615 m 0.186,-3.31 c -0.333,0.392 -0.069,0.852 0.528,1.283 1.028,-0.499 1.019,-0.881 0.803,-1.244 -0.166,-0.284 -1.008,-0.421 -1.331,-0.039 z m 2.85,6.521 -0.372,-0.372 c -0.637,0.333 -1.488,0.617 -2.37,0.617 -1.664,0 -3.025,-0.891 -3.025,-2.418 0,-1.272 1.214,-2.017 1.655,-2.213 -0.627,-0.49 -1.244,-1.978 -0.255,-2.897 1.234,-1.146 3.544,-0.784 4.249,0.019 0.735,0.842 0.725,2.164 -1.175,3.182 l 1.313,1.392 C 54,57.823 54.333,57.01 53.872,56.843 v -0.058 h 2.076 c -0.059,1.831 -1.126,2.652 -1.126,2.652 l 1.028,1.126 c 0.147,0.157 0.196,0.245 0.402,0.314 v 0.058 h -2.585 z"
       id="path6" /><path
       fill="#221f1f"
       d="m 70.884,53.581 -2.203,7.353 h -2.017 l -1.302,-4.571 -1.254,4.571 H 62.033 L 59.898,53.581 C 59.8,53.258 59.507,53.16 59.507,53.16 V 53.1 h 3.113 v 0.06 c -0.147,0.059 -0.284,0.195 -0.196,0.509 l 0.921,3.407 0.92,-3.407 c 0.088,-0.313 -0.049,-0.45 -0.196,-0.509 V 53.1 h 2.869 v 0.06 c -0.147,0.059 -0.284,0.195 -0.196,0.509 l 0.921,3.407 0.92,-3.407 c 0.088,-0.313 -0.049,-0.45 -0.196,-0.509 V 53.1 h 2.908 v 0.06 c 0,0 -0.313,0.098 -0.411,0.421"
       id="path7" /><path
       fill="#221f1f"
       d="m 72.281,60.934 v -0.058 c 0.225,-0.118 0.352,-0.354 0.352,-0.715 v -6.286 c 0,-0.362 -0.127,-0.598 -0.352,-0.715 V 53.1 h 2.947 v 0.06 c -0.225,0.117 -0.353,0.353 -0.353,0.715 v 6.286 c 0,0.361 0.128,0.597 0.353,0.715 v 0.058 h -2.947"
       id="path8" /><path
       fill="#221f1f"
       d="m 80.739,54.647 c -0.352,0 -0.969,0 -0.969,0 v 1.616 c 0,0 0.147,0 0.989,0 1.077,0.001 1.038,-1.616 -0.02,-1.616 m 1.263,6.287 -1.263,-2.663 c -0.215,-0.46 -0.528,-0.41 -0.646,-0.41 H 79.77 v 2.301 c 0,0.361 0.127,0.597 0.352,0.715 v 0.058 h -2.947 v -0.058 c 0.225,-0.118 0.353,-0.354 0.353,-0.715 v -6.286 c 0,-0.362 -0.128,-0.598 -0.353,-0.715 v -0.06 h 3.985 c 0.745,0 1.293,0.147 1.812,0.539 0.587,0.44 0.822,1.106 0.822,1.713 0,1.068 -0.587,1.764 -1.429,1.998 0.303,0.187 0.607,0.656 0.861,1.136 l 1.077,2.114 c 0.118,0.226 0.324,0.275 0.324,0.275 v 0.058 z"
       id="path9" /><path
       fill="#221f1f"
       d="m 88.276,56.137 h 2.291 c 0.255,0 0.382,-0.118 0.46,-0.255 h 0.059 v 2.115 h -0.059 c -0.078,-0.137 -0.205,-0.255 -0.46,-0.255 h -2.291 v 1.527 h 2.859 c 0.264,0 0.529,-0.128 0.617,-0.313 h 0.059 v 1.978 h -6.13 v -0.058 c 0.225,-0.118 0.353,-0.354 0.353,-0.715 v -6.286 c 0,-0.362 -0.128,-0.598 -0.353,-0.715 V 53.1 h 5.963 v 1.949 h -0.069 c -0.107,-0.225 -0.303,-0.313 -0.538,-0.313 h -2.761 v 1.401"
       id="path10" /><path
       fill="#221f1f"
       d="m 93.59,60.934 v -0.058 c 0.225,-0.118 0.352,-0.354 0.352,-0.715 v -6.286 c 0,-0.362 -0.127,-0.598 -0.352,-0.715 V 53.1 h 2.947 v 0.06 c -0.225,0.117 -0.353,0.353 -0.353,0.715 v 5.395 h 2.468 c 0.264,0 0.528,-0.128 0.616,-0.313 h 0.059 v 1.978 H 93.59"
       id="path11" /><path
       fill="#221f1f"
       d="m 103.164,56.137 h 2.291 c 0.255,0 0.382,-0.118 0.46,-0.255 h 0.059 v 2.115 h -0.059 c -0.078,-0.137 -0.205,-0.255 -0.46,-0.255 h -2.291 v 1.527 h 2.859 c 0.265,0 0.529,-0.128 0.617,-0.313 h 0.059 v 1.978 h -6.13 v -0.058 c 0.225,-0.118 0.353,-0.354 0.353,-0.715 v -6.286 c 0,-0.362 -0.128,-0.598 -0.353,-0.715 V 53.1 h 5.963 v 1.949 h -0.068 c -0.108,-0.225 -0.304,-0.313 -0.539,-0.313 h -2.761 v 1.401"
       id="path12" /><path
       fill="#221f1f"
       d="m 111.032,61.091 c -0.744,0 -1.576,-0.206 -1.899,-0.304 -0.255,-0.078 -0.509,-0.049 -0.617,0.146 h -0.059 v -2.447 c 0.47,0.313 1.528,0.91 2.507,0.91 0.558,0 1.057,-0.205 1.057,-0.676 0,-0.488 -0.862,-0.744 -1.42,-0.891 -0.46,-0.117 -2.252,-0.528 -2.252,-2.398 0,-1.635 1.479,-2.526 3.065,-2.526 0.499,0 1.136,0.137 1.528,0.265 0.411,0.137 0.714,0.215 0.842,-0.049 h 0.058 v 2.164 c -0.587,-0.382 -1.557,-0.735 -2.32,-0.735 -0.411,0 -0.852,0.108 -0.852,0.52 0,0.577 0.666,0.676 1.224,0.842 1.273,0.372 2.506,0.833 2.506,2.438 0,1.84 -1.34,2.741 -3.368,2.741"
       id="path13" /><path
       fill="#221f1f"
       d="m 118.491,61.091 c -0.744,0 -1.576,-0.206 -1.899,-0.304 -0.255,-0.078 -0.509,-0.049 -0.617,0.146 h -0.059 v -2.447 c 0.47,0.313 1.528,0.91 2.507,0.91 0.558,0 1.057,-0.205 1.057,-0.676 0,-0.488 -0.861,-0.744 -1.42,-0.891 -0.46,-0.117 -2.251,-0.528 -2.251,-2.398 0,-1.635 1.478,-2.526 3.064,-2.526 0.5,0 1.136,0.137 1.528,0.265 0.411,0.137 0.714,0.215 0.842,-0.049 h 0.059 v 2.164 c -0.588,-0.382 -1.557,-0.735 -2.321,-0.735 -0.411,0 -0.852,0.108 -0.852,0.52 0,0.577 0.666,0.676 1.224,0.842 1.273,0.372 2.506,0.833 2.506,2.438 0,1.84 -1.34,2.741 -3.368,2.741"
       id="path14" /><path
       fill="#221f1f"
       d="m 15.985,55.206 -0.879,2.552 h 1.779 l -0.9,-2.552 m 1.623,5.72 v -0.059 c 0.196,-0.069 0.333,-0.167 0.206,-0.528 l -0.362,-1.017 h -2.904 l -0.342,0.997 c -0.127,0.372 -0.029,0.499 0.206,0.548 v 0.059 h -2.806 v -0.059 c 0,0 0.303,-0.078 0.459,-0.499 l 2.483,-6.706 c 0.069,-0.187 0.069,-0.43 -0.137,-0.499 v -0.06 h 3.5 v 0.06 c -0.205,0.069 -0.205,0.313 -0.137,0.499 l 2.591,6.726 c 0.137,0.342 0.46,0.479 0.46,0.479 v 0.059 z"
       id="path15" /></g><rect
     style="fill:#ffffff;fill-opacity:1;stroke:#000000;stroke-width:1.00325;stroke-linecap:butt;stroke-linejoin:bevel;stroke-dasharray:none;stroke-opacity:0.2"
     id="rect11-0-5"
     width="109.69597"
     height="39.033188"
     x="171.72202"
     y="0.501625" /><g
     id="g4"
     transform="matrix(0.18477101,0,0,0.18477101,90.215206,5.9019181)"><rect
       width="370.60999"
       height="150"
       fill="#005eb8"
       stroke-width="3.75"
       id="rect1-2"
       x="0"
       y="0" /><g
       transform="scale(3.75)"
       fill="#ffffff"
       id="g3"><path
         d="M 9.66,3.86 H 20.41 L 27,26.19 h 0.1 L 31.62,3.86 h 8.12 l -6.83,32.2 H 22.21 L 15.47,13.78 H 15.38 L 10.91,36.06 H 2.79 Z"
         id="path1-6" /><path
         d="m 42.91,3.86 h 8.63 L 49,16.18 H 59.2 L 61.74,3.86 h 8.63 l -6.69,32.2 H 55 L 57.86,22.27 H 47.71 l -2.86,13.79 h -8.62 z"
         id="path2-67" /><path
         d="M 93.06,11.15 A 16.18,16.18 0 0 0 86,9.67 c -3.41,0 -6.18,0.51 -6.18,3.09 0,4.57 12.5,2.86 12.5,12.64 0,8.9 -8.26,11.21 -15.73,11.21 a 36,36 0 0 1 -10,-1.66 l 2,-6.55 c 1.71,1.11 5.12,1.85 7.93,1.85 2.81,0 6.87,-0.51 6.87,-3.83 0,-5.17 -12.5,-3.23 -12.5,-12.32 0,-8.3 7.29,-10.8 14.35,-10.8 4,0 7.7,0.42 9.87,1.43 z"
         id="path3-8" /></g></g><g
     id="g2049"
     transform="matrix(0.90518166,0,0,-0.90518166,135.99476,216.30272)"><g
       id="g832"><g
         id="g834"
         clip-path="url(#clipPath838)"><g
           id="g840"
           transform="translate(83.3902,229.2746)"><path
             d="m 0,0 v -8.179 c 0,-3.209 -2.319,-4.265 -4.824,-4.265 -2.485,0 -4.804,1.056 -4.804,4.265 V 0 h 2.215 v -7.578 c 0,-2.05 0.829,-3.044 2.589,-3.044 1.78,0 2.608,0.994 2.608,3.023 V 0 Z"
             style="fill:#373151;fill-opacity:1;fill-rule:nonzero;stroke:none"
             id="path842" /></g></g></g><g
       id="g844"
       transform="translate(91.7016,217.079)"><path
         d="m 0,0 -3.644,5.239 h -0.87 V 0 h -2.215 v 12.196 h 2.215 V 7.144 h 0.911 l 3.396,5.052 H 2.361 L -1.76,6.274 2.691,0 Z"
         style="fill:#373151;fill-opacity:1;fill-rule:nonzero;stroke:none"
         id="path846" /></g><g
       id="g848"><g
         id="g850"
         clip-path="url(#clipPath854)"><g
           id="g856"
           transform="translate(73.7623,202.8566)"><path
             d="m 0,0 v 12.193 h 3.912 c 3.044,0 4.347,-1.408 4.347,-3.871 0,-2.485 -1.449,-4.037 -4.14,-4.037 H 2.215 V 0 Z m 2.215,6.107 h 1.656 c 1.594,0 2.132,0.807 2.132,2.111 0,1.408 -0.724,2.133 -2.153,2.133 H 2.215 Z"
             style="fill:#373151;fill-opacity:1;fill-rule:nonzero;stroke:none"
             id="path858" /></g><g
           id="g860"
           transform="translate(90.5735,205.3199)"><path
             d="m 0,0 c 0,-0.683 0.31,-0.869 0.703,-0.869 0.228,0 0.415,0.041 0.559,0.103 v -1.635 c -0.31,-0.145 -0.703,-0.228 -1.2,-0.228 -1.139,0 -1.842,0.476 -2.07,1.532 -0.477,-1.201 -1.553,-1.615 -2.816,-1.615 -1.677,0 -2.835,0.973 -2.835,2.609 0,2.062 1.746,3.537 4.923,3.537 h 0.583 v 0.665 c 0,1.076 -0.601,1.532 -1.532,1.532 -0.932,0 -1.517,-0.42 -1.661,-1.473 L -7.349,4.492 C -7.204,6.521 -5.445,7.328 -3.54,7.328 -1.491,7.328 0,6.479 0,4.306 Z m -2.153,2.109 c -0.085,0.002 -0.167,0 -0.248,0 -2.304,0 -3.085,-0.947 -3.085,-1.985 0,-0.704 0.476,-1.242 1.366,-1.242 1.116,0 1.967,0.886 1.967,1.941 z"
             style="fill:#373151;fill-opacity:1;fill-rule:nonzero;stroke:none"
             id="path862" /></g></g></g><path
       d="m 106.001,202.856 h -2.173 v 9.564 h 2.173 z"
       style="fill:#373151;fill-opacity:1;fill-rule:nonzero;stroke:none"
       id="path864" /><g
       id="g866"><g
         id="g868"
         clip-path="url(#clipPath872)"><g
           id="g874"
           transform="translate(127.9947,212.6481)"><path
             d="M 0,0 C 1.594,0 2.795,-0.87 2.795,-2.919 V -9.792 H 0.621 v 6.107 c 0,1.139 -0.434,1.843 -1.47,1.843 -1.014,0 -1.987,-0.704 -1.987,-2.526 v -5.424 h -2.153 v 6.107 c 0,1.139 -0.435,1.843 -1.49,1.843 -1.015,0 -1.967,-0.704 -1.967,-2.547 v -5.403 h -2.174 v 9.564 h 1.76 L -8.591,-2.07 C -8.094,-0.6 -6.956,0 -5.63,0 -4.306,0 -3.291,-0.559 -3.043,-2.111 -2.546,-0.6 -1.346,0 0,0"
             style="fill:#373151;fill-opacity:1;fill-rule:nonzero;stroke:none"
             id="path876" /></g><g
           id="g878"
           transform="translate(138.5227,205.7755)"><path
             d="m 0,0 1.884,-0.559 c -0.435,-1.946 -2.07,-2.608 -3.913,-2.608 -2.608,0 -4.388,1.78 -4.388,4.927 0,3.229 1.718,5.112 4.471,5.112 2.546,0 3.871,-1.717 3.871,-4.14 C 1.925,2.236 1.842,1.76 1.76,1.449 h -6.086 c 0.083,-1.739 0.89,-2.919 2.38,-2.919 0.953,0 1.636,0.373 1.946,1.47 m -0.186,2.857 c 0.02,0.124 0.02,0.248 0.02,0.372 0,1.097 -0.703,1.988 -1.883,1.988 -1.263,0 -2.07,-0.891 -2.215,-2.36 z"
             style="fill:#373151;fill-opacity:1;fill-rule:nonzero;stroke:none"
             id="path880" /></g><g
           id="g882"
           transform="translate(143.8798,210.578)"><path
             d="m 0,0 c 0.518,1.428 1.615,2.07 3.064,2.07 1.532,0 2.877,-0.869 2.877,-2.981 V -7.722 H 3.768 v 6.087 c 0,1.138 -0.456,1.863 -1.553,1.863 -1.056,0 -2.07,-0.58 -2.07,-2.546 v -5.404 h -2.174 v 9.564 h 1.76 z"
             style="fill:#373151;fill-opacity:1;fill-rule:nonzero;stroke:none"
             id="path884" /></g><g
           id="g886"
           transform="translate(157.6063,203.1876)"><path
             d="m 0,0 c -0.683,-0.393 -1.552,-0.58 -2.525,-0.58 -1.781,0 -2.878,0.911 -2.878,2.816 V 7.535 H -6.79 v 1.698 h 1.387 v 2.624 h 2.194 V 9.233 h 2.837 V 7.535 H -3.229 V 2.691 c 0,-1.014 0.434,-1.428 1.221,-1.428 0.621,0 1.077,0.186 1.614,0.559 z"
             style="fill:#373151;fill-opacity:1;fill-rule:nonzero;stroke:none"
             id="path888" /></g><g
           id="g890"
           transform="translate(94.9129,209.812)"><path
             d="m 0,0 -0.269,2.608 h -1.842 v -9.564 h 2.173 v 4.679 c 0,1.905 1.304,2.795 2.567,2.795 0.103,0 0.201,-0.005 0.297,-0.012 V 2.795 C 1.213,2.603 0.341,1.473 0,0"
             style="fill:#373151;fill-opacity:1;fill-rule:nonzero;stroke:none"
             id="path892" /></g><g
           id="g894"
           transform="translate(102.0095,204.5747)"><path
             d="M 0,0 C -0.497,0 -0.849,0.228 -0.849,0.828 V 11.566 H -3.023 V 0.311 c 0,-1.553 1.077,-2.195 2.34,-2.195 0.414,0 0.844,0.074 1.304,0.228 V 0.087 C 0.453,0.032 0.242,0 0,0"
             style="fill:#373151;fill-opacity:1;fill-rule:nonzero;stroke:none"
             id="path896" /></g><g
           id="g898"
           transform="translate(115.0312,205.3199)"><path
             d="m 0,0 c 0,-0.683 0.31,-0.869 0.704,-0.869 0.227,0 0.414,0.041 0.558,0.103 v -1.635 c -0.31,-0.145 -0.703,-0.228 -1.2,-0.228 -1.139,0 -1.842,0.476 -2.07,1.532 -0.477,-1.201 -1.553,-1.615 -2.816,-1.615 -1.676,0 -2.835,0.973 -2.835,2.609 0,2.062 1.746,3.537 4.923,3.537 h 0.583 v 0.665 c 0,1.076 -0.601,1.532 -1.532,1.532 -0.931,0 -1.517,-0.42 -1.661,-1.473 L -7.349,4.492 C -7.204,6.521 -5.445,7.328 -3.54,7.328 -1.491,7.328 0,6.479 0,4.306 Z m -2.153,2.109 c -0.084,0.002 -0.167,0 -0.248,0 -2.303,0 -3.085,-0.947 -3.085,-1.985 0,-0.704 0.476,-1.242 1.366,-1.242 1.116,0 1.967,0.886 1.967,1.941 z"
             style="fill:#373151;fill-opacity:1;fill-rule:nonzero;stroke:none"
             id="path900" /></g><g
           id="g902"
           transform="translate(103.5585,215.1166)"><path
             d="m 0,0 c 0,-0.774 0.568,-1.366 1.366,-1.366 0.795,0 1.366,0.592 1.366,1.366 0,0.774 -0.567,1.366 -1.366,1.366 C 0.571,1.366 0,0.774 0,0"
             style="fill:#373151;fill-opacity:1;fill-rule:nonzero;stroke:none"
             id="path904" /></g><g
           id="g906"
           transform="translate(64.882,229.9549)"><path
             d="m 0,0 -0.294,-0.152 v -0.001 c 0.339,-0.603 0.428,-1.401 0.218,-2.202 -0.348,0.259 -0.591,0.647 -0.709,1.1 L -1.08,-1.407 v -10e-4 c -0.117,-0.44 -0.27,-0.876 -0.46,-1.304 -0.19,-0.427 -0.411,-0.829 -0.658,-1.208 l -0.004,-0.008 0.082,-0.315 c 0.295,0.151 0.63,0.237 0.984,0.237 0.12,0 0.237,-0.01 0.351,-0.029 -0.301,-0.713 -1.006,-1.213 -1.828,-1.213 -0.771,0 -1.439,0.442 -1.767,1.085 0.233,0.109 0.414,0.32 0.474,0.59 0.083,0.377 -0.157,0.554 -0.074,0.93 0.083,0.377 0.456,0.616 0.832,0.533 0.293,-0.065 0.501,-0.303 0.541,-0.583 0.202,0.122 0.356,0.323 0.411,0.572 0.105,0.482 -0.199,0.958 -0.68,1.064 -0.307,0.067 -0.61,-0.032 -0.818,-0.237 0.125,0.189 0.218,0.402 0.27,0.635 0.125,0.573 -0.025,1.146 -0.366,1.59 -0.496,-0.26 -0.873,-0.717 -0.999,-1.29 -0.051,-0.233 -0.056,-0.465 -0.022,-0.69 -0.102,0.273 -0.336,0.491 -0.643,0.558 -0.481,0.106 -0.957,-0.198 -1.063,-0.68 -0.055,-0.249 0,-0.496 0.133,-0.691 0.154,0.236 0.443,0.366 0.735,0.302 0.377,-0.083 0.615,-0.456 0.532,-0.833 -0.083,-0.376 -0.374,-0.436 -0.457,-0.813 -0.049,-0.222 -0.005,-0.444 0.104,-0.624 0,0 0.018,-0.028 0.046,-0.073 -0.391,-0.304 -0.882,-0.486 -1.415,-0.486 -1.274,0 -2.307,1.033 -2.307,2.307 v 0.187 c 0.728,-0.115 1.372,-0.48 1.844,-1.004 l 0.246,0.247 v 2.759 l -0.25,0.251 c -0.471,-0.521 -1.114,-0.884 -1.84,-0.999 v 0.002 c 0,1.003 0.685,1.846 1.612,2.087 l -0.255,0.255 c -0.683,0.049 -1.373,0.074 -2.069,0.074 -0.696,0 -1.386,-0.025 -2.07,-0.074 l -0.254,-0.255 c 0.927,-0.241 1.611,-1.084 1.611,-2.087 v -0.002 c -0.725,0.115 -1.368,0.478 -1.839,0.999 l -0.251,-0.251 v -2.759 l 0.247,-0.247 c 0.471,0.524 1.116,0.889 1.843,1.004 v -0.187 c 0,-1.274 -1.032,-2.307 -2.306,-2.307 -0.53,0 -1.018,0.179 -1.407,0.479 0.023,0.05 0.038,0.08 0.038,0.08 0.109,0.18 0.152,0.402 0.103,0.624 -0.083,0.377 -0.374,0.437 -0.457,0.813 -0.083,0.377 0.156,0.75 0.533,0.833 0.292,0.064 0.581,-0.066 0.735,-0.302 0.132,0.195 0.187,0.442 0.132,0.691 -0.105,0.482 -0.581,0.786 -1.063,0.68 -0.306,-0.067 -0.54,-0.285 -0.643,-0.558 0.034,0.225 0.03,0.457 -0.022,0.69 -0.126,0.573 -0.503,1.03 -0.999,1.29 -0.34,-0.444 -0.491,-1.017 -0.365,-1.59 0.051,-0.233 0.144,-0.446 0.27,-0.635 -0.208,0.205 -0.512,0.304 -0.818,0.237 -0.482,-0.106 -0.786,-0.582 -0.68,-1.064 0.054,-0.249 0.208,-0.45 0.41,-0.572 0.041,0.28 0.249,0.518 0.541,0.583 0.377,0.083 0.749,-0.156 0.832,-0.533 0.083,-0.376 -0.156,-0.553 -0.073,-0.93 0.059,-0.27 0.241,-0.481 0.474,-0.59 v 0 c -0.328,-0.643 -0.996,-1.085 -1.768,-1.085 -0.822,0 -1.527,0.5 -1.828,1.213 0.114,0.019 0.232,0.029 0.351,0.029 0.354,0 0.689,-0.086 0.984,-0.238 l 0.082,0.316 -0.004,0.009 c -0.247,0.378 -0.468,0.781 -0.657,1.207 -0.191,0.428 -0.344,0.864 -0.46,1.303 l -0.001,0.002 -0.294,0.152 c -0.119,-0.453 -0.361,-0.841 -0.71,-1.1 -0.21,0.801 -0.121,1.599 0.219,2.202 v 0.001 L -19.717,0 c -0.514,-0.176 -1.208,-0.458 -1.711,-0.682 l 2.957,-6.642 c 2.631,1.174 5.546,1.826 8.613,1.826 3.067,0 5.981,-0.652 8.612,-1.826 l 2.958,6.642 C 1.208,-0.458 0.514,-0.176 0,0"
             style="fill:#373151;fill-opacity:1;fill-rule:nonzero;stroke:none"
             id="path908" /></g><g
           id="g910"
           transform="translate(67.5288,217.503)"><path
             d="m 0,0 c 0,0.83 -0.521,1.495 -1.294,1.676 v 0.96 C -0.521,2.817 0,3.482 0,4.312 0,5.289 -0.721,6.037 -1.725,6.037 -2.578,6.037 -3.223,5.501 -3.4,4.743 h -18.209 c -0.179,0.758 -0.826,1.294 -1.675,1.294 -1.008,0 -1.725,-0.748 -1.725,-1.725 0,-0.831 0.518,-1.496 1.293,-1.676 V 1.676 C -24.491,1.496 -25.009,0.831 -25.009,0 c 0,-0.831 0.518,-1.496 1.293,-1.676 v -0.96 c -0.775,-0.18 -1.293,-0.845 -1.293,-1.676 0,-0.831 0.518,-1.495 1.293,-1.676 v -0.96 c -0.775,-0.18 -1.293,-0.845 -1.293,-1.676 0,-0.831 0.518,-1.495 1.293,-1.676 v -0.96 c -0.775,-0.18 -1.293,-0.845 -1.293,-1.676 0,-0.977 0.717,-1.725 1.725,-1.725 1.003,0 1.724,0.748 1.724,1.725 0,0.83 -0.521,1.495 -1.293,1.676 v 0.961 c 0.772,0.18 1.293,0.845 1.293,1.675 0,0.83 -0.521,1.495 -1.293,1.676 v 0.96 c 0.772,0.181 1.293,0.846 1.293,1.676 0,0.83 -0.521,1.495 -1.293,1.676 v 0.96 c 0.772,0.181 1.293,0.846 1.293,1.676 0,0.83 -0.521,1.495 -1.293,1.676 v 0.96 c 0.633,0.149 1.097,0.622 1.244,1.245 h 0.912 v -18.542 h 0.198 c 0.444,1.336 1.111,2.57 1.958,3.658 v 0.223 h -0.863 v 2.587 h 2.156 v -2.587 h -0.431 v -0.237 c 0.559,-1.114 0.973,-2.34 1.209,-3.644 h 0.169 c 0.236,1.304 0.65,2.53 1.209,3.644 v 0.237 h -0.431 v 2.587 h 2.156 v -2.587 h -0.431 v -0.237 c 0.559,-1.114 0.973,-2.34 1.209,-3.644 h 0.169 c 0.236,1.304 0.65,2.53 1.209,3.644 v 0.237 h -0.431 v 2.587 h 2.156 v -2.587 h -0.431 v -0.237 c 0.559,-1.114 0.973,-2.34 1.209,-3.644 h 0.169 c 0.236,1.304 0.65,2.53 1.209,3.644 v 0.237 h -0.431 v 2.587 h 2.156 v -2.587 h -0.863 v -0.223 c 0.847,-1.088 1.514,-2.322 1.958,-3.658 h 0.198 V 3.881 H -3.4 C -3.254,3.257 -2.791,2.784 -2.156,2.636 V 1.676 C -2.931,1.496 -3.45,0.831 -3.45,0 c 0,-0.831 0.519,-1.496 1.294,-1.676 v -0.96 c -0.775,-0.18 -1.294,-0.845 -1.294,-1.676 0,-0.831 0.519,-1.495 1.294,-1.676 v -0.96 c -0.775,-0.18 -1.294,-0.845 -1.294,-1.676 0,-0.831 0.519,-1.495 1.294,-1.676 v -0.96 c -0.775,-0.18 -1.294,-0.845 -1.294,-1.676 0,-0.977 0.717,-1.725 1.725,-1.725 1.004,0 1.725,0.748 1.725,1.725 0,0.83 -0.521,1.495 -1.294,1.676 v 0.961 c 0.773,0.18 1.294,0.845 1.294,1.675 0,0.83 -0.521,1.495 -1.294,1.676 v 0.96 C -0.521,-5.807 0,-5.142 0,-4.312 c 0,0.83 -0.521,1.495 -1.294,1.676 v 0.96 C -0.521,-1.495 0,-0.83 0,0 m -22.422,-12.936 c 0,-0.516 -0.347,-0.862 -0.862,-0.862 -0.516,0 -0.863,0.346 -0.863,0.862 0,0.358 0.167,0.634 0.441,0.769 0.039,-0.197 0.203,-0.338 0.422,-0.338 0.217,0 0.382,0.141 0.422,0.338 0.273,-0.135 0.44,-0.411 0.44,-0.769 m 0,4.312 c 0,-0.357 -0.167,-0.633 -0.44,-0.769 -0.04,0.197 -0.205,0.338 -0.422,0.338 -0.219,0 -0.383,-0.141 -0.422,-0.338 -0.274,0.136 -0.441,0.412 -0.441,0.769 0,0.358 0.167,0.633 0.441,0.769 0.039,-0.197 0.203,-0.338 0.422,-0.338 0.217,0 0.382,0.141 0.422,0.338 0.273,-0.135 0.44,-0.411 0.44,-0.769 m 0,4.312 c 0,-0.357 -0.167,-0.633 -0.44,-0.769 -0.04,0.197 -0.205,0.338 -0.422,0.338 -0.219,0 -0.383,-0.141 -0.422,-0.338 -0.274,0.136 -0.441,0.412 -0.441,0.769 0,0.358 0.167,0.633 0.441,0.769 0.039,-0.197 0.203,-0.338 0.422,-0.338 0.217,0 0.382,0.141 0.422,0.338 0.273,-0.136 0.44,-0.411 0.44,-0.769 m -0.44,7.855 c -0.04,0.197 -0.205,0.338 -0.422,0.338 -0.219,0 -0.383,-0.141 -0.422,-0.338 -0.274,0.136 -0.441,0.412 -0.441,0.769 0,0.516 0.347,0.862 0.863,0.862 0.515,0 0.862,-0.346 0.862,-0.862 0,-0.358 -0.167,-0.633 -0.44,-0.769 m 5.614,-10.442 h -2.156 v 2.587 h 2.156 z m 0,3.881 h -2.156 v 2.587 h 2.156 z m 0,3.88 h -2.156 v 2.587 h 2.156 z m 3.881,-7.761 h -2.156 v 2.587 h 2.156 z m 0,3.881 h -2.156 v 2.587 h 2.156 z m 0,3.88 h -2.156 v 2.587 h 2.156 z m 3.881,-7.761 h -2.156 v 2.587 h 2.156 z m 0,3.881 h -2.156 v 2.587 h 2.156 z m 0,3.88 h -2.156 v 2.587 h 2.156 z m 3.881,-7.761 h -2.156 v 2.587 h 2.156 z m 0,3.881 h -2.156 v 2.587 h 2.156 z m 0,3.88 h -2.156 v 2.587 h 2.156 z m 3.018,3.45 c 0,0.516 0.346,0.862 0.862,0.862 0.516,0 0.863,-0.346 0.863,-0.862 0,-0.358 -0.167,-0.633 -0.441,-0.769 -0.039,0.197 -0.204,0.338 -0.422,0.338 -0.219,0 -0.382,-0.141 -0.422,-0.338 -0.274,0.136 -0.44,0.412 -0.44,0.769 m 1.725,-17.248 c 0,-0.516 -0.347,-0.862 -0.863,-0.862 -0.516,0 -0.862,0.346 -0.862,0.862 0,0.358 0.166,0.634 0.44,0.769 0.04,-0.197 0.203,-0.338 0.422,-0.338 0.218,0 0.383,0.141 0.422,0.338 0.274,-0.135 0.441,-0.411 0.441,-0.769 m 0,4.312 c 0,-0.357 -0.167,-0.633 -0.441,-0.769 -0.039,0.197 -0.204,0.338 -0.422,0.338 -0.219,0 -0.382,-0.141 -0.422,-0.338 -0.274,0.136 -0.44,0.412 -0.44,0.769 0,0.358 0.166,0.633 0.44,0.769 0.04,-0.197 0.203,-0.338 0.422,-0.338 0.218,0 0.383,0.141 0.422,0.338 0.274,-0.135 0.441,-0.411 0.441,-0.769 m 0,4.312 c 0,-0.357 -0.167,-0.633 -0.441,-0.769 -0.039,0.197 -0.204,0.338 -0.422,0.338 -0.219,0 -0.382,-0.141 -0.422,-0.338 -0.274,0.136 -0.44,0.412 -0.44,0.769 0,0.358 0.166,0.633 0.44,0.769 0.04,-0.197 0.203,-0.338 0.422,-0.338 0.218,0 0.383,0.141 0.422,0.338 0.274,-0.136 0.441,-0.411 0.441,-0.769 M -22.422,0 c 0,-0.357 -0.167,-0.633 -0.44,-0.769 -0.04,0.197 -0.205,0.338 -0.422,0.338 -0.219,0 -0.383,-0.141 -0.422,-0.338 -0.274,0.136 -0.441,0.412 -0.441,0.769 0,0.357 0.167,0.633 0.441,0.769 0.039,-0.197 0.203,-0.338 0.422,-0.338 0.217,0 0.382,0.141 0.422,0.338 0.273,-0.136 0.44,-0.412 0.44,-0.769 m 21.56,0 c 0,-0.357 -0.167,-0.633 -0.441,-0.769 -0.039,0.197 -0.204,0.338 -0.422,0.338 -0.219,0 -0.382,-0.141 -0.422,-0.338 -0.274,0.136 -0.44,0.412 -0.44,0.769 0,0.357 0.166,0.633 0.44,0.769 0.04,-0.197 0.203,-0.338 0.422,-0.338 0.218,0 0.383,0.141 0.422,0.338 C -1.029,0.633 -0.862,0.357 -0.862,0"
             style="fill:#373151;fill-opacity:1;fill-rule:nonzero;stroke:none"
             id="path912" /></g></g></g></g></svg>
