<?xml version="1.0" encoding="UTF-8" standalone="no"?>
<svg
   version="1.1"
   viewBox="0 0 248.58223 39.569107"
   fill="none"
   stroke="none"
   stroke-linecap="square"
   stroke-miterlimit="10"
   id="svg5"
   sodipodi:docname="eurekastep.svg"
   xml:space="preserve"
   width="248.58223"
   height="39.569107"
   inkscape:version="1.4 (e7c3feb1, 2024-10-09)"
   xmlns:inkscape="http://www.inkscape.org/namespaces/inkscape"
   xmlns:sodipodi="http://sodipodi.sourceforge.net/DTD/sodipodi-0.dtd"
   xmlns="http://www.w3.org/2000/svg"
   xmlns:svg="http://www.w3.org/2000/svg"><defs
     id="defs5"><linearGradient
       id="swatch9"
       inkscape:swatch="solid"><stop
         style="stop-color:#000000;stop-opacity:1;"
         offset="0"
         id="stop9" /></linearGradient><clipPath
       id="clipPath2458"><path
         d="M 0,0 H 595.276 V 841.89 H 0 Z"
         id="path2460" /></clipPath><clipPath
       id="clipPath2466"><path
         d="M 431.68,746.748 H 559.843 V 812.89 H 431.68 Z"
         id="path2468" /></clipPath><clipPath
       id="clipPath2476"><path
         d="m 434.91,748.318 h 115.935 v 59.856 H 434.91 Z"
         id="path2478" /></clipPath><clipPath
       id="clipPath2496"><path
         d="M 0,-9.921 H 609.449 V 485.843 H 0 Z"
         id="path2498" /></clipPath><clipPath
       id="clipPath2504"><path
         d="m -23.798,-9.696 c 0,0 1.429,0.677 1.805,0.828 0.376,0.15 1.203,0.601 1.203,0.601 0,0 1.128,1.354 2.03,1.73 0.902,0.376 3.309,1.278 3.459,1.654 0.15,0.376 1.955,1.353 2.632,1.729 0.677,0.376 2.481,1.279 2.481,1.279 0,0 0.903,1.128 1.805,1.579 0.902,0.451 2.707,1.654 2.707,1.654 0,0 1.504,1.354 2.406,1.805 0.903,0.451 1.805,0.902 1.805,0.902 0,0 2.105,1.73 2.932,2.256 0.828,0.526 2.482,1.128 2.482,1.128 0,0 1.429,1.579 2.181,1.955 0.752,0.376 1.879,0.978 1.879,0.978 0,0 1.053,0.752 1.354,0.902 0.301,0.15 1.128,0.827 1.504,1.203 0.376,0.376 1.353,0.827 1.353,0.827 0,0 0.978,0.677 1.429,0.903 0.451,0.225 1.203,0.752 1.203,0.752 0,0 0.677,0.902 1.504,1.428 0.827,0.527 1.579,0.978 1.579,0.978 0,0 1.579,0.977 1.88,1.128 0.301,0.15 0.677,0.752 1.354,1.128 0.676,0.376 1.729,0.827 1.729,0.827 0,0 0.827,0.827 1.504,1.278 0.677,0.451 1.128,0.752 1.128,0.752 0,0 0.752,0.827 1.278,1.128 0.527,0.301 0.978,0.526 0.978,0.526 0,0 0.977,0.827 1.504,1.128 0.526,0.301 1.203,0.677 1.203,0.677 0,0 0.376,0.526 1.203,1.053 0.827,0.526 1.203,0.677 1.203,0.677 0,0 0.827,1.127 1.805,1.729 0.977,0.602 1.428,0.827 1.428,0.827 0,0 0.828,0.827 1.504,1.203 0.677,0.376 1.279,0.602 1.279,0.602 0,0 1.804,1.504 2.255,1.88 0.452,0.376 0.903,1.053 1.504,1.353 0.602,0.301 1.354,0.602 1.354,0.602 0,0 1.128,0.977 1.805,1.429 0.676,0.451 0.977,0.676 0.977,0.676 0,0 1.128,1.053 1.805,1.429 0.677,0.376 1.654,0.978 1.654,0.978 0,0 0.226,0.752 0.827,0.977 0.602,0.226 0.677,0.301 0.677,0.301 0,0 1.278,1.353 2.105,1.88 0.828,0.526 2.106,1.429 2.106,1.429 0,0 0.827,0.676 1.128,0.902 0.301,0.225 0.752,0.601 0.752,0.601 0,0 0.451,0.903 2.03,2.031 1.579,1.128 2.632,1.729 2.632,1.729 0,0 1.729,1.88 2.481,2.707 0.752,0.827 1.579,1.579 2.482,2.181 0.902,0.601 1.729,0.977 1.729,0.977 0,0 1.579,2.106 2.858,3.234 1.278,1.128 2.932,1.654 2.932,1.654 0,0 1.73,2.331 2.782,3.083 1.053,0.752 3.008,1.579 3.008,1.579 0,0 1.579,2.106 2.557,2.858 0.977,0.752 2.932,1.804 2.932,1.804 0,0 2.031,2.557 3.083,3.384 1.053,0.827 2.933,1.655 2.933,1.655 0,0 1.654,1.804 2.482,2.556 0.827,0.752 2.556,1.579 2.556,1.579 0,0 1.579,1.955 2.632,2.858 1.053,0.902 3.008,2.03 3.008,2.03 0,0 1.278,2.181 2.481,3.158 1.203,0.978 3.158,1.88 3.158,1.88 0,0 1.354,2.256 2.858,3.534 1.504,1.279 3.459,2.031 3.459,2.031 0,0 1.278,2.481 2.481,3.534 1.203,1.053 3.76,2.256 3.76,2.256 0,0 1.278,2.631 2.933,3.985 1.654,1.354 3.083,1.955 3.083,1.955 0,0 1.353,2.707 2.782,3.835 1.428,1.128 3.233,2.331 3.233,2.331 0,0 1.73,3.234 3.158,4.361 1.429,1.128 3.61,2.106 3.61,2.106 0,0 1.654,3.309 3.083,4.286 1.428,0.978 3.308,1.88 3.308,1.88 0,0 1.053,2.857 2.858,4.361 1.804,1.504 3.383,2.106 3.383,2.106 0,0 1.58,3.684 2.933,4.662 1.354,0.977 3.76,2.105 3.76,2.105 0,0 1.128,2.933 2.707,4.136 1.579,1.203 3.76,2.331 3.76,2.331 0,0 0.902,3.309 2.782,4.738 1.88,1.428 4.06,2.406 4.06,2.406 0,0 0.752,2.857 2.632,4.512 1.88,1.654 4.286,2.782 4.286,2.782 0,0 0.677,2.857 2.858,4.812 2.18,1.955 3.985,2.858 3.985,2.858 0,0 0.752,3.008 3.609,5.188 2.858,2.181 3.76,2.632 3.76,2.632 0,0 0.902,3.384 3.008,5.113 2.105,1.73 4.211,3.008 4.211,3.008 0,0 0.526,3.234 2.932,5.113 2.407,1.88 3.835,2.858 3.835,2.858 0,0 1.354,4.06 3.234,5.489 1.88,1.429 3.91,2.782 3.91,2.782 0,0 1.654,4.211 3.609,5.941 1.955,1.729 4.061,2.557 4.061,2.557 0,0 0.526,3.308 2.406,5.263 1.88,1.955 3.459,2.933 3.459,2.933 0,0 1.354,3.384 3.459,5.414 2.105,2.03 4.211,3.609 4.211,3.609 0,0 0.601,3.685 3.158,5.715 2.557,2.03 4.286,3.234 4.286,3.234 0,0 1.429,4.135 3.76,6.166 2.331,2.03 3.91,3.383 3.91,3.383 0,0 0.902,3.234 3.534,5.715 2.632,2.482 4.662,3.76 4.662,3.76 0,0 0.602,3.534 3.459,5.94 2.858,2.407 3.234,2.256 3.234,2.256 l 2.105,1.579 c 0,0 0.226,2.482 3.083,5.039 2.858,2.556 3.309,2.406 3.309,2.406 0,0 1.278,1.053 1.804,1.429 0.527,0.375 0.903,0.676 0.903,0.676 0,0 0.601,2.632 2.782,4.813 2.181,2.18 3.835,2.782 3.835,2.782 0,0 1.203,0.978 1.579,1.203 0.376,0.226 0.978,0.677 0.978,0.677 0,0 1.127,3.309 3.308,5.113 2.181,1.805 4.286,2.632 4.286,2.632 l 2.031,1.203 c 0,0 0.751,2.707 3.308,4.888 2.557,2.181 5.038,3.083 5.038,3.083 l 2.557,1.729 c 0,0 0.827,2.933 3.835,4.738 3.008,1.804 4.887,2.707 4.887,2.707 l 1.88,1.128 c 0,0 1.354,3.008 4.136,4.887 2.782,1.88 4.888,2.256 4.888,2.256 l 2.03,1.354 c 0,0 0.902,2.707 4.286,4.888 3.384,2.18 6.091,2.782 6.091,2.782 l 1.805,0.977 c 0,0 1.503,3.234 4.286,4.662 2.782,1.429 5.94,2.031 5.94,2.031 l 2.331,1.579 c 0,0 1.955,2.932 5.038,4.587 3.083,1.654 5.79,2.03 5.79,2.03 0,0 0.978,0.902 1.805,1.278 0.827,0.376 1.053,0.677 1.053,0.677 0,0 2.18,3.234 5.188,4.437 3.008,1.203 5.715,1.278 5.715,1.278 l 1.955,0.978 c 0,0 1.504,2.932 5.414,4.662 3.91,1.729 5.94,1.278 5.94,1.278 l 2.331,1.354 c 0,0 2.858,3.233 6.016,4.361 3.158,1.128 6.016,0.752 6.016,0.752 0,0 0.977,0.752 1.428,1.053 0.452,0.3 1.128,0.601 1.128,0.601 0,0 3.309,2.858 6.317,4.061 3.007,1.203 6.015,0.752 6.015,0.752 l 1.579,1.128 c 0,0 2.482,3.083 5.941,4.361 3.459,1.278 6.993,1.053 6.993,1.053 0,0 0.902,0.676 1.805,1.052 0.902,0.376 1.203,0.602 1.203,0.602 0,0 2.857,2.782 5.94,3.76 3.083,0.977 6.843,0.3 6.843,0.3 l 1.429,0.452 c 0,0 2.631,3.233 6.842,4.135 4.211,0.903 7.896,0.602 7.896,0.602 l 1.504,0.752 c 0,0 2.18,2.632 7.519,3.76 5.339,1.128 7.294,0.225 7.294,0.225 l 2.482,0.903 c 0,0 3.083,2.03 6.241,2.556 3.158,0.527 5.94,0.075 5.94,0.075 0,0 0.903,0.376 2.03,0.752 1.128,0.376 1.805,0.677 1.805,0.677 0,0 3.406,1.839 6.016,2.406 3.459,0.752 7.67,-0.526 7.67,-0.526 0,0 1.127,0.602 1.654,0.978 0.526,0.376 3.261,2.107 7.219,2.707 4.962,0.752 7.82,-0.752 7.82,-0.752 0,0 3.835,3.008 8.798,3.384 4.963,0.376 7.669,-0.903 7.669,-0.903 0,0 5.415,3.083 9.55,2.858 4.136,-0.226 6.993,-1.279 6.993,-1.279 0,0 1.354,0.226 1.88,0.376 0.527,0.151 4.211,1.805 7.896,1.88 3.684,0.075 7.519,-1.278 8.196,-1.278 0.677,0 3.91,1.729 7.595,1.504 3.684,-0.226 7.444,-1.955 8.196,-1.955 0.752,0 1.429,1.128 3.008,1.428 1.579,0.301 1.181,0.532 1.181,0.532 l 0.623,-416.567 z"
         id="path2506" /></clipPath><clipPath
       id="clipPath2512"><path
         d="m -1.096,-0.929 h 597.36 V 485.843 H -1.096 Z"
         id="path2514" /></clipPath><style
       id="style10">.cls-1{fill:#006bac;}</style><clipPath
       id="clipPath4568"
       clipPathUnits="userSpaceOnUse"><path
         id="path4566"
         d="M 0,0 H 595.276 V 841.89 H 0 Z" /></clipPath><clipPath
       id="clipPath4542"
       clipPathUnits="userSpaceOnUse"><path
         id="path4540"
         d="M 0,0 H 595.276 V 841.89 H 0 Z" /></clipPath><clipPath
       id="clipPath4510"
       clipPathUnits="userSpaceOnUse"><path
         id="path4508"
         d="M 0,0 H 595.276 V 841.89 H 0 Z" /></clipPath><clipPath
       id="clipPath4568-5"
       clipPathUnits="userSpaceOnUse"><path
         id="path4566-5"
         d="M 0,0 H 595.276 V 841.89 H 0 Z" /></clipPath><clipPath
       id="clipPath4542-4"
       clipPathUnits="userSpaceOnUse"><path
         id="path4540-1"
         d="M 0,0 H 595.276 V 841.89 H 0 Z" /></clipPath><clipPath
       id="clipPath4510-8"
       clipPathUnits="userSpaceOnUse"><path
         id="path4508-8"
         d="M 0,0 H 595.276 V 841.89 H 0 Z" /></clipPath><style
       id="style1">.cls-1{fill:#222e53;}</style><clipPath
       id="clipPath2896"><path
         d="M 429.756,716.501 L 616.276,716.501 L 616.276,820.37 L 429.756,820.37 L 429.756,716.501 z "
         id="path2898" /></clipPath><clipPath
       id="clipPath2912"><path
         d="M 429.756,716.501 L 616.276,716.501 L 616.276,820.37 L 429.756,820.37 L 429.756,716.501 z "
         id="path2914" /></clipPath><clipPath
       id="clipPath2928"><path
         d="M 429.756,716.501 L 616.276,716.501 L 616.276,820.37 L 429.756,820.37 L 429.756,716.501 z "
         id="path2930" /></clipPath><clipPath
       id="clipPath2946"><path
         d="M 429.756,716.501 L 616.276,716.501 L 616.276,820.37 L 429.756,820.37 L 429.756,716.501 z "
         id="path2948" /></clipPath></defs><sodipodi:namedview
     id="namedview5"
     pagecolor="#ffffff"
     bordercolor="#000000"
     borderopacity="0.25"
     inkscape:showpageshadow="2"
     inkscape:pageopacity="0.0"
     inkscape:pagecheckerboard="0"
     inkscape:deskcolor="#d1d1d1"
     showguides="true"
     inkscape:zoom="6.3063757"
     inkscape:cx="163.88177"
     inkscape:cy="7.6906297"
     inkscape:window-width="1512"
     inkscape:window-height="916"
     inkscape:window-x="0"
     inkscape:window-y="38"
     inkscape:window-maximized="0"
     inkscape:current-layer="svg5"><sodipodi:guide
       position="0.092917723,99.407731"
       orientation="1,0"
       id="guide6"
       inkscape:locked="false" /><sodipodi:guide
       position="3.4734987,99.671153"
       orientation="0,-1"
       id="guide7"
       inkscape:locked="false" /><sodipodi:guide
       position="334.59484,60.68471"
       orientation="0,-1"
       id="guide8"
       inkscape:locked="false" /><sodipodi:guide
       position="334.59484,71.221587"
       orientation="1,0"
       id="guide9"
       inkscape:locked="false" /></sodipodi:namedview><clipPath
     id="p.0"><path
       d="M 0,0 H 364.09973 V 100 H 0 Z"
       clip-rule="nonzero"
       id="path1" /></clipPath><rect
     style="fill:#ffffff;fill-opacity:1;stroke:#000000;stroke-width:0.496195;stroke-linecap:butt;stroke-linejoin:bevel;stroke-dasharray:none;stroke-opacity:0.2"
     id="rect11"
     width="76.750633"
     height="38.875576"
     x="0.28104985"
     y="0.31011951" /><rect
     style="fill:#ffffff;fill-opacity:1;stroke:#000000;stroke-width:0.496195;stroke-linecap:butt;stroke-linejoin:bevel;stroke-dasharray:none;stroke-opacity:0.2"
     id="rect11-0"
     width="76.750633"
     height="38.875576"
     x="85.915802"
     y="0.34676552" /><g
     id="g1"
     transform="matrix(0.09942295,0,0,0.09942295,88.810047,12.999759)"><rect
       class="cls-1"
       x="233.96001"
       y="-29.608274"
       width="42.799999"
       height="32.5"
       id="rect1" /><rect
       class="cls-1"
       x="233.96001"
       y="18.101721"
       width="42.799999"
       height="143.10001"
       id="rect2" /><path
       class="cls-1"
       d="m 361.87,73.801722 c -19.86,-5.16 -26.81,-9.03 -26.81,-16.76 0,-5.41 5.15,-9.55 12.37,-9.55 7.22,0 12.9,2.59 13.15,10.83 h 42.03 C 400.56,30.231721 378.63,13.201721 347.7,13.201721 c -28.89,0 -55.45,18.3 -55.45,46.660001 0,16.76 9.55,30.95 45.65,42.029998 21.39,6.70001 26.29,10.83001 26.29,18.82001 0,6.70001 -7.47,11.09001 -14.96,11.09001 -8.5,0 -14.95,-4.13 -16.24,-13.16001 h -42.55 c 3.1,29.14002 26.04,47.45002 58.28,47.45002 32.24,0 58.26,-18.83 58.26,-48.73002 0,-20.890006 -11.08,-34.550008 -45.12,-43.570008"
       id="path2-6" /><rect
       class="cls-1"
       x="507.65997"
       y="-29.598272"
       width="42.799999"
       height="190.8"
       id="rect3" /><path
       class="cls-1"
       d="m 605.96,73.801722 c 3.35,-15.21 16.76,-24.5 32.24,-24.5 16.49,0 29.39,9.8 32.75,24.5 h -64.98 z m 107.77,17.52 c 0,-44.34 -32.75,-78.120001 -75.54,-78.120001 -42.79,0 -75.03,35.580001 -75.03,76.840001 0,41.260018 34.55,75.800028 75.8,75.800028 30.18,0 56.21,-18.31 69.88,-49.51002 h -43.83 c -6.97,9.03001 -14.44,13.41001 -26.04,13.41001 -17.53,0 -31.21,-10.83001 -33.52,-27.07002 h 107.26 c 0.78,-3.869996 1.03,-7.209996 1.03,-11.349998"
       id="path3-5" /><path
       class="cls-1"
       d="m 163.68,13.201721 c -17.01,0 -30.94,6.95 -37.11,18.56 V -29.608278 H 83.76 V 18.091721 H 63.94 V -8.9982783 C 63.94,-20.388278 54.71,-29.608278 43.33,-29.608278 H 21.14 V 18.091721 H 0 v 32.490001 h 21.14 v 92.600028 c 0,9.95 8.06,18 18,18 h 24.8 V 50.571722 H 83.76 V 161.18175 h 42.81 V 80.731722 c 0,-17.79 7.72,-27.33 23.98,-27.33 16.26,0 22.95,10.57 22.95,29.14 v 78.640028 h 42.8 V 71.191722 c 0,-37.380001 -19.85,-58.010001 -52.6,-58.010001"
       id="path4-7" /><path
       class="cls-1"
       d="m 456.7,-29.598278 h -24.79 v 47.699999 h -21.14 v 32.490001 h 21.14 v 92.600028 c 0,9.95 8.06,18.01 18,18.01 H 474.7 V 50.581722 h 20.63 V 18.091721 H 474.7 v -29.699999 c 0,-9.94 -8.06,-18 -18,-18"
       id="path5-6" /></g><style
     type="text/css"
     id="style1-2">
  .st0{fill:#FF6600;}
	.st1{fill:#FFFFFF;}
 </style><g
     id="g2"
     transform="matrix(0.3199652,0,0,0.3199652,171.84028,4.632718)"><rect
       class="st0"
       width="238.39476"
       height="120.19328"
       id="rect1-7"
       x="-0.16231108"
       y="-13.017167"
       style="display:inline;stroke-width:1.19198">
 </rect><g
       id="g11"
       transform="matrix(1.0241832,0,0,1.0241832,-3.716263,-0.48699388)"
       style="display:inline"><g
         id="g7"
         transform="matrix(0.6136491,0,0,0.6136491,91.067041,23.288984)">
  <path
   class="st1"
   d="M 42.6,44.2 H 30.3 c -0.5,0 -0.8,0.2 -0.8,0.7 0,1.1 0.6,2.2 1.8,3.2 1.2,1 2.6,1.5 4,1.5 0.8,0 1.8,-0.2 2.8,-0.5 1,-0.3 1.9,-0.7 2.5,-1.2 0.6,-0.4 1.1,-0.6 1.4,-0.6 0.5,0 0.9,0.3 1.3,0.8 0.4,0.6 0.7,1.1 0.7,1.7 0,1.3 -0.8,2.5 -2.4,3.6 -2.8,2.1 -6,3.1 -9.6,3.1 -3.7,0 -6.7,-1.1 -9.2,-3.2 -1.2,-1 -2.2,-2.3 -3,-3.8 -1,-2 -1.5,-4 -1.5,-6.2 0,-2.9 0.9,-5.6 2.7,-7.9 1.5,-2 3.5,-3.5 5.9,-4.5 1.8,-0.7 3.7,-1.1 5.8,-1.1 3.3,0 6.1,0.9 8.5,2.8 1.2,0.9 2.1,2.1 2.8,3.4 0.8,1.5 1.2,2.9 1.2,4.3 0,1.1 -0.2,2.1 -0.7,2.8 -0.6,0.8 -1.2,1.1 -1.9,1.1 z M 31,39.4 h 2.6 c 1.1,0 1.7,-0.5 1.7,-1.5 C 35.3,37 35,36.2 34.5,35.6 34,35 33.3,34.7 32.4,34.7 c -1,0 -1.7,0.4 -2.3,1.2 -0.5,0.7 -0.8,1.4 -0.8,2.2 0,0.5 0.1,0.9 0.4,1.1 0.2,0 0.6,0.2 1.3,0.2 z"
   id="path1-0">
  </path>
  <path
   class="st1"
   d="m 62.2,29.9 c 3,0 5.6,0.8 7.7,2.3 1.1,0.8 1.9,1.8 2.3,2.8 0.4,1.1 0.7,2.5 0.7,4.4 l -0.1,3.9 c 0,2.7 0.2,4.5 0.6,5.3 0.2,0.4 0.4,0.6 0.5,0.7 0.2,0.1 0.5,0.2 1.1,0.3 0.6,0.1 0.8,0.5 0.8,1.1 0,0.8 -0.3,1.7 -1,2.6 -0.7,0.9 -1.5,1.7 -2.6,2.3 -1.3,0.8 -2.7,1.2 -4.1,1.2 -1.8,0 -3.3,-0.6 -4.3,-1.9 -0.4,-0.5 -0.7,-0.7 -1,-0.7 -0.3,0 -0.8,0.2 -1.4,0.7 -1.7,1.3 -3.7,1.9 -5.9,1.9 -2.3,0 -4.1,-0.5 -5.5,-1.5 -0.9,-0.7 -1.7,-1.6 -2.2,-2.6 -0.5,-1 -0.8,-2.1 -0.8,-3.3 0,-1.8 0.7,-3.4 2.2,-4.8 2.3,-2.2 5.7,-3.3 10.3,-3.3 1,0 1.7,-0.1 1.9,-0.3 0.3,-0.2 0.4,-0.7 0.4,-1.4 0,-1.8 -0.2,-3.2 -0.6,-4 -0.4,-0.8 -1,-1.2 -1.9,-1.2 -0.5,0 -1,0.2 -1.4,0.5 -0.4,0.3 -0.9,0.9 -1.5,1.7 -1.6,2.2 -3.2,3.3 -4.9,3.3 -0.9,0 -1.6,-0.3 -2.1,-0.8 -0.5,-0.5 -0.8,-1.2 -0.8,-2 0,-0.8 0.3,-1.7 1,-2.5 0.7,-0.8 1.6,-1.6 2.7,-2.2 3.2,-1.7 6.5,-2.5 9.9,-2.5 z M 60.4,45 c -0.8,0 -1.4,0.3 -2,0.9 -0.6,0.6 -0.9,1.4 -0.9,2.3 0,0.8 0.2,1.5 0.6,2 0.4,0.5 0.9,0.8 1.6,0.8 1.4,0 2.1,-1.2 2.1,-3.5 0,-1 -0.1,-1.6 -0.3,-1.9 C 61.4,45.2 61,45.1 60.4,45 Z"
   id="path2-3">
  </path>
  <path
   class="st1"
   d="m 88.6,29.9 c 0.9,0 2.3,0.2 4.3,0.6 0.4,0.1 0.7,0.1 1,0.1 0.3,0 0.9,-0.2 1.7,-0.5 0.4,-0.2 0.7,-0.2 1,-0.2 0.8,0 1.6,0.5 2.4,1.5 0.7,0.8 1.2,1.7 1.6,2.7 0.4,1 0.6,1.8 0.6,2.5 0,0.7 -0.2,1.3 -0.7,1.7 -0.5,0.5 -1.1,0.7 -1.8,0.7 -0.6,0 -1.2,-0.1 -1.6,-0.4 -0.5,-0.3 -1.3,-1 -2.3,-2 -1.1,-1.1 -2,-1.6 -2.8,-1.6 -0.5,0 -0.9,0.2 -1.3,0.5 -0.4,0.4 -0.5,0.8 -0.5,1.3 0,0.9 0.8,1.7 2.5,2.4 2.9,1.3 5.2,2.8 6.8,4.3 1.3,1.3 2,2.9 2,4.9 0,2.4 -1.1,4.4 -3.2,6.1 -1.8,1.4 -4.1,2.1 -6.7,2.1 -0.7,0 -1.9,-0.1 -3.7,-0.3 C 86.2,56.1 85.3,56 85,56 c -0.2,0 -0.5,0 -0.8,0.1 -0.5,0.1 -0.9,0.1 -1.1,0.1 -0.8,0 -1.5,-0.2 -1.9,-0.6 -0.7,-0.6 -1.4,-1.7 -2,-3 -0.6,-1.4 -0.9,-2.6 -0.9,-3.6 0,-1.6 0.6,-2.4 1.9,-2.4 0.5,0 0.9,0.2 1.3,0.5 0.4,0.3 1.3,1.2 2.6,2.6 0.7,0.8 1.3,1.3 1.8,1.6 0.5,0.3 1,0.4 1.5,0.4 0.6,0 1,-0.2 1.4,-0.5 0.3,-0.3 0.5,-0.7 0.5,-1.2 0,-0.8 -0.7,-1.5 -2,-2.1 -2.8,-1.4 -4.8,-2.8 -6.1,-4.3 -1.2,-1.5 -1.9,-3.2 -1.9,-5.1 0,-2.1 0.6,-3.9 1.9,-5.4 1.8,-2.1 4.3,-3.2 7.4,-3.2 z"
   id="path3-9">
  </path>
  <path
   class="st1"
   d="m 129.8,42.8 -3.5,9.5 c -0.9,2.4 -1.7,4.3 -2.6,5.8 -0.9,1.5 -1.8,2.8 -2.9,3.8 -2.3,2.2 -5,3.2 -8.2,3.2 -2.6,0 -4.7,-0.7 -6.3,-2 -1.2,-1 -1.9,-2.4 -1.9,-4 0,-1.3 0.4,-2.5 1.3,-3.4 0.9,-0.9 1.9,-1.4 3.2,-1.4 1.3,0 2.3,0.4 3,1.3 0.4,0.4 0.6,0.7 0.7,1 0.1,0.3 0.3,1 0.5,2 0.2,0.8 0.6,1.2 1.3,1.2 0.5,0 1,-0.2 1.4,-0.7 0.4,-0.5 0.6,-1.1 0.6,-1.8 0,-0.8 -0.5,-2.2 -1.4,-4.1 l -6.1,-13.5 c -0.7,-1.4 -1.2,-2.3 -1.5,-2.6 -0.3,-0.3 -1.1,-0.8 -2.2,-1.3 -0.3,-0.1 -0.7,-0.4 -0.9,-0.8 -0.3,-0.4 -0.4,-0.8 -0.4,-1.2 0,-1.6 1.5,-2.6 4.6,-3.2 2.1,-0.4 4.4,-0.5 7,-0.5 1.8,0 3.3,0.2 4.4,0.6 1.4,0.5 2.1,1.4 2.1,2.6 0,0.4 -0.2,1 -0.6,1.5 -0.4,0.6 -0.6,1.1 -0.6,1.5 0,0.4 0.1,0.9 0.3,1.3 0.2,0.5 0.6,1.2 1.2,2.3 0.7,1.2 1.2,1.8 1.8,1.8 0.5,0 1.1,-0.5 1.7,-1.6 0.6,-1.1 0.9,-2.1 0.9,-3.1 0,-0.8 -0.2,-1.5 -0.7,-2 -0.7,-0.8 -1,-1.5 -1,-2 0,-0.9 0.6,-1.6 1.8,-2.1 1.2,-0.5 2.8,-0.8 4.8,-0.8 3.7,0 5.5,0.9 5.5,2.7 0,0.6 -0.2,1.2 -0.6,1.6 -0.4,0.4 -1.1,0.8 -2.1,1.1 -0.8,0.3 -1.5,0.8 -2,1.6 -0.7,1.1 -1.6,3 -2.6,5.7 z"
   id="path4-9">
  </path>
  <path
   class="st1"
   d="m 157.6,19.7 c 2,0 3.9,0.2 6,0.5 1.7,0.3 2.8,0.7 3.6,1.2 0.7,0.5 1.1,1.2 1.1,2 0,0.5 -0.1,1 -0.4,1.3 -0.3,0.3 -0.8,0.7 -1.7,1.1 -1,0.5 -1.6,1.1 -1.7,1.8 -0.1,0.7 -0.3,3.4 -0.4,8.2 -0.1,4.6 -0.1,7.4 -0.1,8.3 0,0.9 -0.2,1.8 -0.3,2.7 -0.5,2.5 -1.5,4.5 -3.1,6 -1.3,1.2 -2.9,2.1 -4.8,2.8 -2,0.7 -4,1 -6.2,1 -1.9,0 -3.9,-0.3 -5.8,-0.8 -1.9,-0.5 -3.6,-1.2 -5.1,-2.1 -1.2,-0.7 -2.1,-1.7 -2.8,-3 -0.7,-1.2 -1,-2.6 -1,-4 0,-1.7 0.5,-3.2 1.6,-4.3 1.1,-1.1 2.5,-1.7 4.1,-1.7 1.6,0 3,0.5 4.1,1.4 1.1,1 1.7,2.2 1.7,3.6 0,0.4 -0.1,1 -0.3,1.8 0,0.2 -0.1,0.4 -0.1,0.6 0,0.6 0.2,1 0.6,1.4 0.4,0.3 0.9,0.5 1.6,0.5 1.2,0 2.1,-0.5 2.8,-1.6 0.7,-1 1.1,-2.4 1.1,-4.1 V 41.9 L 152,35.5 c -0.2,-3.9 -0.3,-6.2 -0.4,-6.9 -0.1,-0.7 -0.3,-1.3 -0.6,-1.7 -0.3,-0.3 -0.5,-0.6 -0.7,-0.7 -0.2,-0.1 -0.7,-0.3 -1.6,-0.5 -0.4,-0.1 -0.8,-0.3 -1.1,-0.7 -0.3,-0.4 -0.4,-0.8 -0.4,-1.3 0,-0.9 0.4,-1.7 1.1,-2.3 0.7,-0.6 1.9,-1 3.6,-1.4 1.8,-0.1 3.7,-0.3 5.7,-0.3 z"
   id="path5-9">
  </path>
  <path
   class="st1"
   d="m 192.5,44.2 h -12.3 c -0.5,0 -0.8,0.2 -0.8,0.7 0,1.1 0.6,2.2 1.8,3.2 1.2,1 2.6,1.5 4,1.5 0.8,0 1.8,-0.2 2.8,-0.5 1,-0.3 1.9,-0.7 2.5,-1.2 0.6,-0.4 1.1,-0.6 1.4,-0.6 0.5,0 0.9,0.3 1.3,0.8 0.4,0.6 0.7,1.1 0.7,1.7 0,1.3 -0.8,2.5 -2.4,3.6 -2.8,2.1 -6,3.1 -9.6,3.1 -3.7,0 -6.7,-1.1 -9.2,-3.2 -1.2,-1 -2.2,-2.3 -3,-3.8 -1,-2 -1.5,-4 -1.5,-6.2 0,-2.9 0.9,-5.6 2.7,-7.9 1.5,-2 3.5,-3.5 5.9,-4.5 1.8,-0.7 3.7,-1.1 5.8,-1.1 3.3,0 6.1,0.9 8.5,2.8 1.2,0.9 2.1,2.1 2.8,3.4 0.8,1.5 1.2,2.9 1.2,4.3 0,1.1 -0.2,2.1 -0.7,2.8 -0.6,0.8 -1.2,1.1 -1.9,1.1 z m -11.6,-4.8 h 2.6 c 1.1,0 1.7,-0.5 1.7,-1.5 0,-0.9 -0.3,-1.7 -0.8,-2.3 -0.5,-0.6 -1.2,-0.9 -2.1,-0.9 -1,0 -1.7,0.4 -2.3,1.2 -0.5,0.7 -0.8,1.4 -0.8,2.2 0,0.5 0.1,0.9 0.4,1.1 0.2,0 0.6,0.2 1.3,0.2 z"
   id="path6-1">
  </path>
  <path
   class="st1"
   d="m 211.9,36.8 v 8.8 c 0,1 0.3,1.9 0.8,2.6 0.5,0.7 1.2,1 2,1 0.7,0 1.6,-0.3 2.7,-0.9 0.3,-0.2 0.5,-0.2 0.8,-0.2 0.4,0 0.8,0.3 1.1,0.8 0.4,0.5 0.5,1.1 0.5,1.7 0,1.1 -0.6,2.1 -1.8,3.1 -2.5,2.1 -5.5,3.2 -9,3.2 -2.8,0 -5,-0.8 -6.7,-2.4 -1.7,-1.6 -2.5,-3.7 -2.5,-6.2 V 36 c 0,-0.4 0,-0.7 -0.1,-0.7 -0.1,-0.1 -0.3,-0.1 -0.7,-0.1 h -2.7 c -0.5,0 -0.8,-0.1 -1,-0.2 -0.1,-0.2 -0.2,-0.6 -0.2,-1.2 v -1.2 c 0,-0.5 0.2,-0.9 0.6,-1.2 l 12,-7.5 c 0.3,-0.2 0.7,-0.2 1.1,-0.2 h 2.1 c 0.4,0 0.7,0.1 0.9,0.3 0.1,0.2 0.2,0.6 0.2,1.2 v 3.5 c 0,0.5 0.1,0.9 0.2,1 0.2,0.2 0.5,0.2 1.1,0.2 h 4.8 c 0.6,0 1.1,0.1 1.3,0.4 0.2,0.2 0.3,0.7 0.3,1.5 v 1.5 c 0,0.8 -0.1,1.4 -0.4,1.7 -0.2,0.3 -0.7,0.5 -1.3,0.5 h -4.7 c -0.5,0 -0.8,0.1 -1,0.3 -0.3,0.1 -0.4,0.5 -0.4,1 z"
   id="path7-7">
  </path>
 </g><text
         xml:space="preserve"
         style="font-size:133.333px;font-family:Handlee;-inkscape-font-specification:'Handlee, Normal';text-align:end;writing-mode:lr-tb;direction:ltr;text-anchor:end;fill:#ffffff;fill-opacity:1"
         x="99.265099"
         y="57.812462"
         id="text7"><tspan
           sodipodi:role="line"
           id="tspan7"
           x="99.265099"
           y="57.812462"
           style="font-style:italic;font-variant:normal;font-weight:bold;font-stretch:normal;font-size:29.3333px;font-family:Sans;-inkscape-font-specification:'Sans, Bold Italic';font-variant-ligatures:normal;font-variant-caps:normal;font-variant-numeric:normal;font-variant-east-asian:normal;fill:#ffffff;fill-opacity:1">ATS<tspan
   style="font-style:normal;font-variant:normal;font-weight:bold;font-stretch:normal;font-family:Sans;-inkscape-font-specification:'Sans Bold'"
   id="tspan11">4</tspan></tspan></text></g></g><g
     transform="matrix(0.36564208,0,0,0.36564208,-98.459417,-174.96006)"
     id="layer1"
     style="display:inline"><path
       d="m 350.92375,580.16156 v -31.9025 h 50.235 v 31.90875 L 376.125,565.69656"
       style="fill:#ffffff;fill-opacity:1;fill-rule:nonzero;stroke:none"
       id="path2890" /><g
       transform="matrix(1.25,0,0,-1.25,-260.3425,1499.4541)"
       id="g2892"><g
         clip-path="url(#clipPath2896)"
         id="g2894"><path
           d="M 529.196,783.804 H 489.01 v 28.114 h 40.186 z"
           style="fill:#ffffff;fill-opacity:1;fill-rule:nonzero;stroke:none"
           id="path2900" /></g></g><path
       d="M 63,2.09375 V 20.5625 L 94.9375,2.09375 Z M 109.625,65.5 l -23.25,13.53125 23.25,13.5625 z"
       transform="translate(289.72625,484.5566)"
       style="fill:#f89d0e;fill-opacity:1;fill-rule:nonzero;stroke:none"
       id="path2902" /><path
       d="M 94.9375,2.09375 63,20.5625 v 12.75 h 46.625 V 2.09375 Z M 63,65.5 V 92.59375 L 109.625,65.5 Z"
       transform="translate(289.72625,484.5566)"
       style="fill:#14356d;fill-opacity:1;fill-rule:nonzero;stroke:none"
       id="path2906" /><g
       transform="matrix(1.25,0,0,-1.25,-260.3425,1499.4541)"
       id="g2908"><g
         clip-path="url(#clipPath2912)"
         id="g2910"><path
           d="m 441.488,768.598 c -0.876,0.243 -1.08,0.11 -1.208,-0.534 -0.092,-0.463 -0.225,-1.133 -0.225,-1.133 0.867,-0.284 1.921,-0.542 3.532,-0.542 3.542,0 5.12,1.752 5.12,3.659 0,3.484 -6.242,3.384 -6.267,5.209 -0.014,0.99 0.945,1.453 2.173,1.453 0.799,0 1.571,-0.174 1.935,-0.263 0.846,-0.206 0.988,-0.166 1.14,0.415 0.122,0.467 0.284,1.064 0.284,1.064 -0.468,0.179 -1.843,0.493 -3.214,0.493 -3.106,0 -4.702,-1.721 -4.679,-3.493 0.05,-3.587 6.229,-3.236 6.256,-5.21 0.012,-0.824 -0.683,-1.562 -2.452,-1.562 -1.114,0 -1.82,0.287 -2.395,0.444"
           style="fill:#14356d;fill-opacity:1;fill-rule:nonzero;stroke:none"
           id="path2918" /></g></g><path
       d="m 306.87,541.21406 h 2.195 v -12.2425 h 4.9025 v -1.36375 c 0,-0.64125 -0.12625,-0.8075 -0.80125,-0.8075 h -11.805 v 1.4775 c 0,0.54625 0.16125,0.69375 0.83,0.69375 h 3.87 v 11.43375 c 0,0.59 0.1675,0.80875 0.80875,0.80875"
       style="fill:#14356d;fill-opacity:1;fill-rule:nonzero;stroke:none"
       id="path2920" /><path
       d="m 320.81125,529.71031 -2.46375,5.82125 h 4.85125 z m 4.2,10.0475 c -0.195,-0.51875 -0.84875,-2.05625 -0.84875,-2.05625 h -6.69875 l -1.4875,3.5125 h -2.26375 c -0.58625,0 -0.70125,-0.18875 -0.415,-0.80875 l 6.13625,-13.605 h 1.8475 c 1.18125,0 1.65125,0.815 2.02875,1.62875 l 5.74,12.785 h -1.80125 c -0.8525,0 -1.84,-0.4025 -2.2375,-1.45625"
       style="fill:#14356d;fill-opacity:1;fill-rule:nonzero;stroke:none"
       id="path2922" /><g
       transform="matrix(1.25,0,0,-1.25,-260.3425,1499.4541)"
       id="g2924"><g
         clip-path="url(#clipPath2928)"
         id="g2926"><path
           d="m 473.905,778.123 h -0.677 v -10.884 c 0,-0.539 0.123,-0.647 0.647,-0.647 h 1.442 v 7.891 c 0,0 4.535,-4.862 5.725,-6.153 0.865,-0.94 1.787,-1.738 2.765,-1.738 h 0.727 v 10.885 c 0,0.527 -0.116,0.646 -0.643,0.646 h -1.445 v -7.872 c 0,0 -4.141,4.585 -5.581,6.135 -0.986,1.063 -1.64,1.737 -2.96,1.737"
           style="fill:#14356d;fill-opacity:1;fill-rule:nonzero;stroke:none"
           id="path2932" /><path
           d="m 490.515,768.33 h 1.848 c 2.107,0 3.918,1.644 3.918,4.268 0,2.624 -1.682,3.788 -3.826,3.788 h -1.94 z m -2.434,-1.091 v 10.884 h 5.058 c 3.351,0 5.692,-2.403 5.692,-5.507 0,-3.103 -2.514,-6.024 -6.098,-6.024 h -4.001 c -0.502,0 -0.651,0.114 -0.651,0.647"
           style="fill:#14356d;fill-opacity:1;fill-rule:nonzero;stroke:none"
           id="path2934" /></g></g><path
       d="m 371.59,529.71031 -2.465,5.82125 h 4.85125 z m 4.19875,10.0475 c -0.195,-0.51875 -0.84875,-2.05625 -0.84875,-2.05625 h -6.69875 l -1.48875,3.5125 h -2.26375 c -0.585,0 -0.7,-0.18875 -0.41375,-0.80875 l 6.13625,-13.605 H 372.06 c 1.18125,0 1.65,0.815 2.0275,1.62875 l 5.74,12.785 h -1.80125 c -0.8525,0 -1.84125,-0.4025 -2.2375,-1.45625"
       style="fill:#14356d;fill-opacity:1;fill-rule:nonzero;stroke:none"
       id="path2936" /><path
       d="m 386.03,533.77406 c 0.66125,0.96875 2.55125,3.68 3.6525,5.2675 1.145,1.6525 1.94375,2.1725 3.765,2.1725 h 1.5025 l -4.93625,-6.565 c 1.85125,-0.22625 3.64125,-1.5925 3.64125,-4.015 0,-2.14125 -1.63125,-3.83375 -4.52625,-3.83375 h -7.115 v 13.605 c 0,0.66625 0.17375,0.80875 0.83125,0.80875 h 2.2175 v -12.2425 h 3.32625 c 1.55625,0 2.17125,0.90875 2.17125,2.0325 0,1.045 -0.5775,2.275 -3.015,2.31 l -1.2475,0.0225 c -0.185,0 -0.46625,0.14625 -0.2675,0.4375"
       style="fill:#14356d;fill-opacity:1;fill-rule:nonzero;stroke:none"
       id="path2938" /><path
       d="m 422.92125,527.65156 v 11.39 h 5.38125 c 0.6275,0 0.80875,0.22 0.80875,0.81 v 1.3625 H 420.7 c -0.60625,0 -0.815,-0.21125 -0.815,-0.80875 v -13.605 h 2.24125 c 0.575,0 0.795,0.22125 0.795,0.85125"
       style="fill:#14356d;fill-opacity:1;fill-rule:nonzero;stroke:none"
       id="path2940" /><g
       transform="matrix(1.25,0,0,-1.25,-260.3425,1499.4541)"
       id="g2942"><g
         clip-path="url(#clipPath2946)"
         id="g2944"><path
           d="m 575.587,778.123 h -6.591 V 767.22 c 0,-0.422 0.219,-0.628 0.65,-0.628 h 6.847 v 1.09 c 0,0.452 -0.181,0.648 -0.647,0.648 h -4.424 v 3.547 h 3.63 v 1.108 c 0,0.404 -0.2,0.63 -0.646,0.63 h -2.984 v 2.771 h 4.812 v 1.109 c 0,0.404 -0.199,0.628 -0.647,0.628"
           style="fill:#14356d;fill-opacity:1;fill-rule:nonzero;stroke:none"
           id="path2950" /><path
           d="m 528.891,768.33 h 1.847 c 2.106,0 3.918,1.644 3.918,4.268 0,2.624 -1.682,3.788 -3.825,3.788 h -1.94 z m -2.435,-1.091 v 10.884 h 5.059 c 3.35,0 5.692,-2.403 5.692,-5.507 0,-3.103 -2.514,-6.024 -6.099,-6.024 h -4.001 c -0.502,0 -0.651,0.114 -0.651,0.647"
           style="fill:#14356d;fill-opacity:1;fill-rule:nonzero;stroke:none"
           id="path2952" /></g></g><path
       d="m 442.36625,541.21406 v -6.60625 h 4.53625 v -1.385 c 0,-0.505 -0.25,-0.7875 -0.81,-0.7875 h -3.72625 v -3.46375 H 448.38 v -1.38625 c 0,-0.505 -0.24875,-0.785 -0.8075,-0.785 h -8.24 v 13.62875 c 0,0.5275 0.27375,0.785 0.81125,0.785"
       style="fill:#14356d;fill-opacity:1;fill-rule:nonzero;stroke:none"
       id="path2954" /><path
       d="m 432.4175,541.21406 c -0.60625,0 -0.81375,-0.21125 -0.81375,-0.80875 v -13.605 h 2.24 c 0.57625,0 0.795,0.22125 0.795,0.85125 v 13.5625"
       style="fill:#14356d;fill-opacity:1;fill-rule:nonzero;stroke:none"
       id="path2956" /></g><rect
     style="fill:none;fill-opacity:1;stroke:#000000;stroke-width:0.496195;stroke-linecap:butt;stroke-linejoin:bevel;stroke-dasharray:none;stroke-opacity:0.2"
     id="rect11-0-5"
     width="76.750633"
     height="38.875576"
     x="171.5835"
     y="0.24809749" /></svg>
