<?xml version="1.0" encoding="UTF-8" standalone="no"?>
<svg
   version="1.1"
   viewBox="0 0 334.63919 39.602322"
   fill="none"
   stroke="none"
   stroke-linecap="square"
   stroke-miterlimit="10"
   id="svg5"
   sodipodi:docname="the-unit.svg"
   xml:space="preserve"
   width="334.63919"
   height="39.602322"
   inkscape:version="1.4 (e7c3feb1, 2024-10-09)"
   xmlns:inkscape="http://www.inkscape.org/namespaces/inkscape"
   xmlns:sodipodi="http://sodipodi.sourceforge.net/DTD/sodipodi-0.dtd"
   xmlns="http://www.w3.org/2000/svg"
   xmlns:svg="http://www.w3.org/2000/svg"><defs
     id="defs5"><linearGradient
       id="swatch9"
       inkscape:swatch="solid"><stop
         style="stop-color:#000000;stop-opacity:1;"
         offset="0"
         id="stop9" /></linearGradient><clipPath
       id="clipPath2458"><path
         d="M 0,0 H 595.276 V 841.89 H 0 Z"
         id="path2460" /></clipPath><clipPath
       id="clipPath2466"><path
         d="M 431.68,746.748 H 559.843 V 812.89 H 431.68 Z"
         id="path2468" /></clipPath><clipPath
       id="clipPath2476"><path
         d="m 434.91,748.318 h 115.935 v 59.856 H 434.91 Z"
         id="path2478" /></clipPath><clipPath
       id="clipPath2496"><path
         d="M 0,-9.921 H 609.449 V 485.843 H 0 Z"
         id="path2498" /></clipPath><clipPath
       id="clipPath2504"><path
         d="m -23.798,-9.696 c 0,0 1.429,0.677 1.805,0.828 0.376,0.15 1.203,0.601 1.203,0.601 0,0 1.128,1.354 2.03,1.73 0.902,0.376 3.309,1.278 3.459,1.654 0.15,0.376 1.955,1.353 2.632,1.729 0.677,0.376 2.481,1.279 2.481,1.279 0,0 0.903,1.128 1.805,1.579 0.902,0.451 2.707,1.654 2.707,1.654 0,0 1.504,1.354 2.406,1.805 0.903,0.451 1.805,0.902 1.805,0.902 0,0 2.105,1.73 2.932,2.256 0.828,0.526 2.482,1.128 2.482,1.128 0,0 1.429,1.579 2.181,1.955 0.752,0.376 1.879,0.978 1.879,0.978 0,0 1.053,0.752 1.354,0.902 0.301,0.15 1.128,0.827 1.504,1.203 0.376,0.376 1.353,0.827 1.353,0.827 0,0 0.978,0.677 1.429,0.903 0.451,0.225 1.203,0.752 1.203,0.752 0,0 0.677,0.902 1.504,1.428 0.827,0.527 1.579,0.978 1.579,0.978 0,0 1.579,0.977 1.88,1.128 0.301,0.15 0.677,0.752 1.354,1.128 0.676,0.376 1.729,0.827 1.729,0.827 0,0 0.827,0.827 1.504,1.278 0.677,0.451 1.128,0.752 1.128,0.752 0,0 0.752,0.827 1.278,1.128 0.527,0.301 0.978,0.526 0.978,0.526 0,0 0.977,0.827 1.504,1.128 0.526,0.301 1.203,0.677 1.203,0.677 0,0 0.376,0.526 1.203,1.053 0.827,0.526 1.203,0.677 1.203,0.677 0,0 0.827,1.127 1.805,1.729 0.977,0.602 1.428,0.827 1.428,0.827 0,0 0.828,0.827 1.504,1.203 0.677,0.376 1.279,0.602 1.279,0.602 0,0 1.804,1.504 2.255,1.88 0.452,0.376 0.903,1.053 1.504,1.353 0.602,0.301 1.354,0.602 1.354,0.602 0,0 1.128,0.977 1.805,1.429 0.676,0.451 0.977,0.676 0.977,0.676 0,0 1.128,1.053 1.805,1.429 0.677,0.376 1.654,0.978 1.654,0.978 0,0 0.226,0.752 0.827,0.977 0.602,0.226 0.677,0.301 0.677,0.301 0,0 1.278,1.353 2.105,1.88 0.828,0.526 2.106,1.429 2.106,1.429 0,0 0.827,0.676 1.128,0.902 0.301,0.225 0.752,0.601 0.752,0.601 0,0 0.451,0.903 2.03,2.031 1.579,1.128 2.632,1.729 2.632,1.729 0,0 1.729,1.88 2.481,2.707 0.752,0.827 1.579,1.579 2.482,2.181 0.902,0.601 1.729,0.977 1.729,0.977 0,0 1.579,2.106 2.858,3.234 1.278,1.128 2.932,1.654 2.932,1.654 0,0 1.73,2.331 2.782,3.083 1.053,0.752 3.008,1.579 3.008,1.579 0,0 1.579,2.106 2.557,2.858 0.977,0.752 2.932,1.804 2.932,1.804 0,0 2.031,2.557 3.083,3.384 1.053,0.827 2.933,1.655 2.933,1.655 0,0 1.654,1.804 2.482,2.556 0.827,0.752 2.556,1.579 2.556,1.579 0,0 1.579,1.955 2.632,2.858 1.053,0.902 3.008,2.03 3.008,2.03 0,0 1.278,2.181 2.481,3.158 1.203,0.978 3.158,1.88 3.158,1.88 0,0 1.354,2.256 2.858,3.534 1.504,1.279 3.459,2.031 3.459,2.031 0,0 1.278,2.481 2.481,3.534 1.203,1.053 3.76,2.256 3.76,2.256 0,0 1.278,2.631 2.933,3.985 1.654,1.354 3.083,1.955 3.083,1.955 0,0 1.353,2.707 2.782,3.835 1.428,1.128 3.233,2.331 3.233,2.331 0,0 1.73,3.234 3.158,4.361 1.429,1.128 3.61,2.106 3.61,2.106 0,0 1.654,3.309 3.083,4.286 1.428,0.978 3.308,1.88 3.308,1.88 0,0 1.053,2.857 2.858,4.361 1.804,1.504 3.383,2.106 3.383,2.106 0,0 1.58,3.684 2.933,4.662 1.354,0.977 3.76,2.105 3.76,2.105 0,0 1.128,2.933 2.707,4.136 1.579,1.203 3.76,2.331 3.76,2.331 0,0 0.902,3.309 2.782,4.738 1.88,1.428 4.06,2.406 4.06,2.406 0,0 0.752,2.857 2.632,4.512 1.88,1.654 4.286,2.782 4.286,2.782 0,0 0.677,2.857 2.858,4.812 2.18,1.955 3.985,2.858 3.985,2.858 0,0 0.752,3.008 3.609,5.188 2.858,2.181 3.76,2.632 3.76,2.632 0,0 0.902,3.384 3.008,5.113 2.105,1.73 4.211,3.008 4.211,3.008 0,0 0.526,3.234 2.932,5.113 2.407,1.88 3.835,2.858 3.835,2.858 0,0 1.354,4.06 3.234,5.489 1.88,1.429 3.91,2.782 3.91,2.782 0,0 1.654,4.211 3.609,5.941 1.955,1.729 4.061,2.557 4.061,2.557 0,0 0.526,3.308 2.406,5.263 1.88,1.955 3.459,2.933 3.459,2.933 0,0 1.354,3.384 3.459,5.414 2.105,2.03 4.211,3.609 4.211,3.609 0,0 0.601,3.685 3.158,5.715 2.557,2.03 4.286,3.234 4.286,3.234 0,0 1.429,4.135 3.76,6.166 2.331,2.03 3.91,3.383 3.91,3.383 0,0 0.902,3.234 3.534,5.715 2.632,2.482 4.662,3.76 4.662,3.76 0,0 0.602,3.534 3.459,5.94 2.858,2.407 3.234,2.256 3.234,2.256 l 2.105,1.579 c 0,0 0.226,2.482 3.083,5.039 2.858,2.556 3.309,2.406 3.309,2.406 0,0 1.278,1.053 1.804,1.429 0.527,0.375 0.903,0.676 0.903,0.676 0,0 0.601,2.632 2.782,4.813 2.181,2.18 3.835,2.782 3.835,2.782 0,0 1.203,0.978 1.579,1.203 0.376,0.226 0.978,0.677 0.978,0.677 0,0 1.127,3.309 3.308,5.113 2.181,1.805 4.286,2.632 4.286,2.632 l 2.031,1.203 c 0,0 0.751,2.707 3.308,4.888 2.557,2.181 5.038,3.083 5.038,3.083 l 2.557,1.729 c 0,0 0.827,2.933 3.835,4.738 3.008,1.804 4.887,2.707 4.887,2.707 l 1.88,1.128 c 0,0 1.354,3.008 4.136,4.887 2.782,1.88 4.888,2.256 4.888,2.256 l 2.03,1.354 c 0,0 0.902,2.707 4.286,4.888 3.384,2.18 6.091,2.782 6.091,2.782 l 1.805,0.977 c 0,0 1.503,3.234 4.286,4.662 2.782,1.429 5.94,2.031 5.94,2.031 l 2.331,1.579 c 0,0 1.955,2.932 5.038,4.587 3.083,1.654 5.79,2.03 5.79,2.03 0,0 0.978,0.902 1.805,1.278 0.827,0.376 1.053,0.677 1.053,0.677 0,0 2.18,3.234 5.188,4.437 3.008,1.203 5.715,1.278 5.715,1.278 l 1.955,0.978 c 0,0 1.504,2.932 5.414,4.662 3.91,1.729 5.94,1.278 5.94,1.278 l 2.331,1.354 c 0,0 2.858,3.233 6.016,4.361 3.158,1.128 6.016,0.752 6.016,0.752 0,0 0.977,0.752 1.428,1.053 0.452,0.3 1.128,0.601 1.128,0.601 0,0 3.309,2.858 6.317,4.061 3.007,1.203 6.015,0.752 6.015,0.752 l 1.579,1.128 c 0,0 2.482,3.083 5.941,4.361 3.459,1.278 6.993,1.053 6.993,1.053 0,0 0.902,0.676 1.805,1.052 0.902,0.376 1.203,0.602 1.203,0.602 0,0 2.857,2.782 5.94,3.76 3.083,0.977 6.843,0.3 6.843,0.3 l 1.429,0.452 c 0,0 2.631,3.233 6.842,4.135 4.211,0.903 7.896,0.602 7.896,0.602 l 1.504,0.752 c 0,0 2.18,2.632 7.519,3.76 5.339,1.128 7.294,0.225 7.294,0.225 l 2.482,0.903 c 0,0 3.083,2.03 6.241,2.556 3.158,0.527 5.94,0.075 5.94,0.075 0,0 0.903,0.376 2.03,0.752 1.128,0.376 1.805,0.677 1.805,0.677 0,0 3.406,1.839 6.016,2.406 3.459,0.752 7.67,-0.526 7.67,-0.526 0,0 1.127,0.602 1.654,0.978 0.526,0.376 3.261,2.107 7.219,2.707 4.962,0.752 7.82,-0.752 7.82,-0.752 0,0 3.835,3.008 8.798,3.384 4.963,0.376 7.669,-0.903 7.669,-0.903 0,0 5.415,3.083 9.55,2.858 4.136,-0.226 6.993,-1.279 6.993,-1.279 0,0 1.354,0.226 1.88,0.376 0.527,0.151 4.211,1.805 7.896,1.88 3.684,0.075 7.519,-1.278 8.196,-1.278 0.677,0 3.91,1.729 7.595,1.504 3.684,-0.226 7.444,-1.955 8.196,-1.955 0.752,0 1.429,1.128 3.008,1.428 1.579,0.301 1.181,0.532 1.181,0.532 l 0.623,-416.567 z"
         id="path2506" /></clipPath><clipPath
       id="clipPath2512"><path
         d="m -1.096,-0.929 h 597.36 V 485.843 H -1.096 Z"
         id="path2514" /></clipPath><style
       id="style10">.cls-1{fill:#006bac;}</style><clipPath
       id="clipPath4568"
       clipPathUnits="userSpaceOnUse"><path
         id="path4566"
         d="M 0,0 H 595.276 V 841.89 H 0 Z" /></clipPath><clipPath
       id="clipPath4542"
       clipPathUnits="userSpaceOnUse"><path
         id="path4540"
         d="M 0,0 H 595.276 V 841.89 H 0 Z" /></clipPath><clipPath
       id="clipPath4510"
       clipPathUnits="userSpaceOnUse"><path
         id="path4508"
         d="M 0,0 H 595.276 V 841.89 H 0 Z" /></clipPath><clipPath
       id="clipPath4568-5"
       clipPathUnits="userSpaceOnUse"><path
         id="path4566-5"
         d="M 0,0 H 595.276 V 841.89 H 0 Z" /></clipPath><clipPath
       id="clipPath4542-4"
       clipPathUnits="userSpaceOnUse"><path
         id="path4540-1"
         d="M 0,0 H 595.276 V 841.89 H 0 Z" /></clipPath><clipPath
       id="clipPath4510-8"
       clipPathUnits="userSpaceOnUse"><path
         id="path4508-8"
         d="M 0,0 H 595.276 V 841.89 H 0 Z" /></clipPath></defs><sodipodi:namedview
     id="namedview5"
     pagecolor="#ffffff"
     bordercolor="#000000"
     borderopacity="0.25"
     inkscape:showpageshadow="2"
     inkscape:pageopacity="0.0"
     inkscape:pagecheckerboard="0"
     inkscape:deskcolor="#d1d1d1"
     showguides="true"
     inkscape:zoom="2.9348553"
     inkscape:cx="216.53538"
     inkscape:cy="50.93948"
     inkscape:window-width="1800"
     inkscape:window-height="1098"
     inkscape:window-x="0"
     inkscape:window-y="-116"
     inkscape:window-maximized="0"
     inkscape:current-layer="svg5"><sodipodi:guide
       position="0.092917723,99.407731"
       orientation="1,0"
       id="guide6"
       inkscape:locked="false" /><sodipodi:guide
       position="3.4734987,99.671153"
       orientation="0,-1"
       id="guide7"
       inkscape:locked="false" /><sodipodi:guide
       position="334.59484,60.68471"
       orientation="0,-1"
       id="guide8"
       inkscape:locked="false" /><sodipodi:guide
       position="334.59484,71.221587"
       orientation="1,0"
       id="guide9"
       inkscape:locked="false" /></sodipodi:namedview><clipPath
     id="p.0"><path
       d="M 0,0 H 364.09973 V 100 H 0 Z"
       clip-rule="nonzero"
       id="path1" /></clipPath><rect
     style="fill:#ffffff;fill-opacity:1;stroke:#000000;stroke-width:0.496195;stroke-linecap:butt;stroke-linejoin:bevel;stroke-dasharray:none;stroke-opacity:0.2"
     id="rect11-0-5-6"
     width="76.750633"
     height="38.875576"
     x="257.64047"
     y="0.47864825" /><rect
     style="fill:#ffffff;fill-opacity:1;stroke:#000000;stroke-width:0.496195;stroke-linecap:butt;stroke-linejoin:bevel;stroke-dasharray:none;stroke-opacity:0.2"
     id="rect11-0-5"
     width="76.750633"
     height="38.875576"
     x="171.5835"
     y="0.24809749" /><rect
     style="fill:#ffffff;fill-opacity:1;stroke:#000000;stroke-width:0.496195;stroke-linecap:butt;stroke-linejoin:bevel;stroke-dasharray:none;stroke-opacity:0.2"
     id="rect11-0"
     width="76.750633"
     height="38.875576"
     x="86.651535"
     y="0.44543177" /><rect
     style="fill:#ffffff;fill-opacity:1;stroke:#000000;stroke-width:0.496195;stroke-linecap:butt;stroke-linejoin:bevel;stroke-dasharray:none;stroke-opacity:0.2"
     id="rect11"
     width="76.750633"
     height="38.875576"
     x="0.24809749"
     y="0.40481097" /><g
     clip-path="url(#clipPath1)"
     id="g2464"
     transform="matrix(0.41552544,0,0,-0.41552544,-79.827124,343.1384)"><path
       d="m 496.23,763.599 3.323,7.771 3.322,-7.771 z m 5.463,17.733 c -0.067,0.154 -0.26,0.279 -0.427,0.279 h -4.05 c -0.168,0 -0.358,-0.127 -0.423,-0.28 L 483.038,748.73 h 6.531 c 0.167,0 0.358,0.126 0.424,0.28 l 3.819,8.932 h 11.481 l 3.819,-8.932 c 0.066,-0.154 0.256,-0.28 0.424,-0.28 h 6.54 z M 484.23,757.608 c 0,-2.606 -1.069,-4.981 -3.011,-6.687 -1.909,-1.679 -4.548,-2.603 -7.431,-2.603 -3.869,0 -7.074,0.963 -10.088,3.03 l -0.353,0.241 v 7.342 c 0,0.168 0.137,0.304 0.305,0.304 0.098,0 0.184,-0.046 0.24,-0.117 1.225,-1.604 4.481,-5.143 9.342,-5.143 3.486,0 4.784,1.919 4.784,3.13 0,2.523 -2.888,4.11 -6.23,5.948 -4.051,2.226 -8.642,4.75 -8.642,9.817 0,2.747 1.093,5.068 3.161,6.713 2.005,1.596 4.801,2.44 8.086,2.44 2.788,0 5.583,-0.801 8.085,-2.317 l 0.391,-0.237 v -6.588 c 0,-0.168 -0.136,-0.304 -0.305,-0.304 -0.066,0 -0.128,0.022 -0.178,0.059 -1.172,1.107 -4.374,3.73 -8.396,3.73 -2.727,0 -4.632,-1.193 -4.632,-2.9 0,-2.13 2.595,-3.462 5.602,-5.006 4.13,-2.12 9.27,-4.759 9.27,-10.852 m -35.427,11.823 c -0.962,-0.981 -2.632,-1.478 -4.965,-1.478 h -2.364 v 8.184 h 2.364 c 5.267,0 5.915,-2.239 5.944,-3.925 0.022,-1.16 -0.307,-2.096 -0.979,-2.781 m 13.657,-18.799 c -2.01,2.526 -2.842,3.572 -4.185,5.551 l -0.112,0.166 c -2.206,3.277 -4.01,5.96 -6.545,7.883 3.16,1.605 4.879,4.333 4.879,7.813 0,2.913 -1.159,5.349 -3.352,7.047 -2.128,1.648 -5.155,2.519 -8.752,2.519 H 434.91 V 748.73 h 6.159 c 0.223,0 0.405,0.183 0.405,0.406 v 13.16 h 1.255 c 2.137,0 3.994,-0.488 8.462,-6.806 l 4.545,-6.428 c 0.129,-0.182 0.417,-0.332 0.64,-0.332 h 7.597 z"
       id="path2470"
       style="fill:#696566;fill-opacity:1;fill-rule:nonzero;stroke:none" /><g
       id="g2472"><g
         clip-path="url(#clipPath2476)"
         id="g2474"><path
           d="m 519.093,772.067 c -0.088,-0.147 -0.045,-0.348 0.097,-0.446 l 0.263,-0.183 c 0.142,-0.098 0.35,-0.072 0.463,0.058 l 0.725,0.834 c -0.294,0.291 -0.575,0.595 -0.844,0.91 z m 3.613,-2.091 c -0.056,-0.163 0.028,-0.35 0.187,-0.417 l 0.244,-0.101 c 0.158,-0.067 0.357,0.003 0.44,0.153 l 0.187,0.34 c -0.299,0.171 -0.592,0.354 -0.878,0.546 z m -6.707,4.894 c -0.118,-0.126 -0.117,-0.331 10e-4,-0.457 l 0.258,-0.274 c 0.118,-0.126 0.328,-0.144 0.465,-0.04 l 1.596,1.198 c -0.254,0.427 -0.487,0.866 -0.699,1.319 z m 29.347,19.107 c -0.02,0.15 -0.151,0.241 -0.307,0.206 l -1.169,-0.264 1.397,0.984 c -0.094,0.813 -0.254,1.605 -0.471,2.37 -0.048,0.158 -0.207,0.23 -0.359,0.159 l -2.225,-1.03 2.11,2.27 c -0.259,0.656 -0.562,1.288 -0.907,1.893 -0.082,0.149 -0.261,0.187 -0.398,0.084 l -2.918,-2.192 2.244,3.735 c -0.371,0.493 -0.774,0.96 -1.202,1.402 -0.119,0.107 -0.294,0.098 -0.402,-0.025 l -3.103,-3.569 1.774,5.124 c -0.427,0.323 -0.873,0.623 -1.333,0.9 -0.145,0.083 -0.329,0.033 -0.41,-0.115 v 0 l -2.722,-4.928 0.741,5.885 c 0.021,0.168 -0.09,0.35 -0.247,0.41 -0.351,0.127 -0.709,0.24 -1.071,0.341 h -0.001 c -0.166,0.047 -0.342,-0.049 -0.392,-0.214 l -1.827,-6.037 -0.002,-0.003 -0.539,6.498 c -0.015,0.172 -0.167,0.312 -0.34,0.312 h -0.999 c -0.173,0 -0.325,-0.14 -0.339,-0.312 l -0.557,-6.706 -1.928,6.442 c -0.05,0.165 -0.228,0.271 -0.397,0.235 l -0.921,-0.196 c -0.169,-0.036 -0.289,-0.205 -0.267,-0.376 l 0.887,-6.88 -3.317,6.088 c -0.082,0.151 -0.278,0.217 -0.436,0.147 l -0.81,-0.36 c -0.156,-0.07 -0.238,-0.26 -0.181,-0.423 l 2.377,-6.741 -4.639,5.432 c -0.112,0.13 -0.317,0.155 -0.457,0.054 l -0.671,-0.488 c -0.139,-0.101 -0.179,-0.304 -0.09,-0.451 l 3.848,-6.277 -5.83,4.488 c -0.136,0.105 -0.342,0.086 -0.457,-0.042 l -0.518,-0.574 c -0.116,-0.128 -0.112,-0.335 0.007,-0.46 l 5.225,-5.49 -6.826,3.282 c -0.156,0.075 -0.354,0.013 -0.439,-0.136 l -0.359,-0.62 c -0.086,-0.149 -0.039,-0.351 0.102,-0.448 l 6.442,-4.399 -7.572,1.853 c -0.166,0.042 -0.347,-0.059 -0.4,-0.223 l -0.204,-0.627 c -0.054,-0.163 0.033,-0.351 0.193,-0.417 l 6.686,-2.734 c 2.377,3.874 6.477,6.62 11.331,7.093 0.342,0.036 0.687,0.054 1.039,0.054 5.466,0 9.897,-4.43 9.897,-9.897 0,-5.191 -3.996,-9.447 -9.08,-9.863 h 10e-4 c 5.215,0.432 9.584,3.483 11.924,7.753 1.302,2.377 1.975,5.132 1.814,8.023 m -28.897,-13.68 -2.889,-2.037 c -0.141,-0.099 -0.183,-0.301 -0.094,-0.448 l 0.225,-0.37 c 0.09,-0.148 0.29,-0.209 0.447,-0.137 l 2.73,1.264 c -0.173,0.562 -0.312,1.138 -0.419,1.728 m -5.437,9.203 6.204,-1.112 c 0.29,0.747 0.638,1.466 1.039,2.152 l -7.11,0.228 c -0.171,0.005 -0.326,-0.13 -0.344,-0.302 l -0.064,-0.599 c -0.018,-0.172 0.106,-0.337 0.275,-0.367 m 5.943,-1.844 -5.94,-1.055 c -0.169,-0.031 -0.293,-0.195 -0.276,-0.367 l 0.058,-0.543 c 0.018,-0.172 0.173,-0.307 0.346,-0.301 l 5.289,0.177 c 0.124,0.714 0.3,1.411 0.523,2.089 m -0.715,-3.701 -4.351,-1.869 c -0.158,-0.069 -0.241,-0.258 -0.184,-0.42 l 0.161,-0.463 c 0.057,-0.162 0.241,-0.264 0.409,-0.226 l 3.974,0.903 c -0.051,0.7 -0.052,1.393 -0.009,2.075"
           id="path2480"
           style="fill:#472380;fill-opacity:1;fill-rule:nonzero;stroke:none" /><path
           d="m 549.846,782.58 -6.685,2.734 c -2.371,-3.863 -6.457,-6.605 -11.294,-7.089 v 10e-4 c -0.355,-0.038 -0.714,-0.059 -1.077,-0.059 -5.466,0 -9.897,4.431 -9.897,9.897 0,5.116 3.881,9.324 8.858,9.843 -8.098,-0.79 -14.098,-7.903 -13.502,-16.027 l 1.461,0.33 -1.142,-0.804 c -0.004,-0.002 -0.008,-0.005 -0.012,-0.007 v 0 c -0.14,-0.099 -0.233,-0.32 -0.205,-0.489 l -10e-4,-0.002 0.003,-0.002 c 0.111,-0.803 0.284,-1.583 0.515,-2.337 l 2.499,1.157 -1.904,-2.048 h 0.001 c -0.118,-0.126 -0.157,-0.358 -0.087,-0.515 0,0 -10e-4,0 -10e-4,-10e-4 0.272,-0.647 0.588,-1.269 0.943,-1.865 l 3.161,2.375 -2.093,-3.483 c -0.082,-0.148 -0.065,-0.371 0.041,-0.502 0.377,-0.477 0.782,-0.931 1.213,-1.358 l 3.302,3.8 -1.685,-4.869 c -0.036,-0.158 0.033,-0.349 0.163,-0.442 v 0 c 0.432,-0.312 0.88,-0.602 1.343,-0.867 l 2.868,5.191 -0.74,-5.879 c -0.021,-0.168 0.088,-0.349 0.246,-0.41 0.352,-0.126 0.71,-0.24 1.073,-0.341 h 0.002 c 0.165,-0.047 0.342,0.049 0.392,0.214 l 1.822,6.029 c 0.004,0.007 0.007,0.011 0.007,0.011 l 0.539,-6.499 c 0.014,-0.171 0.167,-0.312 0.34,-0.312 h 0.999 c 0.171,0 0.324,0.141 0.338,0.312 l 0.557,6.707 1.929,-6.442 c 0.049,-0.165 0.227,-0.271 0.396,-0.235 l 0.922,0.196 c 0.168,0.036 0.289,0.205 0.266,0.375 l -0.887,6.881 3.317,-6.088 c 0.083,-0.151 0.279,-0.218 0.436,-0.147 l 0.81,0.36 c 0.156,0.07 0.239,0.26 0.181,0.422 l -2.376,6.742 4.639,-5.432 c 0.112,-0.131 0.317,-0.155 0.456,-0.054 l 0.671,0.487 c 0.14,0.102 0.18,0.305 0.091,0.451 l -3.848,6.278 5.829,-4.488 c 0.137,-0.106 0.343,-0.087 0.459,0.042 l 0.516,0.574 c 0.116,0.128 0.113,0.335 -0.006,0.46 l -5.226,5.489 6.826,-3.281 c 0.156,-0.075 0.354,-0.014 0.44,0.135 l 0.359,0.621 c 0.085,0.149 0.039,0.351 -0.103,0.448 l -6.441,4.398 7.572,-1.853 c 0.166,-0.041 0.347,0.059 0.4,0.223 l 0.204,0.628 c 0.053,0.163 -0.034,0.351 -0.193,0.416 m 0.721,4.049 -6.203,1.112 c -0.289,-0.747 -0.637,-1.466 -1.038,-2.152 l 7.108,-0.228 c 0.172,-0.006 0.327,0.13 0.346,0.301 l 0.063,0.6 c 0.018,0.171 -0.107,0.337 -0.276,0.367 m -10.926,19.162 c 0.056,0.163 -0.025,0.356 -0.181,0.428 l -0.238,0.112 c -0.156,0.073 -0.352,0.01 -0.435,-0.141 l -0.248,-0.454 c 0.298,-0.193 0.588,-0.398 0.871,-0.612 z m 4.986,-17.318 5.937,1.055 c 0.17,0.03 0.294,0.196 0.276,0.367 l -0.057,0.542 c -0.018,0.172 -0.174,0.308 -0.346,0.302 l -5.288,-0.177 c -0.125,-0.714 -0.3,-1.412 -0.522,-2.089 m 0.621,2.746 4.685,2.013 c 0.158,0.068 0.247,0.258 0.197,0.423 l -0.142,0.469 c -0.05,0.165 -0.228,0.268 -0.396,0.23 l -4.224,-0.963 c 0.013,-0.735 -0.028,-1.461 -0.12,-2.172 m 0.884,9.397 c 0.117,0.126 0.121,0.336 0.008,0.467 l -0.247,0.284 c -0.113,0.131 -0.317,0.152 -0.454,0.048 l -1.762,-1.329 c 0.239,-0.458 0.454,-0.929 0.646,-1.414 z m -0.864,-5.713 3.156,2.223 c 0.141,0.099 0.188,0.304 0.104,0.454 l -0.208,0.38 c -0.084,0.151 -0.28,0.215 -0.436,0.142 l -2.945,-1.37 c 0.146,-0.595 0.256,-1.206 0.329,-1.829 m -2.923,7.287 c -0.259,0.343 -0.532,0.675 -0.82,0.993 l 0.837,0.967 c 0.113,0.13 0.318,0.152 0.455,0.048 l 0.255,-0.194 c 0.138,-0.103 0.178,-0.309 0.088,-0.457 z"
           id="path2482"
           style="fill:#d7058d;fill-opacity:1;fill-rule:nonzero;stroke:none" /></g></g></g><g
     id="g6"
     transform="matrix(0.138908,0,0,0.138908,3.8964149,12.495754)"><path
       d="m 219.71,55.3 v 50.48 h -0.25 l -33.92,-30.62 0.2,28.66 h -9.68 V 53.44 h 0.39 l 33.87,31.12 -0.2,-29.2 h 9.59 v -0.05 z m 48.96,0 v 9.24 h -23.5 v 10.32 h 20.79 v 9.24 h -20.79 v 10.47 h 24.43 v 9.24 H 235.58 V 55.34 h 33.08 v -0.05 z m 24.09,0 v 48.47 h -9.54 V 55.3 Z m 25.51,0 v 39.28 h 22.81 v 9.24 H 308.74 V 55.35 h 9.54 V 55.3 Z m 51.61,8.26 c -2.11,0 -3.74,0.44 -4.92,1.23 -1.18,0.84 -1.77,2.06 -1.77,3.74 0,1.52 0.84,2.9 2.56,4.03 1.67,1.18 3.93,2.26 6.73,3.34 2.26,0.84 4.23,1.77 5.85,2.85 1.62,1.08 3,2.56 4.03,4.42 1.08,1.87 1.62,4.28 1.62,7.18 0,2.51 -0.64,4.82 -1.97,6.93 -1.28,2.11 -3.2,3.83 -5.7,5.06 -2.51,1.23 -5.51,1.87 -8.95,1.87 -2.9,0 -5.75,-0.44 -8.65,-1.28 -2.85,-0.84 -5.51,-2.16 -7.96,-3.93 l 4.23,-7.42 c 1.67,1.23 3.59,2.26 5.75,3.05 2.16,0.79 4.08,1.18 5.8,1.18 2.02,0 3.79,-0.44 5.26,-1.28 1.47,-0.84 2.26,-2.26 2.26,-4.18 0,-2.51 -2.36,-4.67 -7.03,-6.54 -2.75,-1.08 -5.06,-2.16 -6.93,-3.15 -1.87,-1.03 -3.44,-2.46 -4.77,-4.33 -1.33,-1.87 -2.02,-4.28 -2.02,-7.13 0,-4.18 1.38,-7.52 4.13,-10.08 2.75,-2.56 6.39,-3.93 10.96,-4.13 3.59,0 6.59,0.39 9.04,1.23 2.41,0.84 4.77,1.97 7.03,3.44 l -3.64,7.32 C 376.64,64.72 373,63.54 369.86,63.54 Z m 27.24,3.74 c 2.21,-3.83 5.21,-6.88 9.04,-9.14 3.79,-2.26 7.91,-3.39 12.34,-3.39 4.43,0 8.55,1.13 12.34,3.39 3.79,2.26 6.83,5.31 9.09,9.14 2.26,3.83 3.39,7.91 3.39,12.34 0,4.43 -1.13,8.6 -3.39,12.39 -2.26,3.79 -5.31,6.78 -9.09,9 -3.78,2.22 -7.91,3.34 -12.34,3.34 -4.43,0 -8.6,-1.13 -12.39,-3.34 -3.79,-2.21 -6.78,-5.21 -9,-9 -2.21,-3.79 -3.34,-7.91 -3.34,-12.39 0,-4.48 1.13,-8.5 3.34,-12.34 z m 8.55,20.1 c 1.33,2.36 3.15,4.23 5.46,5.65 2.31,1.38 4.87,2.06 7.67,2.06 2.8,0 5.21,-0.69 7.42,-2.06 2.26,-1.38 3.98,-3.24 5.26,-5.6 1.28,-2.36 1.92,-4.96 1.92,-7.82 0,-2.86 -0.64,-5.55 -1.97,-7.91 -1.33,-2.36 -3.1,-4.23 -5.36,-5.65 -2.26,-1.38 -4.77,-2.06 -7.52,-2.06 -2.75,0 -5.26,0.69 -7.52,2.06 -2.26,1.38 -4.03,3.24 -5.36,5.65 -1.33,2.36 -1.97,5.01 -1.97,7.91 -0.05,2.8 0.64,5.41 1.97,7.77 z M 500,55.3 v 50.48 h -0.25 l -33.92,-30.62 0.2,28.66 h -9.68 V 53.44 h 0.39 l 33.87,31.12 -0.2,-29.2 H 500 v -0.05 z"
       style="fill:#1a1a1a;stroke-width:0"
       id="path1-0" /><path
       d="M 137.4,103.78 C 133.74,42.47 93.02,8.64 93.02,8.64 108.31,28.56 109.8,56.16 108.21,76.49 97.4,34.75 76.19,12.15 56.68,0 33.31,14.62 7.46,44.12 0,103.78 h 38.87 c 0,0 -5.92,-34.7 17.81,-73.51 23.68,38.82 17.76,73.51 17.76,73.51 z"
       style="fill:#ff7500;stroke-width:0"
       id="path2-3" /></g><g
     id="g54"
     transform="matrix(2.4857518,0,0,2.4857518,579.41798,-848.94849)"><path
       id="path16"
       d="m -155.97552,349.72166 h -3.65918 a 2.1166666,2.1166666 0 0 0 0.13758,0.79375 1.476375,1.476375 0 0 0 0.92869,0.87842 2.1960416,2.1960416 0 0 0 0.70114,0.10583 2.7543125,2.7543125 0 0 0 1.02129,-0.20372 2.5003125,2.5003125 0 0 0 0.7329,-0.40217 h 0.0344 v 0.91546 a 6.9320832,6.9320832 0 0 1 -0.86784,0.29898 3.5321875,3.5321875 0 0 1 -0.93133,0.1217 2.682875,2.682875 0 0 1 -1.9341,-0.66675 q -0.6985,-0.67204 -0.6985,-1.91293 a 2.7437291,2.7437291 0 0 1 0.66939,-1.94469 2.2886458,2.2886458 0 0 1 1.75948,-0.71967 2.016125,2.016125 0 0 1 1.5584,0.59267 2.38125,2.38125 0 0 1 0.54768,1.6854 v 0.45772 m -0.81227,-0.65352 a 1.5134166,1.5134166 0 0 0 -0.33073,-1.02393 1.2673542,1.2673542 0 0 0 -0.99483,-0.37571 1.4393333,1.4393333 0 0 0 -1.05833,0.40216 1.5689791,1.5689791 0 0 0 -0.45244,0.99748 z"
       class="cls-1"
       inkscape:connector-curvature="0"
       style="fill:#006bac;stroke-width:0.264583" /><path
       id="path18"
       d="m -150.9405,350.67152 a 1.36525,1.36525 0 0 1 -0.56356,1.12448 2.4526875,2.4526875 0 0 1 -1.54252,0.43921 3.7041666,3.7041666 0 0 1 -1.016,-0.1323 4.4979166,4.4979166 0 0 1 -0.77523,-0.28839 v -0.94721 h 0.045 a 3.2914166,3.2914166 0 0 0 0.87842,0.48683 2.6458333,2.6458333 0 0 0 0.92869,0.17992 1.7065625,1.7065625 0 0 0 0.86254,-0.18256 0.61912499,0.61912499 0 0 0 0.30956,-0.57415 0.57414583,0.57414583 0 0 0 -0.16933,-0.44979 1.5213541,1.5213541 0 0 0 -0.65088,-0.26458 q -0.17727,-0.0397 -0.46567,-0.0952 -0.28839,-0.0556 -0.52916,-0.11642 a 1.7383125,1.7383125 0 0 1 -0.92869,-0.51329 1.2832292,1.2832292 0 0 1 -0.26458,-0.83079 1.3599583,1.3599583 0 0 1 0.127,-0.58209 1.3996458,1.3996458 0 0 1 0.38629,-0.48948 1.8520833,1.8520833 0 0 1 0.63764,-0.32808 2.8575,2.8575 0 0 1 0.86784,-0.12171 3.9078958,3.9078958 0 0 1 0.90752,0.10848 3.4395833,3.4395833 0 0 1 0.76464,0.26459 v 0.89958 h -0.045 a 2.9897916,2.9897916 0 0 0 -0.78053,-0.40746 2.6458333,2.6458333 0 0 0 -0.89958,-0.16669 1.5451666,1.5451666 0 0 0 -0.77523,0.17992 0.58208333,0.58208333 0 0 0 -0.3175,0.52917 0.56620833,0.56620833 0 0 0 0.1905,0.46566 1.4843125,1.4843125 0 0 0 0.6059,0.26459 q 0.23019,0.0529 0.52916,0.10848 c 0.1905,0.0344 0.3519,0.0688 0.4789,0.0979 a 1.7700625,1.7700625 0 0 1 0.89958,0.46302 1.222375,1.222375 0 0 1 0.31486,0.87842"
       class="cls-1"
       inkscape:connector-curvature="0"
       style="fill:#006bac;stroke-width:0.264583" /><path
       id="path20"
       d="m -145.68322,352.12408 h -0.84403 v -0.55033 a 4.1063333,4.1063333 0 0 1 -0.8202,0.51594 2.0425833,2.0425833 0 0 1 -0.8599,0.17991 1.5875,1.5875 0 0 1 -1.22767,-0.48154 2.0293541,2.0293541 0 0 1 -0.4392,-1.41287 v -3.24644 h 0.84402 v 2.85221 a 5.0799999,5.0799999 0 0 0 0.037,0.65352 1.1826875,1.1826875 0 0 0 0.15081,0.46302 0.71966666,0.71966666 0 0 0 0.31221,0.28839 1.3731875,1.3731875 0 0 0 0.56092,0.09 1.7859375,1.7859375 0 0 0 0.71437,-0.16933 3.3152291,3.3152291 0 0 0 0.72231,-0.43392 v -3.74385 h 0.84402 v 4.99533"
       class="cls-1"
       inkscape:connector-curvature="0"
       style="fill:#006bac;stroke-width:0.264583" /><path
       id="path22"
       d="m -141.28056,348.04421 h -0.045 a 3.3760833,3.3760833 0 0 0 -0.36512,-0.0609 4.1089791,4.1089791 0 0 0 -0.41804,-0.0185 1.7250833,1.7250833 0 0 0 -0.74084,0.16404 3.4395833,3.4395833 0 0 0 -0.70643,0.4445 v 3.55071 h -0.84138 v -4.99533 h 0.84402 v 0.73819 a 4.1407291,4.1407291 0 0 1 0.88371,-0.5715 1.9235208,1.9235208 0 0 1 0.78052,-0.16669 q 0.2196,0 0.3175,0 l 0.29369,0.0423 v 0.87313"
       class="cls-1"
       inkscape:connector-curvature="0"
       style="fill:#006bac;stroke-width:0.264583" /><path
       id="path24"
       d="m -136.02858,349.72166 h -3.64596 a 2.1166666,2.1166666 0 0 0 0.13759,0.79375 1.476375,1.476375 0 0 0 0.92075,0.88371 2.1986875,2.1986875 0 0 0 0.70114,0.10584 2.7569583,2.7569583 0 0 0 1.02129,-0.20373 2.5108958,2.5108958 0 0 0 0.7329,-0.40217 h 0.045 v 0.91546 a 6.9267916,6.9267916 0 0 1 -0.86783,0.29898 3.5321875,3.5321875 0 0 1 -0.93134,0.12171 2.682875,2.682875 0 0 1 -1.94204,-0.67469 q -0.6985,-0.67204 -0.6985,-1.91294 a 2.7437291,2.7437291 0 0 1 0.6694,-1.94469 2.2886458,2.2886458 0 0 1 1.75154,-0.71702 2.016125,2.016125 0 0 1 1.55839,0.59267 2.38125,2.38125 0 0 1 0.54769,1.6854 v 0.45772 m -0.81227,-0.65352 a 1.5134166,1.5134166 0 0 0 -0.33073,-1.02393 1.2673542,1.2673542 0 0 0 -0.99483,-0.37571 1.4366875,1.4366875 0 0 0 -1.05834,0.40216 1.571625,1.571625 0 0 0 -0.44979,1.00013 z"
       class="cls-1"
       inkscape:connector-curvature="0"
       style="fill:#006bac;stroke-width:0.264583" /></g><g
     transform="matrix(1.835034,0,0,1.835034,179.19387,-106.17963)"
     id="layer1"><path
       id="path4498"
       style="fill:#b72e2a;fill-opacity:1;fill-rule:nonzero;stroke:none;stroke-width:0.352778"
       d="m 44.755972,74.621992 h 11.83922 V 62.78277 h -11.83922 z" /><g
       transform="matrix(0.35277777,0,0,-0.35277777,52.842162,66.589701)"
       id="g4500"><path
         id="path4502"
         style="fill:#ffffff;fill-opacity:1;fill-rule:nonzero;stroke:none"
         d="m 0,0 v 3.169 h -9.972 v -6.8 h -0.271 -1.881 v -2.164 h 0.596 1.556 v -1.71 h -0.333 -1.819 v -2.167 h 0.532 1.62 v -6.657 h 3.846 v 6.657 h 3.414 l 0.967,2.167 h -4.381 v 0.726 0.984 h 5.163 L 0,-3.631 H -6.126 V 0 Z" /></g><g
       style="fill:#006092;fill-opacity:1"
       id="g4504"
       transform="matrix(0.35277777,0,0,-0.35277777,10.256062,354.2827)"><g
         style="fill:#006092;fill-opacity:1"
         clip-path="url(#clipPath4510-8)"
         id="g4506"><path
           id="path4512"
           style="fill:#006092;fill-opacity:1;fill-rule:nonzero;stroke:none"
           d="m 148.85,812.882 h 3.302 v -10.607 h -3.302 z m 12.937,-10.584 v 1.493 h -0.041 c -0.852,-1.265 -2.097,-1.785 -3.468,-1.785 -2.968,0 -4.983,2.676 -4.983,5.643 0,2.966 1.872,5.602 4.94,5.602 1.373,0 2.389,-0.435 3.386,-1.743 h 0.043 v 6.938 0.278 h 2.987 v -0.278 -16.148 z m -0.021,5.309 c 0,1.602 -0.872,3.111 -2.74,3.111 -1.721,0 -2.616,-1.536 -2.616,-3.153 0,-1.679 0.935,-3.154 2.698,-3.154 1.703,0 2.658,1.411 2.658,3.196 m 14.832,0 v -0.83 h -7.805 c 0.123,-1.241 0.891,-2.49 2.491,-2.49 0.916,0 1.723,0.437 2.138,1.267 l 2.907,-0.225 c -0.726,-2.183 -2.68,-3.323 -5.191,-3.323 -3.22,0 -5.459,2.199 -5.459,5.601 0,3.445 2.239,5.644 5.459,5.644 3.22,0 5.46,-2.199 5.46,-5.644 m -2.986,1.079 c -0.108,1.037 -0.896,2.281 -2.328,2.281 -1.557,0 -2.326,-1.079 -2.491,-2.281 z m 4.069,9.76 v -16.148 h 2.993 v 16.148 0.278 h -2.993 z m 5.947,0.655 c -0.998,0 -1.745,-0.888 -1.745,-1.764 0,-0.827 0.747,-1.718 1.745,-1.718 0.955,0 1.741,0.851 1.741,1.761 0,0.955 -0.849,1.721 -1.741,1.721 m -33.129,0 c -0.995,0 -1.743,-0.888 -1.743,-1.764 0,-0.827 0.748,-1.718 1.743,-1.718 0.958,0 1.741,0.851 1.741,1.761 0,0.955 -0.848,1.721 -1.741,1.721 m 31.632,-16.803 h 2.993 v 10.664 h -2.993 z m 10.079,2.344 c -0.182,-0.042 -0.348,-0.064 -0.6,-0.064 -0.769,0 -0.975,0.229 -0.975,0.706 v 5.397 h 1.575 v 2.281 h -1.575 v 3.336 h -2.992 v -3.336 h -1.367 v -2.281 h 1.367 v -5.729 c 0,-2.302 1.184,-2.779 3.136,-2.779 0.48,0 0.955,0.064 1.431,0.125 z m 3.707,-5.379 h 3.125 l 5.163,13.699 h -3.283 l -2.263,-7.055 h -0.04 l -2.265,7.055 h -3.276 l 4.004,-10.664 z M 137.3,809.914 v -1.857 h 1.569 v -5.82 h 3.3 v 5.82 h 3.116 l 0.826,1.857 h -3.942 v 1.085 h 4.427 l 0.826,1.857 h -5.253 v 3.116 h 5.253 v 2.71 h -8.553 v -5.826 H 137.3 v -1.857 h 1.569 v -1.085 z" /></g></g><path
       id="path4522"
       style="fill:#006092;fill-opacity:1;fill-rule:nonzero;stroke:none;stroke-width:0.352778"
       d="m 59.245962,74.596239 h 0.32138 v -1.322917 h -0.32138 z" /><g
       style="fill:#006092;fill-opacity:1"
       transform="matrix(0.35277777,0,0,-0.35277777,60.735282,74.596133)"
       id="g4524"><path
         id="path4526"
         style="fill:#006092;fill-opacity:1;fill-rule:nonzero;stroke:none"
         d="M 0,0 H -0.911 V 3.75 H 0 L 1.366,1.642 V 3.75 H 2.277 V 0 H 1.366 L 0,2.137 Z" /></g><g
       style="fill:#006092;fill-opacity:1"
       transform="matrix(0.35277777,0,0,-0.35277777,62.888712,74.596133)"
       id="g4528"><path
         id="path4530"
         style="fill:#006092;fill-opacity:1;fill-rule:nonzero;stroke:none"
         d="M 0,0 H -0.911 V 3.014 H -1.777 V 3.75 H 0.86 V 3.014 H 0 Z" /></g><g
       style="fill:#006092;fill-opacity:1"
       transform="matrix(0.35277777,0,0,-0.35277777,64.207322,73.802736)"
       id="g4532"><path
         id="path4534"
         style="fill:#006092;fill-opacity:1;fill-rule:nonzero;stroke:none"
         d="M 0,0 H 1.237 V -0.737 H 0 v -0.776 h 1.237 v -0.736 h -2.148 v 3.75 H 1.237 V 0.765 H 0 Z" /></g><g
       style="fill:#006092;fill-opacity:1"
       id="g4536"
       transform="matrix(0.35277777,0,0,-0.35277777,10.256062,354.2827)"><g
         style="fill:#006092;fill-opacity:1"
         clip-path="url(#clipPath4542-4)"
         id="g4538"><g
           style="fill:#006092;fill-opacity:1"
           transform="translate(157.3673,792.8123)"
           id="g4544"><path
             id="path4546"
             style="fill:#006092;fill-opacity:1;fill-rule:nonzero;stroke:none"
             d="M 0,0 H -0.911 V 3.75 H 0.304 C 0.799,3.75 1.158,3.66 1.406,3.469 1.664,3.267 1.811,2.929 1.811,2.519 1.811,1.951 1.569,1.569 1.085,1.378 L 1.912,0 H 0.821 L 0,1.451 Z m 0.293,1.962 c 0.376,0 0.595,0.191 0.595,0.517 0,0.316 -0.213,0.523 -0.54,0.523 H 0 v -1.04 z" /></g></g></g><g
       style="fill:#006092;fill-opacity:1"
       transform="matrix(0.35277777,0,0,-0.35277777,67.560232,74.596133)"
       id="g4548"><path
         id="path4550"
         style="fill:#006092;fill-opacity:1;fill-rule:nonzero;stroke:none"
         d="M 0,0 H -0.91 V 3.75 H 0 L 1.367,1.642 V 3.75 h 0.91 V 0 H 1.367 L 0,2.137 Z" /></g><g
       style="fill:#006092;fill-opacity:1"
       transform="matrix(0.35277777,0,0,-0.35277777,69.473342,74.405739)"
       id="g4552"><path
         id="path4554"
         style="fill:#006092;fill-opacity:1;fill-rule:nonzero;stroke:none"
         d="M 0,0 -0.163,-0.54 H -1.136 L 0.101,3.21 H 1.26 L 2.491,-0.54 H 1.49 L 1.327,0 Z M 0.663,2.136 0.225,0.737 h 0.877 z" /></g><g
       style="fill:#006092;fill-opacity:1"
       transform="matrix(0.35277777,0,0,-0.35277777,71.516172,74.596133)"
       id="g4556"><path
         id="path4558"
         style="fill:#006092;fill-opacity:1;fill-rule:nonzero;stroke:none"
         d="M 0,0 H -0.911 V 3.014 H -1.777 V 3.75 H 0.86 V 3.014 H 0 Z" /></g><path
       id="path4560"
       style="fill:#006092;fill-opacity:1;fill-rule:nonzero;stroke:none;stroke-width:0.352778"
       d="m 72.671982,74.596239 h 0.32173 v -1.322917 h -0.32173 z" /><g
       style="fill:#006092;fill-opacity:1"
       id="g4562"
       transform="matrix(0.35277777,0,0,-0.35277777,10.256062,354.2827)"><g
         style="fill:#006092;fill-opacity:1"
         clip-path="url(#clipPath4568-5)"
         id="g4564"><g
           style="fill:#006092;fill-opacity:1"
           transform="translate(183.9129,794.6791)"
           id="g4570"><path
             id="path4572"
             style="fill:#006092;fill-opacity:1;fill-rule:nonzero;stroke:none"
             d="m 0,0 c 0,-1.074 -0.877,-1.94 -1.962,-1.94 -1.119,0 -2.006,0.854 -2.006,1.934 0,0.545 0.219,1.052 0.629,1.439 0.359,0.338 0.848,0.523 1.399,0.523 C -0.831,1.956 0,1.118 0,0 m -3.042,0.005 c 0,-0.618 0.467,-1.102 1.063,-1.102 0.584,0 1.057,0.484 1.057,1.085 0,0.641 -0.45,1.124 -1.051,1.124 -0.614,0 -1.069,-0.471 -1.069,-1.107" /></g></g></g><g
       style="fill:#006092;fill-opacity:1"
       transform="matrix(0.35277777,0,0,-0.35277777,76.161762,74.596133)"
       id="g4574"><path
         id="path4576"
         style="fill:#006092;fill-opacity:1;fill-rule:nonzero;stroke:none"
         d="M 0,0 H -0.911 V 3.75 H 0 L 1.366,1.642 V 3.75 H 2.277 V 0 H 1.366 L 0,2.137 Z" /></g><g
       style="fill:#006092;fill-opacity:1"
       transform="matrix(0.35277777,0,0,-0.35277777,78.089132,74.405739)"
       id="g4578"><path
         id="path4580"
         style="fill:#006092;fill-opacity:1;fill-rule:nonzero;stroke:none"
         d="m 0,0 -0.163,-0.54 h -0.972 l 1.236,3.75 h 1.158 l 1.232,-3.75 h -1 L 1.327,0 Z M 0.664,2.136 0.225,0.737 h 0.877 z" /></g><g
       style="fill:#006092;fill-opacity:1"
       transform="matrix(0.35277777,0,0,-0.35277777,80.439012,74.336453)"
       id="g4582"><path
         id="path4584"
         style="fill:#006092;fill-opacity:1;fill-rule:nonzero;stroke:none"
         d="m 0,0 v -0.736 h -2.131 v 3.75 h 0.912 V 0 Z" /></g></g></svg>
