<?xml version="1.0" encoding="UTF-8" standalone="no"?>
<!-- Generator: Adobe Illustrator 16.0.0, SVG Export Plug-In . SVG Version: 6.00 Build 0)  -->

<svg
   version="1.1"
   id="Layer_1"
   x="0px"
   y="0px"
   width="558.56085"
   height="312.07001"
   viewBox="0 0 558.56084 312.07"
   enable-background="new 0 0 569.273 312.07"
   xml:space="preserve"
   sodipodi:docname="A&amp;E_Networks.svg"
   inkscape:version="1.4 (e7c3feb1, 2024-10-09)"
   xmlns:inkscape="http://www.inkscape.org/namespaces/inkscape"
   xmlns:sodipodi="http://sodipodi.sourceforge.net/DTD/sodipodi-0.dtd"
   xmlns="http://www.w3.org/2000/svg"
   xmlns:svg="http://www.w3.org/2000/svg"><defs
   id="defs21" /><sodipodi:namedview
   id="namedview21"
   pagecolor="#ffffff"
   bordercolor="#000000"
   borderopacity="0.25"
   inkscape:showpageshadow="2"
   inkscape:pageopacity="0.0"
   inkscape:pagecheckerboard="0"
   inkscape:deskcolor="#d1d1d1"
   inkscape:zoom="1.055912"
   inkscape:cx="253.80902"
   inkscape:cy="308.26432"
   inkscape:window-width="1800"
   inkscape:window-height="1098"
   inkscape:window-x="0"
   inkscape:window-y="71"
   inkscape:window-maximized="0"
   inkscape:current-layer="Layer_1" />
<g
   id="g21"
   transform="translate(-2.630969e-4)">
	<path
   fill="#5f6062"
   d="m 455.436,158.472 c -2.761,0 -5.062,-2.288 -5.062,-5.076 v -34.111 c 0,-2.781 2.301,-5.055 5.062,-5.055 h 65.388 c 2.794,0 5.081,-2.294 5.081,-5.088 V 79.571 c 0,-2.795 -2.287,-5.075 -5.081,-5.075 h -65.388 c -2.761,0 -5.062,-2.28 -5.062,-5.068 V 41.02 c 0,-2.784 2.301,-5.058 5.062,-5.058 h 92.481 c 2.788,0 5.089,-2.301 5.089,-5.072 V 5.065 C 553.006,2.287 550.705,0 547.917,0 H 412.676 c -2.808,0 -5.095,2.287 -5.095,5.065 v 184.29 c 0,2.774 2.287,5.056 5.095,5.056 h 137.4 c 2.787,0 5.102,-2.281 5.102,-5.056 V 163.54 c 0,-2.795 -2.314,-5.068 -5.102,-5.068 h -94.64"
   id="path1" />
	<path
   fill="#5f6062"
   d="m 114.214,107.328 c 0.907,2.639 -0.629,4.811 -3.424,4.811 H 75.542 c -2.802,0 -4.297,-2.166 -3.37,-4.791 L 91.559,52.693 c 0.947,-2.619 1.833,-4.771 1.982,-4.771 0.142,0 1.022,2.172 1.922,4.798 l 18.751,54.608 m 69.278,87.082 c 2.774,0 4.283,-2.132 3.289,-4.737 L 117.638,4.761 C 116.67,2.148 113.571,0 110.79,0 H 77.105 c -2.781,0 -5.88,2.148 -6.882,4.754 L 0.309,189.673 c -0.994,2.605 0.494,4.737 3.289,4.737 h 32.86 c 2.794,0 5.84,-2.152 6.767,-4.784 l 11.591,-32.975 c 0.927,-2.639 3.986,-4.777 6.753,-4.777 h 63.1 c 2.788,0 5.799,2.172 6.686,4.811 l 11.172,32.921 c 0.906,2.646 3.918,4.805 6.726,4.805 h 34.239 z"
   id="path2" />
	<path
   fill="#ed0080"
   d="m 188.878,111.713 c 0,2.808 2.274,5.075 5.075,5.075 h 53.694 c 2.794,0 5.075,-2.267 5.075,-5.075 V 82.128 c 0,-2.781 -2.281,-5.062 -5.075,-5.062 h -53.694 c -2.801,0 -5.075,2.28 -5.075,5.062 v 29.585"
   id="path3" />
	<path
   fill="#00b4de"
   d="m 313.245,111.713 c 0,2.794 2.26,5.075 5.068,5.075 h 53.302 c 2.788,0 5.042,-2.281 5.042,-5.075 V 82.162 c 0,-2.794 -2.254,-5.068 -5.042,-5.068 h -53.302 c -2.809,0 -5.068,2.274 -5.068,5.068 v 29.551"
   id="path4" />
	<path
   fill="#f37021"
   d="m 263.103,132.487 c 0,-2.795 2.288,-5.082 5.062,-5.082 h 29.544 c 2.801,0 5.082,2.287 5.082,5.082 v 50.595 c 0,2.781 -2.281,5.055 -5.082,5.055 h -29.544 c -2.774,0 -5.062,-2.273 -5.062,-5.055 v -50.595"
   id="path5" />
	<path
   fill="#5f6062"
   d="m 263.103,60.272 c 0,2.774 2.288,5.068 5.062,5.068 h 29.544 c 2.801,0 5.082,-2.293 5.082,-5.068 V 6.997 c 0,-2.778 -2.281,-5.059 -5.082,-5.059 h -29.544 c -2.774,0 -5.062,2.281 -5.062,5.059 v 53.275"
   id="path6" />
	<path
   fill="#5f6062"
   d="m 557.086,288.813 c 0,-12.81 -9.183,-17.336 -23.894,-21.64 -12.918,-3.694 -16.308,-6.145 -16.308,-11.186 0,-4.818 3.722,-8.919 12.471,-8.919 7.349,0 16.281,6.098 16.281,6.098 0.582,0.419 1.55,0.324 2.023,-0.183 0,0 5.697,-5.454 5.887,-5.726 0.643,-0.649 0.447,-1.637 -0.189,-2.186 -6.381,-5.399 -13.669,-8.58 -23.149,-8.58 -13.736,0 -24.638,7.593 -24.638,20.01 0,12.829 7.545,16.626 23.339,21.146 12.512,3.573 16.856,6.361 16.856,11.89 0,7.01 -5.008,10.481 -15.436,10.481 -8.621,0 -18.392,-7.674 -18.392,-7.674 -0.569,-0.467 -1.489,-0.426 -2.051,0.088 0,0 -5.312,4.96 -5.786,5.394 -0.73,0.792 -0.696,1.786 0.129,2.599 6.246,6.232 15.117,10.164 25.227,10.164 19.057,0 27.63,-8.811 27.63,-21.776"
   id="path7" />
	<path
   fill="#5f6062"
   d="m 558.561,288.813 c 0,-3.369 -0.608,-6.293 -1.807,-8.81 -1.799,-3.783 -4.879,-6.564 -8.816,-8.757 -3.945,-2.192 -8.77,-3.856 -14.332,-5.487 h -0.007 c -6.408,-1.827 -10.394,-3.363 -12.56,-4.886 -1.096,-0.758 -1.726,-1.476 -2.111,-2.213 -0.386,-0.744 -0.562,-1.576 -0.562,-2.673 0.014,-2.03 0.731,-3.756 2.402,-5.116 1.672,-1.353 4.433,-2.334 8.587,-2.327 3.269,-0.014 7.214,1.414 10.252,2.896 1.522,0.737 2.835,1.481 3.756,2.036 0.467,0.271 0.825,0.508 1.076,0.663 l 0.276,0.183 0.089,0.062 0.832,-1.218 -0.873,1.19 c 0.562,0.399 1.178,0.548 1.76,0.548 0.777,-0.007 1.576,-0.243 2.219,-0.906 l -1.075,-1.015 1.021,1.068 c 0,0 1.421,-1.367 2.876,-2.768 0.724,-0.696 1.455,-1.414 2.023,-1.962 0.284,-0.277 0.514,-0.515 0.703,-0.704 l 0.23,-0.237 0.095,-0.101 0.149,-0.183 -1.219,-0.84 1.056,1.035 c 0.548,-0.555 0.818,-1.306 0.813,-1.989 -0.007,-0.934 -0.42,-1.752 -1.083,-2.348 l -0.014,-0.007 -0.007,-0.007 c -6.577,-5.575 -14.277,-8.945 -24.104,-8.925 -7.139,0 -13.614,1.962 -18.371,5.663 -4.771,3.675 -7.755,9.176 -7.741,15.821 0,3.349 0.494,6.205 1.542,8.654 1.584,3.708 4.419,6.395 8.235,8.485 3.83,2.104 8.676,3.722 14.63,5.421 6.198,1.772 10.313,3.355 12.688,5.007 1.19,0.825 1.935,1.638 2.408,2.483 0.467,0.853 0.684,1.793 0.684,2.984 0,1.576 -0.277,2.875 -0.791,3.958 -0.778,1.598 -2.099,2.802 -4.25,3.688 -2.152,0.879 -5.123,1.367 -8.912,1.367 -3.87,0.014 -8.316,-1.794 -11.72,-3.661 -1.698,-0.935 -3.147,-1.868 -4.169,-2.558 -0.514,-0.359 -0.906,-0.644 -1.184,-0.84 l -0.305,-0.236 -0.102,-0.067 -0.906,1.156 0.934,-1.143 c -0.568,-0.461 -1.252,-0.657 -1.895,-0.664 -0.738,0.007 -1.476,0.251 -2.085,0.799 l -0.007,0.007 -0.007,0.007 c -0.007,0 -1.332,1.238 -2.72,2.537 -1.374,1.286 -2.849,2.652 -3.045,2.836 l -0.055,0.047 -0.047,0.055 c -0.549,0.588 -0.92,1.387 -0.913,2.226 -0.007,0.935 0.446,1.801 1.096,2.43 l 1.035,-1.056 -1.049,1.042 c 6.53,6.51 15.78,10.604 26.275,10.597 9.744,0 17.019,-2.246 21.904,-6.374 4.905,-4.124 7.218,-10.08 7.198,-16.873 h -2.942 c -0.027,6.172 -1.997,11.104 -6.151,14.623 -4.155,3.52 -10.698,5.685 -20.003,5.678 -9.73,0 -18.209,-3.77 -24.19,-9.73 l -0.007,-0.007 v -0.007 l -0.21,-0.318 0.135,-0.23 -1.083,-0.994 0.988,1.09 c 0.271,-0.244 1.692,-1.57 3.086,-2.876 1.387,-1.293 2.721,-2.531 2.721,-2.531 l -1.016,-1.076 0.995,1.09 0.102,-0.027 0.047,0.007 0.021,-0.061 -0.04,0.054 0.02,0.007 0.021,-0.061 -0.04,0.054 h 0.013 l 0.007,0.007 c 0.041,0.034 2.537,1.99 6.164,3.973 3.641,1.976 8.392,4.006 13.135,4.026 5.373,-0.007 9.507,-0.873 12.458,-2.876 1.475,-0.995 2.618,-2.308 3.362,-3.851 0.745,-1.55 1.097,-3.309 1.09,-5.237 0.007,-1.576 -0.312,-3.065 -1.056,-4.398 -1.116,-2.017 -3.052,-3.566 -5.778,-4.934 -2.747,-1.38 -6.354,-2.625 -11.085,-3.979 -7.862,-2.232 -13.539,-4.311 -17.079,-7.187 -1.766,-1.435 -3.024,-3.038 -3.884,-5.041 -0.86,-2.003 -1.313,-4.432 -1.313,-7.497 0.014,-5.766 2.483,-10.272 6.598,-13.493 4.12,-3.208 9.967,-5.049 16.564,-5.049 9.149,0.021 16.004,3.019 22.202,8.235 l 0.954,-1.123 -0.975,1.109 0.068,0.082 0.013,0.04 h 0.096 l -0.068,-0.074 -0.027,0.074 h 0.096 l -0.068,-0.074 -0.088,0.088 -0.074,0.095 0.859,0.603 -0.785,-0.697 -0.074,0.095 0.859,0.603 -0.785,-0.697 -0.339,0.345 c -0.656,0.664 -2.029,1.983 -3.214,3.127 -1.19,1.15 -2.213,2.131 -2.213,2.131 l -0.033,0.027 -0.027,0.027 0.183,0.162 -0.135,-0.196 -0.048,0.034 0.183,0.162 -0.135,-0.196 v 0.007 -0.014 0.007 0.007 -0.014 l -0.108,0.021 h -0.055 l -0.041,0.122 0.082,-0.102 -0.041,-0.021 -0.041,0.122 0.082,-0.102 -0.021,-0.014 -0.021,-0.014 c -0.041,-0.027 -2.32,-1.59 -5.568,-3.16 -3.269,-1.569 -7.465,-3.18 -11.545,-3.193 -4.594,0 -8.059,1.068 -10.44,2.977 -2.382,1.902 -3.52,4.629 -3.506,7.417 -0.007,1.421 0.244,2.788 0.9,4.04 0.988,1.881 2.768,3.329 5.393,4.635 2.64,1.307 6.206,2.531 11.084,3.932 v -0.007 c 7.302,2.139 13.121,4.324 16.951,7.376 1.929,1.522 3.37,3.241 4.352,5.305 0.987,2.064 1.522,4.521 1.529,7.545 h 2.939"
   id="path8" />
	<path
   fill="#5f6062"
   d="m 495.772,309.465 c 0.765,0 1.063,-0.534 0.737,-1.15 l -25.314,-43.449 c -0.372,-0.67 -0.284,-1.638 0.169,-2.213 l 20.091,-23.988 c 0.534,-0.589 0.311,-1.049 -0.46,-1.049 h -9.954 c -0.765,0 -1.786,0.46 -2.206,1.056 l -21.234,25.518 c -2.449,2.984 -7.314,8.939 -8.607,10.78 0.103,-2.233 0.19,-11.362 0.19,-11.362 0,-0.751 0.02,-1.982 0.02,-2.713 v -21.932 c 0,-0.737 -0.603,-1.347 -1.4,-1.347 h -8.1 c -0.771,0 -1.374,0.609 -1.374,1.347 V 308.1 c 0,0.765 0.603,1.366 1.374,1.366 h 8.1 c 0.798,0 1.4,-0.602 1.4,-1.366 v -18.021 c 0,-0.737 0.393,-1.827 0.88,-2.382 l 12.099,-14.041 c 0.467,-0.596 1.171,-0.515 1.563,0.115 l 20.063,34.544 c 0.365,0.616 1.299,1.15 1.977,1.15 h 9.986"
   id="path9" />
	<path
   fill="#5f6062"
   d="m 495.772,309.465 v 1.476 c 0.521,0 1.089,-0.136 1.576,-0.528 0.494,-0.379 0.778,-1.042 0.765,-1.624 0,-0.433 -0.121,-0.818 -0.297,-1.163 l -0.021,-0.027 -25.321,-43.47 -1.279,0.737 1.292,-0.717 -0.047,-0.244 0.081,-0.345 -1.157,-0.907 1.13,0.941 20.091,-23.989 -1.13,-0.94 1.096,0.988 c 0.325,-0.379 0.65,-0.846 0.678,-1.577 0,-0.298 -0.082,-0.643 -0.251,-0.934 -0.251,-0.433 -0.649,-0.697 -0.988,-0.825 -0.345,-0.143 -0.676,-0.176 -0.994,-0.176 h -9.954 c -0.677,0 -1.286,0.176 -1.86,0.439 -0.569,0.277 -1.11,0.636 -1.543,1.225 l 1.197,0.866 -1.137,-0.947 -21.234,25.531 c -1.225,1.495 -3.059,3.735 -4.75,5.826 -1.691,2.111 -3.221,4.047 -3.932,5.041 l 1.211,0.847 1.469,0.074 c 0.108,-2.314 0.196,-11.409 0.196,-11.423 v -0.014 c 0,-0.724 0.021,-1.969 0.021,-2.713 v -21.932 c 0,-0.771 -0.318,-1.495 -0.846,-2.003 -0.515,-0.515 -1.245,-0.825 -2.03,-0.818 h -8.1 c -1.57,0 -2.849,1.259 -2.855,2.821 v 69.137 c 0,0.777 0.317,1.502 0.839,2.017 0.521,0.514 1.245,0.825 2.017,0.825 h 8.1 c 0.778,0 1.509,-0.305 2.03,-0.819 0.527,-0.514 0.846,-1.245 0.846,-2.022 v -18.021 c -0.007,-0.115 0.054,-0.446 0.169,-0.751 0.102,-0.298 0.277,-0.589 0.345,-0.656 l 0.007,-0.007 12.126,-14.075 0.021,-0.027 -0.419,-0.331 v 0.501 c 0.229,0.007 0.419,-0.156 0.419,-0.17 l -0.419,-0.331 v 0.501 -0.629 l -0.339,0.534 0.339,0.095 v -0.629 l -0.339,0.534 0.155,-0.244 -0.25,0.156 0.095,0.088 0.155,-0.244 -0.25,0.156 1.252,-0.778 -1.272,0.744 20.064,34.545 v -0.007 c 0.378,0.629 0.865,1.028 1.4,1.346 0.548,0.305 1.123,0.528 1.848,0.542 h 9.987 v -2.95 h -9.987 v 0.067 l 0.006,-0.067 h -0.006 v 0.067 l 0.006,-0.067 -0.413,-0.17 -0.209,-0.162 -0.088,-0.088 -20.063,-34.551 -0.014,-0.021 c -0.413,-0.684 -1.171,-1.231 -2.077,-1.225 -0.771,-0.007 -1.489,0.412 -1.909,0.974 l 1.164,0.907 -1.116,-0.961 -12.099,14.041 0.007,-0.007 c -0.42,0.487 -0.684,1.022 -0.9,1.584 -0.203,0.568 -0.339,1.144 -0.345,1.766 v 18.021 h 0.121 l -0.081,-0.082 -0.04,0.082 h 0.121 l -0.081,-0.082 0.074,0.075 -0.04,-0.102 -0.034,0.026 0.074,0.075 -0.04,-0.102 v 0.007 -0.007 0.007 -0.007 h -8.1 v 0.088 l 0.061,-0.055 -0.061,-0.033 v 0.088 l 0.061,-0.055 -0.081,0.075 h 0.114 l -0.033,-0.075 -0.081,0.075 H 439.8 V 238.96 h -0.094 v 0.122 l 0.094,-0.122 h -0.094 v 0.122 h 8.1 v -0.021 l -0.007,0.021 h 0.007 v -0.021 l -0.007,0.021 0.054,-0.122 h -0.121 l 0.067,0.122 0.054,-0.122 h -0.121 v 21.932 c 0,0.71 -0.021,1.941 -0.021,2.713 h 1.476 l -1.476,-0.013 c 0,0 -0.021,2.273 -0.055,4.838 -0.033,2.551 -0.088,5.399 -0.135,6.476 l -0.224,5.055 2.91,-4.142 c 0.589,-0.846 2.132,-2.808 3.81,-4.892 1.685,-2.085 3.505,-4.317 4.729,-5.806 l -0.007,0.006 21.262,-25.558 0.034,-0.041 0.107,-0.102 0.9,-0.345 h 9.954 l 0.02,0.007 0.068,-0.67 -0.399,0.507 0.331,0.163 0.068,-0.67 -0.399,0.507 0.67,-0.853 h -1.083 c -0.021,0.298 0.196,0.704 0.413,0.853 l 0.67,-0.853 h -1.083 0.846 l -0.765,-0.379 -0.081,0.379 h 0.846 l -0.765,-0.379 0.318,0.156 -0.291,-0.203 -0.027,0.047 0.318,0.156 -0.291,-0.203 -0.007,0.021 -0.021,0.02 -20.138,24.029 -0.013,0.021 c -0.508,0.663 -0.711,1.407 -0.718,2.165 0.007,0.555 0.129,1.13 0.433,1.685 l 0.007,0.007 25.308,43.457 1.279,-0.738 -1.306,0.684 0.405,-0.21 h -0.446 l 0.041,0.21 0.405,-0.21 h -0.446 0.853 l -0.534,-0.663 -0.318,0.663 h 0.853 l -0.534,-0.663 0.433,0.535 -0.203,-0.657 -0.229,0.122 0.433,0.535 -0.203,-0.657 0.115,0.346 -0.061,-0.358 -0.055,0.013 0.115,0.346 -0.061,-0.358 0.007,0.033 v -0.033 h -0.007 l 0.007,0.033 v -0.033 1.474"
   id="path10" />
	<path
   fill="#5f6062"
   d="m 411.322,259.371 c 0,9.223 -11.401,11.267 -11.401,11.267 -0.725,0.135 -1.929,0.236 -2.659,0.236 h -19.049 c -0.906,0 -1.292,-0.608 -1.292,-1.347 v -20.395 c 0,-0.758 0.386,-1.354 1.292,-1.354 h 20.382 c 7.592,0.001 12.727,4.102 12.727,11.593 m 11.349,-0.299 c 0,-21.457 -22.703,-21.457 -22.703,-21.457 -0.765,0 -1.976,0 -2.706,0 h -29.978 c -0.724,0 -1.339,0.616 -1.339,1.354 v 69.137 c 0,0.758 0.615,1.359 1.339,1.359 h 8.256 c 0.744,0 1.381,-0.602 1.381,-1.359 v -25.734 c 0,-0.738 0.386,-1.347 1.292,-1.347 h 14.156 c 0.73,0 1.617,0.548 1.969,1.211 l 13.567,26.032 c 0.372,0.656 1.259,1.197 1.97,1.197 h 10.251 c 0.759,0 1.083,-0.541 0.738,-1.197 l -14.678,-28.17 c 9.684,-2.464 16.485,-9.535 16.485,-21.026 m -82.995,14.461 c 0,16.126 -7.091,26.296 -20.239,26.296 -13.013,0 -20.165,-10.17 -20.165,-26.296 0,-16.104 7.152,-26.275 20.165,-26.275 13.148,0 20.239,10.171 20.239,26.275 m 11.443,0 c 0,-21.762 -12.269,-37.041 -31.683,-37.041 -19.318,0 -31.554,15.279 -31.554,37.041 0,21.775 12.235,37.063 31.554,37.063 19.415,0 31.683,-15.287 31.683,-37.063"
   id="path11" />
	<path
   fill="#5f6062"
   d="m 409.848,259.371 c -0.007,2.002 -0.596,3.525 -1.502,4.79 -1.36,1.909 -3.532,3.208 -5.387,3.986 -0.927,0.393 -1.766,0.656 -2.368,0.825 -0.298,0.074 -0.542,0.136 -0.704,0.169 l -0.176,0.034 -0.047,0.014 c -0.596,0.108 -1.8,0.21 -2.402,0.21 h -19.049 l -0.047,-0.007 -0.041,0.243 0.129,-0.203 -0.088,-0.04 -0.041,0.243 0.129,-0.203 -0.196,0.305 0.338,-0.149 -0.142,-0.155 -0.196,0.305 0.338,-0.149 -0.114,0.055 0.121,-0.034 -0.007,-0.021 -0.114,0.055 0.121,-0.034 -0.007,-0.081 v -20.395 l 0.007,-0.088 -0.331,-0.108 0.189,0.271 0.142,-0.162 -0.331,-0.108 0.189,0.271 -0.184,-0.257 0.089,0.311 0.095,-0.054 -0.184,-0.257 0.089,0.311 v -0.007 0.007 -0.007 0.007 l 0.047,-0.007 h 20.382 c 3.539,0 6.347,0.961 8.235,2.619 1.888,1.668 3.004,4.084 3.018,7.495 h 2.95 c 0.014,-4.074 -1.441,-7.451 -4.02,-9.711 -2.571,-2.253 -6.131,-3.356 -10.184,-3.356 h -20.382 c -0.765,-0.014 -1.59,0.298 -2.098,0.9 -0.515,0.596 -0.67,1.306 -0.67,1.929 v 20.395 c 0,0.623 0.155,1.32 0.663,1.908 0.508,0.603 1.34,0.928 2.104,0.907 h 19.049 c 0.853,0 2.05,-0.095 2.923,-0.251 0.102,-0.021 3.079,-0.541 6.185,-2.354 1.55,-0.907 3.141,-2.145 4.372,-3.851 1.225,-1.705 2.063,-3.904 2.057,-6.516 h -2.949 m 14.298,-0.299 c 0.007,-5.616 -1.502,-9.98 -3.816,-13.256 -3.471,-4.919 -8.6,-7.301 -12.775,-8.492 -4.195,-1.184 -7.498,-1.184 -7.586,-1.184 -0.758,0 -1.976,0 -2.706,0 h -29.978 c -1.563,0.02 -2.794,1.245 -2.814,2.828 v 69.137 c 0.007,1.583 1.266,2.828 2.814,2.835 h 8.256 c 1.536,-0.007 2.843,-1.218 2.855,-2.835 v -25.734 l 0.007,-0.074 -0.312,-0.102 0.184,0.257 0.128,-0.155 -0.312,-0.102 0.184,0.257 -0.19,-0.264 0.095,0.311 0.096,-0.047 -0.19,-0.264 0.095,0.311 -0.013,-0.033 0.007,0.033 h 0.006 l -0.013,-0.033 0.007,0.033 h 0.04 14.163 l 0.108,0.027 0.555,0.406 1.306,-0.697 -1.306,0.677 13.574,26.053 0.014,0.02 c 0.352,0.616 0.825,1.056 1.366,1.388 0.549,0.325 1.15,0.562 1.882,0.568 h 10.258 c 0.521,0 1.097,-0.129 1.577,-0.528 0.494,-0.385 0.792,-1.056 0.765,-1.645 0,-0.439 -0.122,-0.839 -0.312,-1.19 l 0.007,0.007 -14.672,-28.165 -1.313,0.678 0.365,1.428 c 5.083,-1.286 9.501,-3.824 12.647,-7.613 3.147,-3.783 4.953,-8.804 4.947,-14.841 h -2.95 c -0.007,5.455 -1.59,9.718 -4.27,12.952 -2.68,3.234 -6.503,5.468 -11.098,6.645 l -1.813,0.461 15.536,29.821 0.007,0.007 0.359,-0.19 h -0.393 l 0.033,0.19 0.359,-0.19 h -0.393 0.839 l -0.527,-0.636 -0.312,0.636 h 0.839 l -0.527,-0.636 0.433,0.521 -0.203,-0.65 -0.229,0.129 0.433,0.521 -0.203,-0.65 0.067,0.217 v -0.229 l -0.067,0.013 0.067,0.217 v -0.229 h -10.258 l -0.102,-0.021 -0.582,-0.427 -1.279,0.725 1.313,-0.684 -13.574,-26.045 -0.014,-0.014 c -0.346,-0.623 -0.825,-1.069 -1.367,-1.401 -0.548,-0.331 -1.164,-0.568 -1.895,-0.575 h -14.163 c -0.778,-0.014 -1.604,0.312 -2.104,0.907 -0.508,0.595 -0.663,1.299 -0.663,1.915 v 25.734 h 0.095 v -0.115 l -0.095,0.115 h 0.095 v -0.115 h -8.256 v 0.115 h 0.136 l -0.136,-0.115 v 0.115 h 0.136 v -69.137 h -0.136 v 0.122 l 0.136,-0.122 h -0.136 v 0.122 h 29.978 c 0.73,0 1.948,0 2.706,0 l 0.203,0.007 c 1.124,0.027 6.558,0.365 11.511,3.038 2.49,1.326 4.845,3.214 6.598,5.914 1.746,2.693 2.916,6.239 2.916,11.022 z m -85.945,14.461 c 0.007,7.856 -1.732,14.109 -4.893,18.312 -3.167,4.188 -7.674,6.489 -13.872,6.51 -6.13,-0.021 -10.617,-2.321 -13.784,-6.51 -3.152,-4.202 -4.905,-10.455 -4.905,-18.312 0,-7.843 1.753,-14.088 4.905,-18.29 3.167,-4.183 7.654,-6.482 13.784,-6.503 6.198,0.021 10.705,2.32 13.872,6.503 3.161,4.195 4.9,10.447 4.893,18.29 h 2.95 c 0,-8.262 -1.8,-15.144 -5.481,-20.057 -3.667,-4.926 -9.283,-7.714 -16.233,-7.693 -6.888,-0.021 -12.484,2.768 -16.146,7.693 -3.674,4.906 -5.494,11.795 -5.494,20.057 0,8.275 1.82,15.165 5.494,20.084 3.661,4.92 9.258,7.714 16.146,7.693 6.95,0.021 12.566,-2.767 16.233,-7.693 3.682,-4.919 5.481,-11.809 5.481,-20.084 z m 14.393,0 c 0,-11.151 -3.146,-20.76 -8.905,-27.629 -5.751,-6.868 -14.162,-10.9 -24.252,-10.887 -10.048,-0.014 -18.419,4.019 -24.15,10.894 -5.738,6.862 -8.871,16.471 -8.871,27.622 0,11.159 3.133,20.774 8.871,27.636 5.731,6.875 14.103,10.908 24.15,10.901 10.09,0.007 18.501,-4.02 24.252,-10.895 5.758,-6.867 8.905,-16.483 8.905,-27.642 h -2.95 c 0,10.617 -2.99,19.529 -8.215,25.748 -5.23,6.212 -12.674,9.825 -21.992,9.839 -9.271,-0.014 -16.673,-3.627 -21.884,-9.832 -5.203,-6.226 -8.194,-15.138 -8.194,-25.755 0,-10.604 2.991,-19.516 8.194,-25.733 5.211,-6.212 12.613,-9.819 21.884,-9.833 9.318,0.014 16.762,3.628 21.992,9.833 5.225,6.218 8.215,15.13 8.215,25.733 z"
   id="path12" />
	<path
   fill="#5f6062"
   d="m 280.325,238.935 c 0.156,-0.71 -0.325,-1.326 -1.069,-1.326 h -8.154 c -0.758,0 -1.469,0.616 -1.618,1.326 l -8.803,45.074 c -0.325,1.752 -0.954,5.751 -1.496,8.417 -0.44,-2.564 -1.496,-6.996 -1.496,-6.996 -0.183,-0.725 -0.46,-1.915 -0.669,-2.626 l -11.463,-43.889 c -0.183,-0.69 -0.947,-1.307 -1.685,-1.307 h -6.882 c -0.751,0 -1.509,0.616 -1.698,1.307 l -11.598,44.173 c -0.535,2.159 -1.59,6.99 -2.023,9.338 -0.311,-2.348 -1.461,-8.113 -1.461,-8.113 -0.129,-0.73 -0.359,-1.941 -0.508,-2.659 l -8.418,-42.719 c -0.148,-0.71 -0.886,-1.326 -1.631,-1.326 h -8.6 c -0.738,0 -1.225,0.616 -1.056,1.326 l 14.684,69.204 c 0.149,0.73 0.88,1.326 1.624,1.326 h 8.384 c 0.744,0 1.516,-0.596 1.705,-1.313 l 11.794,-45.08 c 0.636,-2.471 1.814,-7.822 2.145,-9.548 0.318,1.726 1.813,8.229 1.813,8.229 0.163,0.703 0.454,1.908 0.636,2.632 l 10.956,43.768 c 0.189,0.717 0.94,1.313 1.691,1.313 h 8.587 c 0.737,0 1.488,-0.596 1.631,-1.326 l 14.678,-69.205"
   id="path13" />
	<path
   fill="#5f6062"
   d="m 280.325,238.935 1.441,0.318 0.061,-0.582 c 0,-0.677 -0.27,-1.333 -0.744,-1.807 -0.473,-0.467 -1.144,-0.73 -1.827,-0.724 h -8.154 c -0.785,0 -1.462,0.297 -1.983,0.724 -0.521,0.439 -0.92,1.028 -1.076,1.767 h -0.014 l -8.797,45.101 -0.007,0.007 c -0.325,1.793 -0.954,5.778 -1.489,8.397 l 1.448,0.29 1.455,-0.243 c -0.46,-2.659 -1.509,-7.078 -1.509,-7.099 l -0.007,-0.007 v -0.013 c -0.183,-0.697 -0.454,-1.889 -0.69,-2.68 l -1.414,0.419 1.427,-0.372 -11.463,-43.889 v 0.006 c -0.196,-0.73 -0.629,-1.285 -1.15,-1.705 -0.528,-0.406 -1.191,-0.703 -1.962,-0.703 h -6.882 c -0.785,0 -1.441,0.291 -1.969,0.696 -0.528,0.42 -0.954,0.975 -1.157,1.699 v 0.007 l -11.605,44.18 v 0.014 c -0.542,2.206 -1.597,7.018 -2.043,9.42 l 1.455,0.27 1.461,-0.195 c -0.332,-2.457 -1.468,-8.188 -1.475,-8.208 l -1.448,0.29 1.455,-0.257 c -0.135,-0.758 -0.358,-1.962 -0.521,-2.713 l -1.441,0.311 1.448,-0.284 -8.425,-42.726 c -0.162,-0.765 -0.582,-1.353 -1.103,-1.786 -0.527,-0.42 -1.191,-0.717 -1.969,-0.717 h -8.6 c -0.677,-0.007 -1.34,0.25 -1.82,0.717 -0.474,0.46 -0.745,1.123 -0.745,1.8 l 0.075,0.616 1.434,-0.339 -1.448,0.305 14.691,69.204 c 0.155,0.751 0.575,1.347 1.103,1.772 0.521,0.434 1.197,0.718 1.962,0.725 h 8.384 c 0.771,-0.007 1.421,-0.291 1.956,-0.69 0.535,-0.412 0.967,-0.975 1.171,-1.705 v -0.007 l 11.801,-45.101 v 0.007 c 0.656,-2.538 1.82,-7.856 2.165,-9.643 l -1.448,-0.277 -1.448,0.271 c 0.332,1.813 1.82,8.269 1.82,8.282 l 0.007,0.014 v -0.007 c 0.163,0.718 0.454,1.922 0.636,2.652 l 10.956,43.795 0.007,0.014 c 0.203,0.717 0.629,1.286 1.157,1.698 0.535,0.406 1.191,0.69 1.962,0.697 h 8.587 c 0.765,-0.007 1.435,-0.291 1.962,-0.718 0.528,-0.426 0.961,-1.028 1.116,-1.807 l -1.448,-0.277 1.441,0.305 14.677,-69.204 v 0.014 l -1.44,-0.319 -1.441,-0.304 -14.684,69.217 v 0.007 h -0.007 0.007 -0.007 l -0.108,0.102 -0.061,0.027 -0.007,0.007 h -8.587 l -0.034,-0.014 -0.176,-0.115 -0.047,-0.067 -0.014,-0.021 -1.421,0.379 1.428,-0.352 -10.949,-43.781 c -0.183,-0.704 -0.474,-1.915 -0.636,-2.612 v 0.007 c 0,0 -0.366,-1.617 -0.785,-3.457 -0.413,-1.827 -0.866,-3.892 -1.015,-4.703 l -1.435,-7.762 -1.461,7.762 c -0.318,1.664 -1.502,7.044 -2.125,9.453 V 262.7 l -11.794,45.08 1.428,0.372 -1.428,-0.386 -0.02,0.04 -0.163,0.143 -0.081,0.034 -0.014,0.007 h -8.384 l -0.02,-0.007 -0.122,-0.095 -0.034,-0.048 -0.007,-0.007 -14.684,-69.23 -0.007,-0.014 -0.264,0.067 h 0.271 l -0.007,-0.067 -0.264,0.067 h 0.271 -0.454 l 0.311,0.312 0.143,-0.312 h -0.454 l 0.311,0.312 -0.243,-0.25 v 0.365 l 0.243,-0.115 -0.243,-0.25 v 0.365 h 8.6 v -0.048 l -0.013,0.048 h 0.013 v -0.048 l -0.013,0.048 0.149,0.081 0.047,0.067 0.007,0.007 0.102,-0.047 -0.108,0.034 0.007,0.013 0.102,-0.047 -0.108,0.034 8.417,42.711 v 0.014 c 0.149,0.697 0.379,1.908 0.508,2.612 v 0.021 l 0.007,0.014 c 0,0.007 0.284,1.434 0.602,3.166 0.325,1.72 0.684,3.749 0.839,4.853 l 1.211,9.155 1.699,-9.074 c 0.426,-2.301 1.489,-7.146 2.009,-9.251 l -1.434,-0.358 1.428,0.379 11.598,-44.173 -0.007,0.014 -0.007,-0.007 0.007,0.007 -0.007,-0.007 0.007,0.007 0.156,-0.163 0.102,-0.054 0.02,-0.007 v -0.014 0.014 -0.014 0.014 h 6.882 v -0.027 l -0.007,0.027 h 0.007 v -0.027 l -0.007,0.027 0.176,0.102 0.082,0.095 0.007,0.021 0.047,-0.021 -0.047,0.014 v 0.007 l 0.047,-0.021 -0.047,0.014 11.47,43.902 0.007,0.021 c 0.189,0.643 0.467,1.834 0.656,2.571 l 1.428,-0.358 -1.435,0.345 c 0,0 0.264,1.097 0.582,2.511 0.311,1.414 0.684,3.153 0.893,4.392 l 1.32,7.795 1.576,-7.747 c 0.555,-2.728 1.184,-6.733 1.502,-8.452 l -1.448,-0.264 1.441,0.277 8.811,-45.066 -1.448,-0.285 1.441,0.305 0.014,-0.02 0.108,-0.108 0.055,-0.027 h 8.154 v -0.365 l -0.237,0.25 0.237,0.115 v -0.365 l -0.237,0.25 0.292,-0.298 h -0.433 l 0.142,0.298 0.292,-0.298 h -0.433 0.25 l -0.243,-0.061 -0.007,0.061 h 0.25 l -0.243,-0.061 v 0.021 l 1.437,0.301"
   id="path14" />
	<path
   fill="#5f6062"
   d="m 188.127,248.179 c 0.724,0 1.34,-0.603 1.34,-1.347 v -7.87 c 0,-0.737 -0.616,-1.354 -1.34,-1.354 h -51.976 c -0.744,0 -1.36,0.616 -1.36,1.354 v 7.87 c 0,0.744 0.616,1.347 1.36,1.347 H 155.2 c 0.724,0 1.354,0.608 1.354,1.34 v 58.58 c 0,0.765 0.609,1.366 1.36,1.366 h 8.458 c 0.751,0 1.367,-0.602 1.367,-1.366 v -58.58 c 0,-0.731 0.595,-1.34 1.347,-1.34 h 19.041"
   id="path15" />
	<path
   fill="#5f6062"
   d="m 188.127,248.179 v 1.475 c 1.543,-0.007 2.815,-1.252 2.822,-2.821 v -7.87 c -0.021,-1.569 -1.252,-2.808 -2.822,-2.828 h -51.976 c -1.577,0.021 -2.815,1.252 -2.835,2.828 v 7.87 c 0.007,1.576 1.286,2.821 2.835,2.821 H 155.2 v -0.135 h -0.122 l 0.122,0.135 v -0.135 h -0.122 v 58.58 c 0,0.771 0.311,1.495 0.826,2.009 0.514,0.515 1.231,0.833 2.01,0.826 h 8.458 c 1.556,0 2.842,-1.245 2.842,-2.835 v -58.58 h -0.128 v 0.135 l 0.128,-0.135 h -0.128 v 0.135 h 19.042 v -2.957 h -19.042 c -1.583,0.014 -2.815,1.293 -2.815,2.822 v 58.58 h 0.102 v -0.108 l -0.102,0.108 h 0.102 v -0.108 h -8.458 v 0.121 l 0.081,-0.088 -0.081,-0.033 v 0.121 l 0.081,-0.088 -0.074,0.075 h 0.115 l -0.041,-0.075 -0.074,0.075 h 0.115 v -58.58 c -0.034,-1.591 -1.279,-2.795 -2.835,-2.822 h -19.048 v 0.136 h 0.115 l -0.115,-0.136 v 0.136 h 0.115 v -7.87 h -0.115 v 0.122 l 0.115,-0.122 h -0.115 v 0.122 h 51.976 v -0.122 h -0.135 l 0.135,0.122 v -0.122 h -0.135 v 7.87 h 0.135 v -0.136 l -0.135,0.136 h 0.135 v -0.136 1.482"
   id="path16" />
	<path
   fill="#5f6062"
   d="m 122.788,309.465 c 0.758,0 1.374,-0.602 1.374,-1.366 v -7.748 c 0,-0.745 -0.616,-1.36 -1.374,-1.36 H 87.019 c -0.751,0 -1.36,-0.616 -1.36,-1.36 v -19.976 c 0,-0.737 0.609,-1.347 1.36,-1.347 h 18.71 c 0.758,0 1.354,-0.602 1.354,-1.353 v -7.775 c 0,-0.738 -0.596,-1.333 -1.354,-1.333 h -18.71 c -0.751,0 -1.36,-0.616 -1.36,-1.367 v -15.03 c 0,-0.778 0.609,-1.373 1.36,-1.373 h 34.172 c 0.751,0 1.354,-0.596 1.354,-1.34 v -7.775 c 0,-0.737 -0.603,-1.347 -1.354,-1.347 H 75.813 c -0.724,0 -1.326,0.609 -1.326,1.347 v 69.137 c 0,0.765 0.602,1.366 1.326,1.366 h 46.975"
   id="path17" />
	<path
   fill="#5f6062"
   d="m 122.788,309.465 v 1.476 c 1.556,-0.007 2.842,-1.252 2.849,-2.842 v -7.748 c -0.007,-1.57 -1.265,-2.836 -2.849,-2.843 H 87.019 v 0.122 h 0.115 l -0.115,-0.122 v 0.122 h 0.115 v -19.976 h -0.115 v 0.129 l 0.115,-0.129 h -0.115 v 0.129 h 18.71 c 0.771,0 1.495,-0.312 2.003,-0.826 0.514,-0.514 0.826,-1.23 0.826,-2.002 v -7.775 c 0,-0.765 -0.318,-1.489 -0.833,-1.996 -0.507,-0.501 -1.231,-0.813 -1.996,-0.806 h -18.71 v 0.102 h 0.115 l -0.115,-0.102 v 0.102 h 0.115 v -15.03 h -0.095 l 0.061,0.062 0.034,-0.062 h -0.095 l 0.061,0.062 -0.081,-0.082 v 0.122 l 0.081,-0.04 -0.081,-0.082 v 0.122 h 34.172 c 0.765,0 1.482,-0.312 1.996,-0.825 0.515,-0.501 0.833,-1.225 0.833,-1.989 v -7.775 c -0.007,-1.556 -1.259,-2.814 -2.829,-2.821 H 75.813 c -1.577,0.014 -2.794,1.266 -2.801,2.821 V 308.1 c 0,1.563 1.238,2.835 2.801,2.842 h 46.975 v -2.95 H 75.813 v 0.108 h 0.142 l -0.142,-0.108 v 0.108 h 0.142 v -69.137 h -0.142 v 0.122 l 0.142,-0.122 h -0.142 v 0.122 h 45.378 v -0.122 h -0.122 l 0.122,0.122 v -0.122 h -0.122 v 7.775 h 0.122 v -0.136 l -0.122,0.136 h 0.122 v -0.136 H 87.019 c -0.771,-0.007 -1.502,0.312 -2.003,0.826 -0.521,0.514 -0.832,1.244 -0.832,2.022 v 15.029 c 0.007,1.557 1.245,2.835 2.835,2.849 h 18.71 v -0.115 l -0.075,0.075 0.075,0.04 v -0.115 l -0.075,0.075 0.095,-0.108 h -0.143 l 0.047,0.108 0.095,-0.108 h -0.143 v 7.775 h 0.122 l -0.082,-0.082 -0.041,0.082 h 0.122 l -0.082,-0.082 0.082,0.082 v -0.122 l -0.082,0.04 0.082,0.082 v -0.122 h -18.71 c -1.563,0.007 -2.829,1.251 -2.835,2.821 v 19.976 c 0,1.563 1.265,2.828 2.835,2.835 h 35.769 v -0.114 h -0.102 l 0.102,0.114 v -0.114 h -0.102 v 7.748 h 0.102 v -0.108 l -0.102,0.108 h 0.102 v -0.108 1.474"
   id="path18" />
	<path
   fill="#5f6062"
   d="m 56.92,309.465 c 0.751,0 1.36,-0.602 1.36,-1.366 v -69.137 c 0,-0.737 -0.609,-1.347 -1.36,-1.347 h -8.161 c -0.758,0 -1.36,0.609 -1.36,1.347 v 35.715 c 0,4.006 0.115,14.265 0.115,16.944 -1.069,-1.861 -5.474,-9.034 -5.474,-9.034 -0.399,-0.622 -1.042,-1.644 -1.441,-2.28 L 13.728,238.745 c -0.42,-0.622 -1.354,-1.13 -2.098,-1.13 H 2.921 c -0.738,0 -1.347,0.609 -1.347,1.347 v 69.137 c 0,0.765 0.609,1.366 1.347,1.366 h 8.167 c 0.751,0 1.347,-0.602 1.347,-1.366 v -35.885 c 0,-4.013 -0.075,-13.974 -0.075,-16.653 1.144,1.861 4.805,7.701 4.805,7.701 0.406,0.622 1.069,1.638 1.475,2.26 l 28.224,42.807 c 0.426,0.63 1.367,1.137 2.098,1.137 h 7.958"
   id="path19" />
	<path
   fill="#5f6062"
   d="m 56.92,309.465 v 1.476 c 1.563,-0.007 2.835,-1.266 2.835,-2.842 v -69.137 c -0.007,-1.563 -1.259,-2.814 -2.835,-2.821 h -8.161 c -1.577,0 -2.829,1.266 -2.835,2.821 v 35.715 c 0,4.02 0.115,14.278 0.115,16.944 h 1.475 l 1.272,-0.737 c -1.096,-1.915 -5.488,-9.055 -5.495,-9.067 v -0.008 l -0.007,-0.006 c -0.393,-0.637 -1.049,-1.651 -1.435,-2.28 l -0.007,-0.007 -26.884,-41.582 -0.007,-0.007 c -0.393,-0.575 -0.893,-0.968 -1.448,-1.272 -0.555,-0.298 -1.164,-0.507 -1.875,-0.514 H 2.921 c -1.57,0.014 -2.808,1.252 -2.829,2.821 v 69.137 c 0,1.576 1.272,2.842 2.829,2.842 h 8.167 c 0.771,0 1.495,-0.318 1.996,-0.833 0.514,-0.514 0.833,-1.231 0.826,-2.009 v -35.885 c 0,-4.026 -0.075,-13.98 -0.075,-16.653 H 12.36 l -1.251,0.778 c 1.15,1.868 4.797,7.694 4.797,7.707 l 0.007,0.014 0.014,0.007 c 0.413,0.63 1.076,1.645 1.468,2.247 l 0.007,0.007 28.238,42.827 c 0.406,0.582 0.907,0.974 1.455,1.278 0.562,0.298 1.164,0.508 1.868,0.515 h 7.958 v -2.95 h -7.958 l -0.46,-0.156 -0.399,-0.324 v 0.007 l -28.231,-42.808 0.007,0.008 c -0.406,-0.623 -1.076,-1.645 -1.482,-2.268 l -1.231,0.813 1.245,-0.785 c 0,-0.007 -3.654,-5.84 -4.798,-7.688 l -2.727,-4.425 v 5.196 c 0,2.707 0.081,12.654 0.081,16.653 v 35.885 h 0.115 L 11,308.03 l -0.034,0.068 h 0.115 L 11,308.03 l 0.088,0.081 v -0.121 l -0.088,0.04 0.088,0.081 V 307.99 H 2.921 v 0.108 H 3.049 L 2.921,307.99 v 0.108 H 3.049 V 238.961 H 2.921 v 0.122 l 0.128,-0.122 H 2.921 v 0.122 h 8.709 l 0.467,0.162 0.399,0.325 1.232,-0.826 -1.245,0.806 26.871,41.562 1.245,-0.806 -1.259,0.785 c 0.413,0.649 1.056,1.658 1.448,2.28 l -0.006,-0.014 c 0,0 1.096,1.794 2.334,3.817 1.232,2.022 2.605,4.29 3.113,5.183 l 2.754,4.812 v -5.549 c 0,-2.7 -0.108,-12.959 -0.108,-16.944 V 238.961 H 48.76 v 0.122 l 0.115,-0.122 H 48.76 v 0.122 h 8.161 v -0.122 h -0.115 l 0.115,0.122 v -0.122 h -0.115 v 69.137 h 0.115 v -0.108 l -0.115,0.108 h 0.115 v -0.108 1.475"
   id="path20" />
	
</g>
</svg>
