<?xml version="1.0" encoding="UTF-8" standalone="no"?>
<!-- Generator: Adobe Illustrator 27.4.0, SVG Export Plug-In . SVG Version: 6.00 Build 0)  -->

<svg
   version="1.1"
   id="Layer_1"
   x="0px"
   y="0px"
   viewBox="0 0 170.39999 69.400005"
   xml:space="preserve"
   sodipodi:docname="Apex Fintech.svg"
   width="170.39999"
   height="69.400002"
   inkscape:version="1.4 (e7c3feb1, 2024-10-09)"
   xmlns:inkscape="http://www.inkscape.org/namespaces/inkscape"
   xmlns:sodipodi="http://sodipodi.sourceforge.net/DTD/sodipodi-0.dtd"
   xmlns="http://www.w3.org/2000/svg"
   xmlns:svg="http://www.w3.org/2000/svg"><defs
   id="defs26" /><sodipodi:namedview
   id="namedview26"
   pagecolor="#ffffff"
   bordercolor="#000000"
   borderopacity="0.25"
   inkscape:showpageshadow="2"
   inkscape:pageopacity="0.0"
   inkscape:pagecheckerboard="0"
   inkscape:deskcolor="#d1d1d1"
   inkscape:zoom="3.6336307"
   inkscape:cx="94.946359"
   inkscape:cy="41.418629"
   inkscape:window-width="1800"
   inkscape:window-height="1098"
   inkscape:window-x="0"
   inkscape:window-y="71"
   inkscape:window-maximized="0"
   inkscape:current-layer="Layer_1" />
<style
   type="text/css"
   id="style1">
	.st0{fill:#072391;}
	.st1{fill:#00E2F9;}
</style>
<path
   class="st0"
   d="M 168.1,41.1 157.3,25.3 H 147.2 L 159.3,43 c 0.3,0.5 0.7,1 1.2,1.3 0.5,0.3 1.1,0.4 1.7,0.4 h 4.4 c 2.1,-0.1 2.8,-1.7 1.5,-3.6 z"
   id="path1" />
<path
   class="st1"
   d="m 137,25.2 -10.8,15.9 c -1.3,2 -0.6,3.5 1.5,3.5 h 4.4 c 0.6,0 1.2,-0.1 1.7,-0.4 0.5,-0.3 0.9,-0.7 1.2,-1.3 l 12.1,-17.7 z"
   id="path2" />
<path
   class="st0"
   d="M 168.1,3.6 157.3,19.4 H 147.2 L 159.3,1.7 c 0.3,-0.5 0.7,-1 1.2,-1.3 C 161,0.1 161.6,0 162.2,0 h 4.4 c 2.1,0.1 2.7,1.7 1.5,3.6 z"
   id="path3" />
<path
   class="st1"
   d="M 137,19.5 126.2,3.6 c -1.3,-2 -0.6,-3.5 1.5,-3.5 h 4.4 c 0.6,0 1.2,0.1 1.7,0.4 0.5,0.3 0.9,0.7 1.2,1.3 l 12.1,17.7 z"
   id="path4" />
<path
   class="st0"
   d="M 68.1,0.1 H 51.8 c -0.4,0 -0.7,0 -1.1,0.1 C 50.4,0.3 50,0.5 49.8,0.8 49.5,1.1 49.3,1.4 49.2,1.7 49.1,2 49,2.4 49.1,2.8 v 39.1 c 0,0.4 0,0.7 0.1,1.1 0.1,0.3 0.3,0.7 0.6,0.9 0.3,0.3 0.6,0.5 0.9,0.6 0.3,0.1 0.7,0.2 1.1,0.1 h 3 c 0.4,0 0.7,0 1.1,-0.1 0.3,-0.1 0.7,-0.3 0.9,-0.6 0.3,-0.3 0.5,-0.6 0.6,-0.9 0.1,-0.3 0.2,-0.7 0.1,-1.1 V 7.2 h 9.1 c 4.3,0 6.9,3.1 6.9,7.4 0,4.3 -2.6,7.4 -6.9,7.4 h -3.4 v 6.7 H 68 c 8.9,0 14.1,-6.3 14.1,-14 0,-7.8 -5,-14.6 -14,-14.6 z"
   id="path5" />
<path
   class="st0"
   d="M 116.1,37.5 H 97.9 V 26 h 15.5 c 0.4,0 0.7,0 1.1,-0.1 0.3,-0.1 0.7,-0.3 0.9,-0.6 0.3,-0.3 0.5,-0.6 0.6,-0.9 0.1,-0.3 0.2,-0.7 0.1,-1.1 V 22 c 0,-0.4 0,-0.7 -0.1,-1.1 -0.1,-0.3 -0.3,-0.7 -0.6,-0.9 -0.3,-0.3 -0.6,-0.4 -0.9,-0.6 -0.3,-0.1 -0.7,-0.2 -1.1,-0.1 H 97.9 V 12.6 H 97.8 V 0.1 h -5.6 c -0.4,0 -0.7,0 -1.1,0.1 C 90.8,0.3 90.4,0.5 90.2,0.8 90,1.1 89.8,1.4 89.7,1.7 89.6,2 89.5,2.4 89.6,2.8 v 39.1 c 0,0.4 0,0.7 0.1,1.1 0.1,0.3 0.3,0.7 0.6,0.9 0.3,0.3 0.6,0.5 0.9,0.6 0.3,0.1 0.7,0.2 1.1,0.1 h 23.9 c 0.4,0 0.7,0 1.1,-0.1 0.3,-0.1 0.7,-0.3 0.9,-0.6 0.3,-0.3 0.5,-0.6 0.6,-0.9 0.1,-0.3 0.2,-0.7 0.1,-1.1 v -1.7 c 0,-0.4 0,-0.7 -0.1,-1.1 -0.1,-0.3 -0.3,-0.7 -0.6,-0.9 -0.3,-0.3 -0.6,-0.5 -0.9,-0.6 -0.4,-0.1 -0.8,-0.1 -1.2,-0.1 z"
   id="path6" />
<path
   class="st0"
   d="m 116.1,0.1 h -12.5 v 7 h 12.5 c 0.4,0 0.7,0 1.1,-0.1 0.3,-0.1 0.7,-0.3 0.9,-0.6 0.3,-0.3 0.4,-0.6 0.6,-0.9 0.1,-0.3 0.2,-0.7 0.1,-1.1 V 2.8 c 0,-0.4 0,-0.7 -0.1,-1.1 -0.1,-0.3 -0.3,-0.7 -0.6,-0.9 -0.3,-0.3 -0.6,-0.5 -0.9,-0.6 -0.3,-0.1 -0.7,-0.1 -1.1,-0.1 z"
   id="path7" />
<path
   class="st0"
   d="M 42,41.5 26.8,2.3 C 26.6,1.6 26.2,1.1 25.6,0.7 25,0.3 24.3,0.1 23.6,0.1 h -4.1 c -0.3,0 -0.6,0 -0.9,0.1 l 4.3,11.9 6.3,17 H 14 L 18.5,16.8 14.8,6.5 1.4,41.5 c -0.7,1.8 0.1,3.1 2.1,3.1 h 3 c 0.7,0 1.4,-0.1 1.9,-0.5 0.6,-0.4 1,-1 1.1,-1.6 L 12,36 h 19.2 l 2.5,6.5 c 0.2,0.7 0.6,1.2 1.2,1.6 0.6,0.4 1.3,0.6 2,0.5 h 3 c 2,0 2.8,-1.3 2.1,-3.1 z"
   id="path8" />
<path
   class="st0"
   d="m 8.7,54.4 v 2 H 2.4 v 4.4 h 4.9 v 2 H 2.4 v 6.3 H 0 V 54.4 Z"
   id="path9" />
<path
   class="st0"
   d="m 10.6,55.4 c -0.1,-0.1 -0.3,-0.3 -0.3,-0.5 -0.1,-0.2 -0.1,-0.4 -0.1,-0.6 0,-0.2 0,-0.4 0.1,-0.6 0.1,-0.2 0.2,-0.4 0.3,-0.5 0.2,-0.2 0.5,-0.4 0.8,-0.4 0.3,-0.1 0.6,0 0.9,0.1 0.3,0.1 0.5,0.3 0.7,0.6 0.2,0.3 0.3,0.6 0.3,0.9 0,0.2 0,0.4 -0.1,0.6 -0.1,0.2 -0.2,0.4 -0.3,0.5 -0.3,0.3 -0.7,0.4 -1.1,0.4 -0.6,0 -1,-0.2 -1.2,-0.5 z m 2.2,2 V 69.1 H 10.4 V 57.4 Z"
   id="path10" />
<path
   class="st0"
   d="m 23.9,57.8 c 0.7,0.4 1.3,1 1.7,1.7 0.4,0.8 0.6,1.8 0.6,2.7 v 6.9 h -2.4 v -6.5 c 0.1,-0.9 -0.2,-1.7 -0.8,-2.4 -0.3,-0.3 -0.6,-0.5 -1,-0.7 -0.4,-0.1 -0.8,-0.2 -1.2,-0.2 -0.4,0 -0.8,0 -1.2,0.2 -0.4,0.1 -0.7,0.4 -1,0.6 -0.6,0.7 -0.9,1.5 -0.8,2.4 v 6.6 H 15.4 V 57.4 h 2.4 v 1.3 c 0.4,-0.5 0.9,-0.9 1.5,-1.1 0.6,-0.3 1.3,-0.4 2,-0.4 1,0 1.8,0.2 2.6,0.6 z"
   id="path11" />
<path
   class="st0"
   d="m 31.6,59.4 v 6.5 c 0,0.2 0,0.4 0.1,0.5 0.1,0.2 0.1,0.3 0.3,0.5 0.3,0.2 0.7,0.3 1.1,0.3 h 1.5 v 2 H 32.7 C 31.8,69.3 30.9,69 30.2,68.4 29.9,68.1 29.6,67.7 29.5,67.2 29.3,66.8 29.3,66.3 29.3,65.9 v -6.5 h -1.4 v -2 h 1.4 v -2.9 h 2.4 v 2.9 h 2.9 v 2 z"
   id="path12" />
<path
   class="st0"
   d="m 46.8,64.2 h -9 c 0,0.9 0.4,1.7 1,2.3 0.6,0.6 1.5,0.9 2.3,0.8 0.6,0 1.1,-0.1 1.6,-0.4 0.5,-0.3 0.9,-0.7 1.1,-1.2 h 2.6 c -0.4,1.1 -1,2 -2,2.6 -1,0.7 -2.2,1.1 -3.5,1 -1.1,0 -2.1,-0.2 -3,-0.8 C 37,68 36.3,67.3 35.8,66.4 35.3,65.4 35,64.3 35,63.2 35,62.1 35.2,61 35.7,60 c 0.5,-0.9 1.2,-1.6 2.1,-2.1 0.9,-0.5 2,-0.8 3,-0.7 1,0 2,0.2 2.9,0.7 0.9,0.4 1.7,1.1 2.2,2 0.5,0.9 0.7,2 0.7,3 0.3,0.5 0.3,0.9 0.2,1.3 z m -2.4,-2 C 44.4,61.8 44.3,61.4 44.2,61 44,60.6 43.8,60.3 43.5,60 42.9,59.4 42,59.2 41.2,59.2 c -0.8,0 -1.6,0.3 -2.1,0.8 -0.6,0.6 -1,1.3 -1.1,2.2 z"
   id="path13" />
<path
   class="st0"
   d="m 48.6,60.1 c 0.5,-0.9 1.2,-1.6 2.1,-2.1 0.9,-0.5 1.9,-0.7 2.9,-0.7 1.2,-0.1 2.5,0.3 3.5,1 0.9,0.7 1.6,1.7 1.9,2.9 h -2.5 c -0.2,-0.5 -0.5,-1 -1,-1.4 -0.5,-0.3 -1.1,-0.5 -1.8,-0.5 -0.5,0 -0.9,0.1 -1.3,0.2 -0.4,0.1 -0.8,0.5 -1.1,0.8 -0.6,0.9 -0.9,1.9 -0.9,2.9 0,1 0.3,2.1 0.9,2.9 0.3,0.3 0.7,0.6 1.1,0.8 0.4,0.2 0.9,0.3 1.3,0.3 0.6,0 1.2,-0.1 1.7,-0.4 0.5,-0.3 0.9,-0.8 1.1,-1.4 h 2.6 c -0.3,1.1 -1,2.1 -1.9,2.8 -1,0.7 -2.2,1.1 -3.5,1.1 -1,0 -2,-0.3 -2.9,-0.8 -0.9,-0.5 -1.7,-1.2 -2.2,-2.1 -0.5,-1 -0.7,-2.1 -0.7,-3.2 0,-1 0.3,-2.1 0.7,-3.1 z"
   id="path14" />
<path
   class="st0"
   d="m 69.4,57.8 c 0.7,0.4 1.3,1 1.7,1.7 0.4,0.8 0.6,1.8 0.6,2.7 v 6.9 h -2.4 v -6.5 c 0.1,-0.9 -0.2,-1.7 -0.8,-2.4 -0.3,-0.3 -0.6,-0.5 -1,-0.7 -0.4,-0.2 -0.8,-0.2 -1.2,-0.2 -0.4,0 -0.8,0 -1.2,0.2 -0.4,0.1 -0.7,0.4 -1,0.6 -0.6,0.7 -0.9,1.5 -0.8,2.4 v 6.6 H 61 V 53.4 h 2.4 v 5.4 c 0.4,-0.5 1,-0.9 1.6,-1.1 0.7,-0.3 1.4,-0.4 2.1,-0.4 0.8,-0.1 1.6,0.1 2.3,0.5 z"
   id="path15" />
<path
   class="st0"
   d="M 81.4,68.8 C 80.7,68.5 80,68 79.5,67.3 79,66.6 78.8,65.9 78.8,65.1 h 2.6 c 0,0.6 0.3,1.2 0.8,1.6 0.5,0.4 1.2,0.7 1.9,0.6 0.7,0 1.4,-0.2 2,-0.6 0.2,-0.2 0.4,-0.4 0.5,-0.7 0.1,-0.3 0.2,-0.6 0.2,-0.9 0,-0.4 -0.1,-0.9 -0.4,-1.2 C 86.1,63.6 85.7,63.3 85.3,63.2 84.7,63 84.1,62.8 83.5,62.6 82.7,62.4 81.9,62.1 81.2,61.8 80.6,61.5 80.1,61.1 79.7,60.6 79.2,60 79,59.2 79.1,58.4 c 0,-0.8 0.2,-1.6 0.6,-2.2 0.4,-0.6 1.1,-1.2 1.8,-1.5 0.8,-0.4 1.7,-0.5 2.7,-0.5 1.3,-0.1 2.5,0.3 3.5,1.1 0.5,0.4 0.8,0.8 1.1,1.3 0.3,0.5 0.4,1.1 0.4,1.6 h -2.7 c 0,-0.3 -0.1,-0.5 -0.2,-0.8 C 86.2,57.2 86,57 85.8,56.8 85.3,56.4 84.6,56.2 84,56.2 c -0.6,0 -1.2,0.2 -1.7,0.5 -0.2,0.2 -0.4,0.4 -0.5,0.7 -0.1,0.3 -0.2,0.6 -0.1,0.8 0,0.2 0,0.4 0.1,0.6 0.1,0.2 0.2,0.4 0.3,0.5 0.3,0.3 0.7,0.5 1.1,0.7 0.6,0.2 1.1,0.4 1.7,0.6 0.8,0.2 1.6,0.5 2.4,0.8 0.6,0.3 1.2,0.7 1.6,1.2 0.5,0.7 0.7,1.4 0.6,2.2 0,0.8 -0.2,1.5 -0.6,2.1 -0.4,0.7 -1,1.2 -1.8,1.6 -0.8,0.4 -1.8,0.6 -2.7,0.6 -1.2,0.2 -2.1,0.1 -3,-0.3 z"
   id="path16" />
<path
   class="st0"
   d="m 93.6,68.6 c -0.9,-0.5 -1.6,-1.2 -2.1,-2.1 -0.5,-1 -0.8,-2.1 -0.8,-3.2 0,-1.1 0.2,-2.2 0.8,-3.2 0.5,-0.9 1.2,-1.6 2.1,-2.1 0.9,-0.5 2,-0.8 3,-0.7 1.1,0 2.1,0.2 3,0.7 0.9,0.5 1.7,1.2 2.2,2.1 0.5,1 0.8,2.1 0.8,3.2 0,1.1 -0.3,2.2 -0.8,3.2 -0.5,0.9 -1.3,1.6 -2.2,2.1 -0.9,0.5 -2,0.8 -3.1,0.8 -0.9,-0.1 -1.9,-0.3 -2.9,-0.8 z m 4.8,-1.8 c 0.6,-0.3 1,-0.8 1.3,-1.3 0.3,-0.7 0.5,-1.4 0.5,-2.2 0,-0.7 -0.2,-1.5 -0.5,-2.2 -0.3,-0.6 -0.7,-1 -1.3,-1.3 -0.5,-0.3 -1.1,-0.4 -1.7,-0.4 -0.6,0 -1.2,0.1 -1.7,0.4 -0.5,0.3 -1,0.8 -1.3,1.3 -0.3,0.7 -0.5,1.4 -0.5,2.2 -0.1,1.1 0.3,2.1 1,2.9 0.3,0.3 0.7,0.6 1.1,0.8 0.4,0.2 0.9,0.2 1.3,0.2 0.7,0 1.3,-0.1 1.8,-0.4 z"
   id="path17" />
<path
   class="st0"
   d="m 107,53.4 v 15.7 h -2.4 V 53.4 Z"
   id="path18" />
<path
   class="st0"
   d="m 120.3,57.4 v 11.7 h -2.4 v -1.4 c -0.4,0.5 -0.9,0.9 -1.5,1.1 -0.6,0.3 -1.3,0.4 -2,0.4 -0.9,0 -1.7,-0.2 -2.5,-0.6 -0.7,-0.4 -1.3,-1 -1.7,-1.7 -0.4,-0.8 -0.7,-1.8 -0.6,-2.7 v -6.9 h 2.4 v 6.5 c -0.1,0.9 0.2,1.7 0.8,2.4 0.6,0.5 1.4,0.8 2.2,0.8 0.8,0 1.6,-0.3 2.2,-0.8 0.6,-0.7 0.9,-1.5 0.8,-2.4 v -6.5 z"
   id="path19" />
<path
   class="st0"
   d="m 125.8,59.4 v 6.5 c 0,0.2 0,0.4 0,0.5 0.1,0.2 0.1,0.3 0.3,0.5 0.3,0.2 0.7,0.3 1.1,0.3 h 1.5 v 2 h -2 c -0.9,0.1 -1.8,-0.2 -2.5,-0.8 -0.3,-0.3 -0.6,-0.7 -0.7,-1.2 -0.1,-0.4 -0.2,-0.9 -0.1,-1.4 V 59.3 H 122 v -2 h 1.4 v -2.9 h 2.4 v 2.9 h 2.9 v 2 z"
   id="path20" />
<path
   class="st0"
   d="m 130.5,55.4 c -0.1,-0.1 -0.3,-0.3 -0.3,-0.5 -0.1,-0.2 -0.1,-0.4 -0.1,-0.6 0,-0.2 0,-0.4 0.1,-0.6 0.1,-0.2 0.2,-0.4 0.3,-0.5 0.1,-0.1 0.3,-0.3 0.5,-0.3 0.2,-0.1 0.4,-0.1 0.6,-0.1 0.2,0 0.4,0 0.6,0.1 0.2,0.1 0.4,0.2 0.5,0.3 0.1,0.1 0.3,0.3 0.3,0.5 0.1,0.2 0.1,0.4 0.1,0.6 0,0.2 0,0.4 -0.1,0.6 -0.1,0.2 -0.2,0.4 -0.3,0.5 -0.1,0.1 -0.3,0.3 -0.5,0.3 -0.2,0.1 -0.4,0.1 -0.6,0.1 -0.2,0 -0.4,0 -0.6,-0.1 -0.2,0 -0.4,-0.1 -0.5,-0.3 z m 2.3,2 v 11.7 h -2.4 V 57.4 Z"
   id="path21" />
<path
   class="st0"
   d="m 137.5,68.6 c -0.9,-0.5 -1.6,-1.2 -2.1,-2.1 -0.5,-1 -0.8,-2.1 -0.8,-3.2 0,-1.1 0.3,-2.2 0.8,-3.2 0.5,-0.9 1.2,-1.6 2.2,-2.1 0.9,-0.5 2,-0.8 3,-0.7 1.1,0 2.1,0.2 3,0.7 0.9,0.5 1.6,1.2 2.1,2.1 0.5,1 0.8,2.1 0.8,3.2 0,1.1 -0.3,2.2 -0.8,3.2 -0.5,0.9 -1.3,1.6 -2.2,2.1 -0.9,0.5 -2,0.8 -3.1,0.8 -0.9,-0.1 -2,-0.3 -2.9,-0.8 z m 4.8,-1.8 c 0.6,-0.3 1,-0.8 1.3,-1.3 0.3,-0.7 0.5,-1.4 0.5,-2.2 0,-0.7 -0.2,-1.5 -0.5,-2.2 -0.3,-0.6 -0.7,-1 -1.3,-1.3 -0.5,-0.3 -1.1,-0.4 -1.7,-0.4 -0.6,0 -1.2,0.1 -1.7,0.4 -0.5,0.3 -1,0.8 -1.3,1.3 -0.3,0.7 -0.5,1.4 -0.5,2.2 -0.1,1.1 0.3,2.1 1,2.9 0.3,0.3 0.7,0.6 1.1,0.8 0.4,0.2 0.9,0.2 1.3,0.2 0.6,0 1.2,-0.1 1.8,-0.4 z"
   id="path22" />
<path
   class="st0"
   d="m 156.9,57.8 c 0.7,0.4 1.3,1 1.7,1.7 0.4,0.8 0.6,1.8 0.6,2.7 v 6.9 h -2.4 v -6.5 c 0.1,-0.9 -0.2,-1.7 -0.8,-2.4 -0.3,-0.3 -0.6,-0.5 -1,-0.7 -0.4,-0.1 -0.8,-0.2 -1.2,-0.2 -0.4,0 -0.8,0 -1.2,0.2 -0.4,0.1 -0.7,0.4 -1,0.6 -0.6,0.7 -0.9,1.5 -0.8,2.4 v 6.6 h -2.4 V 57.4 h 2.4 v 1.3 c 0.4,-0.5 0.9,-0.9 1.5,-1.1 0.6,-0.3 1.3,-0.4 2,-0.4 0.9,0 1.8,0.2 2.6,0.6 z"
   id="path23" />
<path
   class="st0"
   d="m 163.5,68.8 c -0.7,-0.3 -1.3,-0.8 -1.7,-1.4 -0.4,-0.6 -0.7,-1.3 -0.7,-2 h 2.5 c 0,0.2 0.1,0.5 0.2,0.7 0.1,0.2 0.3,0.4 0.5,0.5 0.5,0.3 1,0.5 1.6,0.5 0.6,0 1.1,-0.1 1.6,-0.4 0.2,-0.1 0.3,-0.2 0.4,-0.4 0.1,-0.2 0.2,-0.4 0.2,-0.6 0,-0.2 0,-0.4 -0.2,-0.6 -0.1,-0.2 -0.3,-0.3 -0.5,-0.4 -0.6,-0.3 -1.3,-0.5 -2,-0.7 -0.7,-0.2 -1.4,-0.4 -2.1,-0.7 -0.6,-0.2 -1.1,-0.6 -1.4,-1 -0.4,-0.5 -0.6,-1.2 -0.6,-1.8 0,-0.6 0.2,-1.2 0.6,-1.7 0.4,-0.5 1,-1 1.6,-1.2 0.8,-0.3 1.6,-0.5 2.4,-0.4 1.2,-0.1 2.3,0.3 3.2,1 0.4,0.3 0.7,0.8 1,1.2 0.2,0.5 0.3,1 0.3,1.5 H 168 c 0,-0.2 -0.1,-0.5 -0.2,-0.7 -0.1,-0.2 -0.3,-0.4 -0.5,-0.6 -0.4,-0.3 -1,-0.5 -1.6,-0.5 -0.5,0 -1,0.1 -1.5,0.4 -0.2,0.1 -0.3,0.3 -0.4,0.4 -0.1,0.2 -0.1,0.4 -0.1,0.6 0,0.1 0,0.3 0.1,0.4 0.1,0.1 0.1,0.3 0.3,0.4 0.2,0.2 0.5,0.4 0.8,0.5 0.3,0.1 0.8,0.3 1.4,0.5 0.7,0.2 1.4,0.4 2.1,0.7 0.5,0.2 1,0.6 1.4,1 0.4,0.5 0.6,1.2 0.6,1.9 0,0.6 -0.2,1.3 -0.6,1.8 -0.4,0.5 -0.9,1 -1.6,1.2 -1.4,0.6 -3.1,0.6 -4.7,-0.1 z"
   id="path24" />


</svg>
