<?xml version="1.0" encoding="UTF-8" standalone="no"?>
<svg
   version="1.1"
   id="Layer_1"
   x="0px"
   y="0px"
   viewBox="0 0 238.1 100.7"
   xml:space="preserve"
   sodipodi:docname="EasyJet_idqF5MQARa_0.svg"
   width="238.10001"
   height="100.7"
   xmlns:inkscape="http://www.inkscape.org/namespaces/inkscape"
   xmlns:sodipodi="http://sodipodi.sourceforge.net/DTD/sodipodi-0.dtd"
   xmlns="http://www.w3.org/2000/svg"
   xmlns:svg="http://www.w3.org/2000/svg"><defs
   id="defs7" /><sodipodi:namedview
   id="namedview7"
   pagecolor="#ffffff"
   bordercolor="#000000"
   borderopacity="0.25"
   inkscape:showpageshadow="2"
   inkscape:pageopacity="0.0"
   inkscape:pagecheckerboard="0"
   inkscape:deskcolor="#d1d1d1" />
 <style
   type="text/css"
   id="style1">
  .st0{fill:#FF6600;}
	.st1{fill:#FFFFFF;}
 </style>
 <rect
   class="st0"
   width="238.10001"
   height="100.61972"
   id="rect1"
   x="0"
   y="0"
   style="stroke-width:1.08993">
 </rect>
 
<g
   id="g11"
   transform="translate(-0.65901669,1.0422926)"><g
     id="g7"
     transform="matrix(0.6136491,0,0,0.6136491,91.067041,23.288984)">
  <path
   class="st1"
   d="M 42.6,44.2 H 30.3 c -0.5,0 -0.8,0.2 -0.8,0.7 0,1.1 0.6,2.2 1.8,3.2 1.2,1 2.6,1.5 4,1.5 0.8,0 1.8,-0.2 2.8,-0.5 1,-0.3 1.9,-0.7 2.5,-1.2 0.6,-0.4 1.1,-0.6 1.4,-0.6 0.5,0 0.9,0.3 1.3,0.8 0.4,0.6 0.7,1.1 0.7,1.7 0,1.3 -0.8,2.5 -2.4,3.6 -2.8,2.1 -6,3.1 -9.6,3.1 -3.7,0 -6.7,-1.1 -9.2,-3.2 -1.2,-1 -2.2,-2.3 -3,-3.8 -1,-2 -1.5,-4 -1.5,-6.2 0,-2.9 0.9,-5.6 2.7,-7.9 1.5,-2 3.5,-3.5 5.9,-4.5 1.8,-0.7 3.7,-1.1 5.8,-1.1 3.3,0 6.1,0.9 8.5,2.8 1.2,0.9 2.1,2.1 2.8,3.4 0.8,1.5 1.2,2.9 1.2,4.3 0,1.1 -0.2,2.1 -0.7,2.8 -0.6,0.8 -1.2,1.1 -1.9,1.1 z M 31,39.4 h 2.6 c 1.1,0 1.7,-0.5 1.7,-1.5 C 35.3,37 35,36.2 34.5,35.6 34,35 33.3,34.7 32.4,34.7 c -1,0 -1.7,0.4 -2.3,1.2 -0.5,0.7 -0.8,1.4 -0.8,2.2 0,0.5 0.1,0.9 0.4,1.1 0.2,0 0.6,0.2 1.3,0.2 z"
   id="path1">
  </path>
  <path
   class="st1"
   d="m 62.2,29.9 c 3,0 5.6,0.8 7.7,2.3 1.1,0.8 1.9,1.8 2.3,2.8 0.4,1.1 0.7,2.5 0.7,4.4 l -0.1,3.9 c 0,2.7 0.2,4.5 0.6,5.3 0.2,0.4 0.4,0.6 0.5,0.7 0.2,0.1 0.5,0.2 1.1,0.3 0.6,0.1 0.8,0.5 0.8,1.1 0,0.8 -0.3,1.7 -1,2.6 -0.7,0.9 -1.5,1.7 -2.6,2.3 -1.3,0.8 -2.7,1.2 -4.1,1.2 -1.8,0 -3.3,-0.6 -4.3,-1.9 -0.4,-0.5 -0.7,-0.7 -1,-0.7 -0.3,0 -0.8,0.2 -1.4,0.7 -1.7,1.3 -3.7,1.9 -5.9,1.9 -2.3,0 -4.1,-0.5 -5.5,-1.5 -0.9,-0.7 -1.7,-1.6 -2.2,-2.6 -0.5,-1 -0.8,-2.1 -0.8,-3.3 0,-1.8 0.7,-3.4 2.2,-4.8 2.3,-2.2 5.7,-3.3 10.3,-3.3 1,0 1.7,-0.1 1.9,-0.3 0.3,-0.2 0.4,-0.7 0.4,-1.4 0,-1.8 -0.2,-3.2 -0.6,-4 -0.4,-0.8 -1,-1.2 -1.9,-1.2 -0.5,0 -1,0.2 -1.4,0.5 -0.4,0.3 -0.9,0.9 -1.5,1.7 -1.6,2.2 -3.2,3.3 -4.9,3.3 -0.9,0 -1.6,-0.3 -2.1,-0.8 -0.5,-0.5 -0.8,-1.2 -0.8,-2 0,-0.8 0.3,-1.7 1,-2.5 0.7,-0.8 1.6,-1.6 2.7,-2.2 3.2,-1.7 6.5,-2.5 9.9,-2.5 z M 60.4,45 c -0.8,0 -1.4,0.3 -2,0.9 -0.6,0.6 -0.9,1.4 -0.9,2.3 0,0.8 0.2,1.5 0.6,2 0.4,0.5 0.9,0.8 1.6,0.8 1.4,0 2.1,-1.2 2.1,-3.5 0,-1 -0.1,-1.6 -0.3,-1.9 C 61.4,45.2 61,45.1 60.4,45 Z"
   id="path2">
  </path>
  <path
   class="st1"
   d="m 88.6,29.9 c 0.9,0 2.3,0.2 4.3,0.6 0.4,0.1 0.7,0.1 1,0.1 0.3,0 0.9,-0.2 1.7,-0.5 0.4,-0.2 0.7,-0.2 1,-0.2 0.8,0 1.6,0.5 2.4,1.5 0.7,0.8 1.2,1.7 1.6,2.7 0.4,1 0.6,1.8 0.6,2.5 0,0.7 -0.2,1.3 -0.7,1.7 -0.5,0.5 -1.1,0.7 -1.8,0.7 -0.6,0 -1.2,-0.1 -1.6,-0.4 -0.5,-0.3 -1.3,-1 -2.3,-2 -1.1,-1.1 -2,-1.6 -2.8,-1.6 -0.5,0 -0.9,0.2 -1.3,0.5 -0.4,0.4 -0.5,0.8 -0.5,1.3 0,0.9 0.8,1.7 2.5,2.4 2.9,1.3 5.2,2.8 6.8,4.3 1.3,1.3 2,2.9 2,4.9 0,2.4 -1.1,4.4 -3.2,6.1 -1.8,1.4 -4.1,2.1 -6.7,2.1 -0.7,0 -1.9,-0.1 -3.7,-0.3 C 86.2,56.1 85.3,56 85,56 c -0.2,0 -0.5,0 -0.8,0.1 -0.5,0.1 -0.9,0.1 -1.1,0.1 -0.8,0 -1.5,-0.2 -1.9,-0.6 -0.7,-0.6 -1.4,-1.7 -2,-3 -0.6,-1.4 -0.9,-2.6 -0.9,-3.6 0,-1.6 0.6,-2.4 1.9,-2.4 0.5,0 0.9,0.2 1.3,0.5 0.4,0.3 1.3,1.2 2.6,2.6 0.7,0.8 1.3,1.3 1.8,1.6 0.5,0.3 1,0.4 1.5,0.4 0.6,0 1,-0.2 1.4,-0.5 0.3,-0.3 0.5,-0.7 0.5,-1.2 0,-0.8 -0.7,-1.5 -2,-2.1 -2.8,-1.4 -4.8,-2.8 -6.1,-4.3 -1.2,-1.5 -1.9,-3.2 -1.9,-5.1 0,-2.1 0.6,-3.9 1.9,-5.4 1.8,-2.1 4.3,-3.2 7.4,-3.2 z"
   id="path3">
  </path>
  <path
   class="st1"
   d="m 129.8,42.8 -3.5,9.5 c -0.9,2.4 -1.7,4.3 -2.6,5.8 -0.9,1.5 -1.8,2.8 -2.9,3.8 -2.3,2.2 -5,3.2 -8.2,3.2 -2.6,0 -4.7,-0.7 -6.3,-2 -1.2,-1 -1.9,-2.4 -1.9,-4 0,-1.3 0.4,-2.5 1.3,-3.4 0.9,-0.9 1.9,-1.4 3.2,-1.4 1.3,0 2.3,0.4 3,1.3 0.4,0.4 0.6,0.7 0.7,1 0.1,0.3 0.3,1 0.5,2 0.2,0.8 0.6,1.2 1.3,1.2 0.5,0 1,-0.2 1.4,-0.7 0.4,-0.5 0.6,-1.1 0.6,-1.8 0,-0.8 -0.5,-2.2 -1.4,-4.1 l -6.1,-13.5 c -0.7,-1.4 -1.2,-2.3 -1.5,-2.6 -0.3,-0.3 -1.1,-0.8 -2.2,-1.3 -0.3,-0.1 -0.7,-0.4 -0.9,-0.8 -0.3,-0.4 -0.4,-0.8 -0.4,-1.2 0,-1.6 1.5,-2.6 4.6,-3.2 2.1,-0.4 4.4,-0.5 7,-0.5 1.8,0 3.3,0.2 4.4,0.6 1.4,0.5 2.1,1.4 2.1,2.6 0,0.4 -0.2,1 -0.6,1.5 -0.4,0.6 -0.6,1.1 -0.6,1.5 0,0.4 0.1,0.9 0.3,1.3 0.2,0.5 0.6,1.2 1.2,2.3 0.7,1.2 1.2,1.8 1.8,1.8 0.5,0 1.1,-0.5 1.7,-1.6 0.6,-1.1 0.9,-2.1 0.9,-3.1 0,-0.8 -0.2,-1.5 -0.7,-2 -0.7,-0.8 -1,-1.5 -1,-2 0,-0.9 0.6,-1.6 1.8,-2.1 1.2,-0.5 2.8,-0.8 4.8,-0.8 3.7,0 5.5,0.9 5.5,2.7 0,0.6 -0.2,1.2 -0.6,1.6 -0.4,0.4 -1.1,0.8 -2.1,1.1 -0.8,0.3 -1.5,0.8 -2,1.6 -0.7,1.1 -1.6,3 -2.6,5.7 z"
   id="path4">
  </path>
  <path
   class="st1"
   d="m 157.6,19.7 c 2,0 3.9,0.2 6,0.5 1.7,0.3 2.8,0.7 3.6,1.2 0.7,0.5 1.1,1.2 1.1,2 0,0.5 -0.1,1 -0.4,1.3 -0.3,0.3 -0.8,0.7 -1.7,1.1 -1,0.5 -1.6,1.1 -1.7,1.8 -0.1,0.7 -0.3,3.4 -0.4,8.2 -0.1,4.6 -0.1,7.4 -0.1,8.3 0,0.9 -0.2,1.8 -0.3,2.7 -0.5,2.5 -1.5,4.5 -3.1,6 -1.3,1.2 -2.9,2.1 -4.8,2.8 -2,0.7 -4,1 -6.2,1 -1.9,0 -3.9,-0.3 -5.8,-0.8 -1.9,-0.5 -3.6,-1.2 -5.1,-2.1 -1.2,-0.7 -2.1,-1.7 -2.8,-3 -0.7,-1.2 -1,-2.6 -1,-4 0,-1.7 0.5,-3.2 1.6,-4.3 1.1,-1.1 2.5,-1.7 4.1,-1.7 1.6,0 3,0.5 4.1,1.4 1.1,1 1.7,2.2 1.7,3.6 0,0.4 -0.1,1 -0.3,1.8 0,0.2 -0.1,0.4 -0.1,0.6 0,0.6 0.2,1 0.6,1.4 0.4,0.3 0.9,0.5 1.6,0.5 1.2,0 2.1,-0.5 2.8,-1.6 0.7,-1 1.1,-2.4 1.1,-4.1 V 41.9 L 152,35.5 c -0.2,-3.9 -0.3,-6.2 -0.4,-6.9 -0.1,-0.7 -0.3,-1.3 -0.6,-1.7 -0.3,-0.3 -0.5,-0.6 -0.7,-0.7 -0.2,-0.1 -0.7,-0.3 -1.6,-0.5 -0.4,-0.1 -0.8,-0.3 -1.1,-0.7 -0.3,-0.4 -0.4,-0.8 -0.4,-1.3 0,-0.9 0.4,-1.7 1.1,-2.3 0.7,-0.6 1.9,-1 3.6,-1.4 1.8,-0.1 3.7,-0.3 5.7,-0.3 z"
   id="path5">
  </path>
  <path
   class="st1"
   d="m 192.5,44.2 h -12.3 c -0.5,0 -0.8,0.2 -0.8,0.7 0,1.1 0.6,2.2 1.8,3.2 1.2,1 2.6,1.5 4,1.5 0.8,0 1.8,-0.2 2.8,-0.5 1,-0.3 1.9,-0.7 2.5,-1.2 0.6,-0.4 1.1,-0.6 1.4,-0.6 0.5,0 0.9,0.3 1.3,0.8 0.4,0.6 0.7,1.1 0.7,1.7 0,1.3 -0.8,2.5 -2.4,3.6 -2.8,2.1 -6,3.1 -9.6,3.1 -3.7,0 -6.7,-1.1 -9.2,-3.2 -1.2,-1 -2.2,-2.3 -3,-3.8 -1,-2 -1.5,-4 -1.5,-6.2 0,-2.9 0.9,-5.6 2.7,-7.9 1.5,-2 3.5,-3.5 5.9,-4.5 1.8,-0.7 3.7,-1.1 5.8,-1.1 3.3,0 6.1,0.9 8.5,2.8 1.2,0.9 2.1,2.1 2.8,3.4 0.8,1.5 1.2,2.9 1.2,4.3 0,1.1 -0.2,2.1 -0.7,2.8 -0.6,0.8 -1.2,1.1 -1.9,1.1 z m -11.6,-4.8 h 2.6 c 1.1,0 1.7,-0.5 1.7,-1.5 0,-0.9 -0.3,-1.7 -0.8,-2.3 -0.5,-0.6 -1.2,-0.9 -2.1,-0.9 -1,0 -1.7,0.4 -2.3,1.2 -0.5,0.7 -0.8,1.4 -0.8,2.2 0,0.5 0.1,0.9 0.4,1.1 0.2,0 0.6,0.2 1.3,0.2 z"
   id="path6">
  </path>
  <path
   class="st1"
   d="m 211.9,36.8 v 8.8 c 0,1 0.3,1.9 0.8,2.6 0.5,0.7 1.2,1 2,1 0.7,0 1.6,-0.3 2.7,-0.9 0.3,-0.2 0.5,-0.2 0.8,-0.2 0.4,0 0.8,0.3 1.1,0.8 0.4,0.5 0.5,1.1 0.5,1.7 0,1.1 -0.6,2.1 -1.8,3.1 -2.5,2.1 -5.5,3.2 -9,3.2 -2.8,0 -5,-0.8 -6.7,-2.4 -1.7,-1.6 -2.5,-3.7 -2.5,-6.2 V 36 c 0,-0.4 0,-0.7 -0.1,-0.7 -0.1,-0.1 -0.3,-0.1 -0.7,-0.1 h -2.7 c -0.5,0 -0.8,-0.1 -1,-0.2 -0.1,-0.2 -0.2,-0.6 -0.2,-1.2 v -1.2 c 0,-0.5 0.2,-0.9 0.6,-1.2 l 12,-7.5 c 0.3,-0.2 0.7,-0.2 1.1,-0.2 h 2.1 c 0.4,0 0.7,0.1 0.9,0.3 0.1,0.2 0.2,0.6 0.2,1.2 v 3.5 c 0,0.5 0.1,0.9 0.2,1 0.2,0.2 0.5,0.2 1.1,0.2 h 4.8 c 0.6,0 1.1,0.1 1.3,0.4 0.2,0.2 0.3,0.7 0.3,1.5 v 1.5 c 0,0.8 -0.1,1.4 -0.4,1.7 -0.2,0.3 -0.7,0.5 -1.3,0.5 h -4.7 c -0.5,0 -0.8,0.1 -1,0.3 -0.3,0.1 -0.4,0.5 -0.4,1 z"
   id="path7">
  </path>
 </g><text
     xml:space="preserve"
     style="font-size:133.333px;font-family:Handlee;-inkscape-font-specification:'Handlee, Normal';text-align:end;writing-mode:lr-tb;direction:ltr;text-anchor:end;fill:#ffffff;fill-opacity:1"
     x="99.265099"
     y="57.812462"
     id="text7"><tspan
       sodipodi:role="line"
       id="tspan7"
       x="99.265099"
       y="57.812462"
       style="font-style:italic;font-variant:normal;font-weight:bold;font-stretch:normal;font-size:29.3333px;font-family:Sans;-inkscape-font-specification:'Sans, Bold Italic';font-variant-ligatures:normal;font-variant-caps:normal;font-variant-numeric:normal;font-variant-east-asian:normal;fill:#ffffff;fill-opacity:1">ATS<tspan
   style="font-style:normal;font-variant:normal;font-weight:bold;font-stretch:normal;font-family:Sans;-inkscape-font-specification:'Sans Bold'"
   id="tspan11">4</tspan></tspan></text></g></svg>
