<?xml version="1.0" encoding="UTF-8" standalone="no"?>
<!-- Created with Inkscape (http://www.inkscape.org/) -->

<svg
   width="447.16278mm"
   height="168.62611mm"
   viewBox="0 0 447.16278 168.62612"
   version="1.1"
   id="svg1"
   xml:space="preserve"
   inkscape:version="1.4 (e7c3feb1, 2024-10-09)"
   sodipodi:docname="Booker Wholesae.svg"
   xmlns:inkscape="http://www.inkscape.org/namespaces/inkscape"
   xmlns:sodipodi="http://sodipodi.sourceforge.net/DTD/sodipodi-0.dtd"
   xmlns="http://www.w3.org/2000/svg"
   xmlns:svg="http://www.w3.org/2000/svg"><sodipodi:namedview
     id="namedview1"
     pagecolor="#ffffff"
     bordercolor="#000000"
     borderopacity="0.25"
     inkscape:showpageshadow="2"
     inkscape:pageopacity="0.0"
     inkscape:pagecheckerboard="0"
     inkscape:deskcolor="#d1d1d1"
     inkscape:document-units="mm"
     inkscape:zoom="0.42401455"
     inkscape:cx="998.78648"
     inkscape:cy="385.59998"
     inkscape:window-width="1800"
     inkscape:window-height="1126"
     inkscape:window-x="0"
     inkscape:window-y="43"
     inkscape:window-maximized="0"
     inkscape:current-layer="layer1" /><defs
     id="defs1" /><g
     inkscape:label="Layer 1"
     inkscape:groupmode="layer"
     id="layer1"
     transform="translate(869.28852,-358.16782)"><path
       style="display:inline;fill:#ee7a23;fill-opacity:1"
       d="m -869.11213,526.60903 c -0.097,-0.097 -0.17639,-38.01828 -0.17639,-84.26948 v -84.09309 l 223.46589,-0.0665 c 122.90624,-0.0365 223.51442,0.0121 223.57374,0.10805 0.0746,0.12069 0.15965,134.34204 0.10662,168.23278 -4.7e-4,0.29902 -446.6709,0.38715 -446.96986,0.0882 z m 154.74912,-21.0876 c 2.40225,-0.43052 5.95714,-2.17849 7.63381,-3.75359 3.48896,-3.27762 5.17093,-7.74097 5.17922,-13.74388 0.007,-5.34841 -1.13002,-8.93963 -3.92785,-12.4016 -1.9705,-2.43823 -4.36713,-3.94954 -7.6948,-4.85232 -2.42184,-0.65703 -9.21821,-0.64917 -11.60693,0.0134 -2.70012,0.74896 -4.77097,1.969 -6.74094,3.97139 -3.26279,3.3165 -4.6826,7.32222 -4.6826,13.21106 0,9.68101 4.49541,15.88096 12.7,17.51548 2.23026,0.44431 6.77328,0.46421 9.14009,0.04 z m -6.22968,-7.02509 c -2.10192,-0.45485 -4.21068,-2.59332 -4.97828,-5.04842 -1.12681,-3.60395 -0.89089,-9.14095 0.51572,-12.10389 1.97679,-4.16399 6.86922,-5.28946 10.5549,-2.42809 1.85701,1.44168 2.87898,4.58078 2.89407,8.8894 0.0183,5.23962 -1.1583,8.20618 -3.9686,10.00562 -1.04595,0.66972 -3.52527,1.00837 -5.01781,0.68538 z m 134.9375,7.01223 c 3.42185,-0.62829 5.78322,-1.76336 7.58368,-3.64533 3.03778,-3.17533 3.57598,-9.1316 1.15797,-12.8152 -1.24854,-1.90201 -4.86257,-4.19138 -7.45729,-4.72394 -1.75013,-0.35922 -5.11858,-1.49673 -5.94546,-2.00777 -0.9567,-0.59127 -1.15973,-0.98031 -1.15973,-2.2222 0,-1.20807 0.67556,-1.88617 2.36313,-2.37204 2.56856,-0.73952 7.67299,-0.29941 10.00143,0.86233 0.58179,0.29027 0.94153,0.34032 1.12529,0.15657 0.27269,-0.27269 0.81493,-6.60419 0.61254,-7.15228 -0.06,-0.16261 -1.08476,-0.5198 -2.27714,-0.79375 -3.21922,-0.73961 -10.67975,-0.68983 -13.28046,0.0886 -3.38575,1.01342 -5.59072,2.44153 -6.85588,4.44039 -1.18199,1.86746 -1.61271,3.40056 -1.59818,5.68854 0.0233,3.67098 1.50747,6.31827 4.6176,8.23641 0.92554,0.57082 4.96859,2.08234 5.56988,2.08234 0.27367,0 0.88858,0.16658 1.36646,0.37017 0.47788,0.20359 1.38235,0.58223 2.00994,0.84141 1.7004,0.70225 2.47546,1.75477 2.37769,3.22887 -0.0672,1.0136 -0.22757,1.31366 -1.06203,1.9873 -0.98204,0.79278 -0.98571,0.79342 -4.43587,0.77982 -3.52001,-0.0139 -4.18239,-0.13976 -7.63979,-1.45183 -1.1568,-0.43901 -1.45709,-0.47256 -1.63617,-0.1828 -0.28669,0.46386 -0.48243,2.2024 -0.57575,5.11372 l -0.0754,2.35229 1.05833,0.37984 c 2.90759,1.04355 10.4126,1.44572 14.15521,0.75853 z m -240.29946,-1.87419 c 0.20098,-0.87313 0.4748,-1.95314 0.60848,-2.40004 0.13369,-0.44689 0.24307,-1.24721 0.24307,-1.77849 0,-0.53127 0.22989,-2.07063 0.51087,-3.4208 0.51172,-2.45889 0.95032,-5.01626 1.86722,-10.88737 0.55096,-3.52792 0.88179,-4.209 1.28546,-2.64637 0.48702,1.88531 1.15867,5.24195 1.36978,6.84557 0.11494,0.87312 0.40114,2.54 0.63602,3.70417 0.23487,1.16416 0.55337,2.83104 0.70776,3.70416 0.1544,0.87313 0.38485,2.12328 0.51212,2.77813 0.12727,0.65484 0.37483,2.08359 0.55014,3.175 0.1753,1.0914 0.43321,2.1332 0.57312,2.3151 0.18977,0.24673 1.72227,0.33073 6.03351,0.33073 6.56969,0 5.9955,0.21941 6.57782,-2.51354 0.18603,-0.87313 0.51734,-2.30188 0.73622,-3.175 0.21889,-0.87313 0.49267,-2.12328 0.6084,-2.77813 0.21455,-1.21396 1.25576,-5.89414 2.00132,-8.99583 0.39981,-1.66334 0.68842,-2.94055 1.16582,-5.15937 0.60141,-2.79519 1.38685,-6.25193 1.77349,-7.80521 0.23545,-0.94589 0.48016,-2.2882 0.54381,-2.98292 l 0.11571,-1.26313 -4.59003,0.0725 -4.59002,0.0725 -0.0726,0.79375 c -0.0399,0.43656 -0.26189,1.68171 -0.4933,2.767 -0.23142,1.08528 -0.51458,2.57357 -0.62926,3.30729 -0.11467,0.73372 -0.51937,3.17951 -0.89934,5.43508 -0.37996,2.25557 -0.9282,5.52979 -1.21831,7.27604 -0.66768,4.01908 -0.9386,5.14128 -1.11779,4.63021 -0.27563,-0.78614 -0.72879,-3.23023 -0.72732,-3.92279 8.3e-4,-0.38908 -0.23445,-1.83851 -0.52284,-3.22096 -0.61568,-2.95135 -1.30279,-6.6817 -1.60826,-8.73125 -0.11929,-0.80036 -0.336,-1.87193 -0.48159,-2.38125 -0.14558,-0.50932 -0.40378,-1.87854 -0.57377,-3.04271 -0.48302,-3.30789 0.0791,-3.04271 -6.44924,-3.04271 -4.20214,0 -5.71349,0.0846 -5.90735,0.33073 -0.14328,0.1819 -0.52043,1.81901 -0.83811,3.63802 -0.31769,1.81901 -0.74126,4.14073 -0.94128,5.15938 -0.20002,1.01865 -0.49874,2.80458 -0.66384,3.96875 -0.16509,1.16417 -0.40248,2.53338 -0.52752,3.04271 -0.12504,0.50932 -0.36581,1.81901 -0.53505,2.91041 -0.16924,1.09141 -0.41766,2.48359 -0.55205,3.09373 -0.13439,0.61014 -0.24435,1.41381 -0.24435,1.78594 0,0.37212 -0.10338,0.67658 -0.22974,0.67658 -0.23704,0 -0.41957,-0.90801 -0.82436,-4.10104 -0.12914,-1.01864 -0.48808,-3.16177 -0.79764,-4.7625 -0.30955,-1.60073 -0.68323,-3.68432 -0.83038,-4.63021 -1.23174,-7.91735 -1.55989,-9.79178 -1.84224,-10.52303 -0.23138,-0.59924 -0.24798,-0.60093 -5.19607,-0.52917 -4.79013,0.0695 -4.96152,0.0905 -4.89465,0.60116 0.0971,0.74134 0.53822,2.9518 0.87126,4.36563 0.15426,0.65484 0.38829,1.78594 0.52007,2.51354 0.13179,0.7276 0.364,1.79917 0.51602,2.38125 0.15203,0.58208 0.51776,2.24896 0.81273,3.70417 0.29498,1.4552 0.64321,3.06255 0.77385,3.57187 0.13065,0.50932 0.49078,2.05714 0.8003,3.43958 0.30953,1.38245 0.78483,3.40651 1.05623,4.49792 0.2714,1.09141 0.57016,2.52016 0.66392,3.175 0.0937,0.65484 0.33032,1.72641 0.52571,2.38125 0.19538,0.65484 0.42966,1.71505 0.52062,2.35601 0.091,0.64097 0.2289,1.26818 0.30655,1.39381 0.0776,0.12563 2.95463,0.19652 6.3933,0.15753 l 6.25214,-0.0709 z m 53.9709,-5.6224 0.0704,-7.20989 h 5.15087 5.15087 l 0.0704,7.20989 0.0704,7.2099 4.46293,0.0727 c 3.07113,0.05 4.57717,-0.0221 4.82927,-0.23135 0.30508,-0.2532 0.36314,-2.98611 0.34723,-16.34456 -0.0105,-8.82229 -0.10486,-16.45724 -0.20965,-16.96656 l -0.19054,-0.92604 -4.31985,-0.0729 c -2.96095,-0.0499 -4.43496,0.0227 -4.68577,0.23083 -0.2924,0.24268 -0.36591,1.54631 -0.36591,6.489 v 6.18531 h -5.15468 -5.15467 l -0.0708,-6.41615 -0.0709,-6.41614 h -4.6302 -4.63021 l -0.0686,16.93333 c -0.0377,9.31333 -0.0106,17.08498 0.0602,17.27033 0.099,0.25892 1.1877,0.32023 4.69877,0.26459 l 4.56996,-0.0724 z m 109.73169,3.77032 v -3.43959 l -6.94532,-0.0705 c -5.28711,-0.0537 -6.94702,-0.14845 -6.95247,-0.39687 -0.004,-0.17949 -7.9e-4,-6.13257 0.007,-13.22908 0.009,-8.62191 -0.079,-13.07688 -0.26673,-13.42761 -0.2626,-0.49068 -0.56356,-0.52486 -4.62159,-0.52486 -2.91066,0 -4.40086,0.0973 -4.5233,0.29545 -0.19417,0.31417 -0.3563,33.47132 -0.16644,34.03697 0.0883,0.2629 2.58317,0.31889 11.79039,0.26459 l 11.67846,-0.0689 z m 43.09146,1.65696 c 0.1289,-1.00354 0.1289,-2.44898 0,-3.30729 l -0.22896,-1.52467 -7.61421,-0.0702 -7.61421,-0.0702 0.0736,-3.5866 0.0736,-3.58661 6.26968,0.0274 c 3.44833,0.0151 6.57372,-0.0489 6.94531,-0.14217 l 0.67563,-0.16958 v -3.2503 c 0,-2.71977 -0.0683,-3.27651 -0.41851,-3.4109 -0.23019,-0.0883 -3.38901,-0.1606 -7.0196,-0.1606 h -6.60109 l 0.0743,-3.24114 0.0743,-3.24115 7.35006,-0.0703 7.35006,-0.0703 -0.074,-3.36924 -0.074,-3.36923 h -12.17083 -12.17084 l -0.0686,16.93333 c -0.0377,9.31333 -0.0112,17.08334 0.0588,17.26668 0.10048,0.26288 2.74394,0.31881 12.50399,0.26459 l 12.37657,-0.0688 z m 68.64108,1.05275 c 0.38909,-0.81244 1.84986,-4.72331 2.14862,-5.75242 l 0.19203,-0.66146 6.09631,-0.0709 c 4.67804,-0.0544 6.1572,0.007 6.35806,0.26458 0.14397,0.18453 0.47606,0.99036 0.738,1.79072 0.26193,0.80037 0.63422,1.82506 0.82732,2.2771 0.19309,0.45204 0.50286,1.28548 0.68837,1.85208 l 0.33728,1.0302 4.96606,0.072 c 4.37156,0.0634 4.98571,0.0208 5.13019,-0.3557 0.0903,-0.23525 -0.22133,-1.39874 -0.69245,-2.58555 -0.47112,-1.18681 -1.03821,-2.63408 -1.26019,-3.21617 -0.22199,-0.58208 -0.50356,-1.29646 -0.6257,-1.5875 -0.12215,-0.29104 -0.5914,-1.5412 -1.04279,-2.77812 -0.45138,-1.23693 -1.0417,-2.78474 -1.31182,-3.43959 -0.27011,-0.65484 -0.84925,-2.14312 -1.28698,-3.30729 -0.43773,-1.16416 -1.33049,-3.48588 -1.98392,-5.15937 -0.65342,-1.67349 -1.56256,-4.05474 -2.0203,-5.29167 -0.45774,-1.23693 -1.05663,-2.78474 -1.33086,-3.43958 -0.27423,-0.65485 -0.64956,-1.64122 -0.83408,-2.19194 -0.20743,-0.61914 -0.54114,-1.0517 -0.87433,-1.13333 -0.29638,-0.0726 -2.90725,-0.0983 -5.80195,-0.057 -4.35578,0.0621 -5.29909,0.14341 -5.47195,0.47187 -0.11487,0.21828 -0.46948,1.11125 -0.78801,1.98438 -0.31853,0.87312 -0.78863,2.12328 -1.04466,2.77812 -0.25603,0.65484 -0.7096,1.84547 -1.00793,2.64583 -1.28294,3.44191 -1.98201,5.23008 -2.45549,6.28097 -0.27793,0.61688 -0.50533,1.33721 -0.50533,1.60073 0,0.26353 -0.10446,0.59225 -0.23213,0.73049 -0.2079,0.22513 -0.52037,1.00391 -1.64014,4.08781 -0.9383,2.58412 -1.63783,4.42798 -2.96118,7.80521 -1.81118,4.6222 -2.12749,5.60677 -1.91281,5.95412 0.11052,0.17883 1.76847,0.25048 4.71188,0.20361 l 4.54135,-0.0723 z m 4.81642,-13.90159 c 0,-0.26194 0.0982,-0.58936 0.21834,-0.7276 0.12008,-0.13825 0.78734,-2.03729 1.4828,-4.22011 1.5778,-4.95223 2.02678,-6.20116 2.28709,-6.36204 0.2072,-0.12806 1.03885,2.39046 1.03885,3.146 0,0.22368 0.11906,0.48027 0.26458,0.57021 0.14552,0.0899 0.26459,0.38118 0.26459,0.64722 0,0.26603 0.47625,1.93931 1.05833,3.7184 0.58208,1.7791 1.05833,3.34034 1.05833,3.46944 0,0.1291 -1.7264,0.23473 -3.83646,0.23473 -3.51797,0 -3.83645,-0.0395 -3.83645,-0.47625 z m 62.64125,11.72104 c 0.10583,-4.57724 0.94364,-4.08019 -7.01653,-4.16273 l -6.8091,-0.0706 -0.0686,-13.33733 c -0.0479,-9.31252 -0.15749,-13.44441 -0.36312,-13.69218 -0.39868,-0.48038 -8.69582,-0.51418 -9.17263,-0.0374 -0.2403,0.2403 -0.3175,4.41169 -0.3175,17.15382 0,9.25998 0.0806,16.91692 0.1791,17.01543 0.0985,0.0985 5.42656,0.14812 11.84011,0.11024 l 11.66099,-0.0689 z m 40.99091,2.71198 c 0.1375,-0.18571 0.18071,-1.6649 0.0985,-3.37344 l -0.14633,-3.0427 -7.60677,-0.0702 -7.60677,-0.0702 v -3.55529 -3.55529 l 6.85757,-0.0787 c 3.77166,-0.0433 6.93277,-0.15408 7.02468,-0.24624 0.0919,-0.0922 0.18394,-1.55934 0.2045,-3.2604 0.0294,-2.43539 -0.0437,-3.14412 -0.34395,-3.33411 -0.20974,-0.13271 -3.39134,-0.24311 -7.07022,-0.24533 l -6.68887,-0.004 0.0743,-3.24114 0.0743,-3.24115 0.66146,-0.0287 c 0.3638,-0.0158 3.67134,-0.0455 7.35009,-0.0661 l 6.68864,-0.0375 -0.0741,-3.37344 -0.074,-3.37343 h -12.03854 -12.03854 l -0.0681,17.26406 -0.0681,17.26406 h 12.27264 c 9.51113,0 12.32775,-0.0744 12.51752,-0.33073 z m -295.77409,-54.03243 c 6.46061,-0.76182 8.9592,-1.42521 13.01901,-3.45667 8.48274,-4.2446 13.05914,-11.25588 14.79661,-22.66918 1.93434,-12.7065 0.0927,-25.86094 -4.68869,-33.49059 -4.15791,-6.63473 -10.60215,-10.42168 -20.99071,-12.33515 -1.70027,-0.31318 -3.99301,-0.42066 -8.97301,-0.42066 -6.92582,0 -8.91957,0.19834 -13.61399,1.35433 -3.28824,0.80973 -3.64967,0.9153 -4.63431,1.35361 -0.50707,0.22572 -1.10054,0.48339 -1.31882,0.57261 -0.62152,0.25401 -3.78781,2.08592 -4.61929,2.67257 -1.47499,1.04067 -4.18827,3.73352 -5.4651,5.42396 -1.4047,1.85972 -3.93852,6.77398 -3.93852,7.63861 0,0.29274 -0.0987,0.59325 -0.21937,0.66782 -0.12065,0.0746 -0.37246,0.82573 -0.55956,1.66926 -0.18711,0.84353 -0.43542,1.89087 -0.5518,2.32744 -0.78579,2.94745 -0.91361,4.81909 -0.89442,13.09687 0.0192,8.28009 0.0456,8.71179 0.71105,11.64167 1.69527,7.46354 3.95978,11.94016 8.04853,15.9108 2.65006,2.57351 7.28034,5.26903 10.66348,6.20773 0.80037,0.22208 1.69334,0.50199 1.98438,0.62204 0.73471,0.30304 3.69264,0.82267 6.85913,1.20495 3.76935,0.45508 10.56183,0.45884 14.3854,0.008 z m -10.18238,-7.81136 c -0.90082,-0.12739 -1.87525,-0.35867 -2.16542,-0.51396 -0.29016,-0.15529 -0.75124,-0.28235 -1.02461,-0.28235 -0.57903,0 -2.94014,-1.10125 -4.13508,-1.92864 -4.85181,-3.35946 -7.51243,-9.51494 -8.14385,-18.84115 -0.31346,-4.62976 -0.12714,-14.39426 0.3327,-17.43625 0.8473,-5.60517 2.67781,-9.9371 5.43339,-12.85816 0.96114,-1.01886 1.84619,-1.85247 1.96679,-1.85247 0.1206,0 0.74853,-0.35718 1.39539,-0.79375 0.64686,-0.43656 1.33744,-0.79381 1.53462,-0.79388 0.19717,-7e-5 1.01334,-0.26021 1.81371,-0.57808 1.3047,-0.51818 1.94779,-0.5784 6.21771,-0.58227 4.93491,-0.004 5.56736,0.10607 8.59896,1.50291 4.90387,2.25952 7.91979,7.24356 9.15882,15.1357 0.723,4.60515 0.72899,19.52981 0.01,23.8125 -0.69622,4.14458 -1.8869,7.52849 -3.44174,9.78146 -0.70401,1.02011 -2.86662,3.31541 -3.12375,3.31541 -0.10731,0 -0.7071,0.3417 -1.33286,0.75933 -1.11057,0.7412 -1.44512,0.87287 -4.43913,1.74716 -1.74257,0.50885 -6.38841,0.72704 -8.65521,0.40649 z m 85.73094,7.81366 c 7.41092,-0.91933 11.10023,-2.14704 16.11055,-5.36116 5.66307,-3.63287 9.42317,-9.96647 11.35335,-19.12381 0.53573,-2.54162 0.58539,-3.51016 0.58335,-11.37708 -0.002,-8.30034 -0.0268,-8.71639 -0.7104,-11.98052 -0.82703,-3.94915 -1.44335,-5.85755 -2.85915,-8.85319 -1.69523,-3.58687 -3.87599,-6.44128 -6.71566,-8.79018 -1.06184,-0.87832 -1.98795,-1.59695 -2.05802,-1.59695 -0.0701,0 -0.88371,-0.44826 -1.80809,-0.99614 -0.92438,-0.54788 -2.09741,-1.15352 -2.60673,-1.34587 -2.88619,-1.08996 -5.72253,-1.91681 -7.38318,-2.15233 -1.03749,-0.14715 -2.39032,-0.38383 -3.00627,-0.52596 -0.61596,-0.14214 -4.21555,-0.26189 -7.99909,-0.26612 -7.12602,-0.008 -8.52598,0.13219 -13.49375,1.35101 -4.12066,1.01098 -3.79004,0.89513 -6.74688,2.36413 -6.8124,3.38451 -11.31955,8.84483 -13.80246,16.72143 -1.72752,5.48027 -2.54372,15.80558 -1.78923,22.63458 1.05613,9.55927 3.66075,15.9521 8.52103,20.91418 1.4903,1.52152 2.28478,2.15766 4.40089,3.52378 1.37199,0.88574 4.68819,2.38087 6.89365,3.10804 5.69901,1.87906 15.87525,2.6504 23.11609,1.75216 z m -10.14205,-7.79134 c -0.80037,-0.11356 -1.87193,-0.33345 -2.38125,-0.48863 -0.50932,-0.15519 -1.40229,-0.42823 -1.98438,-0.60675 -2.70559,-0.82979 -6.55489,-4.25777 -8.04901,-7.16804 -1.229,-2.39384 -2.26628,-5.71889 -2.83624,-9.09167 -0.71828,-4.25046 -0.71437,-17.69097 0.006,-22.09271 0.68285,-4.16998 2.01529,-8.12512 3.42667,-10.17152 0.68883,-0.99876 3.66181,-4.11598 3.92553,-4.11598 0.10605,0 0.7048,-0.33722 1.33056,-0.74938 0.62576,-0.41216 2.09024,-1.03699 3.25441,-1.38852 1.85731,-0.56082 2.63537,-0.6392 6.35,-0.63968 3.77093,-4.8e-4 4.45008,0.07 6.21771,0.64536 5.23583,1.70421 8.25564,4.80623 10.18502,10.4623 0.67094,1.96688 0.89137,2.98528 1.4613,6.75117 0.70216,4.63968 0.52198,19.80095 -0.27671,23.28334 -0.15019,0.65484 -0.39729,1.78593 -0.54912,2.51354 -0.93236,4.46821 -3.4051,8.25484 -6.85174,10.49246 -1.42954,0.92808 -1.81851,1.08432 -4.78534,1.92216 -1.74399,0.49251 -6.37949,0.73546 -8.44383,0.44255 z m -140.09688,6.84548 c 2.32834,-0.12344 5.38287,-0.39618 6.78786,-0.60609 12.29815,-1.83732 19.75071,-6.813 21.67141,-14.46886 0.46205,-1.84174 0.47181,-6.78633 0.0175,-8.86104 -0.65211,-2.97787 -2.33024,-6.13409 -4.20699,-7.9125 -1.29907,-1.23099 -4.07637,-3.32394 -4.426,-3.33539 -0.14552,-0.005 -0.56224,-0.24149 -0.92604,-0.52606 -0.3638,-0.28457 -0.84181,-0.52005 -1.06225,-0.52329 -0.22044,-0.003 -0.84508,-0.24401 -1.3881,-0.53505 -0.54302,-0.29104 -1.27837,-0.52916 -1.63412,-0.52916 -1.26065,0 -0.90489,-0.47162 1.11401,-1.47682 1.52412,-0.75886 2.5831,-1.55899 4.16109,-3.14399 2.41586,-2.4266 3.57602,-4.48023 4.22001,-7.46997 0.53104,-2.46532 0.5093,-4.21482 -0.0848,-6.82693 -1.1297,-4.96682 -4.09704,-8.34158 -9.42685,-10.72117 -1.01865,-0.45479 -2.05883,-0.93725 -2.31151,-1.07213 -0.25269,-0.13488 -0.68463,-0.24524 -0.95988,-0.24524 -0.27524,0 -0.90292,-0.16817 -1.39483,-0.3737 -0.84782,-0.35424 -3.09125,-0.76892 -8.16607,-1.50942 -1.62366,-0.23692 -6.77321,-0.31738 -18.52083,-0.28939 l -16.27188,0.0388 -0.46302,0.56702 c -0.43562,0.53346 -0.46302,2.57619 -0.46302,34.51944 0,20.63187 0.0979,34.20994 0.24956,34.60881 0.13725,0.36101 0.46468,0.71214 0.7276,0.78028 0.84331,0.21856 28.36959,0.14452 32.75721,-0.0881 z m -9.65729,-7.8117 c -0.21828,-0.0474 -1.43741,-0.16325 -2.70917,-0.25741 -2.04926,-0.15173 -2.40323,-0.25615 -3.11165,-0.91791 l -0.79936,-0.74671 0.0689,-11.59904 0.0689,-11.59905 5.15938,-0.0695 c 8.76009,-0.11793 14.33303,0.74708 17.76249,2.75703 2.18352,1.27973 3.00893,2.19299 4.12353,4.56241 0.87619,1.86263 0.9204,2.09535 0.90474,4.7625 -0.022,3.74954 -0.75551,6.14029 -2.57481,8.39239 -1.92657,2.38488 -5.65806,3.93569 -10.82325,4.49816 -2.90267,0.31608 -7.09485,0.42886 -8.06979,0.21709 z m -6.41614,-33.34052 c -0.23727,-0.24173 -0.2698,-18.21187 -0.0351,-19.3854 0.32796,-1.63981 0.83862,-1.75306 7.77415,-1.72411 5.48561,0.0229 6.44944,0.0919 8.18582,0.58584 1.08246,0.30794 2.08854,0.68031 2.23573,0.8275 0.14719,0.14719 0.44134,0.26761 0.65368,0.26761 0.21233,0 1.01134,0.4721 1.77558,1.0491 1.68807,1.2745 2.55938,2.95988 3.05027,5.9001 0.31678,1.89738 0.29907,2.22613 -0.23165,4.30104 -0.53699,2.09942 -1.23586,3.48213 -2.17568,4.30458 -1.77144,1.5502 -4.47288,2.74669 -7.9375,3.51559 -1.64193,0.3644 -12.98916,0.67007 -13.29531,0.35815 z m 216.64863,40.71645 0.65723,-0.70915 -0.0746,-14.77572 c -0.0554,-10.99117 0.003,-14.75705 0.2282,-14.70282 0.16652,0.0401 1.05948,0.97681 1.98438,2.0816 0.92489,1.10479 4.53913,5.31595 8.03163,9.35813 3.4925,4.04217 6.80731,7.90075 7.36625,8.57462 1.59322,1.92082 4.99143,5.86228 5.82865,6.76044 0.41772,0.44812 1.07256,1.22527 1.45521,1.727 0.38265,0.50173 0.97494,1.2161 1.31622,1.5875 l 0.6205,0.67527 8.57539,0.0765 8.57538,0.0766 0.65985,-0.65984 c 0.36291,-0.36292 0.65984,-0.83922 0.65984,-1.05845 0,-0.36497 -2.02937,-3.10424 -2.76075,-3.72649 -0.17104,-0.14552 -1.12609,-1.21708 -2.12232,-2.38125 -0.99624,-1.16417 -1.94556,-2.23573 -2.1096,-2.38125 -0.16404,-0.14552 -1.43236,-1.57427 -2.8185,-3.175 -1.38613,-1.60073 -2.88802,-3.32713 -3.33753,-3.83646 -0.44951,-0.50932 -2.22326,-2.53338 -3.94167,-4.49791 -1.7184,-1.96454 -3.20027,-3.63141 -3.29305,-3.70417 -0.0928,-0.0728 -0.92087,-1.02526 -1.8402,-2.11667 -0.91933,-1.0914 -1.83101,-2.11619 -2.02594,-2.2773 -0.19494,-0.16111 -0.69617,-0.72295 -1.11385,-1.24853 -0.68636,-0.86367 -1.42183,-1.70956 -5.31924,-6.11787 -2.38165,-2.69384 -2.29024,-2.21864 -0.74216,-3.85806 3.56139,-3.77155 10.7688,-11.32679 14.22689,-14.9135 2.11005,-2.18854 5.08662,-5.28163 6.61459,-6.87355 1.52796,-1.59191 3.34367,-3.47255 4.03489,-4.17919 1.41959,-1.45127 1.63106,-2.44459 0.69983,-3.28734 -0.50686,-0.45871 -1.01246,-0.50403 -5.6224,-0.50403 h -5.06545 l -2.2899,2.38125 c -2.65012,2.75583 -3.11297,3.23889 -10.01322,10.45048 -2.83766,2.96568 -6.7174,7.00678 -8.62164,8.98021 -4.4302,4.59116 -6.65901,6.96964 -7.11348,7.59117 -0.19866,0.27169 -0.43639,0.41878 -0.52829,0.32688 -0.0919,-0.0919 -0.1583,-6.67027 -0.14755,-14.61861 0.017,-12.56065 -0.0341,-14.55527 -0.3905,-15.24447 l -0.41005,-0.79295 -2.57289,0.002 c -1.41509,0.001 -3.34187,0.12676 -4.28172,0.27924 -0.93985,0.15249 -3.23498,0.36738 -5.10029,0.47753 -2.67031,0.1577 -3.48842,0.29724 -3.84742,0.65623 -0.42612,0.4261 -0.46019,2.66657 -0.52043,34.225 -0.0424,22.185 0.0275,34.11066 0.20368,34.76488 0.15193,0.56423 0.46656,1.04784 0.72593,1.11582 0.25177,0.066 3.70791,0.13381 7.6803,0.15069 l 7.22253,0.0307 z m 103.40555,0.11746 c 0.61875,-0.54994 0.68632,-0.8278 0.82611,-3.39734 0.13708,-2.51978 0.10052,-2.86224 -0.36716,-3.43958 l -0.51939,-0.64117 h -16.62578 c -9.14418,0 -16.89844,-0.10443 -17.23168,-0.23207 -1.34322,-0.51446 -1.37847,-0.8499 -1.37847,-13.11625 v -11.39022 h 13.69946 c 11.97086,0 13.77366,-0.052 14.2875,-0.41188 0.55394,-0.38799 0.58804,-0.60226 0.58804,-3.69486 0,-3.025 -0.0421,-3.3055 -0.53543,-3.56953 -0.72943,-0.39038 -4.83775,-0.51324 -17.39009,-0.52004 l -10.64948,-0.006 V 399.27101 389.2316 l 0.63838,-0.74236 0.63837,-0.74236 16.01925,-0.13229 c 15.62984,-0.12908 16.02897,-0.14515 16.41884,-0.66146 0.29673,-0.39296 0.40175,-1.25373 0.40799,-3.34412 0.007,-2.38578 -0.0687,-2.9102 -0.49755,-3.43959 l -0.50597,-0.62462 -24.69559,0.0607 -24.6956,0.0607 -0.46302,0.56395 c -0.43562,0.53057 -0.46302,2.5671 -0.46302,34.41444 0,36.24441 -0.0382,35.16328 1.25318,35.48935 0.25664,0.0648 11.73925,0.13501 25.51692,0.15601 l 25.05031,0.0382 z m 22.20324,-0.0698 c 0.22506,-0.3819 0.34866,-4.68943 0.44414,-15.47812 l 0.13229,-14.94896 2.53423,-0.0752 2.53423,-0.0752 2.09598,2.95827 c 1.15279,1.62704 2.67955,3.804 3.39281,4.83768 0.71326,1.03367 2.20431,3.12956 3.31344,4.65753 1.10913,1.52797 2.45841,3.43297 2.99839,4.23334 0.53999,0.80036 1.33338,1.93145 1.76308,2.51354 0.42971,0.58208 1.43969,2.01083 2.24442,3.175 0.80472,1.16416 1.85251,2.65245 2.32842,3.30729 0.47592,0.65484 1.50183,2.08359 2.2798,3.175 0.77798,1.0914 1.61294,2.0653 1.85548,2.16421 0.55217,0.2252 14.50964,0.26843 15.33438,0.0475 0.77124,-0.20659 1.38747,-1.36939 1.10201,-2.07942 -0.11702,-0.29104 -0.63579,-1.12448 -1.15284,-1.85208 -1.02017,-1.4356 -3.22468,-4.59424 -3.86237,-5.53402 -1.34357,-1.98006 -3.08293,-4.49363 -4.16901,-6.0247 -0.69022,-0.97303 -2.14061,-3.05663 -3.22308,-4.63021 -1.08246,-1.57359 -2.45168,-3.53705 -3.0427,-4.36325 -0.59102,-0.82619 -1.49131,-2.1154 -2.00063,-2.8649 -0.50932,-0.7495 -1.37252,-1.94525 -1.91823,-2.65723 -0.5457,-0.71197 -0.99218,-1.39861 -0.99218,-1.52586 0,-0.12725 -0.23813,-0.44686 -0.52917,-0.71025 -0.29104,-0.26339 -0.52917,-0.61658 -0.52917,-0.78486 0,-0.1688 0.97859,-0.51708 2.18281,-0.77685 1.20055,-0.25898 2.54,-0.63437 2.97657,-0.8342 5.52259,-2.52794 6.07267,-2.86157 8.06979,-4.89437 1.74641,-1.77762 2.69343,-3.34557 3.74682,-6.20347 0.49561,-1.34463 0.58564,-2.13396 0.58847,-5.15937 0.003,-3.12157 -0.0767,-3.78869 -0.63179,-5.29167 -0.58615,-1.58718 -1.94395,-4.18717 -2.34897,-4.49792 -0.0948,-0.0728 -0.50621,-0.53822 -0.91417,-1.03436 -2.25978,-2.74819 -7.62045,-5.71346 -12.01966,-6.64871 -0.62055,-0.13192 -1.33812,-0.35216 -1.5946,-0.48943 -0.4683,-0.25063 -2.97577,-0.66743 -6.66985,-1.10869 -4.38108,-0.52333 -10.17251,-0.73882 -20.57311,-0.76551 l -10.91581,-0.028 -0.65971,0.6597 -0.6597,0.65971 v 33.99376 c 0,20.65778 0.0979,34.25127 0.24955,34.65015 0.13726,0.36101 0.46468,0.71477 0.72761,0.78612 0.26292,0.0714 3.79052,0.11114 7.83911,0.0884 7.05785,-0.0396 7.37391,-0.0631 7.67292,-0.57046 z m 0.54057,-38.8918 c -0.0834,-0.21721 -0.10938,-5.09651 -0.0579,-10.84289 l 0.0937,-10.44796 0.86511,-0.86493 0.86512,-0.86492 5.2203,0.0374 c 4.05629,0.029 5.57428,0.13875 6.8078,0.49209 4.83192,1.3841 7.09695,3.07975 8.40052,6.28882 0.65067,1.60177 0.72759,2.11937 0.7274,4.89479 -1.9e-4,2.88399 -0.0552,3.21982 -0.77706,4.74572 -2.25021,4.7565 -7.97984,6.95686 -18.11537,6.95686 -3.19466,0 -3.90484,-0.0696 -4.02968,-0.39493 z"
       id="path1" /></g></svg>
