<?xml version="1.0" encoding="UTF-8" standalone="no"?>
<!-- Generator: Adobe Illustrator 19.0.0, SVG Export Plug-In . SVG Version: 6.00 Build 0)  -->

<svg
   version="1.1"
   id="layer"
   x="0px"
   y="0px"
   viewBox="-153 -46 600.20001 177"
   xml:space="preserve"
   sodipodi:docname="british-medical-association-bma-logo-vector.svg"
   width="600.20001"
   height="177"
   inkscape:version="1.4 (e7c3feb1, 2024-10-09)"
   xmlns:inkscape="http://www.inkscape.org/namespaces/inkscape"
   xmlns:sodipodi="http://sodipodi.sourceforge.net/DTD/sodipodi-0.dtd"
   xmlns="http://www.w3.org/2000/svg"
   xmlns:svg="http://www.w3.org/2000/svg"><defs
   id="defs2" /><sodipodi:namedview
   id="namedview2"
   pagecolor="#ffffff"
   bordercolor="#000000"
   borderopacity="0.25"
   inkscape:showpageshadow="2"
   inkscape:pageopacity="0.0"
   inkscape:pagecheckerboard="0"
   inkscape:deskcolor="#d1d1d1"
   inkscape:zoom="0.85181253"
   inkscape:cx="29.349181"
   inkscape:cy="120.33164"
   inkscape:window-width="1800"
   inkscape:window-height="1126"
   inkscape:window-x="0"
   inkscape:window-y="43"
   inkscape:window-maximized="0"
   inkscape:current-layer="layer" />
<style
   type="text/css"
   id="style1">
	.st0{fill:#0C2967;}
	.st1{fill:#FFFFFF;}
</style>
<path
   class="st0"
   d="m 364.4,61.5 17.1,-47 17.1,47 z M 395,-28.6 h -15.6 c -6.8,0 -12.7,4.2 -15.1,10.2 L 316,114.4 h 29.2 l 10.5,-28.7 h 51.8 l 10.5,28.7 h 29.2 z M 253.2,90 c -4.7,10.9 -7.5,17.5 -16.2,17.5 -8.5,0 -11.6,-6.6 -16.6,-17.5 L 194.2,33.6 v 80.8 h -28.5 v -143 h 29.6 l 42.2,95.2 38.2,-95.2 h 29.8 v 143 H 277 v -80 z M 75.3,86.9 h 20.6 c 5,0 8.9,-0.2 11.8,-0.6 2.9,-0.4 5.2,-1.1 7.1,-2.1 3.1,-1.7 5.4,-3.8 6.9,-6.3 1.4,-2.5 2.1,-5.1 2.1,-7.8 0,-3.1 -0.9,-6.2 -2.7,-9.2 -1.8,-3 -4.5,-5.4 -8,-7.3 -2.3,-1.1 -4.9,-2 -7.8,-2.5 -2.9,-0.5 -6.2,-0.8 -9.8,-0.8 H 75.3 Z m 0,-60.1 h 14.2 c 3.3,0 6.4,-0.1 9.4,-0.4 3,-0.3 5.1,-0.8 6.4,-1.5 3.7,-1.7 6.4,-3.9 8,-6.5 1.6,-2.6 2.5,-5.4 2.5,-8.3 0,-3.4 -1.1,-6.6 -3.3,-9.5 -2.2,-2.9 -5.5,-5.1 -10,-6.5 C 101.8,-6 100.8,-6.2 99.6,-6.4 98.4,-6.6 97,-6.8 95.5,-6.8 94,-6.9 92.5,-6.9 91,-7 89.5,-7.1 88.2,-7.1 87,-7.1 H 75.3 Z m -28.5,84.5 v -143 h 51 c 6.9,0 13.2,0.9 19,2.6 5.8,1.7 10.8,4.3 14.9,7.6 4.1,3.4 7.4,7.4 9.8,12.2 2.4,4.8 3.5,10.2 3.5,16.2 0,6.4 -1.5,12 -4.6,16.7 -3.1,4.7 -7.3,8.7 -12.8,12 7.7,2.7 13.9,7 18.6,13 4.6,5.9 7,13.4 7,22.4 0,7.6 -2.1,14.8 -6.4,21.7 -4.3,6.9 -10.8,11.9 -19.5,15.2 -3.3,1.1 -6.8,2 -10.6,2.6 -3.8,0.6 -7.5,0.9 -11,0.9 H 46.8 Z"
   id="path1" />
<path
   id="path218"
   class="st0"
   d="M 24,42.5 C 24,91.4 -15.6,131 -64.5,131 -113.4,131 -153,91.4 -153,42.5 -153,-6.4 -113.4,-46 -64.5,-46 -15.6,-46 24,-6.3 24,42.5" />
<path
   class="st1"
   d="m -35,49.9 h -59 c -2.3,0 -4.2,-1.6 -4.8,-3.7 -0.8,0.4 -1.5,1 -2.2,1.6 -1.9,1.9 -2.9,4.3 -2.9,7 0,5.4 4.4,9.8 9.8,9.8 h 59 v 0 c 5.2,0 10.2,2 13.9,5.8 3.7,3.7 5.8,8.7 5.8,13.9 0,2.1 -0.3,4.2 -1,6.1 3.7,-4.3 5.9,-9.9 5.9,-15.9 0.1,-13.6 -11,-24.6 -24.5,-24.6 M -71.9,72 v 22.1 c 0,4.1 3.3,7.4 7.4,7.4 4.1,0 7.4,-3.3 7.4,-7.4 V 72 Z m -36.8,17.2 c 0,2.6 1,5.1 2.9,6.9 0.7,0.7 1.4,1.2 2.2,1.7 0.5,-2.1 2.4,-3.6 4.7,-3.6 h 17.2 V 79.5 h -17.2 c -5.4,-0.1 -9.8,4.3 -9.8,9.7 m 78.4,-13.5 c -0.6,2.1 -2.5,3.7 -4.8,3.7 h -12.3 v 14.7 h 12.3 c 5.4,0 9.8,-4.4 9.8,-9.8 0,-2.6 -1,-5.1 -2.9,-7 -0.5,-0.6 -1.3,-1.2 -2.1,-1.6 M -94,35.2 h 12.3 V 20.5 H -94 c -13.5,0 -24.6,11 -24.6,24.6 0,6.1 2.2,11.6 5.9,15.9 -0.6,-1.9 -1,-4 -1,-6.1 0,-10.9 8.9,-19.7 19.7,-19.7 M -35,20.4 H -47.3 V 35.1 H -35 c 5.4,0 9.8,-4.4 9.8,-9.8 0,-3.7 -2.1,-6.9 -5.1,-8.6 -0.5,2.1 -2.4,3.7 -4.7,3.7 m -22.1,0 c 0,-4.1 -3.3,-7.4 -7.4,-7.4 -4.1,0 -7.4,3.3 -7.4,7.4 v 22.1 h 14.7 V 20.4 Z M -85.4,-9.1 c 2,0 3.7,1.7 3.7,3.7 0,2 -1.6,3.7 -3.7,3.7 -2.1,0 -3.7,-1.7 -3.7,-3.7 0,-2 1.7,-3.7 3.7,-3.7 M -96.5,5.7 h 61.4 c 10.8,0 19.7,8.8 19.7,19.7 0,2.1 -0.3,4.2 -1,6.1 3.7,-4.3 5.9,-9.9 5.9,-15.9 C -10.5,2 -21.5,-9 -32.6,-9 h -36.9 c -5.2,-4.2 -8.8,-6.2 -12.3,-6.1 -4.7,0 -6.1,1.2 -13.5,4.9 -7.4,3.7 -13.5,6 -13.5,8.6 0.1,3.5 2.6,7.3 12.3,7.3"
   id="path2" />
</svg>
