<?xml version="1.0" encoding="UTF-8" standalone="no"?>
<!-- Generator: Adobe Illustrator 13.0.1, SVG Export Plug-In  -->

<svg
   version="1.1"
   x="0px"
   y="0px"
   width="220.3391"
   height="110.62112"
   viewBox="-0.828 -0.081 220.3391 110.62112"
   enable-background="new -0.828 -0.081 123 62"
   xml:space="preserve"
   id="svg15"
   sodipodi:docname="cable-and-wireless.svg"
   inkscape:export-filename="Cable_&amp;_Wireless.png"
   inkscape:export-xdpi="300"
   inkscape:export-ydpi="300"
   inkscape:version="1.4 (e7c3feb1, 2024-10-09)"
   xmlns:inkscape="http://www.inkscape.org/namespaces/inkscape"
   xmlns:sodipodi="http://sodipodi.sourceforge.net/DTD/sodipodi-0.dtd"
   xmlns="http://www.w3.org/2000/svg"
   xmlns:svg="http://www.w3.org/2000/svg"><sodipodi:namedview
   id="namedview15"
   pagecolor="#ffffff"
   bordercolor="#000000"
   borderopacity="0.25"
   inkscape:showpageshadow="2"
   inkscape:pageopacity="0.0"
   inkscape:pagecheckerboard="0"
   inkscape:deskcolor="#d1d1d1"
   inkscape:zoom="1.9016181"
   inkscape:cx="106.75119"
   inkscape:cy="26.556331"
   inkscape:window-width="1800"
   inkscape:window-height="1126"
   inkscape:window-x="0"
   inkscape:window-y="43"
   inkscape:window-maximized="0"
   inkscape:current-layer="svg15" />
<defs
   id="defs1">
</defs>















<g
   id="g15"
   transform="matrix(1.808155,0,0,1.808155,-0.82885793,-0.081)"><polyline
     fill="none"
     points="121.859,0 0.051,0 0.051,61.179 121.859,61.179 121.859,0 "
     id="polyline1" /><path
     fill="#006bb6"
     d="M 38.855,5.653 C 39.903,5.881 39.538,7.521 38.49,7.294 36.621,6.883 34.798,6.519 32.883,6.245 31.789,6.108 32.063,4.467 33.157,4.603 c 1.914,0.275 3.829,0.639 5.698,1.05 M 34.935,2.918 C 36.029,3.1 35.756,4.741 34.662,4.559 33.249,4.331 31.836,4.148 30.377,3.966 29.283,3.829 29.465,2.188 30.559,2.325 32.018,2.507 33.43,2.69 34.935,2.918 Z M 8.815,27.259 c 1.094,-0.227 1.458,1.414 0.364,1.643 C 6.763,29.403 4.347,30.087 2.068,30.907 1.02,31.271 0.473,29.721 1.521,29.356 3.893,28.536 6.309,27.852 8.815,27.259 Z M 23.539,25.71 c 2.006,0 3.966,0.091 5.926,0.228 1.094,0.092 1.003,1.732 -0.091,1.642 -1.96,-0.137 -3.92,-0.229 -5.835,-0.229 -3.282,0 -6.564,0.229 -9.755,0.729 -1.094,0.182 -1.367,-1.459 -0.273,-1.642 3.281,-0.5 6.655,-0.728 10.028,-0.728 z m 0,19.783 c 1.277,0 2.599,0 3.921,0.091 1.094,0.092 1.002,1.733 -0.092,1.641 -1.23,-0.091 -2.552,-0.091 -3.829,-0.091 -1.23,0 -2.461,0 -3.646,0.091 -1.094,0.093 -1.186,-1.549 -0.092,-1.641 1.276,-0.091 2.508,-0.091 3.738,-0.091 z m 0,-2.005 c 0.866,0 1.733,0.045 2.507,0.045 1.095,0 1.095,1.641 0,1.641 -0.866,0 -1.732,-0.046 -2.507,-0.046 -2.735,0 -5.515,0.183 -8.159,0.502 -1.094,0.137 -1.277,-1.504 -0.183,-1.641 2.734,-0.319 5.515,-0.501 8.342,-0.501 z m 8.479,0.547 c 1.094,0.227 0.821,1.868 -0.273,1.641 -0.73,-0.137 -1.459,-0.183 -2.325,-0.273 -1.094,-0.138 -0.912,-1.778 0.182,-1.642 0.774,0.091 1.595,0.136 2.416,0.274 z m -9.619,-2.508 c 1.094,0 1.094,1.641 0,1.641 -3.419,0.046 -6.792,0.365 -10.074,0.958 -1.094,0.182 -1.368,-1.459 -0.274,-1.641 3.373,-0.593 6.838,-0.912 10.348,-0.958 z m 12.764,0.958 c 1.094,0.182 0.821,1.822 -0.273,1.641 -3.145,-0.547 -6.336,-0.866 -9.618,-0.958 -1.095,-0.045 -1.095,-1.686 0,-1.641 3.373,0.092 6.654,0.411 9.891,0.958 z M 12.051,40.479 c 1.094,-0.228 1.368,1.413 0.274,1.642 -0.73,0.137 -1.505,0.318 -2.325,0.456 -1.094,0.228 -1.368,-1.413 -0.274,-1.642 0.731,-0.137 1.505,-0.319 2.325,-0.456 z m 11.488,-0.912 c 2.325,0 4.65,0.091 6.975,0.318 1.094,0.092 0.911,1.733 -0.183,1.642 -2.233,-0.229 -4.467,-0.319 -6.792,-0.319 -2.917,0 -5.743,0.183 -8.57,0.547 -1.094,0.137 -1.276,-1.504 -0.182,-1.641 2.825,-0.364 5.743,-0.547 8.752,-0.547 z m -0.365,-2.005 c 1.094,0 1.094,1.641 0,1.641 C 17.977,39.249 13.008,39.842 8.176,40.98 7.128,41.254 6.763,39.705 7.812,39.431 12.735,38.2 17.886,37.607 23.174,37.562 Z m 10.894,0.82 c 1.094,0.182 0.821,1.823 -0.273,1.641 -1.641,-0.272 -3.373,-0.455 -5.06,-0.592 -1.094,-0.092 -1.003,-1.732 0.091,-1.642 1.778,0.137 3.51,0.32 5.242,0.593 z m 5.288,1.003 c 1.049,0.273 0.684,1.914 -0.365,1.642 -0.729,-0.183 -1.504,-0.319 -2.324,-0.501 -1.049,-0.274 -0.684,-1.915 0.364,-1.642 0.73,0.182 1.505,0.318 2.325,0.501 z M 23.539,35.601 c 0.73,0 1.505,0 2.28,0.046 1.094,0.092 1.002,1.732 -0.092,1.642 -0.683,-0.046 -1.458,-0.046 -2.188,-0.046 -5.88,0 -11.487,0.729 -16.82,2.143 -1.049,0.273 -1.505,-1.275 -0.456,-1.55 5.515,-1.505 11.304,-2.235 17.276,-2.235 z m -3.055,-1.914 c 1.094,-0.046 1.185,1.596 0.091,1.642 -4.74,0.182 -9.344,0.912 -13.766,2.006 -1.049,0.273 -1.413,-1.277 -0.365,-1.55 4.514,-1.186 9.208,-1.916 14.04,-2.098 z m 9.346,0.228 c 1.094,0.137 0.912,1.778 -0.182,1.641 -0.867,-0.091 -1.732,-0.183 -2.644,-0.228 -1.094,-0.046 -1.003,-1.688 0.091,-1.642 0.911,0.046 1.868,0.138 2.735,0.229 z m 12.443,2.325 c 1.049,0.318 0.593,1.869 -0.455,1.549 -1.687,-0.501 -3.465,-0.866 -5.243,-1.23 -1.094,-0.228 -0.729,-1.868 0.365,-1.641 1.778,0.364 3.557,0.82 5.333,1.322 z M 23.539,31.636 c 3.556,0 7.066,0.273 10.485,0.82 1.094,0.182 0.82,1.824 -0.274,1.641 -3.327,-0.547 -6.746,-0.819 -10.211,-0.819 -6.701,0 -13.128,1.003 -19.236,2.825 -1.049,0.319 -1.505,-1.23 -0.456,-1.55 6.198,-1.915 12.808,-2.917 19.692,-2.917 z M 8.176,31.362 C 9.27,31.133 9.635,32.775 8.541,33.003 6.809,33.368 5.077,33.869 3.436,34.416 2.387,34.735 1.84,33.185 2.889,32.866 4.622,32.32 6.354,31.818 8.176,31.362 Z m 15.363,-1.686 c 0.775,0 1.55,0 2.416,0.045 1.094,0.046 1.003,1.688 -0.091,1.642 -0.775,-0.046 -1.55,-0.046 -2.325,-0.046 -3.92,0 -7.749,0.319 -11.487,1.004 -1.094,0.182 -1.367,-1.459 -0.273,-1.643 3.828,-0.683 7.748,-1.002 11.76,-1.002 z m 9.891,0.683 c 1.094,0.137 0.912,1.777 -0.182,1.641 -1.322,-0.182 -2.599,-0.319 -3.92,-0.456 -1.095,-0.091 -0.912,-1.732 0.182,-1.641 1.323,0.137 2.598,0.274 3.92,0.456 z M 41.134,32 c 1.048,0.274 0.592,1.824 -0.456,1.55 -0.821,-0.228 -1.687,-0.41 -2.598,-0.684 -1.094,-0.229 -0.73,-1.777 0.364,-1.55 0.912,0.183 1.778,0.365 2.69,0.684 z M 23.539,27.67 c 4.194,0 8.297,0.41 12.308,1.094 1.094,0.183 0.821,1.823 -0.274,1.642 -3.92,-0.685 -7.931,-1.095 -12.034,-1.095 -7.293,0 -14.313,1.186 -20.877,3.373 C 1.613,33.049 1.066,31.499 2.115,31.134 8.86,28.854 16.063,27.67 23.539,27.67 Z m 21.562,3.51 c 1.048,0.364 0.501,1.914 -0.547,1.55 -1.14,-0.409 -2.416,-0.774 -3.647,-1.14 -1.049,-0.319 -0.593,-1.869 0.456,-1.55 1.23,0.365 2.506,0.729 3.738,1.14 z M 19.39,23.841 c 1.094,-0.046 1.185,1.595 0.091,1.642 C 14.285,25.801 9.179,26.758 4.347,28.171 3.299,28.49 2.843,26.941 3.892,26.621 8.815,25.117 14.011,24.16 19.39,23.841 Z m 20.969,2.006 c 1.048,0.273 0.684,1.823 -0.365,1.549 -5.242,-1.275 -10.712,-2.006 -16.319,-2.006 -1.094,0 -1.094,-1.64 0,-1.64 5.789,0 11.35,0.729 16.684,2.097 z m 5.789,1.732 c 1.003,0.41 0.456,1.96 -0.547,1.549 -0.684,-0.273 -1.459,-0.501 -2.279,-0.774 -1.049,-0.41 -0.502,-1.961 0.547,-1.55 0.729,0.273 1.505,0.501 2.279,0.775 z M 23.539,21.744 c 1.14,0 2.325,0.045 3.465,0.091 1.094,0.046 1.003,1.687 -0.091,1.641 -1.14,-0.046 -2.234,-0.091 -3.374,-0.091 -7.84,0 -15.316,1.367 -22.245,3.829 -1.048,0.365 -1.595,-1.185 -0.547,-1.55 7.11,-2.553 14.77,-3.92 22.792,-3.92 z m 11.396,0.957 c 1.094,0.182 0.821,1.823 -0.273,1.641 -1.003,-0.182 -1.96,-0.319 -2.963,-0.456 -1.094,-0.136 -0.912,-1.777 0.182,-1.641 1.002,0.137 2.05,0.274 3.054,0.456 z M 23.539,19.784 c 1.094,0 1.094,1.641 0,1.641 -7.886,0 -15.407,1.367 -22.427,3.874 C 0.063,25.664 -0.484,24.114 0.565,23.75 7.767,21.151 15.47,19.784 23.539,19.784 Z m 15.544,1.823 c 1.048,0.228 0.683,1.777 -0.365,1.55 -3.738,-0.866 -7.658,-1.413 -11.67,-1.642 -1.094,-0.046 -1.003,-1.687 0.092,-1.641 4.102,0.229 8.113,0.776 11.943,1.733 z M 10.82,18.963 c 1.094,-0.228 1.368,1.413 0.274,1.641 -3.419,0.685 -6.747,1.551 -9.938,2.69 -1.048,0.364 -1.595,-1.186 -0.547,-1.55 3.284,-1.14 6.702,-2.098 10.211,-2.781 z m 12.719,-1.185 c 3.966,0 7.886,0.364 11.715,1.003 1.095,0.182 0.821,1.822 -0.273,1.641 -3.738,-0.638 -7.567,-1.003 -11.442,-1.003 -2.507,0 -4.968,0.182 -7.476,0.456 -1.094,0.137 -1.276,-1.504 -0.182,-1.641 2.506,-0.274 5.059,-0.456 7.658,-0.456 z M 6.171,18.051 c 1.048,-0.272 1.504,1.277 0.456,1.55 -1.824,0.502 -3.556,1.05 -5.334,1.688 C 0.245,21.654 -0.302,20.103 0.746,19.739 2.524,19.1 4.347,18.553 6.171,18.051 Z M 22.9,15.818 c 1.094,0 1.094,1.641 0,1.641 -3.875,0 -9.071,0.592 -13.037,1.413 C 8.77,19.1 8.404,17.459 9.499,17.23 13.647,16.41 18.843,15.818 22.9,15.818 Z M 14.421,14.45 c 1.095,-0.137 1.277,1.505 0.183,1.641 C 10.182,16.684 5.852,17.687 1.703,19.146 0.655,19.51 0.108,17.96 1.156,17.596 5.396,16.137 9.817,15.043 14.421,14.45 Z m 6.884,-0.592 c 1.094,-0.047 1.185,1.595 0.091,1.641 -1.368,0.045 -2.69,0.137 -3.966,0.272 -1.094,0.092 -1.276,-1.55 -0.182,-1.641 1.367,-0.135 2.69,-0.227 4.057,-0.272 z m 12.353,0.729 c 1.094,0.137 0.912,1.778 -0.182,1.641 -1.961,-0.272 -3.966,-0.501 -5.926,-0.638 -1.094,-0.091 -1.003,-1.731 0.091,-1.641 2.051,0.137 4.057,0.364 6.017,0.638 z m 12.445,3.1 c 1.049,0.364 0.502,1.914 -0.547,1.551 -1.139,-0.411 -2.279,-0.775 -3.464,-1.141 -1.048,-0.318 -0.593,-1.869 0.456,-1.55 1.184,0.365 2.415,0.73 3.555,1.14 z M 23.539,11.852 c 2.006,0 3.966,0.092 5.972,0.274 1.094,0.091 0.912,1.732 -0.182,1.641 -1.915,-0.183 -3.875,-0.273 -5.79,-0.273 -7.43,0 -14.541,1.23 -21.151,3.465 -1.048,0.364 -1.595,-1.187 -0.547,-1.55 6.791,-2.326 14.085,-3.557 21.698,-3.557 z m 14.542,1.55 c 1.048,0.228 0.684,1.868 -0.365,1.641 -1.413,-0.319 -2.872,-0.593 -4.376,-0.821 -1.094,-0.182 -0.821,-1.822 0.273,-1.641 1.504,0.228 2.962,0.502 4.468,0.821 z M 23.539,9.892 c 0.456,0 0.912,0 1.368,0 1.094,0 1.094,1.642 0,1.642 -0.456,0 -0.912,0 -1.368,0 -7.065,0 -13.857,1.094 -20.239,3.145 C 2.252,15.044 1.704,13.494 2.753,13.129 9.316,10.986 16.291,9.892 23.539,9.892 Z M 17.795,8.16 C 18.889,8.069 18.98,9.71 17.886,9.801 13.327,10.165 8.815,11.032 4.53,12.308 3.481,12.627 3.025,11.078 4.074,10.758 8.45,9.391 13.054,8.524 17.795,8.16 Z m 5.744,-0.228 c 0.821,0 1.687,0 2.553,0.045 C 27.186,8.022 27.094,9.664 26,9.618 25.225,9.573 24.359,9.573 23.538,9.573 c -1.003,0 -2.005,0 -2.963,0.045 C 19.481,9.664 19.39,8.022 20.484,7.976 21.533,7.932 22.535,7.932 23.539,7.932 Z m 13.173,1.231 c 1.094,0.182 0.821,1.823 -0.273,1.641 -2.006,-0.365 -4.057,-0.684 -6.154,-0.912 -1.094,-0.137 -0.912,-1.777 0.182,-1.641 2.097,0.228 4.24,0.547 6.245,0.912 z m 6.519,1.641 c 1.048,0.273 0.592,1.823 -0.456,1.55 -0.684,-0.183 -1.413,-0.41 -2.097,-0.593 -1.049,-0.273 -0.593,-1.823 0.456,-1.55 0.684,0.182 1.413,0.41 2.097,0.593 z M 19.938,6.017 C 21.032,5.972 21.123,7.614 20.029,7.659 15.334,7.932 10.73,8.662 6.354,9.802 5.306,10.075 4.85,8.526 5.898,8.252 10.457,7.02 15.151,6.291 19.938,6.017 Z M 31.515,6.382 C 32.61,6.519 32.427,8.16 31.333,8.023 30.513,7.932 29.692,7.841 28.917,7.795 27.823,7.749 27.915,6.108 29.008,6.154 29.875,6.2 30.695,6.291 31.515,6.382 Z M 12.279,4.878 C 13.373,4.695 13.647,6.336 12.553,6.519 11.276,6.747 10,6.975 8.77,7.248 7.675,7.476 7.311,5.835 8.404,5.607 9.727,5.333 11.003,5.105 12.279,4.878 Z m 11.26,-0.912 c 0.547,0 1.094,0 1.641,0 1.094,0 1.094,1.642 0,1.642 -0.547,0 -1.094,0 -1.641,0 -2.735,0 -5.424,0.137 -8.022,0.455 C 14.422,6.201 14.24,4.559 15.334,4.422 18.023,4.103 20.712,3.966 23.539,3.966 Z m -1.185,-1.96 c 1.094,0 1.094,1.641 0,1.641 C 18.981,3.693 15.653,4.011 12.371,4.559 11.277,4.742 11.004,3.1 12.098,2.918 15.47,2.371 18.889,2.051 22.354,2.006 Z M 23.539,0 c 1.733,0 3.51,0.046 5.197,0.182 1.094,0.093 1.003,1.733 -0.091,1.643 -1.687,-0.138 -3.373,-0.184 -5.106,-0.184 -1.686,0 -3.282,0.046 -4.923,0.184 C 17.522,1.916 17.431,0.275 18.525,0.182 20.166,0.046 21.853,0 23.539,0 Z"
     id="path1" /><path
     fill="#221f1f"
     d="m 8.544,54.756 c -1.282,0 -2.311,0.881 -2.311,2.213 0,1.341 1.009,2.193 2.311,2.212 0.842,0.011 1.812,-0.342 2.34,-0.685 v 1.968 c -0.538,0.304 -1.635,0.598 -2.516,0.598 -2.986,0 -4.543,-1.802 -4.543,-4.054 0,-2.487 1.772,-4.132 4.484,-4.132 0.725,0 1.371,0.186 1.811,0.294 0.284,0.068 0.549,0.127 0.705,-0.088 h 0.069 v 2.32 C 10.346,55.079 9.642,54.756 8.544,54.756"
     id="path2" /><path
     fill="#221f1f"
     d="m 25.575,57.654 c -0.685,0 -1.214,0 -1.214,0 v 1.732 c 0,0 0.353,0 1.273,0 0.597,0 0.891,-0.431 0.891,-0.871 0,-0.577 -0.519,-0.861 -0.95,-0.861 m -0.294,-3.025 c -0.352,0 -0.92,0 -0.92,0 v 1.468 c 0,0 0.098,0 0.94,0 0.137,0 0.793,-0.067 0.793,-0.763 0,-0.363 -0.283,-0.705 -0.813,-0.705 z m 0.98,6.305 c -1.822,0 -4.495,0 -4.495,0 v -0.058 c 0.226,-0.118 0.353,-0.354 0.353,-0.715 v -6.286 c 0,-0.362 -0.127,-0.598 -0.353,-0.715 V 53.1 c 0,0 2.037,0 3.897,0 0.813,0 1.459,0.128 1.91,0.51 0.411,0.353 0.695,0.891 0.695,1.508 0,0.813 -0.402,1.479 -1.107,1.635 0.95,0.186 1.606,0.843 1.606,1.978 0.001,1.234 -0.803,2.203 -2.506,2.203 z"
     id="path3" /><path
     fill="#221f1f"
     d="m 30.282,60.934 v -0.058 c 0.225,-0.118 0.352,-0.354 0.352,-0.715 v -6.286 c 0,-0.362 -0.127,-0.598 -0.352,-0.715 V 53.1 h 2.947 v 0.06 c -0.225,0.117 -0.352,0.353 -0.352,0.715 v 5.395 h 2.467 c 0.264,0 0.529,-0.128 0.617,-0.313 h 0.058 v 1.978 h -5.737"
     id="path4" /><path
     fill="#221f1f"
     d="m 39.855,56.137 h 2.291 c 0.255,0 0.382,-0.118 0.461,-0.255 h 0.058 v 2.115 H 42.607 C 42.528,57.86 42.401,57.742 42.146,57.742 h -2.291 v 1.527 h 2.859 c 0.264,0 0.529,-0.128 0.617,-0.313 h 0.059 v 1.978 h -6.129 v -0.058 c 0.225,-0.118 0.352,-0.354 0.352,-0.715 v -6.286 c 0,-0.362 -0.127,-0.598 -0.352,-0.715 V 53.1 h 5.962 v 1.949 h -0.068 c -0.108,-0.225 -0.304,-0.313 -0.539,-0.313 h -2.761 v 1.401"
     id="path5" /><path
     fill="#221f1f"
     d="m 50.631,57.723 c -0.48,0.293 -0.862,0.832 -0.421,1.419 0.391,0.51 1.312,0.441 1.948,0.196 l -1.527,-1.615 m 0.186,-3.31 c -0.333,0.392 -0.069,0.852 0.528,1.283 1.028,-0.499 1.019,-0.881 0.803,-1.244 -0.166,-0.284 -1.008,-0.421 -1.331,-0.039 z m 2.85,6.521 -0.372,-0.372 c -0.637,0.333 -1.488,0.617 -2.37,0.617 -1.664,0 -3.025,-0.891 -3.025,-2.418 0,-1.272 1.214,-2.017 1.655,-2.213 -0.627,-0.49 -1.244,-1.978 -0.255,-2.897 1.234,-1.146 3.544,-0.784 4.249,0.019 0.735,0.842 0.725,2.164 -1.175,3.182 l 1.313,1.392 C 54,57.823 54.333,57.01 53.872,56.843 v -0.058 h 2.076 c -0.059,1.831 -1.126,2.652 -1.126,2.652 l 1.028,1.126 c 0.147,0.157 0.196,0.245 0.402,0.314 v 0.058 h -2.585 z"
     id="path6" /><path
     fill="#221f1f"
     d="m 70.884,53.581 -2.203,7.353 h -2.017 l -1.302,-4.571 -1.254,4.571 H 62.033 L 59.898,53.581 C 59.8,53.258 59.507,53.16 59.507,53.16 V 53.1 h 3.113 v 0.06 c -0.147,0.059 -0.284,0.195 -0.196,0.509 l 0.921,3.407 0.92,-3.407 c 0.088,-0.313 -0.049,-0.45 -0.196,-0.509 V 53.1 h 2.869 v 0.06 c -0.147,0.059 -0.284,0.195 -0.196,0.509 l 0.921,3.407 0.92,-3.407 c 0.088,-0.313 -0.049,-0.45 -0.196,-0.509 V 53.1 h 2.908 v 0.06 c 0,0 -0.313,0.098 -0.411,0.421"
     id="path7" /><path
     fill="#221f1f"
     d="m 72.281,60.934 v -0.058 c 0.225,-0.118 0.352,-0.354 0.352,-0.715 v -6.286 c 0,-0.362 -0.127,-0.598 -0.352,-0.715 V 53.1 h 2.947 v 0.06 c -0.225,0.117 -0.353,0.353 -0.353,0.715 v 6.286 c 0,0.361 0.128,0.597 0.353,0.715 v 0.058 h -2.947"
     id="path8" /><path
     fill="#221f1f"
     d="m 80.739,54.647 c -0.352,0 -0.969,0 -0.969,0 v 1.616 c 0,0 0.147,0 0.989,0 1.077,0.001 1.038,-1.616 -0.02,-1.616 m 1.263,6.287 -1.263,-2.663 c -0.215,-0.46 -0.528,-0.41 -0.646,-0.41 H 79.77 v 2.301 c 0,0.361 0.127,0.597 0.352,0.715 v 0.058 h -2.947 v -0.058 c 0.225,-0.118 0.353,-0.354 0.353,-0.715 v -6.286 c 0,-0.362 -0.128,-0.598 -0.353,-0.715 v -0.06 h 3.985 c 0.745,0 1.293,0.147 1.812,0.539 0.587,0.44 0.822,1.106 0.822,1.713 0,1.068 -0.587,1.764 -1.429,1.998 0.303,0.187 0.607,0.656 0.861,1.136 l 1.077,2.114 c 0.118,0.226 0.324,0.275 0.324,0.275 v 0.058 z"
     id="path9" /><path
     fill="#221f1f"
     d="m 88.276,56.137 h 2.291 c 0.255,0 0.382,-0.118 0.46,-0.255 h 0.059 v 2.115 h -0.059 c -0.078,-0.137 -0.205,-0.255 -0.46,-0.255 h -2.291 v 1.527 h 2.859 c 0.264,0 0.529,-0.128 0.617,-0.313 h 0.059 v 1.978 h -6.13 v -0.058 c 0.225,-0.118 0.353,-0.354 0.353,-0.715 v -6.286 c 0,-0.362 -0.128,-0.598 -0.353,-0.715 V 53.1 h 5.963 v 1.949 h -0.069 c -0.107,-0.225 -0.303,-0.313 -0.538,-0.313 h -2.761 v 1.401"
     id="path10" /><path
     fill="#221f1f"
     d="m 93.59,60.934 v -0.058 c 0.225,-0.118 0.352,-0.354 0.352,-0.715 v -6.286 c 0,-0.362 -0.127,-0.598 -0.352,-0.715 V 53.1 h 2.947 v 0.06 c -0.225,0.117 -0.353,0.353 -0.353,0.715 v 5.395 h 2.468 c 0.264,0 0.528,-0.128 0.616,-0.313 h 0.059 v 1.978 H 93.59"
     id="path11" /><path
     fill="#221f1f"
     d="m 103.164,56.137 h 2.291 c 0.255,0 0.382,-0.118 0.46,-0.255 h 0.059 v 2.115 h -0.059 c -0.078,-0.137 -0.205,-0.255 -0.46,-0.255 h -2.291 v 1.527 h 2.859 c 0.265,0 0.529,-0.128 0.617,-0.313 h 0.059 v 1.978 h -6.13 v -0.058 c 0.225,-0.118 0.353,-0.354 0.353,-0.715 v -6.286 c 0,-0.362 -0.128,-0.598 -0.353,-0.715 V 53.1 h 5.963 v 1.949 h -0.068 c -0.108,-0.225 -0.304,-0.313 -0.539,-0.313 h -2.761 v 1.401"
     id="path12" /><path
     fill="#221f1f"
     d="m 111.032,61.091 c -0.744,0 -1.576,-0.206 -1.899,-0.304 -0.255,-0.078 -0.509,-0.049 -0.617,0.146 h -0.059 v -2.447 c 0.47,0.313 1.528,0.91 2.507,0.91 0.558,0 1.057,-0.205 1.057,-0.676 0,-0.488 -0.862,-0.744 -1.42,-0.891 -0.46,-0.117 -2.252,-0.528 -2.252,-2.398 0,-1.635 1.479,-2.526 3.065,-2.526 0.499,0 1.136,0.137 1.528,0.265 0.411,0.137 0.714,0.215 0.842,-0.049 h 0.058 v 2.164 c -0.587,-0.382 -1.557,-0.735 -2.32,-0.735 -0.411,0 -0.852,0.108 -0.852,0.52 0,0.577 0.666,0.676 1.224,0.842 1.273,0.372 2.506,0.833 2.506,2.438 0,1.84 -1.34,2.741 -3.368,2.741"
     id="path13" /><path
     fill="#221f1f"
     d="m 118.491,61.091 c -0.744,0 -1.576,-0.206 -1.899,-0.304 -0.255,-0.078 -0.509,-0.049 -0.617,0.146 h -0.059 v -2.447 c 0.47,0.313 1.528,0.91 2.507,0.91 0.558,0 1.057,-0.205 1.057,-0.676 0,-0.488 -0.861,-0.744 -1.42,-0.891 -0.46,-0.117 -2.251,-0.528 -2.251,-2.398 0,-1.635 1.478,-2.526 3.064,-2.526 0.5,0 1.136,0.137 1.528,0.265 0.411,0.137 0.714,0.215 0.842,-0.049 h 0.059 v 2.164 c -0.588,-0.382 -1.557,-0.735 -2.321,-0.735 -0.411,0 -0.852,0.108 -0.852,0.52 0,0.577 0.666,0.676 1.224,0.842 1.273,0.372 2.506,0.833 2.506,2.438 0,1.84 -1.34,2.741 -3.368,2.741"
     id="path14" /><path
     fill="#221f1f"
     d="m 15.985,55.206 -0.879,2.552 h 1.779 l -0.9,-2.552 m 1.623,5.72 v -0.059 c 0.196,-0.069 0.333,-0.167 0.206,-0.528 l -0.362,-1.017 h -2.904 l -0.342,0.997 c -0.127,0.372 -0.029,0.499 0.206,0.548 v 0.059 h -2.806 v -0.059 c 0,0 0.303,-0.078 0.459,-0.499 l 2.483,-6.706 c 0.069,-0.187 0.069,-0.43 -0.137,-0.499 v -0.06 h 3.5 v 0.06 c -0.205,0.069 -0.205,0.313 -0.137,0.499 l 2.591,6.726 c 0.137,0.342 0.46,0.479 0.46,0.479 v 0.059 z"
     id="path15" /></g>
</svg>
