<?xml version="1.0" encoding="UTF-8" standalone="no"?>
<!-- Generator: Adobe Illustrator 24.1.0, SVG Export Plug-In . SVG Version: 6.00 Build 0)  -->

<svg
   version="1.1"
   id="Layer_1"
   x="0px"
   y="0px"
   viewBox="0 0 778.09998 282.39999"
   xml:space="preserve"
   sodipodi:docname="compasion-international-logo-square.svg"
   width="778.09998"
   height="282.39999"
   inkscape:version="1.4 (e7c3feb1, 2024-10-09)"
   xmlns:inkscape="http://www.inkscape.org/namespaces/inkscape"
   xmlns:sodipodi="http://sodipodi.sourceforge.net/DTD/sodipodi-0.dtd"
   xmlns:xlink="http://www.w3.org/1999/xlink"
   xmlns="http://www.w3.org/2000/svg"
   xmlns:svg="http://www.w3.org/2000/svg"><defs
   id="defs13" /><sodipodi:namedview
   id="namedview13"
   pagecolor="#ffffff"
   bordercolor="#000000"
   borderopacity="0.25"
   inkscape:showpageshadow="2"
   inkscape:pageopacity="0.0"
   inkscape:pagecheckerboard="0"
   inkscape:deskcolor="#d1d1d1"
   inkscape:clip-to-page="false"
   inkscape:zoom="0.79875132"
   inkscape:cx="373.7083"
   inkscape:cy="276.05588"
   inkscape:window-width="1800"
   inkscape:window-height="1098"
   inkscape:window-x="0"
   inkscape:window-y="71"
   inkscape:window-maximized="0"
   inkscape:current-layer="Layer_1" />
<style
   type="text/css"
   id="style1">
	.st0{fill:#231F20;}
	.st1{fill-rule:evenodd;clip-rule:evenodd;fill:#231F20;}
</style>
<g
   id="g13"
   transform="translate(-7.6,-260.8)">
	<g
   id="g2">
		<defs
   id="defs1"><path
     id="SVGID_3_"
     d="m 169.5,327.7 c -4.1,2.4 -7.8,4.9 -11.1,7.8 -6,5.2 -11.1,11.9 -15.1,19.9 -4,7.3 -7.1,16.4 -9.5,27.4 -1.1,5.2 -1.8,10.1 -2.1,14.9 l 2.7,-3.7 c -0.8,4.9 -1.3,10.4 -1.4,16.2 1.2,-2.2 2.1,-3.6 2.7,-4.4 l -0.3,14.1 5.8,-14.1 c 0.4,1.2 0.7,2.6 1.1,4.1 3.6,-8.3 6.7,-15.2 9.4,-20.6 2.8,-5.8 5.6,-11 8.4,-15.4 2.7,-4.4 5.7,-8.7 9,-12.8 3,-3.7 6.8,-8.1 11.4,-12.9 0.8,-1.1 5.6,-3.3 5.9,-3.4 2.1,-0.7 4.6,-1.5 7.9,-2.4 1.5,-0.4 5.2,-1.2 10.9,-2.7 4.9,-1.1 8.9,-2.3 12,-3 9.5,-2.7 16.8,-5.5 22,-8.6 6.7,-4.1 10.6,-8.8 11.5,-14.4 -6.5,1.4 -12.9,2.4 -19.6,2.8 -3.6,0.2 -8.9,0.3 -16.2,0.3 -6.4,0 -11.3,0.1 -14.8,0.5 -5.3,0.6 -10.6,1.6 -15.6,3.5 -5.5,2 -10.5,4.2 -15,6.9 z m -28.7,10 -3,4.4 c 2.3,-1.9 6.5,-4.5 12.4,-7.7 4,-2.2 13.7,-7.3 29.2,-15.2 11.7,-6 21.3,-15.1 28.8,-27.1 2.5,-3.9 4.6,-7.9 6.4,-12.1 1,-2.5 1.8,-4.6 2.4,-6.4 0.2,-0.7 0.3,-2.1 0.3,-3.7 0.1,-1.8 0,-3.7 -0.2,-5.1 -0.2,-1.8 -0.5,-3.1 -1,-3.7 -0.6,-0.6 -1.3,-0.3 -2.1,0.9 -5.4,7.5 -11.9,14.6 -19.5,21 -8.1,6.8 -17,12.6 -26.9,17.6 -12.3,6 -22.3,12.4 -30.2,19 -7.8,6.4 -15,14.2 -21.6,23.6 -0.8,1.2 -1.5,2.9 -2.2,5.1 1,-0.7 2.3,-0.9 3.8,-0.7 l -2.4,4.7 3.8,-3.1 c 1.2,-1 2.4,-1.7 3.5,-2.1 l -0.9,3.3 c 2.5,-2.5 5.7,-4.8 9.5,-7.3 l -1.3,3.3 c 1.7,-1.7 3.5,-3.3 5.2,-4.5 z m 1.1,-67.8 c -1.4,1.9 -2.5,4.1 -3,6.5 -0.7,2.4 -0.7,4.8 -0.1,7.4 0.5,2.5 1.6,4.7 3.1,6.8 1.5,2.1 3.4,3.6 5.7,5 2.3,1.3 4.6,2.2 7.3,2.8 2.8,0.5 5.4,0.5 8.3,0.1 2.7,-0.6 5.2,-1.4 7.6,-2.9 2.2,-1.3 4.1,-3 5.6,-5 1.5,-1.9 2.5,-4.2 3,-6.5 0.6,-2.4 0.7,-4.8 0.1,-7.3 -0.5,-2.6 -1.5,-4.8 -3.1,-6.9 -1.5,-1.9 -3.5,-3.6 -5.7,-5 -2.3,-1.3 -4.6,-2.3 -7.3,-2.9 -2.8,-0.5 -5.5,-0.5 -8.3,0 -2.8,0.4 -5.2,1.4 -7.6,2.8 -2.2,1.3 -4,3 -5.6,5.1 z" /></defs>
		<use
   xlink:href="#SVGID_3_"
   style="clip-rule:evenodd;overflow:visible;fill:#0033a1;fill-rule:evenodd"
   id="use1" />
		<clipPath
   id="SVGID_1_">
			<use
   xlink:href="#SVGID_3_"
   style="overflow:visible"
   id="use2" />
		</clipPath>
	</g>
	<path
   class="st0"
   d="m 37.3,403.8 c 8.7,-9.6 20.4,-14.5 35.1,-14.5 9.6,0 18,2.5 25.2,7.5 7.2,5.1 12.3,11.6 15.3,20 h 3.4 L 114.7,391 h -2.6 c -0.5,0.7 -1.6,1 -3.2,1.1 -0.5,-0.1 -4.6,-1.2 -12.4,-3.5 -7.8,-2.4 -16.1,-3.6 -25,-3.6 -18.6,0 -33.9,5.6 -45.8,16.8 -12,11 -18.1,25.2 -18.1,42.5 0,16.6 5.9,30.2 17.6,40.9 11.6,10.6 26.4,16 44.5,16 7,0 14.2,-0.9 21.7,-2.5 7.5,-1.7 12.3,-2.5 14.8,-2.4 1.2,0 2.5,0 3.7,0.1 2.1,-3.3 4,-6.9 5.8,-10.6 2.1,-4.8 4,-9.9 5.6,-15.3 H 118 c -0.7,1.3 -1.4,2.5 -2.2,3.8 -9.8,15 -23.5,22.5 -41.2,22.5 -13.7,0 -25.5,-5.3 -35.3,-16 -9.8,-10.6 -14.8,-24 -14.8,-39.9 -0.3,-15.3 4.1,-27.6 12.8,-37.1 z"
   id="path2" />
	<path
   class="st0"
   d="m 340.6,438.8 c 3.2,0.9 4.8,2.8 4.8,5.9 v 78.4 c 0,1.3 0,2.5 -0.1,3.5 h 0.1 v 3.5 h -0.1 c -0.4,3.2 -1.2,5.6 -2.5,6.9 -1.6,1.8 -4.7,2.6 -9.2,2.6 h -1.8 v 3.6 h 41.9 v -3.6 h -4.4 c -3.7,0 -6.6,-0.7 -8.6,-2.3 -1.9,-1.7 -2.9,-4.1 -3.2,-7.2 V 523 h -0.1 v -27.2 c 1.1,0.4 2.2,0.8 3.3,1.2 5,1.6 9.3,2.3 12.8,2.4 4.9,-0.1 9.3,-0.9 13.6,-2.6 4.7,-2 8.9,-5.1 12.9,-9.2 7.5,-8.1 11.2,-17.4 11.2,-28.1 0,-8.8 -2.6,-16.5 -7.9,-23.1 -5.4,-6.8 -11.5,-10 -18.4,-10 -7.1,0 -16.3,4.4 -27.5,13 v -16.7 h -4 L 334.8,434 v 3.3 z m 35.6,-3.7 c 5.6,0 10.6,2.4 15,7.3 5.4,6 8.1,14.4 8.1,25.1 0,7.3 -1.9,13.6 -6,18.6 -4,5.2 -9,7.7 -14.9,7.7 -6.9,0 -13.9,-3.1 -21,-9.4 v -40.7 c 6.7,-5.7 13,-8.6 18.8,-8.6 z"
   id="path3" />
	<path
   class="st0"
   d="m 326.1,452.7 c 0,-17.8 -5.9,-26.8 -17.8,-26.7 -5.8,0 -16.3,4.8 -31.4,14.3 C 275,430.8 269.3,426 260,426 c -2.1,-0.1 -4.5,0.2 -6.9,0.9 -6.8,1.8 -15.1,6.3 -24.8,13.4 V 426 h -2.6 l -21.5,7.4 v 3 l 7,0.8 c 2.3,0.4 3.9,1.4 4.7,3 0.4,1.1 0.6,3 0.6,6.2 v 34.8 c 0,4.8 -0.9,8.4 -2.6,10.5 -1.8,2.1 -5.3,3.1 -10.1,3.1 v 3.4 h 37 v -3.4 c -4.9,0 -8,-0.5 -9.5,-1.6 -2,-1.5 -2.9,-4.6 -2.9,-9.4 v -40.6 c 10.4,-6.9 18.3,-10.2 23.8,-10.2 0.3,0 0.7,0 1,0 3.1,0.2 5.9,1.3 8,3.3 2.8,2.8 4.3,6.8 4.3,11.8 v 33 c -0.1,5.1 -1.1,8.6 -3.1,10.6 -1.8,1.8 -4.9,2.8 -9.1,3 -0.4,0 -0.9,0 -1.4,0 v 3.4 h 36.6 v -3.4 c -4.4,0 -7.3,-0.7 -8.8,-2.2 -1.5,-1.4 -2.3,-4.5 -2.3,-8.8 v -40.9 c 10.1,-6.7 18,-9.9 23.7,-9.9 8.9,-0.1 13.3,6.7 13.3,20.2 V 467 c 0,15 -0.8,23.3 -2.5,25.1 -1.8,1.7 -5,2.6 -9.3,2.6 H 301 v 3.4 h 40 v -3.4 h -5.8 c -6.5,0 -9.5,-2.7 -9.3,-8 0.1,-9.6 0.2,-21 0.2,-34 z"
   id="path4" />
	<path
   class="st0"
   d="m 191.9,436.7 c -7.4,-7.3 -16.4,-10.8 -27.1,-10.7 -10.1,-0.1 -18.9,3.1 -26.3,9.6 -8.1,7.1 -12.1,16.4 -12.1,28 -0.1,10.4 3.6,19.1 11.1,26.3 7.4,7 16.7,10.5 27.8,10.5 10.5,0 19.3,-3.5 26.7,-10.7 7.3,-7.3 10.9,-16 11,-26.4 -0.1,-10.8 -3.7,-19.6 -11.1,-26.6 z m -10.4,4.5 c 5.4,7.4 8.1,16.2 8.2,26.5 0,8.4 -2.5,15.4 -7.3,20.9 -4.4,5 -9.4,7.5 -15.2,7.5 -7.7,0 -14.3,-3.6 -19.5,-11 -5.4,-7.6 -8.1,-16.8 -8,-27.6 -0.1,-7.5 2.1,-14 6.8,-19.3 4.5,-5.5 9.8,-8.1 15.8,-8.1 7.3,0 13.8,3.7 19.2,11.1 z"
   id="path5" />
	<path
   class="st0"
   d="m 785.7,498.3 v -3.4 h -3.8 c -6.8,0 -10.1,-2.3 -9.9,-7.1 0.2,-3.7 0.5,-7.6 0.7,-11.2 0.5,-6.5 0.7,-14.4 0.7,-23.9 0,-17.7 -6.3,-26.5 -19,-26.5 -3.9,0 -8.6,1.4 -14,4.1 -3.1,1.4 -8.7,4.6 -16.7,9.6 V 426.1 H 721 l -20.5,7.4 v 2.9 l 6.2,1.2 c 2.5,0.4 4,1.4 4.8,3 0.3,0.7 0.5,2.6 0.5,5.7 v 37.3 c 0,7.5 -3.9,11.1 -11.8,11.1 v 3.4 h 35.6 v -3.4 c -4.9,0 -8,-0.8 -9.5,-2.4 -1.6,-1.5 -2.4,-4.8 -2.4,-9.7 v -38.3 c 11,-7.6 18.9,-11.3 23.8,-11.3 9.3,0 14,6.2 14,18.6 0,24.1 -1.1,37.2 -3.4,39.7 -2.3,2.3 -5.8,3.4 -10.4,3.5 v 3.4 h 37.8 z"
   id="path6" />
	<path
   class="st0"
   d="m 689.3,437.6 c -0.3,-0.3 -0.6,-0.6 -0.9,-0.9 -7.4,-7.3 -16.5,-10.8 -27.2,-10.7 -10.2,-0.1 -18.9,3.1 -26.2,9.6 -8.2,7.1 -12.3,16.4 -12.3,28 0,10.4 3.7,19.1 11.3,26.3 3,2.9 6.5,5.2 10.2,7 5.3,2.3 11.1,3.5 17.5,3.5 2,0 3.8,-0.1 5.7,-0.3 8.1,-1.1 15.1,-4.7 21,-10.4 0.3,-0.4 0.6,-0.7 0.9,-1 6.7,-7.1 9.9,-15.5 9.9,-25.4 0.2,-10.2 -3.2,-18.7 -9.9,-25.7 z m -30.6,-7.5 c 7.4,0 13.8,3.7 19.2,11.1 5.4,7.4 8,16.2 8.1,26.5 -0.1,8.4 -2.4,15.4 -7.3,20.9 -4.5,5 -9.5,7.5 -15.1,7.5 -7.7,0 -14.3,-3.6 -19.5,-11 -5.4,-7.6 -8,-16.8 -8,-27.6 0,-7.5 2.2,-14 6.9,-19.3 4.4,-5.5 9.8,-8.1 15.7,-8.1 z"
   id="path7" />
	<path
   class="st0"
   d="m 610.3,425 h -2.7 l -23,8 v 2.7 l 8.3,1.6 c 2.6,0.5 4.4,1.4 5.1,2.8 0.3,0.9 0.4,2.9 0.4,6 v 35.7 c 0,4.8 -1.1,8.1 -3.2,10 -2.2,2 -6,2.9 -11.3,2.9 v 3.4 h 39.4 v -3.4 c -8.6,0 -12.8,-3.4 -12.8,-10.1 V 425 Z"
   id="path8" />
	<path
   class="st0"
   d="m 573.1,445 -0.4,-16.3 c -4.8,-1.8 -9.5,-2.8 -14.3,-2.7 -6.8,-0.1 -12.2,1.7 -16.3,5.5 -4.4,3.5 -6.5,8.4 -6.5,14.4 0.1,4.3 1.4,8.1 4.1,11.1 1.7,1.8 5.1,4.5 10.3,7.9 5.2,3.4 9.3,6.7 12.2,9.7 3.7,3.7 5.7,7.4 5.7,10.7 0,3.3 -1.2,6.1 -3.6,8.4 -1.8,1.7 -3.8,2.7 -6.1,3.2 -0.9,0.1 -1.8,0.2 -2.8,0.2 -1,0 -2,-0.1 -2.8,-0.2 -2.9,-0.6 -5.5,-2 -7.8,-4.3 -3.1,-2.9 -5.3,-7.1 -6.3,-12.3 h -2.9 l 2.1,20.1 h 2.5 c 1,-1.6 1.9,-2.4 2.9,-2.3 1.2,0 3.1,0.4 5.9,1.1 2.7,0.8 5,1.2 6.9,1.2 5,0 9.1,-1.2 13,-3.5 0.9,-0.7 1.8,-1.4 2.7,-2.2 4.3,-3.9 6.4,-8.8 6.4,-14.6 0,-6.1 -2.8,-11.6 -8.5,-16.5 -5.3,-3.7 -10.7,-7.4 -16.1,-11.1 -5.6,-3.8 -8.4,-8 -8.4,-12.2 0,-2.9 1,-5.4 3.2,-7.2 2.1,-2 4.7,-2.9 7.6,-2.9 3.5,0 6.6,1.3 9.2,3.9 2.5,2.7 4.3,6.4 5,10.9 z"
   id="path9" />
	<path
   class="st0"
   d="m 522.8,445 -0.5,-16.3 c -4.7,-1.8 -9.4,-2.8 -14.2,-2.7 -6.7,-0.1 -12.1,1.7 -16.4,5.5 -4.1,3.5 -6.3,8.4 -6.3,14.4 0,4.3 1.3,8.1 4,11.1 1.6,1.8 5.1,4.5 10.4,7.9 5.2,3.4 9.2,6.7 12.1,9.7 3.8,3.7 5.8,7.4 5.8,10.7 0,3.3 -1.2,6.1 -3.6,8.4 -1.8,1.7 -3.8,2.7 -6.2,3.2 -0.9,0.1 -1.8,0.2 -2.9,0.2 -0.9,0 -1.8,-0.1 -2.7,-0.2 -2.9,-0.6 -5.6,-2 -7.8,-4.3 -3.1,-2.9 -5.2,-7.1 -6.2,-12.3 h -2.9 l 1.9,20.1 h 2.5 c 1,-1.6 2.1,-2.4 3.1,-2.3 1.1,0 3,0.4 5.9,1.1 2.6,0.8 5,1.2 6.9,1.2 4.9,0 9.1,-1.2 12.9,-3.5 1,-0.7 2,-1.4 2.8,-2.2 4.1,-3.9 6.3,-8.8 6.3,-14.6 0,-6.1 -2.8,-11.6 -8.5,-16.5 -5.4,-3.7 -10.7,-7.4 -16.1,-11.1 -5.7,-3.8 -8.4,-8 -8.4,-12.2 0,-2.9 1,-5.4 3.1,-7.2 2.1,-2 4.7,-2.9 7.7,-2.9 3.5,0 6.6,1.3 9.2,3.9 2.6,2.7 4.3,6.4 4.9,10.9 z"
   id="path10" />
	<path
   class="st0"
   d="m 470.8,491.9 c -2.1,0 -3.4,-1.1 -3.9,-3.2 -0.4,-1.9 -0.6,-6.6 -0.6,-14.2 v -23.9 c 0,-7.7 -0.9,-12.9 -2.6,-15.4 -4.6,-6.3 -10.8,-9.4 -18.7,-9.3 -5.5,-0.1 -11.2,2.4 -17.3,7.6 -6,5.2 -8.9,9.5 -8.9,13.1 0,0.6 0.1,1.3 0.5,2.4 l 12.1,-5.9 c -0.7,-1.4 -1,-2.5 -1,-3.3 0,-2.1 1.1,-4 3.3,-6.1 2.2,-1.8 4.8,-2.8 7.7,-2.7 3.8,-0.1 7.1,1.6 9.9,5.1 1.9,2.4 3,6.3 3,11.4 v 14.2 c -5.3,3.1 -10.5,5.5 -15.7,6.8 -6.9,1.6 -11.7,3.5 -14.9,5.7 -4.1,2.8 -6.2,6.8 -6.2,11.6 0,4.5 1.5,8 4.4,10.7 0.2,0.1 0.4,0.2 0.5,0.4 2.9,2.3 6.8,3.5 11.5,3.5 2.8,0 5.4,-0.6 7.6,-1.6 1.1,-0.5 2.2,-1.2 3.5,-1.9 2.6,-1.8 5.8,-4.3 9.5,-7.3 0.3,3 0.8,5.5 1.8,7.3 1.4,2.3 3.5,3.5 6.4,3.5 2.3,0 5.5,-1.2 9.3,-3.5 2.5,-1.6 5.3,-3.6 8.4,-6.2 l -0.9,-2.7 c -3.1,2.6 -6,3.8 -8.7,3.9 z M 444,470.1 c 4.4,-1.7 7.8,-3.3 10.3,-4.9 v 21.1 c -7.5,5.3 -12.3,7.9 -14.9,7.9 -2.8,0 -5.3,-1 -7.3,-2.9 -2.2,-2 -3.2,-4.6 -3.2,-7.6 0,-3.4 1.1,-6.1 3.4,-7.9 1.6,-1.3 5.6,-3.2 11.7,-5.7 z"
   id="path11" />
	
	
</g>
</svg>
