<?xml version="1.0" encoding="utf-8"?>
<!-- Generator: Adobe Illustrator 19.0.0, SVG Export Plug-In . SVG Version: 6.00 Build 0)  -->
<svg version="1.1" id="layer" xmlns="http://www.w3.org/2000/svg" xmlns:xlink="http://www.w3.org/1999/xlink" x="0px" y="0px"
	 viewBox="-153 -46 652 652" style="enable-background:new -153 -46 652 652;" xml:space="preserve">
<style type="text/css">
	.st0{fill:#40003D;}
</style>
<path class="st0" d="M-19.3,279.6c-16.5,0-22.6,4-22.6,17.9v3.3c0,11.8,4.5,16.5,16.5,16.5h7.3c14.4,0,21.9-5.2,21.9-19.3v-17.7
	c-3.7-0.5-8.5-0.7-12.7-0.7H-19.3z M318,262.4v5.2c0,20.5,4.9,30.4,24.5,30.4c19.8,0,24.5-9.9,24.5-30.6v-5
	c0-20.9-5.9-29.9-24.5-29.9C323.2,232.5,318,241.5,318,262.4 M-64.9,422.6c4.3-7.8,12.7-14.8,27.3-14.8h6.1c2.4,0,3.1,0.7,3.1,2.8v8
	c0,1.9-0.9,2.6-3.1,2.6h-6.4c-12,0-17.6,3.6-21.4,9.7c-3.1,5-4.3,11.3-4.3,18.6V520c0,1.9-1.2,3.1-4,3.1H-75c-2.8,0-3.7-0.9-3.7-3.1
	V410.3c0-1.6,0.9-2.6,2.8-2.6h6.8c2.1,0,2.6,0.9,2.8,2.6l0.9,12.2H-64.9z M52.7,488.9v-78.2c0-1.9,1.2-3,2.8-3h9.9
	c1.9,0,2.6,1.2,2.6,3v109.7c0,1.7-0.7,2.6-2.3,2.6h-7.1c-1.9,0-2.6-0.7-2.8-2.6l-1.2-8.7h-0.5c-6.1,9.2-16.2,13.4-31.3,13.4
	c-12.7,0-22.4-2.8-29.2-8.4c-7.3-6.1-10.6-15.1-10.6-26.8v-78.4c0-2.1,1.4-3.7,3.3-3.7H-5c2.3,0,3.3,1.6,3.3,3.3v77
	c0,9.4,1.6,14.4,6.1,18.4c4.7,4.3,11.1,5.7,22.1,5.7C43.3,512,52.7,505.6,52.7,488.9 M133.4,507.3c3.8-3.1,5.9-8,5.9-15.1v-1.4
	c0-8.3-1.4-12.7-6.4-15.8c-3.5-2.1-8.7-3.3-16.4-5l-6.6-1.2c-7.8-1.4-13.9-3.3-18.4-5.9c-8.7-5-12-13.4-12-24.5v-2.4
	c0-21,13-30.6,37.7-30.6c10.1,0,18.8,1.2,26.3,3.3c2.8,0.7,4,2.1,3.5,4.3l-1.4,6.1c-0.6,2.2-1.5,3.4-3.4,3.4c-0.6,0-1.2-0.1-2-0.3
	c-6.8-1.9-15.8-3.5-23.3-3.5c-10.1,0-15.5,1.9-18.6,4.7c-2.6,2.4-4.7,6.8-4.7,12.3v1.6c0,4.9,0.9,8.7,3.8,11.5c3,3.1,7.3,5,18.3,7.1
	l6.1,1.1c11.5,2.4,21,5.4,25.7,11.3c3.5,4.7,5.9,11.5,5.9,20.8v2.4c0,8.2-2.4,16.7-6.6,21.9c-6.4,8-17.4,11.7-33.4,11.7
	c-12,0-24.7-2.6-32-5.6c-2.4-0.9-3.3-1.9-2.8-4l1.9-6.8c0.5-1.9,1.4-2.8,2.7-2.8c0.5,0,1.1,0.1,1.8,0.4c9.2,3.5,18.6,5.7,28.5,5.7
	C124.7,512,129.6,510.4,133.4,507.3 M-155,418.5v-4.7c0-2.2,0.7-2.9,2.4-3.1l14.4-3v-26.6c0-1.6,1.2-2.8,2.8-2.8h9.9
	c1.6,0,2.6,1.2,2.6,2.8v26.6h27.5c1.7,0,2.4,0.7,2.4,2.4v8.7c0,1.4-0.7,2.3-2.4,2.3H-123v63.6c0,8.5,0.7,15.1,4.3,19.3
	c3.1,4,8.4,5.9,17.2,5.9h8.5c1.4,0,2.8,0,2.8,2.6v8c0,1.7-0.7,2.6-2.8,2.6h-11.1c-12.2,0-21-3.1-26.4-9.4
	c-5.1-6.1-7.7-15.1-7.7-27.1v-65.5h-14.4C-154.3,421.1-155,420.7-155,418.5 M156.5,418.5v-4.7c0-2.2,0.7-2.9,2.4-3.1l14.3-3v-26.6
	c0-1.6,1.2-2.8,2.8-2.8h9.9c1.6,0,2.6,1.2,2.6,2.8v26.6H216c1.7,0,2.4,0.7,2.4,2.4v8.7c0,1.4-0.7,2.3-2.4,2.3h-27.5v63.6
	c0,8.5,0.7,15.1,4.3,19.3c3.1,4,8.4,5.9,17.2,5.9h8.5c1.4,0,2.8,0,2.8,2.6v8c0,1.7-0.7,2.6-2.8,2.6h-11.1c-12.2,0-20.9-3.1-26.3-9.4
	c-5.2-6.1-7.8-15.1-7.8-27.1v-65.5h-14.3C157.2,421.1,156.5,420.7,156.5,418.5 M83,312.1c10.6-30.8,19.3-61,26.6-90.6
	c0.7-3.1,2.1-4,5.1-4h13c2.6,0,3.5,0.7,3.5,2.6c0,1.9-0.9,5.2-1.4,7.1c-8.2,32-19.5,68.7-31.3,98.2c-2.4,5.9-4.7,7.5-10.1,7.5H75.6
	c-5.4,0-7.8-1.6-10.1-7.5c-11.7-29.4-23-66.1-31.3-98.2c-0.5-1.9-1.4-5.2-1.4-7.1c0-1.8,1-2.6,3.5-2.6h12.9c3.1,0,4.5,0.9,5.2,4
	c7.5,30.1,16.2,59.8,26.8,90.6H83z M142.7,305.8v-84c0-3.3,1.4-4.2,4.7-4.2h12.2c3.5,0,4.7,0.9,4.7,4.2v84c0,7.1,2.6,9.2,8.9,9.2
	h3.8c3.1,0,3.8,0.7,3.8,3.5v10.1c0,3.1-0.7,4.3-4.3,4.3h-6.8C151.1,332.8,142.7,326.2,142.7,305.8 M-95.5,300.8v-1.2
	c0-10.8-5.2-14.1-16.7-16.5l-11.1-2.4c-24-5.2-29.9-12.2-29.9-31.8v-1.7c0-21.9,12.7-32,39.5-32c11.8,0,22.1,1.6,29.9,4
	c2.4,0.7,2.9,1.7,2.9,3.1c0,1.2-0.7,3.5-1.4,6.8l-1.2,4.5c-0.7,2.6-1.2,3.3-2.8,3.3c-1.1,0-3-0.5-4.7-0.9
	c-5.2-1.4-14.1-2.6-21.2-2.6c-16,0-20.7,4-20.7,13.9v1.2c0,8.2,4,11.5,17.7,14.6l10.8,2.4c21,4.5,29.2,12.7,29.2,33.2v1.9
	c0,22.3-14.4,34.4-42.1,34.4c-11.1,0-24.7-2.4-34.4-5.9c-2.1-0.7-3.3-1.4-3.3-3.3c0-1.4,0.5-3.3,1.4-7.1l1.2-4.2
	c0.7-2.6,1.6-3.3,3-3.3c1.9,0,3.5,1.2,8.5,2.6c6.8,2.2,15.3,3.3,24,3.3C-101.8,317-95.5,311.9-95.5,300.8 M-53.2,234.7l-0.9-4.5
	c-0.7-3.5-0.9-5.2-0.9-6.1c0-1.6,0.9-2.8,3.3-3.5c8.7-2.8,22.1-5.2,34.1-5.2c29.9,0,43,10.1,43,40v74.1c0,2.4-0.9,3.3-3.7,3.3h-9.2
	c-2.8,0-4-0.9-4.5-3.3l-1-6.8H6.6c-4.5,8.3-13.7,12.2-28.2,12.2h-7.3c-24.3,0-34.8-12.7-34.8-33.9v-3.7c0-12.5,3.7-22.1,11.3-27.8
	c6.8-5.4,16.7-7.6,36.3-7.6h5.6c4.7,0,10.1,0.2,14.3,0.7v-9.9c0-15.3-7.3-19.3-23.3-19.3c-7.5,0-16.5,1.2-25.7,3.5
	c-2.8,0.7-4,0.9-5,0.9C-51.8,237.9-52.7,237-53.2,234.7 M210.3,228.6c6.6-8,17.4-13.2,33.4-13.2c26.9,0,40.7,12.5,40.7,46.4v66.8
	c0,3.3-1.2,4.3-4.7,4.3h-12.2c-3.3,0-4.7-0.9-4.7-4.3v-67.7c0-19.8-6.8-27.8-24.7-27.8c-15.5,0-24.2,5.9-24.2,24.5v71
	c0,3.3-1.2,4.3-4.7,4.3h-12.2c-3.3,0-4.7-0.9-4.7-4.3V221.1c0-2.8,1.2-3.5,3.7-3.5h8.3c2.8,0,4,0.7,4.5,3.5l1.2,7.5H210.3z
	 M295.9,267.6v-4.3c0-35.3,15.3-48,46.6-48c13.2,0,24.5,1.9,32.9,7.5c4-3.5,8.7-5.4,16-5.4h8.3c3,0,4,0.7,4,3.8v9.4
	c0,2.8-0.5,3.7-3.8,3.7h-6.6c-3.1,0-6.1,0.5-8.2,1.4c2.8,7.3,4,15.8,4,27.5v4.3c0,22.8-6.1,33.4-15,38.1
	c13.2,7.1,19.5,19.1,19.5,32.4v2.6c0,23.8-16,36-47.1,36c-16.4,0-34.3-3.5-46.3-8.5c-2.6-1.2-3.5-2.1-3.5-3.7c0-0.9,0.5-2.4,1.2-5
	l2.4-6.8c0.5-1.6,1.6-2.1,2.3-2.1c0.9,0,1.9,0.5,3.3,1c10.8,4.2,25.9,7.5,39,7.5c16.8,0,26.8-5.4,26.8-20.7v-1.8
	c0-10.4-4.7-18.6-14.6-22.9c-4,0.7-8.7,1.2-14.6,1.2C309.1,315,295.9,299.9,295.9,267.6 M139.4,188.8v-1.6c0-9.7,6.1-13.7,13.6-13.7
	h1.2c7.8,0,13.4,4,13.4,13.7v1.6c0,9.6-5.6,13.6-13.4,13.6H153C145.5,202.4,139.4,198.4,139.4,188.8"/>
<path class="st0" d="M-91.3,73.4c2.1,0,2.8-0.9,2.8-3.1v-3.7c0-4.7-0.7-8.3-2.4-10.8c-2.1-3-5.6-4.3-10.8-4.3h-2.1
	c-4.2,0-7.7,1-9.9,3.3c-2.4,2.6-3.5,6.6-3.5,12.7v5.9H-91.3z M-92.7,114.4c7.5,0,19.1-1.7,24.9-3.1c1.2-0.2,2.8-0.7,4.5-0.7
	c2.1,0,3.7,1.6,4.2,4l1.9,11.8c0.5,2.4,0.9,4.7,0.9,6.3c0,3.1-1.2,4.7-6.1,6.4c-9.4,3.3-24,5.6-35.6,5.6h-4.5c-18.6,0-32.9-4-41-12
	c-9.4-9.4-11.8-21.4-11.8-40.5V79.1c0-23.5,6.2-36.2,14.1-43.3c7.8-6.8,20-10.6,36.9-10.6h3.3c17,0,29.2,4.7,35.6,11.8
	c8.3,9.2,11.3,21.9,11.3,42.1v12.2c0,5-2.1,6.6-6.8,6.6h-56.5v1.9c0,11.1,5.4,14.6,21.9,14.6H-92.7z"/>
<path class="st0" d="M21.6,25.2c13.9,0,23.8,3.3,29.9,9.6c6.4,6.6,8.7,15.3,8.7,31.1v69.9c0,4.5-1.7,6.9-8,6.9H30.5
	c-6.4,0-8-2.4-8-6.9V69.2c0-5.4-0.7-8.7-2.6-10.9c-1.8-2.1-5.6-3-10.3-3H8.2c-4.7,0-8.5,0.9-10.4,3c-1.8,2.2-2.6,5.2-2.6,10.9v66.6
	c0,4.5-1.6,6.9-8,6.9h-21.6c-6.4,0-8-2.4-8-6.9V33.9c0-4.7,1.9-6.6,8-6.6h11c5.4,0,7.3,0.9,8.7,5.4l1.4,4.5h0.7
	c7.5-8,18.4-12,32.2-12H21.6z"/>
<path class="st0" d="M135.4,73.4c2.1,0,2.8-0.9,2.8-3.1v-3.7c0-4.7-0.7-8.3-2.4-10.8c-2.1-3-5.6-4.3-10.8-4.3h-2.1
	c-4.2,0-7.7,1-9.9,3.3c-2.4,2.6-3.5,6.6-3.5,12.7v5.9H135.4z M134,114.4c7.5,0,19.1-1.7,24.9-3.1c1.2-0.2,2.8-0.7,4.5-0.7
	c2.1,0,3.7,1.6,4.2,4l1.9,11.8c0.5,2.4,0.9,4.7,0.9,6.3c0,3.1-1.2,4.7-6.1,6.4c-9.4,3.3-24,5.6-35.6,5.6h-4.5c-18.6,0-32.9-4-41-12
	c-9.4-9.4-11.8-21.4-11.8-40.5V79.1c0-23.5,6.2-36.2,14.1-43.3c7.8-6.8,20-10.6,36.9-10.6h3.3c17,0,29.2,4.7,35.6,11.8
	c8.3,9.2,11.3,21.9,11.3,42.1v12.2c0,5-2.1,6.6-6.8,6.6h-56.5v1.9c0,11.1,5.4,14.6,21.9,14.6H134z"/>
<path class="st0" d="M214.6,40c5.6-9.2,13.4-12.7,26.4-12.7h9.4c4.9,0,6.8,1.2,6.8,6.6v17.2c0,5.2-1.7,6.6-6.4,6.6h-7.1
	c-9,0-14.6,1.6-17.9,4.9c-3.1,3-4,8.4-4,16.2v57c0,4.5-1.6,6.8-8,6.8h-21.6c-6.4,0-8-2.4-8-6.8V33.9c0-4.7,1.9-6.6,8-6.6h11.3
	c5.4,0,7.3,1.2,8.5,5.4l1.9,7.3H214.6z"/>
<path class="st0" d="M318.5,102.4c5.4,0,9.2-1.4,11.1-3.3c2.8-2.8,4-6.6,4-16v-9.2c0-9.4-1.2-13.2-4-16c-1.9-1.9-5.7-3.3-11.1-3.3
	h-1.6c-5.4,0-9.2,1.4-11.1,3.3c-2.8,2.8-4,6.6-4,16v9.2c0,9.4,1.2,13.2,4,16c1.9,1.9,5.6,3.3,11.1,3.3H318.5z M439.9,184.7
	c-1.9,3.8-3.7,5-6.6,5c-1.9,0-4.3-0.7-6.8-1.9l-12-5.2c-4.3-1.8-6.1-3.5-6.1-5.9c0-0.9,0.2-2.1,1.2-4c4.9-9.9,11.5-22.6,13.6-28.2
	c-6.4-2.4-10.8-6.1-15.3-16c-7.3-15.8-16.7-49.6-22.8-76h-7.5c-3.3,0-6.1,0.5-8.7,1.4c1.2,4.9,1.9,9.9,1.9,16.7v15.8
	c0,17.2-4,27.8-13.9,34.4c12,6.4,19.8,17.2,19.8,29.4v1.6c0,21.7-15.8,34.8-55.3,34.8h-4.5c-15.1,0-33.9-3.8-46.1-8.5
	c-4.5-1.6-5.9-4.5-4.7-8.9l4.2-15.1c1.2-4.5,3.3-6.4,8.5-4.7c12.2,4,27.8,6.8,36.9,6.8h3.3c14.6,0,20.5-4.5,20.5-12v-0.7
	c0-4.7-2.1-8.4-7.1-12.2c-2.8,0.2-7.3,0.5-11.5,0.5h-6.4c-32.7,0-49.9-13.9-49.9-45.4V70.6c0-31.5,14.8-45.4,51.5-45.4h3.3
	c15.1,0,26.4,1.9,34.6,6.6c5.9-2.8,13.2-4.5,21.9-4.5h33.9c5.2,0,7.3,0.9,8.2,5.6c4.7,25.4,11.8,56.5,18.4,78.8h1.2
	c7.8-21.4,15.1-57.9,18.4-78.1c0.7-4.9,2.8-6.4,7.5-6.4h21.6c5.4,0,7.1,1.9,6.4,7.1C485.4,76.5,466.8,134.9,439.9,184.7"/>
</svg>
