<svg xmlns="http://www.w3.org/2000/svg" width="1600" height="400" style="width:100%;height:100%;transform:translate3d(0,0,0)"><defs><clipPath id="a"><path d="M0 0h1600v400H0z"/></clipPath></defs><g clip-path="url(#a)"><path fill="#0D0D0D" d="M-.116 9.187c-6.389 0-9.837-1.939-10.344-5.816l6.907-.166c.154.705.507 1.234 1.057 1.587.573.33 1.477.495 2.71.495 1.19 0 2.071-.132 2.644-.396.573-.287.859-.694.859-1.223 0-.441-.198-.771-.595-.991-.374-.243-.947-.397-1.718-.463l-3.9-.363c-2.555-.243-4.439-.794-5.651-1.653-1.19-.881-1.784-2.082-1.784-3.602 0-1.807.805-3.217 2.413-4.23C-5.887-8.67-3.443-9.187-.182-9.187c3.018 0 5.353.451 7.006 1.355C8.498-6.951 9.49-5.64 9.798-3.9l-6.742.166c-.132-.617-.462-1.058-.991-1.322-.507-.265-1.344-.397-2.512-.397-.947 0-1.696.121-2.247.364-.529.22-.793.55-.793.991 0 .419.198.738.595.958.396.199 1.024.342 1.884.43l3.8.33c5.111.441 7.668 2.226 7.668 5.354 0 2.137-.904 3.712-2.711 4.726-1.807.991-4.428 1.487-7.865 1.487z" style="display:block" transform="matrix(5.2 0 0 5.2 1477.179 198.828)"/><path fill="#0D0D0D" d="M10.773-5.288 2.445 1.586 11.5 11.764H2.644L-.925 7.172l-1.554-2.05-1.751 1.322v5.32h-7.27v-23.528h7.27v8.625L-4.296.462l3.007-2.842 3.305-2.908h8.757z" style="display:block" transform="matrix(5.2 0 0 5.2 1368.03 181.813)"/><path fill="#0D0D0D" d="M-10.658 8.757V-8.295h6.809l.263 2.346C-2.088-7.822.093-8.757 2.957-8.757c1.477 0 2.788.241 3.934.726 1.168.463 2.082 1.168 2.743 2.115.683.925 1.024 2.049 1.024 3.371V8.757h-7.27v-9.946c0-.837-.264-1.499-.793-1.984C2.066-3.658 1.339-3.9.414-3.9c-.727 0-1.377.144-1.95.431a3.311 3.311 0 0 0-1.356 1.221c-.33.529-.496 1.168-.496 1.917v9.088h-7.27z" style="display:block" transform="matrix(5.2 0 0 5.2 1238.665 197.455)"/><path fill="#0D0D0D" d="M0 9.121c-2.137 0-4.098-.353-5.882-1.058-1.785-.727-3.206-1.773-4.263-3.139-1.058-1.366-1.587-2.985-1.587-4.858 0-1.917.529-3.569 1.587-4.957 1.057-1.388 2.478-2.435 4.263-3.14 1.784-.727 3.745-1.09 5.882-1.09 2.159 0 4.131.363 5.916 1.09 1.784.727 3.194 1.785 4.23 3.173 1.057 1.388 1.586 3.029 1.586 4.924 0 1.851-.54 3.47-1.619 4.858C9.055 6.29 7.634 7.336 5.849 8.063 4.065 8.768 2.115 9.121 0 9.121zm-.033-4.726A4.33 4.33 0 0 0 2.181 3.8a4.472 4.472 0 0 0 1.62-1.586A4.339 4.339 0 0 0 4.395 0a4.28 4.28 0 0 0-.594-2.181 4.402 4.402 0 0 0-1.62-1.62 4.339 4.339 0 0 0-2.214-.594c-.793 0-1.531.198-2.214.594a4.472 4.472 0 0 0-1.586 1.62A4.343 4.343 0 0 0-4.395 0c0 .793.187 1.531.562 2.214.396.661.925 1.19 1.586 1.586a4.33 4.33 0 0 0 2.214.595z" style="display:block" transform="matrix(5.2 0 0 5.2 1110.896 198.828)"/><path fill="#0D0D0D" d="M-17.036 8.774V-8.278h6.841l.165 2.181c1.498-1.785 3.591-2.677 6.279-2.677 1.498 0 2.765.242 3.8.727a5.97 5.97 0 0 1 2.545 2.181 7.603 7.603 0 0 1 2.908-2.148c1.168-.507 2.49-.76 3.966-.76 1.454 0 2.754.242 3.899.727 1.146.485 2.038 1.212 2.677 2.181.661.947.992 2.093.992 3.437V8.774H9.765V-1.405c0-.837-.264-1.487-.793-1.949-.507-.463-1.157-.694-1.95-.694-.617 0-1.189.143-1.718.429a3.189 3.189 0 0 0-1.256 1.223c-.286.507-.43 1.091-.43 1.752v9.418h-7.27V-1.405c0-.484-.121-.925-.363-1.321a2.292 2.292 0 0 0-.926-.959 2.547 2.547 0 0 0-1.355-.363c-.661 0-1.256.143-1.784.429a3.26 3.26 0 0 0-1.256 1.19c-.286.507-.43 1.102-.43 1.785v9.418h-7.27z" style="display:block" transform="matrix(5.2 0 0 5.2 949.956 197.366)"/><path fill="#0D0D0D" d="M-.017 3.85a3.937 3.937 0 0 1-1.949-.496 4.073 4.073 0 0 1-1.421-1.388 3.944 3.944 0 0 1-.496-1.95c0-.683.165-1.322.496-1.916a3.982 3.982 0 0 1 1.421-1.421A3.746 3.746 0 0 1-.017-3.85c.705 0 1.355.176 1.95.529A3.982 3.982 0 0 1 3.354-1.9c.353.594.529 1.233.529 1.916 0 .683-.176 1.322-.529 1.917a3.982 3.982 0 0 1-1.421 1.421 3.944 3.944 0 0 1-1.95.496z" style="display:block" transform="matrix(5.2 0 0 5.2 828.13 225.379)"/><path fill="#0D0D0D" d="M9.468 5.203v3.422l-2.733-.01-.675-2.44c-1.081.74-4.51 2.881-8.008 2.881-4.961 0-7.525-1.598-7.525-5.061 0-3.163 1.931-4.728 7.392-5.26l5.727-.566c1.798-.167 2.264-.533 2.264-1.332v-.233c0-1.698-.932-2.897-5.394-2.897-3.796 0-5.194.733-5.56 2.93l-3.497-.033c.4-3.796 3.164-5.66 9.223-5.66 6.06 0 8.791 1.897 8.791 5.893v7.758c0 .232-.002.434-.005.608zM-5.977 3.829c0 1.931 1.565 2.63 4.795 2.63 4.129 0 6.892-1.798 7.092-3.962V.1c-.333.1-.666.2-1.066.233l-6.159.666c-3.463.366-4.662 1.065-4.662 2.83z" style="display:block" transform="matrix(5.2 0 0 5.2 746.184 197.554)"/><path fill="#0D0D0D" d="M1.781-11.854h-3.562v23.708h3.562v-23.708z" style="display:block" transform="matrix(5.2 0 0 5.2 668.36 180.737)"/><path fill="#0D0D0D" d="M5.81.616c0 3.862-3.196 5.194-6.426 5.194-3.496 0-5.194-1.565-5.194-4.495V-8.807h-3.563V2.048c0 4.328 2.93 6.759 7.925 6.759 3.329 0 5.993-.999 7.458-2.897l.679 2.464h2.684V-8.807H5.81V.616z" style="display:block" transform="matrix(5.2 0 0 5.2 589.378 198.874)"/><path fill="#0D0D0D" d="M8.357-8.824c-3.529 0-5.96 1.133-7.392 3.364C-.2-7.691-2.531-8.824-5.694-8.824c-3.329 0-5.593 1.066-7.025 2.964l-.679-2.497h-2.651V8.824h3.563V-.632c0-3.863 3.063-5.194 5.927-5.194 3.163 0 4.794 1.497 4.794 4.127V8.824h3.564V-.765c0-3.896 3.062-5.061 5.926-5.061 3.163 0 4.795 1.497 4.795 4.127V8.824h3.528V-1.898c0-4.728-2.83-6.926-7.691-6.926z" style="display:block" transform="matrix(5.2 0 0 5.2 438.718 196.514)"/><path fill="#0D0D0D" d="M3.812-8.84c-3.163 0-5.294 1.209-6.459 3.439l-.679-2.939H-6.01V8.84h3.562V-.283c.134-3.43 3.064-5.591 6.26-5.591.699 0 1.332.033 2.198.067v-2.9c-.6-.066-1.299-.133-2.198-.133z" style="display:block" transform="matrix(5.2 0 0 5.2 306.394 196.425)"/><path fill="#0D0D0D" d="M-4.936-.068c0-5.174 4.046-8.451 9.872-8.998l-.345 1.251C1.362-7.432-.524-5.81-.524-.068c0 5.451 1.869 7.263 5.072 7.724l.388 1.41C-.89 8.519-4.936 5.229-4.936-.068z" style="display:block" transform="matrix(5.2 0 0 5.2 161.09 197.6)"/><path fill="#0D0D0D" d="M-4.936 9.064C.901 8.509 4.936 5.221 4.936-.068c0-5.166-4.035-8.443-9.872-8.996l.344 1.246C-1.355-7.445.523-5.855.523-.068c0 5.651-1.863 7.329-5.076 7.741l-.383 1.391z" style="display:block" transform="matrix(5.2 0 0 5.2 231.014 197.6)"/><path fill="#0D0D0D" d="M3.215-9.299h2.93v-2.797h-3.13c-4.561 0-5.926 2.131-5.926 5.228l-.01 1.636-3.224.746v1.866l3.234.001v14.715H.684V-2.622l5.461.011-.013-2.474H.683l.001-2.15c0-1.331.533-2.064 2.531-2.064z" style="display:block" transform="matrix(5.2 0 0 5.2 92.554 179.494)"/></g></svg>