<?xml version="1.0" encoding="UTF-8" standalone="no"?>
<!-- Generator: Adobe Illustrator 14.0.0, SVG Export Plug-In . SVG Version: 6.00 Build 43363)  -->

<svg
   version="1.1"
   id="Layer_1"
   x="0px"
   y="0px"
   width="222.618"
   height="235.005"
   viewBox="0 0 222.618 235.005"
   enable-background="new 0 0 250 250"
   xml:space="preserve"
   sodipodi:docname="kmart.svg"
   inkscape:version="1.4 (e7c3feb1, 2024-10-09)"
   xmlns:inkscape="http://www.inkscape.org/namespaces/inkscape"
   xmlns:sodipodi="http://sodipodi.sourceforge.net/DTD/sodipodi-0.dtd"
   xmlns="http://www.w3.org/2000/svg"
   xmlns:svg="http://www.w3.org/2000/svg"><defs
   id="defs6" /><sodipodi:namedview
   id="namedview6"
   pagecolor="#ffffff"
   bordercolor="#000000"
   borderopacity="0.25"
   inkscape:showpageshadow="2"
   inkscape:pageopacity="0.0"
   inkscape:pagecheckerboard="0"
   inkscape:deskcolor="#d1d1d1"
   inkscape:zoom="6.969142"
   inkscape:cx="202.3922"
   inkscape:cy="219.03701"
   inkscape:window-width="1800"
   inkscape:window-height="1098"
   inkscape:window-x="0"
   inkscape:window-y="-116"
   inkscape:window-maximized="0"
   inkscape:current-layer="Layer_1" />
<g
   id="g6"
   transform="translate(-5,-7.498)">
	<polygon
   fill-rule="evenodd"
   clip-rule="evenodd"
   fill="#e82e2c"
   points="82.365,182.898 5,182.898 5,7.498 82.365,7.498 82.365,42.64 117.519,7.498 227.618,7.498 139.795,95.242 227.618,182.898 117.519,182.898 82.365,147.845 "
   id="polygon1"
   transform="matrix(1,0,0,-1,0,190.396)" />
	<polygon
   fill-rule="evenodd"
   clip-rule="evenodd"
   fill="#e82e2c"
   points="49.542,205.933 33.23,221.386 33.409,221.386 51.548,241.544 33.888,241.544 17.956,222.835 17.956,241.544 5,241.544 5,193.937 17.956,193.937 17.956,221.196 33.888,205.933 "
   id="polygon2" />
	<path
   fill-rule="evenodd"
   clip-rule="evenodd"
   fill="#e82e2c"
   d="m 53.199,205.933 h 12.465 v 6.434 c 3.936,-6.522 9.22,-7.671 13.925,-7.671 5.363,0 9.209,3.445 11.239,7.972 3.255,-5.485 9.209,-7.972 14.204,-7.972 7.96,-0.101 14.795,4.693 14.795,15.252 v 21.597 h -12.398 v -20.158 c 0,-5.084 -3.746,-7.492 -6.913,-7.582 -3.657,0 -7.782,3.646 -7.782,8.162 v 19.578 H 80.258 v -20.158 c 0,-3.835 -1.929,-7.582 -6.433,-7.582 -3.167,0 -7.771,2.966 -7.771,10.079 v 17.661 H 53.199 Z"
   id="path2" />
	<path
   fill-rule="evenodd"
   clip-rule="evenodd"
   fill="#e82e2c"
   d="m 170.601,205.933 h 12.376 v 7.492 c 2.408,-7.392 9.221,-8.729 17.571,-8.072 v 11.139 c -4.604,-0.379 -8.44,-0.189 -11.417,1.06 -3.077,1.338 -5.664,4.504 -5.664,7.972 v 16.021 h -12.866 z"
   id="path3" />
	<path
   fill-rule="evenodd"
   clip-rule="evenodd"
   fill="#e82e2c"
   d="m 203.335,193.937 h 12.777 v 11.327 h 10.547 v 11.228 h -10.547 v 12.298 c 0,4.683 3.434,5.173 10.547,3.824 v 8.462 c -13.145,2.688 -23.324,1.048 -23.324,-12.677 z"
   id="path4" />
	
	
	<path
   fill-rule="evenodd"
   clip-rule="evenodd"
   fill="#e82e2c"
   d="m 165.126,241.544 h -12.275 v -5.464 c -2.787,3.546 -7.213,6.423 -13.735,6.423 -7.393,0 -15.364,-2.297 -15.174,-11.618 0,-13.535 19.5,-11.707 28.598,-11.896 0,-4.426 -2.286,-7.013 -6.901,-7.013 -3.735,0 -6.522,1.828 -6.522,3.925 h -12.878 c 0,-7.27 9.232,-11.205 19.59,-11.205 12.866,0 19.299,4.604 19.299,13.624 v 23.224 z M 152.539,225.89 c -3.925,0.201 -17.069,-1.427 -17.069,4.917 0,2.576 2.218,4.025 5.853,4.025 5.083,-0.09 11.037,-3.345 11.216,-8.942"
   id="path6" />
</g>
</svg>
