<?xml version="1.0" encoding="UTF-8" standalone="no"?>
<!-- Created with Inkscape (http://www.inkscape.org/) -->

<svg
   version="1.0"
   width="566.92932"
   height="126.36876"
   id="svg1962"
   sodipodi:docname="Men's_Health.svg"
   inkscape:version="1.4 (e7c3feb1, 2024-10-09)"
   xmlns:inkscape="http://www.inkscape.org/namespaces/inkscape"
   xmlns:sodipodi="http://sodipodi.sourceforge.net/DTD/sodipodi-0.dtd"
   xmlns="http://www.w3.org/2000/svg"
   xmlns:svg="http://www.w3.org/2000/svg">
  <sodipodi:namedview
     id="namedview1"
     pagecolor="#ffffff"
     bordercolor="#000000"
     borderopacity="0.25"
     inkscape:showpageshadow="2"
     inkscape:pageopacity="0.0"
     inkscape:pagecheckerboard="0"
     inkscape:deskcolor="#d1d1d1"
     inkscape:zoom="1.2348882"
     inkscape:cx="220.26285"
     inkscape:cy="-55.470607"
     inkscape:window-width="1800"
     inkscape:window-height="1126"
     inkscape:window-x="0"
     inkscape:window-y="43"
     inkscape:window-maximized="0"
     inkscape:current-layer="svg1962" />
  <defs
     id="defs1964" />
  <g
     id="layer1"
     transform="translate(-17.716428,-17.709342)">
    <g
       transform="matrix(1.248829,0,0,1.248829,-441.0331,-252.1548)"
       id="g2427">
      <path
         d="m 718.1875,218.6875 c -0.21838,0.41079 -0.0316,1.22677 -0.0937,1.79375 0,1.12083 0,2.24167 0,3.3625 1.30674,0.0575 2.65252,-0.13321 3.93319,0.13847 1.10878,0.3979 1.01913,1.76779 1.03556,2.73653 -0.007,27.3165 0.0133,54.63367 -0.01,81.94975 8.4e-4,0.79882 -0.0883,1.90697 -1.08376,2.019 -0.70398,0.0717 -1.41733,0.0115 -2.125,0.0312 0,1.71875 0,3.4375 0,5.15625 7.69792,0 15.39583,0 23.09375,0 0,-1.71875 0,-3.4375 0,-5.15625 -1.34988,-0.0692 -2.7363,0.14713 -4.0625,-0.125 -1.08533,-0.28397 -1.19055,-1.63142 -1.15625,-2.575 0,-30.26667 0,-60.53333 0,-90.8 -6.51093,0.47546 -13.02078,0.98152 -19.53125,1.46875 z m 55.0625,0 c -0.21838,0.41079 -0.0316,1.22677 -0.0937,1.79375 0,1.12083 0,2.24167 0,3.3625 1.22185,0.0891 2.508,-0.20357 3.68319,0.20097 1.11539,0.42616 1.2568,2.01536 1.25431,3.17403 -0.007,27.21001 0.0147,54.42165 -0.011,81.63064 -0.0443,0.89165 -0.49994,1.726 -1.42646,1.80686 -0.58936,0.0965 -1.18708,0.0533 -1.78125,0.0625 0,1.71875 0,3.4375 0,5.15625 7.04167,0 14.08333,0 21.125,0 0,-1.71875 0,-3.4375 0,-5.15625 -0.94318,-0.0754 -1.9717,0.1965 -2.84375,-0.25 -0.60294,-0.77218 -0.28829,-1.87913 -0.375,-2.8 0.0111,-15.57901 -0.0222,-31.15864 0.0167,-46.73727 0.0671,-2.5592 0.15272,-5.28907 1.43803,-7.56664 0.35793,-0.58811 0.76604,-1.15248 1.29531,-1.48984 1.63014,-1.15028 3.88675,-1.34428 5.71875,-0.59375 0.81198,0.38877 1.22434,1.19875 1.49573,2.09884 0.61381,2.95633 0.29868,6.00782 0.37927,9.00741 -0.008,15.54948 0.0166,31.10103 -0.0124,46.64923 -0.0239,0.84975 -0.61386,1.67251 -1.52409,1.66491 -0.68328,0.0405 -1.37194,0.005 -2.05726,0.0171 0,1.71875 0,3.4375 0,5.15625 7.20833,0 14.41667,0 21.625,0 0,-1.71875 0,-3.4375 0,-5.15625 -1.00888,-0.0844 -2.29788,0.30062 -3.03125,-0.59375 -0.54391,-1.24247 -0.22208,-2.66283 -0.3125,-3.98125 -0.0107,-17.30604 0.0213,-34.61293 -0.016,-51.91843 -0.14366,-3.15536 -0.67249,-6.50903 -2.70276,-9.03782 -1.31769,-1.65222 -3.3149,-2.70766 -5.38912,-3.15515 -3.22541,-0.6742 -6.73373,-0.63181 -9.72854,0.87522 -2.52381,1.17801 -4.48768,3.27331 -6.19046,5.4238 -0.32801,0.38047 -0.79425,1.25536 -1.00438,1.34988 0,-10.82083 0,-21.64167 0,-32.4625 -6.51093,0.47546 -13.02078,0.98152 -19.53125,1.46875 z m -404.8125,0.0937 c 0,1.6875 0,3.375 0,5.0625 1.22864,0.0899 2.64643,-0.30417 3.6875,0.53125 0.41936,0.2367 0.76358,0.72933 1.04565,1.19949 1.19265,2.0077 1.24,4.45901 1.2356,6.73801 -0.008,23.71444 0.0154,47.42946 -0.0115,71.14353 -0.0254,2.08174 -0.40514,4.37947 -1.58222,6.04397 -0.60195,0.79141 -1.52519,1.31954 -2.58125,1.21875 -0.56698,0.0622 -1.38296,-0.12463 -1.79375,0.0937 0,1.6875 0,3.375 0,5.0625 6.51042,0 13.02083,0 19.53125,0 0,-1.71875 0,-3.4375 0,-5.15625 -1.32918,-0.0677 -2.69444,0.1448 -4,-0.125 -1.04545,-0.39618 -1.66087,-1.21223 -2.09649,-2.2402 -1.20082,-3.01691 -0.75216,-6.32914 -0.84101,-9.4973 0,-18.94167 0,-37.88333 0,-56.825 5.13115,24.57336 10.29643,49.14319 15.40625,73.71875 2.54167,0 5.08333,0 7.625,0 5.10991,-24.65888 10.27508,-49.31206 15.40625,-73.96875 -0.008,21.23524 0.0167,42.47118 -0.0125,63.70599 -0.0642,1.66077 -0.13136,3.60627 -1.45626,4.79401 -0.55248,0.36374 -1.39528,0.50902 -2.125,0.4375 -1.03125,0 -2.0625,0 -3.09375,0 0,1.71875 0,3.4375 0,5.15625 9.35417,0 18.70833,0 28.0625,0 0,-1.71875 0,-3.4375 0,-5.15625 -1.24918,-0.11243 -2.66559,0.31383 -3.7675,-0.435 -0.88778,-0.53303 -1.1921,-1.83489 -1.36451,-2.86516 -0.34377,-2.8997 -0.11337,-5.83016 -0.18049,-8.74359 0.008,-23.19983 -0.0167,-46.40035 0.0125,-69.59974 0.12491,-1.65571 0.13626,-3.62051 1.48751,-4.79401 0.6157,-0.4233 1.61494,-0.47624 2.425,-0.4375 0.50229,-0.12479 1.61259,0.35842 1.3875,-0.49375 0,-1.55417 0,-3.10833 0,-4.6625 -7.82292,0 -15.64583,0 -23.46875,0 -3.98612,20.2628 -8.02488,40.52044 -12.03125,60.78125 -4.25612,-20.26086 -8.54658,-40.51815 -12.78125,-60.78125 -8.04167,0 -16.08333,0 -24.125,0 z m 199.65625,0 c 0,1.6875 0,3.375 0,5.0625 1.45226,0.0906 2.96534,-0.21456 4.37263,0.22811 1.3131,0.46304 1.41692,2.0388 1.52865,3.2712 0.084,5.82987 0.0124,11.66322 0.0362,17.49444 -0.006,21.24348 0.0121,42.48805 -0.009,63.73084 -0.006,1.00497 -0.61442,1.94099 -1.6472,2.02541 -1.41155,0.23951 -2.85578,0.0772 -4.28125,0.125 0,1.71875 0,3.4375 0,5.15625 9.4375,0 18.875,0 28.3125,0 0,-1.71875 0,-3.4375 0,-5.15625 -1.50655,-0.0814 -3.05588,0.18683 -4.53125,-0.1875 -1.24834,-0.39567 -1.51159,-1.9454 -1.60952,-3.14334 -0.10672,-4.75212 -0.0173,-9.50894 -0.0467,-14.26291 0,-7.78125 0,-15.5625 0,-23.34375 6.20833,0 12.41667,0 18.625,0 -0.0121,12.34139 0.0243,24.68388 -0.0182,37.02459 -0.0877,1.27774 -0.1884,2.9021 -1.41934,3.60041 -1.35868,0.57069 -2.88146,0.21011 -4.3125,0.3125 -0.79608,-0.18566 -0.30085,0.91998 -0.4375,1.39375 0,1.25417 0,2.50833 0,3.7625 9.39583,0 18.79167,0 28.1875,0 0,-1.71875 0,-3.4375 0,-5.15625 -1.44021,-0.0981 -2.95718,0.23912 -4.33901,-0.26873 -1.33939,-0.6335 -1.41042,-2.35152 -1.45586,-3.65596 -0.11071,-4.92104 -0.0187,-9.84633 -0.0489,-14.76906 0.008,-21.12901 -0.016,-42.25865 0.012,-63.38726 0.0852,-1.45352 -0.0707,-3.36146 1.11301,-4.32524 1.29466,-0.78078 2.89117,-0.35944 4.325,-0.46875 0.75687,0.12771 0.24443,-1.01391 0.39375,-1.49375 0,-1.22083 0,-2.44167 0,-3.6625 -9.39583,0 -18.79167,0 -28.1875,0 0,1.71875 0,3.4375 0,5.15625 1.48605,0.0798 3.01388,-0.18461 4.46875,0.1875 1.27221,0.37415 1.58282,1.96217 1.6648,3.17926 0.12352,3.63875 0.0197,7.28524 0.0539,10.92699 0,8.54792 0,17.09583 0,25.64375 -6.20833,0 -12.41667,0 -18.625,0 0.0116,-12.00808 -0.0232,-24.01717 0.0174,-36.02462 0.0487,-1.10859 0.14311,-2.45351 0.85763,-3.25663 1.17708,-1.01362 2.85681,-0.5463 4.275,-0.65625 0.69484,0.0844 1.28752,0.0667 1.0375,-0.79375 0,-1.45417 0,-2.90833 0,-4.3625 -9.4375,0 -18.875,0 -28.3125,0 z m -37.8125,-0.0312 c -1.82478,0.15657 -3.45729,1.19378 -4.5625,2.59375 -0.69099,0.79896 -1.28133,2.00297 -1.41947,3.16162 -0.39584,2.50332 0.87477,4.98032 2.68008,6.62536 1.34894,1.32278 2.99287,2.32507 4.73939,3.05677 -2.46193,2.76183 -5.1371,5.32161 -7.78125,7.90625 1.07871,1.15068 2.14004,2.31808 3.21875,3.46875 3.13735,-2.39426 6.20814,-4.94737 8.74555,-8.00831 1.96586,-2.25424 3.56877,-5.03222 3.89841,-8.06579 0.30989,-3.41524 -1.288,-6.9102 -3.95646,-8.9884 -0.77677,-0.61524 -1.86953,-1.23723 -2.94076,-1.493 -0.84709,-0.23567 -1.74399,-0.34249 -2.62174,-0.257 z m 226.09375,4.96875 c -1.61495,4.74356 -3.18262,9.55755 -5.57346,13.9723 -0.83393,1.47963 -1.7615,2.95725 -3.08279,3.93395 -1.42333,1.13372 -3.29493,1.30383 -5.05,1.21875 -0.89358,-0.26441 -0.85797,0.40036 -0.79375,1.09375 0,1.47917 0,2.95833 0,4.4375 1.65625,0 3.3125,0 4.96875,0 0.0104,18.34359 -0.0209,36.68783 0.0156,55.03101 0.11685,3.04386 0.27257,6.22111 1.65617,8.99487 0.87579,1.7232 2.43827,3.08993 4.29887,3.69823 3.10821,1.10113 6.48127,1.11095 9.7341,0.90229 2.71093,-0.28867 5.52651,-1.2306 7.30079,-3.38718 1.38113,-1.44027 2.13255,-3.42552 2.54531,-5.36853 0.80268,-3.54782 0.4215,-7.2101 0.51164,-10.81444 0,-1.675 0,-3.35 0,-5.025 -1.83333,0 -3.66667,0 -5.5,0 -0.032,4.51571 0.0687,9.03618 -0.0597,13.54865 -0.13068,1.34978 -0.2073,3.06356 -1.50281,3.82635 -1.23694,0.65128 -3.16248,0.42759 -3.78125,-0.96875 -0.83056,-2.1175 -0.48007,-4.46225 -0.5625,-6.6875 0,-17.875 0,-35.75 0,-53.625 3.71875,0 7.4375,0 11.15625,0 0,-1.88542 0,-3.77083 0,-5.65625 -3.67708,0 -7.35417,0 -11.03125,0 0,-6.39583 0,-12.79167 0,-19.1875 -1.73958,0 -3.47917,0 -5.21875,0 z m -296.40625,17.9375 c -4.04114,0.23875 -7.92082,2.1412 -10.67267,5.07892 -2.07029,2.07468 -3.70106,4.55462 -4.91332,7.22665 -2.85163,6.12892 -4.01439,12.89788 -4.47378,19.59987 -0.47253,7.76247 -0.20758,15.6023 1.1811,23.26373 0.90932,4.50883 2.33443,9.00525 4.93617,12.83458 1.55676,2.1305 3.45769,4.05343 5.8175,5.30875 3.38758,1.86774 7.35886,2.32817 11.17467,2.10215 3.3253,-0.212 6.81357,-0.82116 9.54408,-2.85215 1.57561,-1.25014 2.92378,-2.8351 3.72791,-4.70583 1.71452,-3.87247 2.00406,-8.1916 1.94359,-12.37526 -0.0155,-1.4127 -0.10202,-2.82307 -0.20275,-4.23141 -1.79167,0 -3.58333,0 -5.375,0 0.01,3.95216 0.11781,7.95353 -0.6875,11.84375 -0.42123,1.66228 -1.03482,3.40841 -2.46875,4.46875 -1.00043,0.62096 -2.38672,0.99227 -3.64922,0.9937 -2.1537,0.0983 -4.62196,0.0175 -6.38203,-1.21245 -1.01653,-0.80587 -1.61576,-1.79029 -2.07807,-2.99812 -1.35957,-3.97534 -1.44941,-8.23602 -1.62033,-12.39543 -0.17897,-5.37706 -0.13932,-10.7584 -0.14535,-16.1377 7.88542,0 15.77083,0 23.65625,0 -0.0529,-6.467 -0.23284,-12.977 -1.43814,-19.34696 -0.80341,-4.02187 -1.99225,-8.15548 -4.56186,-11.40304 -1.46275,-1.77111 -3.29401,-3.22695 -5.46604,-4.01767 -2.49779,-0.93176 -5.19983,-1.16068 -7.84646,-1.04483 z m 50.40625,0 c -3.2542,0.21658 -6.38911,1.7052 -8.67226,4.00426 -1.32939,1.22437 -2.45902,2.61047 -3.45274,4.12074 0,-2.59375 0,-5.1875 0,-7.78125 -6.45887,0.43263 -12.91613,0.91112 -19.375,1.34375 0,1.71875 0,3.4375 0,5.15625 1.1606,0.0584 2.35917,-0.12463 3.49569,0.10722 1.12183,0.31531 1.43041,1.68049 1.44181,2.76778 0.0729,6.26472 0.0104,12.53366 0.0312,18.8 -0.0133,12.76432 0.0266,25.5297 -0.02,38.29335 0.003,0.91777 -0.30153,2.01381 -1.29492,2.15287 -1.1606,0.20087 -2.35457,0.0514 -3.52885,0.0975 0,1.71875 0,3.4375 0,5.15625 7.57292,0 15.14583,0 22.71875,0 0,-1.71875 0,-3.4375 0,-5.15625 -0.94318,-0.0754 -1.9717,0.1965 -2.84375,-0.25 -0.628,-0.87514 -0.2779,-2.08139 -0.375,-3.1 0.0111,-15.47901 -0.0222,-30.95864 0.0167,-46.43727 0.062,-2.55903 0.15615,-5.2896 1.44988,-7.5581 0.30373,-0.58252 0.74495,-1.06985 1.28346,-1.52963 0.72171,-0.44202 1.68728,-0.88974 2.63037,-0.95072 1.35738,-0.16244 3.17636,0.0246 3.93213,1.10697 1.14791,1.66873 0.93639,3.82009 1.03125,5.75 -0.008,17.09532 0.0165,34.1927 -0.0124,51.28673 -0.0532,0.84052 -0.55518,1.62855 -1.4251,1.65077 -0.7144,0.0716 -1.43817,0.0114 -2.15625,0.0312 0,1.71875 0,3.4375 0,5.15625 7.20833,0 14.41667,0 21.625,0 0,-1.71875 0,-3.4375 0,-5.15625 -1.00888,-0.0844 -2.29788,0.30062 -3.03125,-0.59375 -0.54391,-1.24247 -0.22208,-2.66283 -0.3125,-3.98125 -0.0107,-17.30604 0.0213,-34.61293 -0.016,-51.91843 -0.14366,-3.15536 -0.67249,-6.50903 -2.70276,-9.03782 -1.18192,-1.47764 -2.9112,-2.50405 -4.75643,-2.99545 -1.83369,-0.51298 -3.78567,-0.6305 -5.68107,-0.5358 z m 34.6875,0.0312 c -4.09865,0.28438 -8.19021,2.05728 -10.81051,5.27167 -1.47774,1.63067 -2.42942,3.6995 -3.07307,5.80524 -1.10249,3.66597 -0.97171,7.56882 -0.57103,11.33458 0.54145,4.39598 2.34411,8.57766 5.03218,12.08478 2.80208,3.79586 6.09895,7.22374 9.15656,10.83235 1.42767,1.6386 2.91381,3.24456 4.15774,4.94754 1.84187,2.3763 3.5362,4.98633 4.03082,8.00998 0.40775,2.42381 0.37548,4.98274 -0.36896,7.33955 -0.38466,1.0622 -0.92531,1.93019 -1.90123,2.55681 -1.80674,1.23076 -4.15441,1.20092 -6.24898,0.97869 -1.2195,-0.21265 -2.44435,-0.70143 -3.30239,-1.49389 -1.08662,-0.84259 -1.6885,-2.05695 -2.30629,-3.28803 -1.74256,-4.07808 -1.9937,-8.56582 -2.73681,-12.8897 -0.10191,-0.57651 -1.12369,-0.13012 -1.62053,-0.27082 -1.35417,0 -2.70833,0 -4.0625,0 0,7.65625 0,15.3125 0,22.96875 1.59375,0 3.1875,0 4.78125,0 0.29672,-1.36906 0.72386,-2.8727 1.83321,-3.80547 0.6612,-0.56015 1.1943,0.34779 1.64375,0.75118 2.69052,2.76736 6.5632,4.25776 10.41633,4.28968 3.84407,0.0576 7.84531,-0.89489 10.88796,-3.32914 1.88007,-1.58203 3.46054,-3.56293 4.38271,-5.87335 1.87354,-4.35057 1.9161,-9.23098 1.36932,-13.86196 -0.44604,-4.33378 -2.18921,-8.45101 -4.68995,-11.9903 -3.81304,-5.27439 -8.53394,-9.83277 -12.72474,-14.81552 -1.34246,-1.74385 -2.87542,-3.59277 -3.81095,-5.68733 -1.29726,-2.80499 -1.63934,-6.01402 -1.19428,-9.0571 0.19106,-1.3143 0.83589,-2.66323 1.85539,-3.33944 1.89154,-1.30718 4.37432,-1.13724 6.54103,-0.77962 1.22612,0.27098 2.37125,0.9357 3.17772,1.81087 0.22235,0.33461 0.56164,0.67194 0.75202,1.11308 1.44715,2.44836 1.58155,5.38486 1.95455,8.14306 0.18764,1.55028 0.40659,3.0986 0.57468,4.65011 1.875,0 3.75,0 5.625,0 0,-7.08333 0,-14.16667 0,-21.25 -1.54167,0 -3.08333,0 -4.625,0 -0.17697,1.24157 -0.0172,2.61725 -0.59375,3.75 -0.4671,0.0928 -0.73473,-0.58852 -1.12955,-0.77513 -0.8148,-0.7011 -1.88231,-1.449 -2.90589,-2.02633 -2.8834,-1.60606 -6.18293,-2.46105 -9.49581,-2.10479 z m 104.90625,-0.0312 c -3.89686,0.23727 -7.65888,2.00861 -10.37659,4.78284 -3.63716,3.52 -5.83638,8.24425 -7.29986,13.04063 -2.07525,6.97849 -2.63633,14.31278 -2.59017,21.56394 0.0817,5.69891 0.4389,11.42942 1.66214,17.00718 0.89144,4.00595 2.24065,7.98855 4.54424,11.40809 2.08409,3.04728 5.08083,5.55741 8.65376,6.67379 3.60484,1.20326 7.51111,1.16668 11.23888,0.64734 2.87456,-0.4339 5.82356,-1.41838 7.87876,-3.53885 2.02336,-1.8854 3.14073,-4.50967 3.76298,-7.17535 1.02749,-4.30185 0.89411,-8.77778 0.58836,-13.15961 -1.79167,0 -3.58333,0 -5.375,0 0.06,3.83161 0.10461,7.70659 -0.61283,11.48534 -0.32872,1.67007 -0.95889,3.43079 -2.19967,4.54591 -1.88492,1.51658 -4.47756,1.34399 -6.75533,1.23649 -1.73208,-0.14921 -3.50177,-0.72865 -4.56387,-2.10576 -0.99235,-1.31994 -1.56739,-3.12656 -1.87632,-4.81798 -0.72607,-3.63082 -0.76096,-7.35532 -0.92876,-11.04288 -0.10598,-4.91216 -0.0978,-9.8256 -0.0945,-14.73862 7.88542,0 15.77083,0 23.65625,0 -0.0529,-6.467 -0.23284,-12.977 -1.43814,-19.34696 -0.80629,-4.01997 -1.98833,-8.16058 -4.56186,-11.40304 -1.46275,-1.77111 -3.29401,-3.22695 -5.46604,-4.01767 -2.49517,-0.93931 -5.20159,-1.15719 -7.84646,-1.04483 z m 41.1875,0 c -4.10753,0.15449 -8.28573,1.33249 -11.5625,3.875 -1.40571,1.27416 -2.76605,2.68729 -3.52694,4.46014 -1.5442,3.26703 -1.03205,7.20904 0.71646,10.27794 0.64534,1.12475 1.587,2.11633 2.68548,2.82442 1.75126,0.99529 3.97662,1.07805 5.77694,0.14278 1.3356,-0.6115 2.42046,-1.69374 3.16056,-2.95528 1.13678,-2.24977 0.46291,-5.11126 -1.2629,-6.84838 -1.48,-1.75639 -3.41564,-3.03863 -5.45585,-4.05787 1.79754,-1.28192 4.06621,-1.71314 6.22481,-1.94374 1.9434,-0.11138 4.03284,-0.0926 5.79269,0.81624 0.7796,0.46001 1.36572,1.08637 1.65053,2.0007 0.80037,2.62292 0.43079,5.41236 0.51947,8.1143 0,3.59792 0,7.19583 0,10.79375 -4.31461,1.45039 -8.63952,2.94924 -12.69727,5.03091 -3.30082,1.67899 -6.32343,4.08709 -8.22479,7.30733 -2.2385,4.01357 -2.83402,8.6834 -3.02675,13.21155 -0.19954,4.79192 -0.058,9.70878 1.48595,14.29306 0.72893,2.07508 1.81956,4.02789 3.48087,5.48766 2.17199,2.07253 5.35422,2.80154 8.30676,2.59748 2.9315,-0.1565 5.83357,-1.31317 7.95127,-3.34031 1.64342,-1.54667 3.00063,-3.35687 4.03646,-5.36893 0.45877,2.01276 0.98522,4.11181 2.25,5.78125 1.13814,1.40757 2.79419,2.33678 4.59848,2.64238 2.99816,0.49816 6.21725,0.51934 9.05118,-0.69141 2.19642,-1.01516 3.62962,-3.10786 4.28443,-5.39329 0.8889,-2.95817 0.95478,-6.08471 1.00341,-9.15143 -1.55208,0 -3.10417,0 -4.65625,0 -0.0419,2.35261 0.11885,4.75455 -0.38085,7.06296 -0.19109,0.99666 -1.42056,1.20883 -2.2129,0.84329 -0.69113,-0.69793 -0.46508,-1.80221 -0.55124,-2.69971 -0.0373,-15.85381 0.0184,-31.70885 -0.0279,-47.56259 -0.058,-4.24068 -0.83173,-8.7142 -3.48334,-12.14395 -1.31825,-1.57289 -2.94857,-2.90524 -4.85732,-3.71573 -3.44687,-1.51744 -7.32455,-1.82506 -11.04893,-1.69052 z m -230.0625,6.21875 c 1.29564,-0.0394 2.72754,0.26384 3.27935,1.5385 0.83083,1.6583 0.83652,3.59126 0.96438,5.41105 0.23235,5.75353 0.0941,11.51275 0.13127,17.2692 -3.28125,0 -6.5625,0 -9.84375,0 0.12075,-5.55945 0.135,-11.13312 0.66465,-16.67237 0.27985,-2.07752 0.42372,-4.30895 1.54895,-6.1283 0.65455,-1.15649 1.96843,-1.47389 3.25515,-1.41808 z m 190,0 c 1.29564,-0.0394 2.72754,0.26384 3.27935,1.5385 1.04649,2.18807 0.87356,4.7155 1.042,7.0848 0.1131,5.19708 0.0264,10.39716 0.0536,15.59545 -3.28125,0 -6.5625,0 -9.84375,0 0.12896,-6.2319 0.14491,-12.48833 0.92275,-18.68122 0.32912,-1.81714 0.65425,-3.92338 2.171,-5.06878 0.7354,-0.39031 1.55394,-0.48455 2.375,-0.46875 z m 44.78125,51.5625 c -0.0112,2.22686 -0.0541,4.60038 -1.106,6.6071 -0.59109,1.18147 -1.63765,1.92382 -2.93452,2.20993 -1.17479,0.23081 -2.5987,0.18527 -3.58448,-0.37953 -0.78796,-0.5748 -1.19183,-1.44198 -1.43913,-2.44728 -0.58179,-2.71196 -0.47585,-5.51731 -0.52962,-8.27772 0.0922,-4.75573 -0.14583,-9.58574 0.91347,-14.2558 0.36788,-1.59749 0.99813,-3.12674 1.96153,-4.4567 0.46063,-0.67329 1.26085,-1.48518 1.92581,-1.96349 0.93049,-0.82296 2.02373,-1.4708 3.13447,-2.15754 0.55839,-0.31462 1.10512,-0.64939 1.65847,-0.97272 0,8.69792 0,17.39583 0,26.09375 z m -45.5625,-51.875 c -1.65255,-0.0247 -2.92155,1.23449 -3.375,2.71875 -1.09091,3.28673 -1.08332,6.77996 -1.34375,10.15625 -0.20068,3.94044 -0.25206,7.90244 -0.3125,11.84375 v 0.15625 h 0.15625 c 3.40625,0 6.8125,0 10.21875,0 h 0.15625 v -0.15625 c -0.0371,-5.40045 0.0929,-10.81187 -0.0625,-16.21875 -0.15799,-2.34693 -0.0342,-4.90463 -1.21875,-7.09375 v -0.0312 c -0.44837,-0.73265 -1.14492,-1.1063 -1.90625,-1.28125 -0.76133,-0.17495 -1.57152,-0.14706 -2.3125,-0.0937 z m 0,0.3125 c 0.72916,-0.0525 1.54334,-0.0686 2.25,0.0937 0.70666,0.16238 1.3217,0.50746 1.71875,1.15625 1.11362,2.08136 0.99707,4.60414 1.15625,6.96875 0.15361,5.34403 0.0286,10.67701 0.0625,16.03125 -3.30208,0 -6.60417,0 -9.90625,0 0.0598,-3.88902 0.11484,-7.77516 0.3125,-11.65625 0.26183,-3.39433 0.2434,-6.84147 1.3125,-10.0625 l 0.0312,-0.0312 c 0.41953,-1.37324 1.57769,-2.52222 3.0625,-2.5 z M 530.28125,218.59375 c -1.87649,0.16101 -3.5587,1.2264 -4.6875,2.65625 -0.71953,0.83258 -1.33598,2.0692 -1.46875,3.28125 -0.41826,2.70776 1.04962,5.30875 3.03125,7 1.22644,1.1761 2.73693,2.03421 4.28125,2.71875 -2.41565,2.69287 -5.03283,5.18492 -7.625,7.71875 l -0.0937,0.125 0.0937,0.0937 c 1.0776,1.14949 2.13893,2.31689 3.21875,3.46875 l 0.0937,0.125 0.125,-0.0937 c 3.14092,-2.39698 6.2313,-4.95518 8.78125,-8.03125 1.9803,-2.27079 3.60299,-5.07787 3.9375,-8.15625 0.31521,-3.47414 -1.31875,-7.0125 -4.03125,-9.125 -0.79283,-0.62796 -1.89579,-1.26761 -3,-1.53125 -0.86313,-0.24013 -1.75531,-0.33775 -2.65625,-0.25 z m 0,0.3125 c 0.85456,-0.0832 1.76265,0.0188 2.59375,0.25 1.03825,0.2479 2.11429,0.86623 2.875,1.46875 2.62442,2.0439 4.21077,5.4874 3.90625,8.84375 -0.32477,2.98876 -1.92357,5.73107 -3.875,7.96875 -2.49679,3.01194 -5.52773,5.53787 -8.625,7.90625 -1.0009,-1.07002 -1.99704,-2.1468 -3,-3.21875 2.61259,-2.55255 5.24939,-5.10864 7.6875,-7.84375 L 532,234.125 l -0.21875,-0.0937 c -1.59911,-0.69092 -3.16277,-1.55757 -4.40625,-2.75 -1.91705,-1.63613 -3.30253,-4.1533 -2.90625,-6.71875 0.12375,-1.12963 0.70039,-2.3444 1.375,-3.125 1.08162,-1.37009 2.66443,-2.37912 4.4375,-2.53125 z m 262.5,-1.84375 c -6.51146,0.48561 -13.02109,1.00243 -19.53125,1.5 h -0.0937 l -0.0625,0.0937 c -0.13859,0.26069 -0.1056,0.57391 -0.0937,0.90625 0.0118,0.33234 0.0283,0.67946 0,0.9375 0,1.11042 0,2.23333 0,3.34375 V 224 h 0.15625 c 1.25596,0.0947 2.50776,-0.20215 3.625,0.1875 0.45229,0.16891 0.72961,0.58448 0.90625,1.09375 0.17664,0.50927 0.24795,1.09458 0.25,1.625 -0.007,27.31013 0.0258,54.6287 0,81.9375 -0.0209,0.42122 -0.16236,0.8266 -0.375,1.125 -0.21264,0.2984 -0.48807,0.49475 -0.90625,0.53125 h -0.0312 c -0.5634,0.0952 -1.14538,0.0517 -1.75,0.0625 h -0.15625 v 0.15625 c 0,1.71875 0,3.4375 0,5.15625 v 0.15625 h 0.15625 c 7.04167,0 14.08333,0 21.125,0 h 0.15625 V 315.875 c 0,-1.71875 0,-3.4375 0,-5.15625 V 310.5625 H 796 c -0.96064,-0.0768 -1.92499,0.12322 -2.71875,-0.25 -0.24034,-0.3374 -0.33676,-0.73528 -0.34375,-1.1875 -0.007,-0.47426 0.0456,-0.98445 0,-1.46875 0.0111,-15.57933 -0.008,-31.14061 0.0312,-46.71875 0.0671,-2.55862 0.14626,-5.2673 1.40625,-7.5 0.38933,-0.59685 0.68565,-1.04317 1.25,-1.46875 0.61968,-0.35345 1.39848,-0.76316 2.15625,-0.84375 1.2083,-0.19436 2.65862,-0.14896 3.625,0.4375 0.6793,0.51743 1.05058,1.26368 1.25,2.09375 0.19942,0.83007 0.24359,1.72783 0.28125,2.5625 0.0889,5.94997 0.006,11.91911 0.0312,17.875 -0.008,11.64979 -0.002,23.28979 -0.0312,34.9375 -0.011,0.38945 -0.1367,0.78208 -0.375,1.0625 -0.2383,0.28042 -0.56198,0.4409 -0.96875,0.4375 -0.67149,0.0398 -1.36987,0.0193 -2.0625,0.0312 h -0.1562 v 0.15625 c 0,1.71875 0,3.4375 0,5.15625 v 0.15625 h 0.15625 c 7.20833,0 14.41667,0 21.625,0 h 0.15625 v -0.1562 c 0,-1.71875 0,-3.4375 0,-5.15625 v -0.15625 h -0.15625 c -0.53014,-0.0443 -1.10516,0.0251 -1.625,0 -0.50453,-0.0244 -0.92263,-0.12513 -1.25,-0.5 -0.004,-0.009 0.004,-0.0218 0,-0.0312 -0.49572,-1.16526 -0.22726,-2.54355 -0.3125,-3.875 -10e-6,-0.0104 10e-6,-0.0208 0,-0.0312 -0.0106,-17.29535 0.0373,-34.61074 0,-51.90625 -0.14555,-3.16759 -0.68648,-6.55278 -2.75,-9.125 -1.32458,-1.66172 -3.30832,-2.71907 -5.375,-3.1875 -3.24351,-0.69031 -6.79703,-0.69748 -9.84375,0.8125 -2.60378,1.18837 -4.61705,3.31419 -6.34375,5.5 -0.17909,0.20772 -0.37998,0.53638 -0.5625,0.8125 -0.0577,0.0873 -0.10432,0.14537 -0.15625,0.21875 0,-10.67502 0,-21.35623 0,-32.03125 v -0.15625 z m -0.15625,0.3125 c 0,10.76876 0,21.54375 0,32.3125 v 0.25 l 0.21875,-0.125 c 0.11636,-0.0523 0.1666,-0.11101 0.25,-0.21875 0.0834,-0.10774 0.18868,-0.26621 0.28125,-0.40625 0.18513,-0.28007 0.38232,-0.57726 0.53125,-0.75 1.71456,-2.17045 3.69003,-4.28339 6.21875,-5.4375 2.95872,-1.46636 6.45974,-1.46155 9.65625,-0.78125 2.00828,0.45519 3.91886,1.47096 5.1875,3.0625 1.99432,2.48596 2.51186,5.79509 2.65625,8.9375 0.0373,17.30507 0.0206,34.63121 0.0312,51.9375 0.0881,1.28484 -0.25859,2.7267 0.3125,4.03125 l 0.0312,0.0312 c 0.40285,0.49129 0.97103,0.62918 1.53125,0.65625 0.50636,0.0245 1.02034,-0.0181 1.46875,0 0,1.61458 0,3.22917 0,4.84375 -7.10416,0 -14.20834,0 -21.3125,0 0,-1.61458 0,-3.22917 0,-4.84375 0.62841,-0.005 1.26386,0.0381 1.90625,0 0.50346,0.004 0.92854,-0.25225 1.21875,-0.59375 0.29021,-0.3415 0.45579,-0.78971 0.46875,-1.25 0.029,-11.64869 -0.008,-23.28832 0,-34.9375 -0.025,-5.95231 0.0578,-11.91916 -0.0312,-17.875 -0.0376,-0.83296 -0.0715,-1.75201 -0.28125,-2.625 -0.20973,-0.87299 -0.59055,-1.70753 -1.34375,-2.28125 h -0.0312 c -1.06992,-0.66452 -2.5834,-0.72959 -3.84375,-0.53125 -0.01,0.002 -0.0215,-0.002 -0.0312,0 -0.84195,0.0982 -1.66775,0.58758 -2.28125,0.9375 -0.60879,0.45908 -0.95373,0.96459 -1.34375,1.5625 -1.31063,2.32244 -1.40164,5.09646 -1.46875,7.65625 -0.0389,15.57912 0.0111,31.14003 0,46.71875 v 0.0312 c 0.0411,0.43657 -0.008,0.93502 0,1.4375 0.008,0.50248 0.0737,1.01166 0.40625,1.4375 l 0.0312,0.0312 0.0312,0.0312 c 0.88962,0.45549 1.88022,0.21541 2.75,0.25 0,1.61458 0,3.22917 0,4.84375 -6.9375,0 -13.875,0 -20.8125,0 0,-1.61458 0,-3.22917 0,-4.84375 0.52683,-0.002 1.07394,0.026 1.625,-0.0625 0.0103,-8.9e-4 0.0211,0.001 0.0312,0 0.49356,-0.0519 0.90356,-0.30165 1.15625,-0.65625 0.25789,-0.3619 0.38288,-0.84207 0.40625,-1.3125 0.0258,-27.30918 -0.007,-54.6276 0,-81.9375 -0.002,-0.55264 -0.0551,-1.18808 -0.25,-1.75 -0.1949,-0.56192 -0.52778,-1.03864 -1.09375,-1.25 -1.17935,-0.41131 -2.44755,-0.16342 -3.59375,-0.21875 0,-1.04815 0,-2.10809 0,-3.15625 0,-0.0104 0,-0.0209 0,-0.0312 0.0287,-0.30144 0.011,-0.62773 0,-0.9375 -0.0101,-0.28223 0.0358,-0.52778 0.0937,-0.6875 6.4072,-0.49 12.81188,-1.0217 19.21875,-1.5 z m -54.90625,-0.3125 c -6.51146,0.48561 -13.02109,1.00243 -19.53125,1.5 h -0.0937 l -0.0625,0.0937 c -0.13859,0.26069 -0.1056,0.57391 -0.0937,0.90625 0.0118,0.33234 0.0283,0.67946 0,0.9375 0,1.11042 0,2.23333 0,3.34375 V 224 h 0.15625 c 1.41824,0.0886 2.84841,-0.182 4.125,0.25 0.01,0.003 0.0215,-0.003 0.0312,0 0.42955,0.35407 0.57497,0.84805 0.625,1.40625 0.0505,0.56317 -0.002,1.18148 0.0312,1.75 6e-4,0.0102 -6.6e-4,0.0211 0,0.0312 -0.007,27.07286 0.0233,54.14659 0,81.21875 v 0.0312 c 0.0153,0.39009 -0.0183,0.83264 -0.15625,1.1875 -0.13792,0.35486 -0.37736,0.60658 -0.8125,0.65625 -0.68194,0.0954 -1.37675,0.051 -2.09375,0.0625 H 719.6875 V 310.75 c 0,1.70833 0,3.41667 0,5.125 v 0.15625 h 0.15625 c 7.69792,0 15.39583,0 23.09375,0 h 0.15625 V 315.875 c 0,-1.71875 0,-3.4375 0,-5.15625 v -0.15625 h -0.15625 c -1.37244,-0.0704 -2.7428,0.13938 -4.03125,-0.125 -0.50769,-0.14919 -0.73582,-0.52504 -0.875,-1 -0.13918,-0.47496 -0.15691,-1.04611 -0.15625,-1.53125 0,-30.23334 0,-60.45417 0,-90.6875 v -0.15625 z m -0.15625,0.3125 c 0,30.18124 0,60.35 0,90.53125 -6.6e-4,0.48851 -8.7e-4,1.08879 0.15625,1.625 0.15712,0.53621 0.50406,1.03627 1.125,1.21875 1.31194,0.2692 2.65596,0.0795 3.9375,0.125 0,1.61458 0,3.22917 0,4.84375 -7.59375,0 -15.1875,0 -22.78125,0 0,-1.60416 0,-3.20834 0,-4.8125 0.6514,-0.003 1.32735,0.0316 2,-0.0625 0.55034,-0.0628 0.86578,-0.418 1.03125,-0.84375 0.16547,-0.42575 0.20371,-0.93079 0.1875,-1.34375 0.0233,-27.08292 -0.007,-54.16693 0,-81.25 -0.035,-0.53716 0.0239,-1.16567 -0.0312,-1.78125 -0.0552,-0.61558 -0.23681,-1.23162 -0.78125,-1.65625 l -0.0312,-0.0312 c -1.34195,-0.46675 -2.79716,-0.19417 -4.125,-0.25 0,-1.04815 0,-2.10809 0,-3.15625 0,-0.0104 0,-0.0209 0,-0.0312 0.0287,-0.30144 0.011,-0.62773 0,-0.9375 -0.0101,-0.28223 0.0358,-0.52778 0.0937,-0.6875 6.4072,-0.49 12.81188,-1.0217 19.21875,-1.5 z m -169.625,1.1875 v 0.15625 0.0937 c 0,1.67708 0,3.35417 0,5.03125 V 224 h 0.15625 c 1.48134,0.0924 2.95644,-0.20781 4.3125,0.21875 0.51467,0.15762 0.85321,0.55065 1.0625,1.0625 0.20557,0.50274 0.28599,1.12221 0.34375,1.65625 4.6e-4,0.0104 -4.5e-4,0.0209 0,0.0312 0.18331,4.20922 0.0496,8.43108 0.0937,12.65625 -0.006,22.85196 0.0194,45.7114 0,68.5625 0.015,0.48103 -0.0827,1.04661 -0.3125,1.46875 -0.22983,0.42214 -0.5943,0.70582 -1.125,0.75 -1.40611,0.29326 -2.88994,0.0883 -4.375,0.15625 h -0.15625 v 0.15625 c 0,1.71875 0,3.4375 0,5.15625 v 0.15625 h 0.15625 c 9.4375,0 18.875,0 28.3125,0 h 0.15625 v -0.1562 c 0,-1.71875 0,-3.4375 0,-5.15625 v -0.15625 h -0.15625 c -1.52067,-0.0822 -3.04527,0.16472 -4.46875,-0.1875 -0.58332,-0.18819 -0.93248,-0.63958 -1.15625,-1.21875 -0.22377,-0.57917 -0.33528,-1.26845 -0.375,-1.875 -0.0954,-5.21551 -0.005,-10.43336 -0.0312,-15.65625 0,-7.22917 0,-14.45834 0,-21.6875 6.10416,0 12.20834,0 18.3125,0 -0.0117,12.27932 0.0108,24.5662 -0.0312,36.84375 -4e-5,0.0104 4e-5,0.0208 0,0.0312 -0.0412,0.63172 -0.0691,1.34929 -0.25,1.96875 -0.17944,0.61434 -0.51717,1.14224 -1.0625,1.46875 -1.24196,0.53755 -2.68072,0.22045 -4.09375,0.3125 -0.0211,10e-4 -0.0414,-0.002 -0.0625,0 -0.20854,-0.0486 -0.40675,-0.041 -0.53125,0.0625 -0.13896,0.11554 -0.17965,0.27357 -0.1875,0.4375 -0.0157,0.32786 0.0685,0.71126 0.0312,0.90625 V 312 c 0,1.28749 0,2.5875 0,3.875 v 0.15625 h 0.15625 c 9.39583,0 18.79167,0 28.1875,0 H 631 V 315.875 c 0,-1.71875 0,-3.4375 0,-5.15625 v -0.15625 h -0.15625 c -1.4725,-0.10025 -2.95635,0.23693 -4.28125,-0.25 -0.61981,-0.29344 -0.94096,-0.82319 -1.125,-1.46875 -0.18404,-0.64556 -0.19808,-1.41121 -0.21875,-2.0625 -0.11062,-4.91667 -0.0323,-9.82463 -0.0625,-14.75 0.008,-21.11875 -0.0279,-42.25706 0,-63.375 10e-6,-0.0104 -10e-6,-0.0208 0,-0.0312 0.0387,-0.72969 0.0396,-1.56403 0.15625,-2.3125 0.11819,-0.75854 0.35993,-1.42362 0.90625,-1.875 1.21466,-0.73253 2.75422,-0.33307 4.21875,-0.4375 0.0104,-7.4e-4 0.0209,7.9e-4 0.0312,0 0.0978,0.0127 0.1684,0.0277 0.25,0 0.0918,-0.0312 0.17157,-0.11247 0.21875,-0.1875 0.0944,-0.15005 0.10169,-0.32362 0.0937,-0.5 -0.008,-0.17638 -0.0166,-0.36496 -0.0312,-0.53125 -0.0147,-0.16629 -0.0243,-0.29689 0,-0.375 v -0.0312 -0.0312 c 0,-1.21043 0,-2.41458 0,-3.625 v -0.15625 h -0.15625 c -9.39583,0 -18.79167,0 -28.1875,0 H 602.5 v 0.15625 c 0,1.70833 0,3.41667 0,5.125 V 224 h 0.15625 c 1.50213,0.0841 3.00495,-0.16749 4.40625,0.1875 0.58637,0.16578 0.94707,0.58498 1.1875,1.15625 0.24043,0.57127 0.33529,1.27316 0.375,1.875 0.1233,3.63211 0.0283,7.26047 0.0625,10.90625 0,8.49587 0,17.00416 0,25.5 -6.10416,0 -12.20834,0 -18.3125,0 0.0112,-11.94601 -0.009,-23.89944 0.0312,-35.84375 4e-5,-0.0104 -4e-5,-0.0208 0,-0.0312 0.0687,-1.19457 0.13149,-2.60796 1,-3.3125 1.21596,-0.73105 2.75287,-0.33913 4.21875,-0.4375 0.0207,-10e-4 0.0419,0.002 0.0625,0 0.20516,0.0551 0.3865,0.0815 0.53125,0.0312 0.16172,-0.0562 0.26286,-0.19971 0.3125,-0.34375 0.0993,-0.28808 0.0482,-0.62104 0.0312,-0.9375 0,-1.34375 0,-2.6875 0,-4.03125 v -0.15625 h -0.15625 c -9.4375,0 -18.875,0 -28.3125,0 z m 0.3125,0.3125 c 9.33333,0 18.66667,0 28,0 0,1.29167 0,2.58333 0,3.875 0.0176,0.32845 0.0259,0.67786 -0.0312,0.84375 -0.0286,0.0829 -0.0602,0.10249 -0.125,0.125 -0.0648,0.0225 -0.17212,0.0315 -0.375,-0.0312 h -0.0312 -0.0312 c -1.40399,0.1078 -3.06147,-0.32729 -4.4375,0.5 -1.02542,0.83182 -1.0874,2.36647 -1.15625,3.5625 -0.0406,12.00812 0.0116,24.02358 0,36.03125 v 0.15625 h 0.15625 c 6.20833,0 12.41667,0 18.625,0 H 609 v -0.15625 c 0,-8.54792 0,-17.10833 0,-25.65625 -0.0342,-3.63772 0.0612,-7.26086 -0.0625,-10.90625 v -0.0312 c -0.041,-0.62081 -0.14291,-1.34304 -0.40625,-1.96875 -0.26334,-0.62571 -0.67727,-1.14649 -1.375,-1.34375 h -0.0312 c -1.43705,-0.36404 -2.9064,-0.13179 -4.3125,-0.1875 0,-1.60416 0,-3.20834 0,-4.8125 9.29166,0 18.58334,0 27.875,0 0,1.14781 0,2.28968 0,3.4375 0,0.0104 0,0.0208 0,0.0312 -0.0404,0.1532 -0.046,0.30115 -0.0312,0.46875 0.0158,0.17872 0.0556,0.37821 0.0625,0.53125 0.007,0.15304 -0.004,0.26942 -0.0312,0.3125 -0.0135,0.0215 -0.0369,0.0225 -0.0625,0.0312 -0.0256,0.009 -0.0794,0.013 -0.15625,0 h -0.0312 c -1.39391,0.10627 -3.0402,-0.32383 -4.40625,0.5 -0.62982,0.52038 -0.90705,1.29659 -1.03125,2.09375 -0.1242,0.79716 -0.11658,1.6248 -0.15625,2.34375 -0.028,21.12887 0.008,42.27741 0,63.40625 0.0301,4.92009 -0.0796,9.85582 0.0312,14.78125 0.0207,0.65305 0.051,1.39581 0.25,2.09375 0.19897,0.69794 0.59402,1.34734 1.3125,1.6875 1.38739,0.50989 2.88378,0.21766 4.25,0.28125 0,1.61458 0,3.22917 0,4.84375 -9.29166,0 -18.58334,0 -27.875,0 0,-1.2252 0,-2.46231 0,-3.6875 0.002,-0.0106 -0.002,-0.0205 0,-0.0312 0.0492,-0.31115 -0.043,-0.66005 -0.0312,-0.90625 0.006,-0.12734 0.0661,-0.19573 0.0937,-0.21875 0.0277,-0.023 0.0895,-0.0565 0.28125,0 h 0.0312 0.0312 c 1.36145,-0.10129 2.86404,0.28737 4.25,-0.3125 l 0.0312,-0.0312 c 0.6593,-0.37496 0.9899,-0.97972 1.1875,-1.65625 0.1976,-0.67653 0.27084,-1.42315 0.3125,-2.0625 0.0424,-12.34139 -0.0121,-24.69028 0,-37.03125 V 269.625 h -0.15625 c -6.20833,0 -12.41667,0 -18.625,0 h -0.15625 v 0.15625 c 0,7.28125 0,14.5625 0,21.84375 0.0266,5.21853 -0.0643,10.43357 0.0312,15.65625 v 0.0312 c 0.0406,0.61977 0.13045,1.33581 0.375,1.96875 0.24455,0.63294 0.6511,1.1828 1.34375,1.40625 h 0.0312 c 1.46685,0.37217 2.96999,0.13234 4.40625,0.1875 0,1.61458 0,3.22917 0,4.84375 -9.33333,0 -18.66667,0 -28,0 0,-1.61458 0,-3.22917 0,-4.84375 1.3862,-0.0448 2.83269,0.13217 4.25,-0.15625 0.0169,-0.001 0.0146,-0.0294 0.0312,-0.0312 0.6149,-0.0689 1.08433,-0.39851 1.34375,-0.875 0.26642,-0.48935 0.36027,-1.09545 0.34375,-1.625 0.0194,-22.85144 -0.006,-45.71075 0,-68.5625 -0.0442,-4.22627 0.0923,-8.45153 -0.0937,-12.6875 -0.0586,-0.55056 -0.14444,-1.21738 -0.375,-1.78125 -0.23056,-0.56387 -0.62491,-1.05856 -1.25,-1.25 -1.40644,-0.4424 -2.87066,-0.15935 -4.25,-0.21875 0,-1.60416 0,-3.20834 0,-4.8125 z m -199.875,-0.25 v 0.1875 4.9375 0.15625 h 0.1875 1.96875 c 1.17521,0 2.11776,0.68718 2.78125,1.96875 0.66349,1.28157 1.03125,3.16425 1.03125,5.4375 v 71.84375 c 10e-6,2.2138 -0.36642,4.10723 -1.03125,5.4375 -0.66483,1.33027 -1.61136,2.0625 -2.78125,2.0625 h -1.96875 -0.1875 v 0.15625 4.96875 0.15625 h 0.1875 19.3125 0.15625 v -0.15625 -4.96875 -0.15625 h -0.15625 -2.96875 c -1.30017,0 -2.24136,-0.73418 -2.875,-2.0625 -0.63364,-1.32832 -0.9375,-3.22075 -0.9375,-5.4375 V 242.625 l 15.28125,73.0625 0.0312,0.125 h 0.125 7.4375 0.125 l 0.0312,-0.125 15.28125,-73.15625 V 304.375 c 0,2.2227 -0.18184,3.83318 -0.65625,4.84375 -0.47441,1.01057 -1.17852,1.4375 -2.375,1.4375 h -3.46875 -0.1875 v 0.15625 4.96875 0.15625 h 0.1875 27.84375 0.15625 v -0.15625 -4.96875 -0.15625 H 440.75 438.65625 c -1.19647,0 -1.93088,-0.42692 -2.40625,-1.4375 -0.47537,-1.01058 -0.65625,-2.6211 -0.65625,-4.84375 v -74.1875 c -10e-6,-2.22064 0.18091,-3.80294 0.65625,-4.8125 0.47534,-1.00956 1.20973,-1.46875 2.40625,-1.46875 h 2.09375 0.15625 V 223.75 218.8125 218.625 h -0.15625 -23.28125 -0.125 l -0.0312,0.15625 -11.96875,60.40625 -12.71875,-60.4375 -0.0312,-0.125 h -0.125 -23.90625 z m 0.34375,0.34375 h 23.625 L 405.1875,280.03125 405.5,280 v -0.0625 l 12.09375,-60.96875 h 23 v 4.625 h -1.9375 c -1.28148,0 -2.17184,0.52981 -2.6875,1.625 -0.51566,1.09519 -0.68751,2.73039 -0.6875,4.96875 v 74.1875 c 0,2.24035 0.17187,3.87258 0.6875,4.96875 0.51563,1.09617 1.40598,1.65625 2.6875,1.65625 h 1.9375 v 4.625 H 413.0625 V 311 h 3.3125 c 1.28152,0 2.14166,-0.56007 2.65625,-1.65625 0.51459,-1.09618 0.71875,-2.72844 0.71875,-4.96875 v -63.5 -0.0312 h -0.15625 l -0.15625,-0.0312 v 0.0312 h -0.0312 v 0.125 L 403.84375,315.5 h -7.1875 l -15.5625,-74.40625 v -0.0312 l -0.15625,0.0312 h -0.15625 v 0.0312 62.03125 c 0,2.24625 0.3019,4.16457 0.96875,5.5625 0.66685,1.39793 1.73044,2.28125 3.15625,2.28125 h 2.8125 v 4.625 h -19 V 311 h 1.8125 c 1.30811,0 2.36483,-0.88526 3.0625,-2.28125 0.69767,-1.39599 1.06251,-3.31329 1.0625,-5.5625 V 231.3125 c 0,-2.30775 -0.36349,-4.21232 -1.0625,-5.5625 -0.69901,-1.35018 -1.75971,-2.15625 -3.0625,-2.15625 h -1.8125 z M 756.3125,223.5 l -0.0625,0.0937 -0.0312,0.0625 c -1.65462,4.86595 -3.24642,9.81771 -5.71875,14.3125 -0.806,1.33778 -1.6815,2.6608 -2.875,3.53125 -1.43297,1.17482 -3.39228,1.25169 -5.21875,1.1875 -0.0103,-3.6e-4 -0.021,3.7e-4 -0.0312,0 -0.2247,-0.0506 -0.41216,-0.0321 -0.53125,0.0937 -0.12589,0.13303 -0.15568,0.32775 -0.15625,0.5 -5.7e-4,0.17225 0.0171,0.33254 0.0312,0.5 0.0141,0.16746 0.0222,0.31721 0,0.40625 v 0.0312 0.0312 c 0,1.37917 0,2.74583 0,4.125 v 0.15625 h 0.15625 c 1.60417,0 3.20833,0 4.8125,0 0.0102,18.29127 -0.0364,36.58351 0,54.875 0.14863,3.24082 0.2883,6.70396 1.96875,9.625 h 0.0312 c 1.12645,1.67766 2.81784,2.97767 4.8125,3.46875 3.04774,0.8846 6.25557,0.87473 9.375,0.625 h 0.0312 c 2.73264,-0.34367 5.51472,-1.39992 7.28125,-3.625 1.58107,-1.88296 2.32631,-4.35283 2.65625,-6.75 0.39819,-3.46744 0.15105,-6.95375 0.21875,-10.40625 0,-1.30832 0,-2.62917 0,-3.9375 V 292.25 h -0.15625 c -1.83333,0 -3.66667,0 -5.5,0 H 767.25 v 0.15625 c -0.032,4.51883 0.0657,9.02417 -0.0625,13.53125 -0.0657,0.67836 -0.12155,1.42398 -0.3125,2.09375 -0.18675,0.65504 -0.51521,1.23664 -1.09375,1.59375 -0.58162,0.30624 -1.35594,0.42236 -2.03125,0.28125 -0.67531,-0.14111 -1.24541,-0.51122 -1.53125,-1.15625 -0.81037,-2.06604 -0.4793,-4.37889 -0.5625,-6.625 0,-17.82292 0,-35.64587 0,-53.46875 3.66667,0 7.33333,0 11,0 h 0.15625 V 248.5 c 0,-1.88542 0,-3.77083 0,-5.65625 v -0.15625 h -0.15625 c -3.625,0 -7.25,0 -10.875,0 0,-6.34375 0,-12.6875 0,-19.03125 V 223.5 H 761.625 c -1.73958,0 -3.47917,0 -5.21875,0 z m 0.21875,0.3125 c 1.64583,0 3.29167,0 4.9375,0 0,6.34375 0,12.6875 0,19.03125 V 243 h 0.15625 c 3.625,0 7.25,0 10.875,0 0,1.78125 0,3.5625 0,5.34375 -3.66667,0 -7.33333,0 -11,0 h -0.15625 V 248.5 c 0,17.875 0,35.75 0,53.625 0.0817,2.20439 -0.28825,4.58104 0.5625,6.75 0.33293,0.75131 1.02986,1.18675 1.78125,1.34375 0.75139,0.157 1.56343,0.0638 2.21875,-0.28125 v -0.0312 h 0.0312 c 0.69157,-0.4072 1.04609,-1.06599 1.25,-1.78125 0.20391,-0.71526 0.2475,-1.48483 0.3125,-2.15625 0.12701,-4.46582 0.0339,-8.94545 0.0625,-13.40625 1.72916,0 3.45834,0 5.1875,0 0,1.25641 0,2.52485 0,3.78125 -0.0681,3.47174 0.17496,6.91529 -0.21875,10.34375 -0.32508,2.36183 -1.06994,4.81023 -2.59375,6.625 -1.68868,2.12702 -4.39304,3.15916 -7.0625,3.5 -0.01,0.001 -0.0213,-10e-4 -0.0312,0 -3.09184,0.24577 -6.2699,0.23996 -9.25,-0.625 h -0.0312 c -1.9111,-0.4705 -3.53994,-1.69648 -4.625,-3.3125 -1.62973,-2.83286 -1.75757,-6.22702 -1.90625,-9.46875 -0.0365,-18.34279 -0.0208,-36.68742 -0.0312,-55.03125 v -0.15625 h -0.15625 c -1.60417,0 -3.20833,0 -4.8125,0 0,-1.31648 0,-2.62102 0,-3.9375 0,-0.0104 0,-0.0208 0,-0.0312 0.0326,-0.15445 0.014,-0.33424 0,-0.5 -0.0149,-0.17612 -0.0317,-0.32746 -0.0312,-0.46875 4.7e-4,-0.14129 0.0354,-0.25265 0.0625,-0.28125 0.0271,-0.0286 0.0957,-0.0488 0.28125,0 h 0.0312 c 1.85066,0.0666 3.89173,0.0173 5.4375,-1.25 1.25958,-0.91865 2.12828,-2.28188 2.9375,-3.625 v -0.0312 c 2.48677,-4.52104 4.13075,-9.42666 5.78125,-14.28125 z M 510.375,241.5 c -3.2586,0.22405 -6.42316,1.67266 -8.71875,3.96875 -1.21932,1.16862 -2.2964,2.44704 -3.21875,3.875 0,-2.44792 0,-4.89583 0,-7.34375 v -0.15625 h -0.15625 c -6.47003,0.43271 -12.93772,0.91115 -19.40625,1.34375 h -0.15625 v 0.15625 c 0,1.71875 0,3.4375 0,5.15625 v 0.15625 h 0.15625 c 1.26577,0.0918 2.52624,-0.19885 3.65625,0.1875 0.4623,0.18666 0.73632,0.58537 0.90625,1.09375 0.16993,0.50838 0.21477,1.10775 0.21875,1.625 0.0438,14.66502 0.0187,29.33304 0.0312,44 -0.0269,4.427 0.0655,8.86318 -0.0312,13.28125 -0.0218,0.41963 -0.16274,0.82549 -0.375,1.125 -0.21226,0.29951 -0.48767,0.49722 -0.90625,0.53125 h -0.0312 c -1.09682,0.12945 -2.20685,0.0305 -3.34375,0.0625 h -0.15625 v 0.15625 c 0,1.71875 0,3.4375 0,5.15625 v 0.15625 H 479 c 7.58333,0 15.16667,0 22.75,0 h 0.15625 V 315.875 c 0,-1.71875 0,-3.4375 0,-5.15625 V 310.5625 H 501.75 c -0.97085,-0.0779 -1.94639,0.12576 -2.75,-0.25 -0.25376,-0.40851 -0.3381,-0.8865 -0.34375,-1.40625 -0.006,-0.53138 0.041,-1.08733 0,-1.625 -7.9e-4,-0.0103 8.6e-4,-0.0209 0,-0.0312 0.011,-15.43556 -0.008,-30.87811 0.0312,-46.3125 0.0909,-2.55796 0.12838,-5.27996 1.40625,-7.5 0.30394,-0.526 0.7869,-1.12843 1.25,-1.4375 1.52552,-1.06548 3.59428,-1.26385 5.34375,-0.65625 0.56589,0.21216 0.98139,0.6767 1.28125,1.25 0.29986,0.5733 0.48904,1.24647 0.5625,1.875 0.30126,2.94846 0.0955,5.94905 0.15625,8.9375 -0.008,15.21637 -0.002,30.41051 -0.0312,45.625 h 0.0312 c -0.0292,0.42622 -0.18425,0.79674 -0.40625,1.0625 -0.222,0.26576 -0.51048,0.41823 -0.9375,0.4375 -0.68201,0.04 -1.39077,0.0192 -2.09375,0.0312 h -0.15625 v 0.15625 c 0,1.71875 0,3.4375 0,5.15625 v 0.15625 h 0.1563 c 7.20833,0 14.41667,0 21.625,0 h 0.15625 V 315.875 c 0,-1.71875 0,-3.4375 0,-5.15625 V 310.5625 H 526.875 c -0.52956,-0.0428 -1.10364,0.0262 -1.625,0 -0.50601,-0.0254 -0.92811,-0.12859 -1.25,-0.5 -0.004,-0.009 0.004,-0.0218 0,-0.0312 -0.49572,-1.16526 -0.22726,-2.54355 -0.3125,-3.875 -6.7e-4,-0.0104 7.1e-4,-0.0208 0,-0.0312 -0.0106,-17.29535 0.0373,-34.61074 0,-51.90625 -0.15019,-3.01858 -0.6072,-6.25717 -2.46875,-8.78125 -1.8075,-2.57648 -5.02039,-3.73305 -8.0625,-3.90625 -0.93352,-0.0998 -1.85009,-0.0853 -2.78125,-0.0312 z m 0,0.3125 c 0.91904,-0.0533 1.83923,-0.0661 2.75,0.0312 l 0.0312,0.0312 c 2.97367,0.1693 6.08148,1.28254 7.8125,3.75 v 0.0312 c 1.79859,2.43872 2.2258,5.56381 2.375,8.5625 0.0373,17.30507 0.0206,34.63121 0.0312,51.9375 0.0881,1.28484 -0.25859,2.7267 0.3125,4.03125 l 0.0312,0.0312 c 0.39753,0.48905 0.96973,0.62802 1.53125,0.65625 0.50753,0.0255 1.01938,-0.0174 1.46875,0 0,1.61458 0,3.22917 0,4.84375 -7.10416,0 -14.20834,0 -21.3125,0 0,-1.61458 0,-3.22917 0,-4.84375 0.63882,-0.005 1.28479,0.0383 1.9375,0 0.50604,-0.0228 0.91186,-0.26378 1.1875,-0.59375 0.27564,-0.32997 0.43593,-0.74019 0.46875,-1.21875 v -0.0312 c 0.029,-15.21525 -0.008,-30.44034 0,-45.65625 -0.0603,-2.96943 0.1487,-5.95292 -0.15625,-8.9375 -0.0771,-0.65958 -0.26945,-1.37997 -0.59375,-2 -0.3243,-0.62003 -0.77875,-1.15927 -1.4375,-1.40625 -1.84451,-0.64062 -4.03577,-0.41305 -5.65625,0.71875 -0.53884,0.35961 -0.99233,0.97717 -1.3125,1.53125 -1.33131,2.3129 -1.40926,5.10183 -1.5,7.65625 -0.0389,15.4458 0.0111,30.89839 0,46.34375 0.0422,0.50396 -0.006,1.05811 0,1.625 0.006,0.56689 0.0735,1.16029 0.40625,1.65625 l 0.0312,0.0312 0.0312,0.0312 c 0.9002,0.45843 1.901,0.21418 2.78125,0.25 0,1.61458 0,3.22917 0,4.84375 -7.47916,0 -14.95834,0 -22.4375,0 0,-1.61458 0,-3.22917 0,-4.84375 1.06294,-0.0189 2.16176,0.0659 3.25,-0.0625 0.51004,-0.0415 0.89895,-0.29319 1.15625,-0.65625 0.2573,-0.36306 0.38196,-0.8442 0.40625,-1.3125 0.0969,-4.42665 0.004,-8.85946 0.0312,-13.28125 -0.0125,-14.66624 0.0438,-29.3338 0,-44 -0.004,-0.53576 -0.0625,-1.15787 -0.25,-1.71875 -0.18748,-0.56088 -0.52274,-1.0507 -1.09375,-1.28125 -1.19023,-0.40694 -2.46681,-0.16463 -3.625,-0.21875 0,-1.61458 0,-3.22917 0,-4.84375 6.3663,-0.42648 12.7289,-0.91736 19.09375,-1.34375 0,2.54167 0,5.08333 0,7.625 v 0.5625 l 0.28125,-0.46875 c 0.94015,-1.5563 2.15258,-2.8948 3.46875,-4.15625 2.24037,-2.24085 5.3223,-3.68776 8.5,-3.90625 z M 691.1875,241.5 c -4.14767,0.14286 -8.36432,1.34165 -11.6875,3.90625 -1.53955,1.38642 -3.05963,2.97233 -3.78125,5 h 0.0312 c -1.46515,3.5487 -0.68445,7.73551 1.46875,10.8125 0.97258,1.25288 2.2755,2.34576 3.90625,2.6875 2.3072,0.55937 4.77927,-0.40495 6.34375,-2.09375 1.69978,-1.62566 2.15587,-4.33668 1.125,-6.46875 -0.86244,-1.95755 -2.541,-3.37693 -4.21875,-4.5625 V 250.75 c -0.73537,-0.51144 -1.51816,-0.96218 -2.3125,-1.375 1.52505,-1.04251 3.43895,-1.4352 5.28125,-1.75 0.0102,-7.3e-4 0.021,7.3e-4 0.0312,0 2.11272,-0.15042 4.36792,-0.21198 6.25,0.75 0.75514,0.44559 1.32127,1.0315 1.59375,1.90625 0.78716,2.57962 0.41073,5.37369 0.5,8.09375 0,3.55622 0,7.10016 0,10.65625 -4.68541,1.61636 -9.42804,3.22039 -13.78125,5.65625 -3.13309,1.80358 -5.94597,4.32284 -7.59375,7.59375 -1.80272,3.71081 -2.35319,7.84784 -2.5625,11.90625 -0.22165,4.92852 -0.12523,10.02903 1.4375,14.78125 0.78129,2.19621 1.96877,4.28382 3.78125,5.8125 2.20579,1.97634 5.32068,2.66686 8.21875,2.46875 3.34829,-0.16946 6.62086,-1.67657 8.84375,-4.1875 1.20952,-1.28751 2.2206,-2.74829 3.0625,-4.3125 0.5726,2.38795 1.22075,4.98958 3.28125,6.59375 1.95869,1.66581 4.69486,1.87634 7.125,1.9375 2.78104,-0.0131 5.94062,-0.50744 7.90625,-2.71875 1.61682,-1.65296 2.24258,-4.00071 2.65625,-6.1875 0.3569,-2.25649 0.42589,-4.54237 0.4375,-6.8125 v -0.15625 H 718.375 c -1.55208,0 -3.10417,0 -4.65625,0 h -0.15625 v 0.15625 c -0.0305,2.28727 0.0823,4.58279 -0.3125,6.8125 -0.10311,0.68089 -0.68265,1.18348 -1.375,1.09375 h -0.0312 c -0.34139,0.055 -0.57013,-0.0848 -0.75,-0.3125 -0.17987,-0.22773 -0.29616,-0.55969 -0.28125,-0.875 -0.19663,-3.37752 -0.0463,-6.78822 -0.0937,-10.1875 -0.0142,-13.03062 0.0186,-26.06234 -0.0312,-39.09375 -0.0756,-4.19405 -0.85953,-8.61636 -3.5,-12.03125 -1.33135,-1.58852 -2.96969,-2.95895 -4.90625,-3.78125 -3.47016,-1.53218 -7.36652,-1.81932 -11.09375,-1.6875 z m 0,0.3125 c 3.70203,-0.13092 7.56503,0.18466 10.96875,1.6875 1.88094,0.79868 3.4761,2.09899 4.78125,3.65625 2.57767,3.33367 3.36256,7.6861 3.4375,11.84375 0.0498,13.02991 0.0171,26.0622 0.0312,39.09375 0.0473,3.38686 -0.10414,6.7882 0.0937,10.1875 -0.0184,0.38912 0.0756,0.79387 0.3125,1.09375 0.22276,0.28203 0.61622,0.41412 1.03125,0.375 0.0263,-0.002 0.0357,0.0356 0.0625,0.0312 0.003,2.7e-4 -0.003,-0.0315 0,-0.0312 0.83083,0.0668 1.53384,-0.50419 1.65625,-1.3125 0.39402,-2.22545 0.28913,-4.49502 0.3125,-6.71875 1.44791,0 2.89584,0 4.34375,0 -0.0141,2.21224 -0.0929,4.41499 -0.4375,6.59375 -0.41033,2.16917 -1.02304,4.45738 -2.5625,6.03125 h -0.0312 c -1.86819,2.10169 -4.9121,2.61208 -7.65625,2.625 -2.41688,-0.0608 -5.04951,-0.2959 -6.90625,-1.875 -2.04702,-1.59368 -2.68786,-4.27133 -3.28125,-6.75 l -0.0937,-0.4375 -0.21875,0.40625 c -0.85744,1.66964 -1.94168,3.2031 -3.21875,4.5625 -2.16109,2.44113 -5.36053,3.89728 -8.625,4.0625 -2.83247,0.19363 -5.87877,-0.50567 -8,-2.40625 -1.75396,-1.47932 -2.8871,-3.52539 -3.65625,-5.6875 -1.54283,-4.69172 -1.65852,-9.71034 -1.4375,-14.625 0.20839,-4.04057 0.78952,-8.16289 2.5625,-11.8125 1.61226,-3.20041 4.34474,-5.65714 7.4375,-7.4375 4.34687,-2.43231 9.12602,-4.02797 13.84375,-5.65625 l 0.0937,-0.0312 v -0.125 c 0,-3.59792 0,-7.18332 0,-10.78125 v -0.0312 c -0.0881,-2.68382 0.28233,-5.49003 -0.53125,-8.15625 -0.29714,-0.95391 -0.91473,-1.58807 -1.71875,-2.0625 v -0.0312 c -1.98665,-1.01543 -4.30554,-0.93412 -6.4375,-0.78125 h -0.0312 c -1.94602,0.33231 -4.04099,0.69985 -5.6875,1.9375 l -0.21875,0.15625 0.25,0.125 c 0.88313,0.44207 1.72064,0.93623 2.53125,1.5 1.66049,1.17337 3.30128,2.56782 4.125,4.4375 0.96767,2.00135 0.52904,4.60287 -1.0625,6.125 h -0.0312 c -1.49112,1.60962 -3.85648,2.52726 -6.03125,2 -1.53141,-0.32092 -2.77635,-1.3485 -3.71875,-2.5625 -2.09608,-2.99537 -2.85332,-7.07079 -1.4375,-10.5 0.69256,-1.94603 2.13052,-3.50104 3.65625,-4.875 3.25796,-2.51426 7.40641,-3.70275 11.5,-3.84375 z M 649.96875,241.5 c -4.25204,0.26248 -8.31528,2.33301 -11.125,5.5 -2.78014,2.85769 -4.6045,6.4859 -5.96875,10.1875 -2.61571,7.31447 -3.29753,15.14095 -3.34375,22.84375 0.0963,7.18338 0.49684,14.49344 2.5625,21.4375 0.99971,3.24771 2.35449,6.41254 4.4375,9.125 1.63617,2.0115 3.64328,3.79723 6.03125,4.90625 3.74843,1.80131 8.03802,2.02187 12.09375,1.59375 3.31347,-0.35739 6.83121,-1.32265 9.21875,-3.8125 0.85456,-0.83627 1.50315,-1.64365 2.09375,-2.71875 1.93386,-3.54905 2.34128,-7.67746 2.4375,-11.625 0.01,-2.01689 -0.0641,-4.02096 -0.21875,-6.03125 V 292.75 h -0.15625 c -1.79167,0 -3.58333,0 -5.375,0 H 662.5 v 0.15625 c 0.06,3.83116 0.0885,7.71082 -0.625,11.46875 -0.32534,1.653 -0.92633,3.36023 -2.125,4.4375 -1.82466,1.4681 -4.37614,1.29511 -6.65625,1.1875 -1.61485,-0.12725 -3.24133,-0.64937 -4.3125,-1.875 -0.46764,-0.59563 -1.00816,-1.50795 -1.28125,-2.375 -1.22861,-3.59961 -1.31014,-7.45206 -1.53125,-11.25 -0.18337,-5.62005 -0.20112,-11.24963 -0.1875,-16.875 7.83334,0 15.66666,0 23.5,0 h 0.15625 v -0.15625 c -0.0477,-7.7303 -0.27457,-15.56126 -2.28125,-23.09375 v -0.0312 c -0.94224,-2.9766 -2.08743,-6.02526 -4.28125,-8.3438 -2.05155,-2.38328 -5.03283,-3.80557 -8.125,-4.25 -1.58072,-0.27594 -3.19135,-0.3091 -4.78125,-0.25 z m 0,0.3125 c 1.578,-0.0587 3.20216,-0.0202 4.75,0.25 3.02441,0.43469 5.91249,1.84011 7.90625,4.15625 2.12925,2.2503 3.28189,5.26299 4.21875,8.21875 0.003,0.01 -0.003,0.0214 0,0.0312 1.97344,7.42579 2.23144,15.17956 2.28125,22.84375 -7.83334,0 -15.66666,0 -23.5,0 h -0.15625 v 0.15625 c -0.0142,5.67839 0.002,11.35256 0.1875,17.03125 0.22061,3.7893 0.28138,7.71311 1.53125,11.375 0.29097,0.92383 0.85601,1.81629 1.34375,2.4375 1.14589,1.31111 2.86188,1.8997 4.53125,2.03125 h 0.0312 c 2.27543,0.10739 4.89857,0.28381 6.84375,-1.28125 1.28289,-1.15297 1.91795,-2.93788 2.25,-4.625 v -0.0312 c 0.71164,-3.74823 0.68372,-7.56206 0.625,-11.34375 1.6875,0 3.375,0 5.0625,0 0.14594,1.95035 0.22819,3.91893 0.21875,5.875 -0.0958,3.9299 -0.51267,7.99362 -2.40625,11.46875 -0.57668,1.04974 -1.19391,1.83683 -2.03125,2.65625 h -0.0312 c -2.30752,2.40641 -5.72335,3.36533 -9,3.71875 -4.02165,0.42452 -8.23494,0.20175 -11.90625,-1.5625 h -0.0312 c -2.33097,-1.08254 -4.29238,-2.82842 -5.90625,-4.8125 -2.05067,-2.67034 -3.38205,-5.80551 -4.375,-9.03125 -2.05142,-6.89616 -2.46633,-14.16916 -2.5625,-21.34375 0.0461,-7.68494 0.74634,-15.45545 3.34375,-22.71875 1.35595,-3.6791 3.14101,-7.2835 5.875,-10.09375 h 0.0312 c 2.7543,-3.10453 6.71354,-5.14937 10.875,-5.40625 z m -102.75,-0.34375 c -0.70564,0.002 -1.43419,-0.0203 -2.15625,0.0625 -0.0105,0.001 -0.0208,-0.001 -0.0312,0 -4.12679,0.2937 -8.25925,2.06536 -10.90625,5.3125 -2.52709,2.92103 -3.69368,6.84608 -3.90625,10.65625 -0.17109,4.01236 0.10143,8.12238 1.5,11.9375 1.29579,3.6474 3.61545,6.83741 6.0625,9.75 3.36739,4.01093 6.92934,7.83296 10.28125,11.84375 0.73237,1.04468 1.68939,2.14384 2.375,3.28125 l 0.0312,0.0312 c 1.86759,2.6734 2.78398,5.95749 2.59375,9.21875 -0.0817,1.82396 -0.30256,3.74177 -1.375,5.21875 -0.59298,0.79232 -1.69824,1.48063 -2.75,1.71875 -1.61203,0.42596 -3.36091,0.41977 -5,0.0937 -1.47043,-0.36244 -2.6796,-1.136 -3.625,-2.3125 -0.64112,-0.93606 -1.30338,-2.10829 -1.6875,-3.25 -1.37828,-3.86553 -1.69179,-8.00371 -2.375,-12.0625 v -0.0625 l -0.0937,-0.0625 c -0.26069,-0.13859 -0.57391,-0.1056 -0.90625,-0.0937 -0.33234,0.0118 -0.67946,0.0283 -0.9375,0 -1.28749,0 -2.5875,0 -3.875,0 h -0.15625 v 0.15625 c 0,7.65625 0,15.3125 0,22.96875 v 0.15625 h 0.15625 c 1.59375,0 3.1875,0 4.78125,0 h 0.125 l 0.0312,-0.125 c 0.29513,-1.36172 0.72109,-2.82734 1.78125,-3.71875 0.14274,-0.11556 0.23522,-0.13441 0.34375,-0.125 0.10853,0.009 0.25325,0.0646 0.375,0.15625 0.24349,0.18326 0.47594,0.49648 0.71875,0.71875 2.70776,2.81163 6.64746,4.30721 10.53125,4.34375 3.87114,0.056 7.89073,-0.90493 10.96875,-3.375 1.71739,-1.43027 3.19948,-3.20695 4.125,-5.28125 2.14642,-4.44233 2.25082,-9.52651 1.75,-14.3125 -0.44475,-4.39527 -2.12296,-8.59351 -4.65625,-12.1875 -1.78111,-2.54605 -3.84205,-4.84965 -5.875,-7.1875 -2.45926,-2.77074 -5.04817,-5.4145 -7.375,-8.28125 -0.76323,-1.06741 -1.71671,-2.23702 -2.4375,-3.40625 -1.67839,-2.63299 -2.43653,-5.81593 -2.3125,-8.9375 0.0119,-1.51027 0.33791,-3.1695 1.1875,-4.3125 1.25996,-1.5638 3.5637,-1.85038 5.5625,-1.6875 1.52651,0.0592 3.06711,0.49494 4.21875,1.5 0.38337,0.2538 0.7524,0.76143 1.03125,1.21875 1.40215,2.13636 1.69245,4.80822 2,7.34375 0.23375,1.91577 0.50509,3.83749 0.71875,5.75 v 0.125 h 0.15625 c 1.88542,0 3.77083,0 5.65625,0 H 564 v -0.15625 c 0,-7.08333 0,-14.16667 0,-21.25 v -0.15625 h -0.15625 c -1.55208,0 -3.10417,0 -4.65625,0 h -0.125 l -0.0312,0.125 c -0.15548,1.21301 -0.0777,2.49182 -0.5,3.5625 -0.0505,0.10067 -0.0464,0.0941 -0.0625,0.0937 -0.0161,-3.4e-4 -0.0787,-0.029 -0.15625,-0.0937 -0.0775,-0.0647 -0.16297,-0.16176 -0.25,-0.25 -0.0768,-0.0779 -0.16114,-0.16288 -0.25,-0.21875 -0.0108,-0.009 -0.0204,-0.0218 -0.0312,-0.0312 -2.90131,-2.52347 -6.65922,-4.24232 -10.5625,-4.40625 z m 0,0.3125 c 3.83202,0.16094 7.51756,1.87842 10.375,4.375 h 0.0312 c 0.037,0.0199 0.10437,0.10321 0.1875,0.1875 0.0831,0.0843 0.18145,0.19794 0.28125,0.28125 0.0998,0.0833 0.22682,0.15316 0.375,0.15625 0.14818,0.003 0.29448,-0.12062 0.375,-0.28125 0.44254,-1.12204 0.34009,-2.36417 0.46875,-3.5 1.45833,0 2.91667,0 4.375,0 0,6.97916 0,13.95834 0,20.9375 -1.79167,0 -3.58333,0 -5.375,0 -0.21168,-1.87529 -0.45935,-3.72385 -0.6875,-5.59375 -0.30715,-2.53229 -0.57374,-5.24805 -2.03125,-7.46875 -0.28823,-0.4727 -0.66215,-1.00608 -1.125,-1.3125 -1.2237,-1.06794 -2.82966,-1.50139 -4.40625,-1.5625 -2.04768,-0.16686 -4.4466,0.11722 -5.8125,1.8125 -0.91397,1.2296 -1.23772,2.9465 -1.25,4.5 -0.12639,3.18087 0.62612,6.3992 2.34375,9.09375 0.73747,1.19631 1.71544,2.38395 2.46875,3.4375 2.33871,2.88139 4.92204,5.54886 7.375,8.3125 2.03509,2.34031 4.07727,4.63112 5.84375,7.15625 2.50421,3.55275 4.18634,7.69619 4.625,12.03125 0.49792,4.75829 0.3878,9.79643 -1.71875,14.15625 -0.90126,2.0199 -2.34368,3.7508 -4.03125,5.15625 -3.00274,2.40967 -6.96558,3.33646 -10.78125,3.28125 -3.80409,-0.0358 -7.673,-1.478 -10.3125,-4.21875 v -0.0312 c -0.20466,-0.18734 -0.45068,-0.49347 -0.75,-0.71875 -0.14966,-0.11264 -0.3388,-0.20207 -0.53125,-0.21875 -0.19245,-0.0167 -0.40211,0.0324 -0.59375,0.1875 -1.12442,0.94544 -1.54622,2.43647 -1.84375,3.78125 -1.5,0 -3,0 -4.5,0 0,-7.55208 0,-15.10417 0,-22.65625 1.2252,0 2.46231,0 3.6875,0 0.0104,0 0.0209,0 0.0312,0 0.30144,0.0287 0.62773,0.0111 0.9375,0 0.29485,-0.0105 0.56112,0.029 0.71875,0.0937 0.66514,3.99929 0.96083,8.12146 2.34375,12 0.39926,1.18669 1.0985,2.3613 1.75,3.3125 0.9861,1.22714 2.24773,2.05951 3.78125,2.4375 h 0.0312 c 1.67931,0.33402 3.45577,0.34733 5.125,-0.0937 1.13242,-0.25638 2.28526,-0.97225 2.9375,-1.84375 1.13616,-1.56472 1.35507,-3.53502 1.4375,-5.375 0.19449,-3.33422 -0.74656,-6.70384 -2.65625,-9.4375 -0.70693,-1.17277 -1.68942,-2.28998 -2.40625,-3.3125 -3.35883,-4.01907 -6.92049,-7.87196 -10.28125,-11.875 -2.43705,-2.90069 -4.72472,-6.0666 -6,-9.65625 -1.37793,-3.7588 -1.67004,-7.82469 -1.5,-11.8125 0.20961,-3.75697 1.3768,-7.58598 3.84375,-10.4375 2.58707,-3.17363 6.6272,-4.93703 10.6875,-5.21875 h 0.0312 c 0.70051,-0.0834 1.40104,-0.0602 2.125,-0.0625 z m -86.125,-0.21875 c -6.06395,0 -11.43607,3.22587 -15.28125,9.625 -3.84518,6.39913 -6.1875,15.9418 -6.1875,28.65625 4.9e-4,13.9518 2.14864,23.27683 5.90625,29.125 3.75761,5.84817 9.14429,8.21875 15.5625,8.21875 6.09428,0 10.73709,-1.32683 13.65625,-5.03125 2.91916,-3.70442 4.08821,-9.75503 3.34375,-19.1875 v -0.125 H 477.9375 472.75 472.5625 L 472.59375,293 c 0.18729,7.91866 -0.38782,12.23408 -1.6875,14.53125 -0.64984,1.14858 -1.47401,1.7803 -2.5,2.15625 -1.02599,0.37595 -2.27104,0.46875 -3.71875,0.46875 -2.12288,0 -3.71686,-0.26005 -4.9375,-1.0625 -1.22064,-0.80245 -2.08177,-2.13524 -2.6875,-4.3125 -1.21145,-4.35453 -1.375,-12.02701 -1.375,-25.15625 -10e-6,-0.46062 0,-1.20362 0,-2.09375 h 23.5 0.15625 V 277.375 c 0,-13.26219 -1.26805,-22.1946 -4.1875,-27.84375 -2.91945,-5.64915 -7.52203,-7.96875 -14.0625,-7.96875 z m 0,0.3125 c 6.46553,0 10.90769,2.25215 13.78125,7.8125 2.86126,5.53656 4.14537,14.38307 4.15625,27.53125 h -23.5 -0.15625 v 0.15625 c 0,0.991 -10e-6,1.75499 0,2.25 0,13.13176 0.1397,20.80978 1.375,25.25 0.61765,2.22011 1.51305,3.61449 2.8125,4.46875 1.29945,0.85426 2.97438,1.15625 5.125,1.15625 1.46129,0 2.72545,-0.10167 3.8125,-0.5 1.08705,-0.39833 2.00572,-1.10746 2.6875,-2.3125 1.35225,-2.39008 1.89281,-6.71963 1.71875,-14.53125 h 4.875 c 0.71376,9.29679 -0.45846,15.23038 -3.28125,18.8125 -2.84009,3.60408 -7.35753,4.90625 -13.40625,4.90625 -6.34079,0 -11.60861,-2.29793 -15.3125,-8.0625 -3.70389,-5.76457 -5.84326,-15.04954 -5.84375,-28.96875 0,-12.67555 2.32293,-22.17262 6.125,-28.5 3.80207,-6.32738 9.08021,-9.46875 15.03125,-9.46875 z m -0.78125,5.6875 c -1.69769,-0.0334 -2.96024,1.32769 -3.40625,2.84375 -1.06539,3.32789 -1.05231,6.83902 -1.3125,10.25 -0.18798,3.87391 -0.25498,7.75007 -0.3125,11.625 v 0.15625 h 0.15625 c 3.40625,0 6.8125,0 10.21875,0 h 0.15625 v -0.15625 c -0.0371,-5.40045 0.0929,-10.81187 -0.0625,-16.21875 -0.15796,-2.34693 -0.0342,-4.90463 -1.21875,-7.09375 v -0.0312 c -0.44837,-0.73265 -1.14492,-1.1063 -1.90625,-1.28125 -0.76133,-0.17495 -1.57152,-0.14706 -2.3125,-0.0937 z m 0,0.3125 c 0.72916,-0.0525 1.54334,-0.0686 2.25,0.0937 0.70666,0.16238 1.3217,0.50746 1.71875,1.15625 1.11362,2.08136 0.9971,4.60414 1.15625,6.96875 0.15361,5.34403 0.0286,10.67701 0.0625,16.03125 -3.30208,0 -6.60417,0 -9.90625,0 0.057,-3.82232 0.12736,-7.65336 0.3125,-11.46875 0.26155,-3.4287 0.23625,-6.89205 1.28125,-10.15625 v -0.0312 c 0.41407,-1.40748 1.60043,-2.62376 3.125,-2.59375 z m 235.90625,24.8125 -0.25,0.15625 -0.0625,0.0312 -0.0937,0.0625 c -1.56869,0.96326 -3.24942,1.80107 -4.65625,3.03125 -0.88952,0.58132 -1.70182,1.578 -2.40625,2.40625 h -0.0312 c -2.10634,3.06563 -2.39608,6.91098 -2.625,10.46875 -0.14961,4.56192 -0.27491,9.15105 -0.0312,13.71875 0.15146,1.57508 0.25124,3.35682 1.15625,4.75 0.76361,1.19237 2.21108,1.46364 3.5,1.40625 0.0103,7e-5 0.021,-2e-5 0.0312,0 1.48678,0.002 3.01332,-0.56613 3.90625,-1.8125 1.29091,-1.73211 1.45809,-4.0412 1.5625,-6.09375 0.0341,-9.28158 -0.01,-18.56294 0,-27.84375 z m -0.3125,0.5625 c -0.009,9.18795 0.003,18.37611 -0.0312,27.5625 -0.10419,2.04807 -0.2522,4.27392 -1.46875,5.90625 -0.8254,1.15211 -2.27381,1.69743 -3.6875,1.6875 -1.23973,0.0605 -2.56784,-0.21606 -3.25,-1.28125 -0.84111,-1.29482 -0.90996,-3.00739 -1.0625,-4.59375 -0.2428,-4.55148 -0.14954,-9.12765 0,-13.6875 0.22778,-3.53995 0.53997,-7.28054 2.5625,-10.25 0.009,-0.0109 0.0219,-0.0203 0.0312,-0.0312 0.70019,-0.82361 1.53156,-1.81296 2.34375,-2.34375 1.33792,-1.16992 3.00636,-2.0203 4.5625,-2.96875 z"
         style="fill:#362e2b;stroke:none"
         id="path5" />
      <path
         d="m 791.8125,216.09375 -0.15625,0.0312 -19.4375,1.46875 -0.15625,0.0312 v 0.125 4.96875 0.15625 h 0.15625 2.46875 c 0.78052,0 1.33691,0.17626 1.71875,0.65625 0.38184,0.47999 0.59375,1.31119 0.59375,2.65625 v 80.75 c 10e-6,1.10269 -0.11065,1.77487 -0.4375,2.15625 -0.32685,0.38138 -0.90012,0.53125 -1.875,0.53125 h -0.75 -0.15625 v 0.15625 4.96875 h 0.15625 v 0.15625 h 0.1875 20.75 0.15625 V 314.75 309.78125 309.625 h -0.15625 -1.34375 c -0.79275,0 -1.22668,-0.0892 -1.4375,-0.3125 -0.21082,-0.22334 -0.28125,-0.64033 -0.28125,-1.375 V 260.5 c 0,-3.02636 0.26302,-5.70038 1.15625,-7.59375 0.89323,-1.89337 2.38244,-3.03125 5,-3.03125 0.94297,0 1.67504,0.15396 2.21875,0.4375 0.54371,0.28354 0.91258,0.69497 1.1875,1.28125 0.54984,1.17257 0.65625,3.02542 0.65625,5.5625 v 50.40625 c -10e-6,0.90411 -0.22092,1.40129 -0.5625,1.6875 -0.34158,0.28621 -0.83297,0.375 -1.5,0.375 h -1.375 -0.15625 v 0.15625 4.96875 0.15625 h 0.15625 21.4375 0.15625 V 314.75 309.78125 309.625 h -0.15625 -1.125 c -0.85182,0 -1.36239,-0.11678 -1.65625,-0.4375 -0.29386,-0.32072 -0.40625,-0.89677 -0.40625,-1.875 v -52.875 c 0,-4.47771 -0.81093,-7.97876 -2.75,-10.34375 -1.93907,-2.36499 -5.01278,-3.5625 -9.4375,-3.5625 -5.60456,0 -9.64721,3.22117 -12.84375,8.09375 V 216.28125 Z M 791.5,216.4375 v 32.65625 0.5625 l 0.3125,-0.46875 c 3.20426,-5.05218 7.20811,-8.34375 12.84375,-8.34375 4.36628,0 7.31832,1.18899 9.1875,3.46875 1.86918,2.27976 2.6875,5.6857 2.6875,10.125 v 52.875 c 0,1.00477 0.11286,1.67122 0.5,2.09375 0.38714,0.42253 0.99282,0.53125 1.875,0.53125 h 0.96875 v 4.65625 H 798.75 v -4.65625 h 1.21875 c 0.69597,0 1.28458,-0.0737 1.71875,-0.4375 0.43417,-0.36379 0.65624,-0.9836 0.65625,-1.9375 v -50.40625 c 0,-2.54492 -0.0906,-4.41457 -0.6875,-5.6875 -0.29845,-0.63647 -0.70674,-1.1216 -1.3125,-1.4375 -0.60576,-0.3159 -1.39947,-0.46875 -2.375,-0.46875 -2.71144,0 -4.34874,1.21087 -5.28125,3.1875 -0.93251,1.97663 -1.1875,4.70635 -1.1875,7.75 v 47.4375 c 0,0.75233 0.0598,1.25984 0.375,1.59375 0.31519,0.33391 0.839,0.40625 1.65625,0.40625 h 1.1875 v 4.65625 H 774.125 v -4.65625 h 0.5625 c 1.00812,0 1.7086,-0.13913 2.125,-0.625 0.4164,-0.48587 0.53126,-1.24869 0.53125,-2.375 v -80.75 c 0,-1.37894 -0.23285,-2.27224 -0.6875,-2.84375 -0.45465,-0.57151 -1.13929,-0.78125 -1.96875,-0.78125 h -2.3125 v -4.625 z m -102.00629,91.0044 c -3.968,0 -4.335,-2.605 -4.335,-11.896 0,-16.347 1.114,-18.577 9.785,-23.411 v 26.26 c 0,5.208 -0.867,9.047 -5.45,9.047 m -235.007,-36.291 c 0.368,-22.05 1.115,-24.404 5.574,-24.404 4.955,0 4.456,2.849 4.456,24.404 z m 5.574,44.838 c 12.14,0 18.333,-5.206 16.843,-24.031 h -5.199 c 0.368,15.853 -2.233,17.342 -8.052,17.342 -8.547,0 -9.167,-4.463 -9.167,-30.72 0,-0.495 0,-1.238 0,-2.229 h 23.656 c 0,-26.506 -5.079,-35.669 -18.082,-35.669 -12.019,0 -21.306,12.755 -21.306,38.146 10e-4,27.867 8.549,37.161 21.307,37.161 z m 88.273,0 c 10.649,0 16.595,-7.188 16.595,-18.089 0,-11.393 -3.96,-16.344 -12.139,-25.39 -7.8,-8.547 -10.773,-11.766 -10.773,-18.825 0,-4.089 1.362,-6.689 6.069,-6.689 4.704,0 7.432,1.858 8.296,9.039 l 0.867,6.94 h 5.451 v -21.055 h -4.459 c -0.244,2.599 -0.244,4.084 -0.991,3.71 -1.111,-0.987 -5.446,-4.949 -11.64,-4.949 -8.547,0 -16.227,5.447 -16.227,17.462 0,11.271 3.84,15.729 12.139,25.147 7.185,8.172 10.773,11.764 10.773,18.449 0,5.327 -1.483,8.3 -7.057,8.3 -4.71,0 -7.807,-2.229 -9.29,-11.645 l -0.991,-6.438 h -5.45 v 22.793 h 4.583 c 0.495,-2.357 1.734,-4.587 2.849,-3.844 1.608,1.86 5.325,5.084 11.395,5.084 z m 101.73,0 c 12.14,0 18.333,-5.206 16.843,-24.031 h -5.199 c 0.372,15.853 -2.229,17.342 -8.052,17.342 -8.547,0 -9.166,-4.463 -9.166,-30.72 0,-0.495 0,-1.238 0,-2.229 h 23.655 c 0,-26.506 -5.074,-35.669 -18.081,-35.669 -12.016,0 -21.306,12.755 -21.306,38.146 0,27.867 8.551,37.161 21.306,37.161 z m 33.237,0 c 7.309,0 10.9,-5.206 12.883,-8.922 1.238,5.697 2.845,8.922 10.404,8.922 8.668,0 10.649,-5.206 10.649,-15.36 h -4.455 c 0,7.309 -0.252,8.052 -1.858,8.052 -1.49,0 -1.49,-0.619 -1.49,-4.711 v -45.083 c 0,-14.495 -7.8,-18.205 -18.081,-18.205 -13.131,0 -20.563,9.163 -15.607,18.329 2.105,3.838 6.193,4.953 9.658,2.354 3.596,-2.723 4.215,-8.425 -4.951,-13.004 1.238,-1.117 4.83,-2.109 7.308,-2.109 7.185,0 7.185,2.605 7.185,9.294 0,0.989 0,10.775 0,12.631 -17.837,6.073 -24.03,9.414 -24.03,28.617 -0.002,14.859 5.695,19.195 12.385,19.195 z m -205.238,-1.238 h 22.544 v -4.955 h -1.366 c -1.61,0 -1.858,-0.375 -1.858,-1.858 v -47.439 c 0,-6.07 0.991,-10.778 6.317,-10.778 3.84,0 4.215,2.354 4.215,7.432 v 50.41 c 0,1.858 -0.871,2.233 -2.233,2.233 h -1.362 v 4.955 h 21.426 v -4.955 h -1.111 c -1.734,0 -2.229,-0.496 -2.229,-2.478 v -52.889 c 0,-8.92 -3.221,-13.748 -12.012,-13.748 -5.702,0 -10.037,3.343 -13.258,8.419 v -8.051 l -19.196,1.362 v 4.955 h 2.478 c 1.61,0 2.478,0.745 2.478,3.468 v 56.109 c 0,2.233 -0.5,2.853 -2.478,2.853 h -2.354 v 4.955 z m 267.829,-14.992 c 0,11.771 1.61,16.23 13.254,16.23 7.553,0 12.632,-3.225 12.632,-13.997 v -10.529 h -5.323 v 11.644 c 0,4.336 -0.619,6.07 -3.097,6.07 -2.478,0 -2.973,-1.734 -2.973,-5.574 v -56.236 h 11.145 v -5.447 h -11.021 v -19.201 h -5.078 c -5.698,17.216 -8.3,19.202 -13.007,19.202 h -1.486 v 5.323 h 4.955 v 52.515 z m -378.38,14.992 h 19.328 v -4.955 h -2.973 c -2.729,0 -3.964,-3.225 -3.964,-7.684 v -62.053 l 15.604,74.564 h 7.432 l 15.607,-74.811 v 63.538 c 0,4.46 -0.743,6.445 -3.221,6.445 h -3.468 v 4.955 h 27.867 v -4.955 h -2.106 c -2.477,0 -3.217,-1.985 -3.217,-6.445 v -74.19 c 0,-4.458 0.74,-6.441 3.217,-6.441 h 2.106 v -4.955 h -23.283 l -12.14,61.192 -12.882,-61.192 h -23.907 v 4.955 h 1.986 c 2.478,0 3.964,2.973 3.964,7.558 v 71.836 c 0,4.459 -1.486,7.684 -3.964,7.684 h -1.986 z m 199.65,0 h 28.115 v -4.955 h -2.849 c -2.605,0 -3.344,-0.871 -3.344,-5.206 v -35.915 h 18.828 v 35.915 c 0,4.335 -0.871,5.206 -3.348,5.206 h -2.846 v 4.955 h 27.991 v -4.955 h -2.478 c -2.602,0 -3.341,-0.871 -3.341,-5.206 v -76.667 c 0,-4.463 0.739,-5.204 3.341,-5.204 h 2.478 v -4.955 h -27.991 v 4.955 h 2.846 c 2.477,0 3.348,0.741 3.348,5.204 v 34.926 h -18.828 v -34.926 c 0,-4.463 0.739,-5.204 3.344,-5.204 h 2.849 v -4.955 h -28.115 v 4.955 h 2.598 c 2.601,0 3.344,0.741 3.344,5.204 v 79.145 c 0,2.109 -0.743,2.729 -3.344,2.729 h -2.598 z m 151.73,0 h 22.912 v -4.955 h -2.973 c -1.61,0 -2.229,-0.619 -2.229,-2.605 v -90.912 l -19.444,1.484 v 4.955 h 2.722 c 1.614,0 2.233,0.495 2.233,2.476 v 82.248 c 0,1.857 -0.252,2.354 -1.982,2.354 h -1.238 v 4.955 z m 55.056,0 h 20.934 v -4.955 h -1.366 c -1.606,0 -1.857,-0.375 -1.857,-1.858 v -47.439 c 0,-6.07 0.991,-10.778 6.32,-10.778 3.837,0 4.208,2.354 4.208,7.432 v 50.41 c 0,1.858 -0.866,2.233 -2.229,2.233 h -1.358 v 4.955 h 21.422 v -4.955 h -1.114 c -1.731,0 -2.227,-0.496 -2.227,-2.478 v -52.889 c 0,-8.92 -3.221,-13.748 -12.016,-13.748 -5.697,0 -9.782,3.343 -13.006,8.419 v -32.821 l -19.448,1.484 v 4.955 h 2.481 c 1.606,0 2.478,0.741 2.478,3.468 v 80.757 c 0,2.233 -0.495,2.853 -2.478,2.853 h -0.743 v 4.955 z m -247.827,-70.359 c 12.383,-9.285 14.861,-16.223 10.776,-22.541 -2.229,-3.468 -7.308,-5.696 -11.024,-2.6 -4.463,3.716 -3.344,10.278 4.955,13.87 -1.49,1.736 -4.955,5.204 -7.804,7.928 z m 118.368,26.759 c 0.375,-22.05 1.115,-24.404 5.574,-24.404 4.955,0 4.459,2.849 4.459,24.404 z M 510.40625,240.53125 c -5.59529,0 -9.88522,3.20637 -13.09375,8.0625 v -7.53125 -0.1875 l -0.1875,0.0312 -19.1875,1.34375 h -0.15625 v 0.15625 4.96875 0.15625 h 0.15625 2.46875 c 0.77899,0 1.33652,0.17632 1.71875,0.65625 0.38223,0.47993 0.625,1.31176 0.625,2.65625 v 56.09375 c 0,1.1026 -0.14137,1.77476 -0.46875,2.15625 -0.32738,0.38149 -0.90216,0.53125 -1.875,0.53125 h -2.34375 -0.15625 v 0.15625 4.96875 0.15625 h 0.15625 22.5625 0.15625 V 314.75 309.78125 309.625 H 500.625 499.25 c -0.79275,0 -1.22644,-0.0891 -1.4375,-0.3125 -0.21106,-0.22339 -0.28125,-0.64037 -0.28125,-1.375 V 260.5 c 0,-3.02633 0.26239,-5.70036 1.15625,-7.59375 0.89386,-1.89339 2.38397,-3.03125 5,-3.03125 0.94373,0 1.67501,0.15397 2.21875,0.4375 0.54374,0.28353 0.91289,0.69498 1.1875,1.28125 0.54923,1.17253 0.65625,3.02538 0.65625,5.5625 v 50.40625 c 10e-6,0.90419 -0.19055,1.40138 -0.53125,1.6875 -0.3407,0.28612 -0.86473,0.375 -1.53125,0.375 h -1.375 -0.15625 v 0.15625 4.96875 0.15625 h 0.15625 21.4375 0.15625 V 314.75 309.78125 309.625 H 525.75 524.625 c -0.85183,0 -1.33114,-0.11678 -1.625,-0.4375 -0.29386,-0.32072 -0.4375,-0.89677 -0.4375,-1.875 v -52.875 c 0,-4.47771 -0.81093,-7.97876 -2.75,-10.34375 -1.93907,-2.36499 -4.98153,-3.5625 -9.40625,-3.5625 z m 0,0.3125 c 4.36628,0 7.28707,1.18899 9.15625,3.46875 1.86918,2.27976 2.6875,5.6857 2.6875,10.125 v 52.875 c 0,1.00477 0.11286,1.67122 0.5,2.09375 0.38714,0.42253 0.99282,0.53125 1.875,0.53125 h 0.96875 v 4.65625 h -21.125 v -4.65625 h 1.21875 c 0.69548,0 1.28545,-0.0736 1.71875,-0.4375 0.4333,-0.36388 0.65626,-0.98369 0.65625,-1.9375 v -50.40625 c 0,-2.54488 -0.06,-4.41453 -0.65625,-5.6875 -0.29814,-0.63648 -0.73793,-1.1216 -1.34375,-1.4375 -0.60582,-0.3159 -1.39873,-0.46875 -2.375,-0.46875 -2.70997,0 -4.34811,1.21089 -5.28125,3.1875 -0.93314,1.97661 -1.1875,4.70631 -1.1875,7.75 v 47.4375 c 0,0.75237 0.0596,1.25989 0.375,1.59375 0.31544,0.33386 0.839,0.40625 1.65625,0.40625 h 1.1875 v 4.65625 h -22.21875 v -4.65625 h 2.1875 c 1.00616,0 1.70814,-0.13924 2.125,-0.625 0.41686,-0.48576 0.53125,-1.2486 0.53125,-2.375 v -56.09375 c 0,-1.37851 -0.23248,-2.30368 -0.6875,-2.875 -0.45502,-0.57132 -1.14073,-0.75 -1.96875,-0.75 h -2.3125 v -4.65625 l 18.875,-1.34375 v 7.875 0.5625 l 0.3125,-0.46875 c 3.20228,-5.04907 7.48533,-8.34375 13.125,-8.34375 z m -50.34375,-0.3125 c -6.06593,0 -11.43556,3.2255 -15.28125,9.625 -3.84569,6.3995 -6.1875,15.9413 -6.1875,28.65625 10e-6,13.9503 2.14776,23.2772 5.90625,29.125 3.75849,5.8478 9.14429,8.21875 15.5625,8.21875 6.09229,0 10.73709,-1.32708 13.65625,-5.03125 2.91916,-3.70417 4.09021,-9.75502 3.34375,-19.1875 v -0.15625 h -0.15625 -5.1875 -0.1875 l 0.0312,0.1875 c 0.18579,7.91866 -0.38744,12.23407 -1.6875,14.53125 -0.65003,1.14859 -1.47397,1.7803 -2.5,2.15625 -1.02603,0.37595 -2.27104,0.46875 -3.71875,0.46875 -2.12288,0 -3.71686,-0.25997 -4.9375,-1.0625 -1.22064,-0.80253 -2.08177,-2.13517 -2.6875,-4.3125 -1.21145,-4.35465 -1.375,-12.05876 -1.375,-25.1875 -1e-5,-0.45735 0,-1.17569 0,-2.0625 h 23.5 0.15625 v -0.15625 c 10e-6,-13.26319 -1.26944,-22.19435 -4.1875,-27.84375 -2.91806,-5.6494 -7.52352,-7.96875 -14.0625,-7.96875 z m 0,0.3125 c 6.46402,0 10.90906,2.2519 13.78125,7.8125 2.85991,5.53682 4.14539,14.38206 4.15625,27.53125 h -23.5 -0.15625 v 0.15625 c 0,0.988 -10e-6,1.72674 0,2.21875 0,13.13126 0.13971,20.80965 1.375,25.25 0.61765,2.22017 1.51305,3.64566 2.8125,4.5 1.29945,0.85434 2.97438,1.15625 5.125,1.15625 1.46129,0 2.72541,-0.10167 3.8125,-0.5 1.08709,-0.39833 2.00553,-1.10746 2.6875,-2.3125 1.35041,-2.38615 1.88869,-6.74394 1.71875,-14.53125 h 4.875 c 0.71572,9.29677 -0.45846,15.23063 -3.28125,18.8125 -2.84009,3.60383 -7.35953,4.875 -13.40625,4.875 -6.34079,0 -11.60774,-2.26705 -15.3125,-8.03125 -3.70476,-5.7642 -5.84374,-15.05106 -5.84375,-28.96875 0,-12.67605 2.32243,-22.17225 6.125,-28.5 3.80257,-6.32775 9.0782,-9.46875 15.03125,-9.46875 z m 0,5.75 c -1.12878,0 -2.06968,0.15251 -2.8125,0.75 -0.74282,0.59749 -1.25742,1.59216 -1.65625,3.28125 -0.79766,3.37817 -1.06398,9.50606 -1.25,20.53125 v 0.15625 h 0.15625 10.03125 0.15625 v -0.15625 c 0,-10.77427 0.12406,-16.8758 -0.375,-20.3125 -0.24953,-1.71835 -0.65153,-2.79447 -1.34375,-3.4375 -0.69222,-0.64303 -1.65221,-0.8125 -2.90625,-0.8125 z m 0,0.3125 c 1.22347,0 2.07969,0.18538 2.6875,0.75 0.60781,0.56462 1.00491,1.53098 1.25,3.21875 0.48722,3.35512 0.37644,9.46963 0.375,20.125 h -9.71875 c 0.18602,-10.89817 0.47306,-16.99086 1.25,-20.28125 0.39079,-1.65504 0.90029,-2.59234 1.5625,-3.125 0.66221,-0.53266 1.49303,-0.6875 2.59375,-0.6875 z m 190,-0.3125 c -1.12878,0 -2.06992,0.15235 -2.8125,0.75 -0.74258,0.59765 -1.25761,1.62311 -1.65625,3.3125 -0.79728,3.37878 -1.06247,9.47331 -1.25,20.5 l -0.0312,0.15625 h 0.1875 10.03125 0.15625 v -0.15625 c 0,-10.77628 0.12482,-16.87529 -0.375,-20.3125 -0.24991,-1.71861 -0.65125,-2.79442 -1.34375,-3.4375 -0.6925,-0.64308 -1.65221,-0.8125 -2.90625,-0.8125 z m 0,0.3125 c 1.22347,0 2.0794,0.1853 2.6875,0.75 0.6081,0.5647 1.00454,1.53073 1.25,3.21875 0.48795,3.3556 0.37643,9.46766 0.375,20.125 h -9.71875 c 0.1875,-10.89967 0.47342,-16.99021 1.25,-20.28125 0.39061,-1.65536 0.90052,-2.59222 1.5625,-3.125 0.66198,-0.53278 1.49303,-0.6875 2.59375,-0.6875 z m -121.25,-29.1875 c -1.06021,0.17686 -2.08128,0.61453 -3.03125,1.40625 -2.27202,1.89175 -3.15167,4.54273 -2.375,7.15625 0.7638,2.5702 3.10402,5.10215 7.15625,6.90625 -1.52581,1.75569 -4.86593,5.07917 -7.65625,7.75 l -0.0937,0.0937 0.0937,0.125 L 526,244.5 l 0.0937,0.0937 0.125,-0.0625 c 6.20265,-4.65237 9.94963,-8.74246 11.625,-12.46875 1.67537,-3.72629 1.25241,-7.11732 -0.8125,-10.3125 -1.1359,-1.76525 -2.97772,-3.19643 -5.03125,-3.8125 -1.02677,-0.30804 -2.12729,-0.39561 -3.1875,-0.21875 z m 0.0625,0.3125 c 1.0069,-0.16743 2.04514,-0.0771 3.03125,0.21875 1.97221,0.59168 3.75064,1.98875 4.84375,3.6875 2.02009,3.12582 2.41938,6.35654 0.78125,10 -1.62721,3.61917 -5.30001,7.62186 -11.40625,12.21875 l -2.875,-3.125 c 2.82429,-2.70795 6.21006,-6.09111 7.6875,-7.8125 l 0.15625,-0.15625 -0.1875,-0.0937 c -4.11939,-1.78347 -6.44568,-4.28502 -7.1875,-6.78125 -0.74182,-2.49623 0.059,-4.98825 2.25,-6.8125 0.90803,-0.75678 1.89935,-1.17632 2.90625,-1.34375 z m 207.875,-1.9375 -0.15625,0.0312 -19.4375,1.46875 L 717,217.625 v 0.125 4.96875 0.15625 h 0.15625 2.71875 c 0.79017,0 1.3147,0.11346 1.625,0.4375 0.3103,0.32404 0.46875,0.90103 0.46875,1.875 v 82.25 c -10e-6,0.92191 -0.0792,1.4831 -0.3125,1.78125 -0.11665,0.14908 -0.28733,0.24352 -0.53125,0.3125 -0.24392,0.069 -0.5741,0.0937 -1,0.0937 h -1.21875 -0.1875 v 0.15625 4.96875 h 0.1875 v 0.15625 h 0.15625 22.75 0.15625 V 314.75 309.78125 309.625 h -0.15625 -2.96875 c -0.78456,0 -1.27903,-0.14406 -1.59375,-0.5 -0.31472,-0.35594 -0.5,-0.9626 -0.5,-1.9375 v -90.90625 z m -0.3125,0.34375 v 90.75 c 0,1.0081 0.16522,1.70694 0.5625,2.15625 0.39728,0.44931 1.01831,0.59375 1.84375,0.59375 h 2.8125 v 4.65625 H 719.0625 v -4.65625 h 1.0625 c 0.4411,0 0.80348,-0.0117 1.09375,-0.0937 0.29027,-0.0821 0.52539,-0.23033 0.6875,-0.4375 0.32421,-0.41435 0.37499,-1.03265 0.375,-1.96875 v -82.25 c 0,-1.00703 -0.16155,-1.67504 -0.5625,-2.09375 -0.40095,-0.41871 -1.02094,-0.53125 -1.84375,-0.53125 h -2.5625 v -4.625 z M 567,217.59375 v 0.15625 4.96875 0.15625 h 0.15625 2.59375 c 0.64267,0 1.18417,0.0567 1.59375,0.1875 0.40958,0.13076 0.7011,0.34459 0.9375,0.6875 0.47279,0.68581 0.65625,1.93616 0.65625,4.15625 v 79.15625 c 10e-6,1.03363 -0.16415,1.6548 -0.625,2.03125 -0.46085,0.37645 -1.27467,0.53125 -2.5625,0.53125 H 567.15625 567 v 0.15625 4.96875 0.15625 h 0.15625 28.125 0.15625 V 314.75 309.78125 309.625 h -0.15625 -2.84375 c -0.64063,0 -1.15411,-0.0476 -1.5625,-0.1875 -0.40839,-0.1399 -0.73206,-0.36703 -0.96875,-0.71875 -0.47337,-0.70344 -0.65625,-1.96661 -0.65625,-4.125 V 268.8125 h 18.5 v 35.78125 c 10e-6,2.15686 -0.22924,3.41968 -0.71875,4.125 -0.24475,0.35266 -0.53398,0.57883 -0.9375,0.71875 -0.40352,0.13992 -0.92105,0.1875 -1.53125,0.1875 h -2.84375 -0.15625 v 0.15625 4.96875 0.15625 h 0.15625 28 0.15625 V 314.75 309.78125 309.625 h -0.15625 -2.5 c -0.64164,0 -1.15394,-0.0476 -1.5625,-0.1875 -0.40856,-0.1399 -0.70107,-0.36706 -0.9375,-0.71875 -0.47286,-0.70338 -0.65625,-1.96656 -0.65625,-4.125 v -76.6875 c 0,-2.22019 0.18525,-3.47054 0.65625,-4.15625 0.2355,-0.34286 0.52858,-0.55677 0.9375,-0.6875 0.40892,-0.13073 0.91957,-0.1875 1.5625,-0.1875 h 2.5 0.15625 v -0.15625 -4.96875 -0.15625 h -0.15625 -28 -0.15625 v 0.15625 4.96875 0.15625 h 0.15625 2.84375 c 0.61155,0 1.12742,0.0568 1.53125,0.1875 0.40383,0.13073 0.69368,0.34365 0.9375,0.6875 0.48765,0.6877 0.71875,1.93759 0.71875,4.15625 v 34.78125 h -18.5 v -34.78125 c 10e-6,-2.22014 0.18475,-3.47047 0.65625,-4.15625 0.23575,-0.34289 0.52876,-0.55677 0.9375,-0.6875 0.40874,-0.13073 0.95183,-0.1875 1.59375,-0.1875 h 2.84375 0.15625 v -0.15625 -4.96875 -0.15625 h -0.15625 -28.125 z m 0.3125,0.34375 h 27.8125 v 4.625 h -2.6875 c -0.65708,0 -1.22624,0.04 -1.6875,0.1875 -0.46126,0.14752 -0.819,0.41289 -1.09375,0.8125 -0.5495,0.79922 -0.71874,2.10589 -0.71875,4.34375 V 262.84375 263 h 0.15625 18.8125 0.15625 v -0.15625 -34.9375 c 0,-2.23934 -0.18465,-3.54646 -0.75,-4.34375 -0.28268,-0.39865 -0.66933,-0.66498 -1.125,-0.8125 -0.45567,-0.14752 -0.99755,-0.1875 -1.625,-0.1875 h -2.6875 v -4.625 h 27.6875 v 4.625 h -2.34375 c -0.65807,0 -1.19479,0.04 -1.65625,0.1875 -0.46146,0.14752 -0.8505,0.41286 -1.125,0.8125 -0.549,0.79929 -0.71875,2.10594 -0.71875,4.34375 v 76.6875 c 0,2.17656 0.17161,3.49863 0.71875,4.3125 0.27357,0.40693 0.66319,0.68562 1.125,0.84375 0.46181,0.15813 0.99689,0.1875 1.65625,0.1875 h 2.34375 v 4.65625 H 601.875 v -4.65625 h 2.6875 c 0.6288,0 1.16902,-0.0294 1.625,-0.1875 0.45598,-0.15811 0.84326,-0.43779 1.125,-0.84375 0.56349,-0.81193 0.75001,-2.13437 0.75,-4.3125 V 268.65625 268.5 h -0.15625 -18.8125 -0.15625 v 0.15625 35.9375 c 0,2.17661 0.17111,3.49869 0.71875,4.3125 0.27382,0.4069 0.63213,0.68562 1.09375,0.84375 0.46162,0.15813 1.02912,0.1875 1.6875,0.1875 h 2.6875 v 4.65625 h -27.8125 v -4.65625 h 2.4375 c 1.31317,0 2.18711,-0.13395 2.75,-0.59375 0.56289,-0.4598 0.78126,-1.20988 0.78125,-2.28125 v -79.15625 c 0,-2.23791 -0.19905,-3.54456 -0.75,-4.34375 -0.27548,-0.39959 -0.63174,-0.66501 -1.09375,-0.8125 -0.46201,-0.14749 -1.02968,-0.1875 -1.6875,-0.1875 h -2.4375 z m -199.96875,-0.34375 v 0.15625 4.96875 0.15625 h 0.1875 1.96875 c 1.1753,0 2.11705,0.6877 2.78125,1.96875 0.6642,1.28105 1.03125,3.16227 1.03125,5.4375 V 302.125 c -10e-6,2.21173 -0.36557,4.10772 -1.03125,5.4375 -0.66568,1.32978 -1.61189,2.0625 -2.78125,2.0625 h -1.96875 -0.1875 v 0.15625 4.96875 0.15625 h 0.1875 19.3125 H 387 V 314.75 309.78125 309.625 h -0.15625 -2.96875 c -1.30174,0 -2.241,-0.7347 -2.875,-2.0625 -0.634,-1.3278 -0.9375,-3.22276 -0.9375,-5.4375 v -60.53125 l 15.28125,73.0625 0.0312,0.125 h 0.125 7.4375 0.125 l 0.0312,-0.125 L 418.375,241.5 v 61.84375 c 0,2.22114 -0.1809,3.83381 -0.65625,4.84375 -0.47535,1.00994 -1.1785,1.4375 -2.375,1.4375 h -3.46875 -0.1875 v 0.15625 4.96875 0.15625 h 0.1875 27.84375 0.15625 V 314.75 309.78125 309.625 h -0.15625 -2.09375 c -1.19649,0 -1.93186,-0.42756 -2.40625,-1.4375 -0.47439,-1.00994 -0.65625,-2.62256 -0.65625,-4.84375 v -74.1875 c -10e-6,-2.22017 0.18175,-3.80306 0.65625,-4.8125 0.4745,-1.00944 1.21025,-1.46875 2.40625,-1.46875 h 2.09375 0.15625 v -0.15625 -4.96875 -0.15625 h -0.15625 -23.28125 -0.125 l -0.0312,0.125 -11.96875,60.4375 -12.75,-60.4375 v -0.125 h -0.15625 -23.875 z m 0.34375,0.34375 h 23.625 l 12.84375,60.96875 v 0.0625 h 0.3125 v -0.0625 L 416.5625,217.9375 h 23 v 4.625 h -1.9375 c -1.281,0 -2.17275,0.52994 -2.6875,1.625 -0.51475,1.09506 -0.68751,2.73093 -0.6875,4.96875 v 74.1875 c 0,2.23881 0.17289,3.87319 0.6875,4.96875 0.51461,1.09556 1.406,1.625 2.6875,1.625 h 1.9375 v 4.65625 h -27.53125 v -4.65625 h 3.3125 c 1.2815,0 2.1406,-0.52945 2.65625,-1.625 0.51565,-1.09555 0.71875,-2.7299 0.71875,-4.96875 v -63.5 -0.0312 h -0.15625 l -0.15625,-0.0312 v 0.0312 h -0.0312 v 0.125 l -15.5625,74.53125 H 395.625 l -15.5625,-74.4063 v -0.0312 l -0.15625,0.0312 H 379.75 v 0.0312 62.03125 c 0,2.24426 0.3015,4.16505 0.96875,5.5625 0.66725,1.39745 1.729,2.25 3.15625,2.25 h 2.8125 v 4.65625 h -19 v -4.6562 H 369.5 c 1.30764,0 2.36393,-0.85453 3.0625,-2.25 0.69857,-1.39547 1.06249,-3.31524 1.0625,-5.5625 v -71.84375 c 0,-2.30977 -0.3627,-4.24405 -1.0625,-5.59375 -0.6998,-1.3497 -1.7598,-2.125 -3.0625,-2.125 h -1.8125 z m 387.625,4.625 -0.0312,0.0937 c -2.8493,8.60286 -4.91519,13.41436 -6.84375,16.03125 -1.92856,2.61689 -3.67091,3.0625 -6,3.0625 h -1.5 -0.15625 v 0.15625 5.34375 0.15625 h 0.15625 4.8125 V 299.75 c 10e-6,5.88927 0.38399,9.98442 2.28125,12.625 1.89726,2.64058 5.28463,3.78125 11.125,3.78125 3.80116,0 6.99576,-0.84064 9.25,-3.03125 2.25424,-2.19061 3.53125,-5.71344 3.53125,-11.125 v -10.53125 -0.15625 h -0.15625 -5.3125 -0.1875 v 0.15625 11.625 c 0,2.15991 -0.15099,3.66497 -0.59375,4.59375 -0.44276,0.92878 -1.14187,1.3125 -2.34375,1.3125 -1.20189,0 -1.83843,-0.38318 -2.25,-1.25 -0.41157,-0.86682 -0.5625,-2.2411 -0.5625,-4.15625 v -56.0625 h 11 0.15625 V 247.375 241.90625 241.75 h -0.15625 -10.875 V 222.71875 222.5625 H 760.5 755.4375 Z m 0.25,0.3125 h 4.78125 v 19.03125 0.15625 H 760.5 771.375 v 5.15625 h -11 -0.15625 v 0.15625 56.21875 c 0,1.92885 0.13833,3.35332 0.59375,4.3125 0.45542,0.95918 1.25512,1.40625 2.53125,1.40625 1.27612,0 2.13876,-0.44878 2.625,-1.46875 0.48624,-1.01997 0.65625,-2.57491 0.65625,-4.75 V 291.625 h 5 V 302 c 0,5.36144 -1.26349,8.79361 -3.4375,10.90625 -2.17401,2.11264 -5.27539,2.90625 -9.03125,2.90625 -5.79963,0 -9.05725,-1.09508 -10.875,-3.625 -1.81775,-2.52992 -2.21874,-6.56278 -2.21875,-12.4375 v -52.5 -0.15625 h -0.15625 -4.8125 v -5.03125 h 1.34375 c 2.37391,0 4.27631,-0.50939 6.25,-3.1875 1.96215,-2.66245 4.048,-7.4814 6.875,-16 z m -64.21875,17.65625 c -6.60212,0 -11.77003,2.29888 -14.6875,5.78125 -2.91747,3.48237 -3.56644,8.14934 -1.0625,12.78125 1.0708,1.95144 2.67156,3.21056 4.4375,3.65625 1.76594,0.44569 3.70341,0.0741 5.46875,-1.25 1.83711,-1.39316 2.93188,-3.56546 2.375,-5.96875 -0.54512,-2.35253 -2.68455,-4.88797 -7.09375,-7.15625 0.61864,-0.48493 1.65004,-0.98676 2.90625,-1.34375 1.34955,-0.38352 2.84481,-0.625 4.0625,-0.625 1.78663,0 3.14146,0.1609 4.125,0.5 0.98354,0.3391 1.6012,0.85079 2.03125,1.5625 0.86009,1.42343 0.875,3.718 0.875,7.0625 0,0.98808 0,10.63606 0,12.5625 -8.83743,3.01045 -14.86353,5.33294 -18.65625,9.34375 -3.81463,4.03398 -5.375,9.72859 -5.375,19.34375 -10e-4,7.45288 1.4269,12.29857 3.71875,15.28125 2.29185,2.98268 5.4643,4.09375 8.84375,4.09375 3.69186,0 6.4486,-1.33995 8.53125,-3.125 1.98153,-1.69839 3.29603,-3.78497 4.28125,-5.59375 0.60299,2.67828 1.31065,4.8581 2.78125,6.34375 1.53921,1.55497 3.88733,2.375 7.6875,2.375 4.36589,0 7.1107,-1.35093 8.71875,-3.96875 1.60805,-2.61782 2.09375,-6.47363 2.09375,-11.5625 v -0.15625 H 717.25 712.78125 712.625 v 0.15625 c -10e-6,3.65218 -0.058,5.65684 -0.3125,6.71875 -0.12728,0.53096 -0.29223,0.81558 -0.5,0.96875 -0.20777,0.15317 -0.4858,0.21875 -0.875,0.21875 -0.36146,0 -0.61231,-0.058 -0.78125,-0.15625 -0.16894,-0.0983 -0.28845,-0.25311 -0.375,-0.5625 -0.17311,-0.61879 -0.1875,-1.79975 -0.1875,-3.84375 V 258.875 c 10e-6,-7.27412 -1.97228,-11.88026 -5.25,-14.65625 -3.27772,-2.77599 -7.84029,-3.6875 -13,-3.6875 z m 0,0.3125 c 5.12129,0 9.61948,0.92074 12.8125,3.625 3.19302,2.70426 5.12501,7.18937 5.125,14.40625 v 45.09375 c 0,2.044 -0.0119,3.22479 0.1875,3.9375 0.0997,0.35636 0.28113,0.60448 0.53125,0.75 0.25012,0.14552 0.55395,0.1875 0.9375,0.1875 0.4138,0 0.77152,-0.0667 1.0625,-0.28125 0.29098,-0.21452 0.48877,-0.55671 0.625,-1.125 0.26622,-1.11058 0.30981,-3.15727 0.3125,-6.65625 h 4.15625 c -0.0116,4.97999 -0.53114,8.75703 -2.0625,11.25 -1.54946,2.52243 -4.13542,3.78125 -8.4375,3.78125 -3.75483,0 -6.00396,-0.77022 -7.46875,-2.25 -1.46479,-1.47978 -2.16347,-3.69068 -2.78125,-6.53125 L 696.25,306.59375 696.03125,307 c -0.98672,1.84997 -2.37039,4.06755 -4.40625,5.8125 -2.03586,1.74495 -4.69633,3 -8.3125,3 -3.31055,0 -6.3646,-1.03643 -8.59375,-3.9375 -2.22915,-2.90107 -3.62599,-7.68164 -3.625,-15.09375 0,-9.58084 1.53963,-15.16823 5.28125,-19.125 3.74162,-3.95677 9.70964,-6.31032 18.625,-9.34375 l 0.0937,-0.0312 v -0.125 c 0,-1.858 0,-11.632 0,-12.625 0,-3.3445 0.0299,-5.66943 -0.90625,-7.21875 -0.46808,-0.77466 -1.18151,-1.32988 -2.21875,-1.6875 -1.03724,-0.35762 -2.41288,-0.53125 -4.21875,-0.53125 -1.26031,0 -2.7813,0.23427 -4.15625,0.625 -1.37495,0.39073 -2.58969,0.9406 -3.25,1.53125 l -0.15625,0.15625 0.1875,0.0937 c 4.55657,2.28003 6.66064,4.82003 7.1875,7.09375 0.52686,2.27372 -0.49114,4.32242 -2.25,5.65625 -1.69966,1.27487 -3.54843,1.60906 -5.21875,1.1875 -1.67032,-0.42156 -3.18355,-1.61343 -4.21875,-3.5 -2.45106,-4.53409 -1.81103,-9.04487 1.03125,-12.4375 2.84228,-3.39263 7.90962,-5.65625 14.4375,-5.65625 z m -41.28125,-0.3125 c -6.06247,0 -11.43469,3.22551 -15.28125,9.625 -3.84656,6.39949 -6.1875,15.94129 -6.1875,28.65625 5.2e-4,13.95031 2.14727,23.27721 5.90625,29.125 3.75898,5.84779 9.14677,8.21875 15.5625,8.21875 6.09228,0 10.73709,-1.32708 13.65625,-5.03125 2.91916,-3.70417 4.09021,-9.75502 3.34375,-19.1875 v -0.15625 h -0.15625 -5.1875 -0.15625 v 0.1875 c 0.1853,7.91867 -0.38794,12.23409 -1.6875,14.53125 -0.64978,1.14858 -1.47372,1.78029 -2.5,2.15625 -1.02628,0.37596 -2.26979,0.46875 -3.71875,0.46875 -2.12287,0 -3.71695,-0.25997 -4.9375,-1.0625 -1.22055,-0.80253 -2.08189,-2.13517 -2.6875,-4.3125 -1.21121,-4.35466 -1.375,-12.05875 -1.375,-25.1875 -2e-5,-0.45734 0,-1.17569 0,-2.0625 h 23.5 0.15625 v -0.15625 c 0,-13.26319 -1.27007,-22.19434 -4.1875,-27.84375 -2.91743,-5.64941 -7.52203,-7.96875 -14.0625,-7.96875 z m 0,0.3125 c 6.46553,0 10.90968,2.2519 13.78125,7.8125 2.85929,5.53681 4.14539,14.38205 4.15625,27.53125 h -23.5 -0.15625 v 0.15625 c 0,0.988 -3e-5,1.72673 0,2.21875 0,13.13125 0.13996,20.80966 1.375,25.25 0.61752,2.22017 1.51314,3.64565 2.8125,4.5 1.29936,0.85435 2.97438,1.15625 5.125,1.15625 1.46254,0 2.72515,-0.10167 3.8125,-0.5 1.08735,-0.39833 2.00578,-1.10746 2.6875,-2.3125 1.34991,-2.38617 1.88823,-6.74396 1.71875,-14.53125 h 4.875 c 0.71572,9.29677 -0.45847,15.23063 -3.28125,18.8125 -2.84009,3.60383 -7.35953,4.875 -13.40625,4.875 -6.33827,0 -11.60724,-2.26704 -15.3125,-8.03125 -3.70526,-5.76421 -5.84324,-15.05107 -5.84375,-28.96875 0,-12.67604 2.32156,-22.17224 6.125,-28.5 3.80344,-6.32776 9.08172,-9.46875 15.03125,-9.46875 z m -104.4375,-0.3125 c -4.3074,0 -8.41531,1.35347 -11.4375,4.25 -3.02219,2.89653 -4.96875,7.30425 -4.96875,13.34375 0,5.65512 0.95908,9.65185 2.96875,13.375 2.00967,3.72315 5.06906,7.16928 9.21875,11.875 3.59356,4.08869 6.27887,7.04276 8.0625,9.78125 1.78363,2.73849 2.65625,5.27827 2.65625,8.59375 10e-6,2.64871 -0.37365,4.66804 -1.40625,6.03125 -1.0326,1.36321 -2.7096,2.09375 -5.46875,2.09375 -2.33033,0 -4.23454,-0.52151 -5.75,-2.21875 -1.51546,-1.69724 -2.6671,-4.5882 -3.40625,-9.28125 l -0.96875,-6.4375 -0.0312,-0.15625 h -0.125 -5.46875 -0.15625 v 0.1875 22.78125 0.15625 h 0.15625 4.59375 0.125 l 0.0312,-0.125 c 0.24458,-1.16075 0.66404,-2.29963 1.15625,-3.03125 0.2461,-0.36581 0.5089,-0.62838 0.75,-0.75 0.2411,-0.12162 0.45176,-0.1264 0.6875,0.0312 1.64723,1.88559 5.40333,5.125 11.5,5.125 5.36036,0 9.55685,-1.83688 12.40625,-5.03125 2.8494,-3.19437 4.34375,-7.73975 4.34375,-13.21875 0,-5.71649 -1.00629,-9.84036 -3.03125,-13.65625 -2.02496,-3.81589 -5.06763,-7.32301 -9.15625,-11.84375 -3.90008,-4.27357 -6.57563,-7.20137 -8.28125,-9.9375 -1.70562,-2.73613 -2.4375,-5.27464 -2.4375,-8.78125 0,-2.02728 0.32442,-3.66373 1.21875,-4.78125 0.89433,-1.11752 2.36336,-1.75 4.6875,-1.75 2.33049,0 4.12883,0.45641 5.46875,1.78125 1.33992,1.32484 2.22693,3.55115 2.65625,7.125 l 0.875,6.9375 0.0312,0.125 h 0.125 5.4375 0.1875 v -0.15625 -21.0625 -0.15625 h -0.1875 -4.4375 -0.15625 v 0.15625 c -0.12228,1.30282 -0.19257,2.30797 -0.3125,2.9375 -0.06,0.31476 -0.14764,0.54169 -0.21875,0.625 -0.0356,0.0417 -0.0634,0.0583 -0.0937,0.0625 -0.0245,0.003 -0.0726,-0.0102 -0.125,-0.0312 -0.003,-0.003 -0.0283,0.003 -0.0312,0 -1.12136,-1.00073 -5.4428,-4.96875 -11.6875,-4.96875 z m 0,0.3125 c 6.12497,0 10.4165,3.9119 11.53125,4.90625 l 0.0312,0.0312 c 0.1123,0.0562 0.23017,0.0782 0.34375,0.0625 0.11358,-0.0157 0.20795,-0.0704 0.28125,-0.15625 0.14661,-0.17175 0.21734,-0.44576 0.28125,-0.78125 0.1225,-0.64303 0.20058,-1.6229 0.3125,-2.84375 h 4.125 v 20.75 H 557.375 L 556.53125,256 c -0.43368,-3.61015 -1.33391,-5.88109 -2.75,-7.28125 -1.41609,-1.40016 -3.315,-1.875 -5.6875,-1.875 -2.38286,0 -3.97358,0.67052 -4.9375,1.875 -0.96392,1.20448 -1.28125,2.90603 -1.28125,4.96875 0,3.55139 0.73788,6.16087 2.46875,8.9375 1.73087,2.77663 4.44382,5.72659 8.34375,10 4.08638,4.51826 7.09295,8.01089 9.09375,11.78125 2.0008,3.77036 3,7.82049 3,13.5 0,5.421 -1.49541,9.90813 -4.28125,13.03125 -2.78584,3.12312 -6.86763,4.875 -12.15625,4.875 -6.01359,0 -9.68591,-3.16362 -11.28125,-5 l -0.0312,-0.0312 c -0.31976,-0.21385 -0.68101,-0.22341 -1,-0.0625 -0.31899,0.16091 -0.61073,0.45093 -0.875,0.84375 -0.50681,0.75333 -0.90078,1.89033 -1.15625,3.03125 H 529.6563 V 292.125 h 5.1875 l 0.9375,6.28125 c 0.74385,4.72295 1.8872,7.66624 3.46875,9.4375 1.58155,1.77126 3.61936,2.34374 6,2.34375 2.81585,0 4.64784,-0.76371 5.75,-2.21875 1.10216,-1.45504 1.46876,-3.54045 1.46875,-6.21875 0,-3.37252 -0.91214,-6.00749 -2.71875,-8.78125 -1.80661,-2.77376 -4.50228,-5.69493 -8.09375,-9.78125 -4.14931,-4.70528 -7.20242,-8.16615 -9.1875,-11.84375 -1.98508,-3.6776 -2.9375,-7.59985 -2.9375,-13.21875 0,-5.9715 1.92044,-10.26203 4.875,-13.09375 2.95456,-2.83172 6.97917,-4.1875 11.21875,-4.1875 z M 695.09375,271.875 694.875,272 c -4.34206,2.42065 -6.83748,4.22027 -8.21875,7.46875 -1.38127,3.24848 -1.65624,7.88338 -1.65625,16.0625 0,4.64713 0.0847,7.64419 0.6875,9.5 0.3014,0.92791 0.74696,1.58743 1.375,2 0.62804,0.41257 1.42906,0.5625 2.4375,0.5625 2.33604,0 3.78322,-1.00337 4.59375,-2.65625 0.81053,-1.65288 1.00001,-3.92039 1,-6.53125 V 272.125 Z m -0.3125,0.5625 v 25.96875 c 10e-6,2.59314 -0.20003,4.83863 -0.96875,6.40625 -0.76872,1.56762 -2.06554,2.46875 -4.3125,2.46875 -0.97354,0 -1.69342,-0.16563 -2.25,-0.53125 -0.55658,-0.36562 -0.96291,-0.92866 -1.25,-1.8125 -0.57418,-1.76768 -0.6875,-4.76338 -0.6875,-9.40625 10e-6,-8.17187 0.28103,-12.77673 1.625,-15.9375 1.31183,-3.08518 3.70778,-4.83108 7.84375,-7.15625 z"
         style="fill:#e2001a;fill-opacity:1;stroke:none;stroke-width:0.319;stroke-opacity:1"
         id="path41" />
    </g>
  </g>
</svg>
