<?xml version="1.0" encoding="UTF-8"?>
<svg fill="#371534" version="1.1" viewBox="0 0 109 26.795" xmlns="http://www.w3.org/2000/svg">
    <path d="m96.477 21.795c4.772 0 7.523-1.283 7.523-4.308 0-2.039-1.599-3.39-5.454-3.712l-2.704-0.229c-1.223-0.114-1.763-0.39-1.763-0.962 0-0.619 0.823-0.94 2.163-0.94 1.692 0 2.304 0.367 2.492 1.192l4.796-0.115c-0.423-2.383-2.775-3.666-7.1-3.666-4.796 0-6.936 1.581-6.936 4.01 0 2.085 1.599 3.3 5.29 3.643l2.774 0.252c1.058 0.092 1.646 0.367 1.646 1.009 0 0.71-0.776 1.123-2.492 1.123-1.81 0-2.469-0.505-2.68-1.444l-4.914 0.114c0.33 2.475 2.469 4.033 7.359 4.033zm-88.727-0.16c1.529 0 2.775-1.192 2.775-2.658 0-1.444-1.246-2.681-2.774-2.681-1.552 0-2.751 1.237-2.751 2.68 0 1.467 1.199 2.659 2.75 2.659zm9.732-0.321v-6.53c0-1.421 1.035-2.36 2.469-2.36 1.081 0 1.88 0.801 1.88 1.833v7.057h5.173v-6.53c0-1.398 1.081-2.36 2.421-2.36 1.082 0 1.952 0.641 1.952 1.833v7.057h5.172v-7.768c0-2.864-2.304-4.4-5.384-4.4-2.092 0-3.762 0.688-4.89 2.017-0.893-1.329-2.351-2.016-4.514-2.016-1.904 0-3.409 0.618-4.467 1.856l-0.118-1.512h-4.866v11.823zm28.966 0.435c4.42 0 8.346-2.268 8.346-6.278 0-4.056-3.785-6.37-8.346-6.37-4.467 0-8.346 2.223-8.346 6.37 0 4.01 3.879 6.278 8.346 6.278zm-0.024-3.276c-1.74 0-3.103-1.375-3.103-3.048 0-1.65 1.364-3.047 3.103-3.047 1.74 0 3.15 1.397 3.15 3.047 0 1.673-1.41 3.048-3.15 3.048zm15.094 2.841v-6.301c0-1.581 1.152-2.475 2.703-2.475 1.317 0 2.116 0.71 2.116 1.879v6.897h5.173v-7.836c0-2.819-2.398-4.308-5.478-4.308-2.046 0-3.597 0.664-4.655 1.947l-0.188-1.626h-4.843v11.823zm27.772-11.823h-6.23l-2.35 2.016-2.14 1.97 0.047-2.497v-5.98h-5.172v16.314h5.172v-3.689l1.246-0.917 1.105 1.421 2.539 3.185h6.3l-6.441-7.057z"/>
</svg>
