<?xml version="1.0" encoding="UTF-8" standalone="no"?>
<svg
   width="150.03999"
   height="19.767593"
   viewBox="0 0 150.03999 19.767593"
   fill="none"
   version="1.1"
   id="svg24"
   sodipodi:docname="monks-technology-services.svg"
   inkscape:version="1.4 (e7c3feb1, 2024-10-09)"
   xmlns:inkscape="http://www.inkscape.org/namespaces/inkscape"
   xmlns:sodipodi="http://sodipodi.sourceforge.net/DTD/sodipodi-0.dtd"
   xmlns="http://www.w3.org/2000/svg"
   xmlns:svg="http://www.w3.org/2000/svg">
  <defs
     id="defs24" />
  <sodipodi:namedview
     id="namedview24"
     pagecolor="#ffffff"
     bordercolor="#000000"
     borderopacity="0.25"
     inkscape:showpageshadow="2"
     inkscape:pageopacity="0.0"
     inkscape:pagecheckerboard="0"
     inkscape:deskcolor="#d1d1d1"
     inkscape:zoom="5.8831284"
     inkscape:cx="63.316653"
     inkscape:cy="0.50993278"
     inkscape:window-width="1512"
     inkscape:window-height="945"
     inkscape:window-x="0"
     inkscape:window-y="37"
     inkscape:window-maximized="0"
     inkscape:current-layer="svg24" />
  <g
     id="g24"
     transform="scale(0.09883797)">
    <path
       d="m 29.8131,198.092 c -5.436,0 -10.4472,-1.365 -15.0339,-4.093 C 10.1926,191.088 6.54016,187.268 3.82216,182.539 1.27403,177.628 0,172.261 0,166.441 c 0,-5.639 1.27403,-10.915 3.82216,-15.826 2.718,-4.911 6.37044,-8.822 10.95704,-11.733 4.5867,-2.91 9.5979,-4.365 15.0339,-4.365 5.436,0 10.4473,1.455 15.0339,4.365 4.5866,2.911 8.239,6.822 10.957,11.733 2.718,4.911 4.077,10.187 4.077,15.826 0,5.639 -1.359,10.914 -4.077,15.825 -2.718,4.911 -6.3704,8.822 -10.957,11.733 -4.5866,2.728 -9.5979,4.093 -15.0339,4.093 z"
       fill="#1a1a1a"
       id="path1" />
    <path
       d="M 79.2263,194.27 V 53.4782 h 52.7457 l 1.275,18.0083 c 11.551,-14.7341 27.689,-22.1011 48.414,-22.1011 11.552,0 21.319,2.0009 29.303,6.0028 8.154,4.0018 14.695,10.0046 19.621,18.0082 6.115,-7.8217 13.59,-13.7336 22.424,-17.7354 9.003,-4.1837 19.195,-6.2756 30.577,-6.2756 11.212,0 21.234,2.0009 30.068,6.0028 8.833,4.0018 15.713,10.0046 20.64,18.0082 5.096,7.8218 7.644,17.2807 7.644,28.3766 v 92.497 h -56.059 v -84.038 c 0,-6.913 -2.038,-12.2788 -6.115,-16.0988 -3.907,-3.8199 -8.919,-5.7299 -15.034,-5.7299 -4.757,0 -9.173,1.1824 -13.25,3.5472 -4.077,2.3647 -7.305,5.7298 -9.683,10.0955 -2.209,4.184 -3.313,9.004 -3.313,14.461 v 77.763 h -56.059 v -84.038 c 0,-4.002 -0.934,-7.64 -2.803,-10.9145 -1.698,-3.4562 -4.077,-6.0938 -7.134,-7.9128 -3.058,-2.0009 -6.54,-3.0014 -10.448,-3.0014 -5.096,0 -9.682,1.1824 -13.759,3.5472 -4.077,2.3647 -7.305,5.6389 -9.683,9.8225 -2.209,4.184 -3.313,9.095 -3.313,14.734 v 77.763 z"
       fill="#1a1a1a"
       id="path2" />
    <path
       d="m 449.226,199.454 c -16.478,0 -31.597,-2.911 -45.357,-8.731 -13.76,-6.003 -24.716,-14.644 -32.87,-25.922 -8.154,-11.277 -12.231,-24.647 -12.231,-40.109 0,-15.825 4.077,-29.468 12.231,-40.9278 8.154,-11.4598 19.11,-20.1001 32.87,-25.921 13.76,-6.0028 28.879,-9.0042 45.357,-9.0042 16.648,0 31.851,3.0014 45.611,9.0042 13.76,6.0028 24.632,14.7341 32.616,26.1939 8.154,11.4598 12.231,25.0119 12.231,40.6549 0,15.28 -4.161,28.65 -12.485,40.109 -8.154,11.278 -19.111,19.919 -32.871,25.922 -13.76,5.82 -28.794,8.731 -45.102,8.731 z m -0.255,-39.018 c 6.116,0 11.806,-1.637 17.073,-4.912 5.266,-3.274 9.428,-7.639 12.485,-13.096 3.058,-5.639 4.587,-11.733 4.587,-18.282 0,-6.366 -1.529,-12.369 -4.587,-18.008 -3.057,-5.639 -7.219,-10.0954 -12.485,-13.3697 -5.267,-3.2742 -10.957,-4.9113 -17.073,-4.9113 -6.115,0 -11.806,1.6371 -17.072,4.9113 -5.097,3.2743 -9.174,7.7307 -12.231,13.3697 -2.888,5.457 -4.332,11.46 -4.332,18.008 0,6.549 1.444,12.643 4.332,18.282 3.057,5.457 7.134,9.822 12.231,13.096 5.266,3.275 10.957,4.912 17.072,4.912 z"
       fill="#1a1a1a"
       id="path3" />
    <path
       d="M 556.502,194.27 V 53.4779 h 52.491 l 2.039,19.3726 c 11.551,-15.4617 28.369,-23.1925 50.453,-23.1925 11.381,0 21.489,2.0009 30.322,6.0027 9.004,3.8199 16.054,9.6408 21.15,17.4626 5.266,7.6399 7.899,16.9169 7.899,27.8307 v 93.316 h -56.059 v -82.129 c 0,-6.912 -2.038,-12.3691 -6.115,-16.3709 -4.077,-4.0019 -9.683,-6.0028 -16.818,-6.0028 -5.606,0 -10.617,1.1824 -15.034,3.5471 -4.417,2.3648 -7.899,5.7299 -10.447,10.0956 -2.548,4.366 -3.822,9.641 -3.822,15.825 v 75.035 z"
       fill="#1a1a1a"
       id="path4" />
    <path
       d="m 913.572,53.4791 -64.212,56.7539 69.818,84.038 h -68.289 l -27.52,-37.926 -11.976,-16.917 -13.505,10.914 v 43.929 H 741.829 V 0 h 56.059 v 71.2146 l -0.51,29.7414 23.188,-23.4658 25.481,-24.0111 z"
       fill="#1a1a1a"
       id="path5" />
    <path
       d="m 991.46,200 c -49.264,0 -75.851,-16.007 -79.758,-48.022 l 53.258,-1.364 c 1.189,5.82 3.907,10.186 8.154,13.097 4.415,2.728 11.381,4.092 20.894,4.092 9.172,0 15.972,-1.091 20.382,-3.274 4.42,-2.365 6.63,-5.73 6.63,-10.095 0,-3.639 -1.53,-6.367 -4.59,-8.186 -2.89,-2.001 -7.3,-3.274 -13.25,-3.82 l -30.066,-3.001 c -19.706,-2.001 -34.232,-6.549 -43.575,-13.643 -9.173,-7.276 -13.758,-17.19 -13.758,-29.7409 0,-14.916 6.2,-26.5577 18.601,-34.9252 12.571,-8.5494 31.427,-12.8241 56.568,-12.8241 23.27,0 41.28,3.729 54.02,11.187 12.91,7.276 20.56,18.0992 22.93,32.4695 l -51.98,1.3642 c -1.02,-5.0932 -3.57,-8.7313 -7.64,-10.9141 -3.91,-2.1828 -10.365,-3.2742 -19.368,-3.2742 -7.305,0 -13.082,1.0004 -17.329,3.0013 -4.077,1.819 -6.114,4.5476 -6.114,8.1856 0,3.4562 1.529,6.0937 4.587,7.9128 3.058,1.6371 7.897,2.8191 14.524,3.5471 l 29.3,2.728 c 39.41,3.639 59.12,18.373 59.12,44.203 0,17.644 -6.96,30.65 -20.89,39.018 -13.94,8.185 -34.15,12.278 -60.65,12.278 z"
       fill="#1a1a1a"
       id="path6" />
    <rect
       x="1111.04"
       y="59"
       width="406"
       height="140"
       rx="70"
       stroke="#1a1a1a"
       stroke-width="2"
       id="rect6" />
    <path
       d="m 1380.52,177.223 c -7.7,0 -12.22,-3.012 -12.61,-9.873 h 5.58 c 0.45,4.016 2.4,5.466 7.08,5.466 4.52,0 6.36,-1.45 6.36,-4.016 0,-2.287 -1.39,-3.403 -6.13,-4.239 l -2.96,-0.558 c -6.19,-1.116 -9.15,-3.905 -9.15,-8.59 0,-5.076 4.02,-8.367 11.1,-8.367 8.2,0 11.99,3.57 12.16,9.65 h -5.41 c -0.22,-4.128 -2.68,-5.299 -6.75,-5.299 -3.62,0 -5.58,1.45 -5.58,3.848 0,2.455 1.96,3.403 5.36,4.072 l 3.01,0.502 c 7.03,1.339 9.99,3.793 9.99,8.59 0,5.634 -4.52,8.814 -12.05,8.814 z"
       fill="#1a1a1a"
       id="path7" />
    <path
       d="m 1351.53,177.167 c -8.15,0 -13.78,-5.801 -13.78,-15.061 0,-9.036 5.46,-15.06 13.66,-15.06 8.71,0 13.67,6.638 13.67,15.283 v 1.618 h -21.7 c 0.5,5.857 3.68,8.534 8.26,8.534 3.73,0 6.13,-1.896 7.14,-4.797 h 5.57 c -1.39,5.578 -5.91,9.483 -12.82,9.483 z m -8.04,-17.626 h 15.84 c -0.5,-4.463 -3.23,-7.81 -7.92,-7.81 -4.18,0 -7.25,2.566 -7.92,7.81 z"
       fill="#1a1a1a"
       id="path8" />
    <path
       d="m 1321.78,177.167 c -8.14,0 -13.72,-5.857 -13.72,-15.061 0,-9.203 5.47,-15.06 13.72,-15.06 7.14,0 11.94,4.183 12.83,10.71 h -5.69 c -0.78,-4.017 -3.73,-5.857 -7.14,-5.857 -4.57,0 -7.92,3.235 -7.92,10.207 0,6.973 3.46,10.208 7.92,10.208 3.46,0 6.53,-1.896 7.2,-6.08 h 5.69 c -0.89,6.805 -6.03,10.933 -12.89,10.933 z"
       fill="#1a1a1a"
       id="path9" />
    <path
       d="m 1303.21,144.031 h -5.74 v -5.913 h 5.74 z m -0.05,32.463 h -5.58 v -28.782 h 5.58 z"
       fill="#1a1a1a"
       id="path10" />
    <path
       d="m 1284.76,158.254 3.85,-10.542 h 5.91 l -11.04,28.782 h -6.19 l -10.99,-28.782 h 6.02 l 3.91,10.542 c 1.39,4.128 2.95,8.646 4.24,12.83 1.34,-4.184 2.9,-8.702 4.29,-12.83 z"
       fill="#1a1a1a"
       id="path11" />
    <path
       d="m 1262.89,147.262 c 0.5,0 1,0 1.62,0.055 v 5.3 h -1.4 c -5.52,0 -8.98,2.733 -8.98,8.255 v 15.618 h -5.58 v -28.782 h 5.36 v 5.132 c 1.56,-3.124 4.41,-5.578 8.98,-5.578 z"
       fill="#1a1a1a"
       id="path12" />
    <path
       d="m 1230.05,177.167 c -8.14,0 -13.77,-5.801 -13.77,-15.061 0,-9.036 5.46,-15.06 13.66,-15.06 8.7,0 13.67,6.638 13.67,15.283 v 1.618 h -21.7 c 0.5,5.857 3.68,8.534 8.25,8.534 3.74,0 6.14,-1.896 7.14,-4.797 h 5.58 c -1.39,5.578 -5.91,9.483 -12.83,9.483 z m -8.03,-17.626 h 15.84 c -0.5,-4.463 -3.23,-7.81 -7.92,-7.81 -4.18,0 -7.25,2.566 -7.92,7.81 z"
       fill="#1a1a1a"
       id="path13" />
    <path
       d="m 1196.89,177.39 c -9.99,0 -16.63,-4.407 -16.68,-14.001 h 5.97 c 0.11,6.861 4.79,8.925 10.71,8.925 5.97,0 9.26,-2.287 9.26,-6.638 0,-3.514 -2.35,-5.132 -8.98,-6.582 l -3.41,-0.725 c -7.19,-1.45 -12.38,-4.518 -12.38,-11.714 0,-6.47 5.24,-10.765 14.06,-10.765 11.43,0 15.62,5.633 15.78,12.55 h -5.91 c -0.33,-4.685 -2.62,-7.474 -9.82,-7.474 -5.35,0 -8.03,2.175 -8.03,5.578 0,3.514 1.84,5.187 8.65,6.693 l 3.45,0.725 c 9.26,1.953 12.78,5.522 12.78,11.547 0,7.362 -5.75,11.881 -15.45,11.881 z"
       fill="#1a1a1a"
       id="path14" />
    <path
       d="m 1455.74,101.807 3.35,-9.8734 h 5.91 l -11.71,32.4084 c -2.01,5.745 -5.02,7.474 -10.66,7.474 -1.11,0 -2.06,-0.056 -2.9,-0.112 v -4.518 h 2.79 c 2.79,0 4.18,-1.227 5.02,-3.458 0.28,-0.725 0.5,-1.45 0.78,-2.231 l -10.65,-29.5634 h 6.08 l 3.34,9.8734 c 1.51,4.573 2.96,9.203 4.3,13.777 1.39,-4.574 2.84,-9.204 4.35,-13.777 z"
       fill="#1a1a1a"
       id="path15" />
    <path
       d="M 1429.19,96.0079 V 91.936 h 5.36 v 27.722 c 0,7.531 -4.52,12.662 -13.72,12.662 -7.81,0 -12.16,-3.848 -12.72,-9.594 h 5.58 c 0.44,3.403 2.95,5.076 7.19,5.076 5.25,0 8.09,-2.733 8.09,-8.032 v -3.179 c -2.06,2.844 -5.19,4.462 -9.26,4.462 -7.97,0 -13.22,-5.913 -13.22,-14.893 0,-9.0365 5.19,-14.8934 13.17,-14.8934 4.24,0 7.47,1.7849 9.53,4.7413 z m -8.47,20.2481 c 5.13,0 8.42,-3.682 8.42,-10.096 0,-6.4149 -3.29,-10.0964 -8.42,-10.0964 -5.14,0 -8.43,3.9046 -8.43,10.0964 0,6.247 3.29,10.096 8.43,10.096 z"
       fill="#1a1a1a"
       id="path16" />
    <path
       d="m 1388.69,121.388 c -8.43,0 -14.28,-5.857 -14.28,-15.061 0,-9.2035 5.85,-15.0604 14.28,-15.0604 8.36,0 14.22,5.8569 14.22,15.0604 0,9.204 -5.86,15.061 -14.22,15.061 z m 0,-4.797 c 5.07,0 8.42,-3.682 8.42,-10.264 0,-6.5819 -3.35,-10.2634 -8.42,-10.2634 -5.13,0 -8.48,3.6815 -8.48,10.2634 0,6.582 3.35,10.264 8.48,10.264 z"
       fill="#1a1a1a"
       id="path17" />
    <path
       d="m 1369.5,120.715 h -5.57 V 81 h 5.57 z"
       fill="#1a1a1a"
       id="path18" />
    <path
       d="m 1344.78,121.388 c -8.42,0 -14.28,-5.857 -14.28,-15.061 0,-9.2035 5.86,-15.0604 14.28,-15.0604 8.37,0 14.23,5.8569 14.23,15.0604 0,9.204 -5.86,15.061 -14.23,15.061 z m 0,-4.797 c 5.08,0 8.43,-3.682 8.43,-10.264 0,-6.5819 -3.35,-10.2634 -8.43,-10.2634 -5.13,0 -8.48,3.6815 -8.48,10.2634 0,6.582 3.35,10.264 8.48,10.264 z"
       fill="#1a1a1a"
       id="path19" />
    <path
       d="m 1315.46,91.2666 c 6.24,0 10.09,3.5699 10.09,10.1514 v 19.3 h -5.58 v -18.519 c 0,-4.1273 -2.17,-6.0238 -6.08,-6.0238 -3.4,0 -7.25,2.5101 -7.25,8.3108 v 16.232 h -5.57 V 91.936 h 5.35 v 4.295 c 1.9,-2.8448 4.96,-4.9644 9.04,-4.9644 z"
       fill="#1a1a1a"
       id="path20" />
    <path
       d="m 1284.68,91.2634 c 6.25,0 10.1,3.5699 10.1,10.1516 v 19.3 h -5.58 v -18.519 c 0,-4.1275 -2.18,-6.024 -6.08,-6.024 -3.41,0 -7.25,2.5101 -7.25,8.311 v 16.232 h -5.58 V 81 h 5.58 v 14.8931 c 1.89,-2.6774 4.9,-4.6297 8.81,-4.6297 z"
       fill="#1a1a1a"
       id="path21" />
    <path
       d="m 1253.04,121.388 c -8.15,0 -13.72,-5.857 -13.72,-15.061 0,-9.2035 5.46,-15.0604 13.72,-15.0604 7.14,0 11.93,4.1835 12.83,10.7094 h -5.69 c -0.78,-4.0159 -3.74,-5.8566 -7.14,-5.8566 -4.58,0 -7.92,3.2352 -7.92,10.2076 0,6.973 3.46,10.208 7.92,10.208 3.46,0 6.52,-1.897 7.19,-6.08 h 5.69 c -0.89,6.805 -6.02,10.933 -12.88,10.933 z"
       fill="#1a1a1a"
       id="path22" />
    <path
       d="m 1222.15,121.388 c -8.14,0 -13.77,-5.802 -13.77,-15.061 0,-9.0362 5.46,-15.0604 13.66,-15.0604 8.7,0 13.67,6.6378 13.67,15.2834 v 1.618 h -21.7 c 0.5,5.857 3.68,8.534 8.26,8.534 3.73,0 6.13,-1.896 7.14,-4.797 h 5.57 c -1.39,5.578 -5.91,9.483 -12.83,9.483 z m -8.03,-17.627 h 15.84 c -0.5,-4.4621 -3.23,-7.8089 -7.92,-7.8089 -4.18,0 -7.25,2.5658 -7.92,7.8089 z"
       fill="#1a1a1a"
       id="path23" />
    <path
       d="m 1179.65,81 h 32.41 v 5.3548 h -13.16 v 34.3602 h -6.08 V 86.3548 h -13.17 z"
       fill="#1a1a1a"
       id="path24" />
  </g>
</svg>
