<?xml version="1.0" encoding="UTF-8" standalone="no"?>
<svg
   viewBox="0 0 500 105.79"
   version="1.1"
   id="svg2"
   sodipodi:docname="Neilson_Standard_Primary_Inverted.svg"
   inkscape:version="1.4 (e7c3feb1, 2024-10-09)"
   xmlns:inkscape="http://www.inkscape.org/namespaces/inkscape"
   xmlns:sodipodi="http://sodipodi.sourceforge.net/DTD/sodipodi-0.dtd"
   xmlns="http://www.w3.org/2000/svg"
   xmlns:svg="http://www.w3.org/2000/svg">
  <defs
     id="defs2" />
  <sodipodi:namedview
     id="namedview2"
     pagecolor="#ffffff"
     bordercolor="#000000"
     borderopacity="0.25"
     inkscape:showpageshadow="2"
     inkscape:pageopacity="0.0"
     inkscape:pagecheckerboard="0"
     inkscape:deskcolor="#d1d1d1"
     inkscape:zoom="1.0002605"
     inkscape:cx="384.39987"
     inkscape:cy="-43.488672"
     inkscape:window-width="1800"
     inkscape:window-height="1126"
     inkscape:window-x="0"
     inkscape:window-y="43"
     inkscape:window-maximized="0"
     inkscape:current-layer="svg2" />
  <path
     d="M219.71 55.3v50.48h-.25l-33.92-30.62.2 28.66h-9.68V53.44h.39l33.87 31.12-.2-29.2h9.59v-.05Zm48.96 0v9.24h-23.5v10.32h20.79v9.24h-20.79v10.47h24.43v9.24h-34.02V55.34h33.08v-.05Zm24.09 0v48.47h-9.54V55.3h9.54Zm25.51 0v39.28h22.81v9.24h-32.34V55.35h9.54v-.05Zm51.61 8.26c-2.11 0-3.74.44-4.92 1.23-1.18.84-1.77 2.06-1.77 3.74 0 1.52.84 2.9 2.56 4.03 1.67 1.18 3.93 2.26 6.73 3.34 2.26.84 4.23 1.77 5.85 2.85 1.62 1.08 3 2.56 4.03 4.42 1.08 1.87 1.62 4.28 1.62 7.18 0 2.51-.64 4.82-1.97 6.93-1.28 2.11-3.2 3.83-5.7 5.06-2.51 1.23-5.51 1.87-8.95 1.87-2.9 0-5.75-.44-8.65-1.28-2.85-.84-5.51-2.16-7.96-3.93l4.23-7.42c1.67 1.23 3.59 2.26 5.75 3.05s4.08 1.18 5.8 1.18c2.02 0 3.79-.44 5.26-1.28 1.47-.84 2.26-2.26 2.26-4.18 0-2.51-2.36-4.67-7.03-6.54-2.75-1.08-5.06-2.16-6.93-3.15-1.87-1.03-3.44-2.46-4.77-4.33-1.33-1.87-2.02-4.28-2.02-7.13 0-4.18 1.38-7.52 4.13-10.08 2.75-2.56 6.39-3.93 10.96-4.13 3.59 0 6.59.39 9.04 1.23 2.41.84 4.77 1.97 7.03 3.44l-3.64 7.32c-4.18-2.26-7.82-3.44-10.96-3.44Zm27.24 3.74c2.21-3.83 5.21-6.88 9.04-9.14 3.79-2.26 7.91-3.39 12.34-3.39s8.55 1.13 12.34 3.39c3.79 2.26 6.83 5.31 9.09 9.14 2.26 3.83 3.39 7.91 3.39 12.34s-1.13 8.6-3.39 12.39c-2.26 3.79-5.31 6.78-9.09 9s-7.91 3.34-12.34 3.34-8.6-1.13-12.39-3.34-6.78-5.21-9-9c-2.21-3.79-3.34-7.91-3.34-12.39s1.13-8.5 3.34-12.34Zm8.55 20.1c1.33 2.36 3.15 4.23 5.46 5.65 2.31 1.38 4.87 2.06 7.67 2.06s5.21-.69 7.42-2.06c2.26-1.38 3.98-3.24 5.26-5.6 1.28-2.36 1.92-4.96 1.92-7.82s-.64-5.55-1.97-7.91c-1.33-2.36-3.1-4.23-5.36-5.65-2.26-1.38-4.77-2.06-7.52-2.06s-5.26.69-7.52 2.06c-2.26 1.38-4.03 3.24-5.36 5.65-1.33 2.36-1.97 5.01-1.97 7.91-.05 2.8.64 5.41 1.97 7.77ZM500 55.3v50.48h-.25l-33.92-30.62.2 28.66h-9.68V53.44h.39l33.87 31.12-.2-29.2H500v-.05Z"
     style="stroke-width:0;fill:#1a1a1a"
     id="path1" />
  <path
     d="M137.4 103.78C133.74 42.47 93.02 8.64 93.02 8.64c15.29 19.92 16.78 47.52 15.19 67.85C97.4 34.75 76.19 12.15 56.68 0 33.31 14.62 7.46 44.12 0 103.78h38.87s-5.92-34.7 17.81-73.51c23.68 38.82 17.76 73.51 17.76 73.51h62.96Z"
     style="stroke-width:0;fill:#ff7500"
     id="path2" />
</svg>
