<svg fill="currentColor" xmlns="http://www.w3.org/2000/svg" xmlns:xlink="http://www.w3.org/1999/xlink" width="100%" height="100%" viewBox="0 0 197.5 33.417">
  <defs>
    <clipPath id="clip-path">
      <rect id="Rectangle_1" data-name="Rectangle 1" width="32.224" height="33.417" transform="translate(0.001 1.791)" fill="currentColor"></rect>
    </clipPath>
  </defs>
  <g id="one-safe-logo" transform="translate(-0.001 -1.792)">
    <g id="Group_1" data-name="Group 1" clip-path="url(#clip-path)">
      <path id="Path_1" data-name="Path 1" d="M10.536,15.106l5.577-2.366,5.577,2.366v6.685l-5.577,2.366-5.577-2.366Z" fill="currentColor"></path>
      <path id="Path_2" data-name="Path 2" d="M16.113,1.791,32.225,8.649V14.89l-8.008-3.4-.005.012-8.1-3.447-10.328,4.4v8.217L0,18.212V8.649Zm10.328,14.57v8.187l-10.328,4.4L8.2,25.576l-.016.038L0,22.14v6.212l16.112,6.857,16.112-6.857V18.818Z" fill="currentColor" fill-rule="evenodd"></path>
    </g>
    <path id="Path_3" data-name="Path 3" d="M50.3,30.407a13.808,13.808,0,0,1-6.245-1.324,9.209,9.209,0,0,1-4.039-4,14.5,14.5,0,0,1-1.391-6.72,14.373,14.373,0,0,1,1.391-6.72,9.21,9.21,0,0,1,4.039-4A13.809,13.809,0,0,1,50.3,6.31a13.758,13.758,0,0,1,6.279,1.324,9.022,9.022,0,0,1,4,4,14.084,14.084,0,0,1,1.425,6.72,14.209,14.209,0,0,1-1.425,6.72,9.021,9.021,0,0,1-4,4A13.757,13.757,0,0,1,50.3,30.407Zm0-3.224a9.769,9.769,0,0,0,3.292-.509,5.981,5.981,0,0,0,2.444-1.561,6.638,6.638,0,0,0,1.527-2.647,11.475,11.475,0,0,0,.543-3.7v-.747a11.715,11.715,0,0,0-.543-3.767A6.638,6.638,0,0,0,56.04,11.6,5.98,5.98,0,0,0,53.6,10.043,9.769,9.769,0,0,0,50.3,9.534a9.957,9.957,0,0,0-3.292.509A6.3,6.3,0,0,0,44.568,11.6a6.862,6.862,0,0,0-1.493,2.647,12.44,12.44,0,0,0-.509,3.767v.747a12.184,12.184,0,0,0,.509,3.7,6.863,6.863,0,0,0,1.493,2.647,6.3,6.3,0,0,0,2.444,1.561A9.957,9.957,0,0,0,50.3,27.183ZM65.209,30V6.717h3.665L79.5,21.311a3.441,3.441,0,0,1,.441.577q.271.373.509.747a4.563,4.563,0,0,1,.339.611h.17V6.717h3.666V30h-3.53L70.334,15.236l-.679-1.018q-.407-.645-.611-.984h-.17V30Zm24.755,0V6.717H108.02V9.975H93.766v6.483h12.761v3.258H93.766v7.026h14.458V30Zm31.321.407A16.245,16.245,0,0,1,117.62,30a9.576,9.576,0,0,1-3.123-1.222,6.627,6.627,0,0,1-2.138-2.206,6.365,6.365,0,0,1-.781-3.224v-.373a2.091,2.091,0,0,0,.034-.339h3.8a2.133,2.133,0,0,1-.034.306v.339a3.2,3.2,0,0,0,.746,2.138,4.5,4.5,0,0,0,2.071,1.324,9.973,9.973,0,0,0,3.088.441,15.978,15.978,0,0,0,1.833-.1,9.736,9.736,0,0,0,1.6-.373,5.714,5.714,0,0,0,1.29-.645,3.071,3.071,0,0,0,.849-.95,2.525,2.525,0,0,0,.305-1.256,2.579,2.579,0,0,0-.645-1.8,4.634,4.634,0,0,0-1.7-1.188,16.5,16.5,0,0,0-2.41-.849q-1.323-.373-2.749-.747a28.468,28.468,0,0,1-2.783-.882,12.668,12.668,0,0,1-2.41-1.222,5.964,5.964,0,0,1-1.7-1.833,5.6,5.6,0,0,1-.611-2.715,5.6,5.6,0,0,1,.645-2.715,5.349,5.349,0,0,1,1.867-1.969,9.014,9.014,0,0,1,2.919-1.222,16.482,16.482,0,0,1,3.835-.407,14.231,14.231,0,0,1,3.462.407A8.515,8.515,0,0,1,127.734,7.9a5.743,5.743,0,0,1,1.9,2.07,5.955,5.955,0,0,1,.712,2.987v.407H126.58v-.441a2.706,2.706,0,0,0-.645-1.833,4.128,4.128,0,0,0-1.8-1.154,8.046,8.046,0,0,0-2.681-.407,10.479,10.479,0,0,0-3.021.373,4.166,4.166,0,0,0-1.866.984,2.029,2.029,0,0,0-.611,1.493,2.208,2.208,0,0,0,.645,1.629,5.572,5.572,0,0,0,1.7,1.052,23.052,23.052,0,0,0,2.409.815q1.357.339,2.75.747a26.072,26.072,0,0,1,2.749.882,10.543,10.543,0,0,1,2.41,1.256,5.672,5.672,0,0,1,1.73,1.867,5.171,5.171,0,0,1,.645,2.681,6.441,6.441,0,0,1-1.255,4.107,7.119,7.119,0,0,1-3.462,2.274A16,16,0,0,1,121.285,30.407Zm11.4-.407,9.13-23.283h4.853L155.834,30h-4.073l-2.07-5.4H138.66L136.59,30Zm7.2-8.621h8.553l-2.613-6.822q-.1-.306-.306-.849t-.441-1.188q-.2-.645-.441-1.29-.2-.679-.374-1.222h-.2q-.2.645-.509,1.527t-.611,1.7q-.271.815-.475,1.324ZM158.662,30V6.717h16.631V9.975h-12.83v6.89h11.608v3.224H162.463V30Zm20.579,0V6.717H197.3V9.975H183.042v6.483H195.8v3.258H183.042v7.026H197.5V30Z" fill="currentColor"></path>
  </g>
</svg>