<?xml version="1.0" encoding="UTF-8" standalone="no"?>
<!-- Created with Inkscape (http://www.inkscape.org/) -->

<svg
   width="39.6875mm"
   height="10.043495mm"
   viewBox="0 0 39.687501 10.043496"
   version="1.1"
   id="svg5"
   inkscape:version="1.4 (e7c3feb1, 2024-10-09)"
   sodipodi:docname="parliament.svg"
   xmlns:inkscape="http://www.inkscape.org/namespaces/inkscape"
   xmlns:sodipodi="http://sodipodi.sourceforge.net/DTD/sodipodi-0.dtd"
   xmlns="http://www.w3.org/2000/svg"
   xmlns:svg="http://www.w3.org/2000/svg">
  <sodipodi:namedview
     id="namedview7"
     pagecolor="#505050"
     bordercolor="#ffffff"
     borderopacity="1"
     inkscape:pageshadow="0"
     inkscape:pageopacity="0"
     inkscape:pagecheckerboard="1"
     inkscape:document-units="mm"
     showgrid="false"
     fit-margin-top="0"
     fit-margin-left="0"
     fit-margin-right="0"
     fit-margin-bottom="0"
     inkscape:zoom="4.8176907"
     inkscape:cx="81.263"
     inkscape:cy="20.549264"
     inkscape:window-width="1512"
     inkscape:window-height="945"
     inkscape:window-x="0"
     inkscape:window-y="37"
     inkscape:window-maximized="0"
     inkscape:current-layer="g830"
     inkscape:showpageshadow="2"
     inkscape:deskcolor="#d1d1d1" />
  <defs
     id="defs2">
    <clipPath
       clipPathUnits="userSpaceOnUse"
       id="clipPath838">
      <path
         d="M 0,0 H 595.276 V 841.89 H 0 Z"
         id="path836" />
    </clipPath>
    <clipPath
       clipPathUnits="userSpaceOnUse"
       id="clipPath854">
      <path
         d="M 0,0 H 595.276 V 841.89 H 0 Z"
         id="path852" />
    </clipPath>
    <clipPath
       clipPathUnits="userSpaceOnUse"
       id="clipPath872">
      <path
         d="M 0,0 H 595.276 V 841.89 H 0 Z"
         id="path870" />
    </clipPath>
  </defs>
  <g
     inkscape:label="Layer 1"
     inkscape:groupmode="layer"
     id="layer1"
     transform="translate(-383.75266,-294.00041)">
    <g
       id="g830"
       inkscape:label="Womens-History-Month-illustrated-book"
       transform="matrix(0.35277777,0,0,-0.35277777,42.834638,293.272)">
      <g
         id="g2049"
         transform="matrix(0.97752562,0,0,0.97752562,924.81761,-228.58865)">
        <g
           id="g832">
          <g
             id="g834"
             clip-path="url(#clipPath838)">
            <g
               id="g840"
               transform="translate(83.3902,229.2746)">
              <path
                 d="m 0,0 v -8.179 c 0,-3.209 -2.319,-4.265 -4.824,-4.265 -2.485,0 -4.804,1.056 -4.804,4.265 V 0 h 2.215 v -7.578 c 0,-2.05 0.829,-3.044 2.589,-3.044 1.78,0 2.608,0.994 2.608,3.023 V 0 Z"
                 style="fill:#373151;fill-opacity:1;fill-rule:nonzero;stroke:none"
                 id="path842" />
            </g>
          </g>
        </g>
        <g
           id="g844"
           transform="translate(91.7016,217.079)">
          <path
             d="m 0,0 -3.644,5.239 h -0.87 V 0 h -2.215 v 12.196 h 2.215 V 7.144 h 0.911 l 3.396,5.052 H 2.361 L -1.76,6.274 2.691,0 Z"
             style="fill:#373151;fill-opacity:1;fill-rule:nonzero;stroke:none"
             id="path846" />
        </g>
        <g
           id="g848">
          <g
             id="g850"
             clip-path="url(#clipPath854)">
            <g
               id="g856"
               transform="translate(73.7623,202.8566)">
              <path
                 d="m 0,0 v 12.193 h 3.912 c 3.044,0 4.347,-1.408 4.347,-3.871 0,-2.485 -1.449,-4.037 -4.14,-4.037 H 2.215 V 0 Z m 2.215,6.107 h 1.656 c 1.594,0 2.132,0.807 2.132,2.111 0,1.408 -0.724,2.133 -2.153,2.133 H 2.215 Z"
                 style="fill:#373151;fill-opacity:1;fill-rule:nonzero;stroke:none"
                 id="path858" />
            </g>
            <g
               id="g860"
               transform="translate(90.5735,205.3199)">
              <path
                 d="m 0,0 c 0,-0.683 0.31,-0.869 0.703,-0.869 0.228,0 0.415,0.041 0.559,0.103 v -1.635 c -0.31,-0.145 -0.703,-0.228 -1.2,-0.228 -1.139,0 -1.842,0.476 -2.07,1.532 -0.477,-1.201 -1.553,-1.615 -2.816,-1.615 -1.677,0 -2.835,0.973 -2.835,2.609 0,2.062 1.746,3.537 4.923,3.537 h 0.583 v 0.665 c 0,1.076 -0.601,1.532 -1.532,1.532 -0.932,0 -1.517,-0.42 -1.661,-1.473 L -7.349,4.492 C -7.204,6.521 -5.445,7.328 -3.54,7.328 -1.491,7.328 0,6.479 0,4.306 Z m -2.153,2.109 c -0.085,0.002 -0.167,0 -0.248,0 -2.304,0 -3.085,-0.947 -3.085,-1.985 0,-0.704 0.476,-1.242 1.366,-1.242 1.116,0 1.967,0.886 1.967,1.941 z"
                 style="fill:#373151;fill-opacity:1;fill-rule:nonzero;stroke:none"
                 id="path862" />
            </g>
          </g>
        </g>
        <path
           d="m 106.001,202.856 h -2.173 v 9.564 h 2.173 z"
           style="fill:#373151;fill-opacity:1;fill-rule:nonzero;stroke:none"
           id="path864" />
        <g
           id="g866">
          <g
             id="g868"
             clip-path="url(#clipPath872)">
            <g
               id="g874"
               transform="translate(127.9947,212.6481)">
              <path
                 d="M 0,0 C 1.594,0 2.795,-0.87 2.795,-2.919 V -9.792 H 0.621 v 6.107 c 0,1.139 -0.434,1.843 -1.47,1.843 -1.014,0 -1.987,-0.704 -1.987,-2.526 v -5.424 h -2.153 v 6.107 c 0,1.139 -0.435,1.843 -1.49,1.843 -1.015,0 -1.967,-0.704 -1.967,-2.547 v -5.403 h -2.174 v 9.564 h 1.76 L -8.591,-2.07 C -8.094,-0.6 -6.956,0 -5.63,0 -4.306,0 -3.291,-0.559 -3.043,-2.111 -2.546,-0.6 -1.346,0 0,0"
                 style="fill:#373151;fill-opacity:1;fill-rule:nonzero;stroke:none"
                 id="path876" />
            </g>
            <g
               id="g878"
               transform="translate(138.5227,205.7755)">
              <path
                 d="m 0,0 1.884,-0.559 c -0.435,-1.946 -2.07,-2.608 -3.913,-2.608 -2.608,0 -4.388,1.78 -4.388,4.927 0,3.229 1.718,5.112 4.471,5.112 2.546,0 3.871,-1.717 3.871,-4.14 C 1.925,2.236 1.842,1.76 1.76,1.449 h -6.086 c 0.083,-1.739 0.89,-2.919 2.38,-2.919 0.953,0 1.636,0.373 1.946,1.47 m -0.186,2.857 c 0.02,0.124 0.02,0.248 0.02,0.372 0,1.097 -0.703,1.988 -1.883,1.988 -1.263,0 -2.07,-0.891 -2.215,-2.36 z"
                 style="fill:#373151;fill-opacity:1;fill-rule:nonzero;stroke:none"
                 id="path880" />
            </g>
            <g
               id="g882"
               transform="translate(143.8798,210.578)">
              <path
                 d="m 0,0 c 0.518,1.428 1.615,2.07 3.064,2.07 1.532,0 2.877,-0.869 2.877,-2.981 V -7.722 H 3.768 v 6.087 c 0,1.138 -0.456,1.863 -1.553,1.863 -1.056,0 -2.07,-0.58 -2.07,-2.546 v -5.404 h -2.174 v 9.564 h 1.76 z"
                 style="fill:#373151;fill-opacity:1;fill-rule:nonzero;stroke:none"
                 id="path884" />
            </g>
            <g
               id="g886"
               transform="translate(157.6063,203.1876)">
              <path
                 d="m 0,0 c -0.683,-0.393 -1.552,-0.58 -2.525,-0.58 -1.781,0 -2.878,0.911 -2.878,2.816 V 7.535 H -6.79 v 1.698 h 1.387 v 2.624 h 2.194 V 9.233 h 2.837 V 7.535 H -3.229 V 2.691 c 0,-1.014 0.434,-1.428 1.221,-1.428 0.621,0 1.077,0.186 1.614,0.559 z"
                 style="fill:#373151;fill-opacity:1;fill-rule:nonzero;stroke:none"
                 id="path888" />
            </g>
            <g
               id="g890"
               transform="translate(94.9129,209.812)">
              <path
                 d="m 0,0 -0.269,2.608 h -1.842 v -9.564 h 2.173 v 4.679 c 0,1.905 1.304,2.795 2.567,2.795 0.103,0 0.201,-0.005 0.297,-0.012 V 2.795 C 1.213,2.603 0.341,1.473 0,0"
                 style="fill:#373151;fill-opacity:1;fill-rule:nonzero;stroke:none"
                 id="path892" />
            </g>
            <g
               id="g894"
               transform="translate(102.0095,204.5747)">
              <path
                 d="M 0,0 C -0.497,0 -0.849,0.228 -0.849,0.828 V 11.566 H -3.023 V 0.311 c 0,-1.553 1.077,-2.195 2.34,-2.195 0.414,0 0.844,0.074 1.304,0.228 V 0.087 C 0.453,0.032 0.242,0 0,0"
                 style="fill:#373151;fill-opacity:1;fill-rule:nonzero;stroke:none"
                 id="path896" />
            </g>
            <g
               id="g898"
               transform="translate(115.0312,205.3199)">
              <path
                 d="m 0,0 c 0,-0.683 0.31,-0.869 0.704,-0.869 0.227,0 0.414,0.041 0.558,0.103 v -1.635 c -0.31,-0.145 -0.703,-0.228 -1.2,-0.228 -1.139,0 -1.842,0.476 -2.07,1.532 -0.477,-1.201 -1.553,-1.615 -2.816,-1.615 -1.676,0 -2.835,0.973 -2.835,2.609 0,2.062 1.746,3.537 4.923,3.537 h 0.583 v 0.665 c 0,1.076 -0.601,1.532 -1.532,1.532 -0.931,0 -1.517,-0.42 -1.661,-1.473 L -7.349,4.492 C -7.204,6.521 -5.445,7.328 -3.54,7.328 -1.491,7.328 0,6.479 0,4.306 Z m -2.153,2.109 c -0.084,0.002 -0.167,0 -0.248,0 -2.303,0 -3.085,-0.947 -3.085,-1.985 0,-0.704 0.476,-1.242 1.366,-1.242 1.116,0 1.967,0.886 1.967,1.941 z"
                 style="fill:#373151;fill-opacity:1;fill-rule:nonzero;stroke:none"
                 id="path900" />
            </g>
            <g
               id="g902"
               transform="translate(103.5585,215.1166)">
              <path
                 d="m 0,0 c 0,-0.774 0.568,-1.366 1.366,-1.366 0.795,0 1.366,0.592 1.366,1.366 0,0.774 -0.567,1.366 -1.366,1.366 C 0.571,1.366 0,0.774 0,0"
                 style="fill:#373151;fill-opacity:1;fill-rule:nonzero;stroke:none"
                 id="path904" />
            </g>
            <g
               id="g906"
               transform="translate(64.882,229.9549)">
              <path
                 d="m 0,0 -0.294,-0.152 v -0.001 c 0.339,-0.603 0.428,-1.401 0.218,-2.202 -0.348,0.259 -0.591,0.647 -0.709,1.1 L -1.08,-1.407 v -10e-4 c -0.117,-0.44 -0.27,-0.876 -0.46,-1.304 -0.19,-0.427 -0.411,-0.829 -0.658,-1.208 l -0.004,-0.008 0.082,-0.315 c 0.295,0.151 0.63,0.237 0.984,0.237 0.12,0 0.237,-0.01 0.351,-0.029 -0.301,-0.713 -1.006,-1.213 -1.828,-1.213 -0.771,0 -1.439,0.442 -1.767,1.085 0.233,0.109 0.414,0.32 0.474,0.59 0.083,0.377 -0.157,0.554 -0.074,0.93 0.083,0.377 0.456,0.616 0.832,0.533 0.293,-0.065 0.501,-0.303 0.541,-0.583 0.202,0.122 0.356,0.323 0.411,0.572 0.105,0.482 -0.199,0.958 -0.68,1.064 -0.307,0.067 -0.61,-0.032 -0.818,-0.237 0.125,0.189 0.218,0.402 0.27,0.635 0.125,0.573 -0.025,1.146 -0.366,1.59 -0.496,-0.26 -0.873,-0.717 -0.999,-1.29 -0.051,-0.233 -0.056,-0.465 -0.022,-0.69 -0.102,0.273 -0.336,0.491 -0.643,0.558 -0.481,0.106 -0.957,-0.198 -1.063,-0.68 -0.055,-0.249 0,-0.496 0.133,-0.691 0.154,0.236 0.443,0.366 0.735,0.302 0.377,-0.083 0.615,-0.456 0.532,-0.833 -0.083,-0.376 -0.374,-0.436 -0.457,-0.813 -0.049,-0.222 -0.005,-0.444 0.104,-0.624 0,0 0.018,-0.028 0.046,-0.073 -0.391,-0.304 -0.882,-0.486 -1.415,-0.486 -1.274,0 -2.307,1.033 -2.307,2.307 v 0.187 c 0.728,-0.115 1.372,-0.48 1.844,-1.004 l 0.246,0.247 v 2.759 l -0.25,0.251 c -0.471,-0.521 -1.114,-0.884 -1.84,-0.999 v 0.002 c 0,1.003 0.685,1.846 1.612,2.087 l -0.255,0.255 c -0.683,0.049 -1.373,0.074 -2.069,0.074 -0.696,0 -1.386,-0.025 -2.07,-0.074 l -0.254,-0.255 c 0.927,-0.241 1.611,-1.084 1.611,-2.087 v -0.002 c -0.725,0.115 -1.368,0.478 -1.839,0.999 l -0.251,-0.251 v -2.759 l 0.247,-0.247 c 0.471,0.524 1.116,0.889 1.843,1.004 v -0.187 c 0,-1.274 -1.032,-2.307 -2.306,-2.307 -0.53,0 -1.018,0.179 -1.407,0.479 0.023,0.05 0.038,0.08 0.038,0.08 0.109,0.18 0.152,0.402 0.103,0.624 -0.083,0.377 -0.374,0.437 -0.457,0.813 -0.083,0.377 0.156,0.75 0.533,0.833 0.292,0.064 0.581,-0.066 0.735,-0.302 0.132,0.195 0.187,0.442 0.132,0.691 -0.105,0.482 -0.581,0.786 -1.063,0.68 -0.306,-0.067 -0.54,-0.285 -0.643,-0.558 0.034,0.225 0.03,0.457 -0.022,0.69 -0.126,0.573 -0.503,1.03 -0.999,1.29 -0.34,-0.444 -0.491,-1.017 -0.365,-1.59 0.051,-0.233 0.144,-0.446 0.27,-0.635 -0.208,0.205 -0.512,0.304 -0.818,0.237 -0.482,-0.106 -0.786,-0.582 -0.68,-1.064 0.054,-0.249 0.208,-0.45 0.41,-0.572 0.041,0.28 0.249,0.518 0.541,0.583 0.377,0.083 0.749,-0.156 0.832,-0.533 0.083,-0.376 -0.156,-0.553 -0.073,-0.93 0.059,-0.27 0.241,-0.481 0.474,-0.59 v 0 c -0.328,-0.643 -0.996,-1.085 -1.768,-1.085 -0.822,0 -1.527,0.5 -1.828,1.213 0.114,0.019 0.232,0.029 0.351,0.029 0.354,0 0.689,-0.086 0.984,-0.238 l 0.082,0.316 -0.004,0.009 c -0.247,0.378 -0.468,0.781 -0.657,1.207 -0.191,0.428 -0.344,0.864 -0.46,1.303 l -0.001,0.002 -0.294,0.152 c -0.119,-0.453 -0.361,-0.841 -0.71,-1.1 -0.21,0.801 -0.121,1.599 0.219,2.202 v 0.001 L -19.717,0 c -0.514,-0.176 -1.208,-0.458 -1.711,-0.682 l 2.957,-6.642 c 2.631,1.174 5.546,1.826 8.613,1.826 3.067,0 5.981,-0.652 8.612,-1.826 l 2.958,6.642 C 1.208,-0.458 0.514,-0.176 0,0"
                 style="fill:#373151;fill-opacity:1;fill-rule:nonzero;stroke:none"
                 id="path908" />
            </g>
            <g
               id="g910"
               transform="translate(67.5288,217.503)">
              <path
                 d="m 0,0 c 0,0.83 -0.521,1.495 -1.294,1.676 v 0.96 C -0.521,2.817 0,3.482 0,4.312 0,5.289 -0.721,6.037 -1.725,6.037 -2.578,6.037 -3.223,5.501 -3.4,4.743 h -18.209 c -0.179,0.758 -0.826,1.294 -1.675,1.294 -1.008,0 -1.725,-0.748 -1.725,-1.725 0,-0.831 0.518,-1.496 1.293,-1.676 V 1.676 C -24.491,1.496 -25.009,0.831 -25.009,0 c 0,-0.831 0.518,-1.496 1.293,-1.676 v -0.96 c -0.775,-0.18 -1.293,-0.845 -1.293,-1.676 0,-0.831 0.518,-1.495 1.293,-1.676 v -0.96 c -0.775,-0.18 -1.293,-0.845 -1.293,-1.676 0,-0.831 0.518,-1.495 1.293,-1.676 v -0.96 c -0.775,-0.18 -1.293,-0.845 -1.293,-1.676 0,-0.977 0.717,-1.725 1.725,-1.725 1.003,0 1.724,0.748 1.724,1.725 0,0.83 -0.521,1.495 -1.293,1.676 v 0.961 c 0.772,0.18 1.293,0.845 1.293,1.675 0,0.83 -0.521,1.495 -1.293,1.676 v 0.96 c 0.772,0.181 1.293,0.846 1.293,1.676 0,0.83 -0.521,1.495 -1.293,1.676 v 0.96 c 0.772,0.181 1.293,0.846 1.293,1.676 0,0.83 -0.521,1.495 -1.293,1.676 v 0.96 c 0.633,0.149 1.097,0.622 1.244,1.245 h 0.912 v -18.542 h 0.198 c 0.444,1.336 1.111,2.57 1.958,3.658 v 0.223 h -0.863 v 2.587 h 2.156 v -2.587 h -0.431 v -0.237 c 0.559,-1.114 0.973,-2.34 1.209,-3.644 h 0.169 c 0.236,1.304 0.65,2.53 1.209,3.644 v 0.237 h -0.431 v 2.587 h 2.156 v -2.587 h -0.431 v -0.237 c 0.559,-1.114 0.973,-2.34 1.209,-3.644 h 0.169 c 0.236,1.304 0.65,2.53 1.209,3.644 v 0.237 h -0.431 v 2.587 h 2.156 v -2.587 h -0.431 v -0.237 c 0.559,-1.114 0.973,-2.34 1.209,-3.644 h 0.169 c 0.236,1.304 0.65,2.53 1.209,3.644 v 0.237 h -0.431 v 2.587 h 2.156 v -2.587 h -0.863 v -0.223 c 0.847,-1.088 1.514,-2.322 1.958,-3.658 h 0.198 V 3.881 H -3.4 C -3.254,3.257 -2.791,2.784 -2.156,2.636 V 1.676 C -2.931,1.496 -3.45,0.831 -3.45,0 c 0,-0.831 0.519,-1.496 1.294,-1.676 v -0.96 c -0.775,-0.18 -1.294,-0.845 -1.294,-1.676 0,-0.831 0.519,-1.495 1.294,-1.676 v -0.96 c -0.775,-0.18 -1.294,-0.845 -1.294,-1.676 0,-0.831 0.519,-1.495 1.294,-1.676 v -0.96 c -0.775,-0.18 -1.294,-0.845 -1.294,-1.676 0,-0.977 0.717,-1.725 1.725,-1.725 1.004,0 1.725,0.748 1.725,1.725 0,0.83 -0.521,1.495 -1.294,1.676 v 0.961 c 0.773,0.18 1.294,0.845 1.294,1.675 0,0.83 -0.521,1.495 -1.294,1.676 v 0.96 C -0.521,-5.807 0,-5.142 0,-4.312 c 0,0.83 -0.521,1.495 -1.294,1.676 v 0.96 C -0.521,-1.495 0,-0.83 0,0 m -22.422,-12.936 c 0,-0.516 -0.347,-0.862 -0.862,-0.862 -0.516,0 -0.863,0.346 -0.863,0.862 0,0.358 0.167,0.634 0.441,0.769 0.039,-0.197 0.203,-0.338 0.422,-0.338 0.217,0 0.382,0.141 0.422,0.338 0.273,-0.135 0.44,-0.411 0.44,-0.769 m 0,4.312 c 0,-0.357 -0.167,-0.633 -0.44,-0.769 -0.04,0.197 -0.205,0.338 -0.422,0.338 -0.219,0 -0.383,-0.141 -0.422,-0.338 -0.274,0.136 -0.441,0.412 -0.441,0.769 0,0.358 0.167,0.633 0.441,0.769 0.039,-0.197 0.203,-0.338 0.422,-0.338 0.217,0 0.382,0.141 0.422,0.338 0.273,-0.135 0.44,-0.411 0.44,-0.769 m 0,4.312 c 0,-0.357 -0.167,-0.633 -0.44,-0.769 -0.04,0.197 -0.205,0.338 -0.422,0.338 -0.219,0 -0.383,-0.141 -0.422,-0.338 -0.274,0.136 -0.441,0.412 -0.441,0.769 0,0.358 0.167,0.633 0.441,0.769 0.039,-0.197 0.203,-0.338 0.422,-0.338 0.217,0 0.382,0.141 0.422,0.338 0.273,-0.136 0.44,-0.411 0.44,-0.769 m -0.44,7.855 c -0.04,0.197 -0.205,0.338 -0.422,0.338 -0.219,0 -0.383,-0.141 -0.422,-0.338 -0.274,0.136 -0.441,0.412 -0.441,0.769 0,0.516 0.347,0.862 0.863,0.862 0.515,0 0.862,-0.346 0.862,-0.862 0,-0.358 -0.167,-0.633 -0.44,-0.769 m 5.614,-10.442 h -2.156 v 2.587 h 2.156 z m 0,3.881 h -2.156 v 2.587 h 2.156 z m 0,3.88 h -2.156 v 2.587 h 2.156 z m 3.881,-7.761 h -2.156 v 2.587 h 2.156 z m 0,3.881 h -2.156 v 2.587 h 2.156 z m 0,3.88 h -2.156 v 2.587 h 2.156 z m 3.881,-7.761 h -2.156 v 2.587 h 2.156 z m 0,3.881 h -2.156 v 2.587 h 2.156 z m 0,3.88 h -2.156 v 2.587 h 2.156 z m 3.881,-7.761 h -2.156 v 2.587 h 2.156 z m 0,3.881 h -2.156 v 2.587 h 2.156 z m 0,3.88 h -2.156 v 2.587 h 2.156 z m 3.018,3.45 c 0,0.516 0.346,0.862 0.862,0.862 0.516,0 0.863,-0.346 0.863,-0.862 0,-0.358 -0.167,-0.633 -0.441,-0.769 -0.039,0.197 -0.204,0.338 -0.422,0.338 -0.219,0 -0.382,-0.141 -0.422,-0.338 -0.274,0.136 -0.44,0.412 -0.44,0.769 m 1.725,-17.248 c 0,-0.516 -0.347,-0.862 -0.863,-0.862 -0.516,0 -0.862,0.346 -0.862,0.862 0,0.358 0.166,0.634 0.44,0.769 0.04,-0.197 0.203,-0.338 0.422,-0.338 0.218,0 0.383,0.141 0.422,0.338 0.274,-0.135 0.441,-0.411 0.441,-0.769 m 0,4.312 c 0,-0.357 -0.167,-0.633 -0.441,-0.769 -0.039,0.197 -0.204,0.338 -0.422,0.338 -0.219,0 -0.382,-0.141 -0.422,-0.338 -0.274,0.136 -0.44,0.412 -0.44,0.769 0,0.358 0.166,0.633 0.44,0.769 0.04,-0.197 0.203,-0.338 0.422,-0.338 0.218,0 0.383,0.141 0.422,0.338 0.274,-0.135 0.441,-0.411 0.441,-0.769 m 0,4.312 c 0,-0.357 -0.167,-0.633 -0.441,-0.769 -0.039,0.197 -0.204,0.338 -0.422,0.338 -0.219,0 -0.382,-0.141 -0.422,-0.338 -0.274,0.136 -0.44,0.412 -0.44,0.769 0,0.358 0.166,0.633 0.44,0.769 0.04,-0.197 0.203,-0.338 0.422,-0.338 0.218,0 0.383,0.141 0.422,0.338 0.274,-0.136 0.441,-0.411 0.441,-0.769 M -22.422,0 c 0,-0.357 -0.167,-0.633 -0.44,-0.769 -0.04,0.197 -0.205,0.338 -0.422,0.338 -0.219,0 -0.383,-0.141 -0.422,-0.338 -0.274,0.136 -0.441,0.412 -0.441,0.769 0,0.357 0.167,0.633 0.441,0.769 0.039,-0.197 0.203,-0.338 0.422,-0.338 0.217,0 0.382,0.141 0.422,0.338 0.273,-0.136 0.44,-0.412 0.44,-0.769 m 21.56,0 c 0,-0.357 -0.167,-0.633 -0.441,-0.769 -0.039,0.197 -0.204,0.338 -0.422,0.338 -0.219,0 -0.382,-0.141 -0.422,-0.338 -0.274,0.136 -0.44,0.412 -0.44,0.769 0,0.357 0.166,0.633 0.44,0.769 0.04,-0.197 0.203,-0.338 0.422,-0.338 0.218,0 0.383,0.141 0.422,0.338 C -1.029,0.633 -0.862,0.357 -0.862,0"
                 style="fill:#373151;fill-opacity:1;fill-rule:nonzero;stroke:none"
                 id="path912" />
            </g>
          </g>
        </g>
      </g>
    </g>
  </g>
</svg>
