<?xml version="1.0" encoding="UTF-8" standalone="no"?>
<!-- Created with Inkscape (http://www.inkscape.org/) -->

<svg
   version="1.1"
   id="svg2"
   xml:space="preserve"
   width="971.31787"
   height="181.25101"
   viewBox="0 0 971.31787 181.25101"
   sodipodi:docname="PlayStation_logo_and_wordmark.svg"
   inkscape:version="1.4 (e7c3feb1, 2024-10-09)"
   xmlns:inkscape="http://www.inkscape.org/namespaces/inkscape"
   xmlns:sodipodi="http://sodipodi.sourceforge.net/DTD/sodipodi-0.dtd"
   xmlns="http://www.w3.org/2000/svg"
   xmlns:svg="http://www.w3.org/2000/svg"
   xmlns:rdf="http://www.w3.org/1999/02/22-rdf-syntax-ns#"
   xmlns:cc="http://creativecommons.org/ns#"
   xmlns:dc="http://purl.org/dc/elements/1.1/"><metadata
     id="metadata8"><rdf:RDF><cc:Work
         rdf:about=""><dc:format>image/svg+xml</dc:format><dc:type
           rdf:resource="http://purl.org/dc/dcmitype/StillImage" /></cc:Work></rdf:RDF></metadata><defs
     id="defs6"><clipPath
       clipPathUnits="userSpaceOnUse"
       id="clipPath26"><path
         d="m 129.851,377.775 h 966.858 V 536.843 H 129.851 Z"
         id="path24"
         inkscape:connector-curvature="0" /></clipPath><clipPath
       clipPathUnits="userSpaceOnUse"
       id="clipPath3394"><path
         d="m 129.851,109.918 h 966.858 V 342 H 129.851 Z"
         id="path3392"
         inkscape:connector-curvature="0" /></clipPath></defs><sodipodi:namedview
     pagecolor="#ffffff"
     bordercolor="#666666"
     borderopacity="1"
     objecttolerance="10"
     gridtolerance="10"
     guidetolerance="10"
     inkscape:pageopacity="0"
     inkscape:pageshadow="2"
     inkscape:window-width="1800"
     inkscape:window-height="1098"
     id="namedview4"
     showgrid="false"
     inkscape:zoom="0.88314802"
     inkscape:cx="399.70649"
     inkscape:cy="117.1944"
     inkscape:window-x="0"
     inkscape:window-y="71"
     inkscape:window-maximized="0"
     inkscape:current-layer="g10"
     inkscape:showpageshadow="2"
     inkscape:pagecheckerboard="0"
     inkscape:deskcolor="#d1d1d1" /><g
     id="g10"
     inkscape:groupmode="layer"
     inkscape:label="terminator_us_credits"
     transform="matrix(1.3333333,0,0,-1.3333333,1064.6844,913.94563)"><g
       id="g344"
       transform="matrix(1.4132714,0,0,1.4132714,-736.79905,685.45924)"
       style="fill:#000000"><path
         d="m 0,0 v -84.129 l 19.049,-6.035 v 70.541 c 0,3.324 1.482,5.531 3.859,4.772 3.108,-0.862 3.712,-3.924 3.712,-7.211 v -28.173 c 11.857,-5.739 21.192,0.003 21.192,15.145 0,15.473 -5.473,22.366 -21.577,27.908 C 19.883,-5.067 8.111,-1.498 0,0"
         style="fill:#000000;fill-opacity:1;fill-rule:nonzero;stroke:none"
         id="path346"
         inkscape:connector-curvature="0" /></g><g
       id="g348"
       transform="matrix(1.4132714,0,0,1.4132714,-704.75735,575.41494)"
       style="fill:#000000"><path
         d="m 0,0 30.594,10.889 c 3.461,1.283 3.99,3.026 1.189,3.942 -2.845,0.933 -7.923,0.666 -11.421,-0.59 L 0,7.058 v 11.461 l 1.166,0.385 c 0,0 5.894,2.088 14.184,2.987 8.274,0.907 18.421,-0.118 26.396,-3.124 C 50.73,15.913 51.737,11.75 49.464,8.853 47.158,5.986 41.567,3.912 41.567,3.912 L 0,-11.02"
         style="fill:#000000;fill-opacity:1;fill-rule:nonzero;stroke:none"
         id="path350"
         inkscape:connector-curvature="0" /></g><g
       id="g352"
       transform="matrix(1.4132714,0,0,1.4132714,-786.12505,577.05284)"
       style="fill:#000000"><path
         d="m 0,0 c -9.211,2.566 -10.747,7.988 -6.545,11.12 3.876,2.86 10.477,5.013 10.477,5.013 l 27.287,9.729 V 14.789 L 11.601,7.757 C 8.126,6.514 7.605,4.765 10.404,3.85 13.253,2.898 18.309,3.154 21.786,4.437 l 9.433,3.401 V -2.047 C 30.611,-2.149 29.935,-2.252 29.318,-2.357 19.913,-3.918 9.893,-3.277 0,0"
         style="fill:#000000;fill-opacity:1;fill-rule:nonzero;stroke:none"
         id="path354"
         inkscape:connector-curvature="0" /></g><g
       id="g364"
       transform="matrix(1.4132714,0,0,1.4132714,-545.71625,654.25704)"
       style="fill:#000000"><path
         d="m 0,0 -23.004,0.01 c -0.095,0 -0.171,-0.075 -0.171,-0.162 v -53.802 c 0,-0.086 0.076,-0.167 0.171,-0.167 h 9.323 l 0.164,0.167 0.011,47.962 0.055,0.08 10.675,0.02 c 3.887,0 6.022,-3.917 6.022,-11.015 0,-7.102 -2.135,-11.028 -6.022,-11.028 l -6.425,0.007 c -0.096,0 -0.161,-0.073 -0.161,-0.165 v -5.582 c 0,-0.109 0.065,-0.175 0.161,-0.175 H 0 c 3.246,0 6.425,1.504 8.719,4.089 2.718,3.068 4.149,7.497 4.149,12.805 C 12.868,-6.67 7.844,0 0,0"
         style="fill:#000000;fill-opacity:1;fill-rule:nonzero;stroke:none"
         id="path366"
         inkscape:connector-curvature="0" /></g><g
       id="g368"
       transform="matrix(1.4132714,0,0,1.4132714,-505.98075,654.27124)"
       style="fill:#000000"><path
         d="m 0,0 h -9.329 c -0.106,0 -0.182,-0.075 -0.182,-0.162 v -53.802 c 0,-0.087 0.076,-0.167 0.182,-0.167 H 0 l 0.171,0.167 V -0.162 L 0,0"
         style="fill:#000000;fill-opacity:1;fill-rule:nonzero;stroke:none"
         id="path370"
         inkscape:connector-curvature="0" /></g><g
       id="g372"
       transform="matrix(1.4132714,0,0,1.4132714,-448.48035,635.76304)"
       style="fill:#000000"><path
         d="m 0,0 c 0,0.095 -0.084,0.167 -0.176,0.167 h -16.613 c -14.897,0 -16.801,-10.935 -16.801,-20.545 l 0.011,-8.311 c 0,-7.152 4.448,-12.345 10.563,-12.345 h 9.064 l 0.164,0.166 v 5.576 c 0,0.091 -0.077,0.172 -0.164,0.172 l -6.474,-0.011 c -1.492,0.031 -3.5,0.662 -3.5,5.79 v 8.973 c -0.007,5.963 0.548,9.775 1.786,11.944 1.341,2.394 3.452,2.715 5.351,2.715 h 7.081 l 0.06,-0.084 -0.009,-35.075 c 0,-0.085 0.072,-0.166 0.171,-0.166 h 9.312 c 0.092,0 0.174,0.081 0.174,0.166"
         style="fill:#000000;fill-opacity:1;fill-rule:nonzero;stroke:none"
         id="path374"
         inkscape:connector-curvature="0" /></g><g
       id="g376"
       transform="matrix(1.4132714,0,0,1.4132714,-353.63995,622.45144)"
       style="fill:#000000"><path
         d="m 0,0 -4.594,0.35 c -3.445,0.297 -6.007,2.205 -6.007,7.85 0,6.591 2.956,8.394 6.902,8.394 H 9.016 l 0.169,0.164 v 5.595 L 9.016,22.514 H 8.75 L -5.025,22.511 c -8.678,0 -14.849,-5.097 -14.849,-15.255 V 6.814 c 0,-8.015 4.932,-13.8 12.282,-14.362 l 4.572,-0.339 c 3.488,-0.264 5.66,-3.383 5.66,-8.116 v -1.331 c 0,-2.959 -0.74,-8.373 -7.086,-8.373 h -13.211 c -0.089,0 -0.166,-0.077 -0.166,-0.172 v -5.569 l 0.166,-0.167 h 16.402 c 5.054,0 13.517,2.045 13.517,15.801 0,4.984 -1.132,8.912 -3.427,11.751 C 6.879,-1.625 3.981,-0.306 0,0"
         style="fill:#000000;fill-opacity:1;fill-rule:nonzero;stroke:none"
         id="path378"
         inkscape:connector-curvature="0" /></g><g
       id="g380"
       transform="matrix(1.4132714,0,0,1.4132714,-245.66475,635.76304)"
       style="fill:#000000"><path
         d="m 0,0 c 0,0.095 -0.079,0.167 -0.167,0.167 h -16.65 c -14.865,0 -16.789,-10.935 -16.789,-20.545 l 0.012,-8.311 c 0,-7.152 4.444,-12.345 10.591,-12.345 h 9.039 l 0.168,0.166 v 5.576 c 0,0.091 -0.079,0.172 -0.168,0.172 l -6.478,-0.011 c -1.486,0.031 -3.476,0.662 -3.482,5.79 v 8.973 c 0,5.963 0.561,9.775 1.77,11.944 1.342,2.394 3.467,2.715 5.334,2.715 h 7.113 l 0.07,-0.084 -0.017,-35.075 c 0,-0.085 0.077,-0.166 0.17,-0.166 h 9.325 c 0.092,0 0.159,0.081 0.159,0.166"
         style="fill:#000000;fill-opacity:1;fill-rule:nonzero;stroke:none"
         id="path382"
         inkscape:connector-curvature="0" /></g><g
       id="g384"
       transform="matrix(1.4132714,0,0,1.4132714,-298.63275,635.99764)"
       style="fill:#000000"><path
         d="m 0,0 h -10.12 l -0.053,0.062 v 6.78 c 0,0.09 -0.069,0.166 -0.163,0.166 h -9.32 c -0.095,0 -0.178,-0.076 -0.178,-0.166 V -28.86 c 0,-7.151 4.458,-12.341 10.596,-12.341 h 6.675 c 0.096,0 0.17,0.081 0.17,0.167 v 5.57 c 0,0.091 -0.074,0.177 -0.17,0.177 h -4.098 c -1.05,0.016 -3.512,0.069 -3.522,5.338 v 24.035 l 0.057,0.054 c 3.1,-0.016 10.126,0 10.126,0 l 0.164,0.153 v 5.54 C 0.164,-0.073 0.087,0 0,0"
         style="fill:#000000;fill-opacity:1;fill-rule:nonzero;stroke:none"
         id="path386"
         inkscape:connector-curvature="0" /></g><g
       id="g388"
       transform="matrix(1.4132714,0,0,1.4132714,-206.64705,635.99764)"
       style="fill:#000000"><path
         d="m 0,0 h -10.063 l -0.068,0.062 v 6.78 l -0.154,0.166 h -9.339 c -0.092,0 -0.172,-0.076 -0.172,-0.166 V -28.86 c 0,-7.151 4.45,-12.341 10.584,-12.341 h 6.673 c 0.1,0 0.165,0.081 0.165,0.167 v 5.57 c 0,0.091 -0.065,0.177 -0.165,0.177 h -4.097 c -1.053,0.016 -3.495,0.069 -3.495,5.338 v 24.035 l 0.056,0.054 C -6.999,-5.876 0,-5.86 0,-5.86 l 0.166,0.153 v 5.54 C 0.166,-0.073 0.082,0 0,0"
         style="fill:#000000;fill-opacity:1;fill-rule:nonzero;stroke:none"
         id="path390"
         inkscape:connector-curvature="0" /></g><g
       id="g392"
       transform="matrix(1.4132714,0,0,1.4132714,-184.86715,635.99764)"
       style="fill:#000000"><path
         d="m 0,0 h -9.319 c -0.087,0 -0.17,-0.073 -0.17,-0.167 v -40.867 l 0.17,-0.167 H 0 c 0.102,0 0.172,0.081 0.172,0.167 V -0.167 C 0.172,-0.073 0.102,0 0,0"
         style="fill:#000000;fill-opacity:1;fill-rule:nonzero;stroke:none"
         id="path394"
         inkscape:connector-curvature="0" /></g><g
       id="g396"
       transform="matrix(1.4132714,0,0,1.4132714,-184.86715,654.27124)"
       style="fill:#000000"><path
         d="m 0,0 h -9.319 l -0.17,-0.162 v -7.813 c 0,-0.095 0.083,-0.165 0.17,-0.165 H 0 c 0.102,0 0.172,0.07 0.172,0.165 v 7.813 C 0.172,-0.075 0.102,0 0,0"
         style="fill:#000000;fill-opacity:1;fill-rule:nonzero;stroke:none"
         id="path398"
         inkscape:connector-curvature="0" /></g><g
       id="g400"
       transform="matrix(1.4132714,0,0,1.4132714,-93.73815,635.99764)"
       style="fill:#000000"><path
         d="m 0,0 h -16.633 c -0.087,0 -0.164,-0.073 -0.164,-0.167 l -0.005,-40.867 0.156,-0.167 h 9.336 l 0.158,0.167 -0.013,35.085 0.065,0.068 7.092,0.005 c 1.918,0 4.022,-0.309 5.368,-2.527 1.231,-2.004 1.789,-5.527 1.789,-11.056 0.008,-0.239 -0.007,-21.575 -0.007,-21.575 0,-0.086 0.074,-0.167 0.166,-0.167 h 9.296 c 0.101,0 0.175,0.081 0.175,0.167 v 20.495 C 16.779,-10.934 14.86,0 0,0"
         style="fill:#000000;fill-opacity:1;fill-rule:nonzero;stroke:none"
         id="path402"
         inkscape:connector-curvature="0" /></g><g
       id="g404"
       transform="matrix(1.4132714,0,0,1.4132714,-142.68095,589.95184)"
       style="fill:#000000"><path
         d="m 0,0 c -1.467,-2.416 -3.796,-2.739 -5.909,-2.739 -2.092,0 -4.428,0.323 -5.911,2.739 -1.337,2.174 -1.956,5.983 -1.956,11.989 v 0.048 c 0,7.088 0.872,11.115 2.823,13.033 1.167,1.164 2.68,1.636 5.044,1.636 2.398,0 3.896,-0.472 5.062,-1.636 C 1.087,23.152 1.961,19.108 1.961,11.989 1.961,5.975 1.34,2.163 0,0 m -5.909,32.581 c -15.568,0 -17.558,-10.986 -17.558,-20.592 0,-9.617 1.99,-20.639 17.558,-20.639 15.569,0 17.554,11.022 17.554,20.639 0,9.606 -1.985,20.592 -17.554,20.592"
         style="fill:#000000;fill-opacity:1;fill-rule:nonzero;stroke:none"
         id="path406"
         inkscape:connector-curvature="0" /></g><g
       id="g408"
       transform="matrix(1.4132714,0,0,1.4132714,-441.04655,635.99764)"
       style="fill:#000000"><path
         d="M 0,0 -0.108,-0.162 13.72,-40.655 c 0.023,-0.091 0.023,-0.231 -0.006,-0.32 L 5.928,-61.024 c -0.033,-0.095 0.01,-0.165 0.102,-0.165 h 8.108 c 0.1,0 0.205,0.07 0.238,0.165 L 38.65,-0.162 C 38.684,-0.065 38.641,0 38.546,0 H 29.7 C 29.604,0 29.503,-0.073 29.473,-0.162 L 19.196,-26.771 H 19.081 L 10.008,-0.162 C 9.987,-0.065 9.883,0 9.79,0"
         style="fill:#000000;fill-opacity:1;fill-rule:nonzero;stroke:none"
         id="path410"
         inkscape:connector-curvature="0" /></g></g></svg>
