<?xml version="1.0" encoding="UTF-8" standalone="no"?>
<svg
   id="Layer_1"
   data-name="Layer 1"
   viewBox="0 0 150 20.437096"
   version="1.1"
   sodipodi:docname="precedent.svg"
   inkscape:version="1.4 (e7c3feb1, 2024-10-09)"
   width="150"
   height="20.437096"
   xmlns:inkscape="http://www.inkscape.org/namespaces/inkscape"
   xmlns:sodipodi="http://sodipodi.sourceforge.net/DTD/sodipodi-0.dtd"
   xmlns="http://www.w3.org/2000/svg"
   xmlns:svg="http://www.w3.org/2000/svg">
  <defs
     id="defs9" />
  <sodipodi:namedview
     id="namedview9"
     pagecolor="#ffffff"
     bordercolor="#000000"
     borderopacity="0.25"
     inkscape:showpageshadow="2"
     inkscape:pageopacity="0.0"
     inkscape:pagecheckerboard="0"
     inkscape:deskcolor="#d1d1d1"
     inkscape:zoom="1.2768581"
     inkscape:cx="66.178066"
     inkscape:cy="27.019447"
     inkscape:window-width="1512"
     inkscape:window-height="916"
     inkscape:window-x="0"
     inkscape:window-y="38"
     inkscape:window-maximized="0"
     inkscape:current-layer="Layer_1" />
  <g
     id="g1"
     transform="matrix(0.17511091,0,0,0.17511091,-0.35022182,-0.36948402)">
    <path
       d="M 2,116.61 V 2.11 h 46.6 c 12.2,0 21.3,2.9 27.1,8.8 5.8,5.9 8.8,15.2 8.8,27.9 0,12.1 -3.3,21.2 -9.8,27.4 -6.5,6.2 -15.2,9.2 -26,9.2 H 23.8 v 41.1 H 2 Z M 23.8,57 h 27.1 c 3.8,0 6.6,-1 8.3,-2.9 1.7,-1.9 2.5,-4.8 2.5,-8.5 V 31.51 c 0,-3.8 -0.8,-6.6 -2.3,-8.3 -1.5,-1.7 -4.4,-2.5 -8.4,-2.5 H 23.9 V 57 Z"
       id="path1" />
    <path
       class="cls-1"
       d="m 107,116.61 v -85.8 h 47.9 v 16.4 H 128 v 69.3 h -21 z"
       id="path2" />
    <path
       d="m 171,73.51 a 56.39,56.39 0 0 1 2.8,-18.4 43.61,43.61 0 0 1 7.8,-14.11 35.51,35.51 0 0 1 12.2,-9.1 41.2,41.2 0 0 1 31.6,-0.1 36.49,36.49 0 0 1 12.2,8.6 35.37,35.37 0 0 1 7.7,13 48.06,48.06 0 0 1 2.7,16.3 V 80.3 H 192.8 V 86 q 0,7.65 5.1,12 a 18.3,18.3 0 0 0 12,4.2 c 4.6,0 8.4,-1.2 11.3,-3.6 2.9,-2.4 4.6,-5.8 5.2,-10.2 h 21 c -1.4,9.5 -5.4,16.9 -12.1,22.2 -6.7,5.3 -15.2,7.9 -25.7,7.9 A 38.59,38.59 0 0 1 193.3,115.2 34.48,34.48 0 0 1 181.2,106 42,42 0 0 1 173.6,91.8 60.8,60.8 0 0 1 171,73.51 Z m 21.8,-9.4 h 33.7 v -3 a 15,15 0 0 0 -4.8,-11.5 c -3.2,-3 -7.2,-4.4 -12.1,-4.4 a 17.23,17.23 0 0 0 -12,4.4 15,15 0 0 0 -4.8,11.5 z"
       id="path3" />
    <path
       d="m 268,74.21 a 61.83,61.83 0 0 1 2.7,-19 40.24,40.24 0 0 1 7.8,-14.3 34.56,34.56 0 0 1 12.1,-9 38.57,38.57 0 0 1 15.9,-3.1 45.69,45.69 0 0 1 12.9,1.8 33.94,33.94 0 0 1 11.1,5.5 28.62,28.62 0 0 1 8.1,9.7 36.48,36.48 0 0 1 3.8,14 h -21 q -0.75,-8.25 -5.1,-11.4 a 17.64,17.64 0 0 0 -10.7,-3.2 16.38,16.38 0 0 0 -11.1,4.1 c -3.1,2.7 -4.7,7 -4.7,12.7 v 23.6 c 0,5.3 1.5,9.4 4.4,12.4 a 15.52,15.52 0 0 0 11.5,4.5 c 4.7,0 8.4,-1.1 11.2,-3.4 2.8,-2.3 4.4,-6.2 5.1,-11.9 h 21 a 36,36 0 0 1 -3.9,13.9 30.5,30.5 0 0 1 -7.9,9.8 34.86,34.86 0 0 1 -11.1,5.9 44.1,44.1 0 0 1 -13.3,2 40,40 0 0 1 -16.8,-3.3 34.59,34.59 0 0 1 -12.2,-9.1 37.53,37.53 0 0 1 -7.4,-14 65.68,65.68 0 0 1 -2.4,-18.2 z"
       id="path4" />
    <path
       d="m 362.7,73.51 a 56.39,56.39 0 0 1 2.8,-18.4 43.61,43.61 0 0 1 7.8,-14.11 35.51,35.51 0 0 1 12.2,-9.1 41.2,41.2 0 0 1 31.6,-0.1 36.49,36.49 0 0 1 12.2,8.6 35.37,35.37 0 0 1 7.7,13 48.06,48.06 0 0 1 2.7,16.3 V 80.3 H 384.5 V 86 q 0,7.65 5.1,12 a 18.3,18.3 0 0 0 12,4.2 c 4.6,0 8.4,-1.2 11.3,-3.6 2.9,-2.4 4.6,-5.8 5.2,-10.2 h 21 c -1.4,9.5 -5.4,16.9 -12.1,22.2 -6.7,5.3 -15.2,7.9 -25.7,7.9 A 38.59,38.59 0 0 1 385,115.2 34.48,34.48 0 0 1 372.9,106 42,42 0 0 1 365.3,91.8 60.8,60.8 0 0 1 362.7,73.51 Z m 21.9,-9.4 h 33.7 v -3 a 15,15 0 0 0 -4.8,-11.5 c -3.2,-3 -7.2,-4.4 -12.1,-4.4 a 17.23,17.23 0 0 0 -12,4.4 15,15 0 0 0 -4.8,11.5 z"
       id="path5" />
    <path
       d="m 459.9,73.71 a 70.52,70.52 0 0 1 2.1,-17.5 43.33,43.33 0 0 1 6.2,-14.3 31.5,31.5 0 0 1 10.6,-9.6 29.85,29.85 0 0 1 14.9,-3.5 29.24,29.24 0 0 1 14.8,3.6 29.84,29.84 0 0 1 10.3,10 V 2.11 h 21 v 114.4 h -21 v -11.6 a 30.14,30.14 0 0 1 -10.1,10 q -6,3.6 -14.7,3.6 a 30.66,30.66 0 0 1 -14.9,-3.5 32.8,32.8 0 0 1 -10.7,-9.6 44.53,44.53 0 0 1 -6.4,-14.3 68.58,68.58 0 0 1 -2.1,-17.4 z m 21.9,12.1 a 15.9,15.9 0 0 0 4.8,11.9 c 3.2,3.1 7.5,4.6 12.9,4.6 6.8,0 11.7,-2 14.7,-6.1 3,-4.1 4.6,-9.4 4.6,-16.1 v -12.8 c 0,-6.7 -1.5,-12.1 -4.6,-16.1 -3.1,-4 -8,-6 -14.7,-6 -5.5,0 -9.8,1.5 -13,4.6 a 15.6,15.6 0 0 0 -4.7,11.8 z"
       id="path6" />
    <path
       d="m 562.8,73.51 a 56.4,56.4 0 0 1 2.8,-18.4 43.61,43.61 0 0 1 7.8,-14.11 35.51,35.51 0 0 1 12.2,-9.1 41.2,41.2 0 0 1 31.6,-0.1 36.49,36.49 0 0 1 12.2,8.6 35.37,35.37 0 0 1 7.7,13 48.06,48.06 0 0 1 2.7,16.3 V 80.3 H 584.6 V 86 q 0,7.65 5.1,12 a 18.3,18.3 0 0 0 12,4.2 c 4.6,0 8.4,-1.2 11.3,-3.6 2.9,-2.4 4.6,-5.8 5.2,-10.2 h 21 c -1.4,9.5 -5.4,16.9 -12.1,22.2 -6.7,5.3 -15.2,7.9 -25.7,7.9 A 38.59,38.59 0 0 1 585.1,115.2 34.48,34.48 0 0 1 573,106 42,42 0 0 1 565.4,91.8 60.8,60.8 0 0 1 562.8,73.51 Z m 21.9,-9.4 h 33.7 v -3 a 15,15 0 0 0 -4.8,-11.5 c -3.2,-3 -7.2,-4.4 -12.1,-4.4 a 17.23,17.23 0 0 0 -12,4.4 15,15 0 0 0 -4.8,11.5 z"
       id="path7" />
    <path
       d="m 664.3,116.61 v -85.8 h 21 v 12.4 a 28.18,28.18 0 0 1 10.1,-10.7 c 4.1,-2.5 9.2,-3.8 15.3,-3.8 q 14.4,0 21.3,8.4 c 4.5,5.6 6.8,13.4 6.8,23.2 v 56.2 h -21 v -54.7 c 0,-5 -1.1,-9 -3.2,-11.7 -2.1,-2.7 -5.7,-4.2 -10.8,-4.2 -5.8,0 -10.3,1.9 -13.6,5.8 -3.3,3.9 -4.9,8.9 -4.9,15.2 v 49.6 h -21 z"
       id="path8" />
    <path
       d="m 759.3,47.11 v -16.3 h 17 V 2.11 h 21 v 28.7 h 21.4 v 16.3 h -21.4 v 53.2 h 21.4 v 16.3 h -42.4 v -69.5 z"
       id="path9" />
    <circle
       cx="849.59998"
       cy="108.41"
       r="9"
       id="circle9"
       style="fill:#f46b10;fill-opacity:1" />
  </g>
</svg>
