<?xml version="1.0" encoding="UTF-8" standalone="no"?>
<svg
   id="Layer_1"
   data-name="Layer 1"
   viewBox="0 0 861.5 120.75"
   version="1.1"
   sodipodi:docname="Precedent logo.svg"
   inkscape:version="1.4 (e7c3feb1, 2024-10-09)"
   xmlns:inkscape="http://www.inkscape.org/namespaces/inkscape"
   xmlns:sodipodi="http://sodipodi.sourceforge.net/DTD/sodipodi-0.dtd"
   xmlns="http://www.w3.org/2000/svg"
   xmlns:svg="http://www.w3.org/2000/svg">
  <defs
     id="defs9" />
  <sodipodi:namedview
     id="namedview9"
     pagecolor="#ffffff"
     bordercolor="#000000"
     borderopacity="0.25"
     inkscape:showpageshadow="2"
     inkscape:pageopacity="0.0"
     inkscape:pagecheckerboard="0"
     inkscape:deskcolor="#d1d1d1"
     inkscape:zoom="1.2768581"
     inkscape:cx="421.73833"
     inkscape:cy="77.142481"
     inkscape:window-width="1800"
     inkscape:window-height="1098"
     inkscape:window-x="0"
     inkscape:window-y="71"
     inkscape:window-maximized="0"
     inkscape:current-layer="Layer_1" />
  <path
     d="M2,116.61V2.11H48.6c12.2,0,21.3,2.9,27.1,8.8s8.8,15.2,8.8,27.9c0,12.1-3.3,21.2-9.8,27.4s-15.2,9.2-26,9.2H23.8v41.1H2ZM23.8,57H50.9c3.8,0,6.6-1,8.3-2.9s2.5-4.8,2.5-8.5V31.51c0-3.8-.8-6.6-2.3-8.3s-4.4-2.5-8.4-2.5H23.9V57Z"
     id="path1" />
  <path
     class="cls-1"
     d="M107,116.61V30.81h47.9v16.4H128v69.3H107Z"
     id="path2" />
  <path
     d="M171,73.51a56.39,56.39,0,0,1,2.8-18.4A43.61,43.61,0,0,1,181.6,41a35.51,35.51,0,0,1,12.2-9.1,41.2,41.2,0,0,1,31.6-.1,36.49,36.49,0,0,1,12.2,8.6,35.37,35.37,0,0,1,7.7,13,48.06,48.06,0,0,1,2.7,16.3v10.6H192.8V86q0,7.65,5.1,12a18.3,18.3,0,0,0,12,4.2c4.6,0,8.4-1.2,11.3-3.6s4.6-5.8,5.2-10.2h21c-1.4,9.5-5.4,16.9-12.1,22.2s-15.2,7.9-25.7,7.9a38.59,38.59,0,0,1-16.3-3.3,34.48,34.48,0,0,1-12.1-9.2,42,42,0,0,1-7.6-14.2A60.8,60.8,0,0,1,171,73.51Zm21.8-9.4h33.7v-3a15,15,0,0,0-4.8-11.5c-3.2-3-7.2-4.4-12.1-4.4a17.23,17.23,0,0,0-12,4.4,15,15,0,0,0-4.8,11.5v3Z"
     id="path3" />
  <path
     d="M268,74.21a61.83,61.83,0,0,1,2.7-19,40.24,40.24,0,0,1,7.8-14.3,34.56,34.56,0,0,1,12.1-9,38.57,38.57,0,0,1,15.9-3.1,45.69,45.69,0,0,1,12.9,1.8,33.94,33.94,0,0,1,11.1,5.5,28.62,28.62,0,0,1,8.1,9.7,36.48,36.48,0,0,1,3.8,14h-21q-.75-8.25-5.1-11.4a17.64,17.64,0,0,0-10.7-3.2,16.38,16.38,0,0,0-11.1,4.1c-3.1,2.7-4.7,7-4.7,12.7v23.6c0,5.3,1.5,9.4,4.4,12.4a15.52,15.52,0,0,0,11.5,4.5c4.7,0,8.4-1.1,11.2-3.4s4.4-6.2,5.1-11.9h21a36,36,0,0,1-3.9,13.9,30.5,30.5,0,0,1-7.9,9.8,34.86,34.86,0,0,1-11.1,5.9,44.1,44.1,0,0,1-13.3,2,40,40,0,0,1-16.8-3.3,34.59,34.59,0,0,1-12.2-9.1,37.53,37.53,0,0,1-7.4-14A65.68,65.68,0,0,1,268,74.21Z"
     id="path4" />
  <path
     d="M362.7,73.51a56.39,56.39,0,0,1,2.8-18.4A43.61,43.61,0,0,1,373.3,41a35.51,35.51,0,0,1,12.2-9.1,41.2,41.2,0,0,1,31.6-.1,36.49,36.49,0,0,1,12.2,8.6,35.37,35.37,0,0,1,7.7,13,48.06,48.06,0,0,1,2.7,16.3v10.6H384.5V86q0,7.65,5.1,12a18.3,18.3,0,0,0,12,4.2c4.6,0,8.4-1.2,11.3-3.6s4.6-5.8,5.2-10.2h21c-1.4,9.5-5.4,16.9-12.1,22.2s-15.2,7.9-25.7,7.9a38.59,38.59,0,0,1-16.3-3.3,34.48,34.48,0,0,1-12.1-9.2,42,42,0,0,1-7.6-14.2A60.8,60.8,0,0,1,362.7,73.51Zm21.9-9.4h33.7v-3a15,15,0,0,0-4.8-11.5c-3.2-3-7.2-4.4-12.1-4.4a17.23,17.23,0,0,0-12,4.4,15,15,0,0,0-4.8,11.5v3Z"
     id="path5" />
  <path
     d="M459.9,73.71a70.52,70.52,0,0,1,2.1-17.5,43.33,43.33,0,0,1,6.2-14.3,31.5,31.5,0,0,1,10.6-9.6,29.85,29.85,0,0,1,14.9-3.5,29.24,29.24,0,0,1,14.8,3.6,29.84,29.84,0,0,1,10.3,10V2.11h21v114.4h-21v-11.6a30.14,30.14,0,0,1-10.1,10q-6,3.6-14.7,3.6a30.66,30.66,0,0,1-14.9-3.5,32.8,32.8,0,0,1-10.7-9.6,44.53,44.53,0,0,1-6.4-14.3A68.58,68.58,0,0,1,459.9,73.71Zm21.9,12.1a15.9,15.9,0,0,0,4.8,11.9c3.2,3.1,7.5,4.6,12.9,4.6,6.8,0,11.7-2,14.7-6.1s4.6-9.4,4.6-16.1V67.31c0-6.7-1.5-12.1-4.6-16.1s-8-6-14.7-6c-5.5,0-9.8,1.5-13,4.6a15.6,15.6,0,0,0-4.7,11.8Z"
     id="path6" />
  <path
     d="M562.8,73.51a56.4,56.4,0,0,1,2.8-18.4A43.61,43.61,0,0,1,573.4,41a35.51,35.51,0,0,1,12.2-9.1,41.2,41.2,0,0,1,31.6-.1,36.49,36.49,0,0,1,12.2,8.6,35.37,35.37,0,0,1,7.7,13,48.06,48.06,0,0,1,2.7,16.3v10.6H584.6V86q0,7.65,5.1,12a18.3,18.3,0,0,0,12,4.2c4.6,0,8.4-1.2,11.3-3.6s4.6-5.8,5.2-10.2h21c-1.4,9.5-5.4,16.9-12.1,22.2s-15.2,7.9-25.7,7.9a38.59,38.59,0,0,1-16.3-3.3A34.48,34.48,0,0,1,573,106a42,42,0,0,1-7.6-14.2A60.8,60.8,0,0,1,562.8,73.51Zm21.9-9.4h33.7v-3a15,15,0,0,0-4.8-11.5c-3.2-3-7.2-4.4-12.1-4.4a17.23,17.23,0,0,0-12,4.4,15,15,0,0,0-4.8,11.5v3Z"
     id="path7" />
  <path
     d="M664.3,116.61V30.81h21v12.4a28.18,28.18,0,0,1,10.1-10.7c4.1-2.5,9.2-3.8,15.3-3.8q14.4,0,21.3,8.4c4.5,5.6,6.8,13.4,6.8,23.2v56.2h-21V61.81c0-5-1.1-9-3.2-11.7s-5.7-4.2-10.8-4.2c-5.8,0-10.3,1.9-13.6,5.8s-4.9,8.9-4.9,15.2v49.6h-21Z"
     id="path8" />
  <path
     d="M759.3,47.11V30.81h17V2.11h21v28.7h21.4v16.3H797.3v53.2h21.4v16.3H776.3V47.11Z"
     id="path9" />
  <circle
     cx="849.6"
     cy="108.41"
     r="9"
     id="circle9"
     style="fill:#f46b10;fill-opacity:1" />
</svg>
