<?xml version="1.0" encoding="UTF-8" standalone="no"?>
<!-- Created with Inkscape (http://www.inkscape.org/) -->

<svg
   width="260mm"
   height="180mm"
   viewBox="0 0 260 180"
   version="1.1"
   id="svg1"
   xml:space="preserve"
   inkscape:version="1.4 (e7c3feb1, 2024-10-09)"
   sodipodi:docname="QuidCydle.svg"
   inkscape:export-filename="QuidCydle.png"
   inkscape:export-xdpi="96"
   inkscape:export-ydpi="96"
   xmlns:inkscape="http://www.inkscape.org/namespaces/inkscape"
   xmlns:sodipodi="http://sodipodi.sourceforge.net/DTD/sodipodi-0.dtd"
   xmlns="http://www.w3.org/2000/svg"
   xmlns:svg="http://www.w3.org/2000/svg"><sodipodi:namedview
     id="namedview1"
     pagecolor="#d74b36"
     bordercolor="#000000"
     borderopacity="0.25"
     inkscape:showpageshadow="2"
     inkscape:pageopacity="0.0"
     inkscape:pagecheckerboard="0"
     inkscape:deskcolor="#d1d1d1"
     inkscape:document-units="mm"
     inkscape:zoom="0.72196466"
     inkscape:cx="599.75235"
     inkscape:cy="220.92494"
     inkscape:window-width="1800"
     inkscape:window-height="1126"
     inkscape:window-x="0"
     inkscape:window-y="43"
     inkscape:window-maximized="0"
     inkscape:current-layer="layer1" /><defs
     id="defs1"><clipPath
       clipPathUnits="userSpaceOnUse"
       id="clipPath18"><rect
         style="fill:#000000;fill-opacity:1;stroke-width:0.252046"
         id="rect19"
         width="216.11559"
         height="47.173031"
         x="40.779297"
         y="82.627312" /></clipPath><filter
       style="color-interpolation-filters:sRGB"
       inkscape:label="Invert"
       id="filter441652"
       x="0"
       y="0"
       width="1"
       height="1"><feColorMatrix
         type="hueRotate"
         values="180"
         result="color1"
         id="feColorMatrix441651" /><feColorMatrix
         values="-1 0 0 0 1 0 -1 0 0 1 0 0 -1 0 1 -0.21 -0.72 -0.07 2 0 "
         result="color2"
         id="feColorMatrix441652" /></filter></defs><g
     inkscape:label="Layer 1"
     inkscape:groupmode="layer"
     id="layer1"><rect
       style="fill:#d74b36;fill-opacity:1;stroke-width:0.589166"
       id="rect441657"
       width="259.98325"
       height="179.95354"
       x="0.0083910292"
       y="-179.9738"
       transform="scale(1,-1)" /><path
       style="fill:#000000;filter:url(#filter441652)"
       d="m 157.83431,112.29377 c -0.30419,-0.21307 -0.6251,-0.74751 -0.71312,-1.18766 -0.11715,-0.58571 0.19268,-1.76477 1.15565,-4.3978 0.72364,-1.97864 1.31261,-3.85521 1.30882,-4.17016 -0.004,-0.31494 -0.28956,-1.40606 -0.63505,-2.42471 -0.34548,-1.018648 -1.64213,-4.769118 -2.88143,-8.334378 -1.23931,-3.56526 -2.48356,-7.13713 -2.76502,-7.937497 -0.28145,-0.80037 -0.59245,-1.89109 -0.69112,-2.42384 -0.14649,-0.791 -0.0688,-1.09176 0.4235,-1.64005 0.33158,-0.36928 0.78148,-0.69165 0.99976,-0.71637 0.21828,-0.0247 0.67131,-0.0308 1.00674,-0.0136 0.46959,0.0241 0.75127,0.35108 1.22456,1.42127 0.33808,0.76446 1.17447,2.99688 1.85864,4.960937 0.68418,1.96406 1.60799,4.64258 2.05291,5.95227 0.44493,1.30969 1.01488,2.97656 1.26655,3.70417 0.45759,1.32291 0.45759,1.32291 0.87406,0.3359 0.22905,-0.54286 0.89441,-2.44786 1.47856,-4.23334 0.58415,-1.78547 1.6691,-4.97272 2.411,-7.082767 0.7419,-2.11006 1.52391,-4.10435 1.73779,-4.43177 0.29114,-0.44569 0.64305,-0.59532 1.40011,-0.59532 0.64364,0 1.1704,0.17589 1.44911,0.48386 0.24084,0.26612 0.43478,0.8912 0.43099,1.38906 -0.004,0.49786 -0.28943,1.73865 -0.63476,2.75729 -0.34533,1.018647 -1.36456,3.935677 -2.26495,6.482287 -0.90039,2.54662 -2.09176,5.9399 -2.6475,7.54063 -0.55574,1.60073 -1.68797,4.815418 -2.51608,7.143748 -0.82811,2.32833 -1.73449,4.88818 -2.01416,5.68854 -0.27968,0.80037 -0.70772,1.60404 -0.9512,1.78594 -0.24347,0.1819 -0.75062,0.33073 -1.12699,0.33073 -0.37637,0 -0.93319,-0.17432 -1.23737,-0.38738 z M 58.6981,105.62559 c -0.09701,-0.097 -0.176389,-0.63279 -0.176389,-1.19062 0,-1.01424 0,-1.01424 -8.135937,-1.01886 -5.792046,-0.003 -8.783843,-0.1132 -10.384896,-0.38151 -1.236927,-0.20729 -2.998084,-0.67457 -3.913682,-1.0384 -0.915598,-0.36382 -2.420812,-1.20103 -3.344921,-1.86046 -0.924108,-0.659428 -2.357896,-1.946248 -3.186194,-2.859588 -0.889053,-0.98034 -1.923295,-2.52774 -2.524644,-3.77729 -0.560256,-1.16417 -1.205077,-2.84823 -1.432936,-3.74236 -0.244924,-0.96109 -0.41429,-2.74798 -0.41429,-4.37095 0,-1.943767 0.156445,-3.309797 0.53586,-4.678967 0.294723,-1.06354 0.881503,-2.618427 1.303956,-3.455307 0.422453,-0.83687 1.207614,-2.10743 1.744803,-2.82346 0.537189,-0.71603 1.468456,-1.760337 2.069482,-2.320677 0.601026,-0.56033 1.789788,-1.47915 2.641693,-2.04182 0.851905,-0.56267 2.221123,-1.27556 3.042708,-1.58422 0.821584,-0.308647 2.386759,-0.733027 3.478165,-0.943057 1.340067,-0.25788 2.714591,-0.32734 4.233333,-0.21391 1.236927,0.0924 2.885601,0.34606 3.663719,0.56373 0.778118,0.21768 1.968743,0.639497 2.645833,0.937377 0.67709,0.29788 1.889634,0.98719 2.694542,1.5318 0.804907,0.54461 2.179105,1.75522 3.053773,2.69024 0.895807,0.957627 2.069153,2.620457 2.686803,3.807657 0.603074,1.15918 1.342236,3.024607 1.642581,4.145377 0.345633,1.28977 0.546083,2.84954 0.546083,4.249267 0,1.33236 -0.206694,3.01967 -0.519943,4.24446 -0.285969,1.11813 -1.075952,3.10949 -1.755518,4.42526 -0.679566,1.31576 -1.487388,2.55504 -1.795161,2.75395 -0.307773,0.1989 -0.862396,0.43597 -1.232497,0.52681 -0.470689,0.11553 -0.888126,-0.004 -1.389062,-0.39816 -0.542047,-0.42637 -0.716153,-0.79539 -0.716153,-1.51786 0,-0.65979 0.319472,-1.45045 1.034576,-2.56049 0.569016,-0.88327 1.240766,-2.20126 1.492776,-2.92886 0.25201,-0.72761 0.516161,-2.38085 0.587002,-3.67388 0.07569,-1.38151 -0.0049,-2.963527 -0.195486,-3.836457 -0.178359,-0.81703 -0.697669,-2.25941 -1.154024,-3.20529 -0.558529,-1.157667 -1.440142,-2.325157 -2.697234,-3.571877 -1.097492,-1.08843 -2.481674,-2.151227 -3.357058,-2.577607 -0.819257,-0.39903 -2.178828,-0.90505 -3.021269,-1.12447 -0.84244,-0.21943 -2.374649,-0.39896 -3.404908,-0.39896 -1.030258,0 -2.555056,0.1776 -3.38844,0.39467 -0.833383,0.21706 -2.13832,0.70783 -2.899859,1.09058 -0.76154,0.38275 -2.001072,1.219017 -2.754518,1.858377 -0.753445,0.63935 -1.844423,1.87306 -2.424395,2.74158 -0.579972,0.86852 -1.318966,2.373857 -1.642209,3.345197 -0.428632,1.28804 -0.595995,2.45298 -0.618312,4.303777 -0.02443,2.02612 0.09813,2.9307 0.607958,4.48723 0.392191,1.19737 1.157799,2.67367 1.984375,3.8264 0.845762,1.1795 1.935673,2.29029 2.933317,2.98953 0.873125,0.61196 2.182812,1.34642 2.910417,1.63214 0.727604,0.28572 1.97776,0.65941 2.778125,0.83044 0.991044,0.21177 4.1136,0.28513 9.789583,0.22999 8.334375,-0.081 8.334375,-0.081 8.334375,-1.13929 0,-0.91451 0.08591,-1.07048 0.632228,-1.14772 0.492661,-0.0696 1.091344,0.36704 2.711979,1.97817 1.143863,1.13716 2.079751,2.191188 2.079751,2.342298 0,0.15111 -0.863203,1.1412 -1.918229,2.2002 -1.055026,1.059 -2.096823,2.03766 -2.315104,2.17481 -0.218281,0.13714 -0.525859,0.25117 -0.683507,0.2534 -0.157648,0.002 -0.366007,-0.0753 -0.463021,-0.17234 z m 124.24545,-2.62468 c -1.03369,-0.17417 -2.5572,-0.62697 -3.38559,-1.00622 -0.96421,-0.44143 -2.11071,-1.30612 -3.18634,-2.403128 -0.92411,-0.94248 -1.90915,-2.16312 -2.18899,-2.71253 -0.27984,-0.54941 -0.70052,-1.64561 -0.93486,-2.43601 -0.23433,-0.7904 -0.42606,-2.37173 -0.42606,-3.51408 0,-1.39862 0.17956,-2.61436 0.54975,-3.72229 0.30237,-0.90491 0.90424,-2.20173 1.33751,-2.88181 0.43326,-0.680087 1.30622,-1.714437 1.93992,-2.298557 0.63369,-0.58412 1.75594,-1.36799 2.49389,-1.74193 0.73794,-0.37395 2.08813,-0.85589 3.00043,-1.07098 0.91229,-0.21509 2.31356,-0.390317 3.11392,-0.389407 0.86468,0.001 2.20197,0.265157 3.29543,0.650957 1.01212,0.35711 2.47735,1.0881 3.25607,1.62442 0.77871,0.53632 1.88538,1.50855 2.45925,2.16051 0.57388,0.65196 1.04342,1.456537 1.04342,1.787947 0,0.33141 -0.074,0.7953 -0.16436,1.03087 -0.0904,0.23556 -0.5012,0.60249 -0.9129,0.81539 -0.4117,0.2129 -0.93654,0.38709 -1.1663,0.38709 -0.22977,0 -1.15842,-0.74414 -2.06366,-1.65365 -1.18198,-1.18753 -2.03471,-1.790667 -3.02527,-2.139747 -0.82815,-0.29186 -2.07504,-0.48077 -3.12025,-0.47275 -1.30107,0.01 -2.14297,0.19381 -3.3324,0.72759 -0.99538,0.446707 -1.97471,1.149567 -2.61456,1.876487 -0.56269,0.63924 -1.2106,1.71264 -1.43981,2.38533 -0.22921,0.6727 -0.41674,2.07583 -0.41674,3.11807 0,1.58437 0.13269,2.16052 0.80954,3.51501 0.47101,0.94259 1.2367,1.95836 1.83105,2.42909 0.56183,0.44497 1.59652,1.06535 2.29931,1.37862 0.84281,0.37568 1.81893,0.57081 2.86739,0.5732 0.90854,0.002 2.19374,-0.21362 2.99973,-0.50345 0.77559,-0.2789 1.86419,-0.89572 2.41911,-1.37072 0.55493,-0.47499 1.31781,-1.39063 1.69528,-2.03475 0.50386,-0.85977 0.90613,-1.21939 1.51312,-1.35271 0.61698,-0.13551 1.0034,-0.0483 1.5227,0.34379 0.57701,0.43563 0.69333,0.72984 0.68087,1.72217 -0.0124,0.9854 -0.21357,1.45976 -1.13915,2.68567 -0.61826,0.81889 -1.68307,1.900268 -2.36622,2.403058 -0.68316,0.5028 -1.85345,1.14719 -2.60064,1.432 -0.74719,0.28481 -2.1248,0.6205 -3.06135,0.74598 -1.13144,0.15159 -2.33344,0.12188 -3.58224,-0.0885 z M 71.41907,102.88575 c -0.546296,-0.13802 -1.558328,-0.53978 -2.248958,-0.89281 -0.690631,-0.35302 -1.755422,-1.07305 -2.366202,-1.60007 -0.673342,-0.580998 -1.480557,-1.697888 -2.05052,-2.837178 -0.940012,-1.87897 -0.940012,-1.87897 -0.940012,-9.61932 0,-7.128107 0.03859,-7.788017 0.487936,-8.342927 0.330117,-0.40768 0.771548,-0.60258 1.364791,-0.60258 0.626304,0 1.053893,0.20582 1.496439,0.72031 0.612075,0.71158 0.619584,0.7964 0.619584,6.997897 0,4.30494 0.108437,6.69563 0.345082,7.60792 0.189796,0.73168 0.677934,1.76671 1.084753,2.30008 0.414497,0.54343 1.379519,1.28281 2.195129,1.68185 1.068519,0.52278 1.861571,0.71209 2.983036,0.71209 1.083497,0 1.902191,-0.18588 2.816202,-0.63941 0.935261,-0.46407 1.506668,-0.99624 2.083774,-1.94067 0.795149,-1.30126 0.795149,-1.30126 0.927441,-8.79071 0.124466,-7.046437 0.163593,-7.519957 0.661458,-8.005217 0.291042,-0.28368 0.70776,-0.53892 0.926042,-0.5672 0.218281,-0.0283 0.655055,-0.0373 0.970608,-0.0201 0.345644,0.0189 0.792683,0.38561 1.124475,0.92247 0.53277,0.86203 0.55075,1.22098 0.55075,10.993347 0,8.34876 -0.0672,10.232148 -0.38709,10.850768 -0.2129,0.4117 -0.579824,0.82251 -0.815389,0.9129 -0.235565,0.0904 -0.651085,0.16435 -0.923378,0.16435 -0.272293,0 -0.798336,-0.13817 -1.168985,-0.30705 -0.370649,-0.16888 -0.673908,-0.46653 -0.673908,-0.66146 0,-0.19492 -0.218281,-0.3544 -0.485069,-0.3544 -0.266789,0 -0.569918,0.0849 -0.673622,0.18855 -0.103703,0.1037 -0.748625,0.40927 -1.433159,0.67904 -0.702319,0.27677 -2.166864,0.53622 -3.361275,0.59547 -1.164167,0.0577 -2.563636,-0.008 -3.109933,-0.14596 z m 32.24785,-0.007 c -0.56352,-0.14145 -1.86355,-0.69805 -2.88895,-1.23688 -1.025412,-0.53884 -2.385812,-1.51993 -3.023122,-2.180218 -0.63731,-0.66028 -1.59592,-2.08013 -2.13024,-3.15521 -0.8775,-1.76556 -0.9815,-2.20367 -1.07485,-4.5278 -0.0759,-1.88883 0.0162,-2.98732 0.34622,-4.13072 0.24726,-0.85669 0.75632,-2.12445 1.13125,-2.81725 0.37494,-0.6928 1.3159,-1.859437 2.09104,-2.592537 0.77514,-0.73309 2.179652,-1.69337 3.121132,-2.13394 0.94148,-0.44057 2.57275,-0.92882 3.62505,-1.08501 1.39142,-0.206517 2.44084,-0.201947 3.84756,0.0168 1.09923,0.1709 2.61096,0.6423 3.50168,1.09194 0.86207,0.43517 1.64262,0.91294 1.73457,1.06172 0.0919,0.14877 0.27922,0.2705 0.41615,0.2705 0.14729,0 0.24897,-2.16605 0.24897,-5.303697 0,-5.278297 0.003,-5.306797 0.64943,-5.953117 0.40089,-0.40089 0.95321,-0.64944 1.44318,-0.64944 0.49767,0 1.04497,0.25122 1.46724,0.67349 0.67348,0.67348 0.67348,0.67348 0.67348,15.971611 0,15.076068 -0.008,15.308238 -0.54837,15.995258 -0.40434,0.51404 -0.7897,0.69714 -1.46723,0.69714 -0.62281,0 -1.12811,-0.20924 -1.5683,-0.64943 -0.35719,-0.35718 -0.64943,-0.89297 -0.64943,-1.19062 0,-0.29766 -0.0451,-0.5412 -0.10024,-0.5412 -0.0551,0 -0.79437,0.41799 -1.64277,0.92887 -0.84839,0.51088 -1.96415,1.05539 -2.47945,1.21003 -0.5153,0.15463 -2.00848,0.32746 -3.31816,0.38405 -1.30969,0.0566 -2.84232,-0.0128 -3.40584,-0.15429 z m 6.39059,-4.690048 c 0.7721,-0.364 1.86317,-1.18803 2.43857,-1.84173 0.57273,-0.65065 1.2941,-1.85535 1.60305,-2.67712 0.422,-1.12247 0.53708,-1.92193 0.46264,-3.21392 -0.0656,-1.13922 -0.31782,-2.15415 -0.74701,-3.00643 -0.35636,-0.70765 -1.06659,-1.70367 -1.5783,-2.21338 -0.5117,-0.5097 -1.58522,-1.235037 -2.38558,-1.611847 -1.16577,-0.54885 -1.82911,-0.68017 -3.33507,-0.66025 -1.25856,0.0166 -2.27488,0.1996 -3.07509,0.55357 -0.65738,0.29079 -1.67987,0.966547 -2.27219,1.501677 -0.59232,0.53512 -1.381422,1.58395 -1.753552,2.33071 -0.56263,1.12905 -0.6766,1.72833 -0.6766,3.55765 0,1.71728 0.12815,2.47253 0.58415,3.44262 0.32128,0.6835 1.030722,1.68929 1.576522,2.2351 0.54581,0.5458 1.48473,1.24355 2.08649,1.55055 0.60176,0.30699 1.58897,0.65735 2.19379,0.77857 0.60482,0.12121 1.63546,0.15571 2.2903,0.0767 0.65484,-0.0791 1.81939,-0.44015 2.58788,-0.80244 z m 26.91316,4.782528 c -0.43656,-0.058 -1.56765,-0.35135 -2.51354,-0.65194 -0.94589,-0.30059 -2.43417,-0.94282 -3.30729,-1.42718 -0.87313,-0.48436 -2.14109,-1.343178 -2.81769,-1.908478 -0.67661,-0.56531 -1.81511,-1.69624 -2.53001,-2.5132 -0.71489,-0.81695 -1.66931,-2.2432 -2.12093,-3.16944 -0.45162,-0.92624 -1.03937,-2.39178 -1.30612,-3.25675 -0.37124,-1.20379 -0.48012,-2.3795 -0.46417,-5.01227 0.0181,-2.983407 0.11235,-3.705927 0.71081,-5.447837 0.37948,-1.104527 1.12937,-2.757967 1.66641,-3.674297 0.53705,-0.91633 1.76485,-2.463557 2.72845,-3.438277 0.9636,-0.97472 2.58544,-2.26003 3.60408,-2.85624 1.01865,-0.59622 2.62599,-1.34167 3.57188,-1.656567 0.94588,-0.31489 2.73182,-0.69879 3.96875,-0.85309 1.81951,-0.22699 2.70993,-0.20097 4.66302,0.13623 1.32774,0.22924 3.29227,0.7836 4.36563,1.231917 1.07335,0.44832 2.54259,1.26344 3.26497,1.81139 0.83488,0.63328 1.45178,1.35984 1.6932,1.99415 0.32258,0.84753 0.32542,1.09951 0.0189,1.672307 -0.19852,0.37093 -0.68503,0.84201 -1.08114,1.04684 -0.39611,0.20484 -0.9361,0.2907 -1.19998,0.19079 -0.26388,-0.0999 -1.01556,-0.56106 -1.67041,-1.02479 -0.65484,-0.46373 -1.66687,-1.080247 -2.24896,-1.370027 -0.58208,-0.28978 -1.89177,-0.73531 -2.91041,-0.99005 -1.40309,-0.35089 -2.42937,-0.42546 -4.23334,-0.30757 -1.58988,0.10389 -2.92301,0.36884 -4.01142,0.79723 -0.8966,0.3529 -2.16107,1.0069 -2.80995,1.453337 -0.64888,0.44644 -1.74059,1.43547 -2.42604,2.19785 -0.68544,0.76238 -1.48649,1.85703 -1.78011,2.43257 -0.29361,0.575537 -0.71219,1.534247 -0.93016,2.130487 -0.21798,0.59623 -0.49225,1.90686 -0.60949,2.9125 -0.11917,1.022107 -0.1048,2.593647 0.0326,3.563667 0.13515,0.95437 0.52939,2.35481 0.87608,3.11209 0.34669,0.75727 1.14172,2.05416 1.76673,2.88198 0.62501,0.82782 1.79666,2.04624 2.60367,2.7076 0.80701,0.66135 2.18167,1.5275 3.05479,1.92476 0.87313,0.39726 2.28936,0.86692 3.14719,1.0437 0.93705,0.1931 2.22099,0.25059 3.21621,0.14401 0.91108,-0.0976 2.19132,-0.33835 2.84497,-0.53507 0.65364,-0.19672 1.5876,-0.5601 2.07546,-0.80751 0.48785,-0.24741 1.57027,-0.91162 2.40537,-1.47602 0.8351,-0.5644 1.80678,-1.02619 2.15929,-1.02619 0.39089,0 0.90816,0.31759 1.32591,0.81405 0.37674,0.44773 0.68498,1.02544 0.68498,1.28379 0,0.25836 -0.26925,0.86928 -0.59834,1.35761 -0.32908,0.48832 -1.09129,1.26386 -1.6938,1.723408 -0.60251,0.45955 -2.0205,1.22063 -3.15108,1.69129 -1.13058,0.47067 -2.77938,0.9605 -3.664,1.08852 -0.88463,0.12803 -2.50138,0.21733 -3.59278,0.19845 -1.09141,-0.0189 -2.34157,-0.0818 -2.77813,-0.13973 z m 78.41468,-0.078 c -0.52818,-0.13473 -1.6259,-0.53932 -2.43937,-0.89907 -0.81348,-0.35976 -2.09667,-1.2278 -2.85153,-1.92899 -0.75487,-0.701178 -1.70687,-1.797728 -2.11557,-2.436778 -0.40871,-0.63904 -0.99873,-1.93007 -1.31116,-2.86894 -0.47191,-1.41808 -0.54803,-2.13955 -0.44966,-4.26206 0.0931,-2.0089 0.27746,-2.94251 0.86247,-4.36792 0.48494,-1.18157 1.23339,-2.341467 2.14921,-3.330657 0.77295,-0.83487 2.10435,-1.89041 2.95918,-2.34602 0.85471,-0.45556 2.25395,-1.0106 3.10941,-1.23342 0.85547,-0.22282 2.29174,-0.405127 3.19173,-0.405127 0.89998,0 2.4016,0.236367 3.33693,0.525267 0.93533,0.28889 2.40639,0.98253 3.26902,1.54141 0.86262,0.55888 2.01497,1.56302 2.56076,2.23143 0.54579,0.66841 1.29571,1.819277 1.66648,2.557487 0.37078,0.7382 0.79937,2.05307 0.95241,2.92193 0.24073,1.36664 0.21223,1.71492 -0.21128,2.58184 -0.42926,0.8787 -0.63615,1.02412 -1.68017,1.18092 -0.65484,0.0984 -4.97086,0.18766 -9.59114,0.19844 -4.62999,0.0108 -8.40052,0.12387 -8.40052,0.25189 0,0.12774 0.19253,0.69329 0.42785,1.25677 0.23532,0.56347 0.7915,1.44121 1.23595,1.95054 0.44446,0.50932 1.2476,1.25174 1.78477,1.64981 0.53716,0.39807 1.70547,0.91048 2.59622,1.13868 1.27166,0.32578 1.93069,0.35739 3.06797,0.14716 0.79662,-0.14727 1.95941,-0.52394 2.58397,-0.83706 0.62455,-0.31312 1.46044,-0.87371 1.85752,-1.24576 0.46119,-0.43211 1.0256,-0.67644 1.56259,-0.67644 0.55553,0 1.00609,0.20435 1.32855,0.60257 0.26837,0.33142 0.48794,0.98626 0.48794,1.45521 0,0.62964 -0.25949,1.11631 -0.99219,1.860828 -0.5457,0.55451 -1.87414,1.42007 -2.95209,1.92345 -1.72089,0.80363 -2.26943,0.92698 -4.49792,1.01141 -1.3959,0.0529 -2.97015,-0.0141 -3.49833,-0.1488 z m 10.61761,-14.027698 c 0,-0.1471 -0.25934,-0.8192 -0.57632,-1.49355 -0.31698,-0.67434 -0.97499,-1.62474 -1.46224,-2.11199 -0.48725,-0.48725 -1.34877,-1.12204 -1.9145,-1.410657 -0.56572,-0.28861 -1.55611,-0.64296 -2.20085,-0.78745 -0.78437,-0.17578 -1.73303,-0.17281 -2.86698,0.009 -0.9321,0.14944 -2.18442,0.55797 -2.78292,0.90784 -0.59851,0.349867 -1.46098,1.060707 -1.91661,1.579637 -0.45563,0.51893 -1.06727,1.41171 -1.3592,1.98395 -0.29194,0.57224 -0.53079,1.16424 -0.53079,1.31556 0,0.18422 2.57877,0.27512 7.80521,0.27512 5.08318,0 7.8052,-0.0933 7.8052,-0.26747 z M 88.204938,102.35186 c -0.57753,-0.53804 -0.57906,-0.56826 -0.57906,-11.400818 0,-10.861347 0,-10.861347 0.59531,-11.357977 0.32742,-0.27314 0.93056,-0.50059 1.34031,-0.50543 0.40975,-0.005 0.97009,0.11166 1.2452,0.2589 0.2751,0.14723 0.6238,0.71278 0.77488,1.25677 0.16704,0.60148 0.27487,4.825367 0.27517,10.778657 4.6e-4,9.293998 -0.0261,9.833108 -0.5238,10.649478 -0.44446,0.72896 -0.67844,0.85989 -1.53662,0.85989 -0.65306,0 -1.21784,-0.19145 -1.59139,-0.53947 z m 111.868862,0.0103 c -0.48238,-0.48237 -0.52964,-0.88598 -0.53451,-4.564068 -0.003,-2.21919 -5.4e-4,-9.20899 0.005,-15.532887 0.0106,-11.400984 0.0155,-11.503104 0.58063,-12.104684 0.36039,-0.38362 0.87654,-0.6067 1.40376,-0.6067 0.52947,0 1.04378,0.22351 1.40909,0.61237 0.57529,0.61236 0.57529,0.61236 0.57529,16.139581 0,15.174438 -0.012,15.539238 -0.52917,16.056388 -0.32758,0.32758 -0.88194,0.52916 -1.45521,0.52916 -0.57326,0 -1.12762,-0.20158 -1.4552,-0.52916 z"
       id="path19" /><ellipse
       style="fill:#383037;fill-opacity:1;stroke-width:0.432619"
       id="path441657"
       cx="235.90775"
       cy="100.20163"
       rx="3.1886923"
       ry="3.2312086" /></g></svg>
