<?xml version="1.0" encoding="UTF-8" standalone="no"?>
<!-- Created with Inkscape (http://www.inkscape.org/) by Marsupilami -->
<svg
   xmlns:svg="http://www.w3.org/2000/svg"
   xmlns="http://www.w3.org/2000/svg"
   version="1.0"
   width="1024"
   height="574"
   viewBox="0 0 170.5475 95.611214"
   id="svg2310">
  <defs
     id="defs2312">
    <clipPath
       id="clipPath2896">
      <path
         d="M 429.756,716.501 L 616.276,716.501 L 616.276,820.37 L 429.756,820.37 L 429.756,716.501 z "
         id="path2898" />
    </clipPath>
    <clipPath
       id="clipPath2912">
      <path
         d="M 429.756,716.501 L 616.276,716.501 L 616.276,820.37 L 429.756,820.37 L 429.756,716.501 z "
         id="path2914" />
    </clipPath>
    <clipPath
       id="clipPath2928">
      <path
         d="M 429.756,716.501 L 616.276,716.501 L 616.276,820.37 L 429.756,820.37 L 429.756,716.501 z "
         id="path2930" />
    </clipPath>
    <clipPath
       id="clipPath2946">
      <path
         d="M 429.756,716.501 L 616.276,716.501 L 616.276,820.37 L 429.756,820.37 L 429.756,716.501 z "
         id="path2948" />
    </clipPath>
  </defs>
  <g
     transform="translate(-289.72625,-484.5566)"
     id="layer1">
    <path
       d="M 350.92375,580.16156 L 350.92375,548.25906 L 401.15875,548.25906 L 401.15875,580.16781 L 376.125,565.69656"
       style="fill:#ffffff;fill-opacity:1;fill-rule:nonzero;stroke:none"
       id="path2890" />
    <g
       transform="matrix(1.25,0,0,-1.25,-260.3425,1499.4541)"
       id="g2892">
      <g
         clip-path="url(#clipPath2896)"
         id="g2894">
        <path
           d="M 529.196,783.804 L 489.01,783.804 L 489.01,811.918 L 529.196,811.918 L 529.196,783.804 z "
           style="fill:#ffffff;fill-opacity:1;fill-rule:nonzero;stroke:none"
           id="path2900" />
      </g>
    </g>
    <path
       d="M 63,2.09375 L 63,20.5625 L 94.9375,2.09375 L 63,2.09375 z M 109.625,65.5 L 86.375,79.03125 L 109.625,92.59375 L 109.625,65.5 z "
       transform="translate(289.72625,484.5566)"
       style="fill:#f89d0e;fill-opacity:1;fill-rule:nonzero;stroke:none"
       id="path2902" />
    <path
       d="M 94.9375,2.09375 L 63,20.5625 L 63,33.3125 L 109.625,33.3125 L 109.625,2.09375 L 94.9375,2.09375 z M 63,65.5 L 63,92.59375 L 109.625,65.5 L 63,65.5 z "
       transform="translate(289.72625,484.5566)"
       style="fill:#14356d;fill-opacity:1;fill-rule:nonzero;stroke:none"
       id="path2906" />
    <g
       transform="matrix(1.25,0,0,-1.25,-260.3425,1499.4541)"
       id="g2908">
      <g
         clip-path="url(#clipPath2912)"
         id="g2910">
        <path
           d="M 441.488,768.598 C 440.612,768.841 440.408,768.708 440.28,768.064 C 440.188,767.601 440.055,766.931 440.055,766.931 C 440.922,766.647 441.976,766.389 443.587,766.389 C 447.129,766.389 448.707,768.141 448.707,770.048 C 448.707,773.532 442.465,773.432 442.44,775.257 C 442.426,776.247 443.385,776.71 444.613,776.71 C 445.412,776.71 446.184,776.536 446.548,776.447 C 447.394,776.241 447.536,776.281 447.688,776.862 C 447.81,777.329 447.972,777.926 447.972,777.926 C 447.504,778.105 446.129,778.419 444.758,778.419 C 441.652,778.419 440.056,776.698 440.079,774.926 C 440.129,771.339 446.308,771.69 446.335,769.716 C 446.347,768.892 445.652,768.154 443.883,768.154 C 442.769,768.154 442.063,768.441 441.488,768.598"
           style="fill:#14356d;fill-opacity:1;fill-rule:nonzero;stroke:none"
           id="path2918" />
      </g>
    </g>
    <path
       d="M 306.87,541.21406 L 309.065,541.21406 L 309.065,528.97156 L 313.9675,528.97156 L 313.9675,527.60781 C 313.9675,526.96656 313.84125,526.80031 313.16625,526.80031 L 301.36125,526.80031 L 301.36125,528.27781 C 301.36125,528.82406 301.5225,528.97156 302.19125,528.97156 L 306.06125,528.97156 L 306.06125,540.40531 C 306.06125,540.99531 306.22875,541.21406 306.87,541.21406"
       style="fill:#14356d;fill-opacity:1;fill-rule:nonzero;stroke:none"
       id="path2920" />
    <path
       d="M 320.81125,529.71031 L 318.3475,535.53156 L 323.19875,535.53156 L 320.81125,529.71031 z M 325.01125,539.75781 C 324.81625,539.23906 324.1625,537.70156 324.1625,537.70156 L 317.46375,537.70156 L 315.97625,541.21406 L 313.7125,541.21406 C 313.12625,541.21406 313.01125,541.02531 313.2975,540.40531 L 319.43375,526.80031 L 321.28125,526.80031 C 322.4625,526.80031 322.9325,527.61531 323.31,528.42906 L 329.05,541.21406 L 327.24875,541.21406 C 326.39625,541.21406 325.40875,540.81156 325.01125,539.75781"
       style="fill:#14356d;fill-opacity:1;fill-rule:nonzero;stroke:none"
       id="path2922" />
    <g
       transform="matrix(1.25,0,0,-1.25,-260.3425,1499.4541)"
       id="g2924">
      <g
         clip-path="url(#clipPath2928)"
         id="g2926">
        <path
           d="M 473.905,778.123 L 473.228,778.123 L 473.228,767.239 C 473.228,766.7 473.351,766.592 473.875,766.592 L 475.317,766.592 L 475.317,774.483 C 475.317,774.483 479.852,769.621 481.042,768.33 C 481.907,767.39 482.829,766.592 483.807,766.592 L 484.534,766.592 L 484.534,777.477 C 484.534,778.004 484.418,778.123 483.891,778.123 L 482.446,778.123 L 482.446,770.251 C 482.446,770.251 478.305,774.836 476.865,776.386 C 475.879,777.449 475.225,778.123 473.905,778.123"
           style="fill:#14356d;fill-opacity:1;fill-rule:nonzero;stroke:none"
           id="path2932" />
        <path
           d="M 490.515,768.33 L 492.363,768.33 C 494.47,768.33 496.281,769.974 496.281,772.598 C 496.281,775.222 494.599,776.386 492.455,776.386 L 490.515,776.386 L 490.515,768.33 z M 488.081,767.239 L 488.081,778.123 L 493.139,778.123 C 496.49,778.123 498.831,775.72 498.831,772.616 C 498.831,769.513 496.317,766.592 492.733,766.592 L 488.732,766.592 C 488.23,766.592 488.081,766.706 488.081,767.239"
           style="fill:#14356d;fill-opacity:1;fill-rule:nonzero;stroke:none"
           id="path2934" />
      </g>
    </g>
    <path
       d="M 371.59,529.71031 L 369.125,535.53156 L 373.97625,535.53156 L 371.59,529.71031 z M 375.78875,539.75781 C 375.59375,539.23906 374.94,537.70156 374.94,537.70156 L 368.24125,537.70156 L 366.7525,541.21406 L 364.48875,541.21406 C 363.90375,541.21406 363.78875,541.02531 364.075,540.40531 L 370.21125,526.80031 L 372.06,526.80031 C 373.24125,526.80031 373.71,527.61531 374.0875,528.42906 L 379.8275,541.21406 L 378.02625,541.21406 C 377.17375,541.21406 376.185,540.81156 375.78875,539.75781"
       style="fill:#14356d;fill-opacity:1;fill-rule:nonzero;stroke:none"
       id="path2936" />
    <path
       d="M 386.03,533.77406 C 386.69125,534.74281 388.58125,537.45406 389.6825,539.04156 C 390.8275,540.69406 391.62625,541.21406 393.4475,541.21406 L 394.95,541.21406 L 390.01375,534.64906 C 391.865,534.42281 393.655,533.05656 393.655,530.63406 C 393.655,528.49281 392.02375,526.80031 389.12875,526.80031 L 382.01375,526.80031 L 382.01375,540.40531 C 382.01375,541.07156 382.1875,541.21406 382.845,541.21406 L 385.0625,541.21406 L 385.0625,528.97156 L 388.38875,528.97156 C 389.945,528.97156 390.56,529.88031 390.56,531.00406 C 390.56,532.04906 389.9825,533.27906 387.545,533.31406 L 386.2975,533.33656 C 386.1125,533.33656 385.83125,533.48281 386.03,533.77406"
       style="fill:#14356d;fill-opacity:1;fill-rule:nonzero;stroke:none"
       id="path2938" />
    <path
       d="M 422.92125,527.65156 L 422.92125,539.04156 L 428.3025,539.04156 C 428.93,539.04156 429.11125,539.26156 429.11125,539.85156 L 429.11125,541.21406 L 420.7,541.21406 C 420.09375,541.21406 419.885,541.00281 419.885,540.40531 L 419.885,526.80031 L 422.12625,526.80031 C 422.70125,526.80031 422.92125,527.02156 422.92125,527.65156"
       style="fill:#14356d;fill-opacity:1;fill-rule:nonzero;stroke:none"
       id="path2940" />
    <g
       transform="matrix(1.25,0,0,-1.25,-260.3425,1499.4541)"
       id="g2942">
      <g
         clip-path="url(#clipPath2946)"
         id="g2944">
        <path
           d="M 575.587,778.123 L 568.996,778.123 L 568.996,767.22 C 568.996,766.798 569.215,766.592 569.646,766.592 L 576.493,766.592 L 576.493,767.682 C 576.493,768.134 576.312,768.33 575.846,768.33 L 571.422,768.33 L 571.422,771.877 L 575.052,771.877 L 575.052,772.985 C 575.052,773.389 574.852,773.615 574.406,773.615 L 571.422,773.615 L 571.422,776.386 L 576.234,776.386 L 576.234,777.495 C 576.234,777.899 576.035,778.123 575.587,778.123"
           style="fill:#14356d;fill-opacity:1;fill-rule:nonzero;stroke:none"
           id="path2950" />
        <path
           d="M 528.891,768.33 L 530.738,768.33 C 532.844,768.33 534.656,769.974 534.656,772.598 C 534.656,775.222 532.974,776.386 530.831,776.386 L 528.891,776.386 L 528.891,768.33 z M 526.456,767.239 L 526.456,778.123 L 531.515,778.123 C 534.865,778.123 537.207,775.72 537.207,772.616 C 537.207,769.513 534.693,766.592 531.108,766.592 L 527.107,766.592 C 526.605,766.592 526.456,766.706 526.456,767.239"
           style="fill:#14356d;fill-opacity:1;fill-rule:nonzero;stroke:none"
           id="path2952" />
      </g>
    </g>
    <path
       d="M 442.36625,541.21406 L 442.36625,534.60781 L 446.9025,534.60781 L 446.9025,533.22281 C 446.9025,532.71781 446.6525,532.43531 446.0925,532.43531 L 442.36625,532.43531 L 442.36625,528.97156 L 448.38,528.97156 L 448.38,527.58531 C 448.38,527.08031 448.13125,526.80031 447.5725,526.80031 L 439.3325,526.80031 L 439.3325,540.42906 C 439.3325,540.95656 439.60625,541.21406 440.14375,541.21406"
       style="fill:#14356d;fill-opacity:1;fill-rule:nonzero;stroke:none"
       id="path2954" />
    <path
       d="M 432.4175,541.21406 C 431.81125,541.21406 431.60375,541.00281 431.60375,540.40531 L 431.60375,526.80031 L 433.84375,526.80031 C 434.42,526.80031 434.63875,527.02156 434.63875,527.65156 L 434.63875,541.21406"
       style="fill:#14356d;fill-opacity:1;fill-rule:nonzero;stroke:none"
       id="path2956" />
  </g>
</svg>
