<?xml version="1.0" encoding="UTF-8" standalone="no"?>
<svg
   version="1.1"
   width="187.39754"
   height="82.580238"
   id="svg23"
   sodipodi:docname="TheUnit_GB_240-removebg-preview.svg"
   inkscape:version="1.4 (e7c3feb1, 2024-10-09)"
   xmlns:inkscape="http://www.inkscape.org/namespaces/inkscape"
   xmlns:sodipodi="http://sodipodi.sourceforge.net/DTD/sodipodi-0.dtd"
   xmlns="http://www.w3.org/2000/svg"
   xmlns:svg="http://www.w3.org/2000/svg">
  <defs
     id="defs23" />
  <sodipodi:namedview
     id="namedview23"
     pagecolor="#ffffff"
     bordercolor="#000000"
     borderopacity="0.25"
     inkscape:showpageshadow="2"
     inkscape:pageopacity="0.0"
     inkscape:pagecheckerboard="0"
     inkscape:deskcolor="#d1d1d1"
     inkscape:zoom="5.0040755"
     inkscape:cx="84.830855"
     inkscape:cy="64.647307"
     inkscape:window-width="1800"
     inkscape:window-height="1126"
     inkscape:window-x="0"
     inkscape:window-y="43"
     inkscape:window-maximized="0"
     inkscape:current-layer="svg23" />
  <path
     d="m 78.295951,24.540197 c 0,19.14 0,38.28 0,58 -7.920002,0 -15.840002,0 -24.000002,0 -0.09216,-5.693367 -0.171696,-11.384116 -0.219727,-17.077637 -0.02003,-1.934009 -0.04727,-3.867957 -0.08203,-5.801758 -0.04888,-2.790352 -0.07129,-5.5799 -0.08887,-8.370605 -0.03097,-1.283302 -0.03097,-1.283302 -0.06256,-2.592529 -0.0026,-6.943781 1.815151,-12.147069 6.41803,-17.399659 6.413106,-5.308273 9.346284,-6.757812 18.035159,-6.757812 z"
     fill="#000000"
     id="path1"
     style="fill:#000000" />
  <path
     d="m 80.437871,24.540197 c 7.61574,0 11.45114,0.729479 16.99219,5.835937 6.194479,6.70855 7.311999,12.597814 7.203119,21.5 -0.003,0.879353 -0.006,1.758705 -0.009,2.664704 -0.0111,2.791595 -0.0362,5.582862 -0.0617,8.374359 -0.01,1.899735 -0.0192,3.799475 -0.0273,5.699219 -0.0203,4.642153 -0.0594,9.283602 -0.0977,13.925781 -7.919999,0 -15.839999,0 -23.999999,0 0,-19.14 0,-38.28 0,-58 z"
     fill="#000000"
     id="path2"
     style="fill:#000000" />
  <path
     d="m 0.11363999,24.540197 c 7.92000001,0 15.84000001,0 24.00000001,0 0,19.14 0,38.28 0,58 C 15.13246,81.542288 10.389446,80.355569 4.473015,73.692541 1.496021,69.663334 -0.01518301,66.407591 1.1499052e-4,61.435949 c 7.5e-5,-0.820624 1.51e-4,-1.641249 2.28e-4,-2.48674 C 0.00554299,58.067868 0.01066299,57.186527 0.01598299,56.278478 c 0.0014,-0.905793 0.0028,-1.811586 0.0043,-2.744827 0.0056,-2.893685 0.01815,-5.787292 0.03087,-8.680954 0.005,-1.961587 0.0096,-3.923176 0.01367,-5.884766 0.01017,-4.809298 0.02974,-9.61843 0.04882,-14.427734 z"
     fill="#000000"
     id="path3"
     style="fill:#000000" />
  <path
     d="m 135.50454,24.540197 c 7.92,0 15.84,0 24,0 0,19.14 0,38.28 0,58 -8.54593,-0.949547 -11.96338,-1.548319 -18,-7 -3.63036,-4.581163 -6.13227,-9.069972 -6.11353,-15.012451 8e-5,-0.800604 1.6e-4,-1.601207 2.3e-4,-2.426071 0.005,-0.859468 0.0103,-1.718935 0.0156,-2.604447 0.001,-0.883597 0.003,-1.767194 0.004,-2.677566 0.006,-2.822356 0.0181,-5.644633 0.0309,-8.466965 0.005,-1.91341 0.01,-3.826822 0.0137,-5.740234 0.0105,-4.690811 0.03,-9.38145 0.0491,-14.072266 z"
     fill="#000000"
     id="path4"
     style="fill:#000000" />
  <path
     d="m 107.58908,24.35944 c 7.92,0 15.84,0 24,0 0.0923,5.390278 0.17177,10.777772 0.21973,16.168213 0.02,1.830173 0.0472,3.660283 0.082,5.490234 0.049,2.643958 0.0713,5.287065 0.0889,7.931397 0.0206,0.806626 0.0413,1.613251 0.0626,2.44432 0.003,7.108145 -2.00242,13.047195 -6.60163,18.52443 -5.9925,5.056798 -9.8037,7.441406 -17.8516,7.441406 0,-19.14 0,-38.28 0,-58 z"
     fill="#000000"
     id="path5"
     style="fill:#000000" />
  <path
     d="m 26.287417,24.540197 c 7.92,0 15.84,0 24,0 0.09238,5.229584 0.171844,10.456282 0.219727,15.686035 0.01998,1.774838 0.04718,3.549611 0.08203,5.324219 0.402276,21.024837 0.402276,21.024837 -6.196289,29.39209 -5.919934,4.738359 -10.268313,7.597656 -18.105468,7.597656 0,-19.14 0,-38.28 0,-58 z"
     fill="#000000"
     id="path6"
     style="fill:#000000" />
  <path
     d="m 161.60075,32.540197 25.77813,-10e-4 c 0.14683,5.663051 -0.55397,8.213013 -2.77813,13.00103 -3.40535,5.267488 -7.27346,9.170045 -12.82778,11.947203 l 15.39261,0.05277 c 0.38517,5.165823 -0.69294,8.521068 -2.56483,13 -3.27764,5.24819 -10.51503,12.055736 -20.4377,12.040017 l -2.5623,-0.04002 z"
     fill="#020202"
     id="path7"
     sodipodi:nodetypes="ccccccccc"
     style="fill:#000000" />
  <path
     d="m 78.295951,24.540197 c 0,19.14 0,38.28 0,58 -7.920002,0 -15.840002,0 -24.000002,0 -0.09216,-5.693367 -0.171696,-11.384116 -0.219727,-17.077637 -0.02003,-1.934009 -0.04727,-3.867957 -0.08203,-5.801758 -0.04888,-2.790352 -0.07129,-5.5799 -0.08887,-8.370605 -0.03097,-1.283302 -0.03097,-1.283302 -0.06256,-2.592529 -0.0026,-6.943781 1.815151,-12.147069 6.41803,-17.399659 6.413106,-5.308273 9.346284,-6.757812 18.035159,-6.757812 z m -15.687502,8.3125 c -4.90898,5.705031 -5.745628,10.342216 -5.605469,17.585937 0.0042,0.834961 0.0085,1.669921 0.01286,2.530182 0.0167,2.649131 0.05434,5.297483 0.09261,7.946381 0.01506,1.803374 0.02874,3.606761 0.04102,5.410156 0.03039,4.405485 0.08913,8.809299 0.146479,13.214844 5.94,0 11.88,0 18.000002,0 0,-17.16 0,-34.32 0,-52 -5.506349,0 -8.546449,1.749269 -12.687502,5.3125 z"
     fill="#0f0f0f"
     id="path8"
     style="fill:#000000" />
  <path
     d="m 0.11363999,24.540197 c 7.92000001,0 15.84000001,0 24.00000001,0 0,19.14 0,38.28 0,58 C 15.13246,81.542288 10.389446,80.355569 4.473015,73.692541 1.496021,69.663334 -0.01518301,66.407591 1.1499052e-4,61.435949 c 7.5e-5,-0.820624 1.51e-4,-1.641249 2.28e-4,-2.48674 C 0.00554299,58.067868 0.01066299,57.186527 0.01598299,56.278478 c 0.0014,-0.905793 0.0028,-1.811586 0.0043,-2.744827 0.0056,-2.893685 0.01815,-5.787292 0.03087,-8.680954 0.005,-1.961587 0.0096,-3.923176 0.01367,-5.884766 0.01017,-4.809298 0.02974,-9.61843 0.04882,-14.427734 z m 3.00000001,3 c -0.09223,5.123801 -0.17174,10.24468 -0.219727,15.368652 -0.02002,1.740009 -0.04724,3.479951 -0.08203,5.219727 -0.04895,2.512374 -0.07131,5.023854 -0.08887,7.536621 -0.02065,0.76804 -0.04129,1.536079 -0.06256,2.327393 -0.0027,6.545849 1.887703,11.861867 6.453186,16.641357 0.66,0.464062 1.32,0.928125 2,1.40625 0.66,0.484688 1.32,0.969375 2,1.46875 2.217499,1.336776 2.217499,1.336776 6,1.03125 0.33,0.66 0.66,1.32 1,2 1.23372,-1.011916 1.23372,-1.011916 1.120255,-3.094376 -0.0022,-0.921553 -0.0044,-1.843107 -0.0067,-2.792587 -1.13e-4,-1.561505 -1.13e-4,-1.561505 -2.28e-4,-3.154556 -0.0052,-1.132275 -0.01032,-2.264551 -0.01564,-3.431137 -0.0014,-1.15278 -0.0028,-2.305559 -0.0043,-3.493271 -0.0056,-3.698884 -0.01817,-7.397708 -0.03087,-11.096573 -0.005,-2.50065 -0.0096,-5.001301 -0.01367,-7.501953 -0.01107,-6.145206 -0.02835,-12.290366 -0.04885,-18.435547 -5.94,0 -11.88,0 -18,0 z"
     fill="#010101"
     id="path9"
     style="fill:#000000" />
  <path
     d="m 107.58908,24.35944 24.37509,-0.03751 c 0.0923,5.390278 -0.0207,10.803841 -0.0428,16.205722 -0.008,1.830091 -0.0357,3.660135 -0.0305,5.490234 0.007,2.643955 0.0713,5.287065 0.0889,7.931397 0.0206,0.806626 0.0413,1.613251 0.0626,2.44432 0.003,7.108145 -2.00242,13.047195 -6.60163,18.52443 -5.9925,5.056798 -9.8037,7.441406 -17.8516,7.441406 z m 3,3 v 51 c 7.6056,-1.086514 10.73205,-2.623119 15.875,-7.9375 2.70102,-4.951862 2.26129,-10.805488 2.22266,-16.304688 -10e-4,-0.768371 -0.003,-1.536743 -0.004,-2.328399 -0.006,-2.434845 -0.0181,-4.869596 -0.0309,-7.304413 -0.005,-1.658853 -0.01,-3.317707 -0.0137,-4.976563 -0.0104,-4.049544 -0.0299,-8.098885 -0.0491,-12.148437 h -18 z"
     fill="#080808"
     id="path10"
     sodipodi:nodetypes="ccaaccccccccccccccc"
     style="fill:#000000" />
  <path
     d="m 80.437871,24.540197 c 7.63017,0 11.51624,0.724325 17.02734,5.90625 5.197309,5.696846 5.957769,9.796718 6.733119,14.193622 l -2.76046,-4.099872 -1,2 c -0.23074,-0.531094 -0.461489,-1.062188 -0.699219,-1.609375 -3.84233,-8.322509 -7.39214,-10.049884 -16.30078,-13.390625 v 52 h 17.999999 v -36 h 1 v 37 H 80.437871 Z"
     fill="#0f0f0f"
     id="path12"
     style="fill:#000000"
     sodipodi:nodetypes="cccccccccccccc" />
  <path
     d="m 26.287417,24.540197 c 1.32,0.33 2.64,0.66 4,1 1.439735,0.140336 2.883371,0.244169 4.328125,0.316406 1.081362,0.05716 1.081362,0.05716 2.18457,0.115479 1.354966,0.06465 1.354966,0.06465 2.737305,0.130615 2.8875,0.144375 5.775,0.28875 8.75,0.4375 0,11.55 0,23.1 0,35 -0.33,0 -0.66,0 -1,0 0,-11.22 0,-22.44 0,-34 -5.94,0 -11.88,0 -18,0 0.33,16.83 0.66,33.66 1,51 2.64,-0.99 5.28,-1.98 8,-3 1.485,-0.495 1.485,-0.495 3,-1 1.091663,-1.933306 1.091663,-1.933306 2,-4 0.66,-0.66 1.32,-1.32 2,-2 0.66,0 1.32,0 2,0 -1.394211,5.267019 -4.694326,7.97298 -9,11 -4.128402,2.349069 -7.131825,3 -12,3 0,-19.14 0,-38.28 0,-58 z"
     fill="#0c0c0c"
     id="path13"
     style="fill:#000000" />
  <path
     id="path14"
     d="m 135.07063,24.540197 h 23.43391 l -1,56 -6,-1 v -1 h 5 v -51 h -18 c 0.0282,5.267174 0.0715,10.529879 0.15259,15.795898 0.0231,1.78832 0.0376,3.576774 0.043,5.365235 0.009,2.582547 0.0505,5.163011 0.0974,7.745117 -0.006,1.18487 -0.006,1.18487 -0.0119,2.393677 0.18743,7.253484 3.18061,11.955927 8.03145,17.200073 0.55687,0.495 1.11375,0.99 1.6875,1.5 l -2,2 c -5.72585,-3.994778 -8.98454,-8.252815 -11,-15 -0.81158,-6.833103 -0.64587,-13.744035 -0.48618,-20.607632 0.0251,-1.881481 -0.0563,-3.780362 -0.0358,-5.661899 0.0503,-4.578285 -0.008,-9.152018 0.088,-13.730469 z"
     sodipodi:nodetypes="ccccccccccccccccccc"
     style="fill:#000000" />
  <path
     d="m 2.11364,26.540197 h 20 c 0.02464,7.672117 0.04283,15.344211 0.05493,23.016357 0.005,2.612309 0.01187,5.224615 0.02051,7.836914 0.01207,3.745532 0.01779,7.491026 0.02222,11.236573 0.0052,1.176023 0.01032,2.352045 0.01564,3.563705 l 2.28e-4,3.275894 c 0.0022,0.957084 0.0044,1.914168 0.0067,2.900254 -0.120228,2.170303 2.37114,2.907186 1.37114,3.907186 C 19.184816,81.72554 14.182217,81.256971 10.55114,78.977697 5.527162,75.402454 2.094608,71.483101 0.11363999,65.540197 c -0.06803,-1.727954 -0.08496,-3.458354 -0.0625,-5.1875 0.009,-0.901055 0.01805,-1.802109 0.02734,-2.730469 0.0116,-0.68707 0.0232,-1.37414 0.03516,-2.082031 H 1.11364 Z m 1,1 c -0.09223,5.123801 -0.17174,10.24468 -0.219727,15.368652 -0.02002,1.740009 -0.04724,3.479951 -0.08203,5.219727 -0.04895,2.512374 -0.07131,5.023854 -0.08887,7.536621 -0.02065,0.76804 -0.04129,1.536079 -0.06256,2.327393 -0.0027,6.545849 1.887703,11.861867 6.453186,16.641357 l 2,1.40625 2,1.46875 c 2.217499,1.336776 2.217499,1.336776 6,1.03125 l 3.491368,2.736883 c 1.23372,-1.011916 -1.257648,-1.748799 -1.371113,-3.831259 -0.0022,-0.921553 -0.0044,-1.843107 -0.0067,-2.792587 l -2.28e-4,-3.154556 c -0.0052,-1.132275 -0.01032,-2.264551 -0.01564,-3.431137 -0.0014,-1.15278 -0.0028,-2.305559 -0.0043,-3.493271 -0.0056,-3.698884 -0.01817,-7.397708 -0.03087,-11.096573 -0.005,-2.50065 -0.0096,-5.001301 -0.01367,-7.501953 -0.01107,-6.145206 -0.02835,-12.290366 -0.04885,-18.435547 z"
     fill="#0e0e0e"
     id="path15"
     style="fill:#000000"
     sodipodi:nodetypes="ccccccccccccccccccccccccccccccccccc" />
  <path
     d="m 171.24898,32.482018 c 0,0 1.80509,0.02442 2.72482,0.02782 1.39315,0.01257 1.40752,-0.01618 2.82882,-0.0034 0.94037,0.0045 1.86637,-0.01975 2.83524,-0.01508 2.32103,0.01178 4.64193,0.02823 6.96289,0.04883 0.37862,4.310975 0.80646,5.475831 -0.18789,8.569377 l -2.81211,-1.569377 v -3 l -18,1 v 18 h -2 v -22 c 2.88265,-0.960884 0.0158,-0.787965 -0.0162,-0.992496 z"
     fill="#090909"
     id="path17"
     sodipodi:nodetypes="cccccccccccccc"
     style="fill:#000000" />
  <path
     d="m 127.58908,62.35944 h 3 c -0.12572,6.034533 -2.06232,8.809463 -6.11328,13.203125 -1.89676,1.806438 -4.16989,3.250603 -6.4044,4.624315 l -2.48232,-0.82744 v -2 c 1.64453,-1.148438 1.64453,-1.148438 3.8125,-2.375 4.2959,-2.597285 4.2959,-2.597285 7.1875,-6.625 0.72045,-3.151183 0.72045,-3.151183 1,-6 z"
     fill="#080808"
     id="path19"
     sodipodi:nodetypes="ccccccccc"
     style="fill:#000000" />
  <path
     d="m 91.340211,26.813634 c 4.31513,1.494626 7.95469,4.728366 10.214849,8.679688 0.70487,1.651409 1.30482,3.346899 1.88281,5.046875 -0.66,0 -1.32,0 -2,0 -0.33,0.66 -0.66,1.32 -1,2 -0.23074,-0.531094 -0.461489,-1.062188 -0.699219,-1.609375 -2.13296,-4.620013 -3.98696,-7.478796 -8.30078,-10.390625 -0.76313,-0.5775 -1.52625,-1.155 -2.3125,-1.75 -0.55688,-0.4125 -1.11375,-0.825 -1.6875,-1.25 2,-1 2,-1 3.90234,-0.726563 z"
     fill="#080808"
     id="path20"
     style="fill:#000000" />
  <path
     d="m 140.50454,69.540197 c 1.14926,0.954218 2.29431,1.91352 3.4375,2.875 0.63809,0.533672 1.27617,1.067344 1.93359,1.617187 1.62891,1.507813 1.62891,1.507813 2.62891,3.507813 -0.66,0.66 -1.32,1.32 -2,2 -4.22798,-3.082902 -4.22798,-3.082902 -6,-5 -0.375,-2.8125 -0.375,-2.8125 0,-5 z"
     fill="#0a0a0a"
     id="path22"
     style="fill:#000000" />
  <path
     d=""
     fill="#000000"
     id="path23"
     style="fill:#000000" />
  <ellipse
     style="fill:#000000;stroke-width:1.36514"
     id="path24"
     cx="119.83293"
     cy="10.959002"
     rx="11.24264"
     ry="10.959002" />
</svg>
