<?xml version="1.0" encoding="UTF-8" standalone="no"?>
<svg
   id="Layer_1"
   width="245.26701"
   height="67.249634"
   viewBox="0 0 713.73999 137.05748"
   version="1.1"
   sodipodi:docname="thistle-b_reversed-logo.svg"
   inkscape:version="1.4 (e7c3feb1, 2024-10-09)"
   xmlns:inkscape="http://www.inkscape.org/namespaces/inkscape"
   xmlns:sodipodi="http://sodipodi.sourceforge.net/DTD/sodipodi-0.dtd"
   xmlns="http://www.w3.org/2000/svg"
   xmlns:svg="http://www.w3.org/2000/svg">
  <sodipodi:namedview
     id="namedview5"
     pagecolor="#ffffff"
     bordercolor="#000000"
     borderopacity="0.25"
     inkscape:showpageshadow="2"
     inkscape:pageopacity="0.0"
     inkscape:pagecheckerboard="0"
     inkscape:deskcolor="#d1d1d1"
     inkscape:zoom="2.6534611"
     inkscape:cx="135.29499"
     inkscape:cy="-72.923625"
     inkscape:window-width="1800"
     inkscape:window-height="1126"
     inkscape:window-x="0"
     inkscape:window-y="43"
     inkscape:window-maximized="0"
     inkscape:current-layer="Layer_1" />
  <defs
     id="defs1">
    <style
       id="style1">.cls-1{fill:#222e53;}</style>
  </defs>
  <rect
     class="cls-1"
     x="233.96001"
     y="-29.608274"
     width="42.799999"
     height="32.5"
     id="rect1" />
  <rect
     class="cls-1"
     x="233.96001"
     y="18.101721"
     width="42.799999"
     height="143.10001"
     id="rect2" />
  <path
     class="cls-1"
     d="m 361.87,73.801722 c -19.86,-5.16 -26.81,-9.03 -26.81,-16.76 0,-5.41 5.15,-9.55 12.37,-9.55 7.22,0 12.9,2.59 13.15,10.83 h 42.03 C 400.56,30.231721 378.63,13.201721 347.7,13.201721 c -28.89,0 -55.45,18.3 -55.45,46.660001 0,16.76 9.55,30.95 45.65,42.029998 21.39,6.70001 26.29,10.83001 26.29,18.82001 0,6.70001 -7.47,11.09001 -14.96,11.09001 -8.5,0 -14.95,-4.13 -16.24,-13.16001 h -42.55 c 3.1,29.14002 26.04,47.45002 58.28,47.45002 32.24,0 58.26,-18.83 58.26,-48.73002 0,-20.890006 -11.08,-34.550008 -45.12,-43.570008"
     id="path2" />
  <rect
     class="cls-1"
     x="507.65997"
     y="-29.598272"
     width="42.799999"
     height="190.8"
     id="rect3" />
  <path
     class="cls-1"
     d="m 605.96,73.801722 c 3.35,-15.21 16.76,-24.5 32.24,-24.5 16.49,0 29.39,9.8 32.75,24.5 h -64.98 z m 107.77,17.52 c 0,-44.34 -32.75,-78.120001 -75.54,-78.120001 -42.79,0 -75.03,35.580001 -75.03,76.840001 0,41.260018 34.55,75.800028 75.8,75.800028 30.18,0 56.21,-18.31 69.88,-49.51002 h -43.83 c -6.97,9.03001 -14.44,13.41001 -26.04,13.41001 -17.53,0 -31.21,-10.83001 -33.52,-27.07002 h 107.26 c 0.78,-3.869996 1.03,-7.209996 1.03,-11.349998"
     id="path3" />
  <path
     class="cls-1"
     d="m 163.68,13.201721 c -17.01,0 -30.94,6.95 -37.11,18.56 V -29.608278 H 83.76 V 18.091721 H 63.94 V -8.9982783 C 63.94,-20.388278 54.71,-29.608278 43.33,-29.608278 H 21.14 V 18.091721 H 0 v 32.490001 h 21.14 v 92.600028 c 0,9.95 8.06,18 18,18 h 24.8 V 50.571722 H 83.76 V 161.18175 h 42.81 V 80.731722 c 0,-17.79 7.72,-27.33 23.98,-27.33 16.26,0 22.95,10.57 22.95,29.14 v 78.640028 h 42.8 V 71.191722 c 0,-37.380001 -19.85,-58.010001 -52.6,-58.010001"
     id="path4" />
  <path
     class="cls-1"
     d="m 456.7,-29.598278 h -24.79 v 47.699999 h -21.14 v 32.490001 h 21.14 v 92.600028 c 0,9.95 8.06,18.01 18,18.01 H 474.7 V 50.581722 h 20.63 V 18.091721 H 474.7 v -29.699999 c 0,-9.94 -8.06,-18 -18,-18"
     id="path5" />
</svg>
