<?xml version="1.0" encoding="UTF-8" standalone="no"?>
<svg
   xml:space="preserve"
   width="950"
   height="686.312"
   viewBox="0 0 251.354 181.587"
   version="1.1"
   id="svg1"
   sodipodi:docname="Toyota_logo_(Red).svg"
   inkscape:version="1.4 (e7c3feb1, 2024-10-09)"
   xmlns:inkscape="http://www.inkscape.org/namespaces/inkscape"
   xmlns:sodipodi="http://sodipodi.sourceforge.net/DTD/sodipodi-0.dtd"
   xmlns="http://www.w3.org/2000/svg"
   xmlns:svg="http://www.w3.org/2000/svg"><defs
   id="defs1" /><sodipodi:namedview
   id="namedview1"
   pagecolor="#ffffff"
   bordercolor="#000000"
   borderopacity="0.25"
   inkscape:showpageshadow="2"
   inkscape:pageopacity="0.0"
   inkscape:pagecheckerboard="0"
   inkscape:deskcolor="#d1d1d1"
   inkscape:zoom="0.65475323"
   inkscape:cx="270.33085"
   inkscape:cy="419.24192"
   inkscape:window-width="1800"
   inkscape:window-height="1098"
   inkscape:window-x="0"
   inkscape:window-y="71"
   inkscape:window-maximized="0"
   inkscape:current-layer="svg1" />
  <path
   fill="#EB0A1E"
   d="M36.029 138.397H0v7.965h13.298v33.964h9.434v-33.964H36.03v-7.965m35.23 27.695a11.555 11.555 0 0 1-8.71 7.123 12.674 12.674 0 0 1-2.189.194c-.743 0-1.475-.07-2.182-.194a11.538 11.538 0 0 1-8.706-7.123 18.407 18.407 0 0 1-1.27-6.73c0-2.375.452-4.65 1.27-6.734a11.547 11.547 0 0 1 8.706-7.122 12.054 12.054 0 0 1 4.37 0 11.55 11.55 0 0 1 8.71 7.12 18.526 18.526 0 0 1 0 13.466m-10.9-28.955c-12.268 0-22.224 9.95-22.224 22.225 0 12.267 9.956 22.219 22.225 22.219 12.277 0 22.225-9.952 22.225-22.218 0-12.276-9.948-22.226-22.225-22.226zm22.375 1.26h11.112l10.377 18.027 10.377-18.027h11.108l-16.769 26.417v15.512h-9.432v-15.512l-16.773-26.417m65.375 35.016c.741 0 1.477-.075 2.182-.198a11.531 11.531 0 0 0 8.707-7.12 18.39 18.39 0 0 0 0-13.463 11.538 11.538 0 0 0-8.707-7.124 12.427 12.427 0 0 0-4.376 0 11.531 11.531 0 0 0-8.702 7.122 18.381 18.381 0 0 0-1.274 6.73c0 2.377.452 4.646 1.274 6.734a11.522 11.522 0 0 0 8.702 7.12 12.512 12.512 0 0 0 2.194.199M125.88 159.36c0-12.274 9.946-22.228 22.228-22.228 12.268 0 22.224 9.95 22.224 22.228-.001 12.266-9.956 22.226-22.224 22.226-12.282 0-22.228-9.96-22.228-22.226zm108.797 4.37-6.174-16.566-6.182 16.566h12.356m2.737 7.336h-17.847l-3.433 9.233h-10.496l16.986-41.933h11.738l16.992 41.933h-10.483zm-29.004-32.67h-36.028v7.966h13.304l-.004 33.963h9.438l-.004-33.963h13.294v-7.966M166.976 5.883C155.451 2.16 141.164 0 125.677 0 110.19 0 95.903 2.161 84.378 5.883c-30.614 9.844-51.624 30.254-51.624 53.784 0 33.136 41.54 60.148 92.923 60.148 51.264 0 92.923-26.892 92.923-60.148 0-23.53-21.01-43.94-51.624-53.784zm-41.299 88.12c-7.683 0-13.926-15.007-14.286-33.975 4.562.48 9.364.6 14.286.6 4.922 0 9.725-.24 14.287-.6-.36 18.968-6.603 33.975-14.287 33.975Zm-13.326-48.742c2.04-13.326 7.203-22.69 13.326-22.69 6.003 0 11.165 9.364 13.326 22.69-4.202.36-8.764.6-13.326.6-4.562 0-9.004-.24-13.326-.6zm34.816-1.08c-3.121-20.77-11.525-35.777-21.49-35.777-9.964 0-18.368 14.887-21.49 35.776-18.848-3.001-32.055-9.604-32.055-17.408 0-10.565 24.012-19.088 53.545-19.088 29.534 0 53.545 8.523 53.545 19.088 0 7.804-13.206 14.527-32.055 17.408zM46.321 57.505c0-10.204 3.961-19.689 10.805-27.972-.12.6-.12 1.2-.12 1.68 0 12.846 19.208 23.651 45.98 27.733v2.881c0 23.771 6.604 43.94 15.728 50.904C78.135 110.33 46.32 86.56 46.32 57.506zm86.32 55.346c9.123-6.963 15.727-27.133 15.727-50.904v-2.88c26.772-3.963 45.98-14.888 45.98-27.734 0-.6 0-1.2-.12-1.68 6.844 8.163 10.806 17.768 10.806 27.973 0 28.933-31.815 52.704-72.394 55.225z"
   id="path1" />
<path
   style="fill:#282830;fill-opacity:1;fill-rule:nonzero;stroke:none;stroke-width:3.12624"
   d="m 125.76144,-0.38444873 c -51.31298,0 -92.917848,26.91577773 -92.917848,60.10865073 0,33.205092 41.604868,60.133068 92.917848,60.133068 51.3131,0 92.91784,-26.915758 92.91784,-60.133068 0,-33.217296 -41.60474,-60.10865073 -92.91784,-60.10865073 z m 0,94.43727273 c -7.63216,0 -13.86005,-15.033275 -14.2509,-33.950034 4.59157,0.403044 9.36629,0.622823 14.2509,0.622823 4.8846,0 9.65932,-0.219779 14.25089,-0.622823 -0.39109,18.904553 -6.61862,33.950034 -14.25089,33.950034 z M 112.45081,45.081732 c 2.07596,-13.372409 7.25371,-22.861322 13.31063,-22.861322 6.05692,0 11.23466,9.488913 13.31063,22.861322 -4.26182,0.378588 -8.70689,0.586193 -13.31063,0.586193 -4.60375,0 -9.04871,-0.207605 -13.31063,-0.586193 z M 125.76144,8.3106632 c -9.96463,0 -18.46392,14.9233618 -21.6022,35.7574528 -18.891298,-2.943153 -32.079887,-9.659891 -32.079887,-17.463515 0,-10.526954 24.032411,-19.0633038 53.682087,-19.0633038 29.64967,0 53.68209,8.5363498 53.68209,19.0633038 0,7.803624 -13.18847,14.520362 -32.07976,17.463515 C 144.22535,23.234025 135.72606,8.3106632 125.76144,8.3106632 Z M 46.166405,57.477156 c 0,-10.185007 3.919995,-19.747192 10.746226,-27.953827 -0.07089,0.574024 -0.121698,1.160101 -0.121698,1.746353 0,12.835064 19.245516,23.777233 46.098747,27.807273 -0.0237,0.92815 -0.0237,1.868471 -0.0237,2.808816 0,23.923787 6.70405,44.183899 15.97264,51.059379 C 78.113125,110.49051 46.167586,86.591141 46.167586,57.477156 Z m 86.518975,55.467994 c 9.26858,-6.87548 15.97276,-27.135592 15.97276,-51.059379 0,-0.952491 -0.0118,-1.880677 -0.0237,-2.808816 26.84093,-4.03004 46.09862,-14.959991 46.09862,-27.807273 0,-0.586194 -0.0473,-1.172388 -0.1217,-1.746353 6.82624,8.231058 10.74611,17.76882 10.74611,27.953827 0,29.113985 -31.94542,53.013354 -72.6711,55.467994 z m 0,0"
   id="path1-6" /></svg>
